<?xml version="1.0" standalone="no"?>
<!DOCTYPE svg PUBLIC "-//W3C//DTD SVG 1.1//EN" "http://www.w3.org/Graphics/SVG/1.1/DTD/svg11.dtd" >
<svg xmlns="http://www.w3.org/2000/svg" xmlns:xlink="http://www.w3.org/1999/xlink" version="1.1">
<metadata>
Created by FontForge 20190801 at Sun Jan 31 02:59:57 2016
 By Jimmy Wärting
Copyright (c) 2014 ParaType Inc., ParaType Ltd. All rights reserved.
</metadata>
<defs>
<font id="DIN2014-ExtraBold" horiz-adv-x="485" >
  <font-face 
    font-family="DIN 2014"
    font-weight="800"
    font-stretch="normal"
    units-per-em="1000"
    panose-1="2 11 8 4 2 2 2 2 2 4"
    ascent="779"
    descent="-221"
    x-height="500"
    cap-height="690"
    bbox="-389 -323 3054 1010"
    underline-thickness="50"
    underline-position="-250"
    unicode-range="U+0020-1F4F1"
  />
<missing-glyph horiz-adv-x="250" 
 />
    <glyph glyph-name="afii10017.var.accented" unicode="&#x410;`" horiz-adv-x="620" 
d="M203 118l-36 -118h-177l240 690h160l240 -690h-177l-37 118h-213zM373 256l-63 204l-64 -204h127zM385 740h-147l80 129h170z" />
    <glyph glyph-name="afii10022.var.accented" unicode="&#x415;`" horiz-adv-x="521" 
d="M60 0v690h436v-138h-270v-126h240v-138h-240v-150h270v-138h-436zM327 740h-147l80 129h170z" />
    <glyph glyph-name="afii10026.var.accented" unicode="&#x418;`" horiz-adv-x="686" 
d="M60 0v690h166v-391l268 391h132v-690h-166v386l-266 -386h-134zM417 740h-147l80 129h170z" />
    <glyph glyph-name="afii10032.var.accented" unicode="&#x41e;`" horiz-adv-x="634" 
d="M589 399v-108q0 -146 -73 -223.5t-199 -77.5t-199 77.5t-73 223.5v108q0 147 72.5 224t199.5 77t199.5 -77t72.5 -224zM211 399v-108q0 -163 106 -163t106 163v108q0 163 -106 163t-106 -163zM389 740h-147l80 129h170z" />
    <glyph glyph-name="afii10037.var.accented" unicode="&#x423;`" horiz-adv-x="577" 
d="M313 388l101 302h170l-201 -539q-34 -93 -96 -128q-61 -33 -177 -33v143q96 0 124 39l-234 518h184zM369 740h-147l80 129h170z" />
    <glyph glyph-name="afii10045.var.accented" unicode="&#x42b;`" horiz-adv-x="836" 
d="M60 0v690h166v-243h87q132 0 200 -59.5t68 -164.5q0 -106 -72 -164.5t-216 -58.5h-233zM610 690h166v-690h-166v690zM302 309h-76v-171h76q60 0 86.5 21t26.5 64q0 45 -26 65.5t-87 20.5zM469 740h-147l80 129h170z" />
    <glyph glyph-name="afii10047.var.accented" unicode="&#x42d;`" horiz-adv-x="601" 
d="M390 278h-182v138h181q-5 146 -105 146q-40 0 -65 -23.5t-31 -61.5h-158q17 110 82.5 166.5t171.5 56.5q127 0 199.5 -77t72.5 -224v-108q0 -146 -73 -223.5t-199 -77.5q-111 0 -173.5 54.5t-80.5 168.5h158q15 -85 96 -85q102 0 106 150zM347 740h-147l80 129h170z" />
    <glyph glyph-name="afii10048.var.accented" unicode="&#x42e;`" horiz-adv-x="868" 
d="M823 385v-80q0 -315 -260 -315q-253 0 -260 298h-77v-288h-166v690h166v-264h78q16 274 259 274q260 0 260 -315zM469 375v-59q0 -101 20.5 -144.5t73.5 -43.5t73.5 43.5t20.5 144.5v59q0 100 -20.5 143.5t-73.5 43.5t-73.5 -43.5t-20.5 -143.5zM419 740h-147l80 129h170
z" />
    <glyph glyph-name="afii10049.var.accented" unicode="&#x42f;`" horiz-adv-x="619" 
d="M322 261l-130 -261h-182l151 284q-123 46 -123 192q0 104 70 159t195 55h256v-690h-166v261h-71zM319 399h74v153h-74q-59 0 -87 -17.5t-28 -58.5t24.5 -59t90.5 -18zM389 740h-147l80 129h170z" />
    <glyph glyph-name="afii10023.var.accented" unicode="&#x401;`" horiz-adv-x="521" 
d="M60 0v690h436v-138h-270v-126h240v-138h-240v-150h270v-138h-436zM248 739h-140v130h140v-130zM448 739h-140v130h140v-130zM353 881h-147l80 129h170z" />
    <glyph glyph-name="afii10065.var.accented" unicode="&#x430;`" horiz-adv-x="484" 
d="M204 305h89v15q0 40 -15 54t-64 14q-58 0 -81 -34l-105 73q29 46 75.5 64.5t127.5 18.5q104 0 156 -41q52 -40 52 -150v-319h-146v41q-31 -51 -99 -51q-79 0 -126.5 42t-47.5 117q0 74 50 115t134 41zM293 184v15h-68q-59 0 -59 -46q0 -45 61 -45q66 0 66 76zM288 567
h-145l70 158h166z" />
    <glyph glyph-name="afii10070.var.accented" unicode="&#x435;`" 
d="M332 153l110 -77q-50 -86 -186 -86q-110 0 -168 61.5t-58 164.5v70q0 112 54.5 168t155.5 56q210 0 210 -239v-59h-270q2 -50 19 -73t58 -23q35 3 46.5 9t28.5 28zM241 384q-54 0 -60 -72h119q-2 39 -16.5 55.5t-42.5 16.5zM316 567h-145l70 158h166z" />
    <glyph glyph-name="afii10074.var.accented" unicode="&#x438;`" horiz-adv-x="530" 
d="M45 500h150v-231l163 231h127v-500h-150v242l-165 -242h-125v500zM339 567h-145l70 158h166z" />
    <glyph glyph-name="afii10080.var.accented" unicode="&#x43e;`" horiz-adv-x="500" 
d="M470 280v-58q0 -111 -55 -171.5t-165 -60.5q-109 0 -164.5 60.5t-55.5 171.5v58q0 113 56.5 171.5t163.5 58.5q108 0 164 -58t56 -172zM320 229v44q0 59 -16 85t-54 26t-54 -26t-16 -85v-44q0 -60 14.5 -86.5t55.5 -26.5t55.5 26.5t14.5 86.5zM316 567h-145l70 158h166z
" />
    <glyph glyph-name="afii10085.var.accented" unicode="&#x443;`" 
d="M187 -7l-182 507h157l93 -282l85 282h150l-175 -526q-34 -102 -82 -133q-47 -31 -157 -31v132q53 0 76 10.5t35 40.5zM325 567h-145l70 158h166z" />
    <glyph glyph-name="afii10093.var.accented" unicode="&#x44b;`" horiz-adv-x="671" 
d="M45 0v500h150v-162h44q212 0 212 -169t-211 -169h-195zM476 0v500h150v-500h-150zM227 212h-32v-86h44q52 0 52 43t-64 43zM394 567h-145l70 158h166z" />
    <glyph glyph-name="afii10095.var.accented" unicode="&#x44d;`" horiz-adv-x="447" 
d="M267 197h-137v112h137q-2 38 -19.5 56.5t-58.5 18.5q-42 0 -69 -38l-111 78q68 86 173 86q235 0 235 -224v-70q0 -109 -59.5 -167.5t-175.5 -58.5q-121 0 -177 86l108 77q28 -37 76 -37q43 0 60 20t18 61zM268 567h-145l70 158h166z" />
    <glyph glyph-name="afii10096.var.accented" unicode="&#x44e;`" horiz-adv-x="703" 
d="M673 286v-70q0 -105 -57 -165.5t-153 -60.5q-91 0 -147.5 52t-62.5 151h-58v-193h-150v500h150v-181h59q9 93 64 142t145 49q100 0 155 -57.5t55 -166.5zM523 226v50q0 58 -15 83t-45 25q-60 0 -60 -108v-50q0 -60 13.5 -85t46.5 -25t46.5 25.5t13.5 84.5zM351 567h-145
l70 158h166z" />
    <glyph glyph-name="afii10097.var.accented" unicode="&#x44f;`" horiz-adv-x="500" 
d="M455 500v-500h-150v172h-42l-96 -172h-157l114 199q-85 45 -85 142q0 159 212 159h204zM260 293h45v81h-50q-56 0 -56 -41q0 -40 61 -40zM337 567h-145l70 158h166z" />
    <glyph glyph-name="afii10071.var.accented" unicode="&#x451;`" 
d="M332 153l110 -77q-50 -86 -186 -86q-110 0 -168 61.5t-58 164.5v70q0 112 54.5 168t155.5 56q210 0 210 -239v-59h-270q2 -50 19 -73t58 -23q35 3 46.5 9t28.5 28zM241 384q-54 0 -60 -72h119q-2 39 -16.5 55.5t-42.5 16.5zM305 717h-145l70 158h166zM207 560h-140v130
h140v-130zM407 560h-140v130h140v-130z" />
    <glyph glyph-name="fi" unicode="fi" horiz-adv-x="508" 
d="M10 374v126h64v22q0 101 41 134q41 34 140 34h44v-130h-27q-27 0 -37.5 -13t-10.5 -44v-3h260v-500h-150v374h-110v-374h-150v374h-64z" />
    <glyph glyph-name="fl" unicode="fl" horiz-adv-x="573" 
d="M335 163v397h-63q-27 0 -37.5 -13t-10.5 -44v-3h75v-126h-75v-374h-150v374h-64v126h64v22q0 101 41 134q41 34 140 34h230v-494q0 -38 15 -53t48 -15v-128q-112 0 -163 33q-50 35 -50 130z" />
    <glyph glyph-name=".notdef" horiz-adv-x="250" 
 />
    <glyph glyph-name=".null" horiz-adv-x="0" 
 />
    <glyph glyph-name="nonmarkingreturn" horiz-adv-x="333" 
 />
    <glyph glyph-name="space" unicode=" " horiz-adv-x="250" 
 />
    <glyph glyph-name="exclam" unicode="!" horiz-adv-x="266" 
d="M60 690h146v-501h-146v501zM211 0h-156v156h156v-156z" />
    <glyph glyph-name="quotedbl" unicode="&#x22;" horiz-adv-x="382" 
d="M40 690h136v-189h-136v189zM206 690h136v-189h-136v189z" />
    <glyph glyph-name="numbersign" unicode="#" horiz-adv-x="560" 
d="M37 376v128h92l35 186h147l-35 -186h70l35 186h148l-35 -186h66v-128h-90l-11 -62h64v-128h-88l-35 -186h-147l34 186h-70l-34 -186h-148l35 186h-70v128h94l11 62h-68zM322 376h-70l-11 -62h70z" />
    <glyph glyph-name="dollar" unicode="$" horiz-adv-x="560" 
d="M533 583l-123 -88q-26 45 -65 58v-144q104 -32 149 -80q44 -47 44 -131q0 -83 -47.5 -136.5t-134.5 -66.5v-111h-136v111q-123 16 -199 112l124 87q34 -45 86 -60v150q-100 34 -144.5 84.5t-44.5 130.5q0 79 45 130.5t133 65.5v117h136v-118q120 -22 177 -111zM372 190
q0 30 -27 48v-96q27 16 27 48zM208 500q0 -26 23 -46v93q-23 -17 -23 -47z" />
    <glyph glyph-name="percent" unicode="%" horiz-adv-x="776" 
d="M123 0l386 690h143l-385 -690h-144zM756 204v-67q0 -147 -155 -147q-153 0 -153 147v67q0 145 153 145q155 0 155 -145zM633 137v64q0 26 -7.5 36.5t-23.5 10.5t-23 -10.5t-7 -36.5v-64q0 -26 7 -36.5t23 -10.5t23.5 10.5t7.5 36.5zM328 555v-67q0 -147 -155 -147
q-153 0 -153 147v67q0 145 153 145q155 0 155 -145zM205 488v64q0 26 -7.5 36.5t-23.5 10.5t-23 -10.5t-7 -36.5v-64q0 -26 7 -36.5t23 -10.5t23.5 10.5t7.5 36.5z" />
    <glyph glyph-name="ampersand" unicode="&#x26;" horiz-adv-x="673" 
d="M30 182q0 109 113 198q-63 81 -63 161q0 71 56 115t143 44q92 0 144 -40q53 -41 53 -99q0 -48 -33.5 -90t-106.5 -99l106 -119q7 27 7 69h158q0 -112 -53 -195l114 -127h-183l-30 33q-73 -43 -177 -43q-114 0 -181 57t-67 135zM287 128q41 0 71 12l-130 143
q-36 -39 -36 -73q0 -37 26 -59.5t69 -22.5zM236 541q0 -33 27 -77q67 49 67 89q0 18 -13 29t-35 11q-46 0 -46 -52z" />
    <glyph glyph-name="quotesingle" unicode="'" horiz-adv-x="216" 
d="M40 690h136v-189h-136v189z" />
    <glyph glyph-name="parenleft" unicode="(" horiz-adv-x="317" 
d="M317 0l-80 -116q-103 60 -140 120q-37 61 -37 148v392q0 88 37 147q37 60 140 121l80 -116q-61 -46 -75 -63q-32 -38 -32 -118v-334q0 -74 24 -107q18 -23 25 -30l44 -33q3 -2 7.5 -5.5t6.5 -5.5z" />
    <glyph glyph-name="parenright" unicode=")" horiz-adv-x="317" 
d="M100 -116l-80 116q62 46 75 63q32 38 32 118v334q0 74 -24 106q-18 24 -26 30q-9 9 -43 34q-3 3 -7.5 6t-6.5 5l80 116q102 -60 139 -121q38 -61 38 -147v-392q0 -86 -38 -148q-38 -60 -139 -120z" />
    <glyph glyph-name="asterisk" unicode="*" horiz-adv-x="429" 
d="M152 690h108l-5 -91l75 51l54 -94l-79 -40l80 -41l-55 -93l-75 49l5 -90h-108l4 88l-73 -48l-55 93l82 41l-81 41l53 94l74 -49z" />
    <glyph glyph-name="plus" unicode="+" horiz-adv-x="560" 
d="M190 291h-130v126h130v132h127v-132h132v-126h-132v-131h-127v131z" />
    <glyph glyph-name="comma" unicode="," horiz-adv-x="276" 
d="M60 176h156v-215l-156 -133v348z" />
    <glyph glyph-name="hyphen" unicode="-" horiz-adv-x="319" 
d="M289 223h-259v132h259v-132z" />
    <glyph glyph-name="period" unicode="." horiz-adv-x="296" 
d="M60 176h176v-176h-176v176z" />
    <glyph glyph-name="slash" unicode="/" 
d="M517 812l-336 -928h-134l336 928h134z" />
    <glyph glyph-name="zero" unicode="0" horiz-adv-x="560" 
d="M528 471v-251q0 -120 -69 -175q-68 -55 -179 -55t-179 55q-69 55 -69 175v250q0 230 248 230t248 -229zM197 451v-212q0 -59 19 -85t64 -26q44 0 63 26.5t19 84.5v212q0 58 -19 84.5t-63 26.5q-45 0 -64 -26t-19 -85z" />
    <glyph glyph-name="one" unicode="1" horiz-adv-x="560" 
d="M245 690h146v-690h-166v521l-99 -61v154z" />
    <glyph glyph-name="two" unicode="2" horiz-adv-x="560" 
d="M282 138h211v-138h-435v98l225 265q57 68 57 130q0 33 -20.5 52t-52.5 19q-31 0 -50.5 -18.5t-22.5 -52.5h-143q0 89 65 148q67 59 161 59q97 0 162 -60q66 -60 66 -146q0 -45 -19 -89q-21 -49 -38 -71q-18 -26 -48 -60z" />
    <glyph glyph-name="three" unicode="3" horiz-adv-x="560" 
d="M252 287h-54v138h54q35 0 57.5 18.5t22.5 52.5q0 32 -20 50t-53 18q-60 0 -73 -61h-143q4 85 68 141q65 56 158 56q97 0 162 -58q66 -58 66 -136q0 -96 -90 -148q100 -54 100 -163q0 -89 -60 -148q-60 -57 -170 -57t-175 55t-69 146h143q10 -63 88 -63q37 0 57.5 21.5
t20.5 57.5q0 80 -90 80z" />
    <glyph glyph-name="four" unicode="4" horiz-adv-x="560" 
d="M4 205l233 485h185l-208 -460h99v163h166v-163h63v-138h-63v-92h-166v92h-309v113z" />
    <glyph glyph-name="five" unicode="5" horiz-adv-x="560" 
d="M284 342q-41 0 -61 -51h-149v399h413v-146h-250v-88q41 32 98 32q80 0 128.5 -63.5t48.5 -180.5q0 -129 -55.5 -191.5t-167.5 -62.5q-96 0 -163 49q-66 49 -75 146h164q13 -57 69 -57q62 0 62 106q0 108 -62 108z" />
    <glyph glyph-name="six" unicode="6" horiz-adv-x="560" 
d="M241 690h176l-150 -274q32 12 68 12q79 0 136 -60q57 -58 57 -148q0 -118 -69 -174q-70 -56 -178 -56q-110 0 -180 55q-69 55 -69 175q0 88 71 216zM281 128q81 0 81 83t-81 83q-41 0 -62 -22t-21 -61t21 -61t62 -22z" />
    <glyph glyph-name="seven" unicode="7" horiz-adv-x="560" 
d="M209 552v-101h-138v239h438v-108l-189 -582h-171l190 552h-130z" />
    <glyph glyph-name="eight" unicode="8" horiz-adv-x="560" 
d="M32 191q0 55 28.5 100t72.5 67q-41 22 -66 63.5t-25 89.5q0 89 69 139q71 50 169 50t168 -50q70 -49 70 -139q0 -48 -25 -89.5t-67 -63.5q45 -21 73.5 -66.5t28.5 -100.5q0 -97 -70 -149t-178 -52t-178 52t-70 149zM197 211q0 -36 23.5 -60t59.5 -24q35 0 59 24.5
t24 59.5t-25 59t-58 24q-34 0 -58.5 -23.5t-24.5 -59.5zM206 490q0 -31 21.5 -52.5t52.5 -21.5q30 0 51.5 21.5t21.5 52.5q0 30 -21.5 51t-51.5 21q-31 0 -52.5 -21t-21.5 -51z" />
    <glyph glyph-name="nine" unicode="9" horiz-adv-x="560" 
d="M319 0h-176l150 274q-32 -12 -68 -12q-79 0 -136 59q-57 60 -57 149q0 118 69 174q70 56 178 56q109 0 179 -56q70 -55 70 -174q0 -88 -71 -216zM279 562q-81 0 -81 -83t81 -83q41 0 62 22t21 61t-21 61t-62 22z" />
    <glyph glyph-name="colon" unicode=":" horiz-adv-x="261" 
d="M60 156h156v-156h-156v156zM60 500h156v-156h-156v156z" />
    <glyph glyph-name="semicolon" unicode=";" horiz-adv-x="261" 
d="M60 156h156v-195l-156 -133v328zM60 500h156v-156h-156v156z" />
    <glyph glyph-name="less" unicode="&#x3c;" horiz-adv-x="560" 
d="M443 580v-170l-152 -74l152 -74v-170l-325 183v122z" />
    <glyph glyph-name="equal" unicode="=" horiz-adv-x="560" 
d="M475 340h-389v142h389v-142zM475 156h-389v142h389v-142z" />
    <glyph glyph-name="greater" unicode="&#x3e;" horiz-adv-x="560" 
d="M117 262l152 74l-152 74v170l325 -183v-122l-325 -183v170z" />
    <glyph glyph-name="question" unicode="?" horiz-adv-x="487" 
d="M303 217v-28h-140v65q0 40 8.5 63t34.5 49l44 42q33 31 44.5 50.5t11.5 48.5q0 25 -16 40.5t-43 15.5t-44 -12.5t-17 -35.5h-155q0 91 60 138q62 47 156 47q98 0 161 -48q64 -48 64 -145q0 -105 -97 -193l-36 -33q-21 -19 -27 -29t-9 -35zM311 0h-156v156h156v-156z" />
    <glyph glyph-name="at" unicode="@" horiz-adv-x="898" 
d="M500 484h150v-235q0 -37 7 -51t27 -14q44 0 44 117q0 258 -279 258q-149 0 -214 -91q-55 -79 -55 -192q0 -144 75 -213t199 -69q69 0 117 12q46 12 105 41l54 -108q-101 -71 -281 -71q-83 0 -157.5 26t-133.5 75t-93.5 128.5t-34.5 178.5q0 97 34 175.5t92.5 129
t133.5 77.5t159 27q191 0 310 -102t119 -283q0 -116 -49.5 -179t-139.5 -63q-97 0 -138 63q-36 -63 -132 -63q-78 0 -123 50.5t-45 139.5v52q0 92 45.5 140.5t122.5 48.5q49 0 81 -19v14zM446 184q30 0 42 15t12 52v53q0 34 -12.5 46.5t-41.5 12.5q-45 0 -45 -67v-35
q0 -43 10 -60t35 -17z" />
    <glyph glyph-name="A" unicode="A" horiz-adv-x="620" 
d="M203 118l-36 -118h-177l240 690h160l240 -690h-177l-37 118h-213zM373 256l-63 204l-64 -204h127z" />
    <glyph glyph-name="B" unicode="B" horiz-adv-x="611" 
d="M60 0v690h241q258 0 258 -183q0 -92 -79 -144q101 -50 101 -165q0 -92 -65 -145t-193 -53h-263zM293 289h-67v-151h79q110 0 110 76q0 41 -28.5 58t-93.5 17zM281 553h-55v-126h70q97 0 97 61q0 34 -24.5 49.5t-87.5 15.5z" />
    <glyph glyph-name="C" unicode="C" horiz-adv-x="601" 
d="M571 477h-158q-6 38 -31 61.5t-65 23.5q-106 0 -106 -163v-108q0 -163 106 -163q81 0 96 85h158q-18 -114 -80.5 -168.5t-173.5 -54.5q-126 0 -199 77.5t-73 223.5v108q0 147 72.5 224t199.5 77q106 0 171.5 -56.5t82.5 -166.5z" />
    <glyph glyph-name="D" unicode="D" horiz-adv-x="634" 
d="M317 0h-257v690h257q130 0 201 -72t71 -223v-100q0 -150 -71 -222.5t-201 -72.5zM226 138h91q58 0 82 38.5t24 118.5v100q0 80 -24 118.5t-82 38.5h-91v-414z" />
    <glyph glyph-name="E" unicode="E" horiz-adv-x="521" 
d="M60 0v690h436v-138h-270v-126h240v-138h-240v-150h270v-138h-436z" />
    <glyph glyph-name="F" unicode="F" horiz-adv-x="516" 
d="M60 0v690h436v-138h-270v-142h240v-138h-240v-272h-166z" />
    <glyph glyph-name="G" unicode="G" horiz-adv-x="616" 
d="M320 227v138h251v-74q0 -149 -66 -225t-188 -76q-126 0 -199 77.5t-73 223.5v94q0 155 72.5 235t199.5 80q109 0 174 -58.5t80 -164.5h-158q-6 38 -31 61.5t-65 23.5q-106 0 -106 -163v-108q0 -163 106 -163q85 0 95 99h-92z" />
    <glyph glyph-name="H" unicode="H" horiz-adv-x="664" 
d="M60 690h166v-264h212v264h166v-690h-166v288h-212v-288h-166v690z" />
    <glyph glyph-name="I" unicode="I" horiz-adv-x="306" 
d="M70 690h166v-690h-166v690z" />
    <glyph glyph-name="J" unicode="J" horiz-adv-x="516" 
d="M-15 102l135 76q35 -50 87 -50q43 0 63 28.5t20 99.5v434h166v-434q0 -266 -236 -266q-156 0 -235 112z" />
    <glyph glyph-name="K" unicode="K" horiz-adv-x="648" 
d="M393 411l240 -411h-198l-149 265l-60 -82v-183h-166v690h166v-256l178 256h193z" />
    <glyph glyph-name="L" unicode="L" horiz-adv-x="506" 
d="M60 690h166v-552h270v-138h-436v690z" />
    <glyph glyph-name="M" unicode="M" horiz-adv-x="802" 
d="M60 690h154l187 -350l186 350h155v-690h-156v390l-142 -276h-89l-139 273v-387h-156v690z" />
    <glyph glyph-name="N" unicode="N" horiz-adv-x="664" 
d="M448 303v387h156v-690h-134l-254 382v-382h-156v690h132z" />
    <glyph glyph-name="O" unicode="O" horiz-adv-x="634" 
d="M589 399v-108q0 -146 -73 -223.5t-199 -77.5t-199 77.5t-73 223.5v108q0 147 72.5 224t199.5 77t199.5 -77t72.5 -224zM211 399v-108q0 -163 106 -163t106 163v108q0 163 -106 163t-106 -163z" />
    <glyph glyph-name="P" unicode="P" horiz-adv-x="591" 
d="M320 233h-94v-233h-166v690h260q125 0 193 -57t68 -167q0 -112 -69 -172.5t-192 -60.5zM226 552v-181h64q66 0 95.5 22t29.5 73q0 86 -125 86h-64z" />
    <glyph glyph-name="Q" unicode="Q" horiz-adv-x="645" 
d="M589 399v-108q0 -87 -27 -151l98 -81l-85 -103l-97 79q-64 -45 -161 -45q-126 0 -199 77.5t-73 223.5v108q0 147 72.5 224t199.5 77t199.5 -77t72.5 -224zM211 399v-108q0 -163 106 -163q25 0 40 7l-65 53l86 105l44 -37q1 7 1 35v108q0 163 -106 163t-106 -163z" />
    <glyph glyph-name="R" unicode="R" horiz-adv-x="624" 
d="M471 290l138 -290h-182l-115 261h-86v-261h-166v690h260q123 0 192 -56t69 -161q0 -133 -110 -183zM226 552v-153h74q61 0 88 15.5t27 58.5q0 44 -28 61.5t-87 17.5h-74z" />
    <glyph glyph-name="S" unicode="S" horiz-adv-x="577" 
d="M542 587l-123 -88q-20 34 -48 48.5t-75 14.5q-79 0 -79 -60q0 -30 28 -50t95 -39q114 -33 160 -81q47 -49 47 -136q0 -96 -63 -151t-178 -55q-97 0 -162.5 26.5t-113.5 86.5l124 87q50 -62 138 -62q44 0 66.5 16t22.5 44q0 30 -27 49q-22 17 -103 44q-105 34 -152.5 85.5
t-47.5 134.5q0 92 62.5 145.5t180.5 53.5q174 0 248 -113z" />
    <glyph glyph-name="T" unicode="T" horiz-adv-x="546" 
d="M10 552v138h526v-138h-180v-552h-166v552h-180z" />
    <glyph glyph-name="U" unicode="U" horiz-adv-x="664" 
d="M438 278v412h166v-411q0 -146 -75 -218q-76 -71 -197 -71t-197 71q-75 72 -75 217v412h166v-412q0 -78 25 -114t81 -36t81 36t25 114z" />
    <glyph glyph-name="V" unicode="V" horiz-adv-x="621" 
d="M236 0l-236 690h181l129 -417l130 417h181l-236 -690h-149z" />
    <glyph glyph-name="W" unicode="W" horiz-adv-x="912" 
d="M596 0l-141 446l-140 -446h-156l-154 690h180l75 -412l122 412h145l125 -415l75 415h180l-154 -690h-157z" />
    <glyph glyph-name="X" unicode="X" horiz-adv-x="612" 
d="M306 217l-117 -217h-179l188 356l-167 334h179l96 -202l96 202h179l-168 -334l189 -356h-179z" />
    <glyph glyph-name="Y" unicode="Y" horiz-adv-x="596" 
d="M215 276l-215 414h191l107 -237l107 237h191l-215 -414v-276h-166v276z" />
    <glyph glyph-name="Z" unicode="Z" horiz-adv-x="519" 
d="M30 552v138h459v-108l-250 -444h260v-138h-469v108l254 444h-254z" />
    <glyph glyph-name="bracketleft" unicode="[" horiz-adv-x="335" 
d="M325 -102h-255v894h255v-126h-105v-642h105v-126z" />
    <glyph glyph-name="backslash" unicode="\" 
d="M350 -116l-336 928h135l336 -928h-135z" />
    <glyph glyph-name="bracketright" unicode="]" horiz-adv-x="335" 
d="M10 670v122h255v-894h-255v122h105v650h-105z" />
    <glyph glyph-name="asciicircum" unicode="^" horiz-adv-x="560" 
d="M41 437l174 253h128l176 -253h-170l-69 100l-59 -100h-180z" />
    <glyph glyph-name="underscore" unicode="_" horiz-adv-x="526" 
d="M0 -175v122h526v-122h-526z" />
    <glyph glyph-name="grave" unicode="`" horiz-adv-x="346" 
d="M55 725h166l70 -158h-145z" />
    <glyph glyph-name="a" unicode="a" horiz-adv-x="484" 
d="M204 305h89v15q0 40 -15 54t-64 14q-58 0 -81 -34l-105 73q29 46 75.5 64.5t127.5 18.5q104 0 156 -41q52 -40 52 -150v-319h-146v41q-31 -51 -99 -51q-79 0 -126.5 42t-47.5 117q0 74 50 115t134 41zM293 184v15h-68q-59 0 -59 -46q0 -45 61 -45q66 0 66 76z" />
    <glyph glyph-name="b" unicode="b" horiz-adv-x="505" 
d="M45 690h140v-212q34 32 94 32q92 0 144 -60t52 -170v-58q0 -109 -51 -170.5t-145 -61.5q-59 0 -94 32v-22h-140v690zM255 116q41 0 55.5 26.5t14.5 86.5v44q0 59 -16 85t-54 26t-53.5 -23.5t-16.5 -76.5v-55q0 -113 70 -113z" />
    <glyph glyph-name="c" unicode="c" horiz-adv-x="447" 
d="M331 153l111 -77q-53 -86 -186 -86q-106 0 -166 61t-60 165v70q0 110 59.5 167t176.5 57q125 0 176 -86l-112 -78q-27 38 -68 38q-46 0 -64 -25t-18 -86v-44q0 -61 16.5 -87t65.5 -26q47 0 69 37z" />
    <glyph glyph-name="d" unicode="d" horiz-adv-x="515" 
d="M320 483v207h150v-690h-150v22q-38 -32 -94 -32q-93 0 -144.5 61t-51.5 165v70q0 107 52.5 165.5t143.5 58.5q56 0 94 -27zM320 229v55q0 100 -70 100q-38 0 -54 -26t-16 -85v-44q0 -60 14.5 -86.5t55.5 -26.5t55.5 26.5t14.5 86.5z" />
    <glyph glyph-name="e" unicode="e" 
d="M332 153l110 -77q-50 -86 -186 -86q-110 0 -168 61.5t-58 164.5v70q0 112 54.5 168t155.5 56q210 0 210 -239v-59h-270q2 -50 19 -73t58 -23q35 3 46.5 9t28.5 28zM241 384q-54 0 -60 -72h119q-2 39 -16.5 55.5t-42.5 16.5z" />
    <glyph glyph-name="f" unicode="f" horiz-adv-x="309" 
d="M10 374v126h64v22q0 101 41 134q41 34 140 34h44v-130h-27q-27 0 -37.5 -13t-10.5 -44v-3h75v-126h-75v-374h-150v374h-64z" />
    <glyph glyph-name="g" unicode="g" horiz-adv-x="515" 
d="M320 483v17h150v-490q0 -100 -43 -150q-55 -58 -181 -56q-75 0 -123 21t-83 72l98 71q33 -40 88 -40q56 0 75 15t19 67v9q-38 -29 -94 -29q-93 0 -144.5 61t-51.5 165v70q0 107 52.5 165.5t143.5 58.5q54 0 94 -27zM250 116q38 0 54 24t16 74v70q0 100 -70 100
q-38 0 -54 -26t-16 -85v-44q0 -60 14.5 -86.5t55.5 -26.5z" />
    <glyph glyph-name="h" unicode="h" horiz-adv-x="526" 
d="M195 0h-150v690h150v-224q38 44 102 44q184 0 184 -196v-314h-150v285q0 52 -14.5 74.5t-49.5 22.5q-38 0 -55 -23.5t-17 -72.5v-286z" />
    <glyph glyph-name="i" unicode="i" horiz-adv-x="270" 
d="M210 0h-150v500h150v-500zM215 550h-160v140h160v-140z" />
    <glyph glyph-name="j" unicode="j" horiz-adv-x="258" 
d="M58 500h150v-523q0 -99 -49 -133t-159 -34v128q31 0 44.5 12.5t13.5 44.5v505zM213 550h-160v140h160v-140z" />
    <glyph glyph-name="k" unicode="k" horiz-adv-x="509" 
d="M195 340l110 160h176l-155 -202l183 -298h-172l-108 171l-34 -44v-127h-150v690h150v-350z" />
    <glyph glyph-name="l" unicode="l" horiz-adv-x="288" 
d="M45 163v527h150v-494q0 -38 15 -53t48 -15v-128q-112 0 -163 33q-50 35 -50 130z" />
    <glyph glyph-name="m" unicode="m" horiz-adv-x="792" 
d="M195 0h-150v500h146v-38q37 48 105 48q90 0 137 -63q57 63 141 63t128.5 -50t44.5 -146v-314h-150v285q0 52 -14.5 74.5t-49.5 22.5q-62 0 -62 -87v-295h-150v285q0 97 -62 97q-64 0 -64 -96v-286z" />
    <glyph glyph-name="n" unicode="n" horiz-adv-x="526" 
d="M195 0h-150v500h146v-38q37 48 106 48q184 0 184 -196v-314h-150v285q0 52 -14.5 74.5t-49.5 22.5q-38 0 -55 -23.5t-17 -72.5v-286z" />
    <glyph glyph-name="o" unicode="o" horiz-adv-x="500" 
d="M470 280v-58q0 -111 -55 -171.5t-165 -60.5q-109 0 -164.5 60.5t-55.5 171.5v58q0 113 56.5 171.5t163.5 58.5q108 0 164 -58t56 -172zM320 229v44q0 59 -16 85t-54 26t-54 -26t-16 -85v-44q0 -60 14.5 -86.5t55.5 -26.5t55.5 26.5t14.5 86.5z" />
    <glyph glyph-name="p" unicode="p" horiz-adv-x="515" 
d="M485 286v-70q0 -103 -50.5 -164.5t-141.5 -61.5q-63 0 -98 20v-200h-150v690h150v-25q38 35 99 35q87 0 139 -60t52 -164zM265 116q41 0 55.5 26.5t14.5 86.5v44q0 59 -16 85t-54 26t-54 -26t-16 -85v-59q0 -51 15 -74.5t55 -23.5z" />
    <glyph glyph-name="q" unicode="q" horiz-adv-x="515" 
d="M320 484v16h150v-690h-150v212q-38 -32 -94 -32q-93 0 -144.5 61t-51.5 165v70q0 107 52.5 165.5t143.5 58.5q54 0 94 -26zM320 229v55q0 100 -70 100q-38 0 -54 -26t-16 -85v-44q0 -60 14.5 -86.5t55.5 -26.5t55.5 26.5t14.5 86.5z" />
    <glyph glyph-name="r" unicode="r" horiz-adv-x="417" 
d="M427 426l-112 -80q-23 36 -52 36q-68 0 -68 -97v-285h-150v500h146v-38q37 48 105 48q88 0 131 -84z" />
    <glyph glyph-name="s" unicode="s" horiz-adv-x="463" 
d="M426 427l-111 -80q-30 35 -85 35q-47 0 -47 -26q0 -13 13.5 -20t48.5 -14q100 -19 144 -60t44 -113q0 -75 -52 -117t-148 -42q-79 0 -129.5 19.5t-83.5 63.5l116 84q16 -21 36 -30t58 -9q53 0 53 27q0 14 -13 20.5t-51 15.5q-94 21 -140 61t-46 108q0 75 52.5 117.5
t147.5 42.5q142 0 193 -83z" />
    <glyph glyph-name="t" unicode="t" horiz-adv-x="339" 
d="M74 374h-64v126h64v110h150v-110h90v-126h-90v-187q0 -31 10.5 -44t37.5 -13h42v-130h-59q-98 0 -140 33q-41 35 -41 135v206z" />
    <glyph glyph-name="u" unicode="u" horiz-adv-x="526" 
d="M331 500h150v-500h-147v39q-16 -27 -39 -38t-66 -11q-86 0 -135 48.5t-49 149.5v312h150v-284q0 -52 15 -75t51 -23q38 0 54 22.5t16 74.5v285z" />
    <glyph glyph-name="v" unicode="v" horiz-adv-x="504" 
d="M252 212l92 288h165l-185 -500h-140l-189 500h165z" />
    <glyph glyph-name="w" unicode="w" horiz-adv-x="716" 
d="M461 0l-103 284l-103 -284h-120l-135 500h155l57 -255l89 255h107l95 -255l58 255h155l-135 -500h-120z" />
    <glyph glyph-name="x" unicode="x" horiz-adv-x="496" 
d="M335 256l156 -256h-164l-79 136l-79 -136h-164l156 256l-146 244h164l69 -127l69 127h164z" />
    <glyph glyph-name="y" unicode="y" 
d="M187 -7l-182 507h157l93 -282l85 282h150l-175 -526q-34 -102 -82 -133q-47 -31 -157 -31v132q53 0 76 10.5t35 40.5z" />
    <glyph glyph-name="z" unicode="z" horiz-adv-x="448" 
d="M25 0v102l198 272h-194v126h389v-102l-196 -272h206v-126h-403z" />
    <glyph glyph-name="braceleft" unicode="{" horiz-adv-x="333" 
d="M250 595v-179q0 -30 -10.5 -46t-34.5 -24q45 -15 45 -70v-179q0 -42 10.5 -54t43.5 -12h9v-126h-49q-83 0 -124 32q-40 31 -40 123v168q0 28 -11.5 40t-38.5 12h-19v132h19q27 0 38.5 12t11.5 40v168q0 92 40 123q41 32 124 32h49v-126h-9q-33 0 -43.5 -12t-10.5 -54z
" />
    <glyph glyph-name="bar" unicode="|" horiz-adv-x="307" 
d="M85 812h144v-928h-144v928z" />
    <glyph glyph-name="braceright" unicode="}" horiz-adv-x="317" 
d="M94 416v179q0 42 -10.5 54t-43.5 12h-9v126h49q83 0 124 -32q40 -31 40 -123v-168q0 -28 11.5 -40t38.5 -12h19v-132h-19q-27 0 -38.5 -12t-11.5 -40v-168q0 -92 -40 -123q-41 -32 -124 -32h-49v126h9q33 0 43.5 12t10.5 54v179q0 55 45 70q-24 8 -34.5 24t-10.5 46z" />
    <glyph glyph-name="asciitilde" unicode="~" horiz-adv-x="560" 
d="M365 251q-49 0 -97 22t-75 22q-49 0 -82 -44l-100 81q73 91 182 91q50 0 98 -22t74 -22q51 0 83 44l100 -81q-73 -91 -183 -91z" />
    <glyph glyph-name="uni00A0" unicode="&#xa0;" horiz-adv-x="250" 
 />
    <glyph glyph-name="exclamdown" unicode="&#xa1;" horiz-adv-x="266" 
d="M206 -190h-146v501h146v-501zM55 500h156v-156h-156v156z" />
    <glyph glyph-name="cent" unicode="&#xa2;" horiz-adv-x="560" 
d="M371 157l111 -77q-41 -67 -120 -80v-116h-134v117q-75 19 -116.5 76.5t-41.5 142.5v62q0 181 158 216v124h134v-122q82 -16 120 -80l-112 -78q-27 38 -68 38q-46 0 -64 -25t-18 -86v-36q0 -61 16.5 -87t65.5 -26q47 0 69 37z" />
    <glyph glyph-name="sterling" unicode="&#xa3;" horiz-adv-x="560" 
d="M519 0h-489v138h73v120h-73v138h73v41q0 263 224 263q76 0 127 -26t90 -86l-135 -76q-35 50 -73 50q-67 0 -67 -125v-41h120v-138h-120v-120h250v-138z" />
    <glyph glyph-name="currency" unicode="&#xa4;" horiz-adv-x="560" 
d="M82 366q0 45 18 84l-84 84l97 97l83 -83q39 19 85 19t85 -19l84 84l97 -97l-84 -84q39 -85 0 -170l84 -84l-97 -97l-85 84q-37 -18 -84 -18q-46 0 -85 18l-83 -83l-97 97l84 84q-18 38 -18 84zM281 281q36 0 59.5 24.5t23.5 60.5t-23.5 60.5t-59.5 24.5q-34 0 -57.5 -25
t-23.5 -60t23.5 -60t57.5 -25z" />
    <glyph glyph-name="yen" unicode="&#xa5;" horiz-adv-x="560" 
d="M62 106v128h135v42h-135v128h63l-105 286h186l74 -284l74 284h186l-106 -286h64v-128h-135v-42h135v-128h-135v-106h-166v106h-135z" />
    <glyph glyph-name="brokenbar" unicode="&#xa6;" horiz-adv-x="278" 
d="M63 243h166v-243h-166v243zM63 690h166v-243h-166v243z" />
    <glyph glyph-name="section" unicode="&#xa7;" horiz-adv-x="549" 
d="M69 -29h146q1 -37 36 -37q36 0 36 31q0 42 -70 67q-97 36 -137 82t-40 132q0 112 88 163q-56 48 -56 123q0 74 50 116.5t137 42.5q180 0 180 -162h-146q-1 37 -36 37q-36 0 -36 -31q0 -41 78 -70q92 -35 130 -82q39 -47 39 -133q0 -108 -88 -159q56 -51 56 -123
q0 -74 -50 -116.5t-137 -42.5q-180 0 -180 162zM254 317q-67 0 -67 -67t67 -67t67 67q0 32 -18 49.5t-49 17.5z" />
    <glyph glyph-name="dieresis" unicode="&#xa8;" horiz-adv-x="433" 
d="M186 560h-140v130h140v-130zM386 560h-140v130h140v-130z" />
    <glyph glyph-name="copyright" unicode="&#xa9;" horiz-adv-x="945" 
d="M154 -62q-128 128 -128 312t128 312q130 128 312 128q183 0 311 -128q129 -128 129 -312t-129 -312q-128 -128 -311 -128q-182 0 -312 128zM252 467q-87 -89 -87 -217t87 -218q89 -89 214 -89q126 0 212 89q87 88 87 218q0 128 -87 217q-86 89 -212 89q-125 0 -214 -89z
M543 153l111 -77q-53 -86 -186 -86q-106 0 -166 61t-60 165v70q0 110 59.5 167t176.5 57q125 0 176 -86l-112 -78q-27 38 -68 38q-46 0 -64 -25t-18 -86v-44q0 -61 16.5 -87t65.5 -26q47 0 69 37z" />
    <glyph glyph-name="ordfeminine" unicode="&#xaa;" horiz-adv-x="316" 
d="M12 467q0 101 121 101h53v9q0 21 -9 29.5t-35 8.5q-38 0 -54 -31l-70 45q32 63 137 63q68 0 100.5 -24t32.5 -77v-217h-102v20q-21 -24 -67 -24q-47 0 -77 25t-30 72zM186 486v8h-36q-34 0 -34 -25q0 -22 31 -22q20 0 29.5 8.5t9.5 30.5z" />
    <glyph glyph-name="guillemotleft" unicode="&#xab;" horiz-adv-x="519" 
d="M262 52l-232 231l232 231v-162l-70 -69l70 -69v-162zM484 52l-232 231l232 231v-162l-70 -69l70 -69v-162z" />
    <glyph glyph-name="logicalnot" unicode="&#xac;" horiz-adv-x="550" 
d="M497 422v-265h-156v137h-297v128h453z" />
    <glyph glyph-name="uni00AD" unicode="&#xad;" horiz-adv-x="319" 
d="M289 223h-259v132h259v-132z" />
    <glyph glyph-name="registered" unicode="&#xae;" horiz-adv-x="529" 
d="M72 313q-78 79 -78 188t78 187q78 79 188 79t188 -79q78 -78 78 -187t-78 -188q-78 -78 -188 -78t-188 78zM130 630q-53 -53 -53 -129q0 -75 53 -130q55 -53 130 -53q76 0 129 53q53 55 53 130q0 76 -53 129t-129 53q-75 0 -130 -53zM226 460v-86h-74v261h113
q49 0 76 -23.5t27 -61.5q0 -52 -44 -75l57 -101h-84l-45 86h-26zM226 573v-51h23q41 0 41 27q0 24 -36 24h-28z" />
    <glyph glyph-name="overscore" unicode="&#xaf;" horiz-adv-x="408" 
d="M348 560h-289v130h289v-130z" />
    <glyph glyph-name="degree" unicode="&#xb0;" horiz-adv-x="308" 
d="M51 456q-42 42 -42 103t42 103q44 42 103 42q60 0 102 -42q43 -42 43 -103t-43 -103q-42 -42 -102 -42t-103 42zM197 559q0 19 -12 32t-31 13t-32 -13t-13 -32t13 -32.5t32 -13.5t31 13t12 33z" />
    <glyph glyph-name="plusminus" unicode="&#xb1;" horiz-adv-x="509" 
d="M190 331h-130v126h130v132h127v-132h132v-126h-132v-93h-127v93zM449 92h-389v126h389v-126z" />
    <glyph glyph-name="twosuperior" unicode="&#xb2;" horiz-adv-x="278" 
d="M169 451h104v-77h-245v70l100 82q35 30 35 52q0 23 -23 23t-25 -26h-96q0 55 35.5 86.5t90.5 31.5q57 0 90 -29t33 -80q0 -58 -66 -107z" />
    <glyph glyph-name="threesuperior" unicode="&#xb3;" horiz-adv-x="301" 
d="M134 504h-10v64h10q30 0 30 23q0 20 -22 20q-21 0 -25 -22h-98q0 48 35 76t92 28q54 0 85 -24t31 -67q0 -46 -38 -64q45 -20 45 -67q0 -49 -33 -74.5t-90 -25.5q-60 0 -94.5 29t-36.5 78h100q3 -21 27 -21q25 0 25 23q0 24 -33 24z" />
    <glyph glyph-name="acute" unicode="&#xb4;" horiz-adv-x="416" 
d="M235 567h-145l70 158h166z" />
    <glyph glyph-name="mu" unicode="&#x3bc;" horiz-adv-x="526" 
d="M195 -1v-136h-150v637h150v-283q0 -58 16 -78.5t53 -20.5q36 0 51.5 23t15.5 75v284h130v-500h-127v39q-28 -49 -88 -49q-30 0 -51 9z" />
    <glyph glyph-name="mu" unicode="&#xb5;" horiz-adv-x="526" 
d="M195 -1v-136h-150v637h150v-283q0 -58 16 -78.5t53 -20.5q36 0 51.5 23t15.5 75v284h130v-500h-127v39q-28 -49 -88 -49q-30 0 -51 9z" />
    <glyph glyph-name="paragraph" unicode="&#xb6;" horiz-adv-x="684" 
d="M235 690h380v-880h-156v742h-68v-742h-156v500q-80 0 -135 55t-55 135q0 79 55 134q56 56 135 56z" />
    <glyph glyph-name="middot" unicode="&#xb7;" horiz-adv-x="216" 
d="M20 436h176v-176h-176v176z" />
    <glyph glyph-name="cedilla" unicode="&#xb8;" horiz-adv-x="354" 
d="M113 -73l21 98l92 -3l-11 -44q48 -22 48 -71q0 -40 -33.5 -63.5t-88.5 -23.5q-36 0 -51 4l17 71q16 -2 19 -2q26 0 26 17t-39 17z" />
    <glyph glyph-name="onesuperior" unicode="&#xb9;" horiz-adv-x="277" 
d="M137 690h94v-316h-104v208l-57 -35v100z" />
    <glyph glyph-name="ordmasculine" unicode="&#xba;" horiz-adv-x="356" 
d="M311 555v-45q0 -66 -38 -102.5t-105 -36.5q-65 0 -103.5 36t-38.5 103v45q0 67 38 102.5t104 35.5q67 0 105 -35t38 -103zM168 465q39 0 39 46v42q0 46 -39 46q-38 0 -38 -46v-42q0 -46 38 -46z" />
    <glyph glyph-name="guillemotright" unicode="&#xbb;" horiz-adv-x="519" 
d="M257 352v162l232 -231l-232 -231v162l70 69zM35 352v162l232 -231l-232 -231v162l70 69z" />
    <glyph glyph-name="onequarter" unicode="&#xbc;" horiz-adv-x="684" 
d="M137 690h94v-316h-104v208l-57 -35v100zM334 115l132 201h120l-123 -194h35v39h104v-39h39v-81h-39v-41h-104v41h-164v74zM14 0l475 690h151l-474 -690h-152z" />
    <glyph glyph-name="onehalf" unicode="&#xbd;" horiz-adv-x="671" 
d="M137 690h94v-316h-104v208l-57 -35v100zM529 77h104v-77h-245v70l100 82q35 30 35 52q0 23 -23 23t-25 -26h-96q0 55 35.5 86.5t90.5 31.5q57 0 90 -29t33 -80q0 -58 -66 -107zM14 0l475 690h151l-474 -690h-152z" />
    <glyph glyph-name="threequarters" unicode="&#xbe;" horiz-adv-x="645" 
d="M134 504h-10v64h10q30 0 30 23q0 20 -22 20q-21 0 -25 -22h-98q0 48 35 76t92 28q54 0 85 -24t31 -67q0 -46 -38 -64q45 -20 45 -67q0 -49 -33 -74.5t-90 -25.5q-60 0 -94.5 29t-36.5 78h100q3 -21 27 -21q25 0 25 23q0 24 -33 24zM334 115l132 201h120l-123 -194h35v39
h104v-39h39v-81h-39v-41h-104v41h-164v74zM14 0l475 690h151l-474 -690h-152z" />
    <glyph glyph-name="questiondown" unicode="&#xbf;" horiz-adv-x="487" 
d="M200 283v28h140v-65q0 -40 -8.5 -63t-34.5 -49l-44 -42q-33 -31 -44.5 -50.5t-11.5 -48.5q0 -25 16 -40.5t43 -15.5t44 12.5t17 35.5h155q0 -92 -61 -138q-61 -47 -155 -47q-98 0 -162 48q-63 48 -63 145q0 105 97 193l36 33q21 19 27 29t9 35zM348 344h-156v156h156
v-156z" />
    <glyph glyph-name="Agrave" unicode="&#xc0;" horiz-adv-x="620" 
d="M203 118l-36 -118h-177l240 690h160l240 -690h-177l-37 118h-213zM373 256l-63 204l-64 -204h127zM131 869h170l80 -129h-147z" />
    <glyph glyph-name="Aacute" unicode="&#xc1;" horiz-adv-x="620" 
d="M203 118l-36 -118h-177l240 690h160l240 -690h-177l-37 118h-213zM373 256l-63 204l-64 -204h127zM385 740h-147l80 129h170z" />
    <glyph glyph-name="Acircumflex" unicode="&#xc2;" horiz-adv-x="620" 
d="M203 118l-36 -118h-177l240 690h160l240 -690h-177l-37 118h-213zM373 256l-63 204l-64 -204h127zM116 739l138 142h112l138 -142h-142l-52 56l-52 -56h-142z" />
    <glyph glyph-name="Atilde" unicode="&#xc3;" horiz-adv-x="620" 
d="M203 118l-36 -118h-177l240 690h160l240 -690h-177l-37 118h-213zM373 256l-63 204l-64 -204h127zM374 731q-30 0 -68 15t-51 15q-28 0 -49 -27l-78 66q52 66 123 66q27 0 64 -15q39 -15 54 -15q26 0 47 27l77 -66q-22 -30 -54 -48t-65 -18z" />
    <glyph glyph-name="Adieresis" unicode="&#xc4;" horiz-adv-x="620" 
d="M203 118l-36 -118h-177l240 690h160l240 -690h-177l-37 118h-213zM373 256l-63 204l-64 -204h127zM280 739h-140v130h140v-130zM480 739h-140v130h140v-130z" />
    <glyph glyph-name="Aring" unicode="&#xc5;" horiz-adv-x="620" 
d="M203 118l-36 -118h-177l232 667q-31 25 -31 70t33 72t86 27q54 0 87 -27t33 -72q0 -43 -32 -70l232 -667h-177l-37 118h-213zM373 256l-63 204l-64 -204h127zM310 761q-27 0 -27 -24t27 -24t27 24t-27 24z" />
    <glyph glyph-name="AE" unicode="&#xc6;" horiz-adv-x="912" 
d="M256 128l-71 -128h-195l391 690h506v-138h-270v-126h240v-138h-240v-150h270v-138h-436v128h-195zM451 478l-118 -212h118v212z" />
    <glyph glyph-name="Ccedilla" unicode="&#xc7;" horiz-adv-x="601" 
d="M258 -73l14 66q-107 13 -167 89t-60 209v108q0 147 72.5 224t199.5 77q106 0 171.5 -56.5t82.5 -166.5h-158q-6 38 -31 61.5t-65 23.5q-106 0 -106 -163v-108q0 -163 106 -163q81 0 96 85h158q-31 -200 -208 -220l-3 -15q48 -22 48 -71q0 -40 -33.5 -63.5t-88.5 -23.5
q-36 0 -51 4l17 71q16 -2 19 -2q26 0 26 17t-39 17z" />
    <glyph glyph-name="Egrave" unicode="&#xc8;" horiz-adv-x="521" 
d="M60 0v690h436v-138h-270v-126h240v-138h-240v-150h270v-138h-436zM127 869h170l80 -129h-147z" />
    <glyph glyph-name="Eacute" unicode="&#xc9;" horiz-adv-x="521" 
d="M60 0v690h436v-138h-270v-126h240v-138h-240v-150h270v-138h-436zM327 740h-147l80 129h170z" />
    <glyph glyph-name="Ecircumflex" unicode="&#xca;" horiz-adv-x="521" 
d="M60 0v690h436v-138h-270v-126h240v-138h-240v-150h270v-138h-436zM84 739l138 142h112l138 -142h-142l-52 56l-52 -56h-142z" />
    <glyph glyph-name="Edieresis" unicode="&#xcb;" horiz-adv-x="521" 
d="M60 0v690h436v-138h-270v-126h240v-138h-240v-150h270v-138h-436zM248 739h-140v130h140v-130zM448 739h-140v130h140v-130z" />
    <glyph glyph-name="Igrave" unicode="&#xcc;" horiz-adv-x="306" 
d="M70 690h166v-690h-166v690zM-14 869h170l80 -129h-147z" />
    <glyph glyph-name="Iacute" unicode="&#xcd;" horiz-adv-x="306" 
d="M70 690h166v-690h-166v690zM217 740h-147l80 129h170z" />
    <glyph glyph-name="Icircumflex" unicode="&#xce;" horiz-adv-x="306" 
d="M70 690h166v-690h-166v690zM-41 739l138 142h112l138 -142h-142l-52 56l-52 -56h-142z" />
    <glyph glyph-name="Idieresis" unicode="&#xcf;" horiz-adv-x="306" 
d="M70 690h166v-690h-166v690zM123 739h-140v130h140v-130zM323 739h-140v130h140v-130z" />
    <glyph glyph-name="Eth" unicode="&#xd0;" horiz-adv-x="632" 
d="M315 0h-257v288h-68v138h68v264h257q130 0 201 -72t71 -223v-100q0 -150 -71 -222.5t-201 -72.5zM224 138h91q58 0 82 38.5t24 118.5v100q0 80 -24 118.5t-82 38.5h-91v-126h115v-138h-115v-150z" />
    <glyph glyph-name="Ntilde" unicode="&#xd1;" horiz-adv-x="664" 
d="M448 303v387h156v-690h-134l-254 382v-382h-156v690h132zM395 731q-31 0 -68 15t-51 15q-28 0 -49 -27l-78 66q53 66 123 66q26 0 64 -15q39 -15 54 -15q26 0 47 27l77 -66q-22 -30 -54 -48t-65 -18z" />
    <glyph glyph-name="Ograve" unicode="&#xd2;" horiz-adv-x="634" 
d="M589 399v-108q0 -146 -73 -223.5t-199 -77.5t-199 77.5t-73 223.5v108q0 147 72.5 224t199.5 77t199.5 -77t72.5 -224zM211 399v-108q0 -163 106 -163t106 163v108q0 163 -106 163t-106 -163zM157 869h170l80 -129h-147z" />
    <glyph glyph-name="Oacute" unicode="&#xd3;" horiz-adv-x="634" 
d="M589 399v-108q0 -146 -73 -223.5t-199 -77.5t-199 77.5t-73 223.5v108q0 147 72.5 224t199.5 77t199.5 -77t72.5 -224zM211 399v-108q0 -163 106 -163t106 163v108q0 163 -106 163t-106 -163zM389 740h-147l80 129h170z" />
    <glyph glyph-name="Ocircumflex" unicode="&#xd4;" horiz-adv-x="634" 
d="M589 399v-108q0 -146 -73 -223.5t-199 -77.5t-199 77.5t-73 223.5v108q0 147 72.5 224t199.5 77t199.5 -77t72.5 -224zM211 399v-108q0 -163 106 -163t106 163v108q0 163 -106 163t-106 -163zM123 739l138 142h112l138 -142h-142l-52 56l-52 -56h-142z" />
    <glyph glyph-name="Otilde" unicode="&#xd5;" horiz-adv-x="634" 
d="M589 399v-108q0 -146 -73 -223.5t-199 -77.5t-199 77.5t-73 223.5v108q0 147 72.5 224t199.5 77t199.5 -77t72.5 -224zM211 399v-108q0 -163 106 -163t106 163v108q0 163 -106 163t-106 -163zM381 731q-31 0 -68 15t-51 15q-28 0 -49 -27l-78 66q53 66 123 66
q26 0 64 -15q39 -15 54 -15q26 0 47 27l77 -66q-22 -30 -54 -48t-65 -18z" />
    <glyph glyph-name="Odieresis" unicode="&#xd6;" horiz-adv-x="634" 
d="M589 399v-108q0 -146 -73 -223.5t-199 -77.5t-199 77.5t-73 223.5v108q0 147 72.5 224t199.5 77t199.5 -77t72.5 -224zM211 399v-108q0 -163 106 -163t106 163v108q0 163 -106 163t-106 -163zM287 739h-140v130h140v-130zM487 739h-140v130h140v-130z" />
    <glyph glyph-name="multiply" unicode="&#xd7;" horiz-adv-x="594" 
d="M304 263l-112 -112l-91 91l112 112l-112 113l90 90l113 -113l114 113l90 -90l-113 -113l112 -112l-91 -91z" />
    <glyph glyph-name="Oslash" unicode="&#xd8;" horiz-adv-x="634" 
d="M257 -5l-40 -111h-134l58 161q-96 78 -96 246v108q0 147 72.5 224t199.5 77q24 0 59 -5l43 117h134l-61 -167q97 -78 97 -246v-108q0 -146 -73 -223.5t-199 -77.5q-25 0 -60 5zM423 291v108q0 25 -3 47l-115 -318h12q106 0 106 163zM211 399v-108q0 -9 2 -47l115 317
q-3 1 -11 1q-106 0 -106 -163z" />
    <glyph glyph-name="Ugrave" unicode="&#xd9;" horiz-adv-x="664" 
d="M438 278v412h166v-411q0 -146 -75 -218q-76 -71 -197 -71t-197 71q-75 72 -75 217v412h166v-412q0 -78 25 -114t81 -36t81 36t25 114zM158 869h170l80 -129h-147z" />
    <glyph glyph-name="Uacute" unicode="&#xda;" horiz-adv-x="664" 
d="M438 278v412h166v-411q0 -146 -75 -218q-76 -71 -197 -71t-197 71q-75 72 -75 217v412h166v-412q0 -78 25 -114t81 -36t81 36t25 114zM403 740h-147l80 129h170z" />
    <glyph glyph-name="Ucircumflex" unicode="&#xdb;" horiz-adv-x="664" 
d="M438 278v412h166v-411q0 -146 -75 -218q-76 -71 -197 -71t-197 71q-75 72 -75 217v412h166v-412q0 -78 25 -114t81 -36t81 36t25 114zM138 739l138 142h112l138 -142h-142l-52 56l-52 -56h-142z" />
    <glyph glyph-name="Udieresis" unicode="&#xdc;" horiz-adv-x="664" 
d="M438 278v412h166v-411q0 -146 -75 -218q-76 -71 -197 -71t-197 71q-75 72 -75 217v412h166v-412q0 -78 25 -114t81 -36t81 36t25 114zM302 739h-140v130h140v-130zM502 739h-140v130h140v-130z" />
    <glyph glyph-name="Yacute" unicode="&#xdd;" horiz-adv-x="596" 
d="M215 276l-215 414h191l107 -237l107 237h191l-215 -414v-276h-166v276zM363 740h-147l80 129h170z" />
    <glyph glyph-name="Thorn" unicode="&#xde;" horiz-adv-x="591" 
d="M320 133h-94v-133h-166v690h166v-100h94q125 0 193 -57t68 -167q0 -112 -69 -172.5t-192 -60.5zM226 452v-181h64q66 0 95.5 22t29.5 73q0 86 -125 86h-64z" />
    <glyph glyph-name="germandbls" unicode="&#xdf;" horiz-adv-x="507" 
d="M462 565q0 -70 -61 -98q34 -12 47.5 -38.5t13.5 -76.5v-212q0 -84 -33 -113q-31 -27 -111 -27h-75v122h30q39 0 39 50v176q0 50 -39 50h-30v112h30q39 0 39 41q0 37 -49 37q-68 0 -68 -97v-491h-150v499q0 201 218 201q97 0 148 -38t51 -97z" />
    <glyph glyph-name="agrave" unicode="&#xe0;" horiz-adv-x="484" 
d="M204 305h89v15q0 40 -15 54t-64 14q-58 0 -81 -34l-105 73q29 46 75.5 64.5t127.5 18.5q104 0 156 -41q52 -40 52 -150v-319h-146v41q-31 -51 -99 -51q-79 0 -126.5 42t-47.5 117q0 74 50 115t134 41zM293 184v15h-68q-59 0 -59 -46q0 -45 61 -45q66 0 66 76zM91 725h166
l70 -158h-145z" />
    <glyph glyph-name="aacute" unicode="&#xe1;" horiz-adv-x="484" 
d="M204 305h89v15q0 40 -15 54t-64 14q-58 0 -81 -34l-105 73q29 46 75.5 64.5t127.5 18.5q104 0 156 -41q52 -40 52 -150v-319h-146v41q-31 -51 -99 -51q-79 0 -126.5 42t-47.5 117q0 74 50 115t134 41zM293 184v15h-68q-59 0 -59 -46q0 -45 61 -45q66 0 66 76zM288 567
h-145l70 158h166z" />
    <glyph glyph-name="acircumflex" unicode="&#xe2;" horiz-adv-x="484" 
d="M204 305h89v15q0 40 -15 54t-64 14q-58 0 -81 -34l-105 73q29 46 75.5 64.5t127.5 18.5q104 0 156 -41q52 -40 52 -150v-319h-146v41q-31 -51 -99 -51q-79 0 -126.5 42t-47.5 117q0 74 50 115t134 41zM293 184v15h-68q-59 0 -59 -46q0 -45 61 -45q66 0 66 76zM73 567
l111 142h106l111 -142h-122l-42 57l-42 -57h-122z" />
    <glyph glyph-name="atilde" unicode="&#xe3;" horiz-adv-x="484" 
d="M204 305h89v15q0 40 -15 54t-64 14q-58 0 -81 -34l-105 73q29 46 75.5 64.5t127.5 18.5q104 0 156 -41q52 -40 52 -150v-319h-146v41q-31 -51 -99 -51q-79 0 -126.5 42t-47.5 117q0 74 50 115t134 41zM293 184v15h-68q-59 0 -59 -46q0 -45 61 -45q66 0 66 76zM308 557
q-30 0 -68 15t-51 15q-28 0 -49 -27l-78 66q52 66 123 66q27 0 64 -15q39 -15 54 -15q26 0 47 27l77 -66q-22 -30 -54 -48t-65 -18z" />
    <glyph glyph-name="adieresis" unicode="&#xe4;" horiz-adv-x="484" 
d="M204 305h89v15q0 40 -15 54t-64 14q-58 0 -81 -34l-105 73q29 46 75.5 64.5t127.5 18.5q104 0 156 -41q52 -40 52 -150v-319h-146v41q-31 -51 -99 -51q-79 0 -126.5 42t-47.5 117q0 74 50 115t134 41zM293 184v15h-68q-59 0 -59 -46q0 -45 61 -45q66 0 66 76zM198 560
h-140v130h140v-130zM398 560h-140v130h140v-130z" />
    <glyph glyph-name="aring" unicode="&#xe5;" horiz-adv-x="484" 
d="M204 305h89v15q0 40 -15 54t-64 14q-58 0 -81 -34l-105 73q29 46 75.5 64.5t127.5 18.5q104 0 156 -41q52 -40 52 -150v-319h-146v41q-31 -51 -99 -51q-79 0 -126.5 42t-47.5 117q0 74 50 115t134 41zM293 184v15h-68q-59 0 -59 -46q0 -45 61 -45q66 0 66 76zM244 756
q59 0 94.5 -30.5t35.5 -79.5t-35 -79t-95 -30q-59 0 -94 30t-35 79t35 79.5t94 30.5zM244 683q-27 0 -27 -37t27 -37t27 37t-27 37z" />
    <glyph glyph-name="ae" unicode="&#xe6;" horiz-adv-x="744" 
d="M591 153l110 -77q-50 -86 -185 -86q-111 0 -160 61q-55 -61 -160 -61q-81 0 -128.5 42t-47.5 114q0 78 51 118.5t138 40.5h84v10q0 35 -10 52q-11 21 -65 21q-37 0 -54.5 -7.5t-30.5 -26.5l-105 69q52 87 208 87q95 0 139 -41q47 41 124 41q104 0 157 -57.5t53 -182.5
v-60h-270q1 -54 20 -74t60 -20q27 0 42 8t30 29zM293 182v17h-69q-58 0 -58 -46q0 -45 61 -45q66 0 66 74zM440 310h119q-3 74 -58 74t-61 -74z" />
    <glyph glyph-name="ccedilla" unicode="&#xe7;" horiz-adv-x="447" 
d="M198 -73l14 66q-86 13 -134 72t-48 151v70q0 110 59.5 167t176.5 57q125 0 176 -86l-112 -78q-27 38 -68 38q-46 0 -64 -25t-18 -86v-44q0 -61 16.5 -87t65.5 -26q47 0 69 37l111 -77q-46 -72 -139 -83l-3 -15q48 -22 48 -71q0 -40 -33.5 -63.5t-88.5 -23.5q-36 0 -51 4
l17 71q16 -2 19 -2q26 0 26 17t-39 17z" />
    <glyph glyph-name="egrave" unicode="&#xe8;" 
d="M332 153l110 -77q-50 -86 -186 -86q-110 0 -168 61.5t-58 164.5v70q0 112 54.5 168t155.5 56q210 0 210 -239v-59h-270q2 -50 19 -73t58 -23q35 3 46.5 9t28.5 28zM241 384q-54 0 -60 -72h119q-2 39 -16.5 55.5t-42.5 16.5zM103 725h166l70 -158h-145z" />
    <glyph glyph-name="eacute" unicode="&#xe9;" 
d="M332 153l110 -77q-50 -86 -186 -86q-110 0 -168 61.5t-58 164.5v70q0 112 54.5 168t155.5 56q210 0 210 -239v-59h-270q2 -50 19 -73t58 -23q35 3 46.5 9t28.5 28zM241 384q-54 0 -60 -72h119q-2 39 -16.5 55.5t-42.5 16.5zM298 567h-145l70 158h166z" />
    <glyph glyph-name="ecircumflex" unicode="&#xea;" 
d="M332 153l110 -77q-50 -86 -186 -86q-110 0 -168 61.5t-58 164.5v70q0 112 54.5 168t155.5 56q210 0 210 -239v-59h-270q2 -50 19 -73t58 -23q35 3 46.5 9t28.5 28zM241 384q-54 0 -60 -72h119q-2 39 -16.5 55.5t-42.5 16.5zM76 567l111 142h106l111 -142h-122l-42 57
l-42 -57h-122z" />
    <glyph glyph-name="edieresis" unicode="&#xeb;" 
d="M332 153l110 -77q-50 -86 -186 -86q-110 0 -168 61.5t-58 164.5v70q0 112 54.5 168t155.5 56q210 0 210 -239v-59h-270q2 -50 19 -73t58 -23q35 3 46.5 9t28.5 28zM241 384q-54 0 -60 -72h119q-2 39 -16.5 55.5t-42.5 16.5zM210 560h-140v130h140v-130zM410 560h-140v130
h140v-130z" />
    <glyph glyph-name="igrave" unicode="&#xec;" horiz-adv-x="270" 
d="M210 0h-150v500h150v-500zM-31 725h166l70 -158h-145z" />
    <glyph glyph-name="iacute" unicode="&#xed;" horiz-adv-x="270" 
d="M210 0h-150v500h150v-500zM200 567h-145l70 158h166z" />
    <glyph glyph-name="icircumflex" unicode="&#xee;" horiz-adv-x="270" 
d="M210 0h-150v500h150v-500zM-34 567l111 142h106l111 -142h-122l-42 57l-42 -57h-122z" />
    <glyph glyph-name="idieresis" unicode="&#xef;" horiz-adv-x="270" 
d="M210 0h-150v500h150v-500zM100 560h-140v130h140v-130zM300 560h-140v130h140v-130z" />
    <glyph glyph-name="eth" unicode="&#xf0;" horiz-adv-x="510" 
d="M240 521l-79 39l18 37l-52 20l48 95l51 -21l22 45l78 -40l-20 -40q94 -43 129 -98t35 -168v-168q0 -111 -55 -171.5t-165 -60.5q-109 0 -164.5 60.5t-55.5 171.5v58q0 112 55.5 171t157.5 59q65 0 102 -28q-6 29 -24 46.5t-60 35.5zM320 229v44q0 59 -16 85t-54 26
t-54 -26t-16 -85v-44q0 -60 14.5 -86.5t55.5 -26.5t55.5 26.5t14.5 86.5z" />
    <glyph glyph-name="ntilde" unicode="&#xf1;" horiz-adv-x="526" 
d="M195 0h-150v500h146v-38q37 48 106 48q184 0 184 -196v-314h-150v285q0 52 -14.5 74.5t-49.5 22.5q-38 0 -55 -23.5t-17 -72.5v-286zM326 557q-30 0 -68 15t-51 15q-28 0 -49 -27l-78 66q52 66 123 66q27 0 64 -15q39 -15 54 -15q26 0 47 27l77 -66q-22 -30 -54 -48
t-65 -18z" />
    <glyph glyph-name="ograve" unicode="&#xf2;" horiz-adv-x="500" 
d="M470 280v-58q0 -111 -55 -171.5t-165 -60.5q-109 0 -164.5 60.5t-55.5 171.5v58q0 113 56.5 171.5t163.5 58.5q108 0 164 -58t56 -172zM320 229v44q0 59 -16 85t-54 26t-54 -26t-16 -85v-44q0 -60 14.5 -86.5t55.5 -26.5t55.5 26.5t14.5 86.5zM121 725h166l70 -158h-145z
" />
    <glyph glyph-name="oacute" unicode="&#xf3;" horiz-adv-x="500" 
d="M470 280v-58q0 -111 -55 -171.5t-165 -60.5q-109 0 -164.5 60.5t-55.5 171.5v58q0 113 56.5 171.5t163.5 58.5q108 0 164 -58t56 -172zM320 229v44q0 59 -16 85t-54 26t-54 -26t-16 -85v-44q0 -60 14.5 -86.5t55.5 -26.5t55.5 26.5t14.5 86.5zM316 567h-145l70 158h166z
" />
    <glyph glyph-name="ocircumflex" unicode="&#xf4;" horiz-adv-x="500" 
d="M470 280v-58q0 -111 -55 -171.5t-165 -60.5q-109 0 -164.5 60.5t-55.5 171.5v58q0 113 56.5 171.5t163.5 58.5q108 0 164 -58t56 -172zM320 229v44q0 59 -16 85t-54 26t-54 -26t-16 -85v-44q0 -60 14.5 -86.5t55.5 -26.5t55.5 26.5t14.5 86.5zM86 567l111 142h106
l111 -142h-122l-42 57l-42 -57h-122z" />
    <glyph glyph-name="otilde" unicode="&#xf5;" horiz-adv-x="500" 
d="M470 280v-58q0 -111 -55 -171.5t-165 -60.5q-109 0 -164.5 60.5t-55.5 171.5v58q0 113 56.5 171.5t163.5 58.5q108 0 164 -58t56 -172zM320 229v44q0 59 -16 85t-54 26t-54 -26t-16 -85v-44q0 -60 14.5 -86.5t55.5 -26.5t55.5 26.5t14.5 86.5zM314 557q-30 0 -68 15
t-51 15q-28 0 -49 -27l-78 66q52 66 123 66q27 0 64 -15q39 -15 54 -15q26 0 47 27l77 -66q-22 -30 -54 -48t-65 -18z" />
    <glyph glyph-name="odieresis" unicode="&#xf6;" horiz-adv-x="500" 
d="M470 280v-58q0 -111 -55 -171.5t-165 -60.5q-109 0 -164.5 60.5t-55.5 171.5v58q0 113 56.5 171.5t163.5 58.5q108 0 164 -58t56 -172zM320 229v44q0 59 -16 85t-54 26t-54 -26t-16 -85v-44q0 -60 14.5 -86.5t55.5 -26.5t55.5 26.5t14.5 86.5zM220 560h-140v130h140v-130
zM420 560h-140v130h140v-130z" />
    <glyph glyph-name="divide" unicode="&#xf7;" horiz-adv-x="509" 
d="M449 288h-389v132h389v-132zM322 117h-135v135h135v-135zM322 456h-135v135h135v-135z" />
    <glyph glyph-name="oslash" unicode="&#xf8;" horiz-adv-x="500" 
d="M176 -1l-35 -78h-77l48 107q-82 57 -82 194v58q0 113 56.5 171.5t163.5 58.5q34 0 74 -8l36 80h77l-49 -109q82 -55 82 -193v-58q0 -111 -55 -171.5t-165 -60.5q-41 0 -74 9zM250 116q41 0 55.5 26.5t14.5 86.5v44q0 24 -3 42l-88 -197q8 -2 21 -2zM180 273v-44
q0 -27 2 -45l88 198q-16 2 -20 2q-38 0 -54 -26t-16 -85z" />
    <glyph glyph-name="ugrave" unicode="&#xf9;" horiz-adv-x="526" 
d="M331 500h150v-500h-147v39q-16 -27 -39 -38t-66 -11q-86 0 -135 48.5t-49 149.5v312h150v-284q0 -52 15 -75t51 -23q38 0 54 22.5t16 74.5v285zM124 725h166l70 -158h-145z" />
    <glyph glyph-name="uacute" unicode="&#xfa;" horiz-adv-x="526" 
d="M331 500h150v-500h-147v39q-16 -27 -39 -38t-66 -11q-86 0 -135 48.5t-49 149.5v312h150v-284q0 -52 15 -75t51 -23q38 0 54 22.5t16 74.5v285zM330 567h-145l70 158h166z" />
    <glyph glyph-name="ucircumflex" unicode="&#xfb;" horiz-adv-x="526" 
d="M331 500h150v-500h-147v39q-16 -27 -39 -38t-66 -11q-86 0 -135 48.5t-49 149.5v312h150v-284q0 -52 15 -75t51 -23q38 0 54 22.5t16 74.5v285zM99 567l111 142h106l111 -142h-122l-42 57l-42 -57h-122z" />
    <glyph glyph-name="udieresis" unicode="&#xfc;" horiz-adv-x="526" 
d="M331 500h150v-500h-147v39q-16 -27 -39 -38t-66 -11q-86 0 -135 48.5t-49 149.5v312h150v-284q0 -52 15 -75t51 -23q38 0 54 22.5t16 74.5v285zM233 560h-140v130h140v-130zM433 560h-140v130h140v-130z" />
    <glyph glyph-name="yacute" unicode="&#xfd;" 
d="M187 -7l-182 507h157l93 -282l85 282h150l-175 -526q-34 -102 -82 -133q-47 -31 -157 -31v132q53 0 76 10.5t35 40.5zM329 567h-145l70 158h166z" />
    <glyph glyph-name="thorn" unicode="&#xfe;" horiz-adv-x="515" 
d="M485 286v-70q0 -103 -50.5 -164.5t-141.5 -61.5q-63 0 -98 20v-200h-150v880h150v-215q38 35 99 35q87 0 139 -60t52 -164zM265 116q41 0 55.5 26.5t14.5 86.5v44q0 59 -16 85t-54 26t-54 -26t-16 -85v-59q0 -51 15 -74.5t55 -23.5z" />
    <glyph glyph-name="ydieresis" unicode="&#xff;" 
d="M187 -7l-182 507h157l93 -282l85 282h150l-175 -526q-34 -102 -82 -133q-47 -31 -157 -31v132q53 0 76 10.5t35 40.5zM223 560h-140v130h140v-130zM423 560h-140v130h140v-130z" />
    <glyph glyph-name="Amacron" unicode="&#x100;" horiz-adv-x="620" 
d="M203 118l-36 -118h-177l240 690h160l240 -690h-177l-37 118h-213zM373 256l-63 204l-64 -204h127zM475 737h-329v132h329v-132z" />
    <glyph glyph-name="amacron" unicode="&#x101;" horiz-adv-x="484" 
d="M204 305h89v15q0 40 -15 54t-64 14q-58 0 -81 -34l-105 73q29 46 75.5 64.5t127.5 18.5q104 0 156 -41q52 -40 52 -150v-319h-146v41q-31 -51 -99 -51q-79 0 -126.5 42t-47.5 117q0 74 50 115t134 41zM293 184v15h-68q-59 0 -59 -46q0 -45 61 -45q66 0 66 76zM392 560
h-289v130h289v-130z" />
    <glyph glyph-name="Abreve" unicode="&#x102;" horiz-adv-x="620" 
d="M203 118l-36 -118h-177l240 690h160l240 -690h-177l-37 118h-213zM373 256l-63 204l-64 -204h127zM377 879h128q0 -72 -53 -112t-141 -40t-141.5 40.5t-53.5 111.5h128q12 -44 67 -44t66 44z" />
    <glyph glyph-name="abreve" unicode="&#x103;" horiz-adv-x="484" 
d="M204 305h89v15q0 40 -15 54t-64 14q-58 0 -81 -34l-105 73q29 46 75.5 64.5t127.5 18.5q104 0 156 -41q52 -40 52 -150v-319h-146v41q-31 -51 -99 -51q-79 0 -126.5 42t-47.5 117q0 74 50 115t134 41zM293 184v15h-68q-59 0 -59 -46q0 -45 61 -45q66 0 66 76zM305 686
h105q-2 -66 -43 -102t-113 -36t-113 36t-43 102h106q8 -50 50 -50q43 0 51 50z" />
    <glyph glyph-name="Aogonek" unicode="&#x104;" horiz-adv-x="620" 
d="M203 118l-36 -118h-177l240 690h160l240 -690q-35 -40 -35 -58t19 -18q4 0 18 2l16 -71q-15 -5 -50 -5q-49 0 -81 19.5t-32 56.5q0 43 34 74h-66l-37 118h-213zM373 256l-63 204l-64 -204h127z" />
    <glyph glyph-name="aogonek" unicode="&#x105;" horiz-adv-x="497" 
d="M204 305h89v15q0 40 -15 54t-64 14q-58 0 -81 -34l-105 73q29 46 75.5 64.5t127.5 18.5q104 0 156 -41q52 -40 52 -150v-319q-35 -40 -35 -58t19 -18q4 0 18 2l16 -71q-15 -5 -50 -5q-49 0 -81 19.5t-32 56.5q0 43 34 74h-35v41q-31 -51 -99 -51q-79 0 -126.5 42
t-47.5 117q0 74 50 115t134 41zM293 184v15h-68q-59 0 -59 -46q0 -45 61 -45q66 0 66 76z" />
    <glyph glyph-name="Cacute" unicode="&#x106;" horiz-adv-x="601" 
d="M571 477h-158q-6 38 -31 61.5t-65 23.5q-106 0 -106 -163v-108q0 -163 106 -163q81 0 96 85h158q-18 -114 -80.5 -168.5t-173.5 -54.5q-126 0 -199 77.5t-73 223.5v108q0 147 72.5 224t199.5 77q106 0 171.5 -56.5t82.5 -166.5zM375 740h-147l80 129h170z" />
    <glyph glyph-name="cacute" unicode="&#x107;" horiz-adv-x="447" 
d="M331 153l111 -77q-53 -86 -186 -86q-106 0 -166 61t-60 165v70q0 110 59.5 167t176.5 57q125 0 176 -86l-112 -78q-27 38 -68 38q-46 0 -64 -25t-18 -86v-44q0 -61 16.5 -87t65.5 -26q47 0 69 37zM318 567h-145l70 158h166z" />
    <glyph glyph-name="Ccircumflex" unicode="&#x108;" horiz-adv-x="601" 
d="M571 477h-158q-6 38 -31 61.5t-65 23.5q-106 0 -106 -163v-108q0 -163 106 -163q81 0 96 85h158q-18 -114 -80.5 -168.5t-173.5 -54.5q-126 0 -199 77.5t-73 223.5v108q0 147 72.5 224t199.5 77q106 0 171.5 -56.5t82.5 -166.5zM119 739l138 142h112l138 -142h-142
l-52 56l-52 -56h-142z" />
    <glyph glyph-name="ccircumflex" unicode="&#x109;" horiz-adv-x="447" 
d="M331 153l111 -77q-53 -86 -186 -86q-106 0 -166 61t-60 165v70q0 110 59.5 167t176.5 57q125 0 176 -86l-112 -78q-27 38 -68 38q-46 0 -64 -25t-18 -86v-44q0 -61 16.5 -87t65.5 -26q47 0 69 37zM98 567l111 142h106l111 -142h-122l-42 57l-42 -57h-122z" />
    <glyph glyph-name="Cdotaccent" unicode="&#x10a;" horiz-adv-x="601" 
d="M571 477h-158q-6 38 -31 61.5t-65 23.5q-106 0 -106 -163v-108q0 -163 106 -163q81 0 96 85h158q-18 -114 -80.5 -168.5t-173.5 -54.5q-126 0 -199 77.5t-73 223.5v108q0 147 72.5 224t199.5 77q106 0 171.5 -56.5t82.5 -166.5zM397 749h-166v120h166v-120z" />
    <glyph glyph-name="cdotaccent" unicode="&#x10b;" horiz-adv-x="447" 
d="M331 153l111 -77q-53 -86 -186 -86q-106 0 -166 61t-60 165v70q0 110 59.5 167t176.5 57q125 0 176 -86l-112 -78q-27 38 -68 38q-46 0 -64 -25t-18 -86v-44q0 -61 16.5 -87t65.5 -26q47 0 69 37zM339 550h-160v140h160v-140z" />
    <glyph glyph-name="Ccaron" unicode="&#x10c;" horiz-adv-x="601" 
d="M571 477h-158q-6 38 -31 61.5t-65 23.5q-106 0 -106 -163v-108q0 -163 106 -163q81 0 96 85h158q-18 -114 -80.5 -168.5t-173.5 -54.5q-126 0 -199 77.5t-73 223.5v108q0 147 72.5 224t199.5 77q106 0 171.5 -56.5t82.5 -166.5zM502 881l-138 -142h-112l-138 142h142
l52 -56l52 56h142z" />
    <glyph glyph-name="ccaron" unicode="&#x10d;" horiz-adv-x="447" 
d="M331 153l111 -77q-53 -86 -186 -86q-106 0 -166 61t-60 165v70q0 110 59.5 167t176.5 57q125 0 176 -86l-112 -78q-27 38 -68 38q-46 0 -64 -25t-18 -86v-44q0 -61 16.5 -87t65.5 -26q47 0 69 37zM420 709l-111 -142h-106l-111 142h122l42 -57l42 57h122z" />
    <glyph glyph-name="Dcaron" unicode="&#x10e;" horiz-adv-x="634" 
d="M317 0h-257v690h257q130 0 201 -72t71 -223v-100q0 -150 -71 -222.5t-201 -72.5zM226 138h91q58 0 82 38.5t24 118.5v100q0 80 -24 118.5t-82 38.5h-91v-414zM488 881l-138 -142h-112l-138 142h142l52 -56l52 56h142z" />
    <glyph glyph-name="dcaron" unicode="&#x10f;" horiz-adv-x="605" 
d="M320 483v207h150v-690h-150v22q-38 -32 -94 -32q-93 0 -144.5 61t-51.5 165v70q0 107 52.5 165.5t143.5 58.5q56 0 94 -27zM320 229v55q0 100 -70 100q-38 0 -54 -26t-16 -85v-44q0 -60 14.5 -86.5t55.5 -26.5t55.5 26.5t14.5 86.5zM499 690h156v-146l-156 -133v279z" />
    <glyph glyph-name="Dcroat" unicode="&#x110;" horiz-adv-x="642" 
d="M325 0h-257v288h-78v138h78v264h257q130 0 201 -72t71 -223v-100q0 -150 -71 -222.5t-201 -72.5zM234 138h91q58 0 82 38.5t24 118.5v100q0 80 -24 118.5t-82 38.5h-91v-126h125v-138h-125v-150z" />
    <glyph glyph-name="dslash" unicode="&#x111;" horiz-adv-x="515" 
d="M320 483v45h-105v122h105v40h150v-40h64v-122h-64v-528h-150v22q-38 -32 -94 -32q-93 0 -144.5 61t-51.5 165v70q0 107 52.5 165.5t143.5 58.5q56 0 94 -27zM320 229v55q0 100 -70 100q-38 0 -54 -26t-16 -85v-44q0 -60 14.5 -86.5t55.5 -26.5t55.5 26.5t14.5 86.5z" />
    <glyph glyph-name="Emacron" unicode="&#x112;" horiz-adv-x="521" 
d="M60 0v690h436v-138h-270v-126h240v-138h-240v-150h270v-138h-436zM443 737h-329v132h329v-132z" />
    <glyph glyph-name="emacron" unicode="&#x113;" 
d="M332 153l110 -77q-50 -86 -186 -86q-110 0 -168 61.5t-58 164.5v70q0 112 54.5 168t155.5 56q210 0 210 -239v-59h-270q2 -50 19 -73t58 -23q35 3 46.5 9t28.5 28zM241 384q-54 0 -60 -72h119q-2 39 -16.5 55.5t-42.5 16.5zM385 560h-289v130h289v-130z" />
    <glyph glyph-name="Edotaccent" unicode="&#x116;" horiz-adv-x="521" 
d="M60 0v690h436v-138h-270v-126h240v-138h-240v-150h270v-138h-436zM361 749h-166v120h166v-120z" />
    <glyph glyph-name="edotaccent" unicode="&#x117;" 
d="M332 153l110 -77q-50 -86 -186 -86q-110 0 -168 61.5t-58 164.5v70q0 112 54.5 168t155.5 56q210 0 210 -239v-59h-270q2 -50 19 -73t58 -23q35 3 46.5 9t28.5 28zM241 384q-54 0 -60 -72h119q-2 39 -16.5 55.5t-42.5 16.5zM320 550h-160v140h160v-140z" />
    <glyph glyph-name="Eogonek" unicode="&#x118;" horiz-adv-x="521" 
d="M60 0v690h436v-138h-270v-126h240v-138h-240v-150h270v-138h-108q-35 -40 -35 -58t19 -18q4 0 18 2l16 -71q-15 -5 -50 -5q-49 0 -81 19.5t-32 56.5q0 43 34 74h-217z" />
    <glyph glyph-name="eogonek" unicode="&#x119;" 
d="M332 153l110 -77q-38 -66 -123 -81q-31 -35 -31 -53t19 -18q4 0 18 2l16 -71q-15 -5 -50 -5q-49 0 -81 19.5t-32 56.5t28 68q-86 14 -131 73t-45 149v70q0 112 54.5 168t155.5 56q210 0 210 -239v-59h-270q2 -50 19 -73t58 -23q35 3 46.5 9t28.5 28zM241 384
q-54 0 -60 -72h119q-2 39 -16.5 55.5t-42.5 16.5z" />
    <glyph glyph-name="Ecaron" unicode="&#x11a;" horiz-adv-x="521" 
d="M60 0v690h436v-138h-270v-126h240v-138h-240v-150h270v-138h-436zM472 881l-138 -142h-112l-138 142h142l52 -56l52 56h142z" />
    <glyph glyph-name="ecaron" unicode="&#x11b;" 
d="M332 153l110 -77q-50 -86 -186 -86q-110 0 -168 61.5t-58 164.5v70q0 112 54.5 168t155.5 56q210 0 210 -239v-59h-270q2 -50 19 -73t58 -23q35 3 46.5 9t28.5 28zM241 384q-54 0 -60 -72h119q-2 39 -16.5 55.5t-42.5 16.5zM404 709l-111 -142h-106l-111 142h122l42 -57
l42 57h122z" />
    <glyph glyph-name="Gcircumflex" unicode="&#x11c;" horiz-adv-x="616" 
d="M320 227v138h251v-74q0 -149 -66 -225t-188 -76q-126 0 -199 77.5t-73 223.5v94q0 155 72.5 235t199.5 80q109 0 174 -58.5t80 -164.5h-158q-6 38 -31 61.5t-65 23.5q-106 0 -106 -163v-108q0 -163 106 -163q85 0 95 99h-92zM114 739l138 142h112l138 -142h-142l-52 56
l-52 -56h-142z" />
    <glyph glyph-name="gcircumflex" unicode="&#x11d;" horiz-adv-x="515" 
d="M320 483v17h150v-490q0 -100 -43 -150q-55 -58 -181 -56q-75 0 -123 21t-83 72l98 71q33 -40 88 -40q56 0 75 15t19 67v9q-38 -29 -94 -29q-93 0 -144.5 61t-51.5 165v70q0 107 52.5 165.5t143.5 58.5q54 0 94 -27zM250 116q38 0 54 24t16 74v70q0 100 -70 100
q-38 0 -54 -26t-16 -85v-44q0 -60 14.5 -86.5t55.5 -26.5zM123 567l111 142h106l111 -142h-122l-42 57l-42 -57h-122z" />
    <glyph glyph-name="Gbreve" unicode="&#x11e;" horiz-adv-x="616" 
d="M320 227v138h251v-74q0 -149 -66 -225t-188 -76q-126 0 -199 77.5t-73 223.5v94q0 155 72.5 235t199.5 80q109 0 174 -58.5t80 -164.5h-158q-6 38 -31 61.5t-65 23.5q-106 0 -106 -163v-108q0 -163 106 -163q85 0 95 99h-92zM375 879h128q0 -72 -53 -112t-141 -40
t-141.5 40.5t-53.5 111.5h128q12 -44 67 -44t66 44z" />
    <glyph glyph-name="gbreve" unicode="&#x11f;" horiz-adv-x="515" 
d="M320 483v17h150v-490q0 -100 -43 -150q-55 -58 -181 -56q-75 0 -123 21t-83 72l98 71q33 -40 88 -40q56 0 75 15t19 67v9q-38 -29 -94 -29q-93 0 -144.5 61t-51.5 165v70q0 107 52.5 165.5t143.5 58.5q54 0 94 -27zM250 116q38 0 54 24t16 74v70q0 100 -70 100
q-38 0 -54 -26t-16 -85v-44q0 -60 14.5 -86.5t55.5 -26.5zM336 686h105q-2 -66 -43 -102t-113 -36t-113 36t-43 102h106q8 -50 50 -50q43 0 51 50z" />
    <glyph glyph-name="Gdotaccent" unicode="&#x120;" horiz-adv-x="616" 
d="M320 227v138h251v-74q0 -149 -66 -225t-188 -76q-126 0 -199 77.5t-73 223.5v94q0 155 72.5 235t199.5 80q109 0 174 -58.5t80 -164.5h-158q-6 38 -31 61.5t-65 23.5q-106 0 -106 -163v-108q0 -163 106 -163q85 0 95 99h-92zM397 749h-166v120h166v-120z" />
    <glyph glyph-name="gdotaccent" unicode="&#x121;" horiz-adv-x="515" 
d="M320 483v17h150v-490q0 -100 -43 -150q-55 -58 -181 -56q-75 0 -123 21t-83 72l98 71q33 -40 88 -40q56 0 75 15t19 67v9q-38 -29 -94 -29q-93 0 -144.5 61t-51.5 165v70q0 107 52.5 165.5t143.5 58.5q54 0 94 -27zM250 116q38 0 54 24t16 74v70q0 100 -70 100
q-38 0 -54 -26t-16 -85v-44q0 -60 14.5 -86.5t55.5 -26.5zM376 550h-160v140h160v-140z" />
    <glyph glyph-name="Gcommaaccent" unicode="&#x122;" horiz-adv-x="616" 
d="M320 227v138h251v-74q0 -149 -66 -225t-188 -76q-126 0 -199 77.5t-73 223.5v94q0 155 72.5 235t199.5 80q109 0 174 -58.5t80 -164.5h-158q-6 38 -31 61.5t-65 23.5q-106 0 -106 -163v-108q0 -163 106 -163q85 0 95 99h-92zM230 -44h156v-146l-156 -133v279z" />
    <glyph glyph-name="gcommaaccent" unicode="&#x123;" horiz-adv-x="515" 
d="M320 483v17h150v-490q0 -100 -43 -150q-55 -58 -181 -56q-75 0 -123 21t-83 72l98 71q33 -40 88 -40q56 0 75 15t19 67v9q-38 -29 -94 -29q-93 0 -144.5 61t-51.5 165v70q0 107 52.5 165.5t143.5 58.5q54 0 94 -27zM250 116q38 0 54 24t16 74v70q0 100 -70 100
q-38 0 -54 -26t-16 -85v-44q0 -60 14.5 -86.5t55.5 -26.5zM335 546h-156v146l156 133v-279z" />
    <glyph glyph-name="Hcircumflex" unicode="&#x124;" horiz-adv-x="664" 
d="M60 690h166v-264h212v264h166v-690h-166v288h-212v-288h-166v690zM138 739l138 142h112l138 -142h-142l-52 56l-52 -56h-142z" />
    <glyph glyph-name="hcircumflex" unicode="&#x125;" horiz-adv-x="526" 
d="M195 0h-150v690h150v-224q38 44 102 44q184 0 184 -196v-314h-150v285q0 52 -14.5 74.5t-49.5 22.5q-38 0 -55 -23.5t-17 -72.5v-286zM-44 733l111 142h106l111 -142h-122l-42 57l-42 -57h-122z" />
    <glyph glyph-name="Hbar" unicode="&#x126;" horiz-adv-x="684" 
d="M70 690h166v-74h212v74h166v-74h80v-148h-80v-468h-166v288h-212v-288h-166v468h-80v148h80v74zM236 468v-42h212v42h-212z" />
    <glyph glyph-name="hbar" unicode="&#x127;" horiz-adv-x="526" 
d="M45 528h-74v122h74v40h150v-40h115v-122h-115v-62q38 44 102 44q184 0 184 -196v-314h-150v285q0 52 -14.5 74.5t-49.5 22.5q-38 0 -55 -23.5t-17 -72.5v-286h-150v528z" />
    <glyph glyph-name="Imacron" unicode="&#x12a;" horiz-adv-x="306" 
d="M70 690h166v-690h-166v690zM318 737h-329v132h329v-132z" />
    <glyph glyph-name="imacron" unicode="&#x12b;" horiz-adv-x="270" 
d="M210 0h-150v500h150v-500zM275 560h-289v130h289v-130z" />
    <glyph glyph-name="Iogonek" unicode="&#x12e;" horiz-adv-x="306" 
d="M70 690h166v-690q-35 -40 -35 -58t19 -18q4 0 18 2l16 -71q-15 -5 -50 -5q-49 0 -81 19.5t-32 56.5q0 43 34 74h-55v690z" />
    <glyph glyph-name="iogonek" unicode="&#x12f;" horiz-adv-x="270" 
d="M99 0h-39v500h150v-500q-35 -40 -35 -58t19 -18q4 0 18 2l16 -71q-15 -5 -50 -5q-49 0 -81 19.5t-32 56.5q0 43 34 74zM215 550h-160v140h160v-140z" />
    <glyph glyph-name="Idot" unicode="&#x130;" horiz-adv-x="306" 
d="M70 690h166v-690h-166v690zM236 749h-166v120h166v-120z" />
    <glyph glyph-name="dotlessi" unicode="&#x131;" horiz-adv-x="270" 
d="M210 0h-150v500h150v-500z" />
    <glyph glyph-name="Jcircumflex" unicode="&#x134;" horiz-adv-x="516" 
d="M-15 102l135 76q35 -50 87 -50q43 0 63 28.5t20 99.5v434h166v-434q0 -266 -236 -266q-156 0 -235 112zM178 739l138 142h112l138 -142h-142l-52 56l-52 -56h-142z" />
    <glyph glyph-name="jcircumflex" unicode="&#x135;" horiz-adv-x="258" 
d="M58 500h150v-523q0 -99 -49 -133t-159 -34v128q31 0 44.5 12.5t13.5 44.5v505zM-35 567l111 142h106l111 -142h-122l-42 57l-42 -57h-122z" />
    <glyph glyph-name="Kcommaaccent" unicode="&#x136;" horiz-adv-x="648" 
d="M393 411l240 -411h-198l-149 265l-60 -82v-183h-166v690h166v-256l178 256h193zM249 -44h156v-146l-156 -133v279z" />
    <glyph glyph-name="kcommaaccent" unicode="&#x137;" horiz-adv-x="509" 
d="M195 340l110 160h176l-155 -202l183 -298h-172l-108 171l-34 -44v-127h-150v690h150v-350zM187 -44h156v-146l-156 -133v279z" />
    <glyph glyph-name="Lacute" unicode="&#x139;" horiz-adv-x="506" 
d="M60 690h166v-552h270v-138h-436v690zM226 740h-147l80 129h170z" />
    <glyph glyph-name="lacute" unicode="&#x13a;" horiz-adv-x="288" 
d="M45 163v527h150v-494q0 -38 15 -53t48 -15v-128q-112 0 -163 33q-50 35 -50 130zM194 726h-145l70 158h166z" />
    <glyph glyph-name="Lcommaaccent" unicode="&#x13b;" horiz-adv-x="506" 
d="M60 690h166v-552h270v-138h-436v690zM200 -44h156v-146l-156 -133v279z" />
    <glyph glyph-name="lcommaaccent" unicode="&#x13c;" horiz-adv-x="288" 
d="M45 163v527h150v-494q0 -38 15 -53t48 -15v-128q-112 0 -163 33q-50 35 -50 130zM76 -44h156v-146l-156 -133v279z" />
    <glyph glyph-name="Lcaron" unicode="&#x13d;" horiz-adv-x="506" 
d="M60 690h166v-552h270v-138h-436v690zM309 690h156v-156l-156 -133v289z" />
    <glyph glyph-name="lcaron" unicode="&#x13e;" horiz-adv-x="328" 
d="M45 163v527h150v-494q0 -38 15 -53t48 -15v-128q-112 0 -163 33q-50 35 -50 130zM222 690h156v-146l-156 -133v279z" />
    <glyph glyph-name="Ldot" unicode="&#x13f;" horiz-adv-x="506" 
d="M60 690h166v-552h270v-138h-436v690zM486 310h-160v140h160v-140z" />
    <glyph glyph-name="ldot" unicode="&#x140;" horiz-adv-x="391" 
d="M45 163v527h150v-494q0 -38 15 -53t48 -15v-128q-112 0 -163 33q-50 35 -50 130zM401 343h-166v120h166v-120z" />
    <glyph glyph-name="Lslash" unicode="&#x141;" horiz-adv-x="546" 
d="M100 690h166v-166l73 58l84 -106l-157 -125v-213h270v-138h-436v218l-51 -40l-84 106l135 107v299z" />
    <glyph glyph-name="lslash" unicode="&#x142;" horiz-adv-x="298" 
d="M75 267l-45 -31l-40 60l85 58v336h150v-232l38 26l40 -59l-78 -54v-175q0 -38 15 -53t48 -15v-128q-112 0 -163 33q-50 35 -50 130v104z" />
    <glyph glyph-name="Nacute" unicode="&#x143;" horiz-adv-x="664" 
d="M448 303v387h156v-690h-134l-254 382v-382h-156v690h132zM406 740h-147l80 129h170z" />
    <glyph glyph-name="nacute" unicode="&#x144;" horiz-adv-x="526" 
d="M195 0h-150v500h146v-38q37 48 106 48q184 0 184 -196v-314h-150v285q0 52 -14.5 74.5t-49.5 22.5q-38 0 -55 -23.5t-17 -72.5v-286zM326 567h-145l70 158h166z" />
    <glyph glyph-name="Ncommaaccent" unicode="&#x145;" horiz-adv-x="664" 
d="M448 303v387h156v-690h-134l-254 382v-382h-156v690h132zM261 -44h156v-146l-156 -133v279z" />
    <glyph glyph-name="ncommaaccent" unicode="&#x146;" horiz-adv-x="526" 
d="M195 0h-150v500h146v-38q37 48 106 48q184 0 184 -196v-314h-150v285q0 52 -14.5 74.5t-49.5 22.5q-38 0 -55 -23.5t-17 -72.5v-286zM189 -44h156v-146l-156 -133v279z" />
    <glyph glyph-name="Ncaron" unicode="&#x147;" horiz-adv-x="664" 
d="M448 303v387h156v-690h-134l-254 382v-382h-156v690h132zM526 881l-138 -142h-112l-138 142h142l52 -56l52 56h142z" />
    <glyph glyph-name="ncaron" unicode="&#x148;" horiz-adv-x="526" 
d="M195 0h-150v500h146v-38q37 48 106 48q184 0 184 -196v-314h-150v285q0 52 -14.5 74.5t-49.5 22.5q-38 0 -55 -23.5t-17 -72.5v-286zM427 709l-111 -142h-106l-111 142h122l42 -57l42 57h122z" />
    <glyph glyph-name="Omacron" unicode="&#x14c;" horiz-adv-x="634" 
d="M589 399v-108q0 -146 -73 -223.5t-199 -77.5t-199 77.5t-73 223.5v108q0 147 72.5 224t199.5 77t199.5 -77t72.5 -224zM211 399v-108q0 -163 106 -163t106 163v108q0 163 -106 163t-106 -163zM482 737h-329v132h329v-132z" />
    <glyph glyph-name="omacron" unicode="&#x14d;" horiz-adv-x="500" 
d="M470 280v-58q0 -111 -55 -171.5t-165 -60.5q-109 0 -164.5 60.5t-55.5 171.5v58q0 113 56.5 171.5t163.5 58.5q108 0 164 -58t56 -172zM320 229v44q0 59 -16 85t-54 26t-54 -26t-16 -85v-44q0 -60 14.5 -86.5t55.5 -26.5t55.5 26.5t14.5 86.5zM395 560h-289v130h289v-130
z" />
    <glyph glyph-name="Ohungarumlaut" unicode="&#x150;" horiz-adv-x="634" 
d="M589 399v-108q0 -146 -73 -223.5t-199 -77.5t-199 77.5t-73 223.5v108q0 147 72.5 224t199.5 77t199.5 -77t72.5 -224zM211 399v-108q0 -163 106 -163t106 163v108q0 163 -106 163t-106 -163zM264 740h-147l80 129h170zM484 740h-147l90 129h170z" />
    <glyph glyph-name="ohungarumlaut" unicode="&#x151;" horiz-adv-x="500" 
d="M470 280v-58q0 -111 -55 -171.5t-165 -60.5q-109 0 -164.5 60.5t-55.5 171.5v58q0 113 56.5 171.5t163.5 58.5q108 0 164 -58t56 -172zM320 229v44q0 59 -16 85t-54 26t-54 -26t-16 -85v-44q0 -60 14.5 -86.5t55.5 -26.5t55.5 26.5t14.5 86.5zM215 567h-145l70 158h166z
M399 567h-145l90 158h166z" />
    <glyph glyph-name="OE" unicode="&#x152;" horiz-adv-x="884" 
d="M423 678v12h436v-138h-270v-126h240v-138h-240v-150h270v-138h-436v12q-45 -22 -106 -22q-126 0 -199 77.5t-73 223.5v108q0 147 72.5 224t199.5 77q61 0 106 -22zM211 399v-108q0 -163 106 -163t106 163v116q0 155 -106 155t-106 -163z" />
    <glyph glyph-name="oe" unicode="&#x153;" horiz-adv-x="775" 
d="M622 153l110 -77q-27 -45 -70 -65.5t-119 -20.5q-90 0 -144 57q-53 -57 -149 -57q-106 0 -163 59.5t-57 166.5v70q0 108 56.5 166t163.5 58q94 0 146 -55q52 55 142 55q99 0 150.5 -60t51.5 -172v-68h-270q1 -51 20 -72.5t57 -21.5q30 0 44.5 7.5t30.5 29.5zM320 216v70
q0 98 -70 98t-70 -98v-70q0 -51 15.5 -75.5t54.5 -24.5t54.5 24.5t15.5 75.5zM529 384q-52 0 -58 -74h119q-2 39 -16 56.5t-45 17.5z" />
    <glyph glyph-name="Racute" unicode="&#x154;" horiz-adv-x="624" 
d="M471 290l138 -290h-182l-115 261h-86v-261h-166v690h260q123 0 192 -56t69 -161q0 -133 -110 -183zM226 552v-153h74q61 0 88 15.5t27 58.5q0 44 -28 61.5t-87 17.5h-74zM347 740h-147l80 129h170z" />
    <glyph glyph-name="racute" unicode="&#x155;" horiz-adv-x="417" 
d="M427 426l-112 -80q-23 36 -52 36q-68 0 -68 -97v-285h-150v500h146v-38q37 48 105 48q88 0 131 -84zM276 567h-145l70 158h166z" />
    <glyph glyph-name="Rcommaaccent" unicode="&#x156;" horiz-adv-x="624" 
d="M471 290l138 -290h-182l-115 261h-86v-261h-166v690h260q123 0 192 -56t69 -161q0 -133 -110 -183zM226 552v-153h74q61 0 88 15.5t27 58.5q0 44 -28 61.5t-87 17.5h-74zM255 -44h156v-146l-156 -133v279z" />
    <glyph glyph-name="rcommaaccent" unicode="&#x157;" horiz-adv-x="417" 
d="M427 426l-112 -80q-23 36 -52 36q-68 0 -68 -97v-285h-150v500h146v-38q37 48 105 48q88 0 131 -84zM42 -44h156v-146l-156 -133v279z" />
    <glyph glyph-name="Rcaron" unicode="&#x158;" horiz-adv-x="624" 
d="M471 290l138 -290h-182l-115 261h-86v-261h-166v690h260q123 0 192 -56t69 -161q0 -133 -110 -183zM226 552v-153h74q61 0 88 15.5t27 58.5q0 44 -28 61.5t-87 17.5h-74zM498 881l-138 -142h-112l-138 142h142l52 -56l52 56h142z" />
    <glyph glyph-name="rcaron" unicode="&#x159;" horiz-adv-x="417" 
d="M427 426l-112 -80q-23 36 -52 36q-68 0 -68 -97v-285h-150v500h146v-38q37 48 105 48q88 0 131 -84zM396 709l-111 -142h-106l-111 142h122l42 -57l42 57h122z" />
    <glyph glyph-name="Sacute" unicode="&#x15a;" horiz-adv-x="577" 
d="M542 587l-123 -88q-20 34 -48 48.5t-75 14.5q-79 0 -79 -60q0 -30 28 -50t95 -39q114 -33 160 -81q47 -49 47 -136q0 -96 -63 -151t-178 -55q-97 0 -162.5 26.5t-113.5 86.5l124 87q50 -62 138 -62q44 0 66.5 16t22.5 44q0 30 -27 49q-22 17 -103 44q-105 34 -152.5 85.5
t-47.5 134.5q0 92 62.5 145.5t180.5 53.5q174 0 248 -113zM358 740h-147l80 129h170z" />
    <glyph glyph-name="sacute" unicode="&#x15b;" horiz-adv-x="463" 
d="M426 427l-111 -80q-30 35 -85 35q-47 0 -47 -26q0 -13 13.5 -20t48.5 -14q100 -19 144 -60t44 -113q0 -75 -52 -117t-148 -42q-79 0 -129.5 19.5t-83.5 63.5l116 84q16 -21 36 -30t58 -9q53 0 53 27q0 14 -13 20.5t-51 15.5q-94 21 -140 61t-46 108q0 75 52.5 117.5
t147.5 42.5q142 0 193 -83zM290 567h-145l70 158h166z" />
    <glyph glyph-name="Scircumflex" unicode="&#x15c;" horiz-adv-x="577" 
d="M542 587l-123 -88q-20 34 -48 48.5t-75 14.5q-79 0 -79 -60q0 -30 28 -50t95 -39q114 -33 160 -81q47 -49 47 -136q0 -96 -63 -151t-178 -55q-97 0 -162.5 26.5t-113.5 86.5l124 87q50 -62 138 -62q44 0 66.5 16t22.5 44q0 30 -27 49q-22 17 -103 44q-105 34 -152.5 85.5
t-47.5 134.5q0 92 62.5 145.5t180.5 53.5q174 0 248 -113zM103 739l138 142h112l138 -142h-142l-52 56l-52 -56h-142z" />
    <glyph glyph-name="scircumflex" unicode="&#x15d;" horiz-adv-x="463" 
d="M426 427l-111 -80q-30 35 -85 35q-47 0 -47 -26q0 -13 13.5 -20t48.5 -14q100 -19 144 -60t44 -113q0 -75 -52 -117t-148 -42q-79 0 -129.5 19.5t-83.5 63.5l116 84q16 -21 36 -30t58 -9q53 0 53 27q0 14 -13 20.5t-51 15.5q-94 21 -140 61t-46 108q0 75 52.5 117.5
t147.5 42.5q142 0 193 -83zM65 567l111 142h106l111 -142h-122l-42 57l-42 -57h-122z" />
    <glyph glyph-name="Scedilla" unicode="&#x15e;" horiz-adv-x="577" 
d="M238 -73l14 65q-144 12 -222 111l124 87q50 -62 138 -62q44 0 66.5 16t22.5 44q0 30 -27 49q-22 17 -103 44q-105 34 -152.5 85.5t-47.5 134.5q0 92 62.5 145.5t180.5 53.5q174 0 248 -113l-123 -88q-20 34 -48 48.5t-75 14.5q-79 0 -79 -60q0 -30 28 -50t95 -39
q114 -33 160 -81q47 -49 47 -136q0 -88 -53 -141.5t-151 -62.5l-3 -14q48 -22 48 -71q0 -40 -33.5 -63.5t-88.5 -23.5q-36 0 -51 4l17 71q16 -2 19 -2q26 0 26 17t-39 17z" />
    <glyph glyph-name="scedilla" unicode="&#x15f;" horiz-adv-x="463" 
d="M174 -73l14 65q-116 9 -168 81l116 84q16 -21 36 -30t58 -9q53 0 53 27q0 14 -13 20.5t-51 15.5q-94 21 -140 61t-46 108q0 75 52.5 117.5t147.5 42.5q142 0 193 -83l-111 -80q-30 35 -85 35q-47 0 -47 -26q0 -13 13.5 -20t48.5 -14q100 -19 144 -60t44 -113
q0 -66 -39.5 -106.5t-114.5 -49.5l-3 -15q48 -22 48 -71q0 -40 -33.5 -63.5t-88.5 -23.5q-36 0 -51 4l17 71q16 -2 19 -2q26 0 26 17t-39 17z" />
    <glyph glyph-name="Scaron" unicode="&#x160;" horiz-adv-x="577" 
d="M542 587l-123 -88q-20 34 -48 48.5t-75 14.5q-79 0 -79 -60q0 -30 28 -50t95 -39q114 -33 160 -81q47 -49 47 -136q0 -96 -63 -151t-178 -55q-97 0 -162.5 26.5t-113.5 86.5l124 87q50 -62 138 -62q44 0 66.5 16t22.5 44q0 30 -27 49q-22 17 -103 44q-105 34 -152.5 85.5
t-47.5 134.5q0 92 62.5 145.5t180.5 53.5q174 0 248 -113zM486 881l-138 -142h-112l-138 142h142l52 -56l52 56h142z" />
    <glyph glyph-name="scaron" unicode="&#x161;" horiz-adv-x="463" 
d="M426 427l-111 -80q-30 35 -85 35q-47 0 -47 -26q0 -13 13.5 -20t48.5 -14q100 -19 144 -60t44 -113q0 -75 -52 -117t-148 -42q-79 0 -129.5 19.5t-83.5 63.5l116 84q16 -21 36 -30t58 -9q53 0 53 27q0 14 -13 20.5t-51 15.5q-94 21 -140 61t-46 108q0 75 52.5 117.5
t147.5 42.5q142 0 193 -83zM391 709l-111 -142h-106l-111 142h122l42 -57l42 57h122z" />
    <glyph glyph-name="Tcedilla" unicode="&#x162;" horiz-adv-x="546" 
d="M208 -73l15 73h-33v552h-180v138h526v-138h-180v-552h-41l-5 -22q48 -22 48 -71q0 -40 -33.5 -63.5t-88.5 -23.5q-36 0 -51 4l17 71q16 -2 19 -2q26 0 26 17t-39 17z" />
    <glyph glyph-name="tcedilla" unicode="&#x163;" horiz-adv-x="339" 
d="M154 -73l17 80q-51 12 -74 49t-23 112v206h-64v126h64v110h150v-110h90v-126h-90v-187q0 -31 10.5 -44t37.5 -13h42v-130h-53l-5 -22q48 -22 48 -71q0 -40 -33.5 -63.5t-88.5 -23.5q-36 0 -51 4l17 71q16 -2 19 -2q26 0 26 17t-39 17z" />
    <glyph glyph-name="Tcaron" unicode="&#x164;" horiz-adv-x="546" 
d="M10 552v138h526v-138h-180v-552h-166v552h-180zM467 881l-138 -142h-112l-138 142h142l52 -56l52 56h142z" />
    <glyph glyph-name="tcaron" unicode="&#x165;" horiz-adv-x="365" 
d="M74 374h-64v126h64v110h150v-110h90v-126h-90v-187q0 -31 10.5 -44t37.5 -13h42v-130h-59q-98 0 -140 33q-41 35 -41 135v206zM335 690h156v-146l-156 -133v279z" />
    <glyph glyph-name="Umacron" unicode="&#x16a;" horiz-adv-x="664" 
d="M438 278v412h166v-411q0 -146 -75 -218q-76 -71 -197 -71t-197 71q-75 72 -75 217v412h166v-412q0 -78 25 -114t81 -36t81 36t25 114zM497 737h-329v132h329v-132z" />
    <glyph glyph-name="umacron" unicode="&#x16b;" horiz-adv-x="526" 
d="M331 500h150v-500h-147v39q-16 -27 -39 -38t-66 -11q-86 0 -135 48.5t-49 149.5v312h150v-284q0 -52 15 -75t51 -23q38 0 54 22.5t16 74.5v285zM408 560h-289v130h289v-130z" />
    <glyph glyph-name="Ubreve" unicode="&#x16c;" horiz-adv-x="664" 
d="M438 278v412h166v-411q0 -146 -75 -218q-76 -71 -197 -71t-197 71q-75 72 -75 217v412h166v-412q0 -78 25 -114t81 -36t81 36t25 114zM399 879h128q0 -72 -53 -112t-141 -40t-141.5 40.5t-53.5 111.5h128q12 -44 67 -44t66 44z" />
    <glyph glyph-name="ubreve" unicode="&#x16d;" horiz-adv-x="526" 
d="M331 500h150v-500h-147v39q-16 -27 -39 -38t-66 -11q-86 0 -135 48.5t-49 149.5v312h150v-284q0 -52 15 -75t51 -23q38 0 54 22.5t16 74.5v285zM314 686h105q-2 -66 -43 -102t-113 -36t-113 36t-43 102h106q8 -50 50 -50q43 0 51 50z" />
    <glyph glyph-name="Uring" unicode="&#x16e;" horiz-adv-x="664" 
d="M438 278v412h166v-411q0 -146 -75 -218q-76 -71 -197 -71t-197 71q-75 72 -75 217v412h166v-412q0 -78 25 -114t81 -36t81 36t25 114zM332 899q54 0 87 -27t33 -72t-33 -71.5t-87 -26.5t-86.5 26.5t-32.5 71.5t33 72t86 27zM332 824q-27 0 -27 -24t27 -24t27 24t-27 24z
" />
    <glyph glyph-name="uring" unicode="&#x16f;" horiz-adv-x="526" 
d="M331 500h150v-500h-147v39q-16 -27 -39 -38t-66 -11q-86 0 -135 48.5t-49 149.5v312h150v-284q0 -52 15 -75t51 -23q38 0 54 22.5t16 74.5v285zM263 756q59 0 94.5 -30.5t35.5 -79.5t-35 -79t-95 -30q-59 0 -94 30t-35 79t35 79.5t94 30.5zM263 683q-27 0 -27 -37t27 -37
t27 37t-27 37z" />
    <glyph glyph-name="Uhungarumlaut" unicode="&#x170;" horiz-adv-x="664" 
d="M438 278v412h166v-411q0 -146 -75 -218q-76 -71 -197 -71t-197 71q-75 72 -75 217v412h166v-412q0 -78 25 -114t81 -36t81 36t25 114zM286 740h-147l80 129h170zM506 740h-147l90 129h170z" />
    <glyph glyph-name="uhungarumlaut" unicode="&#x171;" horiz-adv-x="526" 
d="M331 500h150v-500h-147v39q-16 -27 -39 -38t-66 -11q-86 0 -135 48.5t-49 149.5v312h150v-284q0 -52 15 -75t51 -23q38 0 54 22.5t16 74.5v285zM238 567h-145l70 158h166zM422 567h-145l90 158h166z" />
    <glyph glyph-name="Uogonek" unicode="&#x172;" horiz-adv-x="664" 
d="M438 278v412h166v-411q0 -123 -56 -195.5t-155 -88.5q-31 -35 -31 -53t19 -18q4 0 18 2l16 -71q-15 -5 -50 -5q-49 0 -81 19.5t-32 56.5t28 68q-104 13 -162 85.5t-58 198.5v412h166v-412q0 -78 25 -114t81 -36t81 36t25 114z" />
    <glyph glyph-name="uogonek" unicode="&#x173;" horiz-adv-x="526" 
d="M331 500h150v-500q-35 -40 -35 -58t19 -18q4 0 18 2l16 -71q-15 -5 -50 -5q-49 0 -81 19.5t-32 56.5q0 43 34 74h-36v39q-16 -27 -39 -38t-66 -11q-86 0 -135 48.5t-49 149.5v312h150v-284q0 -52 15 -75t51 -23q38 0 54 22.5t16 74.5v285z" />
    <glyph glyph-name="Ydieresis" unicode="&#x178;" horiz-adv-x="596" 
d="M215 276l-215 414h191l107 -237l107 237h191l-215 -414v-276h-166v276zM268 739h-140v130h140v-130zM468 739h-140v130h140v-130z" />
    <glyph glyph-name="Zacute" unicode="&#x179;" horiz-adv-x="519" 
d="M30 552v138h459v-108l-250 -444h260v-138h-469v108l254 444h-254zM329 740h-147l80 129h170z" />
    <glyph glyph-name="zacute" unicode="&#x17a;" horiz-adv-x="448" 
d="M25 0v102l198 272h-194v126h389v-102l-196 -272h206v-126h-403zM299 567h-145l70 158h166z" />
    <glyph glyph-name="Zdotaccent" unicode="&#x17b;" horiz-adv-x="519" 
d="M30 552v138h459v-108l-250 -444h260v-138h-469v108l254 444h-254zM352 749h-166v120h166v-120z" />
    <glyph glyph-name="zdotaccent" unicode="&#x17c;" horiz-adv-x="448" 
d="M25 0v102l198 272h-194v126h389v-102l-196 -272h206v-126h-403zM312 550h-160v140h160v-140z" />
    <glyph glyph-name="Zcaron" unicode="&#x17d;" horiz-adv-x="519" 
d="M30 552v138h459v-108l-250 -444h260v-138h-469v108l254 444h-254zM458 881l-138 -142h-112l-138 142h142l52 -56l52 56h142z" />
    <glyph glyph-name="zcaron" unicode="&#x17e;" horiz-adv-x="448" 
d="M25 0v102l198 272h-194v126h389v-102l-196 -272h206v-126h-403zM399 709l-111 -142h-106l-111 142h122l42 -57l42 57h122z" />
    <glyph glyph-name="uni018F" unicode="&#x18f;" horiz-adv-x="601" 
d="M45 291v88h360v20q0 163 -106 163q-40 0 -65 -23.5t-31 -61.5h-158q15 106 80 164.5t174 58.5q127 0 199.5 -80t72.5 -235v-94q0 -146 -73 -223.5t-199 -77.5q-122 0 -188 76t-66 225zM299 128q46 0 71 26.5t32 86.5h-200q3 -57 25.5 -85t71.5 -28z" />
    <glyph glyph-name="florin" unicode="&#x192;" horiz-adv-x="560" 
d="M113 361v139h64v22q0 98 47 133t147 35h44v-139h-22q-53 0 -53 -51h75v-139h-75v-384q0 -98 -55 -132q-55 -35 -166 -35v139q31 0 44.5 12.5t13.5 44.5v355h-64z" />
    <glyph glyph-name="uni01DD" unicode="&#x1dd;" 
d="M153 347l-110 77q50 86 186 86q110 0 168 -61.5t58 -164.5v-70q0 -112 -54.5 -168t-155.5 -56q-210 0 -210 239v59h270q-2 50 -19 73t-58 23q-35 -3 -46.5 -9t-28.5 -28zM244 116q54 0 60 72h-119q2 -39 16.5 -55.5t42.5 -16.5z" />
    <glyph glyph-name="Scommaaccent" unicode="&#x218;" horiz-adv-x="577" 
d="M542 587l-123 -88q-20 34 -48 48.5t-75 14.5q-79 0 -79 -60q0 -30 28 -50t95 -39q114 -33 160 -81q47 -49 47 -136q0 -96 -63 -151t-178 -55q-97 0 -162.5 26.5t-113.5 86.5l124 87q50 -62 138 -62q44 0 66.5 16t22.5 44q0 30 -27 49q-22 17 -103 44q-105 34 -152.5 85.5
t-47.5 134.5q0 92 62.5 145.5t180.5 53.5q174 0 248 -113zM227 -44h156v-146l-156 -133v279z" />
    <glyph glyph-name="scommaaccent" unicode="&#x219;" horiz-adv-x="463" 
d="M426 427l-111 -80q-30 35 -85 35q-47 0 -47 -26q0 -13 13.5 -20t48.5 -14q100 -19 144 -60t44 -113q0 -75 -52 -117t-148 -42q-79 0 -129.5 19.5t-83.5 63.5l116 84q16 -21 36 -30t58 -9q53 0 53 27q0 14 -13 20.5t-51 15.5q-94 21 -140 61t-46 108q0 75 52.5 117.5
t147.5 42.5q142 0 193 -83zM161 -44h156v-146l-156 -133v279z" />
    <glyph glyph-name="Tcommaaccent" unicode="&#x21a;" horiz-adv-x="546" 
d="M10 552v138h526v-138h-180v-552h-166v552h-180zM195 -44h156v-146l-156 -133v279z" />
    <glyph glyph-name="tcommaaccent" unicode="&#x21b;" horiz-adv-x="339" 
d="M74 374h-64v126h64v110h150v-110h90v-126h-90v-187q0 -31 10.5 -44t37.5 -13h42v-130h-59q-98 0 -140 33q-41 35 -41 135v206zM122 -44h156v-146l-156 -133v279z" />
    <glyph glyph-name="uni0237" unicode="&#x237;" horiz-adv-x="258" 
d="M58 500h150v-523q0 -99 -49 -133t-159 -34v128q31 0 44.5 12.5t13.5 44.5v505z" />
    <glyph glyph-name="uni0259" unicode="&#x259;" 
d="M153 347l-110 77q50 86 186 86q110 0 168 -61.5t58 -164.5v-70q0 -112 -54.5 -168t-155.5 -56q-210 0 -210 239v59h270q-2 50 -19 73t-58 23q-35 -3 -46.5 -9t-28.5 -28zM244 116q54 0 60 72h-119q2 -39 16.5 -55.5t42.5 -16.5z" />
    <glyph glyph-name="afii57929" unicode="&#x2bc;" horiz-adv-x="201" 
d="M22 500h156v-146l-156 -133v279z" />
    <glyph glyph-name="circumflex" unicode="&#x2c6;" horiz-adv-x="417" 
d="M44 567l111 142h106l111 -142h-122l-42 57l-42 -57h-122z" />
    <glyph glyph-name="caron" unicode="&#x2c7;" horiz-adv-x="417" 
d="M372 709l-111 -142h-106l-111 142h122l42 -57l42 57h122z" />
    <glyph glyph-name="breve" unicode="&#x2d8;" horiz-adv-x="419" 
d="M260 686h105q-2 -66 -43 -102t-113 -36t-113 36t-43 102h106q8 -50 50 -50q43 0 51 50z" />
    <glyph glyph-name="dotaccent" unicode="&#x2d9;" horiz-adv-x="343" 
d="M251 550h-160v140h160v-140z" />
    <glyph glyph-name="ring" unicode="&#x2da;" horiz-adv-x="393" 
d="M196 756q59 0 94.5 -30.5t35.5 -79.5t-35 -79t-95 -30q-59 0 -94 30t-35 79t35 79.5t94 30.5zM196 683q-27 0 -27 -37t27 -37t27 37t-27 37z" />
    <glyph glyph-name="ogonek" unicode="&#x2db;" horiz-adv-x="348" 
d="M215 57l22 -57q-35 -40 -35 -58t19 -18q4 0 18 2l16 -71q-15 -5 -50 -5q-49 0 -81 19.5t-32 56.5q0 73 123 131z" />
    <glyph glyph-name="tilde" unicode="&#x2dc;" horiz-adv-x="445" 
d="M286 557q-30 0 -68 15t-51 15q-28 0 -49 -27l-78 66q52 66 123 66q27 0 64 -15q39 -15 54 -15q26 0 47 27l77 -66q-22 -30 -54 -48t-65 -18z" />
    <glyph glyph-name="hungarumlaut" unicode="&#x2dd;" horiz-adv-x="530" 
d="M190 567h-145l70 158h166zM374 567h-145l90 158h166z" />
    <glyph glyph-name="acutecomb" unicode="&#x301;" horiz-adv-x="0" 
d="M-176 567h-145l70 158h166z" />
    <glyph glyph-name="uni0394" unicode="&#x2206;" horiz-adv-x="619" 
d="M393 690l206 -690h-579l205 690h168zM226 138h166l-83 337z" />
    <glyph glyph-name="uni0394" unicode="&#x394;" horiz-adv-x="619" 
d="M393 690l206 -690h-579l205 690h168zM226 138h166l-83 337z" />
    <glyph glyph-name="uni03A9" unicode="&#x2126;" horiz-adv-x="634" 
d="M530 138h59v-138h-226v138q34 18 47 51.5t13 105.5v104q0 163 -105 163q-107 0 -107 -163v-104q0 -73 13 -107t47 -50v-138h-226v138h59q-33 33 -46 65q-13 33 -13 92v104q0 147 73 224t200 77q126 0 198.5 -77t72.5 -224v-104q0 -56 -14 -92q-14 -34 -45 -65z" />
    <glyph glyph-name="uni03A9" unicode="&#x3a9;" horiz-adv-x="634" 
d="M530 138h59v-138h-226v138q34 18 47 51.5t13 105.5v104q0 163 -105 163q-107 0 -107 -163v-104q0 -73 13 -107t47 -50v-138h-226v138h59q-33 33 -46 65q-13 33 -13 92v104q0 147 73 224t200 77q126 0 198.5 -77t72.5 -224v-104q0 -56 -14 -92q-14 -34 -45 -65z" />
    <glyph glyph-name="pi" unicode="&#x3c0;" horiz-adv-x="558" 
d="M315 163v211h-120v-374h-140v374h-70v126h543v-126h-63v-178q0 -38 15 -53t48 -15v-128q-112 0 -163 33q-50 35 -50 130z" />
    <glyph glyph-name="afii10023" unicode="&#x401;" horiz-adv-x="521" 
d="M60 0v690h436v-138h-270v-126h240v-138h-240v-150h270v-138h-436zM249 739h-140v130h140v-130zM449 739h-140v130h140v-130z" />
    <glyph glyph-name="afii10051" unicode="&#x402;" horiz-adv-x="727" 
d="M527 180v36q0 42 -20 60t-64 18q-61 0 -102 -51v-243h-166v552h-180v138h526v-138h-180v-167q20 19 60.5 33t83.5 14q208 0 208 -203v-77q0 -96 -71 -128q-57 -24 -145 -24h-19v128h20q26 0 37.5 12t11.5 40z" />
    <glyph glyph-name="afii10052" unicode="&#x403;" horiz-adv-x="496" 
d="M60 690h436v-138h-270v-552h-166v690zM335 740h-147l80 129h170z" />
    <glyph glyph-name="afii10053" unicode="&#x404;" horiz-adv-x="589" 
d="M566 477h-158q-6 38 -31 61.5t-65 23.5q-100 0 -106 -146h182v-138h-182q4 -150 106 -150q81 0 96 85h158q-18 -114 -80.5 -168.5t-173.5 -54.5q-126 0 -199 77.5t-73 223.5v108q0 147 72.5 224t199.5 77q106 0 171.5 -56.5t82.5 -166.5z" />
    <glyph glyph-name="afii10054" unicode="&#x405;" horiz-adv-x="577" 
d="M542 587l-123 -88q-20 34 -48 48.5t-75 14.5q-79 0 -79 -60q0 -30 28 -50t95 -39q114 -33 160 -81q47 -49 47 -136q0 -96 -63 -151t-178 -55q-97 0 -162.5 26.5t-113.5 86.5l124 87q50 -62 138 -62q44 0 66.5 16t22.5 44q0 30 -27 49q-22 17 -103 44q-105 34 -152.5 85.5
t-47.5 134.5q0 92 62.5 145.5t180.5 53.5q174 0 248 -113z" />
    <glyph glyph-name="afii10055" unicode="&#x406;" horiz-adv-x="306" 
d="M70 690h166v-690h-166v690zM236 749h-166v120h166v-120z" />
    <glyph glyph-name="afii10056" unicode="&#x407;" horiz-adv-x="306" 
d="M70 690h166v-690h-166v690zM123 739h-140v130h140v-130zM323 739h-140v130h140v-130z" />
    <glyph glyph-name="afii10057" unicode="&#x408;" horiz-adv-x="516" 
d="M-15 102l135 76q35 -50 87 -50q43 0 63 28.5t20 99.5v434h166v-434q0 -266 -236 -266q-156 0 -235 112z" />
    <glyph glyph-name="afii10058" unicode="&#x409;" horiz-adv-x="974" 
d="M115 478v212h484v-243h87q132 0 200 -59.5t68 -164.5t-68 -164t-200 -59h-253v552h-152v-74q0 -168 -7 -230q-8 -66 -27 -117q-49 -127 -237 -141v170q68 10 88 57q17 43 17 261zM675 309h-76v-171h76q60 0 86.5 21t26.5 64q0 45 -26 65.5t-87 20.5z" />
    <glyph glyph-name="afii10059" unicode="&#x40a;" horiz-adv-x="979" 
d="M438 426v264h166v-243h87q132 0 200 -59.5t68 -164.5t-68 -164t-200 -59h-253v288h-212v-288h-166v690h166v-264h212zM680 309h-76v-171h76q60 0 86.5 21t26.5 64q0 45 -26 65.5t-87 20.5z" />
    <glyph glyph-name="afii10060" unicode="&#x40b;" horiz-adv-x="742" 
d="M10 552v138h526v-138h-180v-167q20 19 60.5 33t83.5 14q208 0 208 -203v-229h-166v216q0 42 -20 60t-64 18q-62 0 -102 -51v-243h-166v552h-180z" />
    <glyph glyph-name="afii10061" unicode="&#x40c;" horiz-adv-x="633" 
d="M412 359l206 -359h-195l-158 278h-39v-278h-166v690h166v-274h36l143 274h182zM374 740h-147l80 129h170z" />
    <glyph glyph-name="afii10062" unicode="&#x40e;" horiz-adv-x="577" 
d="M313 388l101 302h170l-201 -539q-34 -93 -96 -128q-61 -33 -177 -33v143q96 0 124 39l-234 518h184zM343 879h151q0 -155 -198 -155q-199 0 -199 155h152q0 -28 10.5 -40.5t36.5 -12.5t36.5 12.5t10.5 40.5z" />
    <glyph glyph-name="afii10145" unicode="&#x40f;" horiz-adv-x="638" 
d="M413 0v-130h-146v130h-207v690h166v-552h228v552h166v-690h-207z" />
    <glyph glyph-name="afii10017" unicode="&#x410;" horiz-adv-x="620" 
d="M203 118l-36 -118h-177l240 690h160l240 -690h-177l-37 118h-213zM373 256l-63 204l-64 -204h127z" />
    <glyph glyph-name="afii10018" unicode="&#x411;" horiz-adv-x="596" 
d="M60 690h467v-138h-301v-105h87q132 0 200 -59t68 -164t-68 -164.5t-200 -59.5h-253v690zM302 309h-76v-171h76q60 0 86.5 21t26.5 65t-26 64.5t-87 20.5z" />
    <glyph glyph-name="afii10019" unicode="&#x412;" horiz-adv-x="611" 
d="M60 0v690h241q258 0 258 -183q0 -92 -79 -144q101 -50 101 -165q0 -92 -65 -145t-193 -53h-263zM293 289h-67v-151h79q110 0 110 76q0 41 -28.5 58t-93.5 17zM281 553h-55v-126h70q97 0 97 61q0 34 -24.5 49.5t-87.5 15.5z" />
    <glyph glyph-name="afii10020" unicode="&#x413;" horiz-adv-x="496" 
d="M60 690h436v-138h-270v-552h-166v690z" />
    <glyph glyph-name="afii10021" unicode="&#x414;" horiz-adv-x="712" 
d="M156 0v-130h-146v268h48q21 27 34 67q17 53 23 107q7 52 7 180v198h484v-552h86v-268h-146v130h-390zM246 156q-1 -4 -8 -18h202v414h-152v-60q0 -143 -10 -207q-9 -64 -32 -129z" />
    <glyph glyph-name="afii10022" unicode="&#x415;" horiz-adv-x="521" 
d="M60 0v690h436v-138h-270v-126h240v-138h-240v-150h270v-138h-436z" />
    <glyph glyph-name="afii10024" unicode="&#x416;" horiz-adv-x="928" 
d="M343 278l-160 -278h-183l203 348l-172 342h174l135 -274h41v274h166v-274h40l136 274h174l-172 -342l203 -348h-183l-161 278h-37v-278h-166v278h-38z" />
    <glyph glyph-name="afii10025" unicode="&#x417;" horiz-adv-x="609" 
d="M295 289h-83v138h82q97 0 97 68t-93 68q-46 0 -70 -18t-38 -54h-144q8 95 80 151q73 58 182 58q101 0 174 -49q75 -48 75 -138q0 -89 -79 -150q101 -53 101 -164q0 -99 -74.5 -154t-201.5 -55q-120 0 -192.5 54.5t-90.5 161.5h158q17 -41 44.5 -59.5t72.5 -18.5
q61 0 89.5 19t28.5 61q0 81 -118 81z" />
    <glyph glyph-name="afii10026" unicode="&#x418;" horiz-adv-x="686" 
d="M60 0v690h166v-391l268 391h132v-690h-166v386l-266 -386h-134z" />
    <glyph glyph-name="afii10027" unicode="&#x419;" horiz-adv-x="686" 
d="M60 0v690h166v-391l268 391h132v-690h-166v386l-266 -386h-134zM396 879h151q0 -155 -198 -155q-199 0 -199 155h152q0 -28 10.5 -40.5t36.5 -12.5t36.5 12.5t10.5 40.5z" />
    <glyph glyph-name="afii10028" unicode="&#x41a;" horiz-adv-x="633" 
d="M412 359l206 -359h-195l-158 278h-39v-278h-166v690h166v-274h36l143 274h182z" />
    <glyph glyph-name="afii10029" unicode="&#x41b;" horiz-adv-x="659" 
d="M115 478v212h484v-690h-166v552h-152v-74q0 -168 -7 -230q-8 -66 -27 -117q-49 -127 -237 -141v170q68 10 88 57q17 43 17 261z" />
    <glyph glyph-name="afii10030" unicode="&#x41c;" horiz-adv-x="802" 
d="M60 690h154l187 -350l186 350h155v-690h-156v390l-142 -276h-89l-139 273v-387h-156v690z" />
    <glyph glyph-name="afii10031" unicode="&#x41d;" horiz-adv-x="664" 
d="M60 690h166v-264h212v264h166v-690h-166v288h-212v-288h-166v690z" />
    <glyph glyph-name="afii10032" unicode="&#x41e;" horiz-adv-x="634" 
d="M589 399v-108q0 -146 -73 -223.5t-199 -77.5t-199 77.5t-73 223.5v108q0 147 72.5 224t199.5 77t199.5 -77t72.5 -224zM211 399v-108q0 -163 106 -163t106 163v108q0 163 -106 163t-106 -163z" />
    <glyph glyph-name="afii10033" unicode="&#x41f;" horiz-adv-x="680" 
d="M60 0v690h560v-690h-166v552h-228v-552h-166z" />
    <glyph glyph-name="afii10034" unicode="&#x420;" horiz-adv-x="591" 
d="M320 233h-94v-233h-166v690h260q125 0 193 -57t68 -167q0 -112 -69 -172.5t-192 -60.5zM226 552v-181h64q66 0 95.5 22t29.5 73q0 86 -125 86h-64z" />
    <glyph glyph-name="afii10035" unicode="&#x421;" horiz-adv-x="601" 
d="M571 477h-158q-6 38 -31 61.5t-65 23.5q-106 0 -106 -163v-108q0 -163 106 -163q81 0 96 85h158q-18 -114 -80.5 -168.5t-173.5 -54.5q-126 0 -199 77.5t-73 223.5v108q0 147 72.5 224t199.5 77q106 0 171.5 -56.5t82.5 -166.5z" />
    <glyph glyph-name="afii10036" unicode="&#x422;" horiz-adv-x="546" 
d="M10 552v138h526v-138h-180v-552h-166v552h-180z" />
    <glyph glyph-name="afii10037" unicode="&#x423;" horiz-adv-x="577" 
d="M313 388l101 302h170l-201 -539q-34 -93 -96 -128q-61 -33 -177 -33v143q96 0 124 39l-234 518h184z" />
    <glyph glyph-name="afii10038" unicode="&#x424;" horiz-adv-x="806" 
d="M320 642v48h166v-48q132 0 206 -65t74 -216v-32q0 -151 -74 -216t-206 -65v-48h-166v48q-132 0 -206 65t-74 216v32q0 151 74 216t206 65zM486 504v-318q65 0 89 30q25 29 25 113v32q0 84 -25 113q-24 30 -89 30zM206 361v-32q0 -83 24 -113q26 -30 90 -30v318
q-64 0 -90 -30q-24 -30 -24 -113z" />
    <glyph glyph-name="afii10039" unicode="&#x425;" horiz-adv-x="612" 
d="M306 217l-117 -217h-179l188 356l-167 334h179l96 -202l96 202h179l-168 -334l189 -356h-179z" />
    <glyph glyph-name="afii10040" unicode="&#x426;" horiz-adv-x="746" 
d="M60 690h166v-552h228v552h166v-552h106v-268h-146v130h-520v690z" />
    <glyph glyph-name="afii10041" unicode="&#x427;" horiz-adv-x="603" 
d="M15 690h166v-207q0 -63 22.5 -90t78.5 -27q70 0 95 34v290h166v-690h-166v256q-50 -28 -128 -28q-125 0 -179.5 59.5t-54.5 194.5v208z" />
    <glyph glyph-name="afii10042" unicode="&#x428;" horiz-adv-x="970" 
d="M60 690h166v-552h176v552h166v-552h176v552h166v-690h-850v690z" />
    <glyph glyph-name="afii10043" unicode="&#x429;" horiz-adv-x="1036" 
d="M60 690h166v-552h176v552h166v-552h176v552h166v-552h106v-268h-146v130h-810v690z" />
    <glyph glyph-name="afii10044" unicode="&#x42a;" horiz-adv-x="664" 
d="M-30 552v138h319v-243h87q132 0 200 -59.5t68 -164.5t-68 -164t-200 -59h-253v552h-153zM365 309h-76v-171h76q60 0 86.5 21t26.5 64q0 45 -26 65.5t-87 20.5z" />
    <glyph glyph-name="afii10045" unicode="&#x42b;" horiz-adv-x="836" 
d="M60 0v690h166v-243h87q132 0 200 -59.5t68 -164.5q0 -106 -72 -164.5t-216 -58.5h-233zM610 690h166v-690h-166v690zM302 309h-76v-171h76q60 0 86.5 21t26.5 64q0 45 -26 65.5t-87 20.5z" />
    <glyph glyph-name="afii10046" unicode="&#x42c;" horiz-adv-x="601" 
d="M60 0v690h166v-243h87q132 0 200 -59.5t68 -164.5t-68 -164t-200 -59h-253zM302 309h-76v-171h76q60 0 86.5 21t26.5 64q0 45 -26 65.5t-87 20.5z" />
    <glyph glyph-name="afii10047" unicode="&#x42d;" horiz-adv-x="601" 
d="M390 278h-182v138h181q-5 146 -105 146q-40 0 -65 -23.5t-31 -61.5h-158q17 110 82.5 166.5t171.5 56.5q127 0 199.5 -77t72.5 -224v-108q0 -146 -73 -223.5t-199 -77.5q-111 0 -173.5 54.5t-80.5 168.5h158q15 -85 96 -85q102 0 106 150z" />
    <glyph glyph-name="afii10048" unicode="&#x42e;" horiz-adv-x="868" 
d="M823 385v-80q0 -315 -260 -315q-253 0 -260 298h-77v-288h-166v690h166v-264h78q16 274 259 274q260 0 260 -315zM469 375v-59q0 -101 20.5 -144.5t73.5 -43.5t73.5 43.5t20.5 144.5v59q0 100 -20.5 143.5t-73.5 43.5t-73.5 -43.5t-20.5 -143.5z" />
    <glyph glyph-name="afii10049" unicode="&#x42f;" horiz-adv-x="619" 
d="M322 261l-130 -261h-182l151 284q-123 46 -123 192q0 104 70 159t195 55h256v-690h-166v261h-71zM319 399h74v153h-74q-59 0 -87 -17.5t-28 -58.5t24.5 -59t90.5 -18z" />
    <glyph glyph-name="afii10065" unicode="&#x430;" horiz-adv-x="484" 
d="M204 305h89v15q0 40 -15 54t-64 14q-58 0 -81 -34l-105 73q29 46 75.5 64.5t127.5 18.5q104 0 156 -41q52 -40 52 -150v-319h-146v41q-31 -51 -99 -51q-79 0 -126.5 42t-47.5 117q0 74 50 115t134 41zM293 184v15h-68q-59 0 -59 -46q0 -45 61 -45q66 0 66 76z" />
    <glyph glyph-name="afii10066" unicode="&#x431;" horiz-adv-x="505" 
d="M407 723l76 -94q-13 -30 -36.5 -44t-66.5 -16l-91 -4q-42 -2 -61.5 -9t-33.5 -25q-10 -14 -16 -45q42 24 97 24q200 0 200 -224v-70q0 -107 -55.5 -166.5t-164.5 -59.5q-108 0 -164 59.5t-56 166.5v66q0 218 44 308q22 44 67 72t106 30l101 4q39 2 54 27zM325 229v57
q0 50 -16 74t-54 24t-54 -24t-16 -74v-57q0 -60 14.5 -86.5t55.5 -26.5t55.5 26.5t14.5 86.5z" />
    <glyph glyph-name="afii10067" unicode="&#x432;" horiz-adv-x="499" 
d="M45 0v500h207q190 0 190 -126q0 -36 -20 -63t-50 -39q47 -14 73 -46.5t26 -78.5q0 -69 -48 -108t-150 -39h-228zM243 206h-48v-94h54q62 0 62 46q0 25 -15.5 36.5t-52.5 11.5zM227 388h-32v-78h35q52 0 52 38q0 40 -55 40z" />
    <glyph glyph-name="afii10068" unicode="&#x433;" horiz-adv-x="380" 
d="M45 500h345v-126h-195v-374h-150v500z" />
    <glyph glyph-name="afii10069" unicode="&#x434;" horiz-adv-x="582" 
d="M144 0v-117h-134v243h38q21 17 37 56q22 54 22 201v117h396v-374h64v-243h-134v117h-289zM210 132l-3 -6h146v248h-106v-13q0 -155 -37 -229z" />
    <glyph glyph-name="afii10070" unicode="&#x435;" 
d="M332 153l110 -77q-50 -86 -186 -86q-110 0 -168 61.5t-58 164.5v70q0 112 54.5 168t155.5 56q210 0 210 -239v-59h-270q2 -50 19 -73t58 -23q35 3 46.5 9t28.5 28zM241 384q-54 0 -60 -72h119q-2 39 -16.5 55.5t-42.5 16.5z" />
    <glyph glyph-name="afii10072" unicode="&#x436;" horiz-adv-x="706" 
d="M469 315l65 185h156l-92 -243l113 -257h-164l-76 191h-43v-191h-150v191h-43l-76 -191h-164l113 257l-92 243h155l65 -185h42v185h150v-185h41z" />
    <glyph glyph-name="afii10073" unicode="&#x437;" horiz-adv-x="457" 
d="M181 206h-50v104h53q64 0 64 45q0 41 -53 41q-49 0 -83 -36l-99 69q70 81 205 81q91 0 140.5 -35t49.5 -93q0 -78 -72 -113q91 -40 91 -127q0 -73 -54.5 -112.5t-158.5 -39.5q-144 0 -204 89l91 74q21 -26 43 -37.5t57 -11.5q33 0 49.5 14t16.5 37q0 51 -86 51z" />
    <glyph glyph-name="afii10074" unicode="&#x438;" horiz-adv-x="530" 
d="M45 500h150v-231l163 231h127v-500h-150v242l-165 -242h-125v500z" />
    <glyph glyph-name="afii10075" unicode="&#x439;" horiz-adv-x="530" 
d="M45 500h150v-231l163 231h127v-500h-150v242l-165 -242h-125v500zM303 686h121q0 -69 -44 -102t-120 -33t-120 33t-44 102h121q0 -52 43 -52t43 52z" />
    <glyph glyph-name="afii10076" unicode="&#x43a;" horiz-adv-x="503" 
d="M237 315l94 185h162l-124 -242l137 -258h-171l-96 191h-44v-191h-150v500h150v-185h42z" />
    <glyph glyph-name="afii10077" unicode="&#x43b;" horiz-adv-x="524" 
d="M83 353v147h396v-500h-150v374h-106v-96q0 -82 -7 -118q-8 -39 -27 -76q-48 -89 -187 -95v128q50 15 66 55q15 40 15 181z" />
    <glyph glyph-name="afii10078" unicode="&#x43c;" horiz-adv-x="636" 
d="M45 500h128l145 -252l145 252h128v-500h-150v214l-79 -149h-95l-72 146v-211h-150v500z" />
    <glyph glyph-name="afii10079" unicode="&#x43d;" horiz-adv-x="510" 
d="M45 500h150v-181h120v181h150v-500h-150v193h-120v-193h-150v500z" />
    <glyph glyph-name="afii10080" unicode="&#x43e;" horiz-adv-x="500" 
d="M470 280v-58q0 -111 -55 -171.5t-165 -60.5q-109 0 -164.5 60.5t-55.5 171.5v58q0 113 56.5 171.5t163.5 58.5q108 0 164 -58t56 -172zM320 229v44q0 59 -16 85t-54 26t-54 -26t-16 -85v-44q0 -60 14.5 -86.5t55.5 -26.5t55.5 26.5t14.5 86.5z" />
    <glyph glyph-name="afii10081" unicode="&#x43f;" horiz-adv-x="510" 
d="M45 0v500h420v-500h-150v374h-120v-374h-150z" />
    <glyph glyph-name="afii10082" unicode="&#x440;" horiz-adv-x="515" 
d="M485 286v-70q0 -103 -50.5 -164.5t-141.5 -61.5q-63 0 -98 20v-200h-150v690h150v-25q38 35 99 35q87 0 139 -60t52 -164zM265 116q41 0 55.5 26.5t14.5 86.5v44q0 59 -16 85t-54 26t-54 -26t-16 -85v-59q0 -51 15 -74.5t55 -23.5z" />
    <glyph glyph-name="afii10083" unicode="&#x441;" horiz-adv-x="447" 
d="M331 153l111 -77q-53 -86 -186 -86q-106 0 -166 61t-60 165v70q0 110 59.5 167t176.5 57q125 0 176 -86l-112 -78q-27 38 -68 38q-46 0 -64 -25t-18 -86v-44q0 -61 16.5 -87t65.5 -26q47 0 69 37z" />
    <glyph glyph-name="afii10084" unicode="&#x442;" horiz-adv-x="427" 
d="M0 374v126h427v-126h-139v-374h-150v374h-138z" />
    <glyph glyph-name="afii10085" unicode="&#x443;" 
d="M187 -7l-182 507h157l93 -282l85 282h150l-175 -526q-34 -102 -82 -133q-47 -31 -157 -31v132q53 0 76 10.5t35 40.5z" />
    <glyph glyph-name="afii10086" unicode="&#x444;" horiz-adv-x="722" 
d="M286 690h150v-180q256 0 256 -224v-70q0 -226 -256 -226v-180h-150v180q-256 0 -256 226v70q0 224 256 224v180zM542 224v51q0 62 -24.5 85.5t-81.5 23.5v-268q59 0 82.5 24t23.5 84zM180 275v-51q0 -60 23.5 -84t82.5 -24v268q-57 0 -81.5 -23.5t-24.5 -85.5z" />
    <glyph glyph-name="afii10087" unicode="&#x445;" horiz-adv-x="496" 
d="M335 256l156 -256h-164l-79 136l-79 -136h-164l156 256l-146 244h164l69 -127l69 127h164z" />
    <glyph glyph-name="afii10088" unicode="&#x446;" horiz-adv-x="544" 
d="M529 126v-243h-134v117h-350v500h150v-374h120v374h150v-374h64z" />
    <glyph glyph-name="afii10089" unicode="&#x447;" horiz-adv-x="464" 
d="M15 500h150v-156q0 -40 14 -52t38 -12q38 0 52 26v194h150v-500h-150v171q-32 -20 -89 -20q-165 0 -165 166v183z" />
    <glyph glyph-name="afii10090" unicode="&#x448;" horiz-adv-x="764" 
d="M719 500v-500h-674v500h150v-374h112v374h150v-374h112v374h150z" />
    <glyph glyph-name="afii10091" unicode="&#x449;" horiz-adv-x="798" 
d="M783 126v-243h-134v117h-604v500h150v-374h112v374h150v-374h112v374h150v-374h64z" />
    <glyph glyph-name="afii10092" unicode="&#x44a;" horiz-adv-x="551" 
d="M-10 374v126h265v-162h65q211 0 211 -169t-211 -169h-215v374h-115zM307 212h-52v-86h64q52 0 52 43t-64 43z" />
    <glyph glyph-name="afii10093" unicode="&#x44b;" horiz-adv-x="671" 
d="M45 0v500h150v-162h44q212 0 212 -169t-211 -169h-195zM476 0v500h150v-500h-150zM227 212h-32v-86h44q52 0 52 43t-64 43z" />
    <glyph glyph-name="afii10094" unicode="&#x44c;" horiz-adv-x="491" 
d="M45 0v500h150v-162h64q212 0 212 -169t-212 -169h-214zM247 212h-52v-86h64q52 0 52 43t-64 43z" />
    <glyph glyph-name="afii10095" unicode="&#x44d;" horiz-adv-x="447" 
d="M267 197h-137v112h137q-2 38 -19.5 56.5t-58.5 18.5q-42 0 -69 -38l-111 78q68 86 173 86q235 0 235 -224v-70q0 -109 -59.5 -167.5t-175.5 -58.5q-121 0 -177 86l108 77q28 -37 76 -37q43 0 60 20t18 61z" />
    <glyph glyph-name="afii10096" unicode="&#x44e;" horiz-adv-x="703" 
d="M673 286v-70q0 -105 -57 -165.5t-153 -60.5q-91 0 -147.5 52t-62.5 151h-58v-193h-150v500h150v-181h59q9 93 64 142t145 49q100 0 155 -57.5t55 -166.5zM523 226v50q0 58 -15 83t-45 25q-60 0 -60 -108v-50q0 -60 13.5 -85t46.5 -25t46.5 25.5t13.5 84.5z" />
    <glyph glyph-name="afii10097" unicode="&#x44f;" horiz-adv-x="500" 
d="M455 500v-500h-150v172h-42l-96 -172h-157l114 199q-85 45 -85 142q0 159 212 159h204zM260 293h45v81h-50q-56 0 -56 -41q0 -40 61 -40z" />
    <glyph glyph-name="afii10071" unicode="&#x451;" 
d="M332 153l110 -77q-50 -86 -186 -86q-110 0 -168 61.5t-58 164.5v70q0 112 54.5 168t155.5 56q210 0 210 -239v-59h-270q2 -50 19 -73t58 -23q35 3 46.5 9t28.5 28zM241 384q-54 0 -60 -72h119q-2 39 -16.5 55.5t-42.5 16.5zM207 560h-140v130h140v-130zM407 560h-140v130
h140v-130z" />
    <glyph glyph-name="afii10099" unicode="&#x452;" horiz-adv-x="526" 
d="M65 528h-94v112h94v50h150v-50h125v-112h-125v-92q36 40 102 40q184 0 184 -196v-288q0 -96 -49.5 -139t-146.5 -43h-13v128h10q49 0 49 54v259q0 52 -14.5 74.5t-49.5 22.5q-38 0 -55 -23.5t-17 -72.5v-252h-150v528z" />
    <glyph glyph-name="afii10100" unicode="&#x453;" horiz-adv-x="380" 
d="M45 500h345v-126h-195v-374h-150v500zM286 567h-145l70 158h166z" />
    <glyph glyph-name="afii10101" unicode="&#x454;" horiz-adv-x="459" 
d="M180 309h137v-112h-137q1 -41 18 -61t60 -20q48 0 76 37l108 -77q-56 -86 -177 -86q-116 0 -175.5 58.5t-59.5 167.5v70q0 224 235 224q105 0 173 -86l-111 -78q-27 38 -69 38q-41 0 -58.5 -18.5t-19.5 -56.5z" />
    <glyph glyph-name="afii10102" unicode="&#x455;" horiz-adv-x="463" 
d="M426 427l-111 -80q-30 35 -85 35q-47 0 -47 -26q0 -13 13.5 -20t48.5 -14q100 -19 144 -60t44 -113q0 -75 -52 -117t-148 -42q-79 0 -129.5 19.5t-83.5 63.5l116 84q16 -21 36 -30t58 -9q53 0 53 27q0 14 -13 20.5t-51 15.5q-94 21 -140 61t-46 108q0 75 52.5 117.5
t147.5 42.5q142 0 193 -83z" />
    <glyph glyph-name="afii10103" unicode="&#x456;" horiz-adv-x="270" 
d="M210 0h-150v500h150v-500zM215 550h-160v140h160v-140z" />
    <glyph glyph-name="afii10104" unicode="&#x457;" horiz-adv-x="270" 
d="M210 0h-150v500h150v-500zM100 560h-140v130h140v-130zM300 560h-140v130h140v-130z" />
    <glyph glyph-name="afii10105" unicode="&#x458;" horiz-adv-x="258" 
d="M58 500h150v-523q0 -99 -49 -133t-159 -34v128q31 0 44.5 12.5t13.5 44.5v505zM213 550h-160v140h160v-140z" />
    <glyph glyph-name="afii10106" unicode="&#x459;" horiz-adv-x="775" 
d="M83 353v147h396v-162h64q212 0 212 -169t-212 -169h-214v374h-106v-96q0 -82 -7 -118q-8 -39 -27 -76q-48 -89 -187 -95v128q50 15 66 55q15 40 15 181zM531 212h-52v-86h64q52 0 52 43t-64 43z" />
    <glyph glyph-name="afii10107" unicode="&#x45a;" horiz-adv-x="761" 
d="M45 500h150v-181h120v181h150v-162h64q212 0 212 -169t-212 -169h-214v193h-120v-193h-150v500zM517 212h-52v-86h64q52 0 52 43t-64 43z" />
    <glyph glyph-name="afii10108" unicode="&#x45b;" horiz-adv-x="526" 
d="M65 528h-94v112h94v50h150v-50h125v-112h-125v-92q36 40 102 40q184 0 184 -196v-280h-150v251q0 52 -14.5 74.5t-49.5 22.5q-38 0 -55 -23.5t-17 -72.5v-252h-150v528z" />
    <glyph glyph-name="afii10109" unicode="&#x45c;" horiz-adv-x="503" 
d="M237 315l94 185h162l-124 -242l137 -258h-171l-96 191h-44v-191h-150v500h150v-185h42zM325 567h-145l70 158h166z" />
    <glyph glyph-name="afii10110" unicode="&#x45e;" 
d="M187 -7l-182 507h157l93 -282l85 282h150l-175 -526q-34 -102 -82 -133q-47 -31 -157 -31v132q53 0 76 10.5t35 40.5zM296 686h121q0 -69 -44 -102t-120 -33t-120 33t-44 102h121q0 -52 43 -52t43 52z" />
    <glyph glyph-name="afii10193" unicode="&#x45f;" horiz-adv-x="526" 
d="M305 0v-117h-100v117h-160v500h150v-374h120v374h150v-500h-160z" />
    <glyph glyph-name="afii10146" unicode="&#x462;" horiz-adv-x="601" 
d="M60 624v66h166v-66h133v-138h-133v-39h87q132 0 200 -59.5t68 -164.5t-68 -164t-200 -59h-253v486h-70v138h70zM302 309h-76v-171h76q60 0 86.5 21t26.5 64q0 45 -26 65.5t-87 20.5z" />
    <glyph glyph-name="afii10194" unicode="&#x463;" horiz-adv-x="491" 
d="M45 388h-74v112h74v190h150v-190h145v-112h-145v-50h64q212 0 212 -169t-212 -169h-214v388zM247 212h-52v-86h64q52 0 52 43t-64 43z" />
    <glyph glyph-name="afii10147" unicode="&#x472;" horiz-adv-x="634" 
d="M589 399v-108q0 -146 -73 -223.5t-199 -77.5t-199 77.5t-73 223.5v108q0 147 72.5 224t199.5 77t199.5 -77t72.5 -224zM317 128q105 0 106 160h-212q0 -160 106 -160zM317 562q-97 0 -106 -136h211q-7 136 -105 136z" />
    <glyph glyph-name="afii10195" unicode="&#x473;" horiz-adv-x="500" 
d="M470 280v-58q0 -111 -55 -171.5t-165 -60.5q-109 0 -164.5 60.5t-55.5 171.5v58q0 113 56.5 171.5t163.5 58.5q108 0 164 -58t56 -172zM319 193h-138q3 -40 19 -58.5t50 -18.5t50 18.5t19 58.5zM250 384q-58 0 -67 -65h134q-10 65 -67 65z" />
    <glyph glyph-name="afii10148" unicode="&#x474;" horiz-adv-x="624" 
d="M237 0l-237 690h182l129 -417l88 280q23 78 74 113q50 34 161 34v-133q-33 0 -48.5 -15t-30.5 -57l-169 -495h-149z" />
    <glyph glyph-name="afii10196" unicode="&#x475;" horiz-adv-x="500" 
d="M510 510v-125q-27 0 -40 -12t-26 -48l-120 -325h-140l-189 500h165l92 -289l56 175q26 81 66 102q40 22 136 22z" />
    <glyph glyph-name="afii10050" unicode="&#x490;" horiz-adv-x="496" 
d="M60 690h305v108h131v-246h-270v-552h-166v690z" />
    <glyph glyph-name="afii10098" unicode="&#x491;" horiz-adv-x="380" 
d="M45 500h224v93h121v-219h-195v-374h-150v500z" />
    <glyph glyph-name="uni0492" unicode="&#x492;" horiz-adv-x="494" 
d="M58 690h436v-138h-270v-126h115v-138h-115v-288h-166v288h-68v138h68v264z" />
    <glyph glyph-name="uni0493" unicode="&#x493;" horiz-adv-x="400" 
d="M65 500h345v-126h-195v-55h97v-126h-97v-193h-150v193h-80v126h80v181z" />
    <glyph glyph-name="uni0496" unicode="&#x496;" horiz-adv-x="994" 
d="M343 278l-160 -278h-183l203 348l-172 342h174l135 -274h41v274h166v-274h40l136 274h174l-172 -342l122 -210h127v-268h-146v130h-83l-161 278h-37v-278h-166v278h-38z" />
    <glyph glyph-name="uni0497" unicode="&#x497;" horiz-adv-x="740" 
d="M469 315l65 185h156l-92 -243l57 -131h75v-243h-134v117h-49l-76 191h-43v-191h-150v191h-43l-76 -191h-164l113 257l-92 243h155l65 -185h42v185h150v-185h41z" />
    <glyph glyph-name="uni0498" unicode="&#x498;" horiz-adv-x="609" 
d="M377 -4v-126h-146v126q-179 28 -211 210h158q17 -41 44.5 -59.5t72.5 -18.5q61 0 89.5 19t28.5 61q0 81 -118 81h-83v138h82q97 0 97 68t-93 68q-46 0 -70 -18t-38 -54h-144q8 95 80 151q73 58 182 58q101 0 174 -49q75 -48 75 -138q0 -89 -79 -150q101 -53 101 -164
q0 -83 -53.5 -136t-148.5 -67z" />
    <glyph glyph-name="uni0499" unicode="&#x499;" horiz-adv-x="457" 
d="M288 -4v-113h-134v112q-96 13 -144 84l91 74q21 -26 43 -37.5t57 -11.5q33 0 49.5 14t16.5 37q0 51 -86 51h-50v104h53q64 0 64 45q0 41 -53 41q-49 0 -83 -36l-99 69q70 81 205 81q91 0 140.5 -35t49.5 -93q0 -78 -72 -113q91 -40 91 -127q0 -121 -139 -146z" />
    <glyph glyph-name="uni049A" unicode="&#x49a;" horiz-adv-x="686" 
d="M666 138v-268h-146v130h-97l-158 278h-39v-278h-166v690h166v-274h36l143 274h182l-175 -331l127 -221h127z" />
    <glyph glyph-name="uni049B" unicode="&#x49b;" horiz-adv-x="538" 
d="M237 315l94 185h162l-124 -242l70 -132h84v-243h-134v117h-54l-96 191h-44v-191h-150v500h150v-185h42z" />
    <glyph glyph-name="uni049C" unicode="&#x49c;" horiz-adv-x="753" 
d="M532 359l206 -359h-195l-158 278h-15v-103h-118v103h-26v-278h-166v690h166v-274h26v108h118v-108h12l143 274h182z" />
    <glyph glyph-name="uni049D" unicode="&#x49d;" horiz-adv-x="598" 
d="M332 315l94 185h162l-124 -242l137 -258h-171l-96 191h-9v-90h-106v90h-24v-191h-150v500h150v-185h24v93h106v-93h7z" />
    <glyph glyph-name="uni04A0" unicode="&#x4a0;" horiz-adv-x="696" 
d="M475 359l206 -359h-195l-158 278h-39v-278h-166v552h-153v138h319v-274h36l143 274h182z" />
    <glyph glyph-name="uni04A1" unicode="&#x4a1;" horiz-adv-x="563" 
d="M297 315l94 185h162l-124 -242l137 -258h-171l-96 191h-44v-191h-150v374h-115v126h265v-185h42z" />
    <glyph glyph-name="uni04A2" unicode="&#x4a2;" horiz-adv-x="730" 
d="M60 690h166v-264h212v264h166v-552h106v-268h-146v130h-126v288h-212v-288h-166v690z" />
    <glyph glyph-name="uni04A3" unicode="&#x4a3;" horiz-adv-x="544" 
d="M45 500h150v-181h120v181h150v-374h64v-243h-134v117h-80v193h-120v-193h-150v500z" />
    <glyph glyph-name="uni04AA" unicode="&#x4aa;" horiz-adv-x="601" 
d="M390 -3v-127h-146v128q-95 21 -147 95t-52 198v108q0 147 72.5 224t199.5 77q106 0 171.5 -56.5t82.5 -166.5h-158q-6 38 -31 61.5t-65 23.5q-106 0 -106 -163v-108q0 -163 106 -163q81 0 96 85h158q-28 -186 -181 -216z" />
    <glyph glyph-name="uni04AB" unicode="&#x4ab;" horiz-adv-x="447" 
d="M329 -3v-114h-134v113q-78 16 -121.5 74t-43.5 146v70q0 110 59.5 167t176.5 57q125 0 176 -86l-112 -78q-27 38 -68 38q-46 0 -64 -25t-18 -86v-44q0 -61 16.5 -87t65.5 -26q47 0 69 37l111 -77q-37 -62 -113 -79z" />
    <glyph glyph-name="uni04AE" unicode="&#x4ae;" horiz-adv-x="596" 
d="M215 276l-215 414h191l107 -237l107 237h191l-215 -414v-276h-166v276z" />
    <glyph glyph-name="uni04AF" unicode="&#x4af;" horiz-adv-x="504" 
d="M252 212l92 288h165l-180 -487v-203h-150v203l-184 487h165z" />
    <glyph glyph-name="uni04B0" unicode="&#x4b0;" horiz-adv-x="596" 
d="M194 316l-194 374h191l107 -237l107 237h191l-194 -374h101v-138h-122v-178h-166v178h-121v138h100z" />
    <glyph glyph-name="uni04B1" unicode="&#x4b1;" horiz-adv-x="504" 
d="M252 212l92 288h165l-185 -500h92v-126h-92v-64h-140v64h-95v126h95l-189 500h165z" />
    <glyph glyph-name="uni04B2" unicode="&#x4b2;" horiz-adv-x="675" 
d="M306 217l-117 -217h-179l188 356l-167 334h179l96 -202l96 202h179l-168 -334l115 -218h127v-268h-146v130h-86z" />
    <glyph glyph-name="uni04B3" unicode="&#x4b3;" horiz-adv-x="518" 
d="M508 126v-243h-134v117h-47l-79 136l-79 -136h-164l156 256l-146 244h164l69 -127l69 127h164l-146 -244l79 -130h94z" />
    <glyph glyph-name="uni04B6" unicode="&#x4b6;" horiz-adv-x="669" 
d="M15 690h166v-207q0 -63 22.5 -90t78.5 -27q70 0 95 34v290h166v-552h106v-268h-146v130h-126v256q-50 -28 -128 -28q-125 0 -179.5 59.5t-54.5 194.5v208z" />
    <glyph glyph-name="uni04B7" unicode="&#x4b7;" horiz-adv-x="498" 
d="M15 500h150v-156q0 -40 14 -52t38 -12q38 0 52 26v194h150v-374h64v-243h-134v117h-80v171q-32 -20 -89 -20q-165 0 -165 166v183z" />
    <glyph glyph-name="uni04B8" unicode="&#x4b8;" horiz-adv-x="633" 
d="M229 479h138v-101q31 10 40 22v290h166v-690h-166v256q-17 -8 -40 -14v-112h-138v98q-114 4 -164 64t-50 190v208h166v-207q0 -89 48 -108v104z" />
    <glyph glyph-name="uni04B9" unicode="&#x4b9;" horiz-adv-x="524" 
d="M15 500h150v-156q0 -51 28 -61v101h106v-93q19 4 30 14v195h150v-500h-150v171l-30 -7v-87h-106v74h-13q-165 0 -165 166v183z" />
    <glyph glyph-name="uni04BA" unicode="&#x4ba;" horiz-adv-x="603" 
d="M588 0h-166v255q0 63 -22.5 90t-78.5 27q-70 0 -95 -34v-338h-166v690h166v-208q50 28 128 28q125 0 179.5 -59.5t54.5 -194.5v-256z" />
    <glyph glyph-name="uni04BB" unicode="&#x4bb;" horiz-adv-x="526" 
d="M195 0h-150v690h150v-224q38 44 102 44q184 0 184 -196v-314h-150v285q0 52 -14.5 74.5t-49.5 22.5q-38 0 -55 -23.5t-17 -72.5v-286z" />
    <glyph glyph-name="uni04D8" unicode="&#x4d8;" horiz-adv-x="601" 
d="M45 291v88h360v20q0 163 -106 163q-40 0 -65 -23.5t-31 -61.5h-158q15 106 80 164.5t174 58.5q127 0 199.5 -80t72.5 -235v-94q0 -146 -73 -223.5t-199 -77.5q-122 0 -188 76t-66 225zM299 128q46 0 71 26.5t32 86.5h-200q3 -57 25.5 -85t71.5 -28z" />
    <glyph glyph-name="afii10846" unicode="&#x4d9;" 
d="M153 347l-110 77q50 86 186 86q110 0 168 -61.5t58 -164.5v-70q0 -112 -54.5 -168t-155.5 -56q-210 0 -210 239v59h270q-2 50 -19 73t-58 23q-35 -3 -46.5 -9t-28.5 -28zM244 116q54 0 60 72h-119q2 -39 16.5 -55.5t42.5 -16.5z" />
    <glyph glyph-name="uni04E2" unicode="&#x4e2;" horiz-adv-x="686" 
d="M60 0v690h166v-391l268 391h132v-690h-166v386l-266 -386h-134zM508 737h-329v132h329v-132z" />
    <glyph glyph-name="uni04E3" unicode="&#x4e3;" horiz-adv-x="530" 
d="M45 500h150v-231l163 231h127v-500h-150v242l-165 -242h-125v500zM410 560h-289v130h289v-130z" />
    <glyph glyph-name="uni04E8" unicode="&#x4e8;" horiz-adv-x="634" 
d="M589 399v-108q0 -146 -73 -223.5t-199 -77.5t-199 77.5t-73 223.5v108q0 147 72.5 224t199.5 77t199.5 -77t72.5 -224zM317 128q105 0 106 160h-212q0 -160 106 -160zM317 562q-97 0 -106 -136h211q-7 136 -105 136z" />
    <glyph glyph-name="uni04E9" unicode="&#x4e9;" horiz-adv-x="500" 
d="M470 280v-58q0 -111 -55 -171.5t-165 -60.5q-109 0 -164.5 60.5t-55.5 171.5v58q0 113 56.5 171.5t163.5 58.5q108 0 164 -58t56 -172zM319 193h-138q3 -40 19 -58.5t50 -18.5t50 18.5t19 58.5zM250 384q-58 0 -67 -65h134q-10 65 -67 65z" />
    <glyph glyph-name="uni04EE" unicode="&#x4ee;" horiz-adv-x="577" 
d="M313 388l101 302h170l-201 -539q-34 -93 -96 -128q-61 -33 -177 -33v143q96 0 124 39l-234 518h184zM469 737h-329v132h329v-132z" />
    <glyph glyph-name="uni04EF" unicode="&#x4ef;" 
d="M187 -7l-182 507h157l93 -282l85 282h150l-175 -526q-34 -102 -82 -133q-47 -31 -157 -31v132q53 0 76 10.5t35 40.5zM398 560h-289v130h289v-130z" />
    <glyph glyph-name="uni1E9E" unicode="&#x1e9e;" horiz-adv-x="609" 
d="M549 645l-90 -173q90 -26 90 -120v-212q0 -84 -33 -113q-32 -27 -111 -27h-101v138h40q39 0 39 50v123q0 50 -39 50h-40v104l48 91q-20 6 -48 6q-41 0 -59.5 -21t-18.5 -66v-475h-166v483q0 217 244 217q71 0 141 -19q72 -18 104 -36z" />
    <glyph glyph-name="uni2010" unicode="&#x2010;" horiz-adv-x="319" 
d="M289 223h-259v132h259v-132z" />
    <glyph glyph-name="uni2011" unicode="&#x2011;" horiz-adv-x="319" 
d="M289 223h-259v132h259v-132z" />
    <glyph glyph-name="figuredash" unicode="&#x2012;" horiz-adv-x="560" 
d="M494 276h-428v148h428v-148z" />
    <glyph glyph-name="endash" unicode="&#x2013;" horiz-adv-x="509" 
d="M449 215h-389v148h389v-148z" />
    <glyph glyph-name="emdash" unicode="&#x2014;" horiz-adv-x="719" 
d="M699 215h-679v148h679v-148z" />
    <glyph glyph-name="quoteleft" unicode="&#x2018;" horiz-adv-x="256" 
d="M196 534h-156v156l156 133v-289z" />
    <glyph glyph-name="quoteright" unicode="&#x2019;" horiz-adv-x="262" 
d="M40 690h156v-156l-156 -133v289z" />
    <glyph glyph-name="quotesinglbase" unicode="&#x201a;" horiz-adv-x="276" 
d="M60 156h156v-156l-156 -133v289z" />
    <glyph glyph-name="quotedblleft" unicode="&#x201c;" horiz-adv-x="386" 
d="M156 534h-156v156l156 133v-289zM342 534h-156v156l156 133v-289z" />
    <glyph glyph-name="quotedblright" unicode="&#x201d;" horiz-adv-x="386" 
d="M186 690h156v-156l-156 -133v289zM0 690h156v-156l-156 -133v289z" />
    <glyph glyph-name="quotedblbase" unicode="&#x201e;" horiz-adv-x="448" 
d="M246 156h156v-156l-156 -133v289zM60 156h156v-156l-156 -133v289z" />
    <glyph glyph-name="dagger" unicode="&#x2020;" horiz-adv-x="606" 
d="M40 362v138h180v190h166v-190h180v-138h-180v-552h-166v552h-180z" />
    <glyph glyph-name="daggerdbl" unicode="&#x2021;" horiz-adv-x="606" 
d="M40 362v138h180v190h166v-190h180v-138h-180v-224h180v-138h-180v-190h-166v190h-180v138h180v224h-180z" />
    <glyph glyph-name="bullet" unicode="&#x2022;" horiz-adv-x="295" 
d="M56 248q-38 40 -38 93q0 54 38 92q39 39 93 39q55 0 92 -39q39 -38 39 -92t-39 -93q-38 -38 -92 -38q-53 0 -93 38z" />
    <glyph glyph-name="ellipsis" unicode="&#x2026;" horiz-adv-x="928" 
d="M60 176h176v-176h-176v176zM692 176h176v-176h-176v176zM376 176h176v-176h-176v176z" />
    <glyph glyph-name="perthousand" unicode="&#x2030;" horiz-adv-x="1145" 
d="M123 0l386 690h143l-385 -690h-144zM756 204v-67q0 -147 -155 -147q-153 0 -153 147v67q0 145 153 145q155 0 155 -145zM633 137v64q0 26 -7.5 36.5t-23.5 10.5t-23 -10.5t-7 -36.5v-64q0 -26 7 -36.5t23 -10.5t23.5 10.5t7.5 36.5zM328 555v-67q0 -147 -155 -147
q-153 0 -153 147v67q0 145 153 145q155 0 155 -145zM205 488v64q0 26 -7.5 36.5t-23.5 10.5t-23 -10.5t-7 -36.5v-64q0 -26 7 -36.5t23 -10.5t23.5 10.5t7.5 36.5zM1102 204v-67q0 -147 -155 -147q-153 0 -153 147v67q0 145 153 145q155 0 155 -145zM979 137v64
q0 26 -7.5 36.5t-23.5 10.5t-23 -10.5t-7 -36.5v-64q0 -26 7 -36.5t23 -10.5t23.5 10.5t7.5 36.5z" />
    <glyph glyph-name="guilsinglleft" unicode="&#x2039;" horiz-adv-x="330" 
d="M262 52l-232 231l232 231v-162l-70 -69l70 -69v-162z" />
    <glyph glyph-name="guilsinglright" unicode="&#x203a;" horiz-adv-x="330" 
d="M58 352v162l232 -231l-232 -231v162l70 69z" />
    <glyph glyph-name="fraction" unicode="&#x2044;" horiz-adv-x="566" 
d="M14 0l475 690h151l-474 -690h-152z" />
    <glyph glyph-name="uni2074" unicode="&#x2074;" horiz-adv-x="354" 
d="M3 489l132 201h120l-123 -194h35v39h104v-39h39v-81h-39v-41h-104v41h-164v74z" />
    <glyph glyph-name="Euro" unicode="&#x20ac;" horiz-adv-x="560" 
d="M11 191v128h70v42h-70v128h76q31 211 236 211q202 0 224 -223h-158q-9 85 -66 85q-32 0 -48.5 -17t-22.5 -56h95v-128h-100v-42h100v-128h-93q7 -33 23 -48t46 -15q29 0 45 20t21 65h158q-11 -116 -64 -169.5t-160 -53.5q-199 0 -234 201h-78z" />
    <glyph glyph-name="uni20B4" unicode="&#x20b4;" horiz-adv-x="560" 
d="M54 211h-45v118h542v-118h-329q-4 -8 -4 -23q0 -60 82 -60q32 0 54.5 13.5t50.5 48.5l124 -87q-50 -63 -104 -88q-51 -25 -142 -25q-109 0 -170 53t-61 142q0 4 2 26zM551 361h-542v118h328q5 13 5 23q0 28 -18 44t-51 16q-55 0 -93 -63l-123 88q77 113 218 113
q111 0 172.5 -52t60.5 -135q0 -17 -4 -34h47v-118z" />
    <glyph glyph-name="uni20B8" unicode="&#x20b8;" horiz-adv-x="560" 
d="M17 368v138h526v-138h-180v-368h-166v368h-180zM17 552v138h526v-138h-526z" />
    <glyph glyph-name="uni20BD" unicode="&#x20bd;" horiz-adv-x="560" 
d="M90 233h-80v138h80v319h218q125 0 193 -57t68 -167q0 -112 -69 -172.5t-192 -60.5h-52v-32h114v-138h-114v-63h-166v63h-80v138h80v32zM256 552v-181h22q66 0 95.5 22t29.5 73q0 86 -125 86h-22z" />
    <glyph glyph-name="afii61352" unicode="&#x2116;" horiz-adv-x="945" 
d="M932 538v-49q0 -76 -39.5 -119.5t-115.5 -43.5q-74 0 -114 43.5t-40 119.5v49q0 77 40.5 119.5t113.5 42.5q75 0 115 -42t40 -120zM907 143h-259v142h259v-142zM777 438q29 0 29 55v41q0 30 -6.5 42t-22.5 12q-29 0 -29 -54v-41q0 -31 6 -43t23 -12zM433 303v387h156
v-690h-134l-254 382v-382h-156v690h132z" />
    <glyph glyph-name="trademark" unicode="&#x2122;" horiz-adv-x="924" 
d="M403 690h125l110 -194l110 194h125v-417h-131v155l-60 -98h-94l-54 98v-155h-131v417zM21 574v116h358v-116h-113v-301h-131v301h-114z" />
    <glyph glyph-name="uni2190" unicode="&#x2190;" horiz-adv-x="875" 
d="M209 222l314 -314h-110l-353 353l353 353h110l-314 -314h606v-78h-606z" />
    <glyph glyph-name="uni2191" unicode="&#x2191;" horiz-adv-x="826" 
d="M413 639l353 -353v-110l-314 314v-606h-78v606l-314 -314v110z" />
    <glyph glyph-name="uni2192" unicode="&#x2192;" horiz-adv-x="875" 
d="M815 261l-353 -353h-110l314 314h-606v78h606l-314 314h110z" />
    <glyph glyph-name="uni2193" unicode="&#x2193;" horiz-adv-x="826" 
d="M413 -117l-353 353v110l314 -314v606h78v-606l314 314v-110z" />
    <glyph glyph-name="uni2196" unicode="&#x2196;" horiz-adv-x="698" 
d="M137 367v-445l-77 78v500h500l78 -77h-445l428 -429l-55 -55z" />
    <glyph glyph-name="uni2197" unicode="&#x2197;" horiz-adv-x="698" 
d="M638 500v-500l-77 -78v445l-429 -428l-55 55l428 429h-445l78 77h500z" />
    <glyph glyph-name="uni2198" unicode="&#x2198;" horiz-adv-x="698" 
d="M561 133v445l77 -78v-500h-500l-78 77h445l-428 429l55 55z" />
    <glyph glyph-name="uni2199" unicode="&#x2199;" horiz-adv-x="698" 
d="M60 0v500l77 78v-445l429 428l55 -55l-428 -429h445l-78 -77h-500z" />
    <glyph glyph-name="uni21A3" unicode="&#x21a3;" horiz-adv-x="1434" 
d="M220 419l71 69l138 -138h756l-68 69l70 69l207 -207l-207 -207l-70 69l68 69h-756l-138 -138l-71 69l138 138zM40 419l70 69l207 -207l-207 -207l-70 69l138 138z" />
    <glyph glyph-name="partialdiff" unicode="&#x2202;" horiz-adv-x="505" 
d="M136 546l-66 89q71 65 185 65q111 0 163 -60t52 -186v-232q0 -111 -55 -171.5t-165 -60.5q-109 0 -164.5 60.5t-55.5 171.5v58q0 112 54.5 171t152.5 59q46 0 82 -18q-3 47 -23 65.5t-60 18.5q-49 0 -100 -30zM320 229v44q0 59 -16 85t-54 26t-54 -26t-16 -85v-44
q0 -60 14.5 -86.5t55.5 -26.5t55.5 26.5t14.5 86.5z" />
    <glyph glyph-name="product" unicode="&#x220f;" horiz-adv-x="638" 
d="M45 -190v880h548v-880h-166v742h-216v-742h-166z" />
    <glyph glyph-name="summation" unicode="&#x2211;" horiz-adv-x="519" 
d="M30 690h479v-137h-268l166 -242v-123l-166 -240h268v-138h-479v124l222 316l-222 315v125z" />
    <glyph glyph-name="minus" unicode="&#x2212;" horiz-adv-x="509" 
d="M449 288h-389v132h389v-132z" />
    <glyph glyph-name="uni2215" unicode="&#x2215;" 
d="M517 812l-336 -928h-134l336 928h134z" />
    <glyph glyph-name="radical" unicode="&#x221a;" horiz-adv-x="737" 
d="M0 362v138h234l115 -276l97 466h321v-138h-183l-142 -552h-158l-174 362h-110z" />
    <glyph glyph-name="infinity" unicode="&#x221e;" horiz-adv-x="818" 
d="M408 257q-49 -54 -94.5 -78.5t-103.5 -24.5q-76 0 -125 55q-50 56 -50 133q0 79 51 133q51 55 130 55q109 0 198 -101q49 54 92 77.5t100 23.5q78 0 127 -55q50 -55 50 -133t-49 -133q-48 -55 -119 -55q-63 0 -110.5 24.5t-96.5 78.5zM596 284q24 0 40.5 16t16.5 42
q0 25 -17 40.5t-43 15.5q-37 0 -93 -55q59 -59 96 -59zM224 284q43 0 98 58q-54 56 -98 56q-25 0 -42 -16t-17 -40q0 -26 17 -42t42 -16z" />
    <glyph glyph-name="integral" unicode="&#x222b;" horiz-adv-x="320" 
d="M235 505v-527q0 -101 -42 -134q-40 -34 -139 -34h-44v130h26q26 0 37.5 12t11.5 41v529q0 101 41 134q41 34 140 34h44v-130h-25q-27 0 -38.5 -12t-11.5 -43z" />
    <glyph glyph-name="approxequal" unicode="&#x2248;" horiz-adv-x="500" 
d="M415 494l48 -111q-46 -54 -115 -54q-38 0 -101 26q-61 27 -89 27q-35 0 -70 -26l-51 115q50 53 115 53q38 0 102 -27q66 -26 96 -26q34 0 65 23zM415 314l48 -111q-46 -54 -115 -54q-38 0 -101 26q-61 27 -89 27q-35 0 -70 -26l-51 115q50 53 115 53q38 0 102 -27
q66 -26 96 -26q34 0 65 23z" />
    <glyph glyph-name="notequal" unicode="&#x2260;" horiz-adv-x="500" 
d="M196 340h-141v142h203l64 146l117 -46l-44 -100h49v-142h-111l-18 -42h129v-142h-191l-60 -137l-117 46l40 91h-61v142h123z" />
    <glyph glyph-name="lessequal" unicode="&#x2264;" horiz-adv-x="330" 
d="M290 170l-232 231l232 231v-162l-70 -69l70 -69v-162zM290 -42l-232 231v160l232 -229v-162z" />
    <glyph glyph-name="greaterequal" unicode="&#x2265;" horiz-adv-x="330" 
d="M58 470v162l232 -231l-232 -231v162l70 69zM58 120l232 229v-160l-232 -231v162z" />
    <glyph glyph-name="uni231A" unicode="&#x231a;" horiz-adv-x="666" 
d="M446 -205h-261v235q-58 34 -91.5 93t-33.5 127t33.5 126.5t91.5 92.5v235h261v-234q49 -30 81 -77t41 -103h38v-80h-38q-19 -118 -122 -180v-235zM167 398q-62 -62 -62 -148q0 -87 62 -149t149 -62q86 0 148 62t62 149q0 86 -62 148t-148 62q-87 0 -149 -62zM488 337
l-6 -19l-166 -93l-133 75l-6 20l20 5l119 -70l153 87z" />
    <glyph glyph-name="uni23F2" unicode="&#x23f2;" horiz-adv-x="1072" 
d="M199 5q-139 139 -139 337q0 197 139 336q140 140 337 140q196 0 336 -140t140 -336q0 -197 -140 -337q-139 -139 -336 -139q-198 0 -337 139zM237 640q-123 -123 -123 -298q0 -174 123 -299q124 -123 299 -123t298 123q123 125 123 299q0 175 -123 298t-298 123
t-299 -123zM881 544l-10 -36l-335 -192l-248 142l-10 35l36 10l222 -129l309 179zM802 318v46h126v-46h-126zM559 -50h-46v126h46v-126zM145 318v46h126v-46h-126zM559 607h-46v126h46v-126z" />
    <glyph glyph-name="uni2550" unicode="&#x2550;" horiz-adv-x="2158" 
d="M0 431h2158v-138h-2158v138zM0 253h2158v-138h-2158v138z" />
    <glyph glyph-name="lozenge" unicode="&#x25ca;" horiz-adv-x="571" 
d="M20 296l189 291h155l187 -291l-187 -296h-155zM380 296l-95 161l-95 -161l95 -166z" />
    <glyph glyph-name="uni261D" unicode="&#x261d;" horiz-adv-x="705" 
d="M645 249v-277h-370l-215 292q8 8 29 19q62 30 115 -25l71 -74v450q0 61 50 61t50 -58v-229h36q29 0 41.5 -13t12.5 -41h36q29 0 41.5 -13t12.5 -41h34q30 0 43 -12t13 -39zM645 -243h-370v161h370v-161zM584 -142q-11 11 -26 5.5t-19.5 -18.5t6.5 -27q12 -12 27 -6.5
t18.5 19.5t-6.5 27z" />
    <glyph glyph-name="uni261E" unicode="&#x261e;" horiz-adv-x="1061" 
d="M555 51h-277v370l292 215q9 -9 19 -30q31 -62 -25 -114l-74 -71h450q61 0 61 -50t-58 -50h-229v-36q0 -29 -13 -41.5t-41 -12.5v-36q0 -29 -13 -41.5t-41 -12.5v-34q0 -30 -12 -43t-39 -13zM60 51v370h164v-370h-164zM161 111q12 12 7 27.5t-18.5 19.5t-27.5 -7
q-12 -12 -6.5 -27t19.5 -18.5t26 5.5z" />
    <glyph glyph-name="uni26F3" unicode="&#x26f3;" horiz-adv-x="674" 
d="M60 513q0 115 81 196t196 81t196 -81t81 -196q0 -86 -82 -216l-195 -307l-197 309q-80 128 -80 214zM258 591q-32 -32 -32 -78t32 -78q34 -32 79 -32q46 0 78 32t32 78t-32 78t-78 32q-45 0 -79 -32z" />
    <glyph glyph-name="uni2709" unicode="&#x2709;" horiz-adv-x="1236" 
d="M60 518v60h1116v-60l-558 -334zM60 37v444l338 -201zM810 263l366 -263h-1116l366 263l192 -114zM1176 37l-338 243l338 201v-444z" />
    <glyph glyph-name="uniF040" unicode="&#xf040;" horiz-adv-x="3054" 
d="M1574 426l71 69l145 -145h1264v-138h-1260l-149 -149l-71 69l147 147zM1260 212h-1260v138h1264l145 145l71 -69l-147 -147l147 -147l-71 -69z" />
    <glyph glyph-name="uniF041" unicode="&#xf041;" horiz-adv-x="2855" 
d="M1396 162l165 287l85 -49l-29 -50h1238v-138h-1318l-56 -98zM1317 350l57 99l85 -49l-165 -286l-85 48l28 50h-1237v138h1317z" />
    <glyph glyph-name="uniF042" unicode="&#xf042;" horiz-adv-x="2825" 
d="M2825 212h-1401v138h1401v-138zM0 350h1281v-138h-1281v138z" />
    <glyph glyph-name="uniF043" unicode="&#xf043;" horiz-adv-x="705" 
d="M275 -28l-215 292l8 6q13 12 31.5 19t48.5 1.5t56 -32.5l71 -74v450q0 61 50 61t50 -58v-229h36q29 0 41.5 -13t12.5 -41h36q29 0 41.5 -13t12.5 -41h34q30 0 43 -12t13 -39v-277h-370zM275 -82h370v-161h-370v161zM545 -142q-12 -12 -6.5 -27.5t19.5 -19.5t26 7
q19 19 0 38t-39 2zM83 605v55h158v-55h-158zM409 605v55h158v-55h-158zM352 725h-55v158h55v-158z" />
    <glyph glyph-name="uniF044" unicode="&#xf044;" horiz-adv-x="931" 
d="M177 126l3 10q9 29 38.5 52t81.5 13l201 -45v478q0 61 50 61t50 -58v-229h36q29 0 41.5 -13t12.5 -41h36q29 0 41.5 -13t12.5 -41h34q30 0 43 -12t13 -39v-277h-370zM501 -82h370v-161h-370v161zM553 759v55h158v-158h-55v103h-103zM218 70v-55h-158v158h55v-103h103z
M771 -142q-12 -12 -6.5 -27.5t19.5 -19.5t26 7q19 19 0 38t-39 2z" />
    <glyph glyph-name="uniF045" unicode="&#xf045;" horiz-adv-x="903" 
d="M370 665h503v-55h-498v-202h36q29 0 41.5 -13t12.5 -41h36q29 0 41.5 -13t12.5 -41h34q30 0 43 -12t13 -39v-277h-370l-215 292q8 8 29 19q62 30 115 -25l71 -74v450q0 61 50 61q35 0 45 -30zM645 -243h-370v161h370v-161zM199 525l-112 112l112 112l39 -39l-73 -73
l73 -73zM584 -142q-11 11 -26 5.5t-19.5 -18.5t6.5 -27q12 -12 27 -6.5t18.5 19.5t-6.5 27z" />
    <glyph glyph-name="uniF046" unicode="&#xf046;" horiz-adv-x="952" 
d="M892 249v-277h-370l-215 292q8 8 29 19q62 30 115 -25l71 -74v426h-492v55h497q11 30 45 30q50 0 50 -58v-229h36q54 0 54 -54h36q54 0 54 -54h34q30 0 43 -12t13 -39zM892 -243h-370v161h370v-161zM704 749l112 -112l-112 -112l-39 39l73 73l-73 73zM831 -142
q-11 11 -26 5.5t-19.5 -18.5t6.5 -27q12 -12 27 -6.5t18.5 19.5t-6.5 27z" />
    <glyph glyph-name="uniF047" unicode="&#xf047;" horiz-adv-x="1010" 
d="M872 514l-6 -4v-634h-55v603l-137 -79l17 -31q27 -48 -19 -73l18 -32q27 -46 -20 -73l17 -30q29 -48 -17 -74l-239 -139l-185 321l145 332l5 -2q5 -2 13.5 -6t17 -11t17.5 -17t14 -23t6 -30.5t-6 -38.5l-29 -99l391 226q53 29 78 -13q25 -43 -26 -73zM245 -159l-185 321
l140 81l184 -321zM765 651l-39 39l112 112l112 -112l-39 -39l-73 73zM295 -27q-11 11 -26 5.5t-19.5 -18.5t6.5 -27q12 -12 27 -6.5t18.5 19.5t-6.5 27z" />
    <glyph glyph-name="uniF048" unicode="&#xf048;" horiz-adv-x="1145" 
d="M485 0l-240 137l186 321l360 40q3 -17 1 -35q-4 -69 -78 -87l-100 -24l332 -192v603h55v-635l4 -2q51 -30 27 -74q-25 -43 -76 -14l-198 115l-18 -30q-28 -48 -73 -21l-18 -31q-27 -46 -74 -19l-17 -30q-28 -47 -73 -22zM60 245l185 320l140 -80l-186 -320zM1085 -51
l-112 -112l-112 112l39 39l73 -73l73 73zM191 293q-11 12 -26 7t-19.5 -18.5t6.5 -27.5q12 -12 27.5 -6.5t19 19.5t-7.5 26z" />
    <glyph glyph-name="uniF400" unicode="&#xf400;" horiz-adv-x="0" 
d="M-176 567h-145l70 158h166z" />
    <glyph glyph-name="uniF401" unicode="&#xf401;" horiz-adv-x="0" 
d="M-242 740h-147l80 129h170z" />
    <glyph glyph-name="uniF406" unicode="&#xf406;" horiz-adv-x="527" 
d="M330 879h128q0 -72 -53 -112t-141 -40t-141.5 40.5t-53.5 111.5h128q12 -44 67 -44t66 44z" />
    <glyph glyph-name="uniF407" unicode="&#xf407;" horiz-adv-x="408" 
d="M140 -73l21 98l92 -3l-11 -44q48 -22 48 -71q0 -40 -33.5 -63.5t-88.5 -23.5q-36 0 -51 4l17 71q16 -2 19 -2q26 0 26 17t-39 17z" />
    <glyph glyph-name="uniF408" unicode="&#xf408;" horiz-adv-x="527" 
d="M69 739l138 142h112l138 -142h-142l-52 56l-52 -56h-142z" />
    <glyph glyph-name="uniF409" unicode="&#xf409;" horiz-adv-x="411" 
d="M127 -44h156v-146l-156 -133v279z" />
    <glyph glyph-name="uniF40A" unicode="&#xf40a;" horiz-adv-x="226" 
d="M60 690h156v-156l-156 -133v289z" />
    <glyph glyph-name="uniF40B" unicode="&#xf40b;" horiz-adv-x="416" 
d="M291 749h-166v120h166v-120z" />
    <glyph glyph-name="uniF40C" unicode="&#xf40c;" horiz-adv-x="453" 
d="M226 899q54 0 87 -27t33 -72t-33 -71.5t-87 -26.5t-86.5 26.5t-32.5 71.5t33 72t86 27zM226 824q-27 0 -27 -24t27 -24t27 24t-27 24z" />
    <glyph glyph-name="uniF40D" unicode="&#xf40d;" horiz-adv-x="513" 
d="M320 731q-30 0 -68 15t-51 15q-28 0 -49 -27l-78 66q52 66 123 66q27 0 64 -15q39 -15 54 -15q26 0 47 27l77 -66q-22 -30 -54 -48t-65 -18z" />
    <glyph glyph-name="uniF40E" unicode="&#xf40e;" horiz-adv-x="418" 
d="M235 49l37 -49q-35 -40 -35 -58t19 -18q4 0 18 2l16 -71q-15 -5 -50 -5q-49 0 -81 19.5t-32 56.5q0 68 108 123z" />
    <glyph glyph-name="dollar.fitted" unicode="&#xf5f5;" horiz-adv-x="577" 
d="M542 587l-123 -88q-26 41 -62 54v-145q103 -31 147 -80q43 -47 43 -132q0 -83 -46.5 -135.5t-132.5 -65.5v-111h-136v111q-128 15 -202 108l124 87q34 -45 89 -57v150q-101 34 -146.5 85t-45.5 133q0 79 46 130.5t135 63.5v117h136v-118q119 -23 174 -107zM217 502
q0 -29 26 -49v97q-26 -17 -26 -48zM381 188q0 27 -24 47v-92q24 17 24 45z" />
    <glyph glyph-name="Euro.fitted" unicode="&#xf5f6;" horiz-adv-x="650" 
d="M10 191v128h84v42h-84v128h92q21 103 90 157t174 54q106 0 171.5 -56.5t82.5 -166.5h-158q-6 38 -31 61.5t-65 23.5q-73 0 -95 -73h125v-128h-136v-42h136v-128h-121q25 -63 91 -63q81 0 96 85h158q-18 -114 -80.5 -168.5t-173.5 -54.5q-101 0 -170 51.5t-92 149.5h-94z
" />
    <glyph glyph-name="cent.fitted" unicode="&#xf5f7;" horiz-adv-x="447" 
d="M331 157l111 -77q-41 -67 -120 -80v-116h-134v117q-75 19 -116.5 76.5t-41.5 142.5v62q0 181 158 216v124h134v-122q82 -16 120 -80l-112 -78q-27 38 -68 38q-46 0 -64 -25t-18 -86v-36q0 -61 16.5 -87t65.5 -26q47 0 69 37z" />
    <glyph glyph-name="sterling.fitted" unicode="&#xf5f8;" horiz-adv-x="554" 
d="M514 0h-489v138h73v120h-73v138h73v41q0 263 224 263q76 0 127 -26t90 -86l-135 -76q-35 50 -73 50q-67 0 -67 -125v-41h120v-138h-120v-120h250v-138z" />
    <glyph glyph-name="yen.fitted" unicode="&#xf5f9;" horiz-adv-x="616" 
d="M80 106v128h145v42h-145v128h78l-148 286h191l107 -237l107 237h191l-149 -286h79v-128h-145v-42h145v-128h-145v-106h-166v106h-145z" />
    <glyph glyph-name="florin.fitted" unicode="&#xf5fa;" horiz-adv-x="332" 
d="M15 361v139h64v22q0 98 47 133t147 35h44v-139h-22q-53 0 -53 -51h75v-139h-75v-384q0 -98 -55 -132q-55 -35 -166 -35v139q31 0 44.5 12.5t13.5 44.5v355h-64z" />
    <glyph glyph-name="uni20B4.fitted" unicode="&#xf5fb;" horiz-adv-x="602" 
d="M75 211h-45v118h542v-118h-329q-4 -8 -4 -23q0 -60 82 -60q32 0 54.5 13.5t50.5 48.5l124 -87q-50 -63 -104 -88q-51 -25 -142 -25q-109 0 -170 53t-61 142q0 4 2 26zM572 361h-542v118h328q5 13 5 23q0 28 -18 44t-51 16q-56 0 -93 -63l-123 88q77 113 218 113
q111 0 172.5 -52t60.5 -135q0 -17 -4 -34h47v-118z" />
    <glyph glyph-name="uni20BD.fitted" unicode="&#xf5fc;" horiz-adv-x="560" 
d="M90 233h-80v138h80v319h218q125 0 193 -57t68 -167q0 -112 -69 -172.5t-192 -60.5h-52v-32h114v-138h-114v-63h-166v63h-80v138h80v32zM256 552v-181h22q66 0 95.5 22t29.5 73q0 86 -125 86h-22z" />
    <glyph glyph-name="uni20B8.fitted" unicode="&#xf5fd;" horiz-adv-x="546" 
d="M10 368v138h526v-138h-180v-368h-166v368h-180zM10 552v138h526v-138h-526z" />
    <glyph glyph-name="currency.fitted" unicode="&#xf5fe;" horiz-adv-x="601" 
d="M101 366q0 45 18 84l-84 84l97 97l83 -83q39 19 85 19t85 -19l84 84l97 -97l-84 -84q39 -85 0 -170l84 -84l-97 -97l-85 84q-38 -18 -84 -18t-85 18l-83 -83l-97 97l84 84q-18 38 -18 84zM300 281q36 0 59.5 24.5t23.5 60.5t-23.5 60.5t-59.5 24.5q-34 0 -57.5 -25
t-23.5 -60t23.5 -60t57.5 -25z" />
    <glyph glyph-name="numbersign.fitted" unicode="&#xf5ff;" horiz-adv-x="601" 
d="M57 376v128h92l35 186h147l-35 -186h70l35 186h148l-35 -186h66v-128h-90l-11 -62h64v-128h-88l-35 -186h-147l34 186h-70l-34 -186h-148l35 186h-70v128h94l11 62h-68zM342 376h-70l-11 -62h70z" />
    <glyph glyph-name="uniF639" unicode="&#xf639;" horiz-adv-x="596" 
d="M546 471v-251q0 -120 -69 -175q-68 -55 -179 -55t-179 55q-69 55 -69 175v250q0 230 248 230t248 -229zM215 451v-212q0 -59 19 -85t64 -26q44 0 63 26.5t19 84.5v212q0 58 -19 84.5t-63 26.5q-45 0 -64 -26t-19 -85z" />
    <glyph glyph-name="uniF63A" unicode="&#xf63a;" horiz-adv-x="524" 
d="M261 138h211v-138h-435v98l225 265q57 68 57 130q0 33 -20.5 52t-52.5 19q-31 0 -50.5 -18.5t-22.5 -52.5h-143q0 89 65 148q67 59 161 59q98 0 162 -60q66 -60 66 -146q0 -45 -19 -89q-21 -49 -38 -71q-18 -26 -48 -60z" />
    <glyph glyph-name="uniF63B" unicode="&#xf63b;" horiz-adv-x="524" 
d="M239 287h-54v138h54q35 0 57.5 18.5t22.5 52.5q0 32 -20 50t-53 18q-60 0 -73 -61h-143q4 85 68 141q65 56 158 56q97 0 162 -58q66 -58 66 -136q0 -96 -90 -148q100 -54 100 -163q0 -89 -60 -148q-60 -57 -170 -57t-175 55t-69 146h143q11 -63 88 -63q37 0 57.5 21.5
t20.5 57.5q0 80 -90 80z" />
    <glyph glyph-name="uniF63C" unicode="&#xf63c;" horiz-adv-x="566" 
d="M10 205l233 485h185l-208 -460h99v163h166v-163h63v-138h-63v-92h-166v92h-309v113z" />
    <glyph glyph-name="uniF63D" unicode="&#xf63d;" horiz-adv-x="546" 
d="M278 342q-42 0 -61 -51h-149v399h413v-146h-250v-88q41 32 98 32q80 0 128.5 -63.5t48.5 -180.5q0 -129 -55.5 -191.5t-167.5 -62.5q-96 0 -163 49q-66 49 -75 146h164q13 -57 69 -57q62 0 62 106q0 108 -62 108z" />
    <glyph glyph-name="uniF63E" unicode="&#xf63e;" horiz-adv-x="556" 
d="M239 690h176l-150 -274q32 12 68 12q79 0 136 -60q57 -58 57 -148q0 -118 -69 -174q-70 -56 -178 -56q-110 0 -180 55q-69 55 -69 175q0 88 71 216zM279 128q81 0 81 83t-81 83q-41 0 -62 -22t-21 -61t21 -61t62 -22z" />
    <glyph glyph-name="uniF63F" unicode="&#xf63f;" horiz-adv-x="463" 
d="M153 552v-101h-138v239h438v-108l-189 -582h-171l190 552h-130z" />
    <glyph glyph-name="uniF640" unicode="&#xf640;" horiz-adv-x="556" 
d="M30 191q0 55 28.5 100t72.5 67q-41 22 -66 63.5t-25 89.5q0 89 69 139q71 50 169 50t168 -50q70 -49 70 -139q0 -48 -25 -89.5t-67 -63.5q45 -21 73.5 -66.5t28.5 -100.5q0 -97 -70 -149t-178 -52t-178 52t-70 149zM195 211q0 -36 23.5 -60t59.5 -24q35 0 59 24.5
t24 59.5t-25 59t-58 24q-34 0 -58.5 -23.5t-24.5 -59.5zM204 490q0 -31 21.5 -52.5t52.5 -21.5q30 0 51.5 21.5t21.5 52.5q0 30 -21.5 51t-51.5 21q-31 0 -52.5 -21t-21.5 -51z" />
    <glyph glyph-name="uniF641" unicode="&#xf641;" horiz-adv-x="556" 
d="M317 0h-176l150 274q-32 -12 -68 -12q-79 0 -136 59q-57 60 -57 149q0 118 69 174q70 56 178 56q109 0 179 -56q70 -55 70 -174q0 -88 -71 -216zM277 562q-81 0 -81 -83t81 -83q41 0 62 22t21 61t-21 61t-62 22z" />
    <glyph glyph-name="uniF6BA" unicode="&#xf6ba;" horiz-adv-x="319" 
d="M289 279h-259v132h259v-132z" />
    <glyph glyph-name="uniF6BB" unicode="&#xf6bb;" horiz-adv-x="509" 
d="M449 271h-389v148h389v-148z" />
    <glyph glyph-name="uniF6BC" unicode="&#xf6bc;" horiz-adv-x="719" 
d="M699 271h-679v148h679v-148z" />
    <glyph glyph-name="uniF6C3" unicode="&#xf6c3;" horiz-adv-x="341" 
d="M92 -44h156v-146l-156 -133v279z" />
    <glyph glyph-name="uniF6C9" unicode="&#xf6c9;" horiz-adv-x="350" 
d="M197 740h-147l80 129h170z" />
    <glyph glyph-name="uniF6CA" unicode="&#xf6ca;" horiz-adv-x="527" 
d="M457 881l-138 -142h-112l-138 142h142l52 -56l52 56h142z" />
    <glyph glyph-name="uniF6CB" unicode="&#xf6cb;" horiz-adv-x="503" 
d="M221 739h-140v130h140v-130zM421 739h-140v130h140v-130z" />
    <glyph glyph-name="uniF6CE" unicode="&#xf6ce;" horiz-adv-x="420" 
d="M85 869h170l80 -129h-147z" />
    <glyph glyph-name="uniF6CF" unicode="&#xf6cf;" horiz-adv-x="610" 
d="M212 740h-147l80 129h170zM432 740h-147l90 129h170z" />
    <glyph glyph-name="uniF6D0" unicode="&#xf6d0;" horiz-adv-x="498" 
d="M413 737h-329v132h329v-132z" />
    <glyph glyph-name="uniF6D1" unicode="&#xf6d1;" horiz-adv-x="437" 
d="M266 879h151q0 -155 -198 -155q-199 0 -199 155h152q0 -28 10.5 -40.5t36.5 -12.5t36.5 12.5t10.5 40.5z" />
    <glyph glyph-name="uniF6D4" unicode="&#xf6d4;" horiz-adv-x="423" 
d="M254 686h121q0 -69 -44 -102t-120 -33t-120 33t-44 102h121q0 -52 43 -52t43 52z" />
    <glyph glyph-name="uniF6DC" unicode="&#xf6dc;" horiz-adv-x="350" 
d="M144 690h146v-690h-166v521l-99 -61v154z" />
    <glyph glyph-name="uniFEFF" unicode="&#xfeff;" horiz-adv-x="0" 
 />
    <glyph glyph-name="uniF4D3" unicode="&#x1f4d3;" horiz-adv-x="752" 
d="M60 60v815q0 25 18 43t43 18h510q25 0 43 -18t18 -43v-815q0 -25 -18 -42.5t-43 -17.5h-510q-25 0 -43 17.5t-18 42.5zM376 25q17 0 29 12t12 29t-12 29t-29 12q-18 0 -30 -12t-12 -29t12 -29t30 -12zM648 132v691h-544v-691h544zM357 879q0 -17 18 -17t18 17t-18 17
t-18 -17z" />
    <glyph glyph-name="uniF4F1" unicode="&#x1f4f1;" horiz-adv-x="552" 
d="M60 60v715q0 25 18 43t43 18h310q25 0 43 -18t18 -43v-715q0 -25 -18 -42.5t-43 -17.5h-310q-25 0 -43 17.5t-18 42.5zM276 25q17 0 29 12t12 29t-12 29t-29 12q-18 0 -30 -12t-12 -29t12 -29t30 -12zM448 132v591h-344v-591h344zM323 790h-94q-11 0 -11 -12t11 -12h94
q11 0 11 12t-11 12z" />
    <glyph glyph-name="NULL" horiz-adv-x="0" 
 />
    <glyph glyph-name="CR" horiz-adv-x="333" 
 />
    <glyph glyph-name="uni2199.ss02" horiz-adv-x="667" 
d="M60 0v500h78v-367l414 414l55 -55l-414 -414h367v-78h-500z" />
    <glyph glyph-name="uni2196.ss02" horiz-adv-x="667" 
d="M138 367v-367h-78v500h500v-78h-367l414 -414l-55 -55z" />
    <glyph glyph-name="uni2190.ss02" horiz-adv-x="855" 
d="M209 222l259 -259l-55 -55l-353 353l353 353l55 -55l-259 -259h586v-78h-586z" />
    <glyph glyph-name="uni2192.ss02" horiz-adv-x="855" 
d="M795 261l-353 -353l-55 55l259 259h-586v78h586l-259 259l55 55z" />
    <glyph glyph-name="e.ss01" 
d="M332 153l110 -77q-50 -86 -186 -86q-110 0 -168 61.5t-58 164.5v70q0 112 54.5 168t155.5 56q105 0 157.5 -45.5t52.5 -125.5q0 -150 -209 -150h-59q4 -37 21 -55t54 -18q35 3 46.5 9t28.5 28zM180 295h61q59 0 59 44q0 45 -59 45t-61 -89z" />
    <glyph glyph-name="afii10069.ss01" horiz-adv-x="515" 
d="M136 546l-66 89q71 65 185 65q111 0 163 -60t52 -186v-232q0 -111 -55 -171.5t-165 -60.5q-109 0 -164.5 60.5t-55.5 171.5v58q0 112 54.5 171t152.5 59q46 0 82 -18q-3 47 -23 65.5t-60 18.5q-49 0 -100 -30zM320 229v44q0 59 -16 85t-54 26t-54 -26t-16 -85v-44
q0 -60 14.5 -86.5t55.5 -26.5t55.5 26.5t14.5 86.5z" />
    <glyph glyph-name="afii10074.ss01" horiz-adv-x="526" 
d="M331 500h150v-500h-147v39q-16 -27 -39 -38t-66 -11q-86 0 -135 48.5t-49 149.5v312h150v-284q0 -52 15 -75t51 -23q38 0 54 22.5t16 74.5v285z" />
    <glyph glyph-name="afii10075.ss01" horiz-adv-x="526" 
d="M331 500h150v-500h-147v39q-16 -27 -39 -38t-66 -11q-86 0 -135 48.5t-49 149.5v312h150v-284q0 -52 15 -75t51 -23q38 0 54 22.5t16 74.5v285zM306 686h121q0 -69 -44 -102t-120 -33t-120 33t-44 102h121q0 -52 43 -52t43 52z" />
    <glyph glyph-name="afii10081.ss01" horiz-adv-x="526" 
d="M195 0h-150v500h146v-38q37 48 106 48q184 0 184 -196v-314h-150v285q0 52 -14.5 74.5t-49.5 22.5q-38 0 -55 -23.5t-17 -72.5v-286z" />
    <glyph glyph-name="uni2193.ss02" horiz-adv-x="826" 
d="M413 -107l-353 353l55 55l259 -259v586h78v-586l259 259l55 -55z" />
    <glyph glyph-name="uni2191.ss02" horiz-adv-x="826" 
d="M413 629l353 -353l-55 -55l-259 259v-586h-78v586l-259 -259l-55 55z" />
    <glyph glyph-name="uni2198.ss02" horiz-adv-x="667" 
d="M529 133v367h78v-500h-500v78h367l-414 414l55 55z" />
    <glyph glyph-name="uni2197.ss02" horiz-adv-x="667" 
d="M607 500v-500h-78v367l-414 -414l-55 55l414 414h-367v78h500z" />
    <glyph glyph-name="uni261E.ss02" horiz-adv-x="1061" 
d="M555 51h-277v370l292 215q9 -9 19 -30q31 -62 -25 -114l-74 -71h450q61 0 61 -50t-58 -50h-229v-36q0 -29 -13 -41.5t-41 -12.5v-36q0 -29 -13 -41.5t-41 -12.5v-34q0 -30 -12 -43t-39 -13zM60 51v370h164v-370h-164zM106 396h-20v-319h20v319zM178 77h20v319h-20v-319z
M152 396h-20v-222h20v222zM152 112h-20v-35h20v35z" />
    <glyph glyph-name="aacute.ss01" horiz-adv-x="515" 
d="M30 216v70q0 107 52.5 165.5t143.5 58.5q54 0 94 -26v16h150v-500h-150v22q-38 -32 -94 -32q-93 0 -144.5 61t-51.5 165zM320 229v55q0 100 -70 100q-38 0 -54 -26t-16 -85v-44q0 -60 14.5 -86.5t55.5 -26.5t55.5 26.5t14.5 86.5zM325 567h-145l70 158h166z" />
    <glyph glyph-name="acircumflex.ss01" horiz-adv-x="515" 
d="M30 216v70q0 107 52.5 165.5t143.5 58.5q54 0 94 -26v16h150v-500h-150v22q-38 -32 -94 -32q-93 0 -144.5 61t-51.5 165zM320 229v55q0 100 -70 100q-38 0 -54 -26t-16 -85v-44q0 -60 14.5 -86.5t55.5 -26.5t55.5 26.5t14.5 86.5zM86 567l111 142h106l111 -142h-122
l-42 57l-42 -57h-122z" />
    <glyph glyph-name="atilde.ss01" horiz-adv-x="515" 
d="M30 216v70q0 107 52.5 165.5t143.5 58.5q54 0 94 -26v16h150v-500h-150v22q-38 -32 -94 -32q-93 0 -144.5 61t-51.5 165zM320 229v55q0 100 -70 100q-38 0 -54 -26t-16 -85v-44q0 -60 14.5 -86.5t55.5 -26.5t55.5 26.5t14.5 86.5zM326 557q-30 0 -68 15t-51 15
q-28 0 -49 -27l-78 66q52 66 123 66q27 0 64 -15q39 -15 54 -15q26 0 47 27l77 -66q-22 -30 -54 -48t-65 -18z" />
    <glyph glyph-name="adieresis.ss01" horiz-adv-x="515" 
d="M30 216v70q0 107 52.5 165.5t143.5 58.5q54 0 94 -26v16h150v-500h-150v22q-38 -32 -94 -32q-93 0 -144.5 61t-51.5 165zM320 229v55q0 100 -70 100q-38 0 -54 -26t-16 -85v-44q0 -60 14.5 -86.5t55.5 -26.5t55.5 26.5t14.5 86.5zM230 560h-140v130h140v-130zM430 560
h-140v130h140v-130z" />
    <glyph glyph-name="aring.ss01" horiz-adv-x="515" 
d="M30 216v70q0 107 52.5 165.5t143.5 58.5q54 0 94 -26v16h150v-500h-150v22q-38 -32 -94 -32q-93 0 -144.5 61t-51.5 165zM320 229v55q0 100 -70 100q-38 0 -54 -26t-16 -85v-44q0 -60 14.5 -86.5t55.5 -26.5t55.5 26.5t14.5 86.5zM263 756q59 0 94.5 -30.5t35.5 -79.5
t-35 -79t-95 -30q-59 0 -94 30t-35 79t35 79.5t94 30.5zM263 683q-27 0 -27 -37t27 -37t27 37t-27 37z" />
    <glyph glyph-name="egrave.ss01" 
d="M332 153l110 -77q-50 -86 -186 -86q-110 0 -168 61.5t-58 164.5v70q0 112 54.5 168t155.5 56q105 0 157.5 -45.5t52.5 -125.5q0 -150 -209 -150h-59q4 -37 21 -55t54 -18q35 3 46.5 9t28.5 28zM180 295h61q59 0 59 44q0 45 -59 45t-61 -89zM104 725h166l70 -158h-145z
" />
    <glyph glyph-name="eacute.ss01" 
d="M332 153l110 -77q-50 -86 -186 -86q-110 0 -168 61.5t-58 164.5v70q0 112 54.5 168t155.5 56q105 0 157.5 -45.5t52.5 -125.5q0 -150 -209 -150h-59q4 -37 21 -55t54 -18q35 3 46.5 9t28.5 28zM180 295h61q59 0 59 44q0 45 -59 45t-61 -89zM312 567h-145l70 158h166z" />
    <glyph glyph-name="ecircumflex.ss01" 
d="M332 153l110 -77q-50 -86 -186 -86q-110 0 -168 61.5t-58 164.5v70q0 112 54.5 168t155.5 56q105 0 157.5 -45.5t52.5 -125.5q0 -150 -209 -150h-59q4 -37 21 -55t54 -18q35 3 46.5 9t28.5 28zM180 295h61q59 0 59 44q0 45 -59 45t-61 -89zM86 567l111 142h106l111 -142
h-122l-42 57l-42 -57h-122z" />
    <glyph glyph-name="edieresis.ss01" 
d="M332 153l110 -77q-50 -86 -186 -86q-110 0 -168 61.5t-58 164.5v70q0 112 54.5 168t155.5 56q105 0 157.5 -45.5t52.5 -125.5q0 -150 -209 -150h-59q4 -37 21 -55t54 -18q35 3 46.5 9t28.5 28zM180 295h61q59 0 59 44q0 45 -59 45t-61 -89zM223 560h-140v130h140v-130z
M423 560h-140v130h140v-130z" />
    <glyph glyph-name="afii10065.ss01" horiz-adv-x="515" 
d="M30 216v70q0 107 52.5 165.5t143.5 58.5q54 0 94 -26v16h150v-500h-150v22q-38 -32 -94 -32q-93 0 -144.5 61t-51.5 165zM320 229v55q0 100 -70 100q-38 0 -54 -26t-16 -85v-44q0 -60 14.5 -86.5t55.5 -26.5t55.5 26.5t14.5 86.5z" />
    <glyph glyph-name="afii10070.ss01" 
d="M332 153l110 -77q-50 -86 -186 -86q-110 0 -168 61.5t-58 164.5v70q0 112 54.5 168t155.5 56q105 0 157.5 -45.5t52.5 -125.5q0 -150 -209 -150h-59q4 -37 21 -55t54 -18q35 3 46.5 9t28.5 28zM180 295h61q59 0 59 44q0 45 -59 45t-61 -89z" />
    <glyph glyph-name="afii10071.ss01" 
d="M332 153l110 -77q-50 -86 -186 -86q-110 0 -168 61.5t-58 164.5v70q0 112 54.5 168t155.5 56q105 0 157.5 -45.5t52.5 -125.5q0 -150 -209 -150h-59q4 -37 21 -55t54 -18q35 3 46.5 9t28.5 28zM180 295h61q59 0 59 44q0 45 -59 45t-61 -89zM223 560h-140v130h140v-130z
M423 560h-140v130h140v-130z" />
    <glyph glyph-name="aogonek.ss01" horiz-adv-x="515" 
d="M320 500h150v-500q-35 -40 -35 -58t19 -18q4 0 18 2l16 -71q-15 -5 -50 -5q-49 0 -81 19.5t-32 56.5q0 43 34 74h-39v22q-38 -32 -94 -32q-93 0 -144.5 61t-51.5 165v70q0 107 52.5 165.5t143.5 58.5q54 0 94 -26v16zM320 229v55q0 100 -70 100q-38 0 -54 -26t-16 -85
v-44q0 -60 14.5 -86.5t55.5 -26.5t55.5 26.5t14.5 86.5z" />
    <glyph glyph-name="abreve.ss01" horiz-adv-x="515" 
d="M30 216v70q0 107 52.5 165.5t143.5 58.5q54 0 94 -26v16h150v-500h-150v22q-38 -32 -94 -32q-93 0 -144.5 61t-51.5 165zM320 229v55q0 100 -70 100q-38 0 -54 -26t-16 -85v-44q0 -60 14.5 -86.5t55.5 -26.5t55.5 26.5t14.5 86.5zM321 686h105q-2 -66 -43 -102t-113 -36
t-113 36t-43 102h106q8 -50 50 -50q43 0 51 50z" />
    <glyph glyph-name="eogonek.ss01" 
d="M332 153l110 -77q-34 -60 -103 -76q-2 -3 -7 -8.5t-7 -8t-5.5 -7t-5 -7t-4 -6.5t-3.5 -7t-1.5 -6.5t-0.5 -7.5q0 -18 19 -18q4 0 18 2l16 -71q-15 -5 -50 -5q-49 0 -81 19.5t-32 56.5q0 34 26 66q-93 9 -142 69t-49 155v70q0 112 54.5 168t155.5 56q105 0 157.5 -45.5
t52.5 -125.5q0 -150 -209 -150h-59q4 -37 21 -55t54 -18q35 3 46.5 9t28.5 28zM180 295h61q59 0 59 44q0 45 -59 45t-61 -89z" />
    <glyph glyph-name="ecaron.ss01" 
d="M332 153l110 -77q-50 -86 -186 -86q-110 0 -168 61.5t-58 164.5v70q0 112 54.5 168t155.5 56q105 0 157.5 -45.5t52.5 -125.5q0 -150 -209 -150h-59q4 -37 21 -55t54 -18q35 3 46.5 9t28.5 28zM180 295h61q59 0 59 44q0 45 -59 45t-61 -89zM410 709l-111 -142h-106
l-111 142h122l42 -57l42 57h122z" />
    <glyph glyph-name="amacron.ss01" horiz-adv-x="515" 
d="M30 216v70q0 107 52.5 165.5t143.5 58.5q54 0 94 -26v16h150v-500h-150v22q-38 -32 -94 -32q-93 0 -144.5 61t-51.5 165zM320 229v55q0 100 -70 100q-38 0 -54 -26t-16 -85v-44q0 -60 14.5 -86.5t55.5 -26.5t55.5 26.5t14.5 86.5zM412 560h-289v130h289v-130z" />
    <glyph glyph-name="emacron.ss01" 
d="M332 153l110 -77q-50 -86 -186 -86q-110 0 -168 61.5t-58 164.5v70q0 112 54.5 168t155.5 56q105 0 157.5 -45.5t52.5 -125.5q0 -150 -209 -150h-59q4 -37 21 -55t54 -18q35 3 46.5 9t28.5 28zM180 295h61q59 0 59 44q0 45 -59 45t-61 -89zM385 560h-289v130h289v-130z
" />
    <glyph glyph-name="edotaccent.ss01" 
d="M332 153l110 -77q-50 -86 -186 -86q-110 0 -168 61.5t-58 164.5v70q0 112 54.5 168t155.5 56q105 0 157.5 -45.5t52.5 -125.5q0 -150 -209 -150h-59q4 -37 21 -55t54 -18q35 3 46.5 9t28.5 28zM180 295h61q59 0 59 44q0 45 -59 45t-61 -89zM320 550h-160v140h160v-140z
" />
    <glyph glyph-name="afii10065.var.accented.ss01" horiz-adv-x="515" 
d="M30 216v70q0 107 52.5 165.5t143.5 58.5q54 0 94 -26v16h150v-500h-150v22q-38 -32 -94 -32q-93 0 -144.5 61t-51.5 165zM320 229v55q0 100 -70 100q-38 0 -54 -26t-16 -85v-44q0 -60 14.5 -86.5t55.5 -26.5t55.5 26.5t14.5 86.5zM325 567h-145l70 158h166z" />
    <glyph glyph-name="afii10070.var.accented.ss01" 
d="M332 153l110 -77q-50 -86 -186 -86q-110 0 -168 61.5t-58 164.5v70q0 112 54.5 168t155.5 56q105 0 157.5 -45.5t52.5 -125.5q0 -150 -209 -150h-59q4 -37 21 -55t54 -18q35 3 46.5 9t28.5 28zM180 295h61q59 0 59 44q0 45 -59 45t-61 -89zM312 567h-145l70 158h166z" />
    <glyph glyph-name="afii10074.var.accented.ss01" horiz-adv-x="526" 
d="M331 500h150v-500h-147v39q-16 -27 -39 -38t-66 -11q-86 0 -135 48.5t-49 149.5v312h150v-284q0 -52 15 -75t51 -23q38 0 54 22.5t16 74.5v285zM330 567h-145l70 158h166z" />
    <glyph glyph-name="afii10071.var.accented.ss01" 
d="M332 153l110 -77q-50 -86 -186 -86q-110 0 -168 61.5t-58 164.5v70q0 112 54.5 168t155.5 56q105 0 157.5 -45.5t52.5 -125.5q0 -150 -209 -150h-59q4 -37 21 -55t54 -18q35 3 46.5 9t28.5 28zM180 295h61q59 0 59 44q0 45 -59 45t-61 -89zM305 717h-145l70 158h166z
M207 560h-140v130h140v-130zM407 560h-140v130h140v-130z" />
    <glyph glyph-name="uni04E3.ss01" horiz-adv-x="526" 
d="M331 500h150v-500h-147v39q-16 -27 -39 -38t-66 -11q-86 0 -135 48.5t-49 149.5v312h150v-284q0 -52 15 -75t51 -23q38 0 54 22.5t16 74.5v285zM408 560h-289v130h289v-130z" />
    <glyph glyph-name="afii10193.ss01" horiz-adv-x="526" 
d="M331 500h150v-500h-147v39q-23 -35 -56 -44v-112h-100v112q-133 27 -133 193v312h150v-284q0 -52 15 -75t51 -23q38 0 54 22.5t16 74.5v285z" />
    <glyph glyph-name="agrave.ss01" horiz-adv-x="515" 
d="M30 216v70q0 107 52.5 165.5t143.5 58.5q54 0 94 -26v16h150v-500h-150v22q-38 -32 -94 -32q-93 0 -144.5 61t-51.5 165zM320 229v55q0 100 -70 100q-38 0 -54 -26t-16 -85v-44q0 -60 14.5 -86.5t55.5 -26.5t55.5 26.5t14.5 86.5zM131 725h166l70 -158h-145z" />
    <glyph glyph-name="afii10091.ss01" horiz-adv-x="806" 
d="M577 500h150v-374h64v-243h-134v117h-76v38q-36 -48 -99 -48q-88 0 -133 61q-52 -61 -135 -61q-81 0 -125 50.5t-44 145.5v314h150v-285q0 -52 13.5 -74.5t46.5 -22.5q30 0 43 22t13 75v285h150v-285q0 -97 58 -97t58 96v286z" />
    <glyph glyph-name="afii10090.ss01" horiz-adv-x="772" 
d="M311 215v285h150v-285q0 -97 58 -97t58 96v286h150v-500h-146v38q-36 -48 -99 -48q-88 0 -133 61q-52 -61 -135 -61q-81 0 -125 50.5t-44 145.5v314h150v-285q0 -52 13.5 -74.5t46.5 -22.5q30 0 43 22t13 75z" />
    <glyph glyph-name="afii10088.ss01" horiz-adv-x="560" 
d="M331 500h150v-374h64v-243h-134v117h-77v39q-16 -27 -39 -38t-66 -11q-86 0 -135 48.5t-49 149.5v312h150v-284q0 -52 15 -75t51 -23q38 0 54 22.5t16 74.5v285z" />
    <glyph glyph-name="afii10084.ss01" horiz-adv-x="792" 
d="M195 0h-150v500h146v-38q37 48 105 48q90 0 137 -63q57 63 141 63t128.5 -50t44.5 -146v-314h-150v285q0 52 -14.5 74.5t-49.5 22.5q-62 0 -62 -87v-295h-150v285q0 97 -62 97q-64 0 -64 -96v-286z" />
    <glyph glyph-name="a.ss01" horiz-adv-x="515" 
d="M30 216v70q0 107 52.5 165.5t143.5 58.5q54 0 94 -26v16h150v-500h-150v22q-38 -32 -94 -32q-93 0 -144.5 61t-51.5 165zM320 229v55q0 100 -70 100q-38 0 -54 -26t-16 -85v-44q0 -60 14.5 -86.5t55.5 -26.5t55.5 26.5t14.5 86.5z" />
    </font>
</defs>
</svg>
