<?xml version="1.0" standalone="no"?>
<!DOCTYPE svg PUBLIC "-//W3C//DTD SVG 1.1//EN" "http://www.w3.org/Graphics/SVG/1.1/DTD/svg11.dtd" >
<svg xmlns="http://www.w3.org/2000/svg" xmlns:xlink="http://www.w3.org/1999/xlink" version="1.1">
<metadata>
Created by FontForge 20190801 at Sun Jan 31 03:02:29 2016
 By Jimmy Wärting
Copyright (c) 2014 ParaType Inc., ParaType Ltd. All rights reserved.
</metadata>
<defs>
<font id="DIN2014-Bold" horiz-adv-x="486" >
  <font-face 
    font-family="DIN 2014"
    font-weight="700"
    font-stretch="normal"
    units-per-em="1000"
    panose-1="2 11 7 4 2 2 2 2 2 4"
    ascent="779"
    descent="-221"
    x-height="500"
    cap-height="690"
    bbox="-378 -297 3054 1010"
    underline-thickness="50"
    underline-position="-250"
    unicode-range="U+0020-1F4F1"
  />
<missing-glyph horiz-adv-x="250" 
 />
    <glyph glyph-name="afii10017.var.accented" unicode="&#x410;`" horiz-adv-x="607" 
d="M188 131l-42 -131h-150l240 690h134l240 -690h-149l-42 131h-231zM381 249l-78 243l-78 -243h156zM368 742h-124l80 129h147z" />
    <glyph glyph-name="afii10022.var.accented" unicode="&#x415;`" horiz-adv-x="527" 
d="M68 0v690h430v-119h-290v-155h260v-118h-260v-180h290v-118h-430zM325 742h-124l80 129h147z" />
    <glyph glyph-name="afii10026.var.accented" unicode="&#x418;`" horiz-adv-x="676" 
d="M68 0v690h140v-433l288 433h112v-690h-140v428l-285 -428h-115zM395 742h-124l80 129h147z" />
    <glyph glyph-name="afii10032.var.accented" unicode="&#x41e;`" horiz-adv-x="623" 
d="M576 394v-98q0 -150 -70 -227.5t-195 -77.5t-194.5 77.5t-69.5 227.5v98q0 151 69.5 228t194.5 77q126 0 195.5 -77t69.5 -228zM187 394v-98q0 -187 124 -187q125 0 125 187v98q0 187 -125 187q-124 0 -124 -187zM361 742h-124l80 129h147z" />
    <glyph glyph-name="afii10037.var.accented" unicode="&#x423;`" horiz-adv-x="579" 
d="M311 346l124 344h144l-212 -550q-34 -87 -88 -118q-53 -31 -161 -31v122q57 0 83.5 10.5t42.5 40.5l-236 526h155zM357 742h-124l80 129h147z" />
    <glyph glyph-name="afii10045.var.accented" unicode="&#x42b;`" horiz-adv-x="816" 
d="M68 0v690h140v-253h97q128 0 193 -58.5t65 -160.5q0 -101 -68 -159.5t-204 -58.5h-223zM608 690h140v-690h-140v690zM297 319h-89v-201h89q126 0 126 100q0 101 -126 101zM448 742h-124l80 129h147z" />
    <glyph glyph-name="afii10047.var.accented" unicode="&#x42d;`" horiz-adv-x="594" 
d="M407 288h-208v118h208q-4 175 -125 175q-98 0 -118 -105h-134q17 110 81.5 166.5t170.5 56.5q126 0 195.5 -77t69.5 -228v-98q0 -150 -70 -227.5t-195 -77.5q-218 0 -252 223h134q11 -54 39.5 -79.5t78.5 -25.5q122 0 125 179zM333 742h-124l80 129h147z" />
    <glyph glyph-name="afii10048.var.accented" unicode="&#x42e;`" horiz-adv-x="842" 
d="M795 384v-78q0 -315 -250 -315q-247 0 -250 307h-87v-298h-140v690h140v-274h87q13 283 250 283q250 0 250 -315zM435 378v-65q0 -108 25.5 -156t84.5 -48q60 0 85 47.5t25 156.5v65q0 107 -25 155t-85 48q-59 0 -84.5 -48t-25.5 -155zM394 742h-124l80 129h147z" />
    <glyph glyph-name="afii10049.var.accented" unicode="&#x42f;`" horiz-adv-x="614" 
d="M310 271l-143 -271h-154l160 289q-132 47 -132 192q0 102 68.5 155.5t192.5 53.5h244v-690h-140v271h-96zM312 389h94v182h-94q-68 0 -99.5 -21t-31.5 -69q0 -49 29 -70.5t102 -21.5zM373 742h-124l80 129h147z" />
    <glyph glyph-name="afii10023.var.accented" unicode="&#x401;`" horiz-adv-x="527" 
d="M68 0v690h430v-119h-290v-155h260v-118h-260v-180h290v-118h-430zM243 752h-124v117h124v-117zM446 752h-124v117h124v-117zM341 881h-124l80 129h147z" />
    <glyph glyph-name="afii10065.var.accented" unicode="&#x430;`" 
d="M26 148q0 74 50 113t135 39h99v29q0 43 -18 58.5t-71 15.5q-39 0 -59 -8t-35 -32l-90 63q27 45 72.5 64t123.5 19q106 0 154 -41t48 -140v-328h-125v44q-32 -53 -108 -53q-81 0 -128.5 41.5t-47.5 115.5zM310 187v19h-84q-75 0 -75 -56t73 -56q45 0 65.5 21.5t20.5 71.5z
M284 567h-122l70 158h143z" />
    <glyph glyph-name="afii10070.var.accented" unicode="&#x435;`" 
d="M343 142l95 -66q-49 -85 -183 -85q-106 0 -164 61.5t-58 164.5v68q0 110 53 167t153 57q206 0 206 -234v-57h-285q2 -119 94 -119q36 0 54.5 9.5t34.5 33.5zM240 401q-72 0 -80 -92h157q-5 92 -77 92zM301 567h-122l70 158h143z" />
    <glyph glyph-name="afii10074.var.accented" unicode="&#x438;`" horiz-adv-x="532" 
d="M51 500h128v-273l191 273h110v-500h-127v283l-193 -283h-109v500zM324 567h-122l70 158h143z" />
    <glyph glyph-name="afii10080.var.accented" unicode="&#x43e;`" horiz-adv-x="499" 
d="M465 281v-60q0 -109 -54.5 -169.5t-161.5 -60.5q-105 0 -160.5 60.5t-55.5 169.5v60q0 111 55.5 169.5t160.5 58.5t160.5 -58t55.5 -170zM249 99q89 0 89 126v52q0 124 -89 124t-89 -124v-52q0 -63 20.5 -94.5t68.5 -31.5zM301 567h-122l70 158h143z" />
    <glyph glyph-name="afii10085.var.accented" unicode="&#x443;`" horiz-adv-x="479" 
d="M192 -7l-187 507h134l111 -320l100 320h129l-175 -523q-35 -102 -79 -134q-45 -33 -150 -33v114q55 0 78.5 13.5t38.5 55.5zM307 567h-122l70 158h143z" />
    <glyph glyph-name="afii10093.var.accented" unicode="&#x44b;`" horiz-adv-x="661" 
d="M51 0v500h128v-172h53q211 0 211 -163q0 -81 -52.5 -123t-148.5 -42h-191zM482 0v500h127v-500h-127zM223 220h-44v-112h56q71 0 71 57q0 55 -83 55zM373 567h-122l70 158h143z" />
    <glyph glyph-name="afii10095.var.accented" unicode="&#x44d;`" horiz-adv-x="451" 
d="M290 204h-156v99h156q-5 98 -96 98q-54 0 -83 -42l-95 67q63 83 173 83q113 0 171 -57.5t58 -166.5v-68q0 -107 -59 -166.5t-170 -59.5q-124 0 -176 85l93 66q30 -43 88 -43q94 0 96 105zM260 567h-122l70 158h143z" />
    <glyph glyph-name="afii10096.var.accented" unicode="&#x44e;`" horiz-adv-x="691" 
d="M657 285v-68q0 -105 -54 -165.5t-150 -60.5q-91 0 -145.5 54.5t-58.5 155.5h-70v-201h-128v500h128v-190h71q6 96 59 147.5t144 51.5q97 0 150.5 -57.5t53.5 -166.5zM453 99q77 0 77 124v56q0 122 -77 122t-77 -122v-56q0 -64 18 -94t59 -30zM333 567h-122l70 158h143z
" />
    <glyph glyph-name="afii10097.var.accented" unicode="&#x44f;`" horiz-adv-x="500" 
d="M448 500v-500h-127v178h-63l-105 -178h-135l120 199q-94 40 -94 146q0 72 51 113.5t153 41.5h200zM262 284h59v108h-67q-73 0 -73 -53q0 -55 81 -55zM325 567h-122l70 158h143z" />
    <glyph glyph-name="afii10071.var.accented" unicode="&#x451;`" 
d="M343 142l95 -66q-49 -85 -183 -85q-106 0 -164 61.5t-58 164.5v68q0 110 53 167t153 57q206 0 206 -234v-57h-285q2 -119 94 -119q36 0 54.5 9.5t34.5 33.5zM240 401q-72 0 -80 -92h157q-5 92 -77 92zM293 717h-122l70 158h143zM197 573h-124v117h124v-117zM400 573h-123
v117h123v-117z" />
    <glyph glyph-name="fi" unicode="fi" horiz-adv-x="494" 
d="M14 392v108h64v27q0 93 38 128q40 35 133 35h37v-112h-24q-33 0 -45 -15.5t-12 -55.5v-7h252v-500h-128v392h-124v-392h-127v392h-64z" />
    <glyph glyph-name="fl" unicode="fl" horiz-adv-x="553" 
d="M330 160v418h-68q-33 0 -45 -15.5t-12 -55.5v-7h81v-108h-81v-392h-127v392h-64v108h64v27q0 93 38 128q40 35 133 35h209v-501q0 -43 15.5 -61t54.5 -18v-110q-107 0 -152.5 35.5t-45.5 124.5z" />
    <glyph glyph-name=".notdef" horiz-adv-x="250" 
 />
    <glyph glyph-name=".null" horiz-adv-x="0" 
 />
    <glyph glyph-name="nonmarkingreturn" horiz-adv-x="333" 
 />
    <glyph glyph-name="space" unicode=" " horiz-adv-x="250" 
 />
    <glyph glyph-name="exclam" unicode="!" horiz-adv-x="250" 
d="M62 690h126v-501h-126v501zM193 0h-136v136h136v-136z" />
    <glyph glyph-name="quotedbl" unicode="&#x22;" horiz-adv-x="362" 
d="M40 690h120v-183h-120v183zM203 690h119v-183h-119v183z" />
    <glyph glyph-name="numbersign" unicode="#" horiz-adv-x="615" 
d="M51 389v112h105l35 189h128l-35 -189h96l35 189h128l-35 -189h79v-112h-100l-16 -85h79v-112h-100l-36 -192h-127l35 192h-96l-35 -192h-129l36 192h-84v112h105l16 85h-84zM359 389h-96l-16 -85h96z" />
    <glyph glyph-name="dollar" unicode="$" horiz-adv-x="540" 
d="M515 583l-105 -75q-34 52 -83 66v-174q104 -29 149 -75q46 -46 46 -131q0 -82 -48 -135t-139 -65v-110h-116v111q-129 17 -201 112l107 75q44 -56 101 -68v180q-97 28 -143 78.5t-46 130.5q0 78 46.5 129t135.5 63v117h116v-118q119 -18 180 -111zM382 187q0 48 -55 75
v-146q55 16 55 71zM177 504q0 -47 49 -72v141q-49 -16 -49 -69z" />
    <glyph glyph-name="percent" unicode="%" horiz-adv-x="759" 
d="M124 0l386 690h123l-385 -690h-124zM739 200v-59q0 -150 -151 -150q-73 0 -111.5 38.5t-38.5 111.5v59q0 72 39 110t111 38q151 0 151 -148zM588 78q48 0 48 63v56q0 63 -48 63q-46 0 -46 -63v-56q0 -63 46 -63zM323 551v-59q0 -150 -152 -150q-73 0 -111 38.5t-38 111.5
v59q0 72 38.5 110t110.5 38q152 0 152 -148zM172 429q48 0 48 63v56q0 63 -48 63q-46 0 -46 -63v-56q0 -63 46 -63z" />
    <glyph glyph-name="ampersand" unicode="&#x26;" horiz-adv-x="666" 
d="M35 183q0 60 29 107t87 93q-66 81 -66 159q0 69 53 113t136 44q87 0 137 -39t50 -98q0 -35 -23 -72q-22 -35 -49 -59q-20 -17 -71 -55l132 -147q14 44 14 93h132q0 -110 -54 -195l115 -127h-161l-38 41q-77 -50 -185 -50q-109 0 -174 57q-64 57 -64 135zM279 109
q56 0 97 23l-153 168q-52 -49 -52 -97q0 -43 29.5 -68.5t78.5 -25.5zM218 542q0 -38 35 -88q43 30 62.5 52.5t19.5 47.5q0 21 -16 34.5t-43 13.5t-42.5 -15.5t-15.5 -44.5z" />
    <glyph glyph-name="quotesingle" unicode="'" horiz-adv-x="200" 
d="M40 690h120v-183h-120v183z" />
    <glyph glyph-name="parenleft" unicode="(" horiz-adv-x="317" 
d="M307 -17l-70 -99q-102 65 -138 124q-36 60 -36 147v386q0 87 36 146q36 61 138 125l70 -99q-47 -35 -70 -57q-47 -47 -47 -141v-334q0 -54 13 -87t34 -54q23 -22 70 -57z" />
    <glyph glyph-name="parenright" unicode=")" horiz-adv-x="317" 
d="M93 -116l-70 99q49 37 69 57q48 46 48 141v334q0 51 -14 87q-14 35 -34 54q-20 20 -69 57l70 99q102 -64 138 -125q36 -59 36 -146v-386q0 -87 -36 -147q-36 -59 -138 -124z" />
    <glyph glyph-name="asterisk" unicode="*" horiz-adv-x="425" 
d="M159 690h95l-5 -102l85 56l47 -82l-88 -46l89 -47l-48 -81l-85 54l5 -101h-95l4 100l-83 -54l-48 82l90 46l-89 47l46 82l84 -54z" />
    <glyph glyph-name="plus" unicode="+" horiz-adv-x="540" 
d="M197 300h-139v108h139v141h110v-141h140v-108h-140v-140h-110v140z" />
    <glyph glyph-name="comma" unicode="," horiz-adv-x="256" 
d="M60 156h136v-202l-136 -116v318z" />
    <glyph glyph-name="hyphen" unicode="-" horiz-adv-x="319" 
d="M289 233h-259v112h259v-112z" />
    <glyph glyph-name="period" unicode="." horiz-adv-x="276" 
d="M60 156h156v-156h-156v156z" />
    <glyph glyph-name="slash" unicode="/" horiz-adv-x="485" 
d="M498 812l-336 -928h-115l336 928h115z" />
    <glyph glyph-name="zero" unicode="0" horiz-adv-x="540" 
d="M502 480v-269q0 -109 -66 -165q-64 -55 -166 -55t-167 55q-65 56 -65 165v268q0 114 65 167t167 53t167 -53t65 -166zM362 223v244q0 114 -92 114q-93 0 -93 -114v-244q0 -114 93 -114q92 0 92 114z" />
    <glyph glyph-name="one" unicode="1" horiz-adv-x="540" 
d="M238 690h126v-690h-140v544l-99 -65v135z" />
    <glyph glyph-name="two" unicode="2" horiz-adv-x="540" 
d="M239 118h238v-118h-426v90l231 272q64 73 64 137q0 39 -24.5 61.5t-61.5 22.5q-36 0 -59.5 -22.5t-26.5 -61.5h-124q0 89 63 144q64 56 154 56q94 0 155 -58q63 -57 63 -142q0 -44 -19 -86q-21 -46 -37 -68q-17 -23 -48 -60z" />
    <glyph glyph-name="three" unicode="3" horiz-adv-x="540" 
d="M245 297h-51v118h51q45 0 70.5 23t25.5 65q0 35 -24 57.5t-62 22.5q-35 0 -58 -20t-28 -54h-124q5 85 65 137q62 53 152 53q93 0 155 -56q63 -55 63 -134q0 -100 -94 -151q104 -51 104 -165q0 -86 -59 -145q-59 -57 -161 -57q-106 0 -168 53t-66 141h123q13 -76 102 -76
q41 0 65.5 25.5t24.5 65.5q0 97 -106 97z" />
    <glyph glyph-name="four" unicode="4" horiz-adv-x="540" 
d="M9 195l236 495h153l-215 -473h132v176h140v-176h63v-119h-63v-98h-140v98h-306v97z" />
    <glyph glyph-name="five" unicode="5" horiz-adv-x="540" 
d="M272 355q-48 0 -73 -51h-126v386h393v-127h-256v-118q38 36 102 36q83 0 131.5 -64t48.5 -182q0 -244 -216 -244q-92 0 -154 49q-63 50 -70 138h138q16 -69 82 -69q80 0 80 119q0 127 -80 127z" />
    <glyph glyph-name="six" unicode="6" horiz-adv-x="540" 
d="M240 690h150l-144 -284q26 13 67 13q80 0 134 -59q55 -58 55 -147q0 -107 -63 -164.5t-168 -57.5q-103 0 -168 56t-65 165q0 70 63 197zM178 207q0 -46 24.5 -72t68.5 -26t67.5 26t23.5 72q0 45 -23.5 71t-67.5 26t-68.5 -26t-24.5 -71z" />
    <glyph glyph-name="seven" unicode="7" horiz-adv-x="540" 
d="M185 571v-107h-119v226h422v-98l-199 -592h-145l200 571h-159z" />
    <glyph glyph-name="eight" unicode="8" horiz-adv-x="540" 
d="M35 192q0 54 29.5 99.5t73.5 66.5q-42 21 -67.5 62.5t-25.5 89.5q0 87 66 138t159 51q94 0 159 -51q66 -50 66 -138q0 -48 -25.5 -89.5t-67.5 -62.5q45 -21 74 -66t29 -100q0 -93 -68 -147q-67 -54 -167 -54t-168 54q-67 54 -67 147zM175 205q0 -40 27 -68.5t68 -28.5
q40 0 68 28.5t28 68.5q0 41 -29 68.5t-67 27.5q-39 0 -67 -27t-28 -69zM184 496q0 -36 25 -61.5t61 -25.5q35 0 60.5 25.5t25.5 61.5q0 35 -25.5 60t-60.5 25q-36 0 -61 -25t-25 -60z" />
    <glyph glyph-name="nine" unicode="9" horiz-adv-x="540" 
d="M300 0h-150l145 284q-27 -13 -67 -13q-80 0 -135 58t-55 148q0 109 65 165q65 57 167 57q103 0 168 -56t65 -165q0 -68 -64 -197zM363 483q0 46 -24.5 72t-68.5 26t-68 -26t-24 -72q0 -45 24 -71t68 -26t68.5 26t24.5 71z" />
    <glyph glyph-name="colon" unicode=":" horiz-adv-x="246" 
d="M60 500h136v-137h-136v137zM60 136h136v-136h-136v136z" />
    <glyph glyph-name="semicolon" unicode=";" horiz-adv-x="246" 
d="M60 136h136v-188l-136 -117v305zM60 500h136v-137h-136v137z" />
    <glyph glyph-name="less" unicode="&#x3c;" horiz-adv-x="540" 
d="M426 580v-144l-181 -94l181 -93v-144l-325 183v109z" />
    <glyph glyph-name="equal" unicode="=" horiz-adv-x="540" 
d="M465 359h-389v120h389v-120zM465 182h-389v119h389v-119z" />
    <glyph glyph-name="greater" unicode="&#x3e;" horiz-adv-x="540" 
d="M112 249l181 93l-181 94v144l325 -183v-109l-325 -183v144z" />
    <glyph glyph-name="question" unicode="?" horiz-adv-x="487" 
d="M297 220v-31h-121v69q0 34 8 55.5t31 42.5l45 43q37 35 50.5 57t13.5 53q0 33 -21.5 53t-55.5 20t-55.5 -18t-22.5 -50h-132q0 89 59 137q60 48 151 48q94 0 155 -49q62 -50 62 -142q0 -52 -24.5 -96t-75.5 -94l-33 -32q-25 -26 -29 -39q-4 -10 -5 -27zM305 0h-137v136
h137v-136z" />
    <glyph glyph-name="at" unicode="@" horiz-adv-x="898" 
d="M513 484h127v-243q0 -41 11 -58t35 -17q58 0 58 127q0 148 -83 216t-212 68q-78 0 -136 -26.5t-90 -71t-47.5 -95.5t-15.5 -108q0 -149 82 -225q82 -75 212 -75q118 0 221 52l47 -91q-96 -69 -273 -69q-167 0 -287 102q-60 50 -94.5 129.5t-34.5 176.5q0 127 59 222
q58 93 150.5 140t206.5 47q185 0 303 -105q119 -105 119 -288q0 -111 -47.5 -172.5t-134.5 -61.5q-92 0 -133 65q-33 -65 -131 -65q-78 0 -123 51t-45 139v52q0 91 45.5 140t122.5 49q51 0 88 -23v18zM446 166q36 0 51.5 19t15.5 61v50q0 47 -15.5 66t-51.5 19
q-61 0 -61 -85v-38q0 -48 14 -70t47 -22z" />
    <glyph glyph-name="A" unicode="A" horiz-adv-x="607" 
d="M188 131l-42 -131h-150l240 690h134l240 -690h-149l-42 131h-231zM381 249l-78 243l-78 -243h156z" />
    <glyph glyph-name="B" unicode="B" horiz-adv-x="606" 
d="M68 0v690h231q252 0 252 -181q0 -102 -91 -147q113 -41 113 -164q0 -91 -63.5 -144.5t-188.5 -53.5h-253zM296 299h-88v-181h101q124 0 124 91q0 48 -32.5 69t-104.5 21zM286 572h-78v-155h93q110 0 110 79q0 40 -27.5 58t-97.5 18z" />
    <glyph glyph-name="C" unicode="C" horiz-adv-x="594" 
d="M564 476h-134q-21 105 -119 105q-124 0 -124 -187v-98q0 -187 124 -187q51 0 79 25t40 80h133q-33 -223 -252 -223q-125 0 -194.5 77.5t-69.5 227.5v98q0 151 69.5 228t194.5 77q106 0 171 -56.5t82 -166.5z" />
    <glyph glyph-name="D" unicode="D" horiz-adv-x="625" 
d="M313 0h-245v690h245q265 0 265 -300v-90q0 -300 -265 -300zM208 118h105q67 0 96 43.5t29 138.5v90q0 94 -29 137.5t-96 43.5h-105v-453z" />
    <glyph glyph-name="E" unicode="E" horiz-adv-x="527" 
d="M68 0v690h430v-119h-290v-155h260v-118h-260v-180h290v-118h-430z" />
    <glyph glyph-name="F" unicode="F" horiz-adv-x="521" 
d="M68 0v690h430v-119h-290v-171h260v-118h-260v-282h-140z" />
    <glyph glyph-name="G" unicode="G" horiz-adv-x="612" 
d="M314 241v118h251v-63q0 -152 -65.5 -228.5t-188.5 -76.5q-125 0 -194.5 77.5t-69.5 227.5v88q0 158 69 236.5t195 78.5q107 0 172 -57.5t81 -165.5h-134q-20 105 -119 105q-124 0 -124 -187v-98q0 -187 124 -187q56 0 84.5 32.5t34.5 99.5h-116z" />
    <glyph glyph-name="H" unicode="H" horiz-adv-x="656" 
d="M68 690h140v-274h239v274h140v-690h-140v298h-239v-298h-140v690z" />
    <glyph glyph-name="I" unicode="I" horiz-adv-x="296" 
d="M78 690h140v-690h-140v690z" />
    <glyph glyph-name="J" unicode="J" horiz-adv-x="512" 
d="M-9 94l116 65q35 -50 94 -50q54 0 78.5 35.5t24.5 120.5v425h140v-425q0 -141 -59 -207.5t-175 -66.5q-147 0 -219 103z" />
    <glyph glyph-name="K" unicode="K" horiz-adv-x="645" 
d="M381 411l252 -411h-167l-176 291l-82 -108v-183h-140v690h140v-298l218 298h166z" />
    <glyph glyph-name="L" unicode="L" horiz-adv-x="504" 
d="M68 690h140v-572h290v-118h-430v690z" />
    <glyph glyph-name="M" unicode="M" horiz-adv-x="786" 
d="M68 690h131l194 -376l192 376h133v-690h-134v428l-150 -304h-85l-148 301v-425h-133v690z" />
    <glyph glyph-name="N" unicode="N" horiz-adv-x="656" 
d="M454 257v433h133v-690h-117l-269 427v-427h-133v690h116z" />
    <glyph glyph-name="O" unicode="O" horiz-adv-x="623" 
d="M576 394v-98q0 -150 -70 -227.5t-195 -77.5t-194.5 77.5t-69.5 227.5v98q0 151 69.5 228t194.5 77q126 0 195.5 -77t69.5 -228zM187 394v-98q0 -187 124 -187q125 0 125 187v98q0 187 -125 187q-124 0 -124 -187z" />
    <glyph glyph-name="P" unicode="P" horiz-adv-x="590" 
d="M315 243h-107v-243h-140v690h247q123 0 190.5 -56.5t67.5 -164.5q0 -107 -68.5 -166.5t-189.5 -59.5zM208 571v-210h87q72 0 105 26t33 82q0 102 -138 102h-87z" />
    <glyph glyph-name="Q" unicode="Q" horiz-adv-x="630" 
d="M576 394v-98q0 -99 -31 -165l96 -82l-74 -88l-93 79q-64 -49 -163 -49q-125 0 -194.5 77.5t-69.5 227.5v98q0 151 69.5 228t194.5 77q126 0 195.5 -77t69.5 -228zM187 394v-98q0 -187 124 -187q38 0 63 16l-78 67l76 89l59 -52q5 37 5 67v98q0 187 -125 187
q-124 0 -124 -187z" />
    <glyph glyph-name="R" unicode="R" horiz-adv-x="617" 
d="M455 294l143 -294h-154l-124 271h-112v-271h-140v690h247q123 0 190.5 -54.5t67.5 -156.5q0 -136 -118 -185zM208 571v-182h94q69 0 100 20t31 70t-31.5 71t-99.5 21h-94z" />
    <glyph glyph-name="S" unicode="S" horiz-adv-x="575" 
d="M532 586l-105 -75q-24 37 -55 53.5t-81 16.5q-47 0 -72 -20t-25 -56q0 -38 31 -60.5t105 -40.5q111 -29 160 -76q49 -46 49 -136q0 -92 -62 -146.5t-176 -54.5q-180 0 -266 113l107 74q30 -37 64.5 -53t85.5 -16q107 0 107 77q0 37 -30.5 60t-110.5 44q-105 27 -154.5 79
t-49.5 136q0 89 60.5 141.5t175.5 52.5q168 0 242 -113z" />
    <glyph glyph-name="T" unicode="T" horiz-adv-x="536" 
d="M8 571v119h520v-119h-190v-571h-140v571h-190z" />
    <glyph glyph-name="U" unicode="U" horiz-adv-x="666" 
d="M458 279v411h140v-410q0 -143 -70.5 -216t-194.5 -73t-194.5 72.5t-70.5 215.5v411h140v-411q0 -88 30 -129t95 -41t95 41t30 129z" />
    <glyph glyph-name="V" unicode="V" horiz-adv-x="614" 
d="M244 0l-241 690h153l151 -464l151 464h153l-240 -690h-127z" />
    <glyph glyph-name="W" unicode="W" horiz-adv-x="889" 
d="M590 0l-146 475l-146 -475h-133l-158 690h150l92 -454l131 454h126l135 -457l91 457h151l-159 -690h-134z" />
    <glyph glyph-name="X" unicode="X" horiz-adv-x="592" 
d="M296 235l-131 -235h-152l194 356l-173 334h152l110 -220l111 220h151l-174 -334l195 -356h-151z" />
    <glyph glyph-name="Y" unicode="Y" horiz-adv-x="583" 
d="M221 282l-215 408h162l123 -257l124 257h161l-215 -408v-282h-140v282z" />
    <glyph glyph-name="Z" unicode="Z" horiz-adv-x="519" 
d="M30 571v119h456v-92l-278 -480h288v-118h-466v92l280 479h-280z" />
    <glyph glyph-name="bracketleft" unicode="[" horiz-adv-x="335" 
d="M309 -102h-239v894h239v-108h-112v-678h112v-108z" />
    <glyph glyph-name="backslash" unicode="\" horiz-adv-x="485" 
d="M361 -116l-336 928h116l336 -928h-116z" />
    <glyph glyph-name="bracketright" unicode="]" horiz-adv-x="335" 
d="M26 686v106h239v-894h-239v106h112v682h-112z" />
    <glyph glyph-name="asciicircum" unicode="^" horiz-adv-x="540" 
d="M38 437l174 253h115l176 -253h-144l-89 129l-82 -129h-150z" />
    <glyph glyph-name="underscore" unicode="_" horiz-adv-x="526" 
d="M0 -169v103h526v-103h-526z" />
    <glyph glyph-name="grave" unicode="`" horiz-adv-x="337" 
d="M62 725h143l70 -158h-122z" />
    <glyph glyph-name="a" unicode="a" 
d="M26 148q0 74 50 113t135 39h99v29q0 43 -18 58.5t-71 15.5q-39 0 -59 -8t-35 -32l-90 63q27 45 72.5 64t123.5 19q106 0 154 -41t48 -140v-328h-125v44q-32 -53 -108 -53q-81 0 -128.5 41.5t-47.5 115.5zM310 187v19h-84q-75 0 -75 -56t73 -56q45 0 65.5 21.5t20.5 71.5z
" />
    <glyph glyph-name="b" unicode="b" horiz-adv-x="510" 
d="M51 690h121v-221q37 40 108 40q93 0 145 -59t52 -169v-60q0 -107 -51 -168.5t-146 -61.5q-72 0 -108 39v-30h-121v690zM350 225v52q0 124 -89 124t-89 -124v-52q0 -126 89 -126t89 126z" />
    <glyph glyph-name="c" unicode="c" horiz-adv-x="446" 
d="M343 142l95 -66q-49 -85 -182 -85q-105 0 -164 60.5t-59 165.5v68q0 109 59 166.5t171 57.5q122 0 175 -83l-96 -67q-30 42 -82 42q-100 0 -100 -124v-52q0 -60 21 -93q23 -33 79 -33q58 0 83 43z" />
    <glyph glyph-name="d" unicode="d" horiz-adv-x="517" 
d="M338 474v216h127v-690h-127v29q-41 -38 -107 -38q-95 0 -146.5 61t-51.5 165v68q0 106 53 165t145 59q66 0 107 -35zM249 99q48 0 68.5 31.5t20.5 94.5v63q0 113 -89 113t-89 -124v-52q0 -126 89 -126z" />
    <glyph glyph-name="e" unicode="e" 
d="M343 142l95 -66q-49 -85 -183 -85q-106 0 -164 61.5t-58 164.5v68q0 110 53 167t153 57q206 0 206 -234v-57h-285q2 -119 94 -119q36 0 54.5 9.5t34.5 33.5zM240 401q-72 0 -80 -92h157q-5 92 -77 92z" />
    <glyph glyph-name="f" unicode="f" horiz-adv-x="301" 
d="M14 392v108h64v27q0 93 38 128q40 35 133 35h37v-112h-24q-33 0 -45 -15.5t-12 -55.5v-7h81v-108h-81v-392h-127v392h-64z" />
    <glyph glyph-name="g" unicode="g" horiz-adv-x="517" 
d="M338 474v26h127v-490q0 -121 -63 -166q-57 -40 -157 -40q-73 0 -118.5 20.5t-77.5 69.5l86 62q33 -45 98 -45q58 0 81.5 21.5t23.5 77.5v16q-41 -35 -107 -35q-95 0 -146.5 61t-51.5 165v68q0 106 53 165t145 59q66 0 107 -35zM338 214v63q0 124 -89 124t-89 -124v-52
q0 -126 89 -126t89 115z" />
    <glyph glyph-name="h" unicode="h" horiz-adv-x="526" 
d="M179 0h-128v690h128v-229q36 48 112 48q183 0 183 -196v-313h-127v293q0 56 -19.5 81t-60.5 25q-88 0 -88 -105v-294z" />
    <glyph glyph-name="i" unicode="i" horiz-adv-x="260" 
d="M194 0h-128v500h128v-500zM199 566h-138v124h138v-124z" />
    <glyph glyph-name="j" unicode="j" horiz-adv-x="251" 
d="M67 500h127v-527q0 -93 -45 -128q-46 -35 -149 -35v110q37 0 52 16.5t15 54.5v509zM199 566h-137v124h137v-124z" />
    <glyph glyph-name="k" unicode="k" horiz-adv-x="502" 
d="M179 318l140 182h152l-173 -209l202 -291h-150l-137 188l-34 -42v-146h-128v690h128v-372z" />
    <glyph glyph-name="l" unicode="l" horiz-adv-x="285" 
d="M51 160v530h128v-501q0 -43 15.5 -61t54.5 -18v-110q-107 0 -152.5 35.5t-45.5 124.5z" />
    <glyph glyph-name="m" unicode="m" horiz-adv-x="795" 
d="M461 294v-294h-127v293q0 106 -76 106q-37 0 -58 -27t-21 -78v-294h-128v500h125v-42q38 51 111 51q94 0 140 -67q55 67 144 67q84 0 128.5 -50t44.5 -146v-313h-128v293q0 106 -77 106q-37 0 -57.5 -27t-20.5 -78z" />
    <glyph glyph-name="n" unicode="n" horiz-adv-x="526" 
d="M179 0h-128v500h125v-42q39 51 115 51q183 0 183 -196v-313h-127v293q0 56 -19.5 81t-60.5 25q-88 0 -88 -105v-294z" />
    <glyph glyph-name="o" unicode="o" horiz-adv-x="499" 
d="M465 281v-60q0 -109 -54.5 -169.5t-161.5 -60.5q-105 0 -160.5 60.5t-55.5 169.5v60q0 111 55.5 169.5t160.5 58.5t160.5 -58t55.5 -170zM249 99q89 0 89 126v52q0 124 -89 124t-89 -124v-52q0 -63 20.5 -94.5t68.5 -31.5z" />
    <glyph glyph-name="p" unicode="p" horiz-adv-x="517" 
d="M484 285v-68q0 -101 -51 -164q-50 -62 -144 -62q-75 0 -110 29v-210h-128v690h128v-33q37 42 111 42q89 0 141.5 -59.5t52.5 -164.5zM268 99q88 0 88 126v52q0 124 -88 124q-89 0 -89 -113v-63q0 -63 20.5 -94.5t68.5 -31.5z" />
    <glyph glyph-name="q" unicode="q" horiz-adv-x="517" 
d="M338 475v25h127v-690h-127v218q-41 -37 -107 -37q-95 0 -146.5 61t-51.5 165v68q0 106 53 165t145 59q66 0 107 -34zM249 99q48 0 68.5 31.5t20.5 94.5v52q0 124 -89 124t-89 -124v-52q0 -126 89 -126z" />
    <glyph glyph-name="r" unicode="r" horiz-adv-x="410" 
d="M420 431l-98 -70q-26 38 -63 38t-58.5 -27.5t-21.5 -77.5v-294h-128v500h125v-42q34 51 109 51q90 0 135 -78z" />
    <glyph glyph-name="s" unicode="s" horiz-adv-x="464" 
d="M419 426l-94 -67q-19 22 -40 31t-58 9q-63 0 -63 -39q0 -21 18.5 -32t61.5 -17q95 -15 140 -54t45 -111q0 -73 -51 -114t-145 -41q-147 0 -207 83l98 70q31 -43 107 -43q71 0 71 41q0 23 -17.5 32.5t-67.5 18.5q-180 29 -180 162q0 73 50.5 113.5t142.5 40.5
q138 0 189 -83z" />
    <glyph glyph-name="t" unicode="t" horiz-adv-x="331" 
d="M78 392h-64v108h64v110h127v-110h98v-108h-98v-209q0 -40 12 -55.5t45 -15.5h41v-112h-54q-95 0 -133 34q-38 35 -38 129v229z" />
    <glyph glyph-name="u" unicode="u" horiz-adv-x="526" 
d="M347 500h127v-500h-125v42q-18 -28 -43 -39.5t-71 -11.5q-87 0 -135.5 48t-48.5 149v312h128v-293q0 -56 19.5 -81t61.5 -25q87 0 87 105v294z" />
    <glyph glyph-name="v" unicode="v" horiz-adv-x="504" 
d="M252 176l111 324h141l-190 -500h-120l-194 500h140z" />
    <glyph glyph-name="w" unicode="w" horiz-adv-x="716" 
d="M471 0l-113 313l-113 -313h-104l-138 500h132l71 -286l101 286h94l108 -287l71 287h133l-139 -500h-103z" />
    <glyph glyph-name="x" unicode="x" horiz-adv-x="490" 
d="M319 256l165 -256h-142l-97 152l-97 -152h-141l164 256l-151 244h141l84 -143l84 143h141z" />
    <glyph glyph-name="y" unicode="y" horiz-adv-x="479" 
d="M192 -7l-187 507h134l111 -320l100 320h129l-175 -523q-35 -102 -79 -134q-45 -33 -150 -33v114q55 0 78.5 13.5t38.5 55.5z" />
    <glyph glyph-name="z" unicode="z" horiz-adv-x="449" 
d="M30 0v89l220 303h-217v108h382v-89l-217 -303h224v-108h-392z" />
    <glyph glyph-name="braceleft" unicode="{" horiz-adv-x="328" 
d="M227 606v-190q0 -30 -10.5 -46t-34.5 -24q45 -15 45 -70v-190q0 -44 13.5 -58.5t50.5 -14.5h14v-108h-41q-83 0 -124 32q-40 31 -40 123v178q0 28 -11.5 40t-38.5 12h-19v112h19q27 0 38.5 12t11.5 40v178q0 92 40 123q41 32 124 32h41v-108h-14q-37 0 -50.5 -14.5
t-13.5 -58.5z" />
    <glyph glyph-name="bar" unicode="|" horiz-adv-x="290" 
d="M85 812h121v-928h-121v928z" />
    <glyph glyph-name="braceright" unicode="}" horiz-adv-x="317" 
d="M108 416v190q0 45 -13 59t-50 14h-14v108h41q83 0 124 -32q40 -31 40 -123v-178q0 -28 11.5 -40t38.5 -12h19v-112h-19q-27 0 -38.5 -12t-11.5 -40v-178q0 -92 -40 -123q-41 -32 -124 -32h-41v108h14q37 0 50 14t13 59v190q0 55 45 70q-24 8 -34.5 24t-10.5 46z" />
    <glyph glyph-name="asciitilde" unicode="~" horiz-adv-x="540" 
d="M355 259q-48 0 -96 22q-49 23 -75 23q-54 0 -88 -45l-85 69q69 86 173 86q47 0 96 -23q48 -22 75 -22q54 0 88 46l86 -70q-71 -86 -174 -86z" />
    <glyph glyph-name="uni00A0" unicode="&#xa0;" horiz-adv-x="250" 
 />
    <glyph glyph-name="exclamdown" unicode="&#xa1;" horiz-adv-x="250" 
d="M188 -190h-126v501h126v-501zM57 500h136v-136h-136v136z" />
    <glyph glyph-name="cent" unicode="&#xa2;" horiz-adv-x="540" 
d="M371 145l95 -66q-39 -68 -126 -82v-113h-114v115q-78 16 -121.5 74t-43.5 146v64q0 187 165 218v121h114v-120q86 -17 126 -79l-96 -67q-30 42 -82 42q-100 0 -100 -124v-46q0 -63 22.5 -94.5t77.5 -31.5q58 0 83 43z" />
    <glyph glyph-name="sterling" unicode="&#xa3;" horiz-adv-x="540" 
d="M499 0h-472v118h73v159h-73v119h73v31q0 272 219 272q136 0 203 -103l-115 -65q-38 50 -82 50q-43 0 -64 -36t-21 -118v-31h131v-119h-131v-159h259v-118z" />
    <glyph glyph-name="currency" unicode="&#xa4;" horiz-adv-x="540" 
d="M72 366q0 49 22 92l-79 79l84 84l77 -78q45 24 95 24t94 -23l78 78l84 -84l-78 -78q23 -44 23 -94q0 -49 -24 -94l79 -78l-84 -84l-79 78q-43 -22 -93 -22t-94 23l-78 -78l-84 84l79 79q-22 41 -22 92zM271 271q40 0 66.5 27.5t26.5 67.5t-27 68t-66 28t-65.5 -28
t-26.5 -68t26.5 -67.5t65.5 -27.5z" />
    <glyph glyph-name="yen" unicode="&#xa5;" horiz-adv-x="540" 
d="M60 119v112h137v51h-137v112h74l-112 296h155l90 -293l95 293h157l-119 -296h74v-112h-137v-51h137v-112h-137v-119h-140v119h-137z" />
    <glyph glyph-name="brokenbar" unicode="&#xa6;" horiz-adv-x="268" 
d="M69 243h140v-243h-140v243zM69 690h140v-243h-140v243z" />
    <glyph glyph-name="section" unicode="&#xa7;" horiz-adv-x="533" 
d="M72 -35h127q2 -23 13.5 -34.5t37.5 -11.5q53 0 53 43q0 24 -19 42t-63 33q-92 31 -136 77q-42 45 -42 136q0 111 91 160q-62 50 -62 125q0 72 49.5 114t133.5 42q176 0 176 -156h-126q-3 23 -14.5 34.5t-37.5 11.5q-52 0 -52 -43q0 -24 19.5 -42t67.5 -35q88 -30 130 -75
t42 -136q0 -112 -91 -161q62 -50 62 -124q0 -72 -49.5 -114t-132.5 -42q-175 0 -177 156zM333 250q0 38 -22 59.5t-59 21.5q-38 0 -60 -22q-22 -21 -22 -59t22 -60q22 -21 60 -21t59.5 21.5t21.5 59.5z" />
    <glyph glyph-name="dieresis" unicode="&#xa8;" horiz-adv-x="426" 
d="M173 573h-124v117h124v-117zM376 573h-123v117h123v-117z" />
    <glyph glyph-name="copyright" unicode="&#xa9;" horiz-adv-x="956" 
d="M162 -62q-128 128 -128 312t128 312q130 128 312 128q183 0 311 -128q129 -128 129 -312t-129 -312q-128 -128 -311 -128q-182 0 -312 128zM474 -77q135 0 227 95t92 232q0 136 -92 231t-227 95q-134 0 -227 -95t-93 -231q0 -138 93 -232q93 -95 227 -95zM565 142l95 -66
q-49 -85 -182 -85q-105 0 -164 60.5t-59 165.5v68q0 109 59 166.5t171 57.5q122 0 175 -83l-96 -67q-30 42 -82 42q-100 0 -100 -124v-52q0 -60 21 -93q23 -33 79 -33q58 0 83 43z" />
    <glyph glyph-name="ordfeminine" unicode="&#xaa;" horiz-adv-x="316" 
d="M16 467q0 98 120 98h60v15q0 24 -11 34t-41 10q-23 0 -36 -7.5t-25 -25.5l-60 41q32 60 130 60q66 0 98 -24t32 -77v-217h-87v23q-21 -27 -71 -27q-49 0 -79 25t-30 72zM196 489v11h-47q-45 0 -45 -33q0 -29 41 -29q27 0 39 11t12 40z" />
    <glyph glyph-name="guillemotleft" unicode="&#xab;" horiz-adv-x="519" 
d="M262 52l-232 231l232 231v-143l-90 -88l90 -89v-142zM477 52l-232 231l232 231v-143l-89 -88l89 -89v-142z" />
    <glyph glyph-name="logicalnot" unicode="&#xac;" horiz-adv-x="534" 
d="M484 412v-245h-129v133h-318v112h447z" />
    <glyph glyph-name="uni00AD" unicode="&#xad;" horiz-adv-x="319" 
d="M289 233h-259v112h259v-112z" />
    <glyph glyph-name="registered" unicode="&#xae;" horiz-adv-x="544" 
d="M84 316q-77 77 -77 185t77 185t185 77t185 -77t77 -185t-77 -185t-185 -77t-185 77zM137 633q-55 -55 -55 -132t55 -132t132 -55t132 55t55 132t-55 132t-132 55t-132 -55zM230 464v-90h-67v261h111q49 0 75 -23t26 -60q0 -55 -48 -76l61 -102h-76l-51 90h-31zM230 579
v-59h30q46 0 46 31q0 28 -41 28h-35z" />
    <glyph glyph-name="overscore" unicode="&#xaf;" horiz-adv-x="405" 
d="M344 573h-283v111h283v-111z" />
    <glyph glyph-name="degree" unicode="&#xb0;" horiz-adv-x="308" 
d="M54 458q-41 41 -41 101q0 59 41 100t100 41t100 -41t41 -100q0 -60 -41 -101q-40 -40 -100 -40t-100 40zM204 559q0 22 -14 37t-36 15t-37 -15t-15 -37t15 -37.5t37 -15.5t36 15t14 38z" />
    <glyph glyph-name="plusminus" unicode="&#xb1;" horiz-adv-x="506" 
d="M198 340h-139v108h139v141h109v-141h141v-108h-141v-105h-109v105zM448 104h-389v108h389v-108z" />
    <glyph glyph-name="twosuperior" unicode="&#xb2;" horiz-adv-x="278" 
d="M149 442h115v-68h-233v63l103 89q36 32 36 58q0 31 -30 31q-31 0 -33 -33h-82q0 51 33.5 81t85.5 30t83.5 -28t31.5 -76q0 -52 -63 -106z" />
    <glyph glyph-name="threesuperior" unicode="&#xb3;" horiz-adv-x="301" 
d="M132 507h-13v59h13q39 0 39 30q0 25 -29 25t-32 -27h-84q0 44 33.5 71.5t85.5 27.5q51 0 80.5 -23.5t29.5 -65.5q0 -47 -43 -66q49 -16 49 -70q0 -46 -31.5 -71.5t-84.5 -25.5q-55 0 -88 28t-35 73h85q5 -27 35 -27q33 0 33 30q0 32 -43 32z" />
    <glyph glyph-name="acute" unicode="&#xb4;" horiz-adv-x="399" 
d="M215 567h-122l70 158h143z" />
    <glyph glyph-name="mu" unicode="&#x3bc;" horiz-adv-x="518" 
d="M175 6v-143h-127v637h127v-291q0 -61 21 -84.5t63 -23.5q85 0 85 106v293h113v-500h-111v42q-32 -51 -103 -51q-41 0 -68 15z" />
    <glyph glyph-name="mu" unicode="&#xb5;" horiz-adv-x="518" 
d="M175 6v-143h-127v637h127v-291q0 -61 21 -84.5t63 -23.5q85 0 85 106v293h113v-500h-111v42q-32 -51 -103 -51q-41 0 -68 15z" />
    <glyph glyph-name="paragraph" unicode="&#xb6;" horiz-adv-x="655" 
d="M235 690h341v-880h-133v761h-75v-761h-133v500q-80 0 -135 55t-55 135q0 79 55 134q56 56 135 56z" />
    <glyph glyph-name="middot" unicode="&#xb7;" horiz-adv-x="216" 
d="M33 423h150v-150h-150v150z" />
    <glyph glyph-name="cedilla" unicode="&#xb8;" horiz-adv-x="350" 
d="M116 -72l20 97l81 -3l-12 -44q52 -19 52 -72q0 -40 -32 -63t-86 -23q-31 0 -46 4l15 65q16 -2 19 -2q33 0 33 21q0 20 -44 20z" />
    <glyph glyph-name="onesuperior" unicode="&#xb9;" horiz-adv-x="277" 
d="M134 690h81v-316h-88v223l-57 -37v87z" />
    <glyph glyph-name="ordmasculine" unicode="&#xba;" horiz-adv-x="350" 
d="M308 555v-45q0 -66 -37 -102.5t-103 -36.5q-64 0 -101.5 36.5t-37.5 102.5v45q0 67 37.5 102.5t101.5 35.5q65 0 102.5 -35t37.5 -103zM168 451q52 0 52 60v43q0 59 -52 59q-51 0 -51 -59v-43q0 -60 51 -60z" />
    <glyph glyph-name="guillemotright" unicode="&#xbb;" horiz-adv-x="519" 
d="M257 371v143l232 -231l-232 -231v142l89 89zM41 371v143l232 -231l-232 -231v142l90 89z" />
    <glyph glyph-name="onequarter" unicode="&#xbc;" horiz-adv-x="658" 
d="M129 690h81v-316h-88v223l-57 -37v87zM326 111l131 205h102l-123 -198h51v45h88v-45h39v-71h-39v-47h-88v47h-161v64zM13 0l475 690h127l-474 -690h-128z" />
    <glyph glyph-name="onehalf" unicode="&#xbd;" horiz-adv-x="650" 
d="M129 690h81v-316h-88v223l-57 -37v87zM496 68h115v-68h-233v63l103 89q36 31 36 58q0 31 -30 31q-28 0 -33 -33h-82q0 51 33.5 81t85.5 30t83.5 -28t31.5 -76q0 -52 -63 -106zM13 0l475 690h127l-474 -690h-128z" />
    <glyph glyph-name="threequarters" unicode="&#xbe;" horiz-adv-x="632" 
d="M126 507h-13v59h13q39 0 39 30q0 25 -29 25t-32 -27h-84q0 44 33.5 71.5t85.5 27.5q51 0 80.5 -23.5t29.5 -65.5q0 -47 -43 -66q49 -16 49 -70q0 -46 -31.5 -71.5t-84.5 -25.5q-55 0 -88 28t-35 73h85q5 -27 35 -27q33 0 33 30q0 32 -43 32zM326 111l131 205h102
l-123 -198h51v45h88v-45h39v-71h-39v-47h-88v47h-161v64zM13 0l475 690h127l-474 -690h-128z" />
    <glyph glyph-name="questiondown" unicode="&#xbf;" horiz-adv-x="487" 
d="M204 280v31h121v-69q0 -34 -8 -55.5t-31 -42.5l-45 -43q-37 -35 -50.5 -57t-13.5 -53q0 -33 21.5 -53t55.5 -20t55.5 18t22.5 50h132q0 -89 -60 -137q-58 -48 -150 -48q-95 0 -156 49t-61 142q0 52 24.5 96t75.5 94l33 32q14 14 19 20t9.5 17t5.5 29zM333 364h-137v136
h137v-136z" />
    <glyph glyph-name="Agrave" unicode="&#xc0;" horiz-adv-x="607" 
d="M188 131l-42 -131h-150l240 690h134l240 -690h-149l-42 131h-231zM381 249l-78 243l-78 -243h156zM134 871h148l80 -129h-125z" />
    <glyph glyph-name="Aacute" unicode="&#xc1;" horiz-adv-x="607" 
d="M188 131l-42 -131h-150l240 690h134l240 -690h-149l-42 131h-231zM381 249l-78 243l-78 -243h156zM368 742h-124l80 129h147z" />
    <glyph glyph-name="Acircumflex" unicode="&#xc2;" horiz-adv-x="607" 
d="M188 131l-42 -131h-150l240 690h134l240 -690h-149l-42 131h-231zM381 249l-78 243l-78 -243h156zM113 737l138 142h105l138 -142h-133l-58 61l-57 -61h-133z" />
    <glyph glyph-name="Atilde" unicode="&#xc3;" horiz-adv-x="607" 
d="M188 131l-42 -131h-150l240 690h134l240 -690h-149l-42 131h-231zM381 249l-78 243l-78 -243h156zM365 738q-26 0 -65 14q-38 15 -53 15q-29 0 -52 -26l-68 69q50 60 118 60q25 0 62 -15q39 -14 55 -14q28 0 50 27l68 -69q-49 -61 -115 -61z" />
    <glyph glyph-name="Adieresis" unicode="&#xc4;" horiz-adv-x="607" 
d="M188 131l-42 -131h-150l240 690h134l240 -690h-149l-42 131h-231zM381 249l-78 243l-78 -243h156zM264 752h-124v117h124v-117zM467 752h-124v117h124v-117z" />
    <glyph glyph-name="Aring" unicode="&#xc5;" horiz-adv-x="607" 
d="M188 131l-42 -131h-150l230 661q-38 27 -38 76q0 45 32 72t83 27q52 0 84.5 -27t32.5 -72q0 -50 -40 -77l230 -660h-149l-42 131h-231zM381 249l-78 243l-78 -243h156zM303 706q37 0 37 31t-37 31q-36 0 -36 -31t36 -31z" />
    <glyph glyph-name="AE" unicode="&#xc6;" horiz-adv-x="894" 
d="M237 138l-77 -138h-164l391 690h477v-119h-289v-155h259v-118h-259v-180h289v-118h-429v138h-198zM435 494l-133 -238h133v238z" />
    <glyph glyph-name="Ccedilla" unicode="&#xc7;" horiz-adv-x="594" 
d="M262 -72l13 65q-108 10 -168 87t-60 216v98q0 151 69.5 228t194.5 77q106 0 171 -56.5t82 -166.5h-134q-21 105 -119 105q-124 0 -124 -187v-98q0 -187 124 -187q51 0 79 25t40 80h133q-30 -201 -208 -220l-4 -16q53 -20 53 -72q0 -39 -32.5 -62.5t-86.5 -23.5
q-31 0 -46 4l15 65q16 -2 19 -2q33 0 33 21q0 20 -44 20z" />
    <glyph glyph-name="Egrave" unicode="&#xc8;" horiz-adv-x="527" 
d="M68 0v690h430v-119h-290v-155h260v-118h-260v-180h290v-118h-430zM141 871h148l80 -129h-125z" />
    <glyph glyph-name="Eacute" unicode="&#xc9;" horiz-adv-x="527" 
d="M68 0v690h430v-119h-290v-155h260v-118h-260v-180h290v-118h-430zM325 742h-124l80 129h147z" />
    <glyph glyph-name="Ecircumflex" unicode="&#xca;" horiz-adv-x="527" 
d="M68 0v690h430v-119h-290v-155h260v-118h-260v-180h290v-118h-430zM92 737l138 142h105l138 -142h-133l-58 61l-57 -61h-133z" />
    <glyph glyph-name="Edieresis" unicode="&#xcb;" horiz-adv-x="527" 
d="M68 0v690h430v-119h-290v-155h260v-118h-260v-180h290v-118h-430zM243 752h-124v117h124v-117zM446 752h-124v117h124v-117z" />
    <glyph glyph-name="Igrave" unicode="&#xcc;" horiz-adv-x="296" 
d="M78 690h140v-690h-140v690zM-9 871h148l80 -129h-125z" />
    <glyph glyph-name="Iacute" unicode="&#xcd;" horiz-adv-x="296" 
d="M78 690h140v-690h-140v690zM202 742h-124l80 129h147z" />
    <glyph glyph-name="Icircumflex" unicode="&#xce;" horiz-adv-x="296" 
d="M78 690h140v-690h-140v690zM-42 737l138 142h105l138 -142h-133l-58 61l-57 -61h-133z" />
    <glyph glyph-name="Idieresis" unicode="&#xcf;" horiz-adv-x="296" 
d="M78 690h140v-690h-140v690zM109 752h-124v117h124v-117zM312 752h-124v117h124v-117z" />
    <glyph glyph-name="Eth" unicode="&#xd0;" horiz-adv-x="626" 
d="M314 0h-245v298h-79v118h79v274h245q265 0 265 -300v-90q0 -300 -265 -300zM209 118h105q67 0 96 43.5t29 138.5v90q0 94 -29 137.5t-96 43.5h-105v-155h136v-118h-136v-180z" />
    <glyph glyph-name="Ntilde" unicode="&#xd1;" horiz-adv-x="656" 
d="M454 257v433h133v-690h-117l-269 427v-427h-133v690h116zM389 738q-26 0 -65 14q-37 15 -53 15q-29 0 -52 -26l-68 69q49 60 118 60q25 0 62 -15q39 -14 55 -14q27 0 50 27l68 -69q-49 -61 -115 -61z" />
    <glyph glyph-name="Ograve" unicode="&#xd2;" horiz-adv-x="623" 
d="M576 394v-98q0 -150 -70 -227.5t-195 -77.5t-194.5 77.5t-69.5 227.5v98q0 151 69.5 228t194.5 77q126 0 195.5 -77t69.5 -228zM187 394v-98q0 -187 124 -187q125 0 125 187v98q0 187 -125 187q-124 0 -124 -187zM164 871h148l80 -129h-125z" />
    <glyph glyph-name="Oacute" unicode="&#xd3;" horiz-adv-x="623" 
d="M576 394v-98q0 -150 -70 -227.5t-195 -77.5t-194.5 77.5t-69.5 227.5v98q0 151 69.5 228t194.5 77q126 0 195.5 -77t69.5 -228zM187 394v-98q0 -187 124 -187q125 0 125 187v98q0 187 -125 187q-124 0 -124 -187zM361 742h-124l80 129h147z" />
    <glyph glyph-name="Ocircumflex" unicode="&#xd4;" horiz-adv-x="623" 
d="M576 394v-98q0 -150 -70 -227.5t-195 -77.5t-194.5 77.5t-69.5 227.5v98q0 151 69.5 228t194.5 77q126 0 195.5 -77t69.5 -228zM187 394v-98q0 -187 124 -187q125 0 125 187v98q0 187 -125 187q-124 0 -124 -187zM121 737l138 142h105l138 -142h-133l-58 61l-57 -61h-133
z" />
    <glyph glyph-name="Otilde" unicode="&#xd5;" horiz-adv-x="623" 
d="M576 394v-98q0 -150 -70 -227.5t-195 -77.5t-194.5 77.5t-69.5 227.5v98q0 151 69.5 228t194.5 77q126 0 195.5 -77t69.5 -228zM187 394v-98q0 -187 124 -187q125 0 125 187v98q0 187 -125 187q-124 0 -124 -187zM373 738q-26 0 -65 14q-37 15 -53 15q-29 0 -52 -26
l-68 69q49 60 118 60q25 0 62 -15q39 -14 55 -14q28 0 50 27l68 -69q-49 -61 -115 -61z" />
    <glyph glyph-name="Odieresis" unicode="&#xd6;" horiz-adv-x="623" 
d="M576 394v-98q0 -150 -70 -227.5t-195 -77.5t-194.5 77.5t-69.5 227.5v98q0 151 69.5 228t194.5 77q126 0 195.5 -77t69.5 -228zM187 394v-98q0 -187 124 -187q125 0 125 187v98q0 187 -125 187q-124 0 -124 -187zM272 752h-124v117h124v-117zM475 752h-124v117h124v-117z
" />
    <glyph glyph-name="multiply" unicode="&#xd7;" horiz-adv-x="563" 
d="M286 276l-116 -117l-78 78l117 117l-117 118l77 77l118 -118l118 118l77 -77l-118 -118l117 -117l-78 -78z" />
    <glyph glyph-name="Oslash" unicode="&#xd8;" horiz-adv-x="623" 
d="M245 -2l-41 -114h-115l57 157q-99 77 -99 255v98q0 151 69.5 228t194.5 77q35 0 70 -7l44 120h115l-60 -166q96 -76 96 -252v-98q0 -150 -70 -227.5t-195 -77.5q-31 0 -66 7zM187 394v-98q0 -66 13 -105l140 387q-14 3 -29 3q-124 0 -124 -187zM436 296v98q0 58 -12 99
l-138 -382q10 -2 25 -2q125 0 125 187z" />
    <glyph glyph-name="Ugrave" unicode="&#xd9;" horiz-adv-x="666" 
d="M458 279v411h140v-410q0 -143 -70.5 -216t-194.5 -73t-194.5 72.5t-70.5 215.5v411h140v-411q0 -88 30 -129t95 -41t95 41t30 129zM177 871h148l80 -129h-125z" />
    <glyph glyph-name="Uacute" unicode="&#xda;" horiz-adv-x="666" 
d="M458 279v411h140v-410q0 -143 -70.5 -216t-194.5 -73t-194.5 72.5t-70.5 215.5v411h140v-411q0 -88 30 -129t95 -41t95 41t30 129zM385 742h-124l80 129h147z" />
    <glyph glyph-name="Ucircumflex" unicode="&#xdb;" horiz-adv-x="666" 
d="M458 279v411h140v-410q0 -143 -70.5 -216t-194.5 -73t-194.5 72.5t-70.5 215.5v411h140v-411q0 -88 30 -129t95 -41t95 41t30 129zM143 737l138 142h105l138 -142h-133l-58 61l-57 -61h-133z" />
    <glyph glyph-name="Udieresis" unicode="&#xdc;" horiz-adv-x="666" 
d="M458 279v411h140v-410q0 -143 -70.5 -216t-194.5 -73t-194.5 72.5t-70.5 215.5v411h140v-411q0 -88 30 -129t95 -41t95 41t30 129zM294 752h-124v117h124v-117zM497 752h-124v117h124v-117z" />
    <glyph glyph-name="Yacute" unicode="&#xdd;" horiz-adv-x="583" 
d="M221 282l-215 408h162l123 -257l124 257h161l-215 -408v-282h-140v282zM345 742h-124l80 129h147z" />
    <glyph glyph-name="Thorn" unicode="&#xde;" horiz-adv-x="590" 
d="M315 136h-107v-136h-140v690h140v-107h107q123 0 190.5 -56.5t67.5 -163.5q0 -108 -68.5 -167.5t-189.5 -59.5zM208 465v-210h87q72 0 105 26t33 82q0 102 -138 102h-87z" />
    <glyph glyph-name="germandbls" unicode="&#xdf;" horiz-adv-x="513" 
d="M462 565q0 -70 -61 -98q34 -12 47.5 -38.5t13.5 -76.5v-212q0 -84 -33 -113q-33 -27 -113 -27h-63v106h33q27 0 38 13t11 43v187q0 31 -11 45t-38 14h-33v99h33q49 0 49 47q0 46 -69 46q-46 0 -66.5 -27t-20.5 -82v-491h-128v499q0 200 215 200q96 0 146 -37.5t50 -96.5z
" />
    <glyph glyph-name="agrave" unicode="&#xe0;" 
d="M26 148q0 74 50 113t135 39h99v29q0 43 -18 58.5t-71 15.5q-39 0 -59 -8t-35 -32l-90 63q27 45 72.5 64t123.5 19q106 0 154 -41t48 -140v-328h-125v44q-32 -53 -108 -53q-81 0 -128.5 41.5t-47.5 115.5zM310 187v19h-84q-75 0 -75 -56t73 -56q45 0 65.5 21.5t20.5 71.5z
M107 725h143l70 -158h-122z" />
    <glyph glyph-name="aacute" unicode="&#xe1;" 
d="M26 148q0 74 50 113t135 39h99v29q0 43 -18 58.5t-71 15.5q-39 0 -59 -8t-35 -32l-90 63q27 45 72.5 64t123.5 19q106 0 154 -41t48 -140v-328h-125v44q-32 -53 -108 -53q-81 0 -128.5 41.5t-47.5 115.5zM310 187v19h-84q-75 0 -75 -56t73 -56q45 0 65.5 21.5t20.5 71.5z
M284 567h-122l70 158h143z" />
    <glyph glyph-name="acircumflex" unicode="&#xe2;" 
d="M26 148q0 74 50 113t135 39h99v29q0 43 -18 58.5t-71 15.5q-39 0 -59 -8t-35 -32l-90 63q27 45 72.5 64t123.5 19q106 0 154 -41t48 -140v-328h-125v44q-32 -53 -108 -53q-81 0 -128.5 41.5t-47.5 115.5zM310 187v19h-84q-75 0 -75 -56t73 -56q45 0 65.5 21.5t20.5 71.5z
M80 568l108 142h106l108 -142h-114l-47 65l-47 -65h-114z" />
    <glyph glyph-name="atilde" unicode="&#xe3;" 
d="M26 148q0 74 50 113t135 39h99v29q0 43 -18 58.5t-71 15.5q-39 0 -59 -8t-35 -32l-90 63q27 45 72.5 64t123.5 19q106 0 154 -41t48 -140v-328h-125v44q-32 -53 -108 -53q-81 0 -128.5 41.5t-47.5 115.5zM310 187v19h-84q-75 0 -75 -56t73 -56q45 0 65.5 21.5t20.5 71.5z
M307 569q-25 0 -64 14q-37 15 -53 15q-30 0 -53 -27l-67 64q48 61 117 61q25 0 62 -15q39 -14 55 -14q27 0 51 27l67 -64q-46 -61 -115 -61z" />
    <glyph glyph-name="adieresis" unicode="&#xe4;" 
d="M26 148q0 74 50 113t135 39h99v29q0 43 -18 58.5t-71 15.5q-39 0 -59 -8t-35 -32l-90 63q27 45 72.5 64t123.5 19q106 0 154 -41t48 -140v-328h-125v44q-32 -53 -108 -53q-81 0 -128.5 41.5t-47.5 115.5zM310 187v19h-84q-75 0 -75 -56t73 -56q45 0 65.5 21.5t20.5 71.5z
M193 573h-124v117h124v-117zM396 573h-123v117h123v-117z" />
    <glyph glyph-name="aring" unicode="&#xe5;" 
d="M26 148q0 74 50 113t135 39h99v29q0 43 -18 58.5t-71 15.5q-39 0 -59 -8t-35 -32l-90 63q27 45 72.5 64t123.5 19q106 0 154 -41t48 -140v-328h-125v44q-32 -53 -108 -53q-81 0 -128.5 41.5t-47.5 115.5zM310 187v19h-84q-75 0 -75 -56t73 -56q45 0 65.5 21.5t20.5 71.5z
M155 567q-34 31 -34 79t34 79t89 31t89 -31t34 -79t-34 -79q-35 -30 -89 -30t-89 30zM207 646q0 -20 10 -32t27 -12q37 0 37 44q0 43 -37 43t-37 -43z" />
    <glyph glyph-name="ae" unicode="&#xe6;" horiz-adv-x="760" 
d="M618 142l94 -66q-49 -85 -182 -85q-114 0 -163 69q-55 -69 -164 -69q-82 0 -129.5 41.5t-47.5 113.5q0 76 50.5 115t138.5 39h95v25q0 44 -17 61t-69 17q-42 0 -62 -8.5t-35 -31.5l-90 61q51 85 199 85q102 0 146 -48q48 48 132 48q206 0 206 -235v-58h-285
q1 -117 95 -117q33 0 52.5 9.5t35.5 33.5zM310 186v20h-85q-74 0 -74 -56t73 -56q44 0 65 21t21 71zM435 307h157q-4 94 -77 94t-80 -94z" />
    <glyph glyph-name="ccedilla" unicode="&#xe7;" horiz-adv-x="446" 
d="M204 -72l13 66q-87 10 -135.5 69.5t-48.5 153.5v68q0 109 59 166.5t171 57.5q122 0 175 -83l-96 -67q-30 42 -82 42q-100 0 -100 -124v-52q0 -60 21 -93q23 -33 79 -33q58 0 83 43l95 -66q-43 -72 -141 -83l-4 -15q52 -19 52 -72q0 -40 -32 -63t-86 -23q-31 0 -46 4
l15 65q16 -2 19 -2q33 0 33 21q0 20 -44 20z" />
    <glyph glyph-name="egrave" unicode="&#xe8;" 
d="M343 142l95 -66q-49 -85 -183 -85q-106 0 -164 61.5t-58 164.5v68q0 110 53 167t153 57q206 0 206 -234v-57h-285q2 -119 94 -119q36 0 54.5 9.5t34.5 33.5zM240 401q-72 0 -80 -92h157q-5 92 -77 92zM113 725h143l70 -158h-122z" />
    <glyph glyph-name="eacute" unicode="&#xe9;" 
d="M343 142l95 -66q-49 -85 -183 -85q-106 0 -164 61.5t-58 164.5v68q0 110 53 167t153 57q206 0 206 -234v-57h-285q2 -119 94 -119q36 0 54.5 9.5t34.5 33.5zM240 401q-72 0 -80 -92h157q-5 92 -77 92zM286 567h-122l70 158h143z" />
    <glyph glyph-name="ecircumflex" unicode="&#xea;" 
d="M343 142l95 -66q-49 -85 -183 -85q-106 0 -164 61.5t-58 164.5v68q0 110 53 167t153 57q206 0 206 -234v-57h-285q2 -119 94 -119q36 0 54.5 9.5t34.5 33.5zM240 401q-72 0 -80 -92h157q-5 92 -77 92zM78 568l108 142h106l108 -142h-114l-47 65l-47 -65h-114z" />
    <glyph glyph-name="edieresis" unicode="&#xeb;" 
d="M343 142l95 -66q-49 -85 -183 -85q-106 0 -164 61.5t-58 164.5v68q0 110 53 167t153 57q206 0 206 -234v-57h-285q2 -119 94 -119q36 0 54.5 9.5t34.5 33.5zM240 401q-72 0 -80 -92h157q-5 92 -77 92zM199 573h-124v117h124v-117zM402 573h-123v117h123v-117z" />
    <glyph glyph-name="igrave" unicode="&#xec;" horiz-adv-x="260" 
d="M194 0h-128v500h128v-500zM-24 725h143l70 -158h-122z" />
    <glyph glyph-name="iacute" unicode="&#xed;" horiz-adv-x="260" 
d="M194 0h-128v500h128v-500zM183 567h-122l70 158h143z" />
    <glyph glyph-name="icircumflex" unicode="&#xee;" horiz-adv-x="260" 
d="M194 0h-128v500h128v-500zM-36 568l108 142h106l108 -142h-114l-47 65l-47 -65h-114z" />
    <glyph glyph-name="idieresis" unicode="&#xef;" horiz-adv-x="260" 
d="M194 0h-128v500h128v-500zM85 573h-124v117h124v-117zM288 573h-123v117h123v-117z" />
    <glyph glyph-name="eth" unicode="&#xf0;" horiz-adv-x="505" 
d="M238 524l-73 38l22 42q-25 9 -54 21l45 85l53 -22l26 50l73 -39l-24 -45q91 -43 125 -97q34 -53 34 -167v-98v-14v-57q0 -109 -54.5 -169.5t-161.5 -60.5q-105 0 -160.5 60.5t-55.5 169.5v60q0 110 55 169t157 59q70 0 110 -35q-6 35 -26 56t-66 42zM249 99q89 0 89 126
v52q0 124 -89 124t-89 -124v-52q0 -63 20.5 -94.5t68.5 -31.5z" />
    <glyph glyph-name="ntilde" unicode="&#xf1;" horiz-adv-x="526" 
d="M179 0h-128v500h125v-42q39 51 115 51q183 0 183 -196v-313h-127v293q0 56 -19.5 81t-60.5 25q-88 0 -88 -105v-294zM324 569q-25 0 -64 14q-38 15 -53 15q-31 0 -53 -27l-67 64q48 61 117 61q24 0 62 -15q39 -14 55 -14q27 0 51 27l67 -64q-46 -61 -115 -61z" />
    <glyph glyph-name="ograve" unicode="&#xf2;" horiz-adv-x="499" 
d="M465 281v-60q0 -109 -54.5 -169.5t-161.5 -60.5q-105 0 -160.5 60.5t-55.5 169.5v60q0 111 55.5 169.5t160.5 58.5t160.5 -58t55.5 -170zM249 99q89 0 89 126v52q0 124 -89 124t-89 -124v-52q0 -63 20.5 -94.5t68.5 -31.5zM126 725h143l70 -158h-122z" />
    <glyph glyph-name="oacute" unicode="&#xf3;" horiz-adv-x="499" 
d="M465 281v-60q0 -109 -54.5 -169.5t-161.5 -60.5q-105 0 -160.5 60.5t-55.5 169.5v60q0 111 55.5 169.5t160.5 58.5t160.5 -58t55.5 -170zM249 99q89 0 89 126v52q0 124 -89 124t-89 -124v-52q0 -63 20.5 -94.5t68.5 -31.5zM301 567h-122l70 158h143z" />
    <glyph glyph-name="ocircumflex" unicode="&#xf4;" horiz-adv-x="499" 
d="M465 281v-60q0 -109 -54.5 -169.5t-161.5 -60.5q-105 0 -160.5 60.5t-55.5 169.5v60q0 111 55.5 169.5t160.5 58.5t160.5 -58t55.5 -170zM249 99q89 0 89 126v52q0 124 -89 124t-89 -124v-52q0 -63 20.5 -94.5t68.5 -31.5zM88 568l108 142h106l108 -142h-114l-47 65
l-47 -65h-114z" />
    <glyph glyph-name="otilde" unicode="&#xf5;" horiz-adv-x="499" 
d="M465 281v-60q0 -109 -54.5 -169.5t-161.5 -60.5q-105 0 -160.5 60.5t-55.5 169.5v60q0 111 55.5 169.5t160.5 58.5t160.5 -58t55.5 -170zM249 99q89 0 89 126v52q0 124 -89 124t-89 -124v-52q0 -63 20.5 -94.5t68.5 -31.5zM311 569q-25 0 -64 14q-38 15 -53 15
q-30 0 -53 -27l-67 64q48 61 117 61q25 0 62 -15q39 -14 55 -14q27 0 51 27l67 -64q-46 -61 -115 -61z" />
    <glyph glyph-name="odieresis" unicode="&#xf6;" horiz-adv-x="499" 
d="M465 281v-60q0 -109 -54.5 -169.5t-161.5 -60.5q-105 0 -160.5 60.5t-55.5 169.5v60q0 111 55.5 169.5t160.5 58.5t160.5 -58t55.5 -170zM249 99q89 0 89 126v52q0 124 -89 124t-89 -124v-52q0 -63 20.5 -94.5t68.5 -31.5zM209 573h-124v117h124v-117zM412 573h-123v117
h123v-117z" />
    <glyph glyph-name="divide" unicode="&#xf7;" horiz-adv-x="506" 
d="M447 298h-389v112h389v-112zM313 460h-121v121h121v-121zM313 128h-121v120h121v-120z" />
    <glyph glyph-name="oslash" unicode="&#xf8;" horiz-adv-x="499" 
d="M175 0l-35 -79h-77l49 109q-79 58 -79 191v60q0 111 55.5 169.5t160.5 58.5q40 0 73 -9l37 82h77l-50 -111q79 -55 79 -190v-60q0 -109 -54.5 -169.5t-161.5 -60.5q-41 0 -74 9zM160 277v-52q0 -40 8 -69l108 241q-15 4 -27 4q-89 0 -89 -124zM249 99q89 0 89 126v52
q0 39 -9 66l-108 -241q12 -3 28 -3z" />
    <glyph glyph-name="ugrave" unicode="&#xf9;" horiz-adv-x="526" 
d="M347 500h127v-500h-125v42q-18 -28 -43 -39.5t-71 -11.5q-87 0 -135.5 48t-48.5 149v312h128v-293q0 -56 19.5 -81t61.5 -25q87 0 87 105v294zM138 725h143l70 -158h-122z" />
    <glyph glyph-name="uacute" unicode="&#xfa;" horiz-adv-x="526" 
d="M347 500h127v-500h-125v42q-18 -28 -43 -39.5t-71 -11.5q-87 0 -135.5 48t-48.5 149v312h128v-293q0 -56 19.5 -81t61.5 -25q87 0 87 105v294zM318 567h-122l70 158h143z" />
    <glyph glyph-name="ucircumflex" unicode="&#xfb;" horiz-adv-x="526" 
d="M347 500h127v-500h-125v42q-18 -28 -43 -39.5t-71 -11.5q-87 0 -135.5 48t-48.5 149v312h128v-293q0 -56 19.5 -81t61.5 -25q87 0 87 105v294zM102 568l108 142h106l108 -142h-114l-47 65l-47 -65h-114z" />
    <glyph glyph-name="udieresis" unicode="&#xfc;" horiz-adv-x="526" 
d="M347 500h127v-500h-125v42q-18 -28 -43 -39.5t-71 -11.5q-87 0 -135.5 48t-48.5 149v312h128v-293q0 -56 19.5 -81t61.5 -25q87 0 87 105v294zM223 573h-124v117h124v-117zM426 573h-123v117h123v-117z" />
    <glyph glyph-name="yacute" unicode="&#xfd;" horiz-adv-x="479" 
d="M192 -7l-187 507h134l111 -320l100 320h129l-175 -523q-35 -102 -79 -134q-45 -33 -150 -33v114q55 0 78.5 13.5t38.5 55.5zM309 567h-122l70 158h143z" />
    <glyph glyph-name="thorn" unicode="&#xfe;" horiz-adv-x="517" 
d="M484 285v-68q0 -101 -51 -164q-50 -62 -144 -62q-75 0 -110 29v-210h-128v880h128v-223q37 42 111 42q89 0 141.5 -59.5t52.5 -164.5zM268 99q88 0 88 126v52q0 124 -88 124q-89 0 -89 -113v-63q0 -63 20.5 -94.5t68.5 -31.5z" />
    <glyph glyph-name="ydieresis" unicode="&#xff;" horiz-adv-x="479" 
d="M192 -7l-187 507h134l111 -320l100 320h129l-175 -523q-35 -102 -79 -134q-45 -33 -150 -33v114q55 0 78.5 13.5t38.5 55.5zM208 573h-124v117h124v-117zM411 573h-123v117h123v-117z" />
    <glyph glyph-name="Amacron" unicode="&#x100;" horiz-adv-x="607" 
d="M188 131l-42 -131h-150l240 690h134l240 -690h-149l-42 131h-231zM381 249l-78 243l-78 -243h156zM465 744h-322v112h322v-112z" />
    <glyph glyph-name="amacron" unicode="&#x101;" 
d="M26 148q0 74 50 113t135 39h99v29q0 43 -18 58.5t-71 15.5q-39 0 -59 -8t-35 -32l-90 63q27 45 72.5 64t123.5 19q106 0 154 -41t48 -140v-328h-125v44q-32 -53 -108 -53q-81 0 -128.5 41.5t-47.5 115.5zM310 187v19h-84q-75 0 -75 -56t73 -56q45 0 65.5 21.5t20.5 71.5z
M386 573h-283v111h283v-111z" />
    <glyph glyph-name="Abreve" unicode="&#x102;" horiz-adv-x="607" 
d="M188 131l-42 -131h-150l240 690h134l240 -690h-149l-42 131h-231zM381 249l-78 243l-78 -243h156zM383 879h112q0 -71 -52.5 -111.5t-138.5 -40.5t-138.5 40.5t-52.5 111.5h111q10 -54 80 -54q68 0 79 54z" />
    <glyph glyph-name="abreve" unicode="&#x103;" 
d="M26 148q0 74 50 113t135 39h99v29q0 43 -18 58.5t-71 15.5q-39 0 -59 -8t-35 -32l-90 63q27 45 72.5 64t123.5 19q106 0 154 -41t48 -140v-328h-125v44q-32 -53 -108 -53q-81 0 -128.5 41.5t-47.5 115.5zM310 187v19h-84q-75 0 -75 -56t73 -56q45 0 65.5 21.5t20.5 71.5z
M310 690h92q-2 -63 -41 -97.5t-108 -34.5t-108.5 34.5t-41.5 97.5h93q8 -53 57 -53t57 53z" />
    <glyph glyph-name="Aogonek" unicode="&#x104;" horiz-adv-x="607" 
d="M188 131l-42 -131h-150l240 690h134l240 -690q-58 -51 -41 -74q7 -9 24 -9q5 0 19 2l15 -65q-15 -4 -48 -4q-48 0 -79 19.5t-31 56.5q0 42 35 74h-43l-42 131h-231zM381 249l-78 243l-78 -243h156z" />
    <glyph glyph-name="aogonek" unicode="&#x105;" horiz-adv-x="495" 
d="M26 148q0 74 50 113t135 39h99v29q0 43 -18 58.5t-71 15.5q-39 0 -59 -8t-35 -32l-90 63q27 45 72.5 64t123.5 19q106 0 154 -41t48 -140v-328q-25 -22 -33.5 -33t-11.5 -28q0 -22 27 -22q5 0 19 2l15 -65q-15 -4 -48 -4q-48 0 -79 19.5t-31 56.5q0 42 35 74h-18v44
q-32 -53 -108 -53q-81 0 -128.5 41.5t-47.5 115.5zM310 187v19h-84q-75 0 -75 -56t73 -56q45 0 65.5 21.5t20.5 71.5z" />
    <glyph glyph-name="Cacute" unicode="&#x106;" horiz-adv-x="594" 
d="M564 476h-134q-21 105 -119 105q-124 0 -124 -187v-98q0 -187 124 -187q51 0 79 25t40 80h133q-33 -223 -252 -223q-125 0 -194.5 77.5t-69.5 227.5v98q0 151 69.5 228t194.5 77q106 0 171 -56.5t82 -166.5zM345 742h-124l80 129h147z" />
    <glyph glyph-name="cacute" unicode="&#x107;" horiz-adv-x="446" 
d="M343 142l95 -66q-49 -85 -182 -85q-105 0 -164 60.5t-59 165.5v68q0 109 59 166.5t171 57.5q122 0 175 -83l-96 -67q-30 42 -82 42q-100 0 -100 -124v-52q0 -60 21 -93q23 -33 79 -33q58 0 83 43zM305 567h-122l70 158h143z" />
    <glyph glyph-name="Ccircumflex" unicode="&#x108;" horiz-adv-x="594" 
d="M564 476h-134q-21 105 -119 105q-124 0 -124 -187v-98q0 -187 124 -187q51 0 79 25t40 80h133q-33 -223 -252 -223q-125 0 -194.5 77.5t-69.5 227.5v98q0 151 69.5 228t194.5 77q106 0 171 -56.5t82 -166.5zM118 737l138 142h105l138 -142h-133l-58 61l-57 -61h-133z" />
    <glyph glyph-name="ccircumflex" unicode="&#x109;" horiz-adv-x="446" 
d="M343 142l95 -66q-49 -85 -182 -85q-105 0 -164 60.5t-59 165.5v68q0 109 59 166.5t171 57.5q122 0 175 -83l-96 -67q-30 42 -82 42q-100 0 -100 -124v-52q0 -60 21 -93q23 -33 79 -33q58 0 83 43zM98 568l108 142h106l108 -142h-114l-47 65l-47 -65h-114z" />
    <glyph glyph-name="Cdotaccent" unicode="&#x10a;" horiz-adv-x="594" 
d="M564 476h-134q-21 105 -119 105q-124 0 -124 -187v-98q0 -187 124 -187q51 0 79 25t40 80h133q-33 -223 -252 -223q-125 0 -194.5 77.5t-69.5 227.5v98q0 151 69.5 228t194.5 77q106 0 171 -56.5t82 -166.5zM380 759h-141v110h141v-110z" />
    <glyph glyph-name="cdotaccent" unicode="&#x10b;" horiz-adv-x="446" 
d="M343 142l95 -66q-49 -85 -182 -85q-105 0 -164 60.5t-59 165.5v68q0 109 59 166.5t171 57.5q122 0 175 -83l-96 -67q-30 42 -82 42q-100 0 -100 -124v-52q0 -60 21 -93q23 -33 79 -33q58 0 83 43zM320 566h-138v124h138v-124z" />
    <glyph glyph-name="Ccaron" unicode="&#x10c;" horiz-adv-x="594" 
d="M564 476h-134q-21 105 -119 105q-124 0 -124 -187v-98q0 -187 124 -187q51 0 79 25t40 80h133q-33 -223 -252 -223q-125 0 -194.5 77.5t-69.5 227.5v98q0 151 69.5 228t194.5 77q106 0 171 -56.5t82 -166.5zM496 879l-138 -142h-105l-138 142h133l57 -61l58 61h133z" />
    <glyph glyph-name="ccaron" unicode="&#x10d;" horiz-adv-x="446" 
d="M343 142l95 -66q-49 -85 -182 -85q-105 0 -164 60.5t-59 165.5v68q0 109 59 166.5t171 57.5q122 0 175 -83l-96 -67q-30 42 -82 42q-100 0 -100 -124v-52q0 -60 21 -93q23 -33 79 -33q58 0 83 43zM416 710l-108 -142h-106l-108 142h114l47 -65l47 65h114z" />
    <glyph glyph-name="Dcaron" unicode="&#x10e;" horiz-adv-x="625" 
d="M313 0h-245v690h245q265 0 265 -300v-90q0 -300 -265 -300zM208 118h105q67 0 96 43.5t29 138.5v90q0 94 -29 137.5t-96 43.5h-105v-453zM479 879l-138 -142h-105l-138 142h133l57 -61l58 61h133z" />
    <glyph glyph-name="dcaron" unicode="&#x10f;" horiz-adv-x="538" 
d="M338 474v216h127v-690h-127v29q-41 -38 -107 -38q-95 0 -146.5 61t-51.5 165v68q0 106 53 165t145 59q66 0 107 -35zM249 99q48 0 68.5 31.5t20.5 94.5v63q0 113 -89 113t-89 -124v-52q0 -126 89 -126zM499 689h137v-129l-137 -117v246z" />
    <glyph glyph-name="Dcroat" unicode="&#x110;" horiz-adv-x="636" 
d="M324 0h-245v298h-89v118h89v274h245q265 0 265 -300v-90q0 -300 -265 -300zM219 118h105q67 0 96 43.5t29 138.5v90q0 94 -29 137.5t-96 43.5h-105v-155h140v-118h-140v-180z" />
    <glyph glyph-name="dslash" unicode="&#x111;" horiz-adv-x="517" 
d="M338 474v64h-124v105h124v47h127v-47h75v-105h-75v-538h-127v29q-41 -38 -107 -38q-95 0 -146.5 61t-51.5 165v68q0 106 53 165t145 59q66 0 107 -35zM249 99q48 0 68.5 31.5t20.5 94.5v63q0 113 -89 113t-89 -124v-52q0 -126 89 -126z" />
    <glyph glyph-name="Emacron" unicode="&#x112;" horiz-adv-x="527" 
d="M68 0v690h430v-119h-290v-155h260v-118h-260v-180h290v-118h-430zM444 744h-322v112h322v-112z" />
    <glyph glyph-name="emacron" unicode="&#x113;" 
d="M343 142l95 -66q-49 -85 -183 -85q-106 0 -164 61.5t-58 164.5v68q0 110 53 167t153 57q206 0 206 -234v-57h-285q2 -119 94 -119q36 0 54.5 9.5t34.5 33.5zM240 401q-72 0 -80 -92h157q-5 92 -77 92zM381 573h-283v111h283v-111z" />
    <glyph glyph-name="Edotaccent" unicode="&#x116;" horiz-adv-x="527" 
d="M68 0v690h430v-119h-290v-155h260v-118h-260v-180h290v-118h-430zM353 759h-141v110h141v-110z" />
    <glyph glyph-name="edotaccent" unicode="&#x117;" 
d="M343 142l95 -66q-49 -85 -183 -85q-106 0 -164 61.5t-58 164.5v68q0 110 53 167t153 57q206 0 206 -234v-57h-285q2 -119 94 -119q36 0 54.5 9.5t34.5 33.5zM240 401q-72 0 -80 -92h157q-5 92 -77 92zM308 566h-138v124h138v-124z" />
    <glyph glyph-name="Eogonek" unicode="&#x118;" horiz-adv-x="527" 
d="M68 0v690h430v-119h-290v-155h260v-118h-260v-180h290v-118h-111q-25 -22 -33.5 -33t-11.5 -28q0 -22 27 -22q5 0 19 2l15 -65q-15 -4 -48 -4q-48 0 -79 19.5t-31 56.5q0 42 35 74h-212z" />
    <glyph glyph-name="eogonek" unicode="&#x119;" 
d="M343 142l95 -66q-38 -65 -120 -80q-40 -34 -40 -57q0 -22 27 -22q5 0 19 2l15 -65q-15 -4 -48 -4q-48 0 -79 19.5t-31 56.5t29 69q-85 12 -131 71t-46 151v68q0 110 53 167t153 57q206 0 206 -234v-57h-285q2 -119 94 -119q36 0 54.5 9.5t34.5 33.5zM240 401
q-72 0 -80 -92h157q-5 92 -77 92z" />
    <glyph glyph-name="Ecaron" unicode="&#x11a;" horiz-adv-x="527" 
d="M68 0v690h430v-119h-290v-155h260v-118h-260v-180h290v-118h-430zM473 879l-138 -142h-105l-138 142h133l57 -61l58 61h133z" />
    <glyph glyph-name="ecaron" unicode="&#x11b;" 
d="M343 142l95 -66q-49 -85 -183 -85q-106 0 -164 61.5t-58 164.5v68q0 110 53 167t153 57q206 0 206 -234v-57h-285q2 -119 94 -119q36 0 54.5 9.5t34.5 33.5zM240 401q-72 0 -80 -92h157q-5 92 -77 92zM403 710l-108 -142h-106l-108 142h114l47 -65l47 65h114z" />
    <glyph glyph-name="Gcircumflex" unicode="&#x11c;" horiz-adv-x="612" 
d="M314 241v118h251v-63q0 -152 -65.5 -228.5t-188.5 -76.5q-125 0 -194.5 77.5t-69.5 227.5v88q0 158 69 236.5t195 78.5q107 0 172 -57.5t81 -165.5h-134q-20 105 -119 105q-124 0 -124 -187v-98q0 -187 124 -187q56 0 84.5 32.5t34.5 99.5h-116zM115 737l138 142h105
l138 -142h-133l-58 61l-57 -61h-133z" />
    <glyph glyph-name="gcircumflex" unicode="&#x11d;" horiz-adv-x="517" 
d="M338 474v26h127v-490q0 -121 -63 -166q-57 -40 -157 -40q-73 0 -118.5 20.5t-77.5 69.5l86 62q33 -45 98 -45q58 0 81.5 21.5t23.5 77.5v16q-41 -35 -107 -35q-95 0 -146.5 61t-51.5 165v68q0 106 53 165t145 59q66 0 107 -35zM338 214v63q0 124 -89 124t-89 -124v-52
q0 -126 89 -126t89 115zM122 568l108 142h106l108 -142h-114l-47 65l-47 -65h-114z" />
    <glyph glyph-name="Gbreve" unicode="&#x11e;" horiz-adv-x="612" 
d="M314 241v118h251v-63q0 -152 -65.5 -228.5t-188.5 -76.5q-125 0 -194.5 77.5t-69.5 227.5v88q0 158 69 236.5t195 78.5q107 0 172 -57.5t81 -165.5h-134q-20 105 -119 105q-124 0 -124 -187v-98q0 -187 124 -187q56 0 84.5 32.5t34.5 99.5h-116zM385 879h112
q0 -71 -52.5 -111.5t-138.5 -40.5t-138.5 40.5t-52.5 111.5h111q10 -54 80 -54q68 0 79 54z" />
    <glyph glyph-name="gbreve" unicode="&#x11f;" horiz-adv-x="517" 
d="M338 474v26h127v-490q0 -121 -63 -166q-57 -40 -157 -40q-73 0 -118.5 20.5t-77.5 69.5l86 62q33 -45 98 -45q58 0 81.5 21.5t23.5 77.5v16q-41 -35 -107 -35q-95 0 -146.5 61t-51.5 165v68q0 106 53 165t145 59q66 0 107 -35zM338 214v63q0 124 -89 124t-89 -124v-52
q0 -126 89 -126t89 115zM341 690h92q-2 -63 -41 -97.5t-108 -34.5t-108.5 34.5t-41.5 97.5h93q8 -53 57 -53t57 53z" />
    <glyph glyph-name="Gdotaccent" unicode="&#x120;" horiz-adv-x="612" 
d="M314 241v118h251v-63q0 -152 -65.5 -228.5t-188.5 -76.5q-125 0 -194.5 77.5t-69.5 227.5v88q0 158 69 236.5t195 78.5q107 0 172 -57.5t81 -165.5h-134q-20 105 -119 105q-124 0 -124 -187v-98q0 -187 124 -187q56 0 84.5 32.5t34.5 99.5h-116zM381 759h-141v110h141
v-110z" />
    <glyph glyph-name="gdotaccent" unicode="&#x121;" horiz-adv-x="517" 
d="M338 474v26h127v-490q0 -121 -63 -166q-57 -40 -157 -40q-73 0 -118.5 20.5t-77.5 69.5l86 62q33 -45 98 -45q58 0 81.5 21.5t23.5 77.5v16q-41 -35 -107 -35q-95 0 -146.5 61t-51.5 165v68q0 106 53 165t145 59q66 0 107 -35zM338 214v63q0 124 -89 124t-89 -124v-52
q0 -126 89 -126t89 115zM346 566h-138v124h138v-124z" />
    <glyph glyph-name="Gcommaaccent" unicode="&#x122;" horiz-adv-x="612" 
d="M314 241v118h251v-63q0 -152 -65.5 -228.5t-188.5 -76.5q-125 0 -194.5 77.5t-69.5 227.5v88q0 158 69 236.5t195 78.5q107 0 172 -57.5t81 -165.5h-134q-20 105 -119 105q-124 0 -124 -187v-98q0 -187 124 -187q56 0 84.5 32.5t34.5 99.5h-116zM238 -51h137v-129
l-137 -117v246z" />
    <glyph glyph-name="gcommaaccent" unicode="&#x123;" horiz-adv-x="517" 
d="M338 474v26h127v-490q0 -121 -63 -166q-57 -40 -157 -40q-73 0 -118.5 20.5t-77.5 69.5l86 62q33 -45 98 -45q58 0 81.5 21.5t23.5 77.5v16q-41 -35 -107 -35q-95 0 -146.5 61t-51.5 165v68q0 106 53 165t145 59q66 0 107 -35zM338 214v63q0 124 -89 124t-89 -124v-52
q0 -126 89 -126t89 115zM326 542h-137v129l137 117v-246z" />
    <glyph glyph-name="Hcircumflex" unicode="&#x124;" horiz-adv-x="656" 
d="M68 690h140v-274h239v274h140v-690h-140v298h-239v-298h-140v690zM137 737l138 142h105l138 -142h-133l-58 61l-57 -61h-133z" />
    <glyph glyph-name="hcircumflex" unicode="&#x125;" horiz-adv-x="526" 
d="M179 0h-128v690h128v-229q36 48 112 48q183 0 183 -196v-313h-127v293q0 56 -19.5 81t-60.5 25q-88 0 -88 -105v-294zM-46 734l108 142h106l108 -142h-114l-47 65l-47 -65h-114z" />
    <glyph glyph-name="Hbar" unicode="&#x126;" horiz-adv-x="672" 
d="M76 690h140v-97h239v97h140v-97h87v-125h-87v-468h-140v298h-239v-298h-140v468h-86v125h86v97zM216 468v-52h239v52h-239z" />
    <glyph glyph-name="hbar" unicode="&#x127;" horiz-adv-x="529" 
d="M54 538h-80v105h80v47h128v-47h131v-105h-131v-77q36 48 112 48q183 0 183 -196v-313h-127v293q0 56 -19.5 81t-60.5 25q-88 0 -88 -105v-294h-128v538z" />
    <glyph glyph-name="Imacron" unicode="&#x12a;" horiz-adv-x="296" 
d="M78 690h140v-690h-140v690zM310 744h-322v112h322v-112z" />
    <glyph glyph-name="imacron" unicode="&#x12b;" horiz-adv-x="260" 
d="M194 0h-128v500h128v-500zM267 573h-283v111h283v-111z" />
    <glyph glyph-name="Iogonek" unicode="&#x12e;" horiz-adv-x="296" 
d="M78 690h140v-690q-25 -22 -33.5 -33t-11.5 -28q0 -22 27 -22q5 0 19 2l15 -65q-15 -4 -48 -4q-48 0 -79 19.5t-31 56.5q0 42 35 74h-33v690z" />
    <glyph glyph-name="iogonek" unicode="&#x12f;" horiz-adv-x="260" 
d="M87 0h-21v500h128v-500q-25 -22 -33.5 -33t-11.5 -28q0 -22 27 -22q5 0 19 2l15 -65q-15 -4 -48 -4q-48 0 -79 19.5t-31 56.5q0 42 35 74zM199 566h-138v124h138v-124z" />
    <glyph glyph-name="Idot" unicode="&#x130;" horiz-adv-x="296" 
d="M78 690h140v-690h-140v690zM219 759h-141v110h141v-110z" />
    <glyph glyph-name="dotlessi" unicode="&#x131;" horiz-adv-x="260" 
d="M194 0h-128v500h128v-500z" />
    <glyph glyph-name="Jcircumflex" unicode="&#x134;" horiz-adv-x="512" 
d="M-9 94l116 65q35 -50 94 -50q54 0 78.5 35.5t24.5 120.5v425h140v-425q0 -141 -59 -207.5t-175 -66.5q-147 0 -219 103zM187 737l138 142h105l138 -142h-133l-58 61l-57 -61h-133z" />
    <glyph glyph-name="jcircumflex" unicode="&#x135;" horiz-adv-x="251" 
d="M67 500h127v-527q0 -93 -45 -128q-46 -35 -149 -35v110q37 0 52 16.5t15 54.5v509zM-34 568l108 142h106l108 -142h-114l-47 65l-47 -65h-114z" />
    <glyph glyph-name="Kcommaaccent" unicode="&#x136;" horiz-adv-x="645" 
d="M381 411l252 -411h-167l-176 291l-82 -108v-183h-140v690h140v-298l218 298h166zM256 -51h137v-129l-137 -117v246z" />
    <glyph glyph-name="kcommaaccent" unicode="&#x137;" horiz-adv-x="502" 
d="M179 318l140 182h152l-173 -209l202 -291h-150l-137 188l-34 -42v-146h-128v690h128v-372zM192 -51h137v-129l-137 -117v246z" />
    <glyph glyph-name="Lacute" unicode="&#x139;" horiz-adv-x="504" 
d="M68 690h140v-572h290v-118h-430v690zM208 742h-124l80 129h147z" />
    <glyph glyph-name="lacute" unicode="&#x13a;" horiz-adv-x="285" 
d="M51 160v530h128v-501q0 -43 15.5 -61t54.5 -18v-110q-107 0 -152.5 35.5t-45.5 124.5zM176 723h-122l70 158h143z" />
    <glyph glyph-name="Lcommaaccent" unicode="&#x13b;" horiz-adv-x="504" 
d="M68 690h140v-572h290v-118h-430v690zM215 -51h137v-129l-137 -117v246z" />
    <glyph glyph-name="lcommaaccent" unicode="&#x13c;" horiz-adv-x="285" 
d="M51 160v530h128v-501q0 -43 15.5 -61t54.5 -18v-110q-107 0 -152.5 35.5t-45.5 124.5zM86 -51h137v-129l-137 -117v246z" />
    <glyph glyph-name="Lcaron" unicode="&#x13d;" horiz-adv-x="504" 
d="M68 690h140v-572h290v-118h-430v690zM307 706h134v-165l-134 -114v279z" />
    <glyph glyph-name="lcaron" unicode="&#x13e;" horiz-adv-x="281" 
d="M51 160v530h128v-501q0 -43 15.5 -61t54.5 -18v-110q-107 0 -152.5 35.5t-45.5 124.5zM222 689h137v-129l-137 -117v246z" />
    <glyph glyph-name="Ldot" unicode="&#x13f;" horiz-adv-x="504" 
d="M68 690h140v-572h290v-118h-430v690zM459 326h-138v124h138v-124z" />
    <glyph glyph-name="ldot" unicode="&#x140;" horiz-adv-x="367" 
d="M51 160v530h128v-501q0 -43 15.5 -61t54.5 -18v-110q-107 0 -152.5 35.5t-45.5 124.5zM365 353h-141v110h141v-110z" />
    <glyph glyph-name="Lslash" unicode="&#x141;" horiz-adv-x="538" 
d="M101 690h140v-192l94 75l71 -90l-165 -132v-233h290v-118h-430v239l-57 -45l-71 90l128 102v304z" />
    <glyph glyph-name="lslash" unicode="&#x142;" horiz-adv-x="294" 
d="M81 271l-51 -35l-40 60l91 62v332h128v-243l54 37l40 -59l-94 -65v-171q0 -43 15.5 -61t54.5 -18v-110q-107 0 -152.5 35.5t-45.5 124.5v111z" />
    <glyph glyph-name="Nacute" unicode="&#x143;" horiz-adv-x="656" 
d="M454 257v433h133v-690h-117l-269 427v-427h-133v690h116zM386 742h-124l80 129h147z" />
    <glyph glyph-name="nacute" unicode="&#x144;" horiz-adv-x="526" 
d="M179 0h-128v500h125v-42q39 51 115 51q183 0 183 -196v-313h-127v293q0 56 -19.5 81t-60.5 25q-88 0 -88 -105v-294zM313 567h-122l70 158h143z" />
    <glyph glyph-name="Ncommaaccent" unicode="&#x145;" horiz-adv-x="656" 
d="M454 257v433h133v-690h-117l-269 427v-427h-133v690h116zM264 -51h137v-129l-137 -117v246z" />
    <glyph glyph-name="ncommaaccent" unicode="&#x146;" horiz-adv-x="526" 
d="M179 0h-128v500h125v-42q39 51 115 51q183 0 183 -196v-313h-127v293q0 56 -19.5 81t-60.5 25q-88 0 -88 -105v-294zM197 -51h137v-129l-137 -117v246z" />
    <glyph glyph-name="Ncaron" unicode="&#x147;" horiz-adv-x="656" 
d="M454 257v433h133v-690h-117l-269 427v-427h-133v690h116zM518 879l-138 -142h-105l-138 142h133l57 -61l58 61h133z" />
    <glyph glyph-name="ncaron" unicode="&#x148;" horiz-adv-x="526" 
d="M179 0h-128v500h125v-42q39 51 115 51q183 0 183 -196v-313h-127v293q0 56 -19.5 81t-60.5 25q-88 0 -88 -105v-294zM424 710l-108 -142h-106l-108 142h114l47 -65l47 65h114z" />
    <glyph glyph-name="Omacron" unicode="&#x14c;" horiz-adv-x="623" 
d="M576 394v-98q0 -150 -70 -227.5t-195 -77.5t-194.5 77.5t-69.5 227.5v98q0 151 69.5 228t194.5 77q126 0 195.5 -77t69.5 -228zM187 394v-98q0 -187 124 -187q125 0 125 187v98q0 187 -125 187q-124 0 -124 -187zM473 744h-322v112h322v-112z" />
    <glyph glyph-name="omacron" unicode="&#x14d;" horiz-adv-x="499" 
d="M465 281v-60q0 -109 -54.5 -169.5t-161.5 -60.5q-105 0 -160.5 60.5t-55.5 169.5v60q0 111 55.5 169.5t160.5 58.5t160.5 -58t55.5 -170zM249 99q89 0 89 126v52q0 124 -89 124t-89 -124v-52q0 -63 20.5 -94.5t68.5 -31.5zM391 573h-283v111h283v-111z" />
    <glyph glyph-name="Ohungarumlaut" unicode="&#x150;" horiz-adv-x="623" 
d="M576 394v-98q0 -150 -70 -227.5t-195 -77.5t-194.5 77.5t-69.5 227.5v98q0 151 69.5 228t194.5 77q126 0 195.5 -77t69.5 -228zM187 394v-98q0 -187 124 -187q125 0 125 187v98q0 187 -125 187q-124 0 -124 -187zM255 742h-125l80 129h148zM458 742h-124l90 129h147z" />
    <glyph glyph-name="ohungarumlaut" unicode="&#x151;" horiz-adv-x="499" 
d="M465 281v-60q0 -109 -54.5 -169.5t-161.5 -60.5q-105 0 -160.5 60.5t-55.5 169.5v60q0 111 55.5 169.5t160.5 58.5t160.5 -58t55.5 -170zM249 99q89 0 89 126v52q0 124 -89 124t-89 -124v-52q0 -63 20.5 -94.5t68.5 -31.5zM386 567h-123l90 158h144zM211 567h-122l70 158
h143z" />
    <glyph glyph-name="OE" unicode="&#x152;" horiz-adv-x="896" 
d="M436 690h430v-119h-290v-155h260v-118h-260v-180h290v-118h-430v24q-48 -33 -125 -33q-125 0 -194.5 77.5t-69.5 227.5v98q0 151 69.5 228t194.5 77q77 0 125 -33v24zM187 394v-98q0 -187 124 -187q125 0 125 177v118q0 177 -125 177q-124 0 -124 -187z" />
    <glyph glyph-name="oe" unicode="&#x153;" horiz-adv-x="791" 
d="M648 142l95 -66q-27 -45 -69.5 -65t-115.5 -20q-98 0 -153 67q-51 -67 -156 -67q-103 0 -159.5 60t-56.5 166v68q0 107 56 165.5t160 58.5q102 0 153 -63q51 63 148 63q98 0 149 -59.5t51 -170.5v-63h-285q0 -117 94 -117q35 0 54 9.5t35 33.5zM338 217v68q0 116 -89 116
t-89 -116v-68q0 -118 89 -118t89 118zM544 401q-72 0 -79 -94h157q-4 94 -78 94z" />
    <glyph glyph-name="Racute" unicode="&#x154;" horiz-adv-x="617" 
d="M455 294l143 -294h-154l-124 271h-112v-271h-140v690h247q123 0 190.5 -54.5t67.5 -156.5q0 -136 -118 -185zM208 571v-182h94q69 0 100 20t31 70t-31.5 71t-99.5 21h-94zM332 742h-124l80 129h147z" />
    <glyph glyph-name="racute" unicode="&#x155;" horiz-adv-x="410" 
d="M420 431l-98 -70q-26 38 -63 38t-58.5 -27.5t-21.5 -77.5v-294h-128v500h125v-42q34 51 109 51q90 0 135 -78zM258 567h-122l70 158h143z" />
    <glyph glyph-name="Rcommaaccent" unicode="&#x156;" horiz-adv-x="617" 
d="M455 294l143 -294h-154l-124 271h-112v-271h-140v690h247q123 0 190.5 -54.5t67.5 -156.5q0 -136 -118 -185zM208 571v-182h94q69 0 100 20t31 70t-31.5 71t-99.5 21h-94zM252 -51h137v-129l-137 -117v246z" />
    <glyph glyph-name="rcommaaccent" unicode="&#x157;" horiz-adv-x="410" 
d="M420 431l-98 -70q-26 38 -63 38t-58.5 -27.5t-21.5 -77.5v-294h-128v500h125v-42q34 51 109 51q90 0 135 -78zM48 -51h137v-129l-137 -117v246z" />
    <glyph glyph-name="Rcaron" unicode="&#x158;" horiz-adv-x="617" 
d="M455 294l143 -294h-154l-124 271h-112v-271h-140v690h247q123 0 190.5 -54.5t67.5 -156.5q0 -136 -118 -185zM208 571v-182h94q69 0 100 20t31 70t-31.5 71t-99.5 21h-94zM493 879l-138 -142h-105l-138 142h133l57 -61l58 61h133z" />
    <glyph glyph-name="rcaron" unicode="&#x159;" horiz-adv-x="410" 
d="M420 431l-98 -70q-26 38 -63 38t-58.5 -27.5t-21.5 -77.5v-294h-128v500h125v-42q34 51 109 51q90 0 135 -78zM393 710l-108 -142h-106l-108 142h114l47 -65l47 65h114z" />
    <glyph glyph-name="Sacute" unicode="&#x15a;" horiz-adv-x="575" 
d="M532 586l-105 -75q-24 37 -55 53.5t-81 16.5q-47 0 -72 -20t-25 -56q0 -38 31 -60.5t105 -40.5q111 -29 160 -76q49 -46 49 -136q0 -92 -62 -146.5t-176 -54.5q-180 0 -266 113l107 74q30 -37 64.5 -53t85.5 -16q107 0 107 77q0 37 -30.5 60t-110.5 44q-105 27 -154.5 79
t-49.5 136q0 89 60.5 141.5t175.5 52.5q168 0 242 -113zM339 742h-124l80 129h147z" />
    <glyph glyph-name="sacute" unicode="&#x15b;" horiz-adv-x="464" 
d="M419 426l-94 -67q-19 22 -40 31t-58 9q-63 0 -63 -39q0 -21 18.5 -32t61.5 -17q95 -15 140 -54t45 -111q0 -73 -51 -114t-145 -41q-147 0 -207 83l98 70q31 -43 107 -43q71 0 71 41q0 23 -17.5 32.5t-67.5 18.5q-180 29 -180 162q0 73 50.5 113.5t142.5 40.5
q138 0 189 -83zM276 567h-122l70 158h143z" />
    <glyph glyph-name="Scircumflex" unicode="&#x15c;" horiz-adv-x="575" 
d="M532 586l-105 -75q-24 37 -55 53.5t-81 16.5q-47 0 -72 -20t-25 -56q0 -38 31 -60.5t105 -40.5q111 -29 160 -76q49 -46 49 -136q0 -92 -62 -146.5t-176 -54.5q-180 0 -266 113l107 74q30 -37 64.5 -53t85.5 -16q107 0 107 77q0 37 -30.5 60t-110.5 44q-105 27 -154.5 79
t-49.5 136q0 89 60.5 141.5t175.5 52.5q168 0 242 -113zM104 737l138 142h105l138 -142h-133l-58 61l-57 -61h-133z" />
    <glyph glyph-name="scircumflex" unicode="&#x15d;" horiz-adv-x="464" 
d="M419 426l-94 -67q-19 22 -40 31t-58 9q-63 0 -63 -39q0 -21 18.5 -32t61.5 -17q95 -15 140 -54t45 -111q0 -73 -51 -114t-145 -41q-147 0 -207 83l98 70q31 -43 107 -43q71 0 71 41q0 23 -17.5 32.5t-67.5 18.5q-180 29 -180 162q0 73 50.5 113.5t142.5 40.5
q138 0 189 -83zM68 568l108 142h106l108 -142h-114l-47 65l-47 -65h-114z" />
    <glyph glyph-name="Scedilla" unicode="&#x15e;" horiz-adv-x="575" 
d="M241 -72l13 65q-144 12 -219 111l107 74q30 -37 64.5 -53t85.5 -16q107 0 107 77q0 37 -30.5 60t-110.5 44q-105 27 -154.5 79t-49.5 136q0 89 60.5 141.5t175.5 52.5q168 0 242 -113l-105 -75q-24 37 -55 53.5t-81 16.5q-47 0 -72 -20t-25 -56q0 -38 31 -60.5t105 -40.5
q111 -29 160 -76q49 -46 49 -136q0 -84 -53 -137.5t-152 -61.5l-4 -15q53 -20 53 -72q0 -39 -32.5 -62.5t-86.5 -23.5q-31 0 -46 4l15 65q16 -2 19 -2q33 0 33 21q0 20 -44 20z" />
    <glyph glyph-name="scedilla" unicode="&#x15f;" horiz-adv-x="464" 
d="M182 -72l13 64q-117 9 -169 82l98 70q31 -43 107 -43q71 0 71 41q0 23 -17.5 32.5t-67.5 18.5q-180 29 -180 162q0 73 50.5 113.5t142.5 40.5q138 0 189 -83l-94 -67q-19 22 -40 31t-58 9q-63 0 -63 -39q0 -21 18.5 -32t61.5 -17q95 -15 140 -54t45 -111
q0 -66 -39.5 -105.5t-114.5 -47.5l-4 -15q52 -19 52 -72q0 -40 -32 -63t-86 -23q-31 0 -46 4l15 65q16 -2 19 -2q33 0 33 21q0 20 -44 20z" />
    <glyph glyph-name="Scaron" unicode="&#x160;" horiz-adv-x="575" 
d="M532 586l-105 -75q-24 37 -55 53.5t-81 16.5q-47 0 -72 -20t-25 -56q0 -38 31 -60.5t105 -40.5q111 -29 160 -76q49 -46 49 -136q0 -92 -62 -146.5t-176 -54.5q-180 0 -266 113l107 74q30 -37 64.5 -53t85.5 -16q107 0 107 77q0 37 -30.5 60t-110.5 44q-105 27 -154.5 79
t-49.5 136q0 89 60.5 141.5t175.5 52.5q168 0 242 -113zM478 879l-138 -142h-105l-138 142h133l57 -61l58 61h133z" />
    <glyph glyph-name="scaron" unicode="&#x161;" horiz-adv-x="464" 
d="M419 426l-94 -67q-19 22 -40 31t-58 9q-63 0 -63 -39q0 -21 18.5 -32t61.5 -17q95 -15 140 -54t45 -111q0 -73 -51 -114t-145 -41q-147 0 -207 83l98 70q31 -43 107 -43q71 0 71 41q0 23 -17.5 32.5t-67.5 18.5q-180 29 -180 162q0 73 50.5 113.5t142.5 40.5
q138 0 189 -83zM390 710l-108 -142h-106l-108 142h114l47 -65l47 65h114z" />
    <glyph glyph-name="Tcedilla" unicode="&#x162;" horiz-adv-x="536" 
d="M211 -72l15 72h-28v571h-190v119h520v-119h-190v-571h-32l-6 -22q53 -20 53 -72q0 -39 -32.5 -62.5t-86.5 -23.5q-31 0 -46 4l15 65q16 -2 19 -2q33 0 33 21q0 20 -44 20z" />
    <glyph glyph-name="tcedilla" unicode="&#x163;" horiz-adv-x="331" 
d="M156 -72l16 79q-50 11 -72 47t-22 109v229h-64v108h64v110h127v-110h98v-108h-98v-209q0 -40 12 -55.5t45 -15.5h41v-112h-52l-6 -22q52 -19 52 -72q0 -40 -32 -63t-86 -23q-31 0 -46 4l15 65q16 -2 19 -2q33 0 33 21q0 20 -44 20z" />
    <glyph glyph-name="Tcaron" unicode="&#x164;" horiz-adv-x="536" 
d="M8 571v119h520v-119h-190v-571h-140v571h-190zM459 879l-138 -142h-105l-138 142h133l57 -61l58 61h133z" />
    <glyph glyph-name="tcaron" unicode="&#x165;" horiz-adv-x="367" 
d="M78 392h-64v108h64v110h127v-110h98v-108h-98v-209q0 -40 12 -55.5t45 -15.5h41v-112h-54q-95 0 -133 34q-38 35 -38 129v229zM322 689h137v-129l-137 -117v246z" />
    <glyph glyph-name="Umacron" unicode="&#x16a;" horiz-adv-x="666" 
d="M458 279v411h140v-410q0 -143 -70.5 -216t-194.5 -73t-194.5 72.5t-70.5 215.5v411h140v-411q0 -88 30 -129t95 -41t95 41t30 129zM494 744h-322v112h322v-112z" />
    <glyph glyph-name="umacron" unicode="&#x16b;" horiz-adv-x="526" 
d="M347 500h127v-500h-125v42q-18 -28 -43 -39.5t-71 -11.5q-87 0 -135.5 48t-48.5 149v312h128v-293q0 -56 19.5 -81t61.5 -25q87 0 87 105v294zM405 573h-283v111h283v-111z" />
    <glyph glyph-name="Ubreve" unicode="&#x16c;" horiz-adv-x="666" 
d="M458 279v411h140v-410q0 -143 -70.5 -216t-194.5 -73t-194.5 72.5t-70.5 215.5v411h140v-411q0 -88 30 -129t95 -41t95 41t30 129zM413 879h112q0 -71 -52.5 -111.5t-138.5 -40.5t-138.5 40.5t-52.5 111.5h111q11 -54 80 -54q68 0 79 54z" />
    <glyph glyph-name="ubreve" unicode="&#x16d;" horiz-adv-x="526" 
d="M347 500h127v-500h-125v42q-18 -28 -43 -39.5t-71 -11.5q-87 0 -135.5 48t-48.5 149v312h128v-293q0 -56 19.5 -81t61.5 -25q87 0 87 105v294zM320 690h92q-2 -63 -41 -97.5t-108 -34.5t-108.5 34.5t-41.5 97.5h93q8 -53 57 -53t57 53z" />
    <glyph glyph-name="Uring" unicode="&#x16e;" horiz-adv-x="666" 
d="M458 279v411h140v-410q0 -143 -70.5 -216t-194.5 -73t-194.5 72.5t-70.5 215.5v411h140v-411q0 -88 30 -129t95 -41t95 41t30 129zM218 800q0 45 32 72t83 27q52 0 84.5 -27t32.5 -72q0 -44 -32.5 -71t-84.5 -27q-51 0 -83 27t-32 71zM333 769q37 0 37 31t-37 31
q-36 0 -36 -31t36 -31z" />
    <glyph glyph-name="uring" unicode="&#x16f;" horiz-adv-x="526" 
d="M347 500h127v-500h-125v42q-18 -28 -43 -39.5t-71 -11.5q-87 0 -135.5 48t-48.5 149v312h128v-293q0 -56 19.5 -81t61.5 -25q87 0 87 105v294zM174 567q-34 31 -34 79t34 79t89 31t89 -31t34 -79t-34 -79q-34 -30 -89 -30t-89 30zM226 646q0 -20 10 -32t27 -12
q37 0 37 44q0 43 -37 43t-37 -43z" />
    <glyph glyph-name="Uhungarumlaut" unicode="&#x170;" horiz-adv-x="666" 
d="M458 279v411h140v-410q0 -143 -70.5 -216t-194.5 -73t-194.5 72.5t-70.5 215.5v411h140v-411q0 -88 30 -129t95 -41t95 41t30 129zM284 742h-125l80 129h148zM487 742h-124l90 129h147z" />
    <glyph glyph-name="uhungarumlaut" unicode="&#x171;" horiz-adv-x="526" 
d="M347 500h127v-500h-125v42q-18 -28 -43 -39.5t-71 -11.5q-87 0 -135.5 48t-48.5 149v312h128v-293q0 -56 19.5 -81t61.5 -25q87 0 87 105v294zM407 567h-123l90 158h144zM232 567h-122l70 158h143z" />
    <glyph glyph-name="Uogonek" unicode="&#x172;" horiz-adv-x="666" 
d="M458 279v411h140v-410q0 -125 -54.5 -197t-152.5 -87q-24 -22 -32 -33t-8 -24q0 -22 27 -22q5 0 19 2l15 -65q-15 -4 -48 -4q-48 0 -79 19.5t-31 56.5q0 36 29 68q-102 13 -158.5 85.5t-56.5 199.5v411h140v-411q0 -88 30 -129t95 -41t95 41t30 129z" />
    <glyph glyph-name="uogonek" unicode="&#x173;" horiz-adv-x="526" 
d="M347 500h127v-497l1 -3q-25 -22 -33.5 -33t-11.5 -28q0 -22 27 -22q5 0 19 2l15 -65q-15 -4 -48 -4q-48 0 -79 19.5t-31 56.5q0 42 35 74h-19v42q-18 -28 -43 -39.5t-71 -11.5q-87 0 -135.5 48t-48.5 149v312h128v-293q0 -56 19.5 -81t61.5 -25q87 0 87 105v294z" />
    <glyph glyph-name="Ydieresis" unicode="&#x178;" horiz-adv-x="583" 
d="M221 282l-215 408h162l123 -257l124 257h161l-215 -408v-282h-140v282zM252 752h-124v117h124v-117zM455 752h-124v117h124v-117z" />
    <glyph glyph-name="Zacute" unicode="&#x179;" horiz-adv-x="519" 
d="M30 571v119h456v-92l-278 -480h288v-118h-466v92l280 479h-280zM312 742h-124l80 129h147z" />
    <glyph glyph-name="zacute" unicode="&#x17a;" horiz-adv-x="449" 
d="M30 0v89l220 303h-217v108h382v-89l-217 -303h224v-108h-392zM285 567h-122l70 158h143z" />
    <glyph glyph-name="Zdotaccent" unicode="&#x17b;" horiz-adv-x="519" 
d="M30 571v119h456v-92l-278 -480h288v-118h-466v92l280 479h-280zM336 759h-141v110h141v-110z" />
    <glyph glyph-name="zdotaccent" unicode="&#x17c;" horiz-adv-x="449" 
d="M30 0v89l220 303h-217v108h382v-89l-217 -303h224v-108h-392zM301 566h-138v124h138v-124z" />
    <glyph glyph-name="Zcaron" unicode="&#x17d;" horiz-adv-x="519" 
d="M30 571v119h456v-92l-278 -480h288v-118h-466v92l280 479h-280zM456 879l-138 -142h-105l-138 142h133l57 -61l58 61h133z" />
    <glyph glyph-name="zcaron" unicode="&#x17e;" horiz-adv-x="449" 
d="M30 0v89l220 303h-217v108h382v-89l-217 -303h224v-108h-392zM396 710l-108 -142h-106l-108 142h114l47 -65l47 65h114z" />
    <glyph glyph-name="uni018F" unicode="&#x18f;" horiz-adv-x="602" 
d="M47 296v73h378v25q0 187 -124 187q-99 0 -118 -105h-134q15 108 79.5 165.5t172.5 57.5q126 0 195 -78.5t69 -236.5v-88q0 -150 -69.5 -227.5t-194.5 -77.5q-123 0 -188.5 76.5t-65.5 228.5zM301 109q56 0 85.5 33.5t36.5 107.5h-242q5 -72 33 -106.5t87 -34.5z" />
    <glyph glyph-name="florin" unicode="&#x192;" horiz-adv-x="540" 
d="M121 381v119h64v27q0 91 41.5 127t138.5 36h37v-119h-21q-33 0 -46 -15t-13 -51v-5h80v-119h-80v-408q0 -90 -48 -126.5t-156 -36.5v119q37 0 52 16t15 54v382h-64z" />
    <glyph glyph-name="uni01DD" unicode="&#x1dd;" 
d="M143 358l-95 66q49 85 183 85q106 0 164 -61.5t58 -164.5v-68q0 -110 -53 -167t-153 -57q-206 0 -206 234v57h285q-2 119 -94 119q-36 0 -54.5 -9.5t-34.5 -33.5zM246 99q72 0 80 92h-157q5 -92 77 -92z" />
    <glyph glyph-name="Scommaaccent" unicode="&#x218;" horiz-adv-x="575" 
d="M532 586l-105 -75q-24 37 -55 53.5t-81 16.5q-47 0 -72 -20t-25 -56q0 -38 31 -60.5t105 -40.5q111 -29 160 -76q49 -46 49 -136q0 -92 -62 -146.5t-176 -54.5q-180 0 -266 113l107 74q30 -37 64.5 -53t85.5 -16q107 0 107 77q0 37 -30.5 60t-110.5 44q-105 27 -154.5 79
t-49.5 136q0 89 60.5 141.5t175.5 52.5q168 0 242 -113zM235 -51h137v-129l-137 -117v246z" />
    <glyph glyph-name="scommaaccent" unicode="&#x219;" horiz-adv-x="464" 
d="M419 426l-94 -67q-19 22 -40 31t-58 9q-63 0 -63 -39q0 -21 18.5 -32t61.5 -17q95 -15 140 -54t45 -111q0 -73 -51 -114t-145 -41q-147 0 -207 83l98 70q31 -43 107 -43q71 0 71 41q0 23 -17.5 32.5t-67.5 18.5q-180 29 -180 162q0 73 50.5 113.5t142.5 40.5
q138 0 189 -83zM169 -51h137v-129l-137 -117v246z" />
    <glyph glyph-name="Tcommaaccent" unicode="&#x21a;" horiz-adv-x="536" 
d="M8 571v119h520v-119h-190v-571h-140v571h-190zM200 -51h137v-129l-137 -117v246z" />
    <glyph glyph-name="tcommaaccent" unicode="&#x21b;" horiz-adv-x="331" 
d="M78 392h-64v108h64v110h127v-110h98v-108h-98v-209q0 -40 12 -55.5t45 -15.5h41v-112h-54q-95 0 -133 34q-38 35 -38 129v229zM127 -51h137v-129l-137 -117v246z" />
    <glyph glyph-name="uni0237" unicode="&#x237;" horiz-adv-x="251" 
d="M67 500h127v-527q0 -93 -45 -128q-46 -35 -149 -35v110q37 0 52 16.5t15 54.5v509z" />
    <glyph glyph-name="uni0259" unicode="&#x259;" 
d="M143 358l-95 66q49 85 183 85q106 0 164 -61.5t58 -164.5v-68q0 -110 -53 -167t-153 -57q-206 0 -206 234v57h285q-2 119 -94 119q-36 0 -54.5 -9.5t-34.5 -33.5zM246 99q72 0 80 92h-157q5 -92 77 -92z" />
    <glyph glyph-name="afii57929" unicode="&#x2bc;" horiz-adv-x="185" 
d="M35 500h136v-146l-136 -117v263z" />
    <glyph glyph-name="circumflex" unicode="&#x2c6;" horiz-adv-x="414" 
d="M46 568l108 142h106l108 -142h-114l-47 65l-47 -65h-114z" />
    <glyph glyph-name="caron" unicode="&#x2c7;" horiz-adv-x="414" 
d="M368 710l-108 -142h-106l-108 142h114l47 -65l47 65h114z" />
    <glyph glyph-name="breve" unicode="&#x2d8;" horiz-adv-x="412" 
d="M263 690h92q-2 -63 -41 -97.5t-108 -34.5t-108.5 34.5t-41.5 97.5h93q8 -53 57 -53t57 53z" />
    <glyph glyph-name="dotaccent" unicode="&#x2d9;" horiz-adv-x="329" 
d="M233 566h-138v124h138v-124z" />
    <glyph glyph-name="ring" unicode="&#x2da;" horiz-adv-x="386" 
d="M104 567q-34 31 -34 79t34 79t89 31t89 -31t34 -79t-34 -79q-34 -30 -89 -30t-89 30zM156 646q0 -20 10 -32t27 -12q37 0 37 44q0 43 -37 43t-37 -43z" />
    <glyph glyph-name="ogonek" unicode="&#x2db;" horiz-adv-x="343" 
d="M215 55l19 -55q-25 -22 -33.5 -33t-11.5 -28q0 -22 27 -22q5 0 19 2l15 -65q-15 -4 -48 -4q-48 0 -79 19.5t-31 56.5q0 38 30 68.5t93 60.5z" />
    <glyph glyph-name="tilde" unicode="&#x2dc;" horiz-adv-x="437" 
d="M279 569q-25 0 -64 14q-37 15 -53 15q-30 0 -53 -27l-67 64q48 61 117 61q25 0 62 -15q39 -14 55 -14q27 0 51 27l67 -64q-46 -61 -115 -61z" />
    <glyph glyph-name="hungarumlaut" unicode="&#x2dd;" horiz-adv-x="505" 
d="M345 567h-123l90 158h144zM170 567h-122l70 158h143z" />
    <glyph glyph-name="acutecomb" unicode="&#x301;" horiz-adv-x="0" 
d="M-192 567h-122l70 158h143z" />
    <glyph glyph-name="uni0394" unicode="&#x2206;" horiz-adv-x="590" 
d="M368 690l202 -690h-550l202 690h146zM195 118h199l-99 389z" />
    <glyph glyph-name="uni0394" unicode="&#x394;" horiz-adv-x="590" 
d="M368 690l202 -690h-550l202 690h146zM195 118h199l-99 389z" />
    <glyph glyph-name="uni03A9" unicode="&#x2126;" horiz-adv-x="629" 
d="M516 118h64v-118h-213v118q40 22 56.5 61.5t16.5 120.5v94q0 187 -125 187t-125 -187v-94q0 -82 16.5 -122.5t55.5 -59.5v-118h-212v118h64q-35 36 -49.5 76.5t-14.5 105.5v94q0 151 69.5 228t195.5 77q125 0 195 -77t70 -228v-94q0 -65 -14.5 -105.5t-49.5 -76.5z" />
    <glyph glyph-name="uni03A9" unicode="&#x3a9;" horiz-adv-x="629" 
d="M516 118h64v-118h-213v118q40 22 56.5 61.5t16.5 120.5v94q0 187 -125 187t-125 -187v-94q0 -82 16.5 -122.5t55.5 -59.5v-118h-212v118h64q-35 36 -49.5 76.5t-14.5 105.5v94q0 151 69.5 228t195.5 77q125 0 195 -77t70 -228v-94q0 -65 -14.5 -105.5t-49.5 -76.5z" />
    <glyph glyph-name="pi" unicode="&#x3c0;" horiz-adv-x="565" 
d="M340 160v232h-158v-392h-121v392h-74v108h550v-108h-70v-203q0 -43 15.5 -61t54.5 -18v-110q-105 0 -151 34t-46 126z" />
    <glyph glyph-name="afii10023" unicode="&#x401;" horiz-adv-x="527" 
d="M68 0v690h430v-119h-290v-155h260v-118h-260v-180h290v-118h-430zM243 752h-124v117h124v-117zM446 752h-124v117h124v-117z" />
    <glyph glyph-name="afii10051" unicode="&#x402;" horiz-adv-x="727" 
d="M-2 571v119h520v-119h-190v-186q20 19 61 33t86 14q111 0 163 -52.5t52 -161.5v-61q0 -104 -67 -134q-52 -23 -131 -23h-23v112h23q32 0 45 15.5t13 49.5v32q0 56 -25.5 80t-82.5 24q-74 0 -114 -54v-259h-140v571h-190z" />
    <glyph glyph-name="afii10052" unicode="&#x403;" horiz-adv-x="491" 
d="M68 690h423v-119h-283v-571h-140v690zM328 742h-124l80 129h147z" />
    <glyph glyph-name="afii10053" unicode="&#x404;" horiz-adv-x="585" 
d="M560 476h-134q-20 105 -118 105q-122 0 -125 -175h208v-118h-208q3 -179 125 -179q50 0 78.5 25.5t39.5 79.5h134q-34 -223 -252 -223q-125 0 -195 77.5t-70 227.5v98q0 151 69.5 228t195.5 77q106 0 170.5 -56.5t81.5 -166.5z" />
    <glyph glyph-name="afii10054" unicode="&#x405;" horiz-adv-x="575" 
d="M532 586l-105 -75q-24 37 -55 53.5t-81 16.5q-47 0 -72 -20t-25 -56q0 -38 31 -60.5t105 -40.5q111 -29 160 -76q49 -46 49 -136q0 -92 -62 -146.5t-176 -54.5q-180 0 -266 113l107 74q30 -37 64.5 -53t85.5 -16q107 0 107 77q0 37 -30.5 60t-110.5 44q-105 27 -154.5 79
t-49.5 136q0 89 60.5 141.5t175.5 52.5q168 0 242 -113z" />
    <glyph glyph-name="afii10055" unicode="&#x406;" horiz-adv-x="296" 
d="M78 690h140v-690h-140v690zM219 759h-141v110h141v-110z" />
    <glyph glyph-name="afii10056" unicode="&#x407;" horiz-adv-x="296" 
d="M78 690h140v-690h-140v690zM109 752h-124v117h124v-117zM312 752h-124v117h124v-117z" />
    <glyph glyph-name="afii10057" unicode="&#x408;" horiz-adv-x="512" 
d="M-9 94l116 65q35 -50 94 -50q54 0 78.5 35.5t24.5 120.5v425h140v-425q0 -141 -59 -207.5t-175 -66.5q-147 0 -219 103z" />
    <glyph glyph-name="afii10058" unicode="&#x409;" horiz-adv-x="977" 
d="M124 495v195h462v-253h106q128 0 193 -58.5t65 -160.5q0 -100 -65.5 -159t-192.5 -59h-246v571h-182v-76q0 -162 -8 -242q-8 -78 -26 -124q-45 -119 -217 -138v146q71 14 90 64q21 54 21 294zM685 319h-99v-201h99q125 0 125 100q0 101 -125 101z" />
    <glyph glyph-name="afii10059" unicode="&#x40a;" horiz-adv-x="979" 
d="M68 690h140v-274h239v274h140v-253h107q128 0 193 -58.5t65 -160.5q0 -100 -65.5 -159t-192.5 -59h-247v298h-239v-298h-140v690zM686 319h-99v-201h99q126 0 126 100q0 101 -126 101z" />
    <glyph glyph-name="afii10060" unicode="&#x40b;" horiz-adv-x="737" 
d="M8 571v119h520v-119h-190v-186q20 19 61 33t86 14q111 0 163 -52.5t52 -161.5v-218h-140v209q0 56 -25.5 80t-82.5 24q-74 0 -114 -54v-259h-140v571h-190z" />
    <glyph glyph-name="afii10061" unicode="&#x40c;" horiz-adv-x="623" 
d="M390 356l220 -356h-166l-177 288h-59v-288h-140v690h140v-284h56l158 284h154zM356 742h-124l80 129h147z" />
    <glyph glyph-name="afii10062" unicode="&#x40e;" horiz-adv-x="579" 
d="M311 346l124 344h144l-212 -550q-34 -87 -88 -118q-53 -31 -161 -31v122q57 0 83.5 10.5t42.5 40.5l-236 526h155zM359 879h128q0 -151 -190 -151q-191 0 -191 151h129q0 -31 14 -46.5t48 -15.5t48 15.5t14 46.5z" />
    <glyph glyph-name="afii10145" unicode="&#x40f;" horiz-adv-x="638" 
d="M396 0v-130h-126v130h-202v690h140v-572h250v572h140v-690h-202z" />
    <glyph glyph-name="afii10017" unicode="&#x410;" horiz-adv-x="607" 
d="M188 131l-42 -131h-150l240 690h134l240 -690h-149l-42 131h-231zM381 249l-78 243l-78 -243h156z" />
    <glyph glyph-name="afii10018" unicode="&#x411;" horiz-adv-x="596" 
d="M68 690h454v-119h-314v-134h107q126 0 192 -59t66 -159t-66 -159.5t-192 -59.5h-247v690zM307 319h-99v-201h99q126 0 126 101q0 100 -126 100z" />
    <glyph glyph-name="afii10019" unicode="&#x412;" horiz-adv-x="606" 
d="M68 0v690h231q252 0 252 -181q0 -102 -91 -147q113 -41 113 -164q0 -91 -63.5 -144.5t-188.5 -53.5h-253zM296 299h-88v-181h101q124 0 124 91q0 48 -32.5 69t-104.5 21zM286 572h-78v-155h93q110 0 110 79q0 40 -27.5 58t-97.5 18z" />
    <glyph glyph-name="afii10020" unicode="&#x413;" horiz-adv-x="491" 
d="M68 690h423v-119h-283v-571h-140v690z" />
    <glyph glyph-name="afii10021" unicode="&#x414;" horiz-adv-x="697" 
d="M136 0v-130h-126v248h44q26 28 45 84q31 99 31 303v185h461v-572h86v-248h-126v130h-415zM228 156q-3 -10 -19 -38h242v453h-181v-66q0 -141 -10 -212q-11 -80 -32 -137z" />
    <glyph glyph-name="afii10022" unicode="&#x415;" horiz-adv-x="527" 
d="M68 0v690h430v-119h-290v-155h260v-118h-260v-180h290v-118h-430z" />
    <glyph glyph-name="afii10024" unicode="&#x416;" horiz-adv-x="908" 
d="M329 288l-169 -288h-157l206 348l-172 342h148l140 -284h59v284h140v-284h58l141 284h148l-172 -342l206 -348h-157l-169 288h-55v-288h-140v288h-55z" />
    <glyph glyph-name="afii10025" unicode="&#x417;" horiz-adv-x="592" 
d="M285 299h-73v118h75q110 0 110 84q0 81 -103 81q-50 0 -78.5 -20.5t-44.5 -63.5h-123q9 90 80 146q70 55 171 55t169 -48q69 -48 69 -137q0 -98 -90 -151q112 -46 112 -165q0 -96 -69.5 -151.5t-191.5 -55.5q-232 0 -271 209h134q19 -48 49.5 -69.5t82.5 -21.5
q126 0 126 95t-134 95z" />
    <glyph glyph-name="afii10026" unicode="&#x418;" horiz-adv-x="676" 
d="M68 0v690h140v-433l288 433h112v-690h-140v428l-285 -428h-115z" />
    <glyph glyph-name="afii10027" unicode="&#x419;" horiz-adv-x="676" 
d="M68 0v690h140v-433l288 433h112v-690h-140v428l-285 -428h-115zM408 879h128q0 -151 -190 -151q-191 0 -191 151h129q0 -31 14 -46.5t48 -15.5t48 15.5t14 46.5z" />
    <glyph glyph-name="afii10028" unicode="&#x41a;" horiz-adv-x="623" 
d="M390 356l220 -356h-166l-177 288h-59v-288h-140v690h140v-284h56l158 284h154z" />
    <glyph glyph-name="afii10029" unicode="&#x41b;" horiz-adv-x="654" 
d="M124 495v195h462v-690h-140v571h-182v-76q0 -162 -8 -242q-8 -78 -26 -124q-45 -119 -217 -138v146q71 14 90 64q21 54 21 294z" />
    <glyph glyph-name="afii10030" unicode="&#x41c;" horiz-adv-x="786" 
d="M68 690h131l194 -376l192 376h133v-690h-134v428l-150 -304h-85l-148 301v-425h-133v690z" />
    <glyph glyph-name="afii10031" unicode="&#x41d;" horiz-adv-x="656" 
d="M68 690h140v-274h239v274h140v-690h-140v298h-239v-298h-140v690z" />
    <glyph glyph-name="afii10032" unicode="&#x41e;" horiz-adv-x="623" 
d="M576 394v-98q0 -150 -70 -227.5t-195 -77.5t-194.5 77.5t-69.5 227.5v98q0 151 69.5 228t194.5 77q126 0 195.5 -77t69.5 -228zM187 394v-98q0 -187 124 -187q125 0 125 187v98q0 187 -125 187q-124 0 -124 -187z" />
    <glyph glyph-name="afii10033" unicode="&#x41f;" horiz-adv-x="666" 
d="M68 0v690h530v-690h-140v571h-250v-571h-140z" />
    <glyph glyph-name="afii10034" unicode="&#x420;" horiz-adv-x="590" 
d="M315 243h-107v-243h-140v690h247q123 0 190.5 -56.5t67.5 -164.5q0 -107 -68.5 -166.5t-189.5 -59.5zM208 571v-210h87q72 0 105 26t33 82q0 102 -138 102h-87z" />
    <glyph glyph-name="afii10035" unicode="&#x421;" horiz-adv-x="594" 
d="M564 476h-134q-21 105 -119 105q-124 0 -124 -187v-98q0 -187 124 -187q51 0 79 25t40 80h133q-33 -223 -252 -223q-125 0 -194.5 77.5t-69.5 227.5v98q0 151 69.5 228t194.5 77q106 0 171 -56.5t82 -166.5z" />
    <glyph glyph-name="afii10036" unicode="&#x422;" horiz-adv-x="536" 
d="M8 571v119h520v-119h-190v-571h-140v571h-190z" />
    <glyph glyph-name="afii10037" unicode="&#x423;" horiz-adv-x="579" 
d="M311 346l124 344h144l-212 -550q-34 -87 -88 -118q-53 -31 -161 -31v122q57 0 83.5 10.5t42.5 40.5l-236 526h155z" />
    <glyph glyph-name="afii10038" unicode="&#x424;" horiz-adv-x="786" 
d="M323 640v50h140v-50q280 0 280 -279v-32q0 -279 -280 -279v-50h-140v50q-280 0 -280 279v32q0 279 280 279zM463 522v-354q74 0 107 36t33 125v32q0 89 -33 125t-107 36zM323 168v354q-74 0 -107 -36t-33 -125v-32q0 -89 33 -125t107 -36z" />
    <glyph glyph-name="afii10039" unicode="&#x425;" horiz-adv-x="592" 
d="M296 235l-131 -235h-152l194 356l-173 334h152l110 -220l111 220h151l-174 -334l195 -356h-151z" />
    <glyph glyph-name="afii10040" unicode="&#x426;" horiz-adv-x="714" 
d="M68 690h140v-572h250v572h140v-572h100v-248h-127v130h-503v690z" />
    <glyph glyph-name="afii10041" unicode="&#x427;" horiz-adv-x="598" 
d="M21 690h140v-203q0 -71 27 -101t92 -30q85 0 110 43v291h140v-690h-140v270q-47 -32 -136 -32q-128 0 -180 58q-53 59 -53 191v203z" />
    <glyph glyph-name="afii10042" unicode="&#x428;" horiz-adv-x="934" 
d="M68 690h140v-572h189v572h140v-572h189v572h140v-690h-798v690z" />
    <glyph glyph-name="afii10043" unicode="&#x429;" horiz-adv-x="982" 
d="M68 690h140v-572h189v572h140v-572h189v572h140v-572h100v-248h-127v130h-771v690z" />
    <glyph glyph-name="afii10044" unicode="&#x42a;" horiz-adv-x="657" 
d="M-27 571v119h293v-253h107q126 0 192 -59.5t66 -159.5q0 -99 -66 -158.5t-192 -59.5h-247v571h-153zM365 319h-99v-201h99q126 0 126 100q0 101 -126 101z" />
    <glyph glyph-name="afii10045" unicode="&#x42b;" horiz-adv-x="816" 
d="M68 0v690h140v-253h97q128 0 193 -58.5t65 -160.5q0 -101 -68 -159.5t-204 -58.5h-223zM608 690h140v-690h-140v690zM297 319h-89v-201h89q126 0 126 100q0 101 -126 101z" />
    <glyph glyph-name="afii10046" unicode="&#x42c;" horiz-adv-x="599" 
d="M68 0v690h140v-253h107q126 0 192 -59.5t66 -159.5q0 -99 -66 -158.5t-192 -59.5h-247zM307 319h-99v-201h99q126 0 126 100q0 101 -126 101z" />
    <glyph glyph-name="afii10047" unicode="&#x42d;" horiz-adv-x="594" 
d="M407 288h-208v118h208q-4 175 -125 175q-98 0 -118 -105h-134q17 110 81.5 166.5t170.5 56.5q126 0 195.5 -77t69.5 -228v-98q0 -150 -70 -227.5t-195 -77.5q-218 0 -252 223h134q11 -54 39.5 -79.5t78.5 -25.5q122 0 125 179z" />
    <glyph glyph-name="afii10048" unicode="&#x42e;" horiz-adv-x="842" 
d="M795 384v-78q0 -315 -250 -315q-247 0 -250 307h-87v-298h-140v690h140v-274h87q13 283 250 283q250 0 250 -315zM435 378v-65q0 -108 25.5 -156t84.5 -48q60 0 85 47.5t25 156.5v65q0 107 -25 155t-85 48q-59 0 -84.5 -48t-25.5 -155z" />
    <glyph glyph-name="afii10049" unicode="&#x42f;" horiz-adv-x="614" 
d="M310 271l-143 -271h-154l160 289q-132 47 -132 192q0 102 68.5 155.5t192.5 53.5h244v-690h-140v271h-96zM312 389h94v182h-94q-68 0 -99.5 -21t-31.5 -69q0 -49 29 -70.5t102 -21.5z" />
    <glyph glyph-name="afii10065" unicode="&#x430;" 
d="M26 148q0 74 50 113t135 39h99v29q0 43 -18 58.5t-71 15.5q-39 0 -59 -8t-35 -32l-90 63q27 45 72.5 64t123.5 19q106 0 154 -41t48 -140v-328h-125v44q-32 -53 -108 -53q-81 0 -128.5 41.5t-47.5 115.5zM310 187v19h-84q-75 0 -75 -56t73 -56q45 0 65.5 21.5t20.5 71.5z
" />
    <glyph glyph-name="afii10066" unicode="&#x431;" horiz-adv-x="502" 
d="M404 723l66 -82q-13 -27 -35 -40t-63 -15l-92 -5q-77 -5 -100 -44q-12 -19 -18 -60q44 32 107 32q98 0 149 -57t51 -167v-68q0 -106 -55 -166t-161 -60t-161 59.5t-55 166.5v65q0 218 44 308q48 95 169 101l100 5q38 2 54 27zM253 99q89 0 89 126v60q0 116 -89 116
t-89 -116v-60q0 -63 20.5 -94.5t68.5 -31.5z" />
    <glyph glyph-name="afii10067" unicode="&#x432;" horiz-adv-x="497" 
d="M51 0v500h200q186 0 186 -127q0 -36 -19 -62t-49 -39q45 -13 71 -46t26 -80q0 -67 -47.5 -106.5t-144.5 -39.5h-223zM244 212h-65v-113h73q77 0 77 56q0 30 -19 43.5t-66 13.5zM227 401h-48v-95h54q67 0 67 47q0 48 -73 48z" />
    <glyph glyph-name="afii10068" unicode="&#x433;" horiz-adv-x="373" 
d="M51 500h332v-108h-204v-392h-128v500z" />
    <glyph glyph-name="afii10069" unicode="&#x434;" horiz-adv-x="567" 
d="M129 0v-117h-117v225h39q22 17 38 60q22 54 22 212v120h373v-392h66v-225h-116v117h-305zM195 118l-5 -10h167v284h-125v-31q0 -169 -37 -243z" />
    <glyph glyph-name="afii10070" unicode="&#x435;" 
d="M343 142l95 -66q-49 -85 -183 -85q-106 0 -164 61.5t-58 164.5v68q0 110 53 167t153 57q206 0 206 -234v-57h-285q2 -119 94 -119q36 0 54.5 9.5t34.5 33.5zM240 401q-72 0 -80 -92h157q-5 92 -77 92z" />
    <glyph glyph-name="afii10072" unicode="&#x436;" horiz-adv-x="693" 
d="M457 306l82 194h133l-105 -243l126 -257h-141l-92 199h-50v-199h-127v199h-50l-92 -199h-141l126 257l-105 243h133l81 -194h48v194h127v-194h47z" />
    <glyph glyph-name="afii10073" unicode="&#x437;" horiz-adv-x="454" 
d="M182 212h-48v94h51q77 0 77 54q0 22 -17 35.5t-48 13.5q-53 0 -91 -41l-87 61q65 80 195 80q87 0 136 -35.5t49 -91.5q0 -78 -72 -113q91 -34 91 -127q0 -70 -53 -110.5t-152 -40.5q-142 0 -199 87l82 64q38 -51 108 -51q37 0 57 17t20 45q0 59 -99 59z" />
    <glyph glyph-name="afii10074" unicode="&#x438;" horiz-adv-x="532" 
d="M51 500h128v-273l191 273h110v-500h-127v283l-193 -283h-109v500z" />
    <glyph glyph-name="afii10075" unicode="&#x439;" horiz-adv-x="532" 
d="M51 500h128v-273l191 273h110v-500h-127v283l-193 -283h-109v500zM315 687h104q0 -129 -154 -129q-74 0 -114.5 32t-40.5 97h104q0 -55 51 -55q50 0 50 55z" />
    <glyph glyph-name="afii10076" unicode="&#x43a;" horiz-adv-x="492" 
d="M227 306l110 194h140l-137 -242l151 -258h-147l-114 199h-51v-199h-128v500h128v-194h48z" />
    <glyph glyph-name="afii10077" unicode="&#x43b;" horiz-adv-x="519" 
d="M91 335v165h377v-500h-127v392h-129v-116q0 -77 -7 -115q-6 -40 -24 -76q-47 -90 -173 -96v112q52 15 68 60q15 41 15 174z" />
    <glyph glyph-name="afii10078" unicode="&#x43c;" horiz-adv-x="636" 
d="M51 500h112l155 -272l155 272h111v-500h-127v258l-100 -183h-85l-93 180v-255h-128v500z" />
    <glyph glyph-name="afii10079" unicode="&#x43d;" horiz-adv-x="515" 
d="M51 500h128v-190h157v190h128v-500h-128v201h-157v-201h-128v500z" />
    <glyph glyph-name="afii10080" unicode="&#x43e;" horiz-adv-x="499" 
d="M465 281v-60q0 -109 -54.5 -169.5t-161.5 -60.5q-105 0 -160.5 60.5t-55.5 169.5v60q0 111 55.5 169.5t160.5 58.5t160.5 -58t55.5 -170zM249 99q89 0 89 126v52q0 124 -89 124t-89 -124v-52q0 -63 20.5 -94.5t68.5 -31.5z" />
    <glyph glyph-name="afii10081" unicode="&#x43f;" horiz-adv-x="515" 
d="M51 0v500h413v-500h-128v392h-157v-392h-128z" />
    <glyph glyph-name="afii10082" unicode="&#x440;" horiz-adv-x="517" 
d="M484 285v-68q0 -101 -51 -164q-50 -62 -144 -62q-75 0 -110 29v-210h-128v690h128v-33q37 42 111 42q89 0 141.5 -59.5t52.5 -164.5zM268 99q88 0 88 126v52q0 124 -88 124q-89 0 -89 -113v-63q0 -63 20.5 -94.5t68.5 -31.5z" />
    <glyph glyph-name="afii10083" unicode="&#x441;" horiz-adv-x="446" 
d="M343 142l95 -66q-49 -85 -182 -85q-105 0 -164 60.5t-59 165.5v68q0 109 59 166.5t171 57.5q122 0 175 -83l-96 -67q-30 42 -82 42q-100 0 -100 -124v-52q0 -60 21 -93q23 -33 79 -33q58 0 83 43z" />
    <glyph glyph-name="afii10084" unicode="&#x442;" horiz-adv-x="420" 
d="M0 392v108h420v-108h-147v-392h-127v392h-146z" />
    <glyph glyph-name="afii10085" unicode="&#x443;" horiz-adv-x="479" 
d="M192 -7l-187 507h134l111 -320l100 320h129l-175 -523q-35 -102 -79 -134q-45 -33 -150 -33v114q55 0 78.5 13.5t38.5 55.5z" />
    <glyph glyph-name="afii10086" unicode="&#x444;" horiz-adv-x="698" 
d="M285 690h128v-181q252 0 252 -224v-68q0 -110 -63.5 -168t-188.5 -58v-181h-128v181q-125 0 -188.5 58t-63.5 168v68q0 224 252 224v181zM160 278v-56q0 -64 29.5 -93.5t95.5 -29.5v302q-65 0 -95 -28t-30 -95zM537 222v56q0 67 -29.5 95t-94.5 28v-302q66 0 95 29.5
t29 93.5z" />
    <glyph glyph-name="afii10087" unicode="&#x445;" horiz-adv-x="490" 
d="M319 256l165 -256h-142l-97 152l-97 -152h-141l164 256l-151 244h141l84 -143l84 143h141z" />
    <glyph glyph-name="afii10088" unicode="&#x446;" horiz-adv-x="546" 
d="M530 108v-225h-117v117h-362v500h128v-392h157v392h128v-392h66z" />
    <glyph glyph-name="afii10089" unicode="&#x447;" horiz-adv-x="470" 
d="M25 500h127v-144q0 -46 17.5 -64t53.5 -18q51 0 68 33v193h127v-500h-127v186q-31 -24 -94 -24q-172 0 -172 175v163z" />
    <glyph glyph-name="afii10090" unicode="&#x448;" horiz-adv-x="746" 
d="M695 500v-500h-644v500h128v-392h130v392h128v-392h130v392h128z" />
    <glyph glyph-name="afii10091" unicode="&#x449;" horiz-adv-x="778" 
d="M761 108v-225h-117v117h-593v500h128v-392h130v392h128v-392h130v392h128v-392h66z" />
    <glyph glyph-name="afii10092" unicode="&#x44a;" horiz-adv-x="545" 
d="M-13 392v108h249v-172h77q211 0 211 -163q0 -80 -51 -122.5t-150 -42.5h-214v392h-122zM304 220h-68v-112h80q71 0 71 57q0 55 -83 55z" />
    <glyph glyph-name="afii10093" unicode="&#x44b;" horiz-adv-x="661" 
d="M51 0v500h128v-172h53q211 0 211 -163q0 -81 -52.5 -123t-148.5 -42h-191zM482 0v500h127v-500h-127zM223 220h-44v-112h56q71 0 71 57q0 55 -83 55z" />
    <glyph glyph-name="afii10094" unicode="&#x44c;" horiz-adv-x="488" 
d="M51 0v500h128v-172h76q211 0 211 -163q0 -80 -51 -122.5t-150 -42.5h-214zM246 220h-67v-112h79q71 0 71 57q0 55 -83 55z" />
    <glyph glyph-name="afii10095" unicode="&#x44d;" horiz-adv-x="451" 
d="M290 204h-156v99h156q-5 98 -96 98q-54 0 -83 -42l-95 67q63 83 173 83q113 0 171 -57.5t58 -166.5v-68q0 -107 -59 -166.5t-170 -59.5q-124 0 -176 85l93 66q30 -43 88 -43q94 0 96 105z" />
    <glyph glyph-name="afii10096" unicode="&#x44e;" horiz-adv-x="691" 
d="M657 285v-68q0 -105 -54 -165.5t-150 -60.5q-91 0 -145.5 54.5t-58.5 155.5h-70v-201h-128v500h128v-190h71q6 96 59 147.5t144 51.5q97 0 150.5 -57.5t53.5 -166.5zM453 99q77 0 77 124v56q0 122 -77 122t-77 -122v-56q0 -64 18 -94t59 -30z" />
    <glyph glyph-name="afii10097" unicode="&#x44f;" horiz-adv-x="500" 
d="M448 500v-500h-127v178h-63l-105 -178h-135l120 199q-94 40 -94 146q0 72 51 113.5t153 41.5h200zM262 284h59v108h-67q-73 0 -73 -53q0 -55 81 -55z" />
    <glyph glyph-name="afii10071" unicode="&#x451;" 
d="M343 142l95 -66q-49 -85 -183 -85q-106 0 -164 61.5t-58 164.5v68q0 110 53 167t153 57q206 0 206 -234v-57h-285q2 -119 94 -119q36 0 54.5 9.5t34.5 33.5zM240 401q-72 0 -80 -92h157q-5 92 -77 92zM197 573h-124v117h124v-117zM400 573h-123v117h123v-117z" />
    <glyph glyph-name="afii10099" unicode="&#x452;" horiz-adv-x="526" 
d="M65 538h-94v99h94v53h127v-53h138v-99h-138v-108q34 46 113 46q183 0 183 -196v-300q0 -89 -44.5 -129.5t-133.5 -40.5h-13v110h11q28 0 40.5 14t12.5 46v280q0 56 -19.5 81t-61.5 25q-88 0 -88 -105v-261h-127v538z" />
    <glyph glyph-name="afii10100" unicode="&#x453;" horiz-adv-x="373" 
d="M51 500h332v-108h-204v-392h-128v500zM269 567h-122l70 158h143z" />
    <glyph glyph-name="afii10101" unicode="&#x454;" horiz-adv-x="459" 
d="M157 303h157v-99h-157q1 -105 97 -105q59 0 87 43l94 -66q-52 -85 -176 -85q-111 0 -170 59.5t-59 166.5v68q0 109 58 166.5t171 57.5q110 0 173 -83l-96 -67q-28 42 -82 42q-94 0 -97 -98z" />
    <glyph glyph-name="afii10102" unicode="&#x455;" horiz-adv-x="464" 
d="M419 426l-94 -67q-19 22 -40 31t-58 9q-63 0 -63 -39q0 -21 18.5 -32t61.5 -17q95 -15 140 -54t45 -111q0 -73 -51 -114t-145 -41q-147 0 -207 83l98 70q31 -43 107 -43q71 0 71 41q0 23 -17.5 32.5t-67.5 18.5q-180 29 -180 162q0 73 50.5 113.5t142.5 40.5
q138 0 189 -83z" />
    <glyph glyph-name="afii10103" unicode="&#x456;" horiz-adv-x="260" 
d="M194 0h-128v500h128v-500zM199 566h-138v124h138v-124z" />
    <glyph glyph-name="afii10104" unicode="&#x457;" horiz-adv-x="260" 
d="M194 0h-128v500h128v-500zM86 573h-124v117h124v-117zM289 573h-123v117h123v-117z" />
    <glyph glyph-name="afii10105" unicode="&#x458;" horiz-adv-x="251" 
d="M67 500h127v-527q0 -93 -45 -128q-46 -35 -149 -35v110q37 0 52 16.5t15 54.5v509zM199 566h-137v124h137v-124z" />
    <glyph glyph-name="afii10106" unicode="&#x459;" horiz-adv-x="777" 
d="M91 335v165h377v-172h77q211 0 211 -163q0 -79 -51.5 -122t-150.5 -43h-213v392h-129v-116q0 -77 -7 -115q-6 -40 -24 -76q-47 -90 -173 -96v112q52 15 68 60q15 41 15 174zM536 220h-68v-112h80q70 0 70 57q0 55 -82 55z" />
    <glyph glyph-name="afii10107" unicode="&#x45a;" horiz-adv-x="773" 
d="M51 500h128v-190h157v190h128v-172h76q211 0 211 -163q0 -80 -51 -122.5t-151 -42.5h-213v201h-157v-201h-128v500zM531 220h-67v-112h79q71 0 71 57q0 55 -83 55z" />
    <glyph glyph-name="afii10108" unicode="&#x45b;" horiz-adv-x="526" 
d="M65 538h-94v99h94v53h127v-53h138v-99h-138v-108q34 46 113 46q183 0 183 -196v-280h-127v260q0 56 -19.5 81t-61.5 25q-88 0 -88 -105v-261h-127v538z" />
    <glyph glyph-name="afii10109" unicode="&#x45c;" horiz-adv-x="492" 
d="M227 306l110 194h140l-137 -242l151 -258h-147l-114 199h-51v-199h-128v500h128v-194h48zM307 567h-122l70 158h143z" />
    <glyph glyph-name="afii10110" unicode="&#x45e;" horiz-adv-x="479" 
d="M192 -7l-187 507h134l111 -320l100 320h129l-175 -523q-35 -102 -79 -134q-45 -33 -150 -33v114q55 0 78.5 13.5t38.5 55.5zM299 687h104q0 -129 -154 -129q-74 0 -114.5 32t-40.5 97h104q0 -55 51 -55q50 0 50 55z" />
    <glyph glyph-name="afii10193" unicode="&#x45f;" horiz-adv-x="526" 
d="M304 0v-117h-93v117h-160v500h128v-391h157v391h128v-500h-160z" />
    <glyph glyph-name="afii10146" unicode="&#x462;" horiz-adv-x="599" 
d="M68 618v72h140v-72h151v-118h-151v-63h107q126 0 192 -59.5t66 -159.5q0 -99 -66 -158.5t-192 -59.5h-247v500h-78v118h78zM307 319h-99v-201h99q126 0 126 100q0 101 -126 101z" />
    <glyph glyph-name="afii10194" unicode="&#x463;" horiz-adv-x="488" 
d="M51 401h-80v99h80v190h128v-190h151v-99h-151v-73h76q211 0 211 -163q0 -80 -51 -122.5t-150 -42.5h-214v401zM246 220h-67v-112h79q71 0 71 57q0 55 -83 55z" />
    <glyph glyph-name="afii10147" unicode="&#x472;" horiz-adv-x="623" 
d="M576 394v-98q0 -150 -70 -227.5t-195 -77.5t-194.5 77.5t-69.5 227.5v98q0 151 69.5 228t194.5 77q126 0 195.5 -77t69.5 -228zM311 109q125 0 125 187v2h-249v-2q0 -187 124 -187zM311 581q-117 0 -124 -165h248q-6 165 -124 165z" />
    <glyph glyph-name="afii10195" unicode="&#x473;" horiz-adv-x="499" 
d="M465 281v-60q0 -109 -54.5 -169.5t-161.5 -60.5q-105 0 -160.5 60.5t-55.5 169.5v60q0 111 55.5 169.5t160.5 58.5t160.5 -58t55.5 -170zM337 201h-176q7 -102 88 -102t88 102zM249 401q-78 0 -88 -91h175q-9 91 -87 91z" />
    <glyph glyph-name="afii10148" unicode="&#x474;" horiz-adv-x="617" 
d="M244 0l-241 690h154l151 -464l108 332q24 77 70 108q46 33 146 33v-115q-35 0 -52 -15t-31 -57l-178 -512h-127z" />
    <glyph glyph-name="afii10196" unicode="&#x475;" horiz-adv-x="501" 
d="M511 509v-107q-27 0 -40.5 -12.5t-26.5 -48.5l-130 -341h-120l-194 500h140l112 -324l77 221q25 72 61 91q38 21 121 21z" />
    <glyph glyph-name="afii10050" unicode="&#x490;" horiz-adv-x="491" 
d="M68 690h307v108h116v-227h-283v-571h-140v690z" />
    <glyph glyph-name="afii10098" unicode="&#x491;" horiz-adv-x="373" 
d="M51 500h224v93h108v-201h-204v-392h-128v500z" />
    <glyph glyph-name="uni0492" unicode="&#x492;" horiz-adv-x="492" 
d="M69 690h423v-119h-283v-155h136v-118h-136v-298h-140v298h-79v118h79v274z" />
    <glyph glyph-name="uni0493" unicode="&#x493;" horiz-adv-x="395" 
d="M73 500h332v-108h-204v-82h106v-109h-106v-201h-128v201h-86v109h86v190z" />
    <glyph glyph-name="uni0496" unicode="&#x496;" horiz-adv-x="962" 
d="M329 288l-169 -288h-157l206 348l-172 342h148l140 -284h59v284h140v-284h58l141 284h148l-172 -342l136 -230h111v-248h-127v130h-71l-169 288h-55v-288h-140v288h-55z" />
    <glyph glyph-name="uni0497" unicode="&#x497;" horiz-adv-x="725" 
d="M457 306l82 194h133l-105 -243l73 -149h75v-225h-117v117h-46l-92 199h-50v-199h-127v199h-50l-92 -199h-141l126 257l-105 243h133l81 -194h48v194h127v-194h47z" />
    <glyph glyph-name="uni0498" unicode="&#x498;" horiz-adv-x="592" 
d="M362 -4v-126h-127v126q-173 25 -208 204h134q19 -48 49.5 -69.5t82.5 -21.5q126 0 126 95t-134 95h-73v118h75q110 0 110 84q0 81 -103 81q-50 0 -78.5 -20.5t-44.5 -63.5h-123q9 90 80 146q70 55 171 55t169 -48q69 -48 69 -137q0 -98 -90 -151q112 -46 112 -165
q0 -81 -52 -135t-145 -67z" />
    <glyph glyph-name="uni0499" unicode="&#x499;" horiz-adv-x="454" 
d="M277 -4v-113h-117v111q-99 13 -146 84l82 64q38 -51 108 -51q37 0 57 17t20 45q0 59 -99 59h-48v94h51q77 0 77 54q0 22 -17 35.5t-48 13.5q-53 0 -91 -41l-87 61q65 80 195 80q87 0 136 -35.5t49 -91.5q0 -78 -72 -113q91 -34 91 -127q0 -58 -36 -96t-105 -50z" />
    <glyph glyph-name="uni049A" unicode="&#x49a;" horiz-adv-x="665" 
d="M648 118v-248h-126v130h-78l-177 288h-59v-288h-140v690h140v-284h56l158 284h154l-186 -334l147 -238h111z" />
    <glyph glyph-name="uni049B" unicode="&#x49b;" horiz-adv-x="522" 
d="M227 306l110 194h140l-137 -242l88 -150h81v-225h-117v117h-48l-114 199h-51v-199h-128v500h128v-194h48z" />
    <glyph glyph-name="uni049C" unicode="&#x49c;" horiz-adv-x="720" 
d="M486 356l220 -356h-165l-178 288h-19v-107h-105v107h-31v-288h-140v690h140v-284h31v114h105v-114h17l157 284h154z" />
    <glyph glyph-name="uni049D" unicode="&#x49d;" horiz-adv-x="569" 
d="M304 306l110 194h140l-137 -242l151 -258h-147l-114 199h-10v-96h-95v96h-23v-199h-128v500h128v-194h23v98h95v-98h7z" />
    <glyph glyph-name="uni04A0" unicode="&#x4a0;" horiz-adv-x="681" 
d="M448 356l220 -356h-166l-177 288h-59v-288h-140v571h-153v119h293v-284h56l158 284h154z" />
    <glyph glyph-name="uni04A1" unicode="&#x4a1;" horiz-adv-x="549" 
d="M284 306l110 194h140l-137 -242l151 -258h-147l-114 199h-51v-199h-128v392h-121v108h249v-194h48z" />
    <glyph glyph-name="uni04A2" unicode="&#x4a2;" horiz-adv-x="704" 
d="M68 690h140v-274h239v274h140v-572h100v-248h-127v130h-113v298h-239v-298h-140v690z" />
    <glyph glyph-name="uni04A3" unicode="&#x4a3;" horiz-adv-x="546" 
d="M51 500h128v-190h157v190h128v-392h66v-225h-117v117h-77v201h-157v-201h-128v500z" />
    <glyph glyph-name="uni04AA" unicode="&#x4aa;" horiz-adv-x="594" 
d="M375 -3v-127h-127v127q-96 18 -148.5 94t-52.5 205v98q0 151 69.5 228t194.5 77q106 0 171 -56.5t82 -166.5h-134q-21 105 -119 105q-124 0 -124 -187v-98q0 -187 124 -187q51 0 79 25t40 80h133q-28 -190 -188 -217z" />
    <glyph glyph-name="uni04AB" unicode="&#x4ab;" horiz-adv-x="446" 
d="M318 -4v-113h-116v113q-81 14 -125 72.5t-44 148.5v68q0 109 59 166.5t171 57.5q122 0 175 -83l-96 -67q-30 42 -82 42q-100 0 -100 -124v-52q0 -60 21 -93q23 -33 79 -33q58 0 83 43l95 -66q-39 -65 -120 -80z" />
    <glyph glyph-name="uni04AE" unicode="&#x4ae;" horiz-adv-x="583" 
d="M221 282l-215 408h162l123 -257l124 257h161l-215 -408v-282h-140v282z" />
    <glyph glyph-name="uni04AF" unicode="&#x4af;" horiz-adv-x="504" 
d="M252 176l111 324h141l-186 -490v-200h-128v200l-190 490h140z" />
    <glyph glyph-name="uni04B0" unicode="&#x4b0;" horiz-adv-x="583" 
d="M207 309l-201 381h162l123 -257l124 257h161l-201 -381h115v-118h-129v-191h-140v191h-127v118h113z" />
    <glyph glyph-name="uni04B1" unicode="&#x4b1;" horiz-adv-x="504" 
d="M252 176l111 324h141l-190 -500h99v-108h-99v-82h-120v82h-102v108h102l-194 500h140z" />
    <glyph glyph-name="uni04B2" unicode="&#x4b2;" horiz-adv-x="642" 
d="M296 235l-131 -235h-152l194 356l-173 334h152l110 -220l111 220h151l-174 -334l130 -238h111v-248h-127v130h-70z" />
    <glyph glyph-name="uni04B3" unicode="&#x4b3;" horiz-adv-x="511" 
d="M501 108v-225h-116v117h-43l-97 152l-97 -152h-141l164 256l-151 244h141l84 -143l84 143h141l-151 -244l95 -148h87z" />
    <glyph glyph-name="uni04B6" unicode="&#x4b6;" horiz-adv-x="646" 
d="M21 690h140v-203q0 -71 27 -101t92 -30q85 0 110 43v291h140v-572h99v-248h-126v130h-113v270q-47 -32 -136 -32q-128 0 -180 58q-53 59 -53 191v203z" />
    <glyph glyph-name="uni04B7" unicode="&#x4b7;" horiz-adv-x="503" 
d="M27 500h127v-144q0 -46 17.5 -64t53.5 -18q51 0 68 33v193h127v-392h66v-225h-117v117h-76v186q-31 -24 -94 -24q-172 0 -172 175v163z" />
    <glyph glyph-name="uni04B8" unicode="&#x4b8;" horiz-adv-x="618" 
d="M230 473h118v-109q48 11 62 35v291h140v-690h-140v270q-17 -13 -62 -23v-113h-118v104q-113 5 -161 63t-48 186v203h140v-203q0 -57 16 -86.5t53 -39.5v112z" />
    <glyph glyph-name="uni04B9" unicode="&#x4b9;" horiz-adv-x="512" 
d="M26 500h128v-144q0 -67 42 -79v104h95v-97q27 7 42 22v194h127v-500h-127v186q-15 -8 -42 -13v-92h-95v81q-170 0 -170 175v163z" />
    <glyph glyph-name="uni04BA" unicode="&#x4ba;" horiz-adv-x="598" 
d="M577 0h-140v260q0 71 -27 101t-92 30q-85 0 -110 -43v-348h-140v690h140v-213q47 32 137 32q127 0 179 -58q53 -59 53 -190v-261z" />
    <glyph glyph-name="uni04BB" unicode="&#x4bb;" horiz-adv-x="526" 
d="M179 0h-128v690h128v-229q36 48 112 48q183 0 183 -196v-313h-127v293q0 56 -19.5 81t-60.5 25q-88 0 -88 -105v-294z" />
    <glyph glyph-name="uni04D8" unicode="&#x4d8;" horiz-adv-x="602" 
d="M47 296v73h378v25q0 187 -124 187q-99 0 -118 -105h-134q15 108 79.5 165.5t172.5 57.5q126 0 195 -78.5t69 -236.5v-88q0 -150 -69.5 -227.5t-194.5 -77.5q-123 0 -188.5 76.5t-65.5 228.5zM301 109q56 0 85.5 33.5t36.5 107.5h-242q5 -72 33 -106.5t87 -34.5z" />
    <glyph glyph-name="afii10846" unicode="&#x4d9;" 
d="M143 358l-95 66q49 85 183 85q106 0 164 -61.5t58 -164.5v-68q0 -110 -53 -167t-153 -57q-206 0 -206 234v57h285q-2 119 -94 119q-36 0 -54.5 -9.5t-34.5 -33.5zM246 99q72 0 80 92h-157q5 -92 77 -92z" />
    <glyph glyph-name="uni04E2" unicode="&#x4e2;" horiz-adv-x="676" 
d="M68 0v690h140v-433l288 433h112v-690h-140v428l-285 -428h-115zM500 744h-322v112h322v-112z" />
    <glyph glyph-name="uni04E3" unicode="&#x4e3;" horiz-adv-x="532" 
d="M51 500h128v-273l191 273h110v-500h-127v283l-193 -283h-109v500zM408 573h-283v111h283v-111z" />
    <glyph glyph-name="uni04E8" unicode="&#x4e8;" horiz-adv-x="623" 
d="M576 394v-98q0 -150 -70 -227.5t-195 -77.5t-194.5 77.5t-69.5 227.5v98q0 151 69.5 228t194.5 77q126 0 195.5 -77t69.5 -228zM311 109q125 0 125 187v2h-249v-2q0 -187 124 -187zM311 581q-117 0 -124 -165h248q-6 165 -124 165z" />
    <glyph glyph-name="uni04E9" unicode="&#x4e9;" horiz-adv-x="499" 
d="M465 281v-60q0 -109 -54.5 -169.5t-161.5 -60.5q-105 0 -160.5 60.5t-55.5 169.5v60q0 111 55.5 169.5t160.5 58.5t160.5 -58t55.5 -170zM337 201h-176q7 -102 88 -102t88 102zM249 401q-78 0 -88 -91h175q-9 91 -87 91z" />
    <glyph glyph-name="uni04EE" unicode="&#x4ee;" horiz-adv-x="579" 
d="M311 346l124 344h144l-212 -550q-34 -87 -88 -118q-53 -31 -161 -31v122q57 0 83.5 10.5t42.5 40.5l-236 526h155zM464 744h-322v112h322v-112z" />
    <glyph glyph-name="uni04EF" unicode="&#x4ef;" horiz-adv-x="479" 
d="M192 -7l-187 507h134l111 -320l100 320h129l-175 -523q-35 -102 -79 -134q-45 -33 -150 -33v114q55 0 78.5 13.5t38.5 55.5zM388 573h-283v111h283v-111z" />
    <glyph glyph-name="uni1E9E" unicode="&#x1e9e;" horiz-adv-x="607" 
d="M541 642l-99 -179q53 -12 76 -42t23 -85v-196q0 -85 -34 -113q-33 -27 -114 -27h-91v118h50q27 0 38 13t11 43v132q0 32 -10.5 45.5t-38.5 13.5h-50v90l67 116q-29 10 -63 10q-51 0 -74.5 -23.5t-23.5 -77.5v-480h-140v488q0 102 59 156.5t179 54.5q71 0 137 -19
q71 -21 98 -38z" />
    <glyph glyph-name="uni2010" unicode="&#x2010;" horiz-adv-x="319" 
d="M289 233h-259v112h259v-112z" />
    <glyph glyph-name="uni2011" unicode="&#x2011;" horiz-adv-x="319" 
d="M289 233h-259v112h259v-112z" />
    <glyph glyph-name="figuredash" unicode="&#x2012;" horiz-adv-x="540" 
d="M476 287h-412v124h412v-124z" />
    <glyph glyph-name="endash" unicode="&#x2013;" horiz-adv-x="509" 
d="M449 227h-389v124h389v-124z" />
    <glyph glyph-name="emdash" unicode="&#x2014;" horiz-adv-x="706" 
d="M686 227h-666v124h666v-124z" />
    <glyph glyph-name="quoteleft" unicode="&#x2018;" horiz-adv-x="243" 
d="M183 534h-137v162l137 117v-279z" />
    <glyph glyph-name="quoteright" unicode="&#x2019;" horiz-adv-x="249" 
d="M46 706h134v-165l-134 -114v279z" />
    <glyph glyph-name="quotesinglbase" unicode="&#x201a;" horiz-adv-x="256" 
d="M60 136h136v-162l-136 -117v279z" />
    <glyph glyph-name="quotedblleft" unicode="&#x201c;" horiz-adv-x="386" 
d="M156 534h-137v162l137 117v-279zM335 534h-136v162l136 117v-279z" />
    <glyph glyph-name="quotedblright" unicode="&#x201d;" horiz-adv-x="386" 
d="M19 706h137v-162l-137 -117v279zM199 706h136v-162l-136 -117v279z" />
    <glyph glyph-name="quotedblbase" unicode="&#x201e;" horiz-adv-x="427" 
d="M239 136h137v-162l-137 -117v279zM60 136h136v-162l-136 -117v279z" />
    <glyph glyph-name="dagger" unicode="&#x2020;" horiz-adv-x="580" 
d="M33 381v119h187v190h140v-190h186v-119h-186v-571h-140v571h-187z" />
    <glyph glyph-name="daggerdbl" unicode="&#x2021;" horiz-adv-x="580" 
d="M33 381v119h187v190h140v-190h186v-119h-186v-263h186v-118h-186v-190h-140v190h-187v118h187v263h-187z" />
    <glyph glyph-name="bullet" unicode="&#x2022;" horiz-adv-x="296" 
d="M67 259q-34 34 -34 82t34 82t82 34t82 -34t34 -82t-34 -82t-82 -34t-82 34z" />
    <glyph glyph-name="ellipsis" unicode="&#x2026;" horiz-adv-x="882" 
d="M60 156h156v-156h-156v156zM666 156h156v-156h-156v156zM363 156h156v-156h-156v156z" />
    <glyph glyph-name="perthousand" unicode="&#x2030;" horiz-adv-x="1112" 
d="M124 0l386 690h123l-385 -690h-124zM739 200v-59q0 -150 -151 -150q-73 0 -111.5 38.5t-38.5 111.5v59q0 72 39 110t111 38q151 0 151 -148zM588 78q48 0 48 63v56q0 63 -48 63q-46 0 -46 -63v-56q0 -63 46 -63zM323 551v-59q0 -150 -152 -150q-73 0 -111 38.5t-38 111.5
v59q0 72 38.5 110t110.5 38q152 0 152 -148zM172 429q48 0 48 63v56q0 63 -48 63q-46 0 -46 -63v-56q0 -63 46 -63zM1077 200v-59q0 -150 -152 -150q-73 0 -111.5 38.5t-38.5 111.5v59q0 72 39 110t111 38q152 0 152 -148zM926 78q47 0 47 63v56q0 63 -47 63q-46 0 -46 -63
v-56q0 -63 46 -63z" />
    <glyph glyph-name="guilsinglleft" unicode="&#x2039;" horiz-adv-x="330" 
d="M262 52l-232 231l232 231v-143l-90 -88l90 -89v-142z" />
    <glyph glyph-name="guilsinglright" unicode="&#x203a;" horiz-adv-x="330" 
d="M58 371v143l232 -231l-232 -231v142l89 89z" />
    <glyph glyph-name="fraction" unicode="&#x2044;" horiz-adv-x="566" 
d="M10 0l475 690h127l-474 -690h-128z" />
    <glyph glyph-name="uni2074" unicode="&#x2074;" horiz-adv-x="349" 
d="M18 485l131 205h102l-123 -198h51v45h88v-45h39v-71h-39v-47h-88v47h-161v64z" />
    <glyph glyph-name="Euro" unicode="&#x20ac;" horiz-adv-x="540" 
d="M10 204v112h68v51h-68v112h73q28 220 227 220q194 0 216 -223h-134q-6 54 -25 79.5t-57 25.5q-40 0 -60.5 -23t-27.5 -79h111v-112h-115v-51h115v-112h-110q8 -50 29 -72.5t58 -22.5t56 24.5t26 80.5h133q-11 -116 -62.5 -169.5t-152.5 -53.5q-194 0 -226 213h-74z" />
    <glyph glyph-name="uni20B4" unicode="&#x20b4;" horiz-adv-x="540" 
d="M52 219h-45v106h526v-106h-338q-6 -15 -6 -33q0 -35 24.5 -56t71.5 -21q37 0 62 15.5t56 53.5l106 -74q-51 -64 -101 -88q-50 -25 -134 -25q-106 0 -165.5 54t-59.5 140q0 17 3 34zM533 366h-526v106h336q8 18 8 33q0 36 -21.5 56t-62.5 20q-34 0 -58 -16t-49 -53
l-104 74q75 113 212 113q107 0 165.5 -51t57.5 -135q0 -23 -6 -41h48v-106z" />
    <glyph glyph-name="uni20B8" unicode="&#x20b8;" horiz-adv-x="540" 
d="M14 405v119h513v-119h-187v-405h-140v405h-186zM14 571v119h513v-119h-513z" />
    <glyph glyph-name="uni20BD" unicode="&#x20bd;" horiz-adv-x="540" 
d="M93 243h-84v118h84v329h192q123 0 190.5 -56.5t67.5 -164.5q0 -107 -68.5 -166.5t-189.5 -59.5h-52v-39h115v-118h-115v-86h-140v86h-84v118h84v39zM233 571v-210h32q72 0 105 26t33 82q0 102 -138 102h-32z" />
    <glyph glyph-name="afii61352" unicode="&#x2116;" horiz-adv-x="946" 
d="M927 537v-47q0 -76 -39.5 -119.5t-113.5 -43.5q-72 0 -112.5 43.5t-40.5 119.5v47q0 77 40 119.5t113 42.5t113 -42.5t40 -119.5zM904 166h-259v119h259v-119zM774 426q45 0 45 68v39q0 67 -45 67q-46 0 -46 -67v-39q0 -68 46 -68zM444 257v433h133v-690h-117l-269 427
v-427h-133v690h116z" />
    <glyph glyph-name="trademark" unicode="&#x2122;" horiz-adv-x="910" 
d="M406 690h105l123 -215l123 215h106v-417h-112v195l-77 -131h-85l-72 131v-195h-111v417zM24 590v100h351v-100h-119v-317h-112v317h-120z" />
    <glyph glyph-name="uni2190" unicode="&#x2190;" horiz-adv-x="875" 
d="M209 222l314 -314h-110l-353 353l353 353h110l-314 -314h606v-78h-606z" />
    <glyph glyph-name="uni2191" unicode="&#x2191;" horiz-adv-x="826" 
d="M413 639l353 -353v-110l-314 314v-606h-78v606l-314 -314v110z" />
    <glyph glyph-name="uni2192" unicode="&#x2192;" horiz-adv-x="875" 
d="M815 261l-353 -353h-110l314 314h-606v78h606l-314 314h110z" />
    <glyph glyph-name="uni2193" unicode="&#x2193;" horiz-adv-x="826" 
d="M413 -117l-353 353v110l314 -314v606h78v-606l314 314v-110z" />
    <glyph glyph-name="uni2196" unicode="&#x2196;" horiz-adv-x="698" 
d="M137 367v-445l-77 78v500h500l78 -77h-445l428 -429l-55 -55z" />
    <glyph glyph-name="uni2197" unicode="&#x2197;" horiz-adv-x="698" 
d="M638 500v-500l-77 -78v445l-429 -428l-55 55l428 429h-445l78 77h500z" />
    <glyph glyph-name="uni2198" unicode="&#x2198;" horiz-adv-x="698" 
d="M561 133v445l77 -78v-500h-500l-78 77h445l-428 429l55 55z" />
    <glyph glyph-name="uni2199" unicode="&#x2199;" horiz-adv-x="698" 
d="M60 0v500l77 78v-445l429 428l55 -55l-428 -429h445l-78 -77h-500z" />
    <glyph glyph-name="uni21A3" unicode="&#x21a3;" horiz-adv-x="1375" 
d="M203 405l61 59l124 -124h768l-64 65l60 59l183 -183l-183 -183l-60 59l64 65h-768l-124 -124l-61 59l124 124zM40 405l60 59l183 -183l-183 -183l-60 59l124 124z" />
    <glyph glyph-name="partialdiff" unicode="&#x2202;" horiz-adv-x="503" 
d="M465 460v-239q0 -109 -54.5 -169.5t-161.5 -60.5q-105 0 -160.5 60.5t-55.5 169.5v60q0 110 54.5 169t153.5 59q57 0 97 -24q-5 107 -100 107q-50 0 -106 -35l-58 79q68 63 177 63q214 0 214 -239zM249 99q89 0 89 126v52q0 124 -89 124t-89 -124v-52q0 -63 20.5 -94.5
t68.5 -31.5z" />
    <glyph glyph-name="product" unicode="&#x220f;" horiz-adv-x="638" 
d="M58 -190v880h522v-880h-140v761h-242v-761h-140z" />
    <glyph glyph-name="summation" unicode="&#x2211;" horiz-adv-x="519" 
d="M30 690h469v-118h-291l176 -268v-110l-176 -266h291v-118h-469v103l225 337l-225 337v103z" />
    <glyph glyph-name="minus" unicode="&#x2212;" horiz-adv-x="506" 
d="M447 298h-389v112h389v-112z" />
    <glyph glyph-name="uni2215" unicode="&#x2215;" horiz-adv-x="485" 
d="M498 812l-336 -928h-115l336 928h115z" />
    <glyph glyph-name="radical" unicode="&#x221a;" horiz-adv-x="697" 
d="M7 381v119h214l126 -302l106 492h298v-119h-184l-142 -571h-132l-177 381h-109z" />
    <glyph glyph-name="infinity" unicode="&#x221e;" horiz-adv-x="802" 
d="M400 266q-90 -107 -191 -107q-77 0 -127 53q-49 52 -49 130q0 77 50 130t130 53q106 0 193 -105q46 54 89 79.5t97 25.5q76 0 126 -53t50 -130q0 -78 -49 -130q-48 -53 -121 -53q-108 0 -198 107zM588 272q30 0 49.5 20t19.5 50t-21 49t-52 19q-20 0 -39 -10
q-27 -14 -66 -57q65 -71 109 -71zM216 272q29 0 53.5 16.5t58.5 53.5q-62 68 -112 68q-30 0 -50.5 -19t-20.5 -49t20.5 -50t50.5 -20z" />
    <glyph glyph-name="integral" unicode="&#x222b;" horiz-adv-x="309" 
d="M213 507v-534q0 -94 -40 -128q-41 -35 -134 -35h-37v114h24q33 0 45 14.5t12 53.5v535q0 94 40 128q41 35 134 35h37v-114h-23q-33 0 -45.5 -15t-12.5 -54z" />
    <glyph glyph-name="approxequal" unicode="&#x2248;" horiz-adv-x="500" 
d="M416 485l45 -93q-50 -53 -113 -53q-36 0 -102 26q-63 27 -91 27q-33 0 -70 -29l-46 95q53 53 113 53q36 0 102 -27q67 -26 95 -26q34 0 67 27zM416 311l45 -92q-50 -53 -113 -53q-36 0 -102 26q-63 27 -91 27q-33 0 -70 -29l-46 95q53 53 113 53q36 0 102 -27
q67 -26 95 -26q35 0 67 26z" />
    <glyph glyph-name="notequal" unicode="&#x2260;" horiz-adv-x="500" 
d="M209 359h-154v120h206l68 156l100 -40l-51 -116h66v-120h-118l-25 -58h143v-119h-195l-64 -148l-100 40l47 108h-77v119h129z" />
    <glyph glyph-name="lessequal" unicode="&#x2264;" horiz-adv-x="385" 
d="M315 170l-232 231l232 231v-143l-90 -88l90 -89v-142zM315 -36l-232 231v141l232 -229v-143z" />
    <glyph glyph-name="greaterequal" unicode="&#x2265;" horiz-adv-x="385" 
d="M83 489v143l232 -231l-232 -231v142l89 89zM83 107l232 229v-141l-232 -231v143z" />
    <glyph glyph-name="uni231A" unicode="&#x231a;" horiz-adv-x="666" 
d="M446 -205h-261v235q-58 34 -91.5 93t-33.5 127t33.5 126.5t91.5 92.5v235h261v-234q49 -30 81 -77t41 -103h38v-80h-38q-19 -118 -122 -180v-235zM167 398q-62 -62 -62 -148q0 -87 62 -149t149 -62q86 0 148 62t62 149q0 86 -62 148t-148 62q-87 0 -149 -62zM488 337
l-6 -19l-166 -93l-133 75l-6 20l20 5l119 -70l153 87z" />
    <glyph glyph-name="uni23F2" unicode="&#x23f2;" horiz-adv-x="1072" 
d="M199 5q-139 139 -139 337q0 197 139 336q140 140 337 140q196 0 336 -140t140 -336q0 -197 -140 -337q-139 -139 -336 -139q-198 0 -337 139zM237 640q-123 -123 -123 -298q0 -174 123 -299q124 -123 299 -123t298 123q123 125 123 299q0 175 -123 298t-298 123
t-299 -123zM881 544l-10 -36l-335 -192l-248 142l-10 35l36 10l222 -129l309 179zM802 318v46h126v-46h-126zM559 -50h-46v126h46v-126zM145 318v46h126v-46h-126zM559 607h-46v126h46v-126z" />
    <glyph glyph-name="uni2550" unicode="&#x2550;" horiz-adv-x="2158" 
d="M0 417h2158v-119h-2158v119zM0 255h2158v-119h-2158v119z" />
    <glyph glyph-name="lozenge" unicode="&#x25ca;" horiz-adv-x="564" 
d="M23 296l192 291h136l190 -291l-190 -296h-136zM393 296l-111 180l-112 -180l112 -186z" />
    <glyph glyph-name="uni261D" unicode="&#x261d;" horiz-adv-x="705" 
d="M645 249v-277h-370l-215 292q8 8 29 19q62 30 115 -25l71 -74v450q0 61 50 61t50 -58v-229h36q29 0 41.5 -13t12.5 -41h36q29 0 41.5 -13t12.5 -41h34q30 0 43 -12t13 -39zM645 -243h-370v161h370v-161zM584 -142q-11 11 -26 5.5t-19.5 -18.5t6.5 -27q12 -12 27 -6.5
t18.5 19.5t-6.5 27z" />
    <glyph glyph-name="uni261E" unicode="&#x261e;" horiz-adv-x="1061" 
d="M555 51h-277v370l292 215q9 -9 19 -30q31 -62 -25 -114l-74 -71h450q61 0 61 -50t-58 -50h-229v-36q0 -29 -13 -41.5t-41 -12.5v-36q0 -29 -13 -41.5t-41 -12.5v-34q0 -30 -12 -43t-39 -13zM60 51v370h164v-370h-164zM161 111q12 12 7 27.5t-18.5 19.5t-27.5 -7
q-12 -12 -6.5 -27t19.5 -18.5t26 5.5z" />
    <glyph glyph-name="uni26F3" unicode="&#x26f3;" horiz-adv-x="674" 
d="M60 513q0 115 81 196t196 81t196 -81t81 -196q0 -86 -82 -216l-195 -307l-197 309q-80 128 -80 214zM258 591q-32 -32 -32 -78t32 -78q34 -32 79 -32q46 0 78 32t32 78t-32 78t-78 32q-45 0 -79 -32z" />
    <glyph glyph-name="uni2709" unicode="&#x2709;" horiz-adv-x="1236" 
d="M60 518v60h1116v-60l-558 -334zM60 37v444l338 -201zM810 263l366 -263h-1116l366 263l192 -114zM1176 37l-338 243l338 201v-444z" />
    <glyph glyph-name="uniF040" unicode="&#xf040;" horiz-adv-x="3054" 
d="M1576 409l61 60l129 -129h1288v-118h-1286l-131 -131l-61 59l130 130zM1286 222h-1286v118h1288l129 129l61 -60l-130 -129l130 -130l-61 -59z" />
    <glyph glyph-name="uniF041" unicode="&#xf041;" horiz-adv-x="2855" 
d="M1403 168l156 272l80 -46l-31 -54h1247v-118h-1316l-57 -99zM1315 340l58 100l79 -46l-156 -271l-80 45l31 54h-1247v118h1315z" />
    <glyph glyph-name="uniF042" unicode="&#xf042;" horiz-adv-x="2825" 
d="M2825 222h-1388v118h1388v-118zM0 340h1268v-118h-1268v118z" />
    <glyph glyph-name="uniF043" unicode="&#xf043;" horiz-adv-x="705" 
d="M275 -28l-215 292l8 6q13 12 31.5 19t48.5 1.5t56 -32.5l71 -74v450q0 61 50 61t50 -58v-229h36q29 0 41.5 -13t12.5 -41h36q29 0 41.5 -13t12.5 -41h34q30 0 43 -12t13 -39v-277h-370zM275 -82h370v-161h-370v161zM545 -142q-12 -12 -6.5 -27.5t19.5 -19.5t26 7
q19 19 0 38t-39 2zM83 605v55h158v-55h-158zM409 605v55h158v-55h-158zM352 725h-55v158h55v-158z" />
    <glyph glyph-name="uniF044" unicode="&#xf044;" horiz-adv-x="931" 
d="M177 126l3 10q9 29 38.5 52t81.5 13l201 -45v478q0 61 50 61t50 -58v-229h36q29 0 41.5 -13t12.5 -41h36q29 0 41.5 -13t12.5 -41h34q30 0 43 -12t13 -39v-277h-370zM501 -82h370v-161h-370v161zM553 759v55h158v-158h-55v103h-103zM218 70v-55h-158v158h55v-103h103z
M771 -142q-12 -12 -6.5 -27.5t19.5 -19.5t26 7q19 19 0 38t-39 2z" />
    <glyph glyph-name="uniF045" unicode="&#xf045;" horiz-adv-x="903" 
d="M370 665h503v-55h-498v-202h36q29 0 41.5 -13t12.5 -41h36q29 0 41.5 -13t12.5 -41h34q30 0 43 -12t13 -39v-277h-370l-215 292q8 8 29 19q62 30 115 -25l71 -74v450q0 61 50 61q35 0 45 -30zM645 -243h-370v161h370v-161zM199 525l-112 112l112 112l39 -39l-73 -73
l73 -73zM584 -142q-11 11 -26 5.5t-19.5 -18.5t6.5 -27q12 -12 27 -6.5t18.5 19.5t-6.5 27z" />
    <glyph glyph-name="uniF046" unicode="&#xf046;" horiz-adv-x="952" 
d="M892 249v-277h-370l-215 292q8 8 29 19q62 30 115 -25l71 -74v426h-492v55h497q11 30 45 30q50 0 50 -58v-229h36q54 0 54 -54h36q54 0 54 -54h34q30 0 43 -12t13 -39zM892 -243h-370v161h370v-161zM704 749l112 -112l-112 -112l-39 39l73 73l-73 73zM831 -142
q-11 11 -26 5.5t-19.5 -18.5t6.5 -27q12 -12 27 -6.5t18.5 19.5t-6.5 27z" />
    <glyph glyph-name="uniF047" unicode="&#xf047;" horiz-adv-x="1010" 
d="M872 514l-6 -4v-634h-55v603l-137 -79l17 -31q27 -48 -19 -73l18 -32q27 -46 -20 -73l17 -30q29 -48 -17 -74l-239 -139l-185 321l145 332l5 -2q5 -2 13.5 -6t17 -11t17.5 -17t14 -23t6 -30.5t-6 -38.5l-29 -99l391 226q53 29 78 -13q25 -43 -26 -73zM245 -159l-185 321
l140 81l184 -321zM765 651l-39 39l112 112l112 -112l-39 -39l-73 73zM295 -27q-11 11 -26 5.5t-19.5 -18.5t6.5 -27q12 -12 27 -6.5t18.5 19.5t-6.5 27z" />
    <glyph glyph-name="uniF048" unicode="&#xf048;" horiz-adv-x="1145" 
d="M485 0l-240 137l186 321l360 40q3 -17 1 -35q-4 -69 -78 -87l-100 -24l332 -192v603h55v-635l4 -2q51 -30 27 -74q-25 -43 -76 -14l-198 115l-18 -30q-28 -48 -73 -21l-18 -31q-27 -46 -74 -19l-17 -30q-28 -47 -73 -22zM60 245l185 320l140 -80l-186 -320zM1085 -51
l-112 -112l-112 112l39 39l73 -73l73 73zM191 293q-11 12 -26 7t-19.5 -18.5t6.5 -27.5q12 -12 27.5 -6.5t19 19.5t-7.5 26z" />
    <glyph glyph-name="uniF400" unicode="&#xf400;" horiz-adv-x="0" 
d="M-192 567h-122l70 158h143z" />
    <glyph glyph-name="uniF401" unicode="&#xf401;" horiz-adv-x="0" 
d="M-254 742h-124l80 129h147z" />
    <glyph glyph-name="uniF406" unicode="&#xf406;" horiz-adv-x="519" 
d="M338 879h112q0 -71 -52.5 -111.5t-138.5 -40.5t-138.5 40.5t-52.5 111.5h111q11 -54 80 -54t79 54z" />
    <glyph glyph-name="uniF407" unicode="&#xf407;" horiz-adv-x="410" 
d="M145 -72l20 97l81 -3l-12 -44q53 -20 53 -72q0 -39 -32.5 -62.5t-86.5 -23.5q-31 0 -46 4l15 65q16 -2 19 -2q33 0 33 21q0 20 -44 20z" />
    <glyph glyph-name="uniF408" unicode="&#xf408;" horiz-adv-x="519" 
d="M69 737l138 142h105l138 -142h-133l-58 61l-57 -61h-133z" />
    <glyph glyph-name="uniF409" unicode="&#xf409;" horiz-adv-x="397" 
d="M130 -51h137v-129l-137 -117v246z" />
    <glyph glyph-name="uniF40A" unicode="&#xf40a;" horiz-adv-x="205" 
d="M57 690h136v-150l-136 -116v266z" />
    <glyph glyph-name="uniF40B" unicode="&#xf40b;" horiz-adv-x="399" 
d="M270 759h-141v110h141v-110z" />
    <glyph glyph-name="uniF40C" unicode="&#xf40c;" horiz-adv-x="445" 
d="M106 800q0 45 32 72t83 27q52 0 84.5 -27t32.5 -72q0 -44 -32.5 -71t-84.5 -27q-51 0 -83 27t-32 71zM221 769q37 0 37 31t-37 31q-36 0 -36 -31t36 -31z" />
    <glyph glyph-name="uniF40D" unicode="&#xf40d;" horiz-adv-x="504" 
d="M313 738q-26 0 -65 14q-37 15 -53 15q-29 0 -52 -26l-68 69q49 60 118 60q25 0 62 -15q39 -14 55 -14q28 0 50 27l68 -69q-49 -61 -115 -61z" />
    <glyph glyph-name="uniF40E" unicode="&#xf40e;" horiz-adv-x="413" 
d="M235 48l34 -48q-25 -22 -33.5 -33t-11.5 -28q0 -22 27 -22q5 0 19 2l15 -65q-15 -4 -48 -4q-48 0 -79 19.5t-31 56.5q0 68 108 122z" />
    <glyph glyph-name="dollar.fitted" unicode="&#xf5f5;" horiz-adv-x="575" 
d="M532 586l-105 -75q-34 52 -83 64v-175q104 -28 149.5 -75.5t45.5 -132.5q0 -80 -48.5 -133t-138.5 -65v-110h-116v111q-131 15 -201 109l107 74q40 -52 101 -65v181q-96 28 -142.5 79t-46.5 132q0 77 46.5 127.5t135.5 62.5v117h116v-118q122 -18 180 -108zM399 186
q0 50 -55 75v-146q55 16 55 71zM194 505q0 -47 49 -72v140q-49 -16 -49 -68z" />
    <glyph glyph-name="Euro.fitted" unicode="&#xf5f6;" horiz-adv-x="639" 
d="M8 204v112h84v51h-84v112h90q18 109 85 164.5t173 55.5t171 -56.5t82 -166.5h-134q-21 105 -119 105q-94 0 -116 -102h148v-112h-156v-51h156v-112h-146q26 -95 114 -95q51 0 79 25t40 80h133q-33 -223 -252 -223q-104 0 -170 53.5t-86 159.5h-92z" />
    <glyph glyph-name="cent.fitted" unicode="&#xf5f7;" horiz-adv-x="446" 
d="M343 145l95 -66q-39 -68 -126 -82v-113h-114v115q-78 16 -121.5 74t-43.5 146v64q0 187 165 218v121h114v-120q86 -17 126 -79l-96 -67q-30 42 -82 42q-100 0 -100 -124v-46q0 -63 22.5 -94.5t77.5 -31.5q58 0 83 43z" />
    <glyph glyph-name="sterling.fitted" unicode="&#xf5f8;" horiz-adv-x="536" 
d="M497 0h-472v118h73v159h-73v119h73v31q0 272 219 272q136 0 203 -103l-115 -65q-38 50 -82 50q-43 0 -64 -36t-21 -118v-31h131v-119h-131v-159h259v-118z" />
    <glyph glyph-name="yen.fitted" unicode="&#xf5f9;" horiz-adv-x="596" 
d="M85 119v112h143v51h-143v112h84l-156 296h162l123 -257l124 257h161l-156 -296h85v-112h-144v-51h144v-112h-144v-119h-140v119h-143z" />
    <glyph glyph-name="florin.fitted" unicode="&#xf5fa;" horiz-adv-x="324" 
d="M24 381v119h64v27q0 91 41.5 127t138.5 36h37v-119h-21q-33 0 -46 -15t-13 -51v-5h80v-119h-80v-408q0 -90 -48 -126.5t-156 -36.5v119q37 0 52 16t15 54v382h-64z" />
    <glyph glyph-name="uni20B4.fitted" unicode="&#xf5fb;" horiz-adv-x="596" 
d="M80 219h-45v106h526v-106h-338q-6 -15 -6 -33q0 -35 24 -56t72 -21q36 0 61.5 15t56.5 54l106 -74q-51 -64 -101 -88q-50 -25 -135 -25q-105 0 -164.5 54t-59.5 140q0 17 3 34zM561 366h-526v106h336q8 18 8 33q0 36 -22 56t-62 20q-34 0 -58 -16t-49 -53l-104 74
q74 113 211 113q107 0 165.5 -51t58.5 -135q0 -23 -6 -41h48v-106z" />
    <glyph glyph-name="uni20BD.fitted" unicode="&#xf5fc;" horiz-adv-x="540" 
d="M93 243h-84v118h84v329h192q123 0 190.5 -56.5t67.5 -164.5q0 -107 -68.5 -166.5t-189.5 -59.5h-52v-39h115v-118h-115v-86h-140v86h-84v118h84v39zM233 571v-210h32q72 0 105 26t33 82q0 102 -138 102h-32z" />
    <glyph glyph-name="uni20B8.fitted" unicode="&#xf5fd;" horiz-adv-x="536" 
d="M8 405v119h520v-119h-190v-405h-140v405h-190zM8 571v119h520v-119h-520z" />
    <glyph glyph-name="currency.fitted" unicode="&#xf5fe;" horiz-adv-x="578" 
d="M90 366q0 49 22 92l-79 79l84 84l77 -78q45 24 95 24t94 -23l78 78l84 -84l-78 -78q23 -44 23 -94q0 -49 -24 -94l79 -78l-84 -84l-79 78q-43 -22 -93 -22t-94 23l-78 -78l-84 84l79 79q-22 41 -22 92zM289 271q40 0 66.5 27.5t26.5 67.5t-27 68t-66 28t-65.5 -28
t-26.5 -68t26.5 -67.5t65.5 -27.5z" />
    <glyph glyph-name="uniF639" unicode="&#xf639;" horiz-adv-x="570" 
d="M517 480v-269q0 -109 -66 -165q-64 -55 -166 -55t-167 55q-65 56 -65 165v268q0 114 65 167t167 53t167 -53t65 -166zM377 223v244q0 114 -92 114q-93 0 -93 -114v-244q0 -114 93 -114q92 0 92 114z" />
    <glyph glyph-name="uniF63A" unicode="&#xf63a;" horiz-adv-x="515" 
d="M224 118h238v-118h-426v90l231 272q64 73 64 137q0 39 -24.5 61.5t-61.5 22.5q-36 0 -59.5 -22.5t-26.5 -61.5h-124q0 89 63 144q64 56 154 56q94 0 155 -58q63 -57 63 -142q0 -44 -19 -86q-21 -46 -37 -68q-16 -23 -48 -60z" />
    <glyph glyph-name="uniF63B" unicode="&#xf63b;" horiz-adv-x="513" 
d="M234 297h-51v118h51q45 0 70.5 23t25.5 65q0 35 -24 57.5t-62 22.5q-35 0 -58 -20t-28 -54h-124q5 85 65 137q62 53 152 53q93 0 155 -56q63 -55 63 -134q0 -100 -94 -151q104 -51 104 -165q0 -86 -59 -145q-58 -57 -161 -57q-106 0 -168 53t-66 141h123q13 -76 102 -76
q41 0 65.5 25.5t24.5 65.5q0 97 -106 97z" />
    <glyph glyph-name="uniF63C" unicode="&#xf63c;" horiz-adv-x="545" 
d="M13 195l236 495h153l-215 -473h132v176h140v-176h63v-119h-63v-98h-140v98h-306v97z" />
    <glyph glyph-name="uniF63D" unicode="&#xf63d;" horiz-adv-x="526" 
d="M266 355q-48 0 -73 -51h-126v386h393v-127h-256v-118q38 36 102 36q83 0 131.5 -64t48.5 -182q0 -244 -216 -244q-92 0 -154 49q-63 50 -70 138h138q16 -69 82 -69q80 0 80 119q0 127 -80 127z" />
    <glyph glyph-name="uniF63E" unicode="&#xf63e;" horiz-adv-x="531" 
d="M235 690h150l-144 -284q26 13 67 13q80 0 134 -59q55 -58 55 -147q0 -107 -63 -164.5t-168 -57.5q-103 0 -168 56t-65 165q0 70 63 197zM173 207q0 -46 24.5 -72t68.5 -26t67.5 26t23.5 72q0 45 -23.5 71t-67.5 26t-68.5 -26t-24.5 -71z" />
    <glyph glyph-name="uniF63F" unicode="&#xf63f;" horiz-adv-x="452" 
d="M135 571v-107h-119v226h422v-98l-199 -592h-145l200 571h-159z" />
    <glyph glyph-name="uniF640" unicode="&#xf640;" horiz-adv-x="536" 
d="M33 192q0 54 29.5 99.5t73.5 66.5q-42 21 -67.5 62.5t-25.5 89.5q0 87 66 138t159 51q94 0 159 -51q66 -50 66 -138q0 -48 -25.5 -89.5t-67.5 -62.5q45 -21 74 -66t29 -100q0 -93 -68 -147q-67 -54 -167 -54t-168 54q-67 54 -67 147zM173 205q0 -40 27 -68.5t68 -28.5
q40 0 68 28.5t28 68.5q0 41 -29 68.5t-67 27.5q-39 0 -67 -27t-28 -69zM182 496q0 -36 25 -61.5t61 -25.5q35 0 60.5 25.5t25.5 61.5q0 35 -25.5 60t-60.5 25q-36 0 -61 -25t-25 -60z" />
    <glyph glyph-name="uniF641" unicode="&#xf641;" horiz-adv-x="531" 
d="M295 0h-150l145 284q-27 -13 -67 -13q-80 0 -135 58t-55 148q0 109 65 165q64 57 167 57t168 -56t65 -165q0 -68 -64 -197zM358 483q0 46 -24.5 72t-68.5 26t-68 -26t-24 -72q0 -45 24 -71t68 -26t68.5 26t24.5 71z" />
    <glyph glyph-name="uniF6BA" unicode="&#xf6ba;" horiz-adv-x="319" 
d="M289 289h-259v112h259v-112z" />
    <glyph glyph-name="uniF6BB" unicode="&#xf6bb;" horiz-adv-x="509" 
d="M449 283h-389v124h389v-124z" />
    <glyph glyph-name="uniF6BC" unicode="&#xf6bc;" horiz-adv-x="706" 
d="M686 283h-666v124h666v-124z" />
    <glyph glyph-name="uniF6C3" unicode="&#xf6c3;" horiz-adv-x="332" 
d="M97 -51h137v-129l-137 -117v246z" />
    <glyph glyph-name="uniF6C9" unicode="&#xf6c9;" horiz-adv-x="379" 
d="M200 742h-124l80 129h147z" />
    <glyph glyph-name="uniF6CA" unicode="&#xf6ca;" horiz-adv-x="519" 
d="M450 879l-138 -142h-105l-138 142h133l57 -61l58 61h133z" />
    <glyph glyph-name="uniF6CB" unicode="&#xf6cb;" horiz-adv-x="492" 
d="M206 752h-124v117h124v-117zM409 752h-124v117h124v-117z" />
    <glyph glyph-name="uniF6CE" unicode="&#xf6ce;" horiz-adv-x="404" 
d="M88 871h148l80 -129h-125z" />
    <glyph glyph-name="uniF6CF" unicode="&#xf6cf;" horiz-adv-x="590" 
d="M199 742h-125l80 129h148zM402 742h-124l90 129h147z" />
    <glyph glyph-name="uniF6D0" unicode="&#xf6d0;" horiz-adv-x="490" 
d="M406 744h-322v112h322v-112z" />
    <glyph glyph-name="uniF6D1" unicode="&#xf6d1;" horiz-adv-x="455" 
d="M290 879h128q0 -151 -190 -151q-191 0 -191 151h129q0 -31 14 -46.5t48 -15.5t48 15.5t14 46.5z" />
    <glyph glyph-name="uniF6D4" unicode="&#xf6d4;" horiz-adv-x="417" 
d="M259 687h104q0 -129 -154 -129q-74 0 -114.5 32t-40.5 97h104q0 -55 51 -55q50 0 50 55z" />
    <glyph glyph-name="uniF6DC" unicode="&#xf6dc;" horiz-adv-x="337" 
d="M143 690h126v-690h-140v544l-99 -65v135z" />
    <glyph glyph-name="uniFEFF" unicode="&#xfeff;" horiz-adv-x="0" 
 />
    <glyph glyph-name="uniF4D3" unicode="&#x1f4d3;" horiz-adv-x="752" 
d="M60 60v815q0 25 18 43t43 18h510q25 0 43 -18t18 -43v-815q0 -25 -18 -42.5t-43 -17.5h-510q-25 0 -43 17.5t-18 42.5zM376 25q17 0 29 12t12 29t-12 29t-29 12q-18 0 -30 -12t-12 -29t12 -29t30 -12zM648 132v691h-544v-691h544zM357 879q0 -17 18 -17t18 17t-18 17
t-18 -17z" />
    <glyph glyph-name="uniF4F1" unicode="&#x1f4f1;" horiz-adv-x="552" 
d="M60 60v715q0 25 18 43t43 18h310q25 0 43 -18t18 -43v-715q0 -25 -18 -42.5t-43 -17.5h-310q-25 0 -43 17.5t-18 42.5zM276 25q17 0 29 12t12 29t-12 29t-29 12q-18 0 -30 -12t-12 -29t12 -29t30 -12zM448 132v591h-344v-591h344zM323 790h-94q-11 0 -11 -12t11 -12h94
q11 0 11 12t-11 12z" />
    <glyph glyph-name="NULL" horiz-adv-x="0" 
 />
    <glyph glyph-name="CR" horiz-adv-x="333" 
 />
    <glyph glyph-name="uni2197.ss02" horiz-adv-x="667" 
d="M607 500v-500h-78v367l-414 -414l-55 55l414 414h-367v78h500z" />
    <glyph glyph-name="uni2199.ss02" horiz-adv-x="667" 
d="M60 0v500h78v-367l414 414l55 -55l-414 -414h367v-78h-500z" />
    <glyph glyph-name="a.ss01" horiz-adv-x="517" 
d="M33 217v68q0 106 53 165t145 59q66 0 107 -34v25h127v-500h-127v28q-41 -37 -107 -37q-95 0 -146.5 61t-51.5 165zM249 99q48 0 68.5 31.5t20.5 94.5v52q0 124 -89 124t-89 -124v-52q0 -126 89 -126z" />
    <glyph glyph-name="uni2198.ss02" horiz-adv-x="667" 
d="M529 133v367h78v-500h-500v78h367l-414 414l55 55z" />
    <glyph glyph-name="afii10069.ss01" horiz-adv-x="517" 
d="M465 460v-239q0 -109 -54.5 -169.5t-161.5 -60.5q-105 0 -160.5 60.5t-55.5 169.5v60q0 110 54.5 169t153.5 59q57 0 97 -24q-5 107 -100 107q-50 0 -106 -35l-58 79q68 63 177 63q214 0 214 -239zM249 99q89 0 89 126v52q0 124 -89 124t-89 -124v-52q0 -63 20.5 -94.5
t68.5 -31.5z" />
    <glyph glyph-name="afii10074.ss01" horiz-adv-x="526" 
d="M347 500h127v-500h-125v42q-18 -28 -43 -39.5t-71 -11.5q-87 0 -135.5 48t-48.5 149v312h128v-293q0 -56 19.5 -81t61.5 -25q87 0 87 105v294z" />
    <glyph glyph-name="afii10075.ss01" horiz-adv-x="526" 
d="M347 500h127v-500h-125v42q-18 -28 -43 -39.5t-71 -11.5q-87 0 -135.5 48t-48.5 149v312h128v-293q0 -56 19.5 -81t61.5 -25q87 0 87 105v294zM313 687h104q0 -129 -154 -129q-74 0 -114.5 32t-40.5 97h104q0 -55 51 -55q50 0 50 55z" />
    <glyph glyph-name="afii10081.ss01" horiz-adv-x="526" 
d="M179 0h-128v500h125v-42q39 51 115 51q183 0 183 -196v-313h-127v293q0 56 -19.5 81t-60.5 25q-88 0 -88 -105v-294z" />
    <glyph glyph-name="afii10084.ss01" horiz-adv-x="795" 
d="M461 294v-294h-127v293q0 106 -76 106q-37 0 -58 -27t-21 -78v-294h-128v500h125v-42q38 51 111 51q94 0 140 -67q55 67 144 67q84 0 128.5 -50t44.5 -146v-313h-128v293q0 106 -77 106q-37 0 -57.5 -27t-20.5 -78z" />
    <glyph glyph-name="uni2193.ss02" horiz-adv-x="826" 
d="M413 -107l-353 353l55 55l259 -259v586h78v-586l259 259l55 -55z" />
    <glyph glyph-name="uni2196.ss02" horiz-adv-x="667" 
d="M138 367v-367h-78v500h500v-78h-367l414 -414l-55 -55z" />
    <glyph glyph-name="uni261E.ss02" horiz-adv-x="1061" 
d="M555 51h-277v370l292 215q9 -9 19 -30q31 -62 -25 -114l-74 -71h450q61 0 61 -50t-58 -50h-229v-36q0 -29 -13 -41.5t-41 -12.5v-36q0 -29 -13 -41.5t-41 -12.5v-34q0 -30 -12 -43t-39 -13zM60 51v370h164v-370h-164zM106 396h-20v-319h20v319zM178 77h20v319h-20v-319z
M152 396h-20v-222h20v222zM152 112h-20v-35h20v35z" />
    <glyph glyph-name="uni2191.ss02" horiz-adv-x="826" 
d="M413 629l353 -353l-55 -55l-259 259v-586h-78v586l-259 -259l-55 55z" />
    <glyph glyph-name="uni2192.ss02" horiz-adv-x="855" 
d="M795 261l-353 -353l-55 55l259 259h-586v78h586l-259 259l55 55z" />
    <glyph glyph-name="acircumflex.ss01" horiz-adv-x="517" 
d="M33 217v68q0 106 53 165t145 59q66 0 107 -34v25h127v-500h-127v28q-41 -37 -107 -37q-95 0 -146.5 61t-51.5 165zM249 99q48 0 68.5 31.5t20.5 94.5v52q0 124 -89 124t-89 -124v-52q0 -126 89 -126zM92 568l108 142h106l108 -142h-114l-47 65l-47 -65h-114z" />
    <glyph glyph-name="atilde.ss01" horiz-adv-x="517" 
d="M33 217v68q0 106 53 165t145 59q66 0 107 -34v25h127v-500h-127v28q-41 -37 -107 -37q-95 0 -146.5 61t-51.5 165zM249 99q48 0 68.5 31.5t20.5 94.5v52q0 124 -89 124t-89 -124v-52q0 -126 89 -126zM322 569q-25 0 -64 14q-37 15 -53 15q-31 0 -53 -27l-67 64
q48 61 117 61q24 0 62 -15q39 -14 55 -14q27 0 51 27l67 -64q-46 -61 -115 -61z" />
    <glyph glyph-name="adieresis.ss01" horiz-adv-x="517" 
d="M33 217v68q0 106 53 165t145 59q66 0 107 -34v25h127v-500h-127v28q-41 -37 -107 -37q-95 0 -146.5 61t-51.5 165zM249 99q48 0 68.5 31.5t20.5 94.5v52q0 124 -89 124t-89 -124v-52q0 -126 89 -126zM219 573h-124v117h124v-117zM422 573h-123v117h123v-117z" />
    <glyph glyph-name="aring.ss01" horiz-adv-x="517" 
d="M33 217v68q0 106 53 165t145 59q66 0 107 -34v25h127v-500h-127v28q-41 -37 -107 -37q-95 0 -146.5 61t-51.5 165zM249 99q48 0 68.5 31.5t20.5 94.5v52q0 124 -89 124t-89 -124v-52q0 -126 89 -126zM171 567q-34 31 -34 79t34 79t89 31t89 -31t34 -79t-34 -79
q-35 -30 -89 -30t-89 30zM223 646q0 -20 10 -32t27 -12q37 0 37 44q0 43 -37 43t-37 -43z" />
    <glyph glyph-name="egrave.ss01" 
d="M343 142l95 -66q-49 -85 -183 -85q-106 0 -164 61.5t-58 164.5v68q0 110 54.5 167t155.5 57q100 0 151 -44t51 -119q0 -70 -50 -109t-152 -39h-82q9 -99 93 -99q36 0 54.5 9.5t34.5 33.5zM243 401q-81 0 -83 -108h83q75 0 75 53q0 55 -75 55zM120 725h143l70 -158h-122z
" />
    <glyph glyph-name="eacute.ss01" 
d="M343 142l95 -66q-49 -85 -183 -85q-106 0 -164 61.5t-58 164.5v68q0 110 54.5 167t155.5 57q100 0 151 -44t51 -119q0 -70 -50 -109t-152 -39h-82q9 -99 93 -99q36 0 54.5 9.5t34.5 33.5zM243 401q-81 0 -83 -108h83q75 0 75 53q0 55 -75 55zM299 567h-122l70 158h143z
" />
    <glyph glyph-name="ecircumflex.ss01" 
d="M343 142l95 -66q-49 -85 -183 -85q-106 0 -164 61.5t-58 164.5v68q0 110 54.5 167t155.5 57q100 0 151 -44t51 -119q0 -70 -50 -109t-152 -39h-82q9 -99 93 -99q36 0 54.5 9.5t34.5 33.5zM243 401q-81 0 -83 -108h83q75 0 75 53q0 55 -75 55zM90 568l108 142h106
l108 -142h-114l-47 65l-47 -65h-114z" />
    <glyph glyph-name="edieresis.ss01" 
d="M343 142l95 -66q-49 -85 -183 -85q-106 0 -164 61.5t-58 164.5v68q0 110 54.5 167t155.5 57q100 0 151 -44t51 -119q0 -70 -50 -109t-152 -39h-82q9 -99 93 -99q36 0 54.5 9.5t34.5 33.5zM243 401q-81 0 -83 -108h83q75 0 75 53q0 55 -75 55zM211 573h-124v117h124v-117z
M414 573h-123v117h123v-117z" />
    <glyph glyph-name="afii10065.ss01" horiz-adv-x="517" 
d="M33 217v68q0 106 53 165t145 59q66 0 107 -34v25h127v-500h-127v28q-41 -37 -107 -37q-95 0 -146.5 61t-51.5 165zM249 99q48 0 68.5 31.5t20.5 94.5v52q0 124 -89 124t-89 -124v-52q0 -126 89 -126z" />
    <glyph glyph-name="afii10070.ss01" 
d="M343 142l95 -66q-49 -85 -183 -85q-106 0 -164 61.5t-58 164.5v68q0 110 54.5 167t155.5 57q100 0 151 -44t51 -119q0 -70 -50 -109t-152 -39h-82q9 -99 93 -99q36 0 54.5 9.5t34.5 33.5zM243 401q-81 0 -83 -108h83q75 0 75 53q0 55 -75 55z" />
    <glyph glyph-name="afii10071.ss01" 
d="M343 142l95 -66q-49 -85 -183 -85q-106 0 -164 61.5t-58 164.5v68q0 110 54.5 167t155.5 57q100 0 151 -44t51 -119q0 -70 -50 -109t-152 -39h-82q9 -99 93 -99q36 0 54.5 9.5t34.5 33.5zM243 401q-81 0 -83 -108h83q75 0 75 53q0 55 -75 55zM211 573h-124v117h124v-117z
M414 573h-123v117h123v-117z" />
    <glyph glyph-name="aogonek.ss01" horiz-adv-x="517" 
d="M338 500h127v-500q-58 -51 -41 -74q7 -9 24 -9q5 0 19 2l15 -65q-15 -4 -48 -4q-48 0 -79 19.5t-31 56.5q0 42 35 74h-21v28q-41 -37 -107 -37q-95 0 -146.5 61t-51.5 165v68q0 106 53 165t145 59q66 0 107 -34v25zM249 99q48 0 68.5 31.5t20.5 94.5v52q0 124 -89 124
t-89 -124v-52q0 -126 89 -126z" />
    <glyph glyph-name="abreve.ss01" horiz-adv-x="517" 
d="M33 217v68q0 106 53 165t145 59q66 0 107 -34v25h127v-500h-127v28q-41 -37 -107 -37q-95 0 -146.5 61t-51.5 165zM249 99q48 0 68.5 31.5t20.5 94.5v52q0 124 -89 124t-89 -124v-52q0 -126 89 -126zM325 690h92q-2 -63 -41 -97.5t-108 -34.5t-108.5 34.5t-41.5 97.5h93
q8 -53 57 -53t57 53z" />
    <glyph glyph-name="eogonek.ss01" 
d="M343 142l95 -66q-31 -56 -102 -76q-25 -22 -33.5 -33t-11.5 -28q0 -22 27 -22q5 0 19 2l15 -65q-15 -4 -48 -4q-48 0 -79 19.5t-31 56.5q0 36 28 67q-91 9 -140 69t-49 155v68q0 110 54.5 167t155.5 57q100 0 151 -44t51 -119q0 -70 -50 -109t-152 -39h-82q9 -99 93 -99
q36 0 54.5 9.5t34.5 33.5zM243 401q-81 0 -83 -108h83q75 0 75 53q0 55 -75 55z" />
    <glyph glyph-name="ecaron.ss01" 
d="M343 142l95 -66q-49 -85 -183 -85q-106 0 -164 61.5t-58 164.5v68q0 110 54.5 167t155.5 57q100 0 151 -44t51 -119q0 -70 -50 -109t-152 -39h-82q9 -99 93 -99q36 0 54.5 9.5t34.5 33.5zM243 401q-81 0 -83 -108h83q75 0 75 53q0 55 -75 55zM408 710l-108 -142h-106
l-108 142h114l47 -65l47 65h114z" />
    <glyph glyph-name="amacron.ss01" horiz-adv-x="517" 
d="M33 217v68q0 106 53 165t145 59q66 0 107 -34v25h127v-500h-127v28q-41 -37 -107 -37q-95 0 -146.5 61t-51.5 165zM249 99q48 0 68.5 31.5t20.5 94.5v52q0 124 -89 124t-89 -124v-52q0 -126 89 -126zM405 573h-283v111h283v-111z" />
    <glyph glyph-name="emacron.ss01" 
d="M343 142l95 -66q-49 -85 -183 -85q-106 0 -164 61.5t-58 164.5v68q0 110 54.5 167t155.5 57q100 0 151 -44t51 -119q0 -70 -50 -109t-152 -39h-82q9 -99 93 -99q36 0 54.5 9.5t34.5 33.5zM243 401q-81 0 -83 -108h83q75 0 75 53q0 55 -75 55zM385 573h-283v111h283v-111z
" />
    <glyph glyph-name="edotaccent.ss01" 
d="M343 142l95 -66q-49 -85 -183 -85q-106 0 -164 61.5t-58 164.5v68q0 110 54.5 167t155.5 57q100 0 151 -44t51 -119q0 -70 -50 -109t-152 -39h-82q9 -99 93 -99q36 0 54.5 9.5t34.5 33.5zM243 401q-81 0 -83 -108h83q75 0 75 53q0 55 -75 55zM313 566h-138v124h138v-124z
" />
    <glyph glyph-name="afii10065.var.accented.ss01" horiz-adv-x="517" 
d="M33 217v68q0 106 53 165t145 59q66 0 107 -34v25h127v-500h-127v28q-41 -37 -107 -37q-95 0 -146.5 61t-51.5 165zM249 99q48 0 68.5 31.5t20.5 94.5v52q0 124 -89 124t-89 -124v-52q0 -126 89 -126zM311 567h-122l70 158h143z" />
    <glyph glyph-name="afii10070.var.accented.ss01" 
d="M343 142l95 -66q-49 -85 -183 -85q-106 0 -164 61.5t-58 164.5v68q0 110 54.5 167t155.5 57q100 0 151 -44t51 -119q0 -70 -50 -109t-152 -39h-82q9 -99 93 -99q36 0 54.5 9.5t34.5 33.5zM243 401q-81 0 -83 -108h83q75 0 75 53q0 55 -75 55zM299 567h-122l70 158h143z
" />
    <glyph glyph-name="afii10074.var.accented.ss01" horiz-adv-x="526" 
d="M347 500h127v-500h-125v42q-18 -28 -43 -39.5t-71 -11.5q-87 0 -135.5 48t-48.5 149v312h128v-293q0 -56 19.5 -81t61.5 -25q87 0 87 105v294zM318 567h-122l70 158h143z" />
    <glyph glyph-name="afii10071.var.accented.ss01" 
d="M343 142l95 -66q-49 -85 -183 -85q-106 0 -164 61.5t-58 164.5v68q0 110 54.5 167t155.5 57q100 0 151 -44t51 -119q0 -70 -50 -109t-152 -39h-82q9 -99 93 -99q36 0 54.5 9.5t34.5 33.5zM243 401q-81 0 -83 -108h83q75 0 75 53q0 55 -75 55zM293 717h-122l70 158h143z
M197 573h-124v117h124v-117zM400 573h-123v117h123v-117z" />
    <glyph glyph-name="uni04E3.ss01" horiz-adv-x="526" 
d="M347 500h127v-500h-125v42q-18 -28 -43 -39.5t-71 -11.5q-87 0 -135.5 48t-48.5 149v312h128v-293q0 -56 19.5 -81t61.5 -25q87 0 87 105v294zM405 573h-283v111h283v-111z" />
    <glyph glyph-name="afii10193.ss01" horiz-adv-x="526" 
d="M282 -117h-93v112q-138 24 -138 193v312h128v-293q0 -56 19.5 -81t61.5 -25q87 0 87 105v294h127v-500h-125v42q-23 -38 -67 -47v-112z" />
    <glyph glyph-name="uni2190.ss02" horiz-adv-x="855" 
d="M209 222l259 -259l-55 -55l-353 353l353 353l55 -55l-259 -259h586v-78h-586z" />
    <glyph glyph-name="aacute.ss01" horiz-adv-x="517" 
d="M33 217v68q0 106 53 165t145 59q66 0 107 -34v25h127v-500h-127v28q-41 -37 -107 -37q-95 0 -146.5 61t-51.5 165zM249 99q48 0 68.5 31.5t20.5 94.5v52q0 124 -89 124t-89 -124v-52q0 -126 89 -126zM311 567h-122l70 158h143z" />
    <glyph glyph-name="agrave.ss01" horiz-adv-x="517" 
d="M33 217v68q0 106 53 165t145 59q66 0 107 -34v25h127v-500h-127v28q-41 -37 -107 -37q-95 0 -146.5 61t-51.5 165zM249 99q48 0 68.5 31.5t20.5 94.5v52q0 124 -89 124t-89 -124v-52q0 -126 89 -126zM138 725h143l70 -158h-122z" />
    <glyph glyph-name="afii10091.ss01" horiz-adv-x="807" 
d="M596 500h128v-392h66v-225h-117v117h-74v42q-36 -51 -105 -51q-92 0 -137 66q-53 -66 -137 -66q-81 0 -125 50.5t-44 145.5v313h128v-293q0 -56 17.5 -81t55.5 -25q72 0 72 105v294h127v-293q0 -106 72 -106q73 0 73 105v294z" />
    <glyph glyph-name="afii10090.ss01" horiz-adv-x="776" 
d="M324 206v294h127v-293q0 -106 72 -106q73 0 73 105v294h128v-500h-125v42q-36 -51 -105 -51q-92 0 -137 66q-53 -66 -137 -66q-81 0 -125 50.5t-44 145.5v313h128v-293q0 -56 17.5 -81t55.5 -25q72 0 72 105z" />
    <glyph glyph-name="afii10088.ss01" horiz-adv-x="557" 
d="M347 500h127v-392h66v-225h-116v117h-75v42q-18 -28 -43 -39.5t-71 -11.5q-87 0 -135.5 48t-48.5 149v312h128v-293q0 -56 19.5 -81t61.5 -25q87 0 87 105v294z" />
    <glyph glyph-name="e.ss01" 
d="M343 142l95 -66q-49 -85 -183 -85q-106 0 -164 61.5t-58 164.5v68q0 110 54.5 167t155.5 57q100 0 151 -44t51 -119q0 -70 -50 -109t-152 -39h-82q9 -99 93 -99q36 0 54.5 9.5t34.5 33.5zM243 401q-81 0 -83 -108h83q75 0 75 53q0 55 -75 55z" />
    </font>
</defs>
</svg>
