<?xml version="1.0" standalone="no"?>
<!DOCTYPE svg PUBLIC "-//W3C//DTD SVG 1.1//EN" "http://www.w3.org/Graphics/SVG/1.1/DTD/svg11.dtd" >
<svg xmlns="http://www.w3.org/2000/svg" xmlns:xlink="http://www.w3.org/1999/xlink" version="1.1">
<metadata>
Created by FontForge 20190801 at Sun Jan 31 03:01:15 2016
 By Jimmy Wärting
Copyright (c) 2014 ParaType Inc., ParaType Ltd. All rights reserved.
</metadata>
<defs>
<font id="DIN2014-DemiBold" horiz-adv-x="519" >
  <font-face 
    font-family="DIN 2014"
    font-weight="600"
    font-stretch="normal"
    units-per-em="1000"
    panose-1="2 11 6 4 2 2 2 2 2 4"
    ascent="779"
    descent="-221"
    x-height="500"
    cap-height="690"
    bbox="-360 -273 3054 1007"
    underline-thickness="50"
    underline-position="-250"
    unicode-range="U+0020-1F4F1"
  />
<missing-glyph horiz-adv-x="250" 
 />
    <glyph glyph-name="afii10017.var.accented" unicode="&#x410;`" horiz-adv-x="595" 
d="M173 143l-47 -143h-124l240 690h110l240 -690h-123l-47 143h-249zM389 243l-92 279l-92 -279h184zM352 744h-103l80 129h126z" />
    <glyph glyph-name="afii10022.var.accented" unicode="&#x415;`" horiz-adv-x="533" 
d="M76 0v690h423v-101h-307v-182h277v-100h-277v-207h307v-100h-423zM324 744h-103l80 129h126z" />
    <glyph glyph-name="afii10026.var.accented" unicode="&#x418;`" horiz-adv-x="667" 
d="M76 0v690h116v-471l305 471h95v-690h-116v466l-304 -466h-96zM374 744h-103l80 129h126z" />
    <glyph glyph-name="afii10032.var.accented" unicode="&#x41e;`" horiz-adv-x="613" 
d="M565 389v-88q0 -154 -68 -232t-191 -78t-190.5 78t-67.5 232v88q0 154 67.5 232t190.5 78t191 -78t68 -232zM164 389v-88q0 -108 35 -158.5t107 -50.5t107.5 50.5t35.5 158.5v88q0 108 -35.5 158.5t-107.5 50.5t-107 -50.5t-35 -158.5zM336 744h-103l80 129h126z" />
    <glyph glyph-name="afii10037.var.accented" unicode="&#x423;`" horiz-adv-x="580" 
d="M309 308l145 382h120l-222 -561q-32 -80 -80 -109q-49 -29 -146 -29v103q57 0 83 12q27 14 43 54l-236 530h127zM347 744h-103l80 129h126z" />
    <glyph glyph-name="afii10045.var.accented" unicode="&#x42b;`" horiz-adv-x="798" 
d="M76 0v690h116v-262h105q127 0 188 -61q62 -62 62 -153q0 -92 -63 -153q-61 -61 -194 -61h-214zM607 690h116v-690h-116v690zM293 328h-101v-228h101q68 0 103 30t35 84t-35 84t-103 30zM428 744h-103l80 129h126z" />
    <glyph glyph-name="afii10047.var.accented" unicode="&#x42d;`" horiz-adv-x="587" 
d="M422 297h-231v100h231q-1 201 -142 201q-112 0 -138 -122h-112q16 110 80.5 166.5t169.5 56.5q123 0 190.5 -78t67.5 -232v-88q0 -154 -67.5 -232t-190.5 -78q-218 0 -249 223h111q14 -63 47 -92.5t91 -29.5q141 0 142 205zM320 744h-103l80 129h126z" />
    <glyph glyph-name="afii10048.var.accented" unicode="&#x42e;`" horiz-adv-x="818" 
d="M770 384v-78q0 -315 -241 -315q-242 0 -242 316h-95v-307h-116v690h116v-283h95q9 292 242 292q241 0 241 -315zM403 380v-70q0 -115 29.5 -166.5t96.5 -51.5q66 0 95.5 51.5t29.5 166.5v70q0 114 -29.5 166t-95.5 52q-67 0 -96.5 -52t-29.5 -166zM371 744h-103l80 129
h126z" />
    <glyph glyph-name="afii10049.var.accented" unicode="&#x42f;`" horiz-adv-x="610" 
d="M299 280l-155 -280h-128l168 294q-140 42 -140 191q0 100 66.5 152.5t189.5 52.5h234v-690h-116v280h-119zM306 380h112v209h-112q-77 0 -111.5 -24t-34.5 -80t33.5 -80.5t112.5 -24.5zM357 744h-103l80 129h126z" />
    <glyph glyph-name="afii10023.var.accented" unicode="&#x401;`" horiz-adv-x="533" 
d="M76 0v690h423v-101h-307v-182h277v-100h-277v-207h307v-100h-423zM238 764h-108v105h108v-105zM445 764h-109v105h109v-105zM338 878h-103l80 129h126z" />
    <glyph glyph-name="afii10065.var.accented" unicode="&#x430;`" horiz-adv-x="488" 
d="M32 147q0 74 48.5 111t137.5 37h108v42q0 47 -21 63.5t-78 16.5q-44 0 -66 -9t-39 -36l-77 54q27 44 71 63.5t118 19.5q103 0 150 -39.5t47 -133.5v-336h-105v46q-18 -30 -44.5 -42.5t-71.5 -12.5q-84 0 -131 41t-47 115zM326 189v24h-100q-89 0 -89 -66q0 -65 85 -65
q55 0 79.5 23.5t24.5 83.5zM280 567h-101l70 158h122z" />
    <glyph glyph-name="afii10070.var.accented" unicode="&#x435;`" horiz-adv-x="487" 
d="M354 132l80 -56q-49 -85 -179 -85q-104 0 -161.5 61t-57.5 165v68q0 110 52 167t151 57q202 0 202 -230v-55h-299v-2q0 -65 27 -102t82 -37q41 0 64 11.5t39 37.5zM239 416q-88 0 -96 -110h191q-6 110 -95 110zM287 567h-101l70 158h122z" />
    <glyph glyph-name="afii10074.var.accented" unicode="&#x438;`" horiz-adv-x="534" 
d="M57 500h107v-312l216 312h96v-500h-106v321l-219 -321h-94v500zM311 567h-101l70 158h122z" />
    <glyph glyph-name="afii10080.var.accented" unicode="&#x43e;`" horiz-adv-x="497" 
d="M461 282v-63q0 -107 -54 -167.5t-158 -60.5q-102 0 -157.5 60.5t-55.5 167.5v63q0 110 55.5 168.5t157.5 58.5t157 -58.5t55 -168.5zM249 83q53 0 79.5 37t26.5 102v58q0 136 -106 136q-107 0 -107 -136v-58q0 -139 107 -139zM287 567h-101l70 158h122z" />
    <glyph glyph-name="afii10085.var.accented" unicode="&#x443;`" horiz-adv-x="473" 
d="M196 -6l-191 506h113l127 -352l114 352h110l-176 -520q-21 -64 -46 -102q-47 -68 -174 -68v98q55 0 80 16t43 70zM292 567h-101l70 158h122z" />
    <glyph glyph-name="afii10093.var.accented" unicode="&#x44b;`" horiz-adv-x="651" 
d="M57 0v500h107v-181h62q210 0 210 -158q0 -77 -49.5 -119t-142.5 -42h-187zM487 0v500h106v-500h-106zM219 227h-55v-135h67q89 0 89 70q0 33 -24 49t-77 16zM354 567h-101l70 158h122z" />
    <glyph glyph-name="afii10095.var.accented" unicode="&#x44d;`" horiz-adv-x="454" 
d="M312 210h-175v87h175q-2 57 -31 88t-83 31q-64 0 -95 -45l-81 57q60 81 173 81q108 0 165.5 -58t57.5 -166v-68q0 -106 -58 -166t-165 -60q-126 0 -174 85l79 56q28 -49 98 -49q113 0 114 127zM253 567h-101l70 158h122z" />
    <glyph glyph-name="afii10096.var.accented" unicode="&#x44e;`" horiz-adv-x="679" 
d="M643 285v-68q0 -106 -51 -166t-148 -60q-93 0 -145.5 57t-53.5 161h-81v-209h-107v500h107v-199h81q4 101 56 154.5t143 53.5q96 0 147.5 -58t51.5 -166zM444 83q93 0 93 138v60q0 135 -93 135q-92 0 -92 -135v-60q0 -138 92 -138zM317 567h-101l70 158h122z" />
    <glyph glyph-name="afii10097.var.accented" unicode="&#x44f;`" horiz-adv-x="500" 
d="M442 500v-500h-106v184h-82l-113 -184h-115l124 201q-102 37 -102 147q0 69 50 110.5t148 41.5h196zM263 275h73v133h-82q-90 0 -90 -64q0 -36 23.5 -52.5t75.5 -16.5zM315 567h-101l70 158h122z" />
    <glyph glyph-name="afii10071.var.accented" unicode="&#x451;`" horiz-adv-x="487" 
d="M354 132l80 -56q-49 -85 -179 -85q-104 0 -161.5 61t-57.5 165v68q0 110 52 167t151 57q202 0 202 -230v-55h-299v-2q0 -65 27 -102t82 -37q41 0 64 11.5t39 37.5zM239 416q-88 0 -96 -110h191q-6 110 -95 110zM282 717h-101l70 158h122zM187 585h-109v105h109v-105z
M393 585h-108v105h108v-105z" />
    <glyph glyph-name="fi" unicode="fi" horiz-adv-x="481" 
d="M17 408v92h64v31q0 88 36.5 123.5t126.5 35.5h31v-96h-23q-39 0 -52 -18t-13 -65v-11h244v-500h-106v408h-138v-408h-106v408h-64z" />
    <glyph glyph-name="fl" unicode="fl" horiz-adv-x="534" 
d="M325 157v437h-73q-39 0 -52 -18t-13 -65v-11h88v-92h-88v-408h-106v408h-64v92h64v31q0 88 36.5 123.5t126.5 35.5h188v-508q0 -47 16 -67.5t60 -20.5v-94q-99 0 -141 35.5t-42 121.5z" />
    <glyph glyph-name=".notdef" horiz-adv-x="250" 
 />
    <glyph glyph-name=".null" horiz-adv-x="0" 
 />
    <glyph glyph-name="nonmarkingreturn" horiz-adv-x="333" 
 />
    <glyph glyph-name="space" unicode=" " horiz-adv-x="250" 
 />
    <glyph glyph-name="exclam" unicode="!" horiz-adv-x="235" 
d="M63 690h109v-501h-109v501zM177 0h-119v118h119v-118z" />
    <glyph glyph-name="quotedbl" unicode="&#x22;" horiz-adv-x="344" 
d="M40 690h105v-177h-105v177zM200 690h104v-177h-104v177z" />
    <glyph glyph-name="numbersign" unicode="#" horiz-adv-x="611" 
d="M36 401v97h116l36 192h110l-36 -192h120l36 192h110l-36 -192h92v-97h-110l-20 -106h93v-97h-111l-37 -198h-109l36 198h-120l-36 -198h-111l37 198h-97v97h115l20 106h-98zM364 401h-120l-20 -106h120z" />
    <glyph glyph-name="dollar" unicode="$" horiz-adv-x="522" 
d="M498 583l-88 -63q-43 60 -99 73v-202q104 -25 150 -70.5t46 -130.5q0 -78 -49.5 -131.5t-142.5 -64.5v-110h-97v110q-132 15 -203 113l91 63q50 -62 115 -74l1 6v201q-190 48 -190 203q0 78 47.5 128.5t138.5 61.5v116h97v-117q122 -17 183 -112zM391 185q0 34 -18 56
t-62 39v-177v-7q80 17 80 89zM148 507q0 -63 74 -92v179q-74 -17 -74 -87z" />
    <glyph glyph-name="percent" unicode="%" horiz-adv-x="744" 
d="M124 0l386 690h106l-385 -690h-107zM724 196v-52q0 -73 -37.5 -113t-111.5 -40q-70 0 -108 40t-38 113v52q0 73 38.5 112.5t107.5 39.5q72 0 110.5 -39.5t38.5 -112.5zM576 66q63 0 63 79v49q0 78 -63 78q-61 0 -61 -78v-49q0 -79 61 -79zM319 547v-52q0 -73 -37.5 -113
t-111.5 -40q-71 0 -109 40t-38 113v52q0 73 38.5 112.5t108.5 39.5q72 0 110.5 -39.5t38.5 -112.5zM170 417q63 0 63 79v49q0 78 -63 78q-60 0 -60 -78v-49q0 -79 60 -79z" />
    <glyph glyph-name="ampersand" unicode="&#x26;" horiz-adv-x="660" 
d="M39 184q0 111 118 202q-68 83 -68 156q0 71 50 114t131 43q87 0 133 -41q45 -40 45 -96q0 -55 -47 -102q-27 -27 -44 -40q-47 -35 -55 -41l154 -170q21 50 21 113h108q0 -110 -54 -196l115 -126h-139l-46 50q-79 -59 -192 -59q-107 0 -169 57q-61 57 -61 136zM272 92
q70 0 119 34l-172 190q-68 -60 -68 -120q0 -48 33.5 -76t87.5 -28zM202 542q0 -40 42 -96q51 35 73 59t22 50q0 23 -18.5 39t-49.5 16t-50 -18t-19 -50z" />
    <glyph glyph-name="quotesingle" unicode="'" horiz-adv-x="185" 
d="M40 690h105v-177h-105v177z" />
    <glyph glyph-name="parenleft" unicode="(" horiz-adv-x="317" 
d="M298 -33l-61 -83q-102 67 -137 127q-34 59 -34 147v380q0 88 34 146q35 59 137 128l61 -84q-75 -55 -100 -95q-26 -41 -26 -118v-334q0 -77 26 -118q25 -39 100 -96z" />
    <glyph glyph-name="parenright" unicode=")" horiz-adv-x="317" 
d="M87 -116l-61 83q75 57 100 96q26 41 26 118v334q0 77 -26 118q-25 40 -100 95l61 84q101 -68 136 -128q35 -59 35 -146v-380q0 -86 -35 -147q-36 -61 -136 -127z" />
    <glyph glyph-name="asterisk" unicode="*" horiz-adv-x="421" 
d="M166 690h83l-5 -110l93 59l42 -72l-96 -52l96 -51l-42 -71l-93 57l5 -109h-83l3 108l-92 -57l-42 72l97 51l-96 52l41 72l92 -58z" />
    <glyph glyph-name="plus" unicode="+" horiz-adv-x="522" 
d="M204 308h-147v92h147v149h93v-149h149v-92h-149v-148h-93v148z" />
    <glyph glyph-name="comma" unicode="," horiz-adv-x="238" 
d="M60 138h118v-190l-118 -101v291z" />
    <glyph glyph-name="hyphen" unicode="-" horiz-adv-x="319" 
d="M289 242h-259v94h259v-94z" />
    <glyph glyph-name="period" unicode="." horiz-adv-x="258" 
d="M60 138h138v-138h-138v138z" />
    <glyph glyph-name="slash" unicode="/" horiz-adv-x="485" 
d="M481 812l-336 -928h-98l336 928h98z" />
    <glyph glyph-name="zero" unicode="0" horiz-adv-x="522" 
d="M478 488v-286q0 -102 -63 -157q-61 -54 -154 -54q-92 0 -155 54q-62 56 -62 157v285q0 104 62 158t155 54t155 -54q62 -53 62 -157zM362 209v272q0 55 -27 86t-74 31q-48 0 -75 -31t-27 -86v-272q0 -55 27 -86t75 -31q47 0 74 31t27 86z" />
    <glyph glyph-name="one" unicode="1" horiz-adv-x="522" 
d="M231 690h109v-690h-116v565l-99 -68v117z" />
    <glyph glyph-name="two" unicode="2" horiz-adv-x="522" 
d="M200 100h262v-100h-417v82l237 278q70 80 70 145q0 44 -27.5 69.5t-70.5 25.5t-69.5 -25.5t-28.5 -69.5h-106q0 86 60 140t148 54q91 0 149 -55q60 -56 60 -141q0 -63 -37 -119q-13 -20 -31 -44l-36 -45z" />
    <glyph glyph-name="three" unicode="3" horiz-adv-x="522" 
d="M238 306h-48v100h48q54 0 82.5 27t28.5 76q0 39 -28 65t-70 26q-41 0 -67.5 -24t-30.5 -61h-106q1 81 62 132q61 52 146 52q91 0 149 -54q60 -54 60 -133q0 -52 -26 -92t-72 -62q108 -48 108 -167q0 -85 -57 -143q-57 -57 -154 -57q-100 0 -160 51.5t-65 137.5h106
q6 -41 35 -64.5t79 -23.5q45 0 73 28.5t28 73.5q0 54 -31 83t-90 29z" />
    <glyph glyph-name="four" unicode="4" horiz-adv-x="522" 
d="M14 186l239 504h123l-221 -485h162v188h116v-188h63v-101h-63v-104h-116v104h-303v82z" />
    <glyph glyph-name="five" unicode="5" horiz-adv-x="522" 
d="M261 367q-54 0 -84 -51h-105v374h374v-109h-261v-146q40 40 106 40q87 0 134.5 -64.5t47.5 -184.5q0 -114 -53.5 -174.5t-156.5 -60.5q-86 0 -144 49t-66 131h114q19 -79 94 -79q96 0 96 130q0 145 -96 145z" />
    <glyph glyph-name="six" unicode="6" horiz-adv-x="522" 
d="M240 690h126l-140 -293q25 13 66 13q81 0 133 -58q53 -59 53 -146q0 -101 -61 -158q-60 -57 -156 -57q-95 0 -157 56q-61 57 -61 157q0 57 56 181zM159 203q0 -51 27 -81t75 -30q47 0 74 30t27 81t-27 81t-74 30t-74.5 -30t-27.5 -81z" />
    <glyph glyph-name="seven" unicode="7" horiz-adv-x="522" 
d="M162 589v-113h-100v214h406v-89l-207 -601h-121l208 589h-186z" />
    <glyph glyph-name="eight" unicode="8" horiz-adv-x="522" 
d="M38 193q0 55 30 100.5t74 64.5q-42 21 -68 62t-26 89q0 85 63 138q62 52 150 52q89 0 150 -52q63 -53 63 -138q0 -48 -26 -89t-68 -62q45 -19 74.5 -64.5t29.5 -100.5q0 -91 -65 -147q-64 -55 -158 -55t-158 55q-65 56 -65 147zM154 200q0 -46 30.5 -77.5t76.5 -31.5
q45 0 76.5 32t31.5 77q0 48 -34 78q-33 30 -74 30q-43 0 -75 -30.5t-32 -77.5zM359 501q0 40 -28.5 68.5t-69.5 28.5t-69.5 -28t-28.5 -69t28.5 -70t69.5 -29t69.5 29t28.5 70z" />
    <glyph glyph-name="nine" unicode="9" horiz-adv-x="522" 
d="M283 0h-126l139 293q-26 -14 -66 -14q-82 0 -134 58t-52 147q0 101 61 158t156 57t157 -56q61 -55 61 -157q0 -57 -56 -181zM363 487q0 51 -27 81t-75 30q-47 0 -74 -30t-27 -81t27 -81t74 -30q48 0 75 30t27 81z" />
    <glyph glyph-name="colon" unicode=":" horiz-adv-x="233" 
d="M60 500h118v-119h-118v119zM60 118h118v-118h-118v118z" />
    <glyph glyph-name="semicolon" unicode=";" horiz-adv-x="233" 
d="M60 118h118v-182l-118 -102v284zM60 500h118v-119h-118v119z" />
    <glyph glyph-name="less" unicode="&#x3c;" horiz-adv-x="522" 
d="M411 580v-120l-208 -112l208 -111v-120l-325 183v97z" />
    <glyph glyph-name="equal" unicode="=" horiz-adv-x="522" 
d="M456 377h-389v99h389v-99zM456 206h-389v98h389v-98z" />
    <glyph glyph-name="greater" unicode="&#x3e;" horiz-adv-x="522" 
d="M108 237l208 111l-208 112v120l325 -183v-97l-325 -183v120z" />
    <glyph glyph-name="question" unicode="?" horiz-adv-x="486" 
d="M291 223v-34h-102v72q0 55 34 86l47 43q39 37 54.5 63t15.5 58q0 40 -26 64t-66 24q-41 0 -67 -23t-27 -62h-111q0 86 58 135q59 50 147 50q90 0 148 -51q60 -50 60 -140q0 -51 -25.5 -95t-76.5 -92l-31 -30q-32 -30 -32 -68zM299 0h-118v118h118v-118z" />
    <glyph glyph-name="at" unicode="@" horiz-adv-x="898" 
d="M525 484h106v-250q0 -84 57 -84q71 0 71 135q0 163 -97 239q-88 69 -213 69q-79 0 -140.5 -28t-96.5 -74.5t-52.5 -101t-17.5 -113.5q0 -152 89 -235q89 -81 223 -81q119 0 221 51l39 -76q-35 -28 -107 -47.5t-158 -19.5q-164 0 -285 103q-59 50 -93.5 130t-34.5 175
q0 126 59 221q58 93 149.5 140.5t204.5 47.5q179 0 297 -108q119 -107 119 -292q0 -107 -45.5 -167t-130.5 -60q-91 0 -128 67q-31 -67 -130 -67q-80 0 -124 51t-44 139v52q0 91 44.5 140t123.5 49q57 0 94 -27v22zM446 150q42 0 60.5 23.5t18.5 72.5v50q0 53 -19 77t-60 24
q-76 0 -76 -101v-41q0 -105 76 -105z" />
    <glyph glyph-name="A" unicode="A" horiz-adv-x="595" 
d="M173 143l-47 -143h-124l240 690h110l240 -690h-123l-47 143h-249zM389 243l-92 279l-92 -279h184z" />
    <glyph glyph-name="B" unicode="B" horiz-adv-x="602" 
d="M76 0v690h222q245 0 245 -179q0 -53 -27.5 -93t-73.5 -57q123 -35 123 -163q0 -86 -60 -142q-59 -56 -185 -56h-244zM299 308h-107v-208h121q136 0 136 104q0 54 -36.5 79t-113.5 25zM290 590h-98v-182h113q122 0 122 96q0 46 -30.5 66t-106.5 20z" />
    <glyph glyph-name="C" unicode="C" horiz-adv-x="587" 
d="M557 476h-112q-26 122 -139 122q-72 0 -107 -50.5t-35 -158.5v-88q0 -209 142 -209q59 0 92 29.5t47 92.5h111q-33 -223 -250 -223q-123 0 -190.5 78t-67.5 232v88q0 154 67.5 232t190.5 78q105 0 169.5 -56.5t81.5 -166.5z" />
    <glyph glyph-name="D" unicode="D" horiz-adv-x="616" 
d="M309 0h-233v690h233q259 0 259 -304v-82q0 -304 -259 -304zM192 100h117q74 0 108.5 49t34.5 155v82q0 106 -34.5 154.5t-108.5 48.5h-117v-489z" />
    <glyph glyph-name="E" unicode="E" horiz-adv-x="533" 
d="M76 0v690h423v-101h-307v-182h277v-100h-277v-207h307v-100h-423z" />
    <glyph glyph-name="F" unicode="F" horiz-adv-x="525" 
d="M76 0v690h423v-101h-307v-198h277v-100h-277v-291h-116z" />
    <glyph glyph-name="G" unicode="G" horiz-adv-x="608" 
d="M309 253v101h251v-53q0 -156 -65.5 -233t-188.5 -77t-190.5 78t-67.5 232v83q0 157 67.5 236t190.5 79q105 0 170 -57.5t81 -165.5h-112q-26 122 -139 122q-72 0 -107 -50.5t-35 -158.5v-88q0 -108 35 -158.5t107 -50.5q66 0 100 39.5t40 121.5h-137z" />
    <glyph glyph-name="H" unicode="H" horiz-adv-x="648" 
d="M76 690h116v-283h264v283h116v-690h-116v307h-264v-307h-116v690z" />
    <glyph glyph-name="I" unicode="I" horiz-adv-x="287" 
d="M86 690h116v-690h-116v690z" />
    <glyph glyph-name="J" unicode="J" horiz-adv-x="509" 
d="M-3 87l97 55q38 -50 101 -50q64 0 93 41.5t29 139.5v417h116v-417q0 -282 -233 -282q-138 0 -203 96z" />
    <glyph glyph-name="K" unicode="K" horiz-adv-x="642" 
d="M370 412l263 -412h-139l-200 315l-102 -131v-184h-116v690h116v-333l254 333h142z" />
    <glyph glyph-name="L" unicode="L" horiz-adv-x="503" 
d="M76 690h116v-590h307v-100h-423v690z" />
    <glyph glyph-name="M" unicode="M" horiz-adv-x="771" 
d="M76 690h110l199 -400l199 400h111v-690h-112v462l-158 -329h-82l-155 326v-459h-112v690z" />
    <glyph glyph-name="N" unicode="N" horiz-adv-x="648" 
d="M460 215v475h112v-690h-103l-281 469v-469h-112v690h100z" />
    <glyph glyph-name="O" unicode="O" horiz-adv-x="613" 
d="M565 389v-88q0 -154 -68 -232t-191 -78t-190.5 78t-67.5 232v88q0 154 67.5 232t190.5 78t191 -78t68 -232zM164 389v-88q0 -108 35 -158.5t107 -50.5t107.5 50.5t35.5 158.5v88q0 108 -35.5 158.5t-107.5 50.5t-107 -50.5t-35 -158.5z" />
    <glyph glyph-name="P" unicode="P" horiz-adv-x="589" 
d="M311 252h-119v-252h-116v690h235q121 0 187.5 -56.5t66.5 -161.5t-67 -162.5t-187 -57.5zM192 589v-237h107q150 0 150 120q0 117 -150 117h-107z" />
    <glyph glyph-name="Q" unicode="Q" horiz-adv-x="617" 
d="M565 389v-88q0 -110 -34 -179l93 -83l-65 -74l-88 78q-61 -52 -165 -52q-123 0 -190.5 78t-67.5 232v88q0 154 67.5 232t190.5 78t191 -78t68 -232zM164 389v-88q0 -108 35 -158.5t107 -50.5q49 0 82 24l-88 79l67 75l72 -65q10 36 10 96v88q0 108 -35.5 158.5
t-107.5 50.5t-107 -50.5t-35 -158.5z" />
    <glyph glyph-name="R" unicode="R" horiz-adv-x="611" 
d="M440 299l147 -299h-128l-133 280h-134v-280h-116v690h235q122 0 188 -53t66 -153q0 -140 -125 -185zM192 589v-209h111q77 0 111.5 24t34.5 80t-34.5 80.5t-111.5 24.5h-111z" />
    <glyph glyph-name="S" unicode="S" horiz-adv-x="573" 
d="M523 586l-88 -63q-29 40 -62.5 57.5t-86.5 17.5q-54 0 -83.5 -23.5t-29.5 -66.5q0 -46 34 -70.5t114 -42.5q112 -25 161.5 -71.5t49.5 -134.5q0 -84 -59 -141t-176 -57q-174 0 -258 113l91 63q34 -40 70 -57.5t91 -17.5q125 0 125 92q0 44 -33.5 70.5t-117.5 44.5
q-208 43 -208 209q0 87 59 139t171 52q162 0 236 -113z" />
    <glyph glyph-name="T" unicode="T" horiz-adv-x="527" 
d="M7 589v101h513v-101h-198v-589h-116v589h-199z" />
    <glyph glyph-name="U" unicode="U" horiz-adv-x="668" 
d="M476 279v411h116v-410q0 -144 -67.5 -216.5t-190.5 -72.5t-190.5 72t-67.5 216v411h116v-411q0 -97 34.5 -142t107.5 -45t107.5 45t34.5 142z" />
    <glyph glyph-name="V" unicode="V" horiz-adv-x="608" 
d="M251 0l-245 690h127l170 -505l172 505h127l-245 -690h-106z" />
    <glyph glyph-name="W" unicode="W" horiz-adv-x="868" 
d="M584 0l-151 502l-150 -502h-112l-163 690h124l106 -493l141 493h107l144 -496l106 496h124l-163 -690h-113z" />
    <glyph glyph-name="X" unicode="X" horiz-adv-x="574" 
d="M287 251l-144 -251h-127l199 356l-178 334h127l123 -236l124 236h126l-179 -334l200 -356h-126z" />
    <glyph glyph-name="Y" unicode="Y" horiz-adv-x="571" 
d="M227 288l-215 402h135l138 -276l139 276h134l-215 -402v-288h-116v288z" />
    <glyph glyph-name="Z" unicode="Z" 
d="M30 589v101h453v-77l-305 -513h315v-100h-463v77l305 512h-305z" />
    <glyph glyph-name="bracketleft" unicode="[" horiz-adv-x="335" 
d="M294 -102h-224v894h224v-92h-118v-710h118v-92z" />
    <glyph glyph-name="backslash" unicode="\" horiz-adv-x="485" 
d="M371 -116l-336 928h98l336 -928h-98z" />
    <glyph glyph-name="bracketright" unicode="]" horiz-adv-x="335" 
d="M41 701v91h224v-894h-224v91h118v712h-118z" />
    <glyph glyph-name="asciicircum" unicode="^" horiz-adv-x="522" 
d="M35 437l174 253h103l176 -253h-120l-107 156l-103 -156h-123z" />
    <glyph glyph-name="underscore" unicode="_" horiz-adv-x="526" 
d="M0 -163v85h526v-85h-526z" />
    <glyph glyph-name="grave" unicode="`" horiz-adv-x="329" 
d="M68 725h122l70 -158h-101z" />
    <glyph glyph-name="a" unicode="a" horiz-adv-x="488" 
d="M32 147q0 74 48.5 111t137.5 37h108v42q0 47 -21 63.5t-78 16.5q-44 0 -66 -9t-39 -36l-77 54q27 44 71 63.5t118 19.5q103 0 150 -39.5t47 -133.5v-336h-105v46q-18 -30 -44.5 -42.5t-71.5 -12.5q-84 0 -131 41t-47 115zM326 189v24h-100q-89 0 -89 -66q0 -65 85 -65
q55 0 79.5 23.5t24.5 83.5z" />
    <glyph glyph-name="b" unicode="b" horiz-adv-x="515" 
d="M57 690h103v-229q39 48 120 48q94 0 146.5 -59.5t52.5 -167.5v-63q0 -106 -52 -167t-147 -61q-82 0 -120 45v-36h-103v690zM266 83q53 0 79.5 37t26.5 102v58q0 136 -106 136q-51 0 -78 -33.5t-28 -96.5v-64q0 -139 106 -139z" />
    <glyph glyph-name="c" unicode="c" horiz-adv-x="445" 
d="M353 132l81 -56q-48 -85 -178 -85q-103 0 -161.5 61t-58.5 165v68q0 108 58.5 166t165.5 58q122 0 174 -81l-82 -57q-32 45 -94 45q-116 0 -116 -136v-58q0 -139 116 -139q68 0 95 49z" />
    <glyph glyph-name="d" unicode="d" 
d="M355 465v225h106v-690h-106v35q-42 -44 -120 -44q-95 0 -147 61t-52 165v68q0 106 53 165t146 59q78 0 120 -44zM249 83q106 0 106 139v64q0 62 -27.5 96t-78.5 34q-107 0 -107 -136v-58q0 -65 27 -102t80 -37z" />
    <glyph glyph-name="e" unicode="e" horiz-adv-x="487" 
d="M354 132l80 -56q-49 -85 -179 -85q-104 0 -161.5 61t-57.5 165v68q0 110 52 167t151 57q202 0 202 -230v-55h-299v-2q0 -65 27 -102t82 -37q41 0 64 11.5t39 37.5zM239 416q-88 0 -96 -110h191q-6 110 -95 110z" />
    <glyph glyph-name="f" unicode="f" horiz-adv-x="294" 
d="M17 408v92h64v31q0 88 36.5 123.5t126.5 35.5h31v-96h-23q-39 0 -52 -18t-13 -65v-11h88v-92h-88v-408h-106v408h-64z" />
    <glyph glyph-name="g" unicode="g" 
d="M355 465v35h106v-490q0 -206 -218 -206q-70 0 -113.5 20t-72.5 67l75 54q33 -50 108 -50q60 0 87.5 27t27.5 88v23q-41 -42 -120 -42q-95 0 -147 61t-52 165v68q0 106 53 165t146 59q78 0 120 -44zM249 83q106 0 106 139v58q0 136 -106 136q-107 0 -107 -136v-58
q0 -65 27 -102t80 -37z" />
    <glyph glyph-name="h" unicode="h" horiz-adv-x="526" 
d="M164 0h-107v690h107v-233q36 52 122 52t134 -48.5t48 -147.5v-313h-106v301q0 113 -95 113q-48 0 -75.5 -30.5t-27.5 -81.5v-302z" />
    <glyph glyph-name="i" unicode="i" horiz-adv-x="251" 
d="M179 0h-107v500h107v-500zM184 581h-117v109h117v-109z" />
    <glyph glyph-name="j" unicode="j" horiz-adv-x="244" 
d="M75 500h106v-531q0 -87 -41.5 -123t-139.5 -36v94q44 0 59.5 19.5t15.5 64.5v512zM186 581h-116v109h116v-109z" />
    <glyph glyph-name="k" unicode="k" horiz-adv-x="495" 
d="M164 305l167 195h131l-191 -215l221 -285h-129l-165 202l-34 -38v-164h-107v690h107v-385z" />
    <glyph glyph-name="l" unicode="l" horiz-adv-x="282" 
d="M57 157v533h107v-508q0 -47 16 -67.5t60 -20.5v-94q-99 0 -141 35.5t-42 121.5z" />
    <glyph glyph-name="m" unicode="m" horiz-adv-x="798" 
d="M164 0h-107v500h105v-45q36 54 117 54q97 0 143 -72q52 72 146 72q82 0 127.5 -50.5t45.5 -145.5v-313h-107v301q0 113 -89 113q-41 0 -66.5 -29t-26.5 -78v-307h-106v301q0 113 -88 113q-42 0 -68 -30.5t-26 -81.5v-302z" />
    <glyph glyph-name="n" unicode="n" horiz-adv-x="526" 
d="M164 0h-107v500h105v-45q40 54 124 54q86 0 134 -48.5t48 -147.5v-313h-106v301q0 113 -95 113q-48 0 -75.5 -30.5t-27.5 -81.5v-302z" />
    <glyph glyph-name="o" unicode="o" horiz-adv-x="497" 
d="M461 282v-63q0 -107 -54 -167.5t-158 -60.5q-102 0 -157.5 60.5t-55.5 167.5v63q0 110 55.5 168.5t157.5 58.5t157 -58.5t55 -168.5zM249 83q53 0 79.5 37t26.5 102v58q0 136 -106 136q-107 0 -107 -136v-58q0 -139 107 -139z" />
    <glyph glyph-name="p" unicode="p" 
d="M482 285v-68q0 -104 -51.5 -165t-145.5 -61q-83 0 -121 41v-222h-107v690h107v-40q40 49 122 49q91 0 143.5 -59.5t52.5 -164.5zM270 83q53 0 79.5 37t26.5 102v58q0 136 -106 136q-105 0 -106 -130v-64q0 -139 106 -139z" />
    <glyph glyph-name="q" unicode="q" 
d="M355 465v35h106v-690h-106v224q-40 -43 -120 -43q-95 0 -147 61t-52 165v68q0 106 53 165t146 59q78 0 120 -44zM249 83q53 0 79.5 33.5t26.5 93.5v70q0 136 -106 136q-107 0 -107 -136v-58q0 -65 27 -102t80 -37z" />
    <glyph glyph-name="r" unicode="r" horiz-adv-x="403" 
d="M413 435l-85 -60q-27 39 -72 39q-42 0 -67 -29.5t-25 -82.5v-302h-107v500h105v-45q34 54 112 54q92 0 139 -74z" />
    <glyph glyph-name="s" unicode="s" horiz-adv-x="465" 
d="M413 426l-79 -57q-19 25 -43 35t-66 10q-78 0 -78 -51q0 -28 22.5 -42t72.5 -20q92 -10 137.5 -47.5t45.5 -110.5q0 -72 -49.5 -112t-142.5 -40q-139 0 -201 83l81 58q35 -47 119 -47q41 0 64 14.5t23 40.5q0 29 -21.5 42t-82.5 21q-175 22 -175 157q0 69 49 109t138 40
q133 0 186 -83z" />
    <glyph glyph-name="t" unicode="t" horiz-adv-x="324" 
d="M81 408h-64v92h64v110h106v-110h106v-92h-106v-229q0 -47 13 -65t52 -18h41v-96h-49q-90 0 -126.5 35.5t-36.5 123.5v249z" />
    <glyph glyph-name="u" unicode="u" horiz-adv-x="526" 
d="M362 500h106v-500h-105v45q-19 -29 -46.5 -41.5t-76.5 -12.5q-86 0 -134.5 49t-48.5 148v312h107v-301q0 -61 24 -87.5t72 -26.5q49 0 75.5 30t26.5 83v302z" />
    <glyph glyph-name="v" unicode="v" horiz-adv-x="504" 
d="M252 143l129 357h119l-195 -500h-102l-199 500h118z" />
    <glyph glyph-name="w" unicode="w" horiz-adv-x="716" 
d="M480 0l-122 340l-122 -340h-89l-141 500h111l84 -315l112 315h82l119 -317l84 317h112l-142 -500h-88z" />
    <glyph glyph-name="x" unicode="x" horiz-adv-x="485" 
d="M304 256l173 -256h-121l-114 167l-114 -167h-120l172 256l-156 244h121l97 -158l98 158h120z" />
    <glyph glyph-name="y" unicode="y" horiz-adv-x="473" 
d="M196 -6l-191 506h113l127 -352l114 352h110l-176 -520q-21 -64 -46 -102q-47 -68 -174 -68v98q55 0 80 16t43 70z" />
    <glyph glyph-name="z" unicode="z" horiz-adv-x="449" 
d="M35 0v77l239 331h-238v92h377v-77l-237 -331h241v-92h-382z" />
    <glyph glyph-name="braceleft" unicode="{" horiz-adv-x="323" 
d="M206 616v-200q0 -30 -10.5 -46t-34.5 -24q45 -15 45 -70v-200q0 -48 15.5 -63.5t57.5 -15.5h18v-92h-33q-83 0 -124 32q-40 31 -40 123v187q0 28 -11.5 40t-38.5 12h-19v94h19q27 0 38.5 12t11.5 40v187q0 92 40 123q41 32 124 32h33v-92h-18q-42 0 -57.5 -15.5
t-15.5 -63.5z" />
    <glyph glyph-name="bar" unicode="|" horiz-adv-x="274" 
d="M85 812h100v-928h-100v928z" />
    <glyph glyph-name="braceright" unicode="}" horiz-adv-x="317" 
d="M121 416v200q0 48 -15.5 63.5t-56.5 15.5h-18v92h33q83 0 124 -32q40 -31 40 -123v-187q0 -28 11.5 -40t38.5 -12h19v-94h-19q-27 0 -38.5 -12t-11.5 -40v-187q0 -92 -40 -123q-41 -32 -124 -32h-33v92h18q41 0 56.5 15.5t15.5 63.5v200q0 55 45 70q-24 8 -34.5 24
t-10.5 46z" />
    <glyph glyph-name="asciitilde" unicode="~" horiz-adv-x="522" 
d="M345 267q-47 0 -94 22q-49 23 -75 23q-57 0 -93 -46l-73 59q65 80 166 80q45 0 94 -23q47 -22 75 -22q56 0 94 47l72 -59q-66 -81 -166 -81z" />
    <glyph glyph-name="uni00A0" unicode="&#xa0;" horiz-adv-x="250" 
 />
    <glyph glyph-name="exclamdown" unicode="&#xa1;" horiz-adv-x="235" 
d="M172 -190h-109v501h109v-501zM58 500h119v-118h-119v118z" />
    <glyph glyph-name="cent" unicode="&#xa2;" horiz-adv-x="522" 
d="M389 134l81 -57q-41 -69 -131 -81v-112h-96v113q-81 13 -126 72t-45 150v64q0 93 44 149.5t127 70.5v119h96v-118q87 -13 131 -78l-82 -57q-31 46 -94 46q-116 0 -116 -137v-54q0 -139 116 -139q68 0 95 49z" />
    <glyph glyph-name="sterling" unicode="&#xa3;" horiz-adv-x="522" 
d="M481 0h-456v100h72v195h-72v101h72v22q0 281 215 281q128 0 189 -96l-96 -55q-38 50 -90 50q-53 0 -77.5 -41.5t-24.5 -138.5v-22h142v-101h-142v-195h268v-100z" />
    <glyph glyph-name="currency" unicode="&#xa4;" horiz-adv-x="522" 
d="M62 366q0 56 26 100l-73 74l72 72l72 -73q46 28 102 28q55 0 101 -28l74 74l72 -72l-74 -74q28 -46 28 -101q0 -56 -28 -102l74 -73l-72 -72l-74 74q-48 -27 -101 -27q-55 0 -101 27l-73 -73l-72 72l73 73q-26 47 -26 101zM261 261q44 0 73.5 30.5t29.5 74.5
q0 45 -29.5 75.5t-73.5 30.5q-42 0 -71.5 -31t-29.5 -75t29 -74.5t72 -30.5z" />
    <glyph glyph-name="yen" unicode="&#xa5;" horiz-adv-x="522" 
d="M59 131v97h138v60h-138v97h84l-120 305h128l104 -301l115 301h129l-132 -305h84v-97h-138v-60h138v-97h-138v-131h-116v131h-138z" />
    <glyph glyph-name="brokenbar" unicode="&#xa6;" horiz-adv-x="258" 
d="M74 243h116v-243h-116v243zM74 690h116v-243h-116v243z" />
    <glyph glyph-name="section" unicode="&#xa7;" horiz-adv-x="518" 
d="M75 -40h109q3 -28 17.5 -41.5t47.5 -13.5q69 0 69 54q0 27 -21.5 46.5t-71.5 35.5q-81 26 -125 63q-54 45 -54 146q0 114 95 161q-69 47 -69 127q0 69 48.5 111t130.5 42q172 0 173 -151h-109q-3 29 -17 42t-48 13q-68 0 -68 -54q0 -28 21 -47t74 -36q83 -28 122 -62
q54 -45 54 -146q0 -114 -95 -161q69 -47 69 -127q0 -69 -48.5 -111t-130.5 -42q-172 0 -173 151zM344 250q0 43 -25 68.5t-69 25.5q-45 0 -70 -25t-25 -69q0 -47 25 -71t70 -24q44 0 69 25t25 70z" />
    <glyph glyph-name="dieresis" unicode="&#xa8;" horiz-adv-x="420" 
d="M161 585h-109v105h109v-105zM367 585h-108v105h108v-105z" />
    <glyph glyph-name="copyright" unicode="&#xa9;" horiz-adv-x="967" 
d="M169 -62q-128 128 -128 312t128 312q130 128 312 128q183 0 311 -128q129 -128 129 -312t-129 -312q-128 -128 -311 -128q-182 0 -312 128zM818 250q0 143 -98 244t-239 101q-142 0 -240 -101t-98 -244q0 -144 98 -245t240 -101t239 100q98 101 98 246zM584 132l81 -56
q-48 -85 -178 -85q-103 0 -161.5 61t-58.5 165v68q0 108 58.5 166t165.5 58q121 0 174 -81l-82 -57q-31 45 -94 45q-116 0 -116 -136v-58q0 -139 116 -139q68 0 95 49z" />
    <glyph glyph-name="ordfeminine" unicode="&#xaa;" horiz-adv-x="316" 
d="M20 466q0 96 119 96h67v21q0 28 -13.5 38.5t-46.5 10.5q-27 0 -41 -7t-26 -27l-52 36q33 58 124 58q65 0 96 -24t31 -77v-217h-72v26q-21 -30 -75 -30q-52 0 -81.5 25t-29.5 71zM206 492v13h-59q-54 0 -54 -39q0 -37 50 -37q32 0 47.5 14t15.5 49z" />
    <glyph glyph-name="guillemotleft" unicode="&#xab;" 
d="M262 52l-232 231l232 231v-125l-108 -106l108 -107v-124zM471 52l-232 231l232 231v-125l-107 -106l107 -107v-124z" />
    <glyph glyph-name="logicalnot" unicode="&#xac;" 
d="M472 403v-227h-105v130h-336v97h441z" />
    <glyph glyph-name="uni00AD" unicode="&#xad;" horiz-adv-x="319" 
d="M289 242h-259v94h259v-94z" />
    <glyph glyph-name="registered" unicode="&#xae;" horiz-adv-x="558" 
d="M277 759q107 0 182 -76q76 -75 76 -182t-76 -183q-75 -75 -182 -75q-106 0 -182 76q-75 77 -75 182t75 182q76 76 182 76zM142 636q-56 -56 -56 -135t56 -135t135 -56t135 56t56 135t-56 135t-135 56t-135 -56zM233 467v-93h-60v261h109q48 0 74 -23t26 -58
q0 -56 -52 -77l65 -103h-69l-56 93h-37zM233 584v-66h37q27 0 38.5 8t11.5 27q0 31 -45 31h-42z" />
    <glyph glyph-name="overscore" unicode="&#xaf;" horiz-adv-x="402" 
d="M339 585h-277v94h277v-94z" />
    <glyph glyph-name="degree" unicode="&#xb0;" horiz-adv-x="308" 
d="M56 461q-40 40 -40 98t40 98t98 40q57 0 97 -40q41 -41 41 -98t-41 -98q-40 -40 -97 -40q-58 0 -98 40zM96 559q0 -26 16.5 -43t41.5 -17q24 0 40.5 17.5t16.5 42.5t-16.5 42t-40.5 17q-25 0 -41.5 -17t-16.5 -42z" />
    <glyph glyph-name="plusminus" unicode="&#xb1;" horiz-adv-x="503" 
d="M205 348h-148v92h148v149h93v-149h148v-92h-148v-115h-93v115zM446 114h-389v93h389v-93z" />
    <glyph glyph-name="twosuperior" unicode="&#xb2;" horiz-adv-x="278" 
d="M131 434h124v-60h-221v57l105 95q38 33 38 63q0 17 -10.5 27.5t-25.5 10.5q-17 0 -28.5 -10.5t-12.5 -28.5h-69q0 47 32 76t79 29q49 0 78.5 -26t29.5 -73q0 -52 -59 -105z" />
    <glyph glyph-name="threesuperior" unicode="&#xb3;" horiz-adv-x="301" 
d="M130 509h-16v55h16q48 0 48 36q0 15 -10 23t-25 8q-35 0 -40 -32h-71q0 41 32 67.5t80 26.5t76 -23t28 -64q0 -47 -47 -68q53 -17 53 -72q0 -45 -30 -70t-80 -25q-51 0 -82.5 26.5t-33.5 69.5h72q4 -33 43 -33t39 37q0 38 -52 38z" />
    <glyph glyph-name="acute" unicode="&#xb4;" horiz-adv-x="384" 
d="M197 567h-101l70 158h122z" />
    <glyph glyph-name="mu" unicode="&#x3bc;" horiz-adv-x="510" 
d="M157 12v-149h-106v637h106v-306q0 -59 25 -84t72 -25q48 0 74.5 30.5t26.5 82.5v302h99v-500h-98v45q-34 -54 -116 -54q-52 0 -83 21z" />
    <glyph glyph-name="mu" unicode="&#xb5;" horiz-adv-x="510" 
d="M157 12v-149h-106v637h106v-306q0 -59 25 -84t72 -25q48 0 74.5 30.5t26.5 82.5v302h99v-500h-98v45q-34 -54 -116 -54q-52 0 -83 21z" />
    <glyph glyph-name="paragraph" unicode="&#xb6;" horiz-adv-x="628" 
d="M235 690h305v-880h-112v779h-81v-779h-112v500q-80 0 -135 55t-55 135q0 79 55 134q56 56 135 56z" />
    <glyph glyph-name="middot" unicode="&#xb7;" horiz-adv-x="216" 
d="M45 411h126v-126h-126v126z" />
    <glyph glyph-name="cedilla" unicode="&#xb8;" horiz-adv-x="347" 
d="M118 -71l19 96l71 -3l-12 -44q56 -21 56 -74q0 -38 -31.5 -60.5t-83.5 -22.5q-30 0 -42 3l14 59q4 -1 19 -1q39 0 39 24q0 23 -49 23z" />
    <glyph glyph-name="onesuperior" unicode="&#xb9;" horiz-adv-x="277" 
d="M131 690h69v-316h-73v237l-57 -39v75z" />
    <glyph glyph-name="ordmasculine" unicode="&#xba;" horiz-adv-x="344" 
d="M305 555v-45q0 -65 -36 -102t-101 -37q-63 0 -99.5 37t-36.5 102v45q0 66 36.5 102t99.5 36q64 0 100.5 -36t36.5 -102zM168 437q30 0 47 19.5t17 53.5v44q0 72 -64 72q-63 0 -63 -72v-44q0 -73 63 -73z" />
    <glyph glyph-name="guillemotright" unicode="&#xbb;" 
d="M257 389v125l232 -231l-232 -231v124l107 107zM47 389v125l232 -231l-232 -231v124l108 107z" />
    <glyph glyph-name="onequarter" unicode="&#xbc;" horiz-adv-x="634" 
d="M121 690h69v-316h-73v237l-57 -39v75zM318 108l131 208h85l-123 -201h67v50h72v-50h39v-62h-39v-53h-72v53h-160v55zM11 0l475 690h106l-474 -690h-107z" />
    <glyph glyph-name="onehalf" unicode="&#xbd;" horiz-adv-x="630" 
d="M121 690h69v-316h-73v237l-57 -39v75zM466 60h124v-60h-221v57l105 95q38 33 38 63q0 17 -10 27.5t-26 10.5q-17 0 -28.5 -10.5t-12.5 -28.5h-69q0 47 32 76t79 29q49 0 78.5 -26t29.5 -73q0 -52 -59 -105zM11 0l475 690h106l-474 -690h-107z" />
    <glyph glyph-name="threequarters" unicode="&#xbe;" horiz-adv-x="619" 
d="M119 509h-16v55h16q48 0 48 36q0 15 -10 23t-25 8q-35 0 -40 -32h-71q0 41 32 67.5t80 26.5t76 -23t28 -64q0 -47 -47 -68q53 -17 53 -72q0 -45 -30 -70t-80 -25q-51 0 -82.5 26.5t-33.5 69.5h72q4 -33 43 -33t39 37q0 38 -52 38zM318 108l131 208h85l-123 -201h67v50h72
v-50h39v-62h-39v-53h-72v53h-160v55zM11 0l475 690h106l-474 -690h-107z" />
    <glyph glyph-name="questiondown" unicode="&#xbf;" horiz-adv-x="486" 
d="M208 277v34h102v-72q0 -55 -34 -86l-47 -43q-39 -37 -54.5 -63t-15.5 -58q0 -40 26 -64t66 -24q41 0 67 23t27 62h111q0 -85 -59 -135t-146 -50q-89 0 -149 51q-59 50 -59 140q0 51 25.5 95t76.5 92l31 30q32 30 32 68zM318 382h-118v118h118v-118z" />
    <glyph glyph-name="Agrave" unicode="&#xc0;" horiz-adv-x="595" 
d="M173 143l-47 -143h-124l240 690h110l240 -690h-123l-47 143h-249zM389 243l-92 279l-92 -279h184zM137 873h127l80 -129h-104z" />
    <glyph glyph-name="Aacute" unicode="&#xc1;" horiz-adv-x="595" 
d="M173 143l-47 -143h-124l240 690h110l240 -690h-123l-47 143h-249zM389 243l-92 279l-92 -279h184zM352 744h-103l80 129h126z" />
    <glyph glyph-name="Acircumflex" unicode="&#xc2;" horiz-adv-x="595" 
d="M173 143l-47 -143h-124l240 690h110l240 -690h-123l-47 143h-249zM389 243l-92 279l-92 -279h184zM109 738l138 142h100l138 -142h-117l-71 75l-71 -75h-117z" />
    <glyph glyph-name="Atilde" unicode="&#xc3;" horiz-adv-x="595" 
d="M173 143l-47 -143h-124l240 690h110l240 -690h-123l-47 143h-249zM389 243l-92 279l-92 -279h184zM358 744q-23 0 -62 14t-55 14q-31 0 -55 -26l-59 60q48 56 113 56q21 0 60 -14t56 -14q30 0 54 26l58 -60q-47 -56 -110 -56z" />
    <glyph glyph-name="Adieresis" unicode="&#xc4;" horiz-adv-x="595" 
d="M173 143l-47 -143h-124l240 690h110l240 -690h-123l-47 143h-249zM389 243l-92 279l-92 -279h184zM248 764h-108v105h108v-105zM455 764h-109v105h109v-105z" />
    <glyph glyph-name="Aring" unicode="&#xc5;" horiz-adv-x="595" 
d="M173 143l-47 -143h-124l228 655q-46 27 -46 82q0 44 32 71.5t81 27.5q51 0 82.5 -27t31.5 -72q0 -53 -47 -82l228 -655h-123l-47 143h-249zM389 243l-92 279l-92 -279h184zM251 737q0 -18 12.5 -28t33.5 -10q46 0 46 38t-46 38t-46 -38z" />
    <glyph glyph-name="AE" unicode="&#xc6;" horiz-adv-x="878" 
d="M218 147l-82 -147h-134l391 690h450v-101h-307v-182h277v-100h-277v-207h307v-100h-423v147h-202zM420 510l-147 -263h147v263z" />
    <glyph glyph-name="Ccedilla" unicode="&#xc7;" horiz-adv-x="587" 
d="M264 -71l12 63q-109 9 -168.5 87t-59.5 222v88q0 154 67.5 232t190.5 78q105 0 169.5 -56.5t81.5 -166.5h-112q-26 122 -139 122q-72 0 -107 -50.5t-35 -158.5v-88q0 -209 142 -209q59 0 92 29.5t47 92.5h111q-30 -201 -210 -221l-4 -15q56 -21 56 -74q0 -38 -31.5 -60.5
t-83.5 -22.5q-30 0 -42 3l14 59q4 -1 19 -1q39 0 39 24q0 23 -49 23z" />
    <glyph glyph-name="Egrave" unicode="&#xc8;" horiz-adv-x="533" 
d="M76 0v690h423v-101h-307v-182h277v-100h-277v-207h307v-100h-423zM155 873h127l80 -129h-104z" />
    <glyph glyph-name="Eacute" unicode="&#xc9;" horiz-adv-x="533" 
d="M76 0v690h423v-101h-307v-182h277v-100h-277v-207h307v-100h-423zM324 744h-103l80 129h126z" />
    <glyph glyph-name="Ecircumflex" unicode="&#xca;" horiz-adv-x="533" 
d="M76 0v690h423v-101h-307v-182h277v-100h-277v-207h307v-100h-423zM99 738l138 142h100l138 -142h-117l-71 75l-71 -75h-117z" />
    <glyph glyph-name="Edieresis" unicode="&#xcb;" horiz-adv-x="533" 
d="M76 0v690h423v-101h-307v-182h277v-100h-277v-207h307v-100h-423zM238 764h-108v105h108v-105zM445 764h-109v105h109v-105z" />
    <glyph glyph-name="Igrave" unicode="&#xcc;" horiz-adv-x="287" 
d="M86 690h116v-690h-116v690zM-4 873h127l80 -129h-104z" />
    <glyph glyph-name="Iacute" unicode="&#xcd;" horiz-adv-x="287" 
d="M86 690h116v-690h-116v690zM189 744h-103l80 129h126z" />
    <glyph glyph-name="Icircumflex" unicode="&#xce;" horiz-adv-x="287" 
d="M86 690h116v-690h-116v690zM-44 738l138 142h100l138 -142h-117l-71 75l-71 -75h-117z" />
    <glyph glyph-name="Idieresis" unicode="&#xcf;" horiz-adv-x="287" 
d="M86 690h116v-690h-116v690zM94 764h-108v105h108v-105zM301 764h-109v105h109v-105z" />
    <glyph glyph-name="Eth" unicode="&#xd0;" horiz-adv-x="620" 
d="M313 0h-233v307h-90v100h90v283h233q259 0 259 -304v-82q0 -304 -259 -304zM196 100h117q74 0 108.5 49t34.5 155v82q0 106 -34.5 154.5t-108.5 48.5h-117v-182h155v-100h-155v-207z" />
    <glyph glyph-name="Ntilde" unicode="&#xd1;" horiz-adv-x="648" 
d="M460 215v475h112v-690h-103l-281 469v-469h-112v690h100zM384 744q-23 0 -62 14t-55 14q-31 0 -55 -26l-59 60q48 56 113 56q21 0 60 -14t56 -14q30 0 54 26l58 -60q-47 -56 -110 -56z" />
    <glyph glyph-name="Ograve" unicode="&#xd2;" horiz-adv-x="613" 
d="M565 389v-88q0 -154 -68 -232t-191 -78t-190.5 78t-67.5 232v88q0 154 67.5 232t190.5 78t191 -78t68 -232zM164 389v-88q0 -108 35 -158.5t107 -50.5t107.5 50.5t35.5 158.5v88q0 108 -35.5 158.5t-107.5 50.5t-107 -50.5t-35 -158.5zM171 873h127l80 -129h-104z" />
    <glyph glyph-name="Oacute" unicode="&#xd3;" horiz-adv-x="613" 
d="M565 389v-88q0 -154 -68 -232t-191 -78t-190.5 78t-67.5 232v88q0 154 67.5 232t190.5 78t191 -78t68 -232zM164 389v-88q0 -108 35 -158.5t107 -50.5t107.5 50.5t35.5 158.5v88q0 108 -35.5 158.5t-107.5 50.5t-107 -50.5t-35 -158.5zM336 744h-103l80 129h126z" />
    <glyph glyph-name="Ocircumflex" unicode="&#xd4;" horiz-adv-x="613" 
d="M565 389v-88q0 -154 -68 -232t-191 -78t-190.5 78t-67.5 232v88q0 154 67.5 232t190.5 78t191 -78t68 -232zM164 389v-88q0 -108 35 -158.5t107 -50.5t107.5 50.5t35.5 158.5v88q0 108 -35.5 158.5t-107.5 50.5t-107 -50.5t-35 -158.5zM118 738l138 142h100l138 -142
h-117l-71 75l-71 -75h-117z" />
    <glyph glyph-name="Otilde" unicode="&#xd5;" horiz-adv-x="613" 
d="M565 389v-88q0 -154 -68 -232t-191 -78t-190.5 78t-67.5 232v88q0 154 67.5 232t190.5 78t191 -78t68 -232zM164 389v-88q0 -108 35 -158.5t107 -50.5t107.5 50.5t35.5 158.5v88q0 108 -35.5 158.5t-107.5 50.5t-107 -50.5t-35 -158.5zM366 744q-23 0 -62 14t-55 14
q-31 0 -55 -26l-59 60q48 56 113 56q21 0 60 -14t56 -14q30 0 54 26l58 -60q-47 -56 -110 -56z" />
    <glyph glyph-name="Odieresis" unicode="&#xd6;" horiz-adv-x="613" 
d="M565 389v-88q0 -154 -68 -232t-191 -78t-190.5 78t-67.5 232v88q0 154 67.5 232t190.5 78t191 -78t68 -232zM164 389v-88q0 -108 35 -158.5t107 -50.5t107.5 50.5t35.5 158.5v88q0 108 -35.5 158.5t-107.5 50.5t-107 -50.5t-35 -158.5zM257 764h-108v105h108v-105z
M464 764h-109v105h109v-105z" />
    <glyph glyph-name="multiply" unicode="&#xd7;" horiz-adv-x="535" 
d="M270 288l-121 -121l-66 66l121 121l-121 122l65 65l122 -122l122 122l65 -65l-122 -122l122 -121l-66 -66z" />
    <glyph glyph-name="Oslash" unicode="&#xd8;" horiz-adv-x="613" 
d="M233 -1l-41 -115h-98l55 153q-101 74 -101 264v88q0 154 67.5 232t190.5 78q46 0 79 -10l45 123h98l-59 -164q96 -77 96 -259v-88q0 -154 -68 -232t-191 -78q-33 0 -73 8zM164 389v-88q0 -98 28 -147l158 438q-19 6 -44 6q-72 0 -107 -50.5t-35 -158.5zM449 301v88
q0 89 -24 138l-157 -431q15 -4 38 -4q72 0 107.5 50.5t35.5 158.5z" />
    <glyph glyph-name="Ugrave" unicode="&#xd9;" horiz-adv-x="668" 
d="M476 279v411h116v-410q0 -144 -67.5 -216.5t-190.5 -72.5t-190.5 72t-67.5 216v411h116v-411q0 -97 34.5 -142t107.5 -45t107.5 45t34.5 142zM195 873h127l80 -129h-104z" />
    <glyph glyph-name="Uacute" unicode="&#xda;" horiz-adv-x="668" 
d="M476 279v411h116v-410q0 -144 -67.5 -216.5t-190.5 -72.5t-190.5 72t-67.5 216v411h116v-411q0 -97 34.5 -142t107.5 -45t107.5 45t34.5 142zM368 744h-103l80 129h126z" />
    <glyph glyph-name="Ucircumflex" unicode="&#xdb;" horiz-adv-x="668" 
d="M476 279v411h116v-410q0 -144 -67.5 -216.5t-190.5 -72.5t-190.5 72t-67.5 216v411h116v-411q0 -97 34.5 -142t107.5 -45t107.5 45t34.5 142zM146 738l138 142h100l138 -142h-117l-71 75l-71 -75h-117z" />
    <glyph glyph-name="Udieresis" unicode="&#xdc;" horiz-adv-x="668" 
d="M476 279v411h116v-410q0 -144 -67.5 -216.5t-190.5 -72.5t-190.5 72t-67.5 216v411h116v-411q0 -97 34.5 -142t107.5 -45t107.5 45t34.5 142zM285 764h-108v105h108v-105zM492 764h-109v105h109v-105z" />
    <glyph glyph-name="Yacute" unicode="&#xdd;" horiz-adv-x="571" 
d="M227 288l-215 402h135l138 -276l139 276h134l-215 -402v-288h-116v288zM328 744h-103l80 129h126z" />
    <glyph glyph-name="Thorn" unicode="&#xde;" horiz-adv-x="589" 
d="M311 139h-119v-139h-116v690h116v-113h119q121 0 187.5 -56.5t66.5 -160.5q0 -105 -67 -163t-187 -58zM192 477v-237h107q150 0 150 120q0 117 -150 117h-107z" />
    <glyph glyph-name="germandbls" unicode="&#xdf;" 
d="M462 564q0 -69 -61 -97q34 -12 47.5 -38.5t13.5 -76.5v-212q0 -86 -33 -113q-31 -27 -114 -27h-53v91h36q31 0 44.5 14t13.5 47v198q0 37 -12.5 52t-45.5 15h-36v87h36q58 0 58 52q0 56 -87 56q-55 0 -80 -29.5t-25 -91.5v-491h-107v499q0 200 212 200q95 0 144 -37.5
t49 -97.5z" />
    <glyph glyph-name="agrave" unicode="&#xe0;" horiz-adv-x="488" 
d="M32 147q0 74 48.5 111t137.5 37h108v42q0 47 -21 63.5t-78 16.5q-44 0 -66 -9t-39 -36l-77 54q27 44 71 63.5t118 19.5q103 0 150 -39.5t47 -133.5v-336h-105v46q-18 -30 -44.5 -42.5t-71.5 -12.5q-84 0 -131 41t-47 115zM326 189v24h-100q-89 0 -89 -66q0 -65 85 -65
q55 0 79.5 23.5t24.5 83.5zM122 725h122l70 -158h-101z" />
    <glyph glyph-name="aacute" unicode="&#xe1;" horiz-adv-x="488" 
d="M32 147q0 74 48.5 111t137.5 37h108v42q0 47 -21 63.5t-78 16.5q-44 0 -66 -9t-39 -36l-77 54q27 44 71 63.5t118 19.5q103 0 150 -39.5t47 -133.5v-336h-105v46q-18 -30 -44.5 -42.5t-71.5 -12.5q-84 0 -131 41t-47 115zM326 189v24h-100q-89 0 -89 -66q0 -65 85 -65
q55 0 79.5 23.5t24.5 83.5zM280 567h-101l70 158h122z" />
    <glyph glyph-name="acircumflex" unicode="&#xe2;" horiz-adv-x="488" 
d="M32 147q0 74 48.5 111t137.5 37h108v42q0 47 -21 63.5t-78 16.5q-44 0 -66 -9t-39 -36l-77 54q27 44 71 63.5t118 19.5q103 0 150 -39.5t47 -133.5v-336h-105v46q-18 -30 -44.5 -42.5t-71.5 -12.5q-84 0 -131 41t-47 115zM326 189v24h-100q-89 0 -89 -66q0 -65 85 -65
q55 0 79.5 23.5t24.5 83.5zM86 558l108 142h100l108 -142h-102l-56 77l-56 -77h-102z" />
    <glyph glyph-name="atilde" unicode="&#xe3;" horiz-adv-x="488" 
d="M32 147q0 74 48.5 111t137.5 37h108v42q0 47 -21 63.5t-78 16.5q-44 0 -66 -9t-39 -36l-77 54q27 44 71 63.5t118 19.5q103 0 150 -39.5t47 -133.5v-336h-105v46q-18 -30 -44.5 -42.5t-71.5 -12.5q-84 0 -131 41t-47 115zM326 189v24h-100q-89 0 -89 -66q0 -65 85 -65
q55 0 79.5 23.5t24.5 83.5zM307 572q-23 0 -62 14t-54 14q-31 0 -56 -27l-58 59q47 56 112 56q23 0 60 -15q39 -14 57 -14q28 0 53 27l58 -58q-44 -56 -110 -56z" />
    <glyph glyph-name="adieresis" unicode="&#xe4;" horiz-adv-x="488" 
d="M32 147q0 74 48.5 111t137.5 37h108v42q0 47 -21 63.5t-78 16.5q-44 0 -66 -9t-39 -36l-77 54q27 44 71 63.5t118 19.5q103 0 150 -39.5t47 -133.5v-336h-105v46q-18 -30 -44.5 -42.5t-71.5 -12.5q-84 0 -131 41t-47 115zM326 189v24h-100q-89 0 -89 -66q0 -65 85 -65
q55 0 79.5 23.5t24.5 83.5zM188 585h-109v105h109v-105zM394 585h-108v105h108v-105z" />
    <glyph glyph-name="aring" unicode="&#xe5;" horiz-adv-x="488" 
d="M32 147q0 74 48.5 111t137.5 37h108v42q0 47 -21 63.5t-78 16.5q-44 0 -66 -9t-39 -36l-77 54q27 44 71 63.5t118 19.5q103 0 150 -39.5t47 -133.5v-336h-105v46q-18 -30 -44.5 -42.5t-71.5 -12.5q-84 0 -131 41t-47 115zM326 189v24h-100q-89 0 -89 -66q0 -65 85 -65
q55 0 79.5 23.5t24.5 83.5zM161 568q-33 32 -33 78t33 78q34 32 84 32t84 -32q33 -32 33 -78t-33 -78q-32 -31 -84 -31t-84 31zM212 681q-13 -13 -13 -35t13 -36t33 -14t33 14t13 36t-13 35q-13 14 -33 14t-33 -14z" />
    <glyph glyph-name="ae" unicode="&#xe6;" horiz-adv-x="775" 
d="M642 132l80 -56q-49 -85 -179 -85q-117 0 -166 79q-52 -79 -167 -79q-84 0 -131 40.5t-47 113.5q0 150 188 150h106v40q0 46 -20.5 64t-76.5 18q-45 0 -68 -9.5t-39 -35.5l-77 52q51 85 191 85q111 0 153 -57q47 57 138 57q197 0 203 -220v-67h-299v-2q0 -66 28.5 -101.5
t81.5 -35.5q39 0 62 11t39 38zM326 189v24h-100q-89 0 -89 -66q0 -65 85 -65q54 0 79 23.5t25 83.5zM431 304h191q-4 112 -94 112t-97 -112z" />
    <glyph glyph-name="ccedilla" unicode="&#xe7;" horiz-adv-x="445" 
d="M208 -71l12 64q-87 10 -135.5 69.5t-48.5 154.5v68q0 108 58.5 166t165.5 58q122 0 174 -81l-82 -57q-32 45 -94 45q-116 0 -116 -136v-58q0 -139 116 -139q68 0 95 49l81 -56q-42 -74 -144 -83l-4 -15q56 -21 56 -74q0 -38 -31.5 -60.5t-83.5 -22.5q-30 0 -42 3l14 59
q4 -1 19 -1q39 0 39 24q0 23 -49 23z" />
    <glyph glyph-name="egrave" unicode="&#xe8;" horiz-adv-x="487" 
d="M354 132l80 -56q-49 -85 -179 -85q-104 0 -161.5 61t-57.5 165v68q0 110 52 167t151 57q202 0 202 -230v-55h-299v-2q0 -65 27 -102t82 -37q41 0 64 11.5t39 37.5zM239 416q-88 0 -96 -110h191q-6 110 -95 110zM122 725h122l70 -158h-101z" />
    <glyph glyph-name="eacute" unicode="&#xe9;" horiz-adv-x="487" 
d="M354 132l80 -56q-49 -85 -179 -85q-104 0 -161.5 61t-57.5 165v68q0 110 52 167t151 57q202 0 202 -230v-55h-299v-2q0 -65 27 -102t82 -37q41 0 64 11.5t39 37.5zM239 416q-88 0 -96 -110h191q-6 110 -95 110zM276 567h-101l70 158h122z" />
    <glyph glyph-name="ecircumflex" unicode="&#xea;" horiz-adv-x="487" 
d="M354 132l80 -56q-49 -85 -179 -85q-104 0 -161.5 61t-57.5 165v68q0 110 52 167t151 57q202 0 202 -230v-55h-299v-2q0 -65 27 -102t82 -37q41 0 64 11.5t39 37.5zM239 416q-88 0 -96 -110h191q-6 110 -95 110zM81 558l108 142h100l108 -142h-102l-56 77l-56 -77h-102z
" />
    <glyph glyph-name="edieresis" unicode="&#xeb;" horiz-adv-x="487" 
d="M354 132l80 -56q-49 -85 -179 -85q-104 0 -161.5 61t-57.5 165v68q0 110 52 167t151 57q202 0 202 -230v-55h-299v-2q0 -65 27 -102t82 -37q41 0 64 11.5t39 37.5zM239 416q-88 0 -96 -110h191q-6 110 -95 110zM190 585h-109v105h109v-105zM396 585h-108v105h108v-105z
" />
    <glyph glyph-name="igrave" unicode="&#xec;" horiz-adv-x="251" 
d="M179 0h-107v500h107v-500zM-18 725h122l70 -158h-101z" />
    <glyph glyph-name="iacute" unicode="&#xed;" horiz-adv-x="251" 
d="M179 0h-107v500h107v-500zM169 567h-101l70 158h122z" />
    <glyph glyph-name="icircumflex" unicode="&#xee;" horiz-adv-x="251" 
d="M179 0h-107v500h107v-500zM-37 558l108 142h100l108 -142h-102l-56 77l-56 -77h-102z" />
    <glyph glyph-name="idieresis" unicode="&#xef;" horiz-adv-x="251" 
d="M179 0h-107v500h107v-500zM72 585h-109v105h109v-105zM278 585h-108v105h108v-105z" />
    <glyph glyph-name="eth" unicode="&#xf0;" horiz-adv-x="501" 
d="M237 527l-69 37l26 46l-55 22l41 76l55 -23l31 55l67 -38l-27 -49q88 -43 122 -97q33 -52 33 -166v-171q0 -107 -54 -167.5t-158 -60.5q-102 0 -157.5 60.5t-55.5 167.5v63q0 109 55 168t155 59q76 0 119 -41q-6 40 -27.5 64t-71.5 47zM249 83q53 0 79.5 37t26.5 102v58
q0 136 -106 136q-107 0 -107 -136v-58q0 -139 107 -139z" />
    <glyph glyph-name="ntilde" unicode="&#xf1;" horiz-adv-x="526" 
d="M164 0h-107v500h105v-45q40 54 124 54q86 0 134 -48.5t48 -147.5v-313h-106v301q0 113 -95 113q-48 0 -75.5 -30.5t-27.5 -81.5v-302zM323 572q-23 0 -62 14t-54 14q-31 0 -56 -27l-58 59q47 56 112 56q23 0 60 -15q39 -14 57 -14q28 0 53 27l58 -58q-44 -56 -110 -56z
" />
    <glyph glyph-name="ograve" unicode="&#xf2;" horiz-adv-x="497" 
d="M461 282v-63q0 -107 -54 -167.5t-158 -60.5q-102 0 -157.5 60.5t-55.5 167.5v63q0 110 55.5 168.5t157.5 58.5t157 -58.5t55 -168.5zM249 83q53 0 79.5 37t26.5 102v58q0 136 -106 136q-107 0 -107 -136v-58q0 -139 107 -139zM130 725h122l70 -158h-101z" />
    <glyph glyph-name="oacute" unicode="&#xf3;" horiz-adv-x="497" 
d="M461 282v-63q0 -107 -54 -167.5t-158 -60.5q-102 0 -157.5 60.5t-55.5 167.5v63q0 110 55.5 168.5t157.5 58.5t157 -58.5t55 -168.5zM249 83q53 0 79.5 37t26.5 102v58q0 136 -106 136q-107 0 -107 -136v-58q0 -139 107 -139zM287 567h-101l70 158h122z" />
    <glyph glyph-name="ocircumflex" unicode="&#xf4;" horiz-adv-x="497" 
d="M461 282v-63q0 -107 -54 -167.5t-158 -60.5q-102 0 -157.5 60.5t-55.5 167.5v63q0 110 55.5 168.5t157.5 58.5t157 -58.5t55 -168.5zM249 83q53 0 79.5 37t26.5 102v58q0 136 -106 136q-107 0 -107 -136v-58q0 -139 107 -139zM91 558l108 142h100l108 -142h-102l-56 77
l-56 -77h-102z" />
    <glyph glyph-name="otilde" unicode="&#xf5;" horiz-adv-x="497" 
d="M461 282v-63q0 -107 -54 -167.5t-158 -60.5q-102 0 -157.5 60.5t-55.5 167.5v63q0 110 55.5 168.5t157.5 58.5t157 -58.5t55 -168.5zM249 83q53 0 79.5 37t26.5 102v58q0 136 -106 136q-107 0 -107 -136v-58q0 -139 107 -139zM309 572q-23 0 -62 14t-54 14q-31 0 -56 -27
l-58 59q47 56 112 56q23 0 60 -15q39 -14 57 -14q28 0 53 27l58 -58q-44 -56 -110 -56z" />
    <glyph glyph-name="odieresis" unicode="&#xf6;" horiz-adv-x="497" 
d="M461 282v-63q0 -107 -54 -167.5t-158 -60.5q-102 0 -157.5 60.5t-55.5 167.5v63q0 110 55.5 168.5t157.5 58.5t157 -58.5t55 -168.5zM249 83q53 0 79.5 37t26.5 102v58q0 136 -106 136q-107 0 -107 -136v-58q0 -139 107 -139zM200 585h-109v105h109v-105zM406 585h-108
v105h108v-105z" />
    <glyph glyph-name="divide" unicode="&#xf7;" horiz-adv-x="503" 
d="M446 307h-389v94h389v-94zM304 464h-107v107h107v-107zM304 138h-107v106h107v-106z" />
    <glyph glyph-name="oslash" unicode="&#xf8;" horiz-adv-x="497" 
d="M175 0l-35 -79h-77l50 111q-77 59 -77 187v63q0 110 55.5 168.5t157.5 58.5q37 0 73 -10l37 83h77l-51 -113q76 -58 76 -187v-63q0 -107 -54 -167.5t-158 -60.5q-41 0 -74 9zM142 280v-58q0 -52 17 -88l124 277q-18 5 -34 5q-107 0 -107 -136zM249 83q53 0 79.5 37
t26.5 102v58q0 48 -17 84l-124 -277q12 -4 35 -4z" />
    <glyph glyph-name="ugrave" unicode="&#xf9;" horiz-adv-x="526" 
d="M362 500h106v-500h-105v45q-19 -29 -46.5 -41.5t-76.5 -12.5q-86 0 -134.5 49t-48.5 148v312h107v-301q0 -61 24 -87.5t72 -26.5q49 0 75.5 30t26.5 83v302zM151 725h122l70 -158h-101z" />
    <glyph glyph-name="uacute" unicode="&#xfa;" horiz-adv-x="526" 
d="M362 500h106v-500h-105v45q-19 -29 -46.5 -41.5t-76.5 -12.5q-86 0 -134.5 49t-48.5 148v312h107v-301q0 -61 24 -87.5t72 -26.5q49 0 75.5 30t26.5 83v302zM307 567h-101l70 158h122z" />
    <glyph glyph-name="ucircumflex" unicode="&#xfb;" horiz-adv-x="526" 
d="M362 500h106v-500h-105v45q-19 -29 -46.5 -41.5t-76.5 -12.5q-86 0 -134.5 49t-48.5 148v312h107v-301q0 -61 24 -87.5t72 -26.5q49 0 75.5 30t26.5 83v302zM105 558l108 142h100l108 -142h-102l-56 77l-56 -77h-102z" />
    <glyph glyph-name="udieresis" unicode="&#xfc;" horiz-adv-x="526" 
d="M362 500h106v-500h-105v45q-19 -29 -46.5 -41.5t-76.5 -12.5q-86 0 -134.5 49t-48.5 148v312h107v-301q0 -61 24 -87.5t72 -26.5q49 0 75.5 30t26.5 83v302zM214 585h-109v105h109v-105zM420 585h-108v105h108v-105z" />
    <glyph glyph-name="yacute" unicode="&#xfd;" horiz-adv-x="473" 
d="M196 -6l-191 506h113l127 -352l114 352h110l-176 -520q-21 -64 -46 -102q-47 -68 -174 -68v98q55 0 80 16t43 70zM291 567h-101l70 158h122z" />
    <glyph glyph-name="thorn" unicode="&#xfe;" 
d="M482 285v-68q0 -104 -51.5 -165t-145.5 -61q-83 0 -121 41v-222h-107v880h107v-230q40 49 122 49q91 0 143.5 -59.5t52.5 -164.5zM270 83q53 0 79.5 37t26.5 102v58q0 136 -106 136q-105 0 -106 -130v-64q0 -139 106 -139z" />
    <glyph glyph-name="ydieresis" unicode="&#xff;" horiz-adv-x="473" 
d="M196 -6l-191 506h113l127 -352l114 352h110l-176 -520q-21 -64 -46 -102q-47 -68 -174 -68v98q55 0 80 16t43 70zM194 585h-109v105h109v-105zM400 585h-108v105h108v-105z" />
    <glyph glyph-name="Amacron" unicode="&#x100;" horiz-adv-x="595" 
d="M173 143l-47 -143h-124l240 690h110l240 -690h-123l-47 143h-249zM389 243l-92 279l-92 -279h184zM456 755h-317v94h317v-94z" />
    <glyph glyph-name="amacron" unicode="&#x101;" horiz-adv-x="488" 
d="M32 147q0 74 48.5 111t137.5 37h108v42q0 47 -21 63.5t-78 16.5q-44 0 -66 -9t-39 -36l-77 54q27 44 71 63.5t118 19.5q103 0 150 -39.5t47 -133.5v-336h-105v46q-18 -30 -44.5 -42.5t-71.5 -12.5q-84 0 -131 41t-47 115zM326 189v24h-100q-89 0 -89 -66q0 -65 85 -65
q55 0 79.5 23.5t24.5 83.5zM380 585h-277v94h277v-94z" />
    <glyph glyph-name="Abreve" unicode="&#x102;" horiz-adv-x="595" 
d="M173 143l-47 -143h-124l240 690h110l240 -690h-123l-47 143h-249zM389 243l-92 279l-92 -279h184zM389 879h97q0 -72 -51 -112t-137 -40t-137.5 40t-51.5 112h97q10 -63 92 -63t91 63z" />
    <glyph glyph-name="abreve" unicode="&#x103;" horiz-adv-x="488" 
d="M32 147q0 74 48.5 111t137.5 37h108v42q0 47 -21 63.5t-78 16.5q-44 0 -66 -9t-39 -36l-77 54q27 44 71 63.5t118 19.5q103 0 150 -39.5t47 -133.5v-336h-105v46q-18 -30 -44.5 -42.5t-71.5 -12.5q-84 0 -131 41t-47 115zM326 189v24h-100q-89 0 -89 -66q0 -65 85 -65
q55 0 79.5 23.5t24.5 83.5zM315 690h80q-2 -61 -39.5 -93.5t-103.5 -32.5q-67 0 -104.5 32.5t-39.5 93.5h81q6 -56 63 -56t63 56z" />
    <glyph glyph-name="Aogonek" unicode="&#x104;" horiz-adv-x="595" 
d="M173 143l-47 -143h-124l240 690h110l240 -690q-30 -24 -41.5 -37t-11.5 -27q0 -25 35 -25q4 0 20 2l13 -59q-9 -4 -46 -4q-46 0 -76.5 19.5t-30.5 56.5q0 42 35 74h-20l-47 143h-249zM389 243l-92 279l-92 -279h184z" />
    <glyph glyph-name="aogonek" unicode="&#x105;" horiz-adv-x="493" 
d="M32 147q0 74 48.5 111t137.5 37h108v42q0 47 -21 63.5t-78 16.5q-44 0 -66 -9t-39 -36l-77 54q27 44 71 63.5t118 19.5q103 0 150 -39.5t47 -133.5v-336q-30 -22 -42 -35.5t-12 -28.5q0 -25 35 -25q4 0 20 2l14 -59q-9 -4 -47 -4q-46 0 -76.5 19.5t-30.5 56.5q0 40 34 74
v46q-18 -30 -44.5 -42.5t-71.5 -12.5q-84 0 -131 41t-47 115zM326 189v24h-100q-89 0 -89 -66q0 -65 85 -65q55 0 79.5 23.5t24.5 83.5z" />
    <glyph glyph-name="Cacute" unicode="&#x106;" horiz-adv-x="587" 
d="M557 476h-112q-26 122 -139 122q-72 0 -107 -50.5t-35 -158.5v-88q0 -209 142 -209q59 0 92 29.5t47 92.5h111q-33 -223 -250 -223q-123 0 -190.5 78t-67.5 232v88q0 154 67.5 232t190.5 78q105 0 169.5 -56.5t81.5 -166.5zM317 744h-103l80 129h126z" />
    <glyph glyph-name="cacute" unicode="&#x107;" horiz-adv-x="445" 
d="M353 132l81 -56q-48 -85 -178 -85q-103 0 -161.5 61t-58.5 165v68q0 108 58.5 166t165.5 58q122 0 174 -81l-82 -57q-32 45 -94 45q-116 0 -116 -136v-58q0 -139 116 -139q68 0 95 49zM293 567h-101l70 158h122z" />
    <glyph glyph-name="Ccircumflex" unicode="&#x108;" horiz-adv-x="587" 
d="M557 476h-112q-26 122 -139 122q-72 0 -107 -50.5t-35 -158.5v-88q0 -209 142 -209q59 0 92 29.5t47 92.5h111q-33 -223 -250 -223q-123 0 -190.5 78t-67.5 232v88q0 154 67.5 232t190.5 78q105 0 169.5 -56.5t81.5 -166.5zM117 738l138 142h100l138 -142h-117l-71 75
l-71 -75h-117z" />
    <glyph glyph-name="ccircumflex" unicode="&#x109;" horiz-adv-x="445" 
d="M353 132l81 -56q-48 -85 -178 -85q-103 0 -161.5 61t-58.5 165v68q0 108 58.5 166t165.5 58q122 0 174 -81l-82 -57q-32 45 -94 45q-116 0 -116 -136v-58q0 -139 116 -139q68 0 95 49zM98 558l108 142h100l108 -142h-102l-56 77l-56 -77h-102z" />
    <glyph glyph-name="Cdotaccent" unicode="&#x10a;" horiz-adv-x="587" 
d="M557 476h-112q-26 122 -139 122q-72 0 -107 -50.5t-35 -158.5v-88q0 -209 142 -209q59 0 92 29.5t47 92.5h111q-33 -223 -250 -223q-123 0 -190.5 78t-67.5 232v88q0 154 67.5 232t190.5 78q105 0 169.5 -56.5t81.5 -166.5zM363 768h-118v101h118v-101z" />
    <glyph glyph-name="cdotaccent" unicode="&#x10b;" horiz-adv-x="445" 
d="M353 132l81 -56q-48 -85 -178 -85q-103 0 -161.5 61t-58.5 165v68q0 108 58.5 166t165.5 58q122 0 174 -81l-82 -57q-32 45 -94 45q-116 0 -116 -136v-58q0 -139 116 -139q68 0 95 49zM301 581h-116v109h116v-109z" />
    <glyph glyph-name="Ccaron" unicode="&#x10c;" horiz-adv-x="587" 
d="M557 476h-112q-26 122 -139 122q-72 0 -107 -50.5t-35 -158.5v-88q0 -209 142 -209q59 0 92 29.5t47 92.5h111q-33 -223 -250 -223q-123 0 -190.5 78t-67.5 232v88q0 154 67.5 232t190.5 78q105 0 169.5 -56.5t81.5 -166.5zM491 880l-138 -142h-100l-138 142h117l71 -75
l71 75h117z" />
    <glyph glyph-name="ccaron" unicode="&#x10d;" horiz-adv-x="445" 
d="M353 132l81 -56q-48 -85 -178 -85q-103 0 -161.5 61t-58.5 165v68q0 108 58.5 166t165.5 58q122 0 174 -81l-82 -57q-32 45 -94 45q-116 0 -116 -136v-58q0 -139 116 -139q68 0 95 49zM411 700l-108 -142h-100l-108 142h102l56 -77l56 77h102z" />
    <glyph glyph-name="Dcaron" unicode="&#x10e;" horiz-adv-x="616" 
d="M309 0h-233v690h233q259 0 259 -304v-82q0 -304 -259 -304zM192 100h117q74 0 108.5 49t34.5 155v82q0 106 -34.5 154.5t-108.5 48.5h-117v-489zM470 880l-138 -142h-100l-138 142h117l71 -75l71 75h117z" />
    <glyph glyph-name="dcaron" unicode="&#x10f;" horiz-adv-x="555" 
d="M355 465v225h106v-690h-106v35q-42 -44 -120 -44q-95 0 -147 61t-52 165v68q0 106 53 165t146 59q78 0 120 -44zM249 83q106 0 106 139v64q0 62 -27.5 96t-78.5 34q-107 0 -107 -136v-58q0 -65 27 -102t80 -37zM499 689h119v-114l-119 -102v216z" />
    <glyph glyph-name="Dcroat" unicode="&#x110;" horiz-adv-x="630" 
d="M323 0h-233v307h-100v100h100v283h233q259 0 259 -304v-82q0 -304 -259 -304zM206 100h117q74 0 108.5 49t34.5 155v82q0 106 -34.5 154.5t-108.5 48.5h-117v-182h153v-100h-153v-207z" />
    <glyph glyph-name="dslash" unicode="&#x111;" horiz-adv-x="541" 
d="M214 637h141v53h106v-53h84v-90h-84v-547h-106v35q-42 -44 -120 -44q-95 0 -147 61t-52 165v68q0 106 53 165t146 59q78 0 120 -44v82h-141v90zM249 83q106 0 106 139v64q0 62 -27.5 96t-78.5 34q-107 0 -107 -136v-58q0 -65 27 -102t80 -37z" />
    <glyph glyph-name="Emacron" unicode="&#x112;" horiz-adv-x="533" 
d="M76 0v690h423v-101h-307v-182h277v-100h-277v-207h307v-100h-423zM446 755h-317v94h317v-94z" />
    <glyph glyph-name="emacron" unicode="&#x113;" horiz-adv-x="487" 
d="M354 132l80 -56q-49 -85 -179 -85q-104 0 -161.5 61t-57.5 165v68q0 110 52 167t151 57q202 0 202 -230v-55h-299v-2q0 -65 27 -102t82 -37q41 0 64 11.5t39 37.5zM239 416q-88 0 -96 -110h191q-6 110 -95 110zM378 585h-277v94h277v-94z" />
    <glyph glyph-name="Edotaccent" unicode="&#x116;" horiz-adv-x="533" 
d="M76 0v690h423v-101h-307v-182h277v-100h-277v-207h307v-100h-423zM346 768h-118v101h118v-101z" />
    <glyph glyph-name="edotaccent" unicode="&#x117;" horiz-adv-x="487" 
d="M354 132l80 -56q-49 -85 -179 -85q-104 0 -161.5 61t-57.5 165v68q0 110 52 167t151 57q202 0 202 -230v-55h-299v-2q0 -65 27 -102t82 -37q41 0 64 11.5t39 37.5zM239 416q-88 0 -96 -110h191q-6 110 -95 110zM296 581h-116v109h116v-109z" />
    <glyph glyph-name="Eogonek" unicode="&#x118;" horiz-adv-x="533" 
d="M76 0v690h423v-101h-307v-182h277v-100h-277v-207h307v-100h-113q-30 -22 -42 -35.5t-12 -28.5q0 -25 35 -25q4 0 20 2l14 -59q-9 -4 -47 -4q-46 0 -76.5 19.5t-30.5 56.5q0 41 36 74h-207z" />
    <glyph glyph-name="eogonek" unicode="&#x119;" horiz-adv-x="487" 
d="M354 132l80 -56q-37 -66 -118 -80q-48 -36 -48 -60q0 -25 35 -25q4 0 20 2l14 -59q-9 -4 -47 -4q-46 0 -76.5 19.5t-30.5 56.5q0 36 29 68q-84 12 -130 71.5t-46 151.5v68q0 110 52 167t151 57q202 0 202 -230v-55h-299v-2q0 -65 27 -102t82 -37q41 0 64 11.5t39 37.5z
M239 416q-88 0 -96 -110h191q-6 110 -95 110z" />
    <glyph glyph-name="Ecaron" unicode="&#x11a;" horiz-adv-x="533" 
d="M76 0v690h423v-101h-307v-182h277v-100h-277v-207h307v-100h-423zM475 880l-138 -142h-100l-138 142h117l71 -75l71 75h117z" />
    <glyph glyph-name="ecaron" unicode="&#x11b;" horiz-adv-x="487" 
d="M354 132l80 -56q-49 -85 -179 -85q-104 0 -161.5 61t-57.5 165v68q0 110 52 167t151 57q202 0 202 -230v-55h-299v-2q0 -65 27 -102t82 -37q41 0 64 11.5t39 37.5zM239 416q-88 0 -96 -110h191q-6 110 -95 110zM401 700l-108 -142h-100l-108 142h102l56 -77l56 77h102z
" />
    <glyph glyph-name="Gcircumflex" unicode="&#x11c;" horiz-adv-x="608" 
d="M309 253v101h251v-53q0 -156 -65.5 -233t-188.5 -77t-190.5 78t-67.5 232v83q0 157 67.5 236t190.5 79q105 0 170 -57.5t81 -165.5h-112q-26 122 -139 122q-72 0 -107 -50.5t-35 -158.5v-88q0 -108 35 -158.5t107 -50.5q66 0 100 39.5t40 121.5h-137zM115 738l138 142
h100l138 -142h-117l-71 75l-71 -75h-117z" />
    <glyph glyph-name="gcircumflex" unicode="&#x11d;" 
d="M355 465v35h106v-490q0 -206 -218 -206q-70 0 -113.5 20t-72.5 67l75 54q33 -50 108 -50q60 0 87.5 27t27.5 88v23q-41 -42 -120 -42q-95 0 -147 61t-52 165v68q0 106 53 165t146 59q78 0 120 -44zM249 83q106 0 106 139v58q0 136 -106 136q-107 0 -107 -136v-58
q0 -65 27 -102t80 -37zM121 558l108 142h100l108 -142h-102l-56 77l-56 -77h-102z" />
    <glyph glyph-name="Gbreve" unicode="&#x11e;" horiz-adv-x="608" 
d="M309 253v101h251v-53q0 -156 -65.5 -233t-188.5 -77t-190.5 78t-67.5 232v83q0 157 67.5 236t190.5 79q105 0 170 -57.5t81 -165.5h-112q-26 122 -139 122q-72 0 -107 -50.5t-35 -158.5v-88q0 -108 35 -158.5t107 -50.5q66 0 100 39.5t40 121.5h-137zM394 879h97
q0 -72 -51 -112t-137 -40t-137.5 40t-51.5 112h97q11 -63 92 -63q82 0 91 63z" />
    <glyph glyph-name="gbreve" unicode="&#x11f;" 
d="M355 465v35h106v-490q0 -206 -218 -206q-70 0 -113.5 20t-72.5 67l75 54q33 -50 108 -50q60 0 87.5 27t27.5 88v23q-41 -42 -120 -42q-95 0 -147 61t-52 165v68q0 106 53 165t146 59q78 0 120 -44zM249 83q106 0 106 139v58q0 136 -106 136q-107 0 -107 -136v-58
q0 -65 27 -102t80 -37zM345 690h80q-2 -61 -39.5 -93.5t-103.5 -32.5q-67 0 -104.5 32.5t-39.5 93.5h81q6 -56 63 -56t63 56z" />
    <glyph glyph-name="Gdotaccent" unicode="&#x120;" horiz-adv-x="608" 
d="M309 253v101h251v-53q0 -156 -65.5 -233t-188.5 -77t-190.5 78t-67.5 232v83q0 157 67.5 236t190.5 79q105 0 170 -57.5t81 -165.5h-112q-26 122 -139 122q-72 0 -107 -50.5t-35 -158.5v-88q0 -108 35 -158.5t107 -50.5q66 0 100 39.5t40 121.5h-137zM365 768h-118v101
h118v-101z" />
    <glyph glyph-name="gdotaccent" unicode="&#x121;" 
d="M355 465v35h106v-490q0 -206 -218 -206q-70 0 -113.5 20t-72.5 67l75 54q33 -50 108 -50q60 0 87.5 27t27.5 88v23q-41 -42 -120 -42q-95 0 -147 61t-52 165v68q0 106 53 165t146 59q78 0 120 -44zM249 83q106 0 106 139v58q0 136 -106 136q-107 0 -107 -136v-58
q0 -65 27 -102t80 -37zM318 581h-116v109h116v-109z" />
    <glyph glyph-name="Gcommaaccent" unicode="&#x122;" horiz-adv-x="608" 
d="M309 253v101h251v-53q0 -156 -65.5 -233t-188.5 -77t-190.5 78t-67.5 232v83q0 157 67.5 236t190.5 79q105 0 170 -57.5t81 -165.5h-112q-26 122 -139 122q-72 0 -107 -50.5t-35 -158.5v-88q0 -108 35 -158.5t107 -50.5q66 0 100 39.5t40 121.5h-137zM245 -57h119v-114
l-119 -102v216z" />
    <glyph glyph-name="gcommaaccent" unicode="&#x123;" 
d="M355 465v35h106v-490q0 -206 -218 -206q-70 0 -113.5 20t-72.5 67l75 54q33 -50 108 -50q60 0 87.5 27t27.5 88v23q-41 -42 -120 -42q-95 0 -147 61t-52 165v68q0 106 53 165t146 59q78 0 120 -44zM249 83q106 0 106 139v58q0 136 -106 136q-107 0 -107 -136v-58
q0 -65 27 -102t80 -37zM318 565h-119v114l119 102v-216z" />
    <glyph glyph-name="Hcircumflex" unicode="&#x124;" horiz-adv-x="648" 
d="M76 690h116v-283h264v283h116v-690h-116v307h-264v-307h-116v690zM136 738l138 142h100l138 -142h-117l-71 75l-71 -75h-117z" />
    <glyph glyph-name="hcircumflex" unicode="&#x125;" horiz-adv-x="526" 
d="M164 0h-107v690h107v-233q36 52 122 52t134 -48.5t48 -147.5v-313h-106v301q0 113 -95 113q-48 0 -75.5 -30.5t-27.5 -81.5v-302zM-47 724l108 142h100l108 -142h-102l-56 77l-56 -77h-102z" />
    <glyph glyph-name="Hbar" unicode="&#x126;" horiz-adv-x="661" 
d="M83 690h116v-118h264v118h116v-118h92v-104h-92v-468h-116v307h-264v-307h-116v468h-93v104h93v118zM199 468v-61h264v61h-264z" />
    <glyph glyph-name="hbar" unicode="&#x127;" horiz-adv-x="532" 
d="M63 547h-86v90h86v53h107v-53h146v-90h-146v-90q36 52 122 52t134 -48.5t48 -147.5v-313h-106v301q0 113 -95 113q-48 0 -75.5 -30.5t-27.5 -81.5v-302h-107v547z" />
    <glyph glyph-name="Imacron" unicode="&#x12a;" horiz-adv-x="287" 
d="M86 690h116v-690h-116v690zM303 755h-317v94h317v-94z" />
    <glyph glyph-name="imacron" unicode="&#x12b;" horiz-adv-x="251" 
d="M179 0h-107v500h107v-500zM260 585h-277v94h277v-94z" />
    <glyph glyph-name="Iogonek" unicode="&#x12e;" horiz-adv-x="287" 
d="M86 690h116v-690q-30 -22 -42 -35.5t-12 -28.5q0 -25 35 -25q4 0 20 2l14 -59q-9 -4 -47 -4q-46 0 -76.5 19.5t-30.5 56.5q0 41 36 74h-13v690z" />
    <glyph glyph-name="iogonek" unicode="&#x12f;" horiz-adv-x="251" 
d="M72 0v500h107v-500q-30 -22 -42 -35.5t-12 -28.5q0 -25 35 -25q4 0 20 2l14 -59q-9 -4 -47 -4q-44 0 -75 19q-32 18 -32 57t32 74zM184 581h-117v109h117v-109z" />
    <glyph glyph-name="Idot" unicode="&#x130;" horiz-adv-x="287" 
d="M86 690h116v-690h-116v690zM203 768h-118v101h118v-101z" />
    <glyph glyph-name="dotlessi" unicode="&#x131;" horiz-adv-x="251" 
d="M179 0h-107v500h107v-500z" />
    <glyph glyph-name="Jcircumflex" unicode="&#x134;" horiz-adv-x="509" 
d="M-3 87l97 55q38 -50 101 -50q64 0 93 41.5t29 139.5v417h116v-417q0 -282 -233 -282q-138 0 -203 96zM194 738l138 142h100l138 -142h-117l-71 75l-71 -75h-117z" />
    <glyph glyph-name="jcircumflex" unicode="&#x135;" horiz-adv-x="244" 
d="M75 500h106v-531q0 -87 -41.5 -123t-139.5 -36v94q44 0 59.5 19.5t15.5 64.5v512zM-33 558l108 142h100l108 -142h-102l-56 77l-56 -77h-102z" />
    <glyph glyph-name="Kcommaaccent" unicode="&#x136;" horiz-adv-x="642" 
d="M370 412l263 -412h-139l-200 315l-102 -131v-184h-116v690h116v-333l254 333h142zM262 -57h119v-114l-119 -102v216z" />
    <glyph glyph-name="kcommaaccent" unicode="&#x137;" horiz-adv-x="495" 
d="M164 305l167 195h131l-191 -215l221 -285h-129l-165 202l-34 -38v-164h-107v690h107v-385zM197 -57h119v-114l-119 -102v216z" />
    <glyph glyph-name="Lacute" unicode="&#x139;" horiz-adv-x="503" 
d="M76 690h116v-590h307v-100h-423v690zM191 744h-103l80 129h126z" />
    <glyph glyph-name="lacute" unicode="&#x13a;" horiz-adv-x="282" 
d="M57 157v533h107v-508q0 -47 16 -67.5t60 -20.5v-94q-99 0 -141 35.5t-42 121.5zM163 734h-101l70 158h122z" />
    <glyph glyph-name="Lcommaaccent" unicode="&#x13b;" horiz-adv-x="503" 
d="M76 690h116v-590h307v-100h-423v690zM228 -57h119v-114l-119 -102v216z" />
    <glyph glyph-name="lcommaaccent" unicode="&#x13c;" horiz-adv-x="282" 
d="M57 157v533h107v-508q0 -47 16 -67.5t60 -20.5v-94q-99 0 -141 35.5t-42 121.5zM94 -57h119v-114l-119 -102v216z" />
    <glyph glyph-name="Lcaron" unicode="&#x13d;" horiz-adv-x="503" 
d="M76 690h116v-590h307v-100h-423v690zM305 721h113v-174l-113 -96v270z" />
    <glyph glyph-name="lcaron" unicode="&#x13e;" horiz-adv-x="284" 
d="M57 157v533h107v-508q0 -47 16 -67.5t60 -20.5v-94q-99 0 -141 35.5t-42 121.5zM222 689h119v-114l-119 -102v216z" />
    <glyph glyph-name="Ldot" unicode="&#x13f;" horiz-adv-x="503" 
d="M76 690h116v-590h307v-100h-423v690zM448 341h-116v109h116v-109z" />
    <glyph glyph-name="ldot" unicode="&#x140;" horiz-adv-x="344" 
d="M57 157v533h107v-508q0 -47 16 -67.5t60 -20.5v-94q-99 0 -141 35.5t-42 121.5zM345 352h-118v101h118v-101z" />
    <glyph glyph-name="Lslash" unicode="&#x141;" horiz-adv-x="530" 
d="M103 690h116v-216l112 90l59 -75l-171 -137v-252h307v-100h-423v259l-63 -50l-59 75l122 97v309z" />
    <glyph glyph-name="lslash" unicode="&#x142;" horiz-adv-x="290" 
d="M87 275l-57 -39l-40 60l97 67v327h107v-254l69 48l40 -59l-109 -76v-167q0 -47 16 -67.5t60 -20.5v-94q-99 0 -141 35.5t-42 121.5v118z" />
    <glyph glyph-name="Nacute" unicode="&#x143;" horiz-adv-x="648" 
d="M460 215v475h112v-690h-103l-281 469v-469h-112v690h100zM368 744h-103l80 129h126z" />
    <glyph glyph-name="nacute" unicode="&#x144;" horiz-adv-x="526" 
d="M164 0h-107v500h105v-45q40 54 124 54q86 0 134 -48.5t48 -147.5v-313h-106v301q0 113 -95 113q-48 0 -75.5 -30.5t-27.5 -81.5v-302zM301 567h-101l70 158h122z" />
    <glyph glyph-name="Ncommaaccent" unicode="&#x145;" horiz-adv-x="648" 
d="M460 215v475h112v-690h-103l-281 469v-469h-112v690h100zM267 -57h119v-114l-119 -102v216z" />
    <glyph glyph-name="ncommaaccent" unicode="&#x146;" horiz-adv-x="526" 
d="M164 0h-107v500h105v-45q40 54 124 54q86 0 134 -48.5t48 -147.5v-313h-106v301q0 113 -95 113q-48 0 -75.5 -30.5t-27.5 -81.5v-302zM205 -57h119v-114l-119 -102v216z" />
    <glyph glyph-name="Ncaron" unicode="&#x147;" horiz-adv-x="648" 
d="M460 215v475h112v-690h-103l-281 469v-469h-112v690h100zM512 880l-138 -142h-100l-138 142h117l71 -75l71 75h117z" />
    <glyph glyph-name="ncaron" unicode="&#x148;" horiz-adv-x="526" 
d="M164 0h-107v500h105v-45q40 54 124 54q86 0 134 -48.5t48 -147.5v-313h-106v301q0 113 -95 113q-48 0 -75.5 -30.5t-27.5 -81.5v-302zM422 700l-108 -142h-100l-108 142h102l56 -77l56 77h102z" />
    <glyph glyph-name="Omacron" unicode="&#x14c;" horiz-adv-x="613" 
d="M565 389v-88q0 -154 -68 -232t-191 -78t-190.5 78t-67.5 232v88q0 154 67.5 232t190.5 78t191 -78t68 -232zM164 389v-88q0 -108 35 -158.5t107 -50.5t107.5 50.5t35.5 158.5v88q0 108 -35.5 158.5t-107.5 50.5t-107 -50.5t-35 -158.5zM465 755h-317v94h317v-94z" />
    <glyph glyph-name="omacron" unicode="&#x14d;" horiz-adv-x="497" 
d="M461 282v-63q0 -107 -54 -167.5t-158 -60.5q-102 0 -157.5 60.5t-55.5 167.5v63q0 110 55.5 168.5t157.5 58.5t157 -58.5t55 -168.5zM249 83q53 0 79.5 37t26.5 102v58q0 136 -106 136q-107 0 -107 -136v-58q0 -139 107 -139zM388 585h-277v94h277v-94z" />
    <glyph glyph-name="Ohungarumlaut" unicode="&#x150;" horiz-adv-x="613" 
d="M565 389v-88q0 -154 -68 -232t-191 -78t-190.5 78t-67.5 232v88q0 154 67.5 232t190.5 78t191 -78t68 -232zM164 389v-88q0 -108 35 -158.5t107 -50.5t107.5 50.5t35.5 158.5v88q0 108 -35.5 158.5t-107.5 50.5t-107 -50.5t-35 -158.5zM247 744h-104l80 129h127zM435 744
h-103l90 129h126z" />
    <glyph glyph-name="ohungarumlaut" unicode="&#x151;" horiz-adv-x="497" 
d="M461 282v-63q0 -107 -54 -167.5t-158 -60.5q-102 0 -157.5 60.5t-55.5 167.5v63q0 110 55.5 168.5t157.5 58.5t157 -58.5t55 -168.5zM249 83q53 0 79.5 37t26.5 102v58q0 136 -106 136q-107 0 -107 -136v-58q0 -139 107 -139zM209 567h-101l70 158h122zM374 567h-101
l90 158h122z" />
    <glyph glyph-name="OE" unicode="&#x152;" horiz-adv-x="906" 
d="M449 690h423v-101h-307v-182h277v-100h-277v-207h307v-100h-423v39q-49 -48 -143 -48q-123 0 -190.5 78t-67.5 232v88q0 154 67.5 232t190.5 78q94 0 143 -48v39zM164 389v-88q0 -108 35 -158.5t107 -50.5q143 0 143 198v99q0 108 -35.5 158.5t-107.5 50.5t-107 -50.5
t-35 -158.5z" />
    <glyph glyph-name="oe" unicode="&#x153;" horiz-adv-x="806" 
d="M673 132l80 -56q-27 -45 -69 -65t-112 -20q-109 0 -162 77q-48 -77 -161 -77q-101 0 -157 60t-56 166v68q0 107 55.5 165.5t157.5 58.5q110 0 159 -73q48 73 152 73q98 0 149 -59t51 -170v-58h-299v-5q0 -63 28.5 -98.5t80.5 -35.5q72 0 103 49zM249 83q52 0 79 36t27 98
v68q0 63 -27.5 97t-78.5 34q-52 0 -79.5 -34t-27.5 -97v-68q0 -134 107 -134zM557 416q-89 0 -95 -112h191q-4 112 -96 112z" />
    <glyph glyph-name="Racute" unicode="&#x154;" horiz-adv-x="611" 
d="M440 299l147 -299h-128l-133 280h-134v-280h-116v690h235q122 0 188 -53t66 -153q0 -140 -125 -185zM192 589v-209h111q77 0 111.5 24t34.5 80t-34.5 80.5t-111.5 24.5h-111zM318 744h-103l80 129h126z" />
    <glyph glyph-name="racute" unicode="&#x155;" horiz-adv-x="403" 
d="M413 435l-85 -60q-27 39 -72 39q-42 0 -67 -29.5t-25 -82.5v-302h-107v500h105v-45q34 54 112 54q92 0 139 -74zM243 567h-101l70 158h122z" />
    <glyph glyph-name="Rcommaaccent" unicode="&#x156;" horiz-adv-x="611" 
d="M440 299l147 -299h-128l-133 280h-134v-280h-116v690h235q122 0 188 -53t66 -153q0 -140 -125 -185zM192 589v-209h111q77 0 111.5 24t34.5 80t-34.5 80.5t-111.5 24.5h-111zM250 -57h119v-114l-119 -102v216z" />
    <glyph glyph-name="rcommaaccent" unicode="&#x157;" horiz-adv-x="403" 
d="M413 435l-85 -60q-27 39 -72 39q-42 0 -67 -29.5t-25 -82.5v-302h-107v500h105v-45q34 54 112 54q92 0 139 -74zM52 -57h119v-114l-119 -102v216z" />
    <glyph glyph-name="Rcaron" unicode="&#x158;" horiz-adv-x="611" 
d="M440 299l147 -299h-128l-133 280h-134v-280h-116v690h235q122 0 188 -53t66 -153q0 -140 -125 -185zM192 589v-209h111q77 0 111.5 24t34.5 80t-34.5 80.5t-111.5 24.5h-111zM489 880l-138 -142h-100l-138 142h117l71 -75l71 75h117z" />
    <glyph glyph-name="rcaron" unicode="&#x159;" horiz-adv-x="403" 
d="M413 435l-85 -60q-27 39 -72 39q-42 0 -67 -29.5t-25 -82.5v-302h-107v500h105v-45q34 54 112 54q92 0 139 -74zM389 700l-108 -142h-100l-108 142h102l56 -77l56 77h102z" />
    <glyph glyph-name="Sacute" unicode="&#x15a;" horiz-adv-x="573" 
d="M523 586l-88 -63q-29 40 -62.5 57.5t-86.5 17.5q-54 0 -83.5 -23.5t-29.5 -66.5q0 -46 34 -70.5t114 -42.5q112 -25 161.5 -71.5t49.5 -134.5q0 -84 -59 -141t-176 -57q-174 0 -258 113l91 63q34 -40 70 -57.5t91 -17.5q125 0 125 92q0 44 -33.5 70.5t-117.5 44.5
q-208 43 -208 209q0 87 59 139t171 52q162 0 236 -113zM322 744h-103l80 129h126z" />
    <glyph glyph-name="sacute" unicode="&#x15b;" horiz-adv-x="465" 
d="M413 426l-79 -57q-19 25 -43 35t-66 10q-78 0 -78 -51q0 -28 22.5 -42t72.5 -20q92 -10 137.5 -47.5t45.5 -110.5q0 -72 -49.5 -112t-142.5 -40q-139 0 -201 83l81 58q35 -47 119 -47q41 0 64 14.5t23 40.5q0 29 -21.5 42t-82.5 21q-175 22 -175 157q0 69 49 109t138 40
q133 0 186 -83zM263 567h-101l70 158h122z" />
    <glyph glyph-name="Scircumflex" unicode="&#x15c;" horiz-adv-x="573" 
d="M523 586l-88 -63q-29 40 -62.5 57.5t-86.5 17.5q-54 0 -83.5 -23.5t-29.5 -66.5q0 -46 34 -70.5t114 -42.5q112 -25 161.5 -71.5t49.5 -134.5q0 -84 -59 -141t-176 -57q-174 0 -258 113l91 63q34 -40 70 -57.5t91 -17.5q125 0 125 92q0 44 -33.5 70.5t-117.5 44.5
q-208 43 -208 209q0 87 59 139t171 52q162 0 236 -113zM103 738l138 142h100l138 -142h-117l-71 75l-71 -75h-117z" />
    <glyph glyph-name="scircumflex" unicode="&#x15d;" horiz-adv-x="465" 
d="M413 426l-79 -57q-19 25 -43 35t-66 10q-78 0 -78 -51q0 -28 22.5 -42t72.5 -20q92 -10 137.5 -47.5t45.5 -110.5q0 -72 -49.5 -112t-142.5 -40q-139 0 -201 83l81 58q35 -47 119 -47q41 0 64 14.5t23 40.5q0 29 -21.5 42t-82.5 21q-175 22 -175 157q0 69 49 109t138 40
q133 0 186 -83zM72 558l108 142h100l108 -142h-102l-56 77l-56 -77h-102z" />
    <glyph glyph-name="Scedilla" unicode="&#x15e;" horiz-adv-x="573" 
d="M244 -71l12 64q-144 11 -217 111l91 63q34 -40 70 -57.5t91 -17.5q125 0 125 92q0 44 -33.5 70.5t-117.5 44.5q-208 43 -208 209q0 87 59 139t171 52q162 0 236 -113l-88 -63q-29 40 -62.5 57.5t-86.5 17.5q-54 0 -83.5 -23.5t-29.5 -66.5q0 -46 34 -70.5t114 -42.5
q112 -25 161.5 -71.5t49.5 -134.5q0 -82 -53.5 -136t-152.5 -61l-4 -14q56 -21 56 -74q0 -38 -31.5 -60.5t-83.5 -22.5q-30 0 -42 3l14 59q4 -1 19 -1q39 0 39 24q0 23 -49 23z" />
    <glyph glyph-name="scedilla" unicode="&#x15f;" horiz-adv-x="465" 
d="M189 -71l12 63q-114 7 -169 82l81 58q35 -47 119 -47q41 0 64 14.5t23 40.5q0 29 -21.5 42t-82.5 21q-175 22 -175 157q0 69 49 109t138 40q133 0 186 -83l-79 -57q-19 25 -43 35t-66 10q-78 0 -78 -51q0 -28 22.5 -42t72.5 -20q92 -10 137.5 -47.5t45.5 -110.5
q0 -64 -39.5 -103t-114.5 -47l-4 -15q56 -21 56 -74q0 -38 -31.5 -60.5t-83.5 -22.5q-30 0 -42 3l14 59q4 -1 19 -1q39 0 39 24q0 23 -49 23z" />
    <glyph glyph-name="Scaron" unicode="&#x160;" horiz-adv-x="573" 
d="M523 586l-88 -63q-29 40 -62.5 57.5t-86.5 17.5q-54 0 -83.5 -23.5t-29.5 -66.5q0 -46 34 -70.5t114 -42.5q112 -25 161.5 -71.5t49.5 -134.5q0 -84 -59 -141t-176 -57q-174 0 -258 113l91 63q34 -40 70 -57.5t91 -17.5q125 0 125 92q0 44 -33.5 70.5t-117.5 44.5
q-208 43 -208 209q0 87 59 139t171 52q162 0 236 -113zM472 880l-138 -142h-100l-138 142h117l71 -75l71 75h117z" />
    <glyph glyph-name="scaron" unicode="&#x161;" horiz-adv-x="465" 
d="M413 426l-79 -57q-19 25 -43 35t-66 10q-78 0 -78 -51q0 -28 22.5 -42t72.5 -20q92 -10 137.5 -47.5t45.5 -110.5q0 -72 -49.5 -112t-142.5 -40q-139 0 -201 83l81 58q35 -47 119 -47q41 0 64 14.5t23 40.5q0 29 -21.5 42t-82.5 21q-175 22 -175 157q0 69 49 109t138 40
q133 0 186 -83zM388 700l-108 -142h-100l-108 142h102l56 -77l56 77h102z" />
    <glyph glyph-name="Tcedilla" unicode="&#x162;" horiz-adv-x="527" 
d="M214 -71l14 71h-22v589h-199v101h513v-101h-198v-589h-24l-6 -22q56 -21 56 -74q0 -38 -31.5 -60.5t-83.5 -22.5q-30 0 -42 3l14 59q4 -1 19 -1q39 0 39 24q0 23 -49 23z" />
    <glyph glyph-name="tcedilla" unicode="&#x163;" horiz-adv-x="324" 
d="M157 -71l15 78q-49 12 -70 47.5t-21 104.5v249h-64v92h64v110h106v-110h106v-92h-106v-229q0 -47 13 -65t52 -18h41v-96h-52l-6 -22q56 -21 56 -74q0 -38 -31.5 -60.5t-83.5 -22.5q-30 0 -42 3l14 59q4 -1 19 -1q39 0 39 24q0 23 -49 23z" />
    <glyph glyph-name="Tcaron" unicode="&#x164;" horiz-adv-x="527" 
d="M7 589v101h513v-101h-198v-589h-116v589h-199zM451 880l-138 -142h-100l-138 142h117l71 -75l71 75h117z" />
    <glyph glyph-name="tcaron" unicode="&#x165;" horiz-adv-x="369" 
d="M81 408h-64v92h64v110h106v-110h106v-92h-106v-229q0 -47 13 -65t52 -18h41v-96h-49q-90 0 -126.5 35.5t-36.5 123.5v249zM310 689h119v-114l-119 -102v216z" />
    <glyph glyph-name="Umacron" unicode="&#x16a;" horiz-adv-x="668" 
d="M476 279v411h116v-410q0 -144 -67.5 -216.5t-190.5 -72.5t-190.5 72t-67.5 216v411h116v-411q0 -97 34.5 -142t107.5 -45t107.5 45t34.5 142zM492 755h-317v94h317v-94z" />
    <glyph glyph-name="umacron" unicode="&#x16b;" horiz-adv-x="526" 
d="M362 500h106v-500h-105v45q-19 -29 -46.5 -41.5t-76.5 -12.5q-86 0 -134.5 49t-48.5 148v312h107v-301q0 -61 24 -87.5t72 -26.5q49 0 75.5 30t26.5 83v302zM402 585h-277v94h277v-94z" />
    <glyph glyph-name="Ubreve" unicode="&#x16c;" horiz-adv-x="668" 
d="M476 279v411h116v-410q0 -144 -67.5 -216.5t-190.5 -72.5t-190.5 72t-67.5 216v411h116v-411q0 -97 34.5 -142t107.5 -45t107.5 45t34.5 142zM426 879h97q0 -72 -51 -112t-137 -40t-137.5 40t-51.5 112h97q11 -63 92 -63q82 0 91 63z" />
    <glyph glyph-name="ubreve" unicode="&#x16d;" horiz-adv-x="526" 
d="M362 500h106v-500h-105v45q-19 -29 -46.5 -41.5t-76.5 -12.5q-86 0 -134.5 49t-48.5 148v312h107v-301q0 -61 24 -87.5t72 -26.5q49 0 75.5 30t26.5 83v302zM326 690h80q-2 -61 -39.5 -93.5t-103.5 -32.5q-67 0 -104.5 32.5t-39.5 93.5h81q6 -56 63 -56t63 56z" />
    <glyph glyph-name="Uring" unicode="&#x16e;" horiz-adv-x="668" 
d="M476 279v411h116v-410q0 -144 -67.5 -216.5t-190.5 -72.5t-190.5 72t-67.5 216v411h116v-411q0 -97 34.5 -142t107.5 -45t107.5 45t34.5 142zM221 800q0 44 32 71.5t81 27.5q51 0 82.5 -27t31.5 -72q0 -44 -31.5 -71t-82.5 -27q-49 0 -81 27t-32 71zM288 800
q0 -18 12.5 -28t33.5 -10q46 0 46 38t-46 38t-46 -38z" />
    <glyph glyph-name="uring" unicode="&#x16f;" horiz-adv-x="526" 
d="M362 500h106v-500h-105v45q-19 -29 -46.5 -41.5t-76.5 -12.5q-86 0 -134.5 49t-48.5 148v312h107v-301q0 -61 24 -87.5t72 -26.5q49 0 75.5 30t26.5 83v302zM180 568q-33 32 -33 78t33 78q34 32 84 32t84 -32q33 -32 33 -78t-33 -78q-32 -31 -84 -31t-84 31zM231 681
q-13 -13 -13 -35t13 -36t33 -14t33 14t13 36t-13 35q-13 14 -33 14t-33 -14z" />
    <glyph glyph-name="Uhungarumlaut" unicode="&#x170;" horiz-adv-x="668" 
d="M476 279v411h116v-410q0 -144 -67.5 -216.5t-190.5 -72.5t-190.5 72t-67.5 216v411h116v-411q0 -97 34.5 -142t107.5 -45t107.5 45t34.5 142zM282 744h-104l80 129h127zM470 744h-103l90 129h126z" />
    <glyph glyph-name="uhungarumlaut" unicode="&#x171;" horiz-adv-x="526" 
d="M362 500h106v-500h-105v45q-19 -29 -46.5 -41.5t-76.5 -12.5q-86 0 -134.5 49t-48.5 148v312h107v-301q0 -61 24 -87.5t72 -26.5q49 0 75.5 30t26.5 83v302zM227 567h-101l70 158h122zM392 567h-101l90 158h122z" />
    <glyph glyph-name="Uogonek" unicode="&#x172;" horiz-adv-x="668" 
d="M476 279v411h116v-410q0 -128 -54 -200t-152 -85q-45 -35 -45 -58q0 -25 35 -25q4 0 20 2l14 -59q-9 -4 -47 -4q-46 0 -76.5 19.5t-30.5 56.5q0 38 29 67q-101 13 -155 84.5t-54 200.5v411h116v-411q0 -97 34.5 -142t107.5 -45t107.5 45t34.5 142z" />
    <glyph glyph-name="uogonek" unicode="&#x173;" horiz-adv-x="526" 
d="M362 500h106v-497l1 -3q-30 -22 -42 -35.5t-12 -28.5q0 -25 35 -25q4 0 20 2l14 -59q-9 -4 -47 -4q-44 0 -75 19q-32 18 -32 57t33 74v45q-19 -29 -46.5 -41.5t-76.5 -12.5q-86 0 -134.5 49t-48.5 148v312h107v-301q0 -61 24 -87.5t72 -26.5q49 0 75.5 30t26.5 83v302z
" />
    <glyph glyph-name="Ydieresis" unicode="&#x178;" horiz-adv-x="571" 
d="M227 288l-215 402h135l138 -276l139 276h134l-215 -402v-288h-116v288zM236 764h-108v105h108v-105zM443 764h-109v105h109v-105z" />
    <glyph glyph-name="Zacute" unicode="&#x179;" 
d="M30 589v101h453v-77l-305 -513h315v-100h-463v77l305 512h-305zM297 744h-103l80 129h126z" />
    <glyph glyph-name="zacute" unicode="&#x17a;" horiz-adv-x="449" 
d="M35 0v77l239 331h-238v92h377v-77l-237 -331h241v-92h-382zM273 567h-101l70 158h122z" />
    <glyph glyph-name="Zdotaccent" unicode="&#x17b;" 
d="M30 589v101h453v-77l-305 -513h315v-100h-463v77l305 512h-305zM321 768h-118v101h118v-101z" />
    <glyph glyph-name="zdotaccent" unicode="&#x17c;" horiz-adv-x="449" 
d="M35 0v77l239 331h-238v92h377v-77l-237 -331h241v-92h-382zM289 581h-116v109h116v-109z" />
    <glyph glyph-name="Zcaron" unicode="&#x17d;" 
d="M30 589v101h453v-77l-305 -513h315v-100h-463v77l305 512h-305zM455 880l-138 -142h-100l-138 142h117l71 -75l71 75h117z" />
    <glyph glyph-name="zcaron" unicode="&#x17e;" horiz-adv-x="449" 
d="M35 0v77l239 331h-238v92h377v-77l-237 -331h241v-92h-382zM392 700l-108 -142h-100l-108 142h102l56 -77l56 77h102z" />
    <glyph glyph-name="uni018F" unicode="&#x18f;" horiz-adv-x="603" 
d="M48 301v58h396v30q0 108 -35 158.5t-107 50.5q-114 0 -138 -122h-112q16 108 80.5 165.5t169.5 57.5q124 0 191 -78.5t67 -236.5v-83q0 -154 -67.5 -232t-190.5 -78q-122 0 -188 77.5t-66 232.5zM302 92q65 0 99 39.5t41 126.5h-281q10 -166 141 -166z" />
    <glyph glyph-name="florin" unicode="&#x192;" horiz-adv-x="522" 
d="M128 399v101h64v31q0 87 38.5 123t129.5 36h31v-101h-21q-39 0 -52 -17t-13 -62v-10h86v-101h-86v-430q0 -86 -44 -122.5t-144 -36.5v101q44 0 59.5 18.5t15.5 62.5v407h-64z" />
    <glyph glyph-name="uni01DD" unicode="&#x1dd;" horiz-adv-x="487" 
d="M133 368l-80 56q49 85 179 85q104 0 161.5 -61t57.5 -165v-68q0 -110 -52 -167t-151 -57q-202 0 -202 230v55h299v2q0 65 -27 102t-82 37q-41 0 -64 -11.5t-39 -37.5zM248 84q88 0 96 110h-191q6 -110 95 -110z" />
    <glyph glyph-name="Scommaaccent" unicode="&#x218;" horiz-adv-x="573" 
d="M523 586l-88 -63q-29 40 -62.5 57.5t-86.5 17.5q-54 0 -83.5 -23.5t-29.5 -66.5q0 -46 34 -70.5t114 -42.5q112 -25 161.5 -71.5t49.5 -134.5q0 -84 -59 -141t-176 -57q-174 0 -258 113l91 63q34 -40 70 -57.5t91 -17.5q125 0 125 92q0 44 -33.5 70.5t-117.5 44.5
q-208 43 -208 209q0 87 59 139t171 52q162 0 236 -113zM243 -57h118v-114l-118 -102v216z" />
    <glyph glyph-name="scommaaccent" unicode="&#x219;" horiz-adv-x="465" 
d="M413 426l-79 -57q-19 25 -43 35t-66 10q-78 0 -78 -51q0 -28 22.5 -42t72.5 -20q92 -10 137.5 -47.5t45.5 -110.5q0 -72 -49.5 -112t-142.5 -40q-139 0 -201 83l81 58q35 -47 119 -47q41 0 64 14.5t23 40.5q0 29 -21.5 42t-82.5 21q-175 22 -175 157q0 69 49 109t138 40
q133 0 186 -83zM177 -57h119v-114l-119 -102v216z" />
    <glyph glyph-name="Tcommaaccent" unicode="&#x21a;" horiz-adv-x="527" 
d="M7 589v101h513v-101h-198v-589h-116v589h-199zM204 -57h119v-114l-119 -102v216z" />
    <glyph glyph-name="tcommaaccent" unicode="&#x21b;" horiz-adv-x="324" 
d="M81 408h-64v92h64v110h106v-110h106v-92h-106v-229q0 -47 13 -65t52 -18h41v-96h-49q-90 0 -126.5 35.5t-36.5 123.5v249zM131 -57h119v-114l-119 -102v216z" />
    <glyph glyph-name="uni0237" unicode="&#x237;" horiz-adv-x="244" 
d="M75 500h106v-531q0 -87 -41.5 -123t-139.5 -36v94q44 0 59.5 19.5t15.5 64.5v512z" />
    <glyph glyph-name="uni0259" unicode="&#x259;" horiz-adv-x="487" 
d="M133 368l-80 56q49 85 179 85q104 0 161.5 -61t57.5 -165v-68q0 -110 -52 -167t-151 -57q-202 0 -202 230v55h299v2q0 65 -27 102t-82 37q-41 0 -64 -11.5t-39 -37.5zM248 84q88 0 96 110h-191q6 -110 95 -110z" />
    <glyph glyph-name="afii57929" unicode="&#x2bc;" horiz-adv-x="170" 
d="M35 500h118v-146l-118 -102v248z" />
    <glyph glyph-name="circumflex" unicode="&#x2c6;" horiz-adv-x="411" 
d="M47 558l108 142h100l108 -142h-102l-56 77l-56 -77h-102z" />
    <glyph glyph-name="caron" unicode="&#x2c7;" horiz-adv-x="411" 
d="M363 700l-108 -142h-100l-108 142h102l56 -77l56 77h102z" />
    <glyph glyph-name="breve" unicode="&#x2d8;" horiz-adv-x="406" 
d="M266 690h80q-2 -61 -39.5 -93.5t-103.5 -32.5q-67 0 -104.5 32.5t-39.5 93.5h81q6 -56 63 -56t63 56z" />
    <glyph glyph-name="dotaccent" unicode="&#x2d9;" horiz-adv-x="315" 
d="M215 581h-116v109h116v-109z" />
    <glyph glyph-name="ring" unicode="&#x2da;" horiz-adv-x="380" 
d="M106 568q-33 32 -33 78t33 78q34 32 84 32t84 -32q33 -32 33 -78t-33 -78q-32 -31 -84 -31t-84 31zM157 681q-13 -13 -13 -35t13 -36t33 -14t33 14t13 36t-13 35q-13 14 -33 14t-33 -14z" />
    <glyph glyph-name="ogonek" unicode="&#x2db;" horiz-adv-x="339" 
d="M216 54l15 -54q-30 -22 -42 -35.5t-12 -28.5q0 -25 35 -25q4 0 20 2l14 -59q-9 -4 -47 -4q-46 0 -76.5 19.5t-30.5 56.5q0 39 29.5 68.5t94.5 59.5z" />
    <glyph glyph-name="tilde" unicode="&#x2dc;" horiz-adv-x="429" 
d="M274 572q-23 0 -62 14t-54 14q-30 0 -56 -27l-58 59q47 56 112 56q22 0 60 -15q39 -14 57 -14q27 0 53 27l58 -58q-44 -56 -110 -56z" />
    <glyph glyph-name="hungarumlaut" unicode="&#x2dd;" horiz-adv-x="482" 
d="M153 567h-101l70 158h122zM318 567h-101l90 158h122z" />
    <glyph glyph-name="acutecomb" unicode="&#x301;" horiz-adv-x="0" 
d="M-190 567h-101l70 158h122z" />
    <glyph glyph-name="uni0394" unicode="&#x2206;" horiz-adv-x="564" 
d="M344 690l200 -690h-524l199 690h125zM167 100h229l-115 437z" />
    <glyph glyph-name="uni0394" unicode="&#x394;" horiz-adv-x="564" 
d="M344 690l200 -690h-524l199 690h125zM167 100h229l-115 437z" />
    <glyph glyph-name="uni03A9" unicode="&#x2126;" horiz-adv-x="625" 
d="M502 100h69v-100h-200v100q42 24 63 67q21 44 21 137v85q0 108 -35 158.5t-107 50.5t-107.5 -50.5t-35.5 -158.5v-85q0 -94 21 -137q23 -45 63 -67v-100h-200v100h69q-37 37 -53 83.5t-16 120.5v85q0 154 68 232t191 78t190.5 -78t67.5 -232v-85q0 -74 -16 -120.5
t-53 -83.5z" />
    <glyph glyph-name="uni03A9" unicode="&#x3a9;" horiz-adv-x="625" 
d="M502 100h69v-100h-200v100q42 24 63 67q21 44 21 137v85q0 108 -35 158.5t-107 50.5t-107.5 -50.5t-35.5 -158.5v-85q0 -94 21 -137q23 -45 63 -67v-100h-200v100h69q-37 37 -53 83.5t-16 120.5v85q0 154 68 232t191 78t190.5 -78t67.5 -232v-85q0 -74 -16 -120.5
t-53 -83.5z" />
    <glyph glyph-name="pi" unicode="&#x3c0;" horiz-adv-x="572" 
d="M362 157v251h-192v-408h-103v408h-79v92h557v-92h-76v-226q0 -47 16 -67.5t60 -20.5v-94q-99 0 -141 35.5t-42 121.5z" />
    <glyph glyph-name="afii10023" unicode="&#x401;" horiz-adv-x="533" 
d="M76 0v690h423v-101h-307v-182h277v-100h-277v-207h307v-100h-423zM236 764h-108v105h108v-105zM443 764h-109v105h109v-105z" />
    <glyph glyph-name="afii10051" unicode="&#x402;" horiz-adv-x="727" 
d="M1 589v101h514v-101h-199v-204q20 19 62 33t88 14q117 0 169 -54t52 -171v-46q0 -83 -41 -124q-16 -16 -44 -25q-39 -12 -97 -12h-26v97h26q35 0 50.5 18.5t15.5 58.5v28q0 71 -30.5 100t-98.5 29q-86 0 -126 -57v-274h-116v589h-199z" />
    <glyph glyph-name="afii10052" unicode="&#x403;" horiz-adv-x="487" 
d="M76 690h411v-101h-295v-589h-116v690zM321 744h-103l80 129h126z" />
    <glyph glyph-name="afii10053" unicode="&#x404;" horiz-adv-x="582" 
d="M555 476h-112q-26 122 -139 122q-141 0 -142 -201h232v-100h-232q1 -205 142 -205q59 0 92 29.5t47 92.5h111q-33 -223 -250 -223q-123 0 -190.5 78t-67.5 232v88q0 154 67.5 232t190.5 78q105 0 169.5 -56.5t81.5 -166.5z" />
    <glyph glyph-name="afii10054" unicode="&#x405;" horiz-adv-x="573" 
d="M523 586l-88 -63q-29 40 -62.5 57.5t-86.5 17.5q-54 0 -83.5 -23.5t-29.5 -66.5q0 -46 34 -70.5t114 -42.5q112 -25 161.5 -71.5t49.5 -134.5q0 -84 -59 -141t-176 -57q-174 0 -258 113l91 63q34 -40 70 -57.5t91 -17.5q125 0 125 92q0 44 -33.5 70.5t-117.5 44.5
q-208 43 -208 209q0 87 59 139t171 52q162 0 236 -113z" />
    <glyph glyph-name="afii10055" unicode="&#x406;" horiz-adv-x="287" 
d="M86 690h116v-690h-116v690zM203 768h-118v101h118v-101z" />
    <glyph glyph-name="afii10056" unicode="&#x407;" horiz-adv-x="287" 
d="M86 690h116v-690h-116v690zM94 764h-108v105h108v-105zM301 764h-109v105h109v-105z" />
    <glyph glyph-name="afii10057" unicode="&#x408;" horiz-adv-x="509" 
d="M-3 87l97 55q38 -50 101 -50q64 0 93 41.5t29 139.5v417h116v-417q0 -282 -233 -282q-138 0 -203 96z" />
    <glyph glyph-name="afii10058" unicode="&#x409;" horiz-adv-x="980" 
d="M133 510v180h440v-262h125q127 0 188 -61t61 -153t-61 -153t-188 -61h-241v589h-208v-79q0 -159 -8 -249q-8 -84 -27 -133q-23 -59 -71 -92t-127 -45v125q71 14 92 70q25 65 25 324zM694 328h-121v-228h121q137 0 137 114q0 54 -34.5 84t-102.5 30z" />
    <glyph glyph-name="afii10059" unicode="&#x40a;" horiz-adv-x="978" 
d="M76 690h116v-283h264v283h116v-262h125q126 0 187 -61q62 -62 62 -153t-62 -153q-61 -61 -187 -61h-241v307h-264v-307h-116v690zM692 328h-120v-228h120q68 0 103 30t35 84t-35 84t-103 30z" />
    <glyph glyph-name="afii10060" unicode="&#x40b;" horiz-adv-x="733" 
d="M7 589v101h513v-101h-198v-204q21 19 62 33t88 14q117 0 168.5 -54t51.5 -171v-207h-116v202q0 71 -30 100t-99 29q-85 0 -125 -57v-274h-116v589h-199z" />
    <glyph glyph-name="afii10061" unicode="&#x40c;" horiz-adv-x="614" 
d="M368 353l234 -353h-138l-196 297h-76v-297h-116v690h116v-293h73l172 293h128zM341 744h-103l80 129h126z" />
    <glyph glyph-name="afii10062" unicode="&#x40e;" horiz-adv-x="580" 
d="M309 308l145 382h120l-222 -561q-32 -80 -80 -109q-49 -29 -146 -29v103q57 0 83 12q27 14 43 54l-236 530h127zM373 879h107q0 -147 -183 -147q-184 0 -184 147h108q0 -70 76 -70t76 70z" />
    <glyph glyph-name="afii10145" unicode="&#x40f;" horiz-adv-x="638" 
d="M381 0v-130h-108v130h-197v690h116v-590h270v590h116v-690h-197z" />
    <glyph glyph-name="afii10017" unicode="&#x410;" horiz-adv-x="595" 
d="M173 143l-47 -143h-124l240 690h110l240 -690h-123l-47 143h-249zM389 243l-92 279l-92 -279h184z" />
    <glyph glyph-name="afii10018" unicode="&#x411;" horiz-adv-x="596" 
d="M76 690h442v-101h-326v-161h124q127 0 188 -61t61 -153t-61 -153t-188 -61h-240v690zM312 328h-120v-228h120q137 0 137 114q0 54 -34.5 84t-102.5 30z" />
    <glyph glyph-name="afii10019" unicode="&#x412;" horiz-adv-x="602" 
d="M76 0v690h222q245 0 245 -179q0 -53 -27.5 -93t-73.5 -57q123 -35 123 -163q0 -86 -60 -142q-59 -56 -185 -56h-244zM299 308h-107v-208h121q136 0 136 104q0 54 -36.5 79t-113.5 25zM290 590h-98v-182h113q122 0 122 96q0 46 -30.5 66t-106.5 20z" />
    <glyph glyph-name="afii10020" unicode="&#x413;" horiz-adv-x="487" 
d="M76 690h411v-101h-295v-589h-116v690z" />
    <glyph glyph-name="afii10021" unicode="&#x414;" horiz-adv-x="683" 
d="M118 0v-130h-108v230h39q34 29 56 100q32 101 32 317v173h440v-590h86v-230h-108v130h-437zM211 156q-10 -28 -28 -56h278v489h-208v-72q0 -241 -42 -361z" />
    <glyph glyph-name="afii10022" unicode="&#x415;" horiz-adv-x="533" 
d="M76 0v690h423v-101h-307v-182h277v-100h-277v-207h307v-100h-423z" />
    <glyph glyph-name="afii10024" unicode="&#x416;" horiz-adv-x="890" 
d="M316 297l-177 -297h-133l209 349l-172 341h124l145 -293h75v293h116v-293h75l145 293h124l-172 -341l209 -349h-133l-177 297h-71v-297h-116v297h-71z" />
    <glyph glyph-name="afii10025" unicode="&#x417;" horiz-adv-x="577" 
d="M276 308h-65v100h70q122 0 122 99q0 92 -113 92q-55 0 -86.5 -22.5t-49.5 -71.5h-104q11 89 79 141q71 53 162 53q102 0 164 -49q64 -48 64 -136q0 -101 -101 -151q57 -18 90 -62t33 -103q0 -91 -64 -149t-183 -58q-219 0 -261 204h112q24 -55 56.5 -79t89.5 -24
q134 0 134 109q0 107 -149 107z" />
    <glyph glyph-name="afii10026" unicode="&#x418;" horiz-adv-x="667" 
d="M76 0v690h116v-471l305 471h95v-690h-116v466l-304 -466h-96z" />
    <glyph glyph-name="afii10027" unicode="&#x419;" horiz-adv-x="667" 
d="M76 0v690h116v-471l305 471h95v-690h-116v466l-304 -466h-96zM419 879h107q0 -147 -183 -147q-184 0 -184 147h108q0 -70 76 -70t76 70z" />
    <glyph glyph-name="afii10028" unicode="&#x41a;" horiz-adv-x="614" 
d="M368 353l234 -353h-138l-196 297h-76v-297h-116v690h116v-293h73l172 293h128z" />
    <glyph glyph-name="afii10029" unicode="&#x41b;" horiz-adv-x="649" 
d="M133 510v180h440v-690h-116v589h-208v-79q0 -159 -8 -249q-8 -84 -27 -133q-23 -59 -71 -92t-127 -45v125q71 14 92 70q25 65 25 324z" />
    <glyph glyph-name="afii10030" unicode="&#x41c;" horiz-adv-x="771" 
d="M76 690h110l199 -400l199 400h111v-690h-112v462l-158 -329h-82l-155 326v-459h-112v690z" />
    <glyph glyph-name="afii10031" unicode="&#x41d;" horiz-adv-x="648" 
d="M76 690h116v-283h264v283h116v-690h-116v307h-264v-307h-116v690z" />
    <glyph glyph-name="afii10032" unicode="&#x41e;" horiz-adv-x="613" 
d="M565 389v-88q0 -154 -68 -232t-191 -78t-190.5 78t-67.5 232v88q0 154 67.5 232t190.5 78t191 -78t68 -232zM164 389v-88q0 -108 35 -158.5t107 -50.5t107.5 50.5t35.5 158.5v88q0 108 -35.5 158.5t-107.5 50.5t-107 -50.5t-35 -158.5z" />
    <glyph glyph-name="afii10033" unicode="&#x41f;" horiz-adv-x="654" 
d="M76 0v690h502v-690h-116v589h-270v-589h-116z" />
    <glyph glyph-name="afii10034" unicode="&#x420;" horiz-adv-x="589" 
d="M311 252h-119v-252h-116v690h235q121 0 187.5 -56.5t66.5 -161.5t-67 -162.5t-187 -57.5zM192 589v-237h107q150 0 150 120q0 117 -150 117h-107z" />
    <glyph glyph-name="afii10035" unicode="&#x421;" horiz-adv-x="587" 
d="M557 476h-112q-26 122 -139 122q-72 0 -107 -50.5t-35 -158.5v-88q0 -209 142 -209q59 0 92 29.5t47 92.5h111q-33 -223 -250 -223q-123 0 -190.5 78t-67.5 232v88q0 154 67.5 232t190.5 78q105 0 169.5 -56.5t81.5 -166.5z" />
    <glyph glyph-name="afii10036" unicode="&#x422;" horiz-adv-x="527" 
d="M7 589v101h513v-101h-198v-589h-116v589h-199z" />
    <glyph glyph-name="afii10037" unicode="&#x423;" horiz-adv-x="580" 
d="M309 308l145 382h120l-222 -561q-32 -80 -80 -109q-49 -29 -146 -29v103q57 0 83 12q27 14 43 54l-236 530h127z" />
    <glyph glyph-name="afii10038" unicode="&#x424;" horiz-adv-x="768" 
d="M326 638v52h116v-52q280 0 280 -277v-32q0 -277 -280 -277v-52h-116v52q-280 0 -280 277v32q0 277 280 277zM442 538v-386q84 0 124 40t40 137v32q0 97 -40 137t-124 40zM162 361v-32q0 -97 40 -137t124 -40v386q-84 0 -124 -40t-40 -137z" />
    <glyph glyph-name="afii10039" unicode="&#x425;" horiz-adv-x="574" 
d="M287 251l-144 -251h-127l199 356l-178 334h127l123 -236l124 236h126l-179 -334l200 -356h-126z" />
    <glyph glyph-name="afii10040" unicode="&#x426;" horiz-adv-x="685" 
d="M76 690h116v-590h270v590h116v-590h94v-230h-109v130h-487v690z" />
    <glyph glyph-name="afii10041" unicode="&#x427;" horiz-adv-x="594" 
d="M27 690h116v-199q0 -80 30 -112t106 -32q96 0 123 51v292h116v-690h-116v283q-44 -36 -144 -36q-129 0 -180 57t-51 187v199z" />
    <glyph glyph-name="afii10042" unicode="&#x428;" horiz-adv-x="902" 
d="M76 690h116v-590h201v590h116v-590h201v590h116v-690h-750v690z" />
    <glyph glyph-name="afii10043" unicode="&#x429;" horiz-adv-x="934" 
d="M76 690h116v-590h201v590h116v-590h201v590h116v-590h93v-230h-108v130h-735v690z" />
    <glyph glyph-name="afii10044" unicode="&#x42a;" horiz-adv-x="651" 
d="M-24 589v101h269v-262h125q126 0 187 -61q62 -62 62 -153t-62 -153q-61 -61 -187 -61h-241v589h-153zM366 328h-121v-228h121q68 0 102.5 30t34.5 84t-34.5 84t-102.5 30z" />
    <glyph glyph-name="afii10045" unicode="&#x42b;" horiz-adv-x="798" 
d="M76 0v690h116v-262h105q127 0 188 -61q62 -62 62 -153q0 -92 -63 -153q-61 -61 -194 -61h-214zM607 690h116v-690h-116v690zM293 328h-101v-228h101q68 0 103 30t35 84t-35 84t-103 30z" />
    <glyph glyph-name="afii10046" unicode="&#x42c;" horiz-adv-x="598" 
d="M76 0v690h116v-262h124q127 0 188 -61t61 -153t-61 -153t-188 -61h-240zM312 328h-120v-228h120q137 0 137 114q0 54 -34.5 84t-102.5 30z" />
    <glyph glyph-name="afii10047" unicode="&#x42d;" horiz-adv-x="587" 
d="M422 297h-231v100h231q-1 201 -142 201q-112 0 -138 -122h-112q16 110 80.5 166.5t169.5 56.5q123 0 190.5 -78t67.5 -232v-88q0 -154 -67.5 -232t-190.5 -78q-218 0 -249 223h111q14 -63 47 -92.5t91 -29.5q141 0 142 205z" />
    <glyph glyph-name="afii10048" unicode="&#x42e;" horiz-adv-x="818" 
d="M770 384v-78q0 -315 -241 -315q-242 0 -242 316h-95v-307h-116v690h116v-283h95q9 292 242 292q241 0 241 -315zM403 380v-70q0 -115 29.5 -166.5t96.5 -51.5q66 0 95.5 51.5t29.5 166.5v70q0 114 -29.5 166t-95.5 52q-67 0 -96.5 -52t-29.5 -166z" />
    <glyph glyph-name="afii10049" unicode="&#x42f;" horiz-adv-x="610" 
d="M299 280l-155 -280h-128l168 294q-140 42 -140 191q0 100 66.5 152.5t189.5 52.5h234v-690h-116v280h-119zM306 380h112v209h-112q-77 0 -111.5 -24t-34.5 -80t33.5 -80.5t112.5 -24.5z" />
    <glyph glyph-name="afii10065" unicode="&#x430;" horiz-adv-x="488" 
d="M32 147q0 74 48.5 111t137.5 37h108v42q0 47 -21 63.5t-78 16.5q-44 0 -66 -9t-39 -36l-77 54q27 44 71 63.5t118 19.5q103 0 150 -39.5t47 -133.5v-336h-105v46q-18 -30 -44.5 -42.5t-71.5 -12.5q-84 0 -131 41t-47 115zM326 189v24h-100q-89 0 -89 -66q0 -65 85 -65
q55 0 79.5 23.5t24.5 83.5z" />
    <glyph glyph-name="afii10066" unicode="&#x431;" horiz-adv-x="500" 
d="M401 722l57 -71q-23 -45 -93 -50l-94 -6q-77 -5 -105 -53q-13 -22 -20 -77q47 44 118 44q95 0 147 -58t52 -166v-68q0 -105 -54 -165.5t-158 -60.5q-102 0 -157.5 60t-55.5 166v65q0 218 44 308q46 92 166 100l100 7q34 1 53 25zM251 83q53 0 79.5 37t26.5 102v63
q0 63 -27 97t-79 34q-53 0 -80 -34t-27 -97v-63q0 -139 107 -139z" />
    <glyph glyph-name="afii10067" unicode="&#x432;" horiz-adv-x="495" 
d="M57 0v500h194q88 0 135 -33t47 -96q0 -34 -18.5 -60t-47.5 -39q43 -13 69 -47t26 -81q0 -64 -47.5 -104t-139.5 -40h-218zM244 218h-80v-131h90q92 0 92 66q0 35 -23.5 50t-78.5 15zM227 413h-63v-111h71q82 0 82 56q0 55 -90 55z" />
    <glyph glyph-name="afii10068" unicode="&#x433;" horiz-adv-x="367" 
d="M57 500h320v-92h-213v-408h-107v500z" />
    <glyph glyph-name="afii10069" unicode="&#x434;" horiz-adv-x="553" 
d="M115 0v-117h-101v209h39q19 15 39 62q23 60 23 224v122h352v-408h68v-209h-100v117h-320zM181 106q-3 -9 -8 -14h188v316h-143v-47q0 -181 -37 -255z" />
    <glyph glyph-name="afii10070" unicode="&#x435;" horiz-adv-x="487" 
d="M354 132l80 -56q-49 -85 -179 -85q-104 0 -161.5 61t-57.5 165v68q0 110 52 167t151 57q202 0 202 -230v-55h-299v-2q0 -65 27 -102t82 -37q41 0 64 11.5t39 37.5zM239 416q-88 0 -96 -110h191q-6 110 -95 110z" />
    <glyph glyph-name="afii10072" unicode="&#x436;" horiz-adv-x="681" 
d="M446 297l97 203h113l-117 -243l138 -257h-121l-107 207h-55v-207h-107v207h-55l-107 -207h-121l138 257l-117 243h113l96 -203h53v203h107v-203h52z" />
    <glyph glyph-name="afii10073" unicode="&#x437;" horiz-adv-x="451" 
d="M183 218h-46v84h49q89 0 89 63q0 26 -19.5 41t-56.5 15q-57 0 -99 -45l-76 54q64 79 187 79q83 0 131.5 -35.5t48.5 -92.5q0 -78 -73 -112q43 -15 67.5 -48t24.5 -80q0 -67 -51.5 -108.5t-145.5 -41.5q-139 0 -195 86l73 55q38 -53 115 -53q41 0 64.5 19.5t23.5 52.5
q0 67 -111 67z" />
    <glyph glyph-name="afii10074" unicode="&#x438;" horiz-adv-x="534" 
d="M57 500h107v-312l216 312h96v-500h-106v321l-219 -321h-94v500z" />
    <glyph glyph-name="afii10075" unicode="&#x439;" horiz-adv-x="534" 
d="M57 500h107v-312l216 312h96v-500h-106v321l-219 -321h-94v500zM322 690h89q0 -124 -146 -124q-70 0 -108.5 31t-38.5 93h90q0 -58 57 -58t57 58z" />
    <glyph glyph-name="afii10076" unicode="&#x43a;" horiz-adv-x="482" 
d="M217 297l125 203h120l-149 -242l164 -258h-125l-131 207h-57v-207h-107v500h107v-203h53z" />
    <glyph glyph-name="afii10077" unicode="&#x43b;" horiz-adv-x="515" 
d="M99 319v181h359v-500h-107v408h-149v-134q0 -122 -29 -188q-42 -91 -160 -98v98q53 15 71 64q15 43 15 169z" />
    <glyph glyph-name="afii10078" unicode="&#x43c;" horiz-adv-x="636" 
d="M57 500h97l164 -290l164 290h96v-500h-106v298l-119 -214h-77l-112 211v-295h-107v500z" />
    <glyph glyph-name="afii10079" unicode="&#x43d;" horiz-adv-x="520" 
d="M57 500h107v-199h192v199h106v-500h-106v209h-192v-209h-107v500z" />
    <glyph glyph-name="afii10080" unicode="&#x43e;" horiz-adv-x="497" 
d="M461 282v-63q0 -107 -54 -167.5t-158 -60.5q-102 0 -157.5 60.5t-55.5 167.5v63q0 110 55.5 168.5t157.5 58.5t157 -58.5t55 -168.5zM249 83q53 0 79.5 37t26.5 102v58q0 136 -106 136q-107 0 -107 -136v-58q0 -139 107 -139z" />
    <glyph glyph-name="afii10081" unicode="&#x43f;" horiz-adv-x="520" 
d="M57 0v500h405v-500h-106v408h-192v-408h-107z" />
    <glyph glyph-name="afii10082" unicode="&#x440;" 
d="M482 285v-68q0 -104 -51.5 -165t-145.5 -61q-83 0 -121 41v-222h-107v690h107v-40q40 49 122 49q91 0 143.5 -59.5t52.5 -164.5zM270 83q53 0 79.5 37t26.5 102v58q0 136 -106 136q-105 0 -106 -130v-64q0 -139 106 -139z" />
    <glyph glyph-name="afii10083" unicode="&#x441;" horiz-adv-x="445" 
d="M353 132l81 -56q-48 -85 -178 -85q-103 0 -161.5 61t-58.5 165v68q0 108 58.5 166t165.5 58q122 0 174 -81l-82 -57q-32 45 -94 45q-116 0 -116 -136v-58q0 -139 116 -139q68 0 95 49z" />
    <glyph glyph-name="afii10084" unicode="&#x442;" horiz-adv-x="414" 
d="M0 408v92h414v-92h-154v-408h-106v408h-154z" />
    <glyph glyph-name="afii10085" unicode="&#x443;" horiz-adv-x="473" 
d="M196 -6l-191 506h113l127 -352l114 352h110l-176 -520q-21 -64 -46 -102q-47 -68 -174 -68v98q55 0 80 16t43 70z" />
    <glyph glyph-name="afii10086" unicode="&#x444;" horiz-adv-x="676" 
d="M285 690h106v-181q123 0 185.5 -57t62.5 -167v-68q0 -109 -63 -167.5t-185 -58.5v-181h-106v181q-122 0 -185.5 58.5t-63.5 167.5v68q0 110 63 167t186 57v181zM142 281v-61q0 -137 143 -137v333q-143 0 -143 -135zM533 220v61q0 70 -35 102.5t-107 32.5v-333
q74 0 108 34t34 103z" />
    <glyph glyph-name="afii10087" unicode="&#x445;" horiz-adv-x="485" 
d="M304 256l173 -256h-121l-114 167l-114 -167h-120l172 256l-156 244h121l97 -158l98 158h120z" />
    <glyph glyph-name="afii10088" unicode="&#x446;" horiz-adv-x="548" 
d="M530 92v-209h-100v117h-373v500h107v-408h192v408h106v-408h68z" />
    <glyph glyph-name="afii10089" unicode="&#x447;" horiz-adv-x="475" 
d="M34 500h106v-134q0 -55 22 -76.5t67 -21.5q61 0 82 40v192h107v-500h-107v200q-31 -27 -99 -27q-88 0 -133 42.5t-45 140.5v144z" />
    <glyph glyph-name="afii10090" unicode="&#x448;" horiz-adv-x="730" 
d="M673 500v-500h-616v500h107v-408h148v408h106v-408h148v408h107z" />
    <glyph glyph-name="afii10091" unicode="&#x449;" horiz-adv-x="759" 
d="M740 92v-209h-100v117h-583v500h107v-408h148v408h106v-408h148v408h107v-408h67z" />
    <glyph glyph-name="afii10092" unicode="&#x44a;" horiz-adv-x="540" 
d="M-16 408v92h235v-181h88q210 0 210 -158q0 -76 -49 -118.5t-143 -42.5h-213v408h-128zM301 227h-82v-135h94q88 0 88 70q0 33 -23.5 49t-76.5 16z" />
    <glyph glyph-name="afii10093" unicode="&#x44b;" horiz-adv-x="651" 
d="M57 0v500h107v-181h62q210 0 210 -158q0 -77 -49.5 -119t-142.5 -42h-187zM487 0v500h106v-500h-106zM219 227h-55v-135h67q89 0 89 70q0 33 -24 49t-77 16z" />
    <glyph glyph-name="afii10094" unicode="&#x44c;" horiz-adv-x="485" 
d="M57 0v500h107v-181h88q210 0 210 -158q0 -76 -49 -118.5t-143 -42.5h-213zM246 227h-82v-135h94q88 0 88 70q0 33 -23.5 49t-76.5 16z" />
    <glyph glyph-name="afii10095" unicode="&#x44d;" horiz-adv-x="454" 
d="M312 210h-175v87h175q-2 57 -31 88t-83 31q-64 0 -95 -45l-81 57q60 81 173 81q108 0 165.5 -58t57.5 -166v-68q0 -106 -58 -166t-165 -60q-126 0 -174 85l79 56q28 -49 98 -49q113 0 114 127z" />
    <glyph glyph-name="afii10096" unicode="&#x44e;" horiz-adv-x="679" 
d="M643 285v-68q0 -106 -51 -166t-148 -60q-93 0 -145.5 57t-53.5 161h-81v-209h-107v500h107v-199h81q4 101 56 154.5t143 53.5q96 0 147.5 -58t51.5 -166zM444 83q93 0 93 138v60q0 135 -93 135q-92 0 -92 -135v-60q0 -138 92 -138z" />
    <glyph glyph-name="afii10097" unicode="&#x44f;" horiz-adv-x="500" 
d="M442 500v-500h-106v184h-82l-113 -184h-115l124 201q-102 37 -102 147q0 69 50 110.5t148 41.5h196zM263 275h73v133h-82q-90 0 -90 -64q0 -36 23.5 -52.5t75.5 -16.5z" />
    <glyph glyph-name="afii10071" unicode="&#x451;" horiz-adv-x="487" 
d="M354 132l80 -56q-49 -85 -179 -85q-104 0 -161.5 61t-57.5 165v68q0 110 52 167t151 57q202 0 202 -230v-55h-299v-2q0 -65 27 -102t82 -37q41 0 64 11.5t39 37.5zM239 416q-88 0 -96 -110h191q-6 110 -95 110zM187 585h-109v105h109v-105zM393 585h-108v105h108v-105z
" />
    <glyph glyph-name="afii10099" unicode="&#x452;" horiz-adv-x="526" 
d="M65 547h-94v87h94v56h106v-56h150v-87h-150v-122q36 51 122 51q87 0 135 -48.5t48 -147.5v-311q0 -83 -39.5 -121t-122.5 -38h-13v93h12q30 0 43.5 14.5t13.5 51.5v299q0 114 -96 114q-48 0 -75.5 -30.5t-27.5 -82.5v-269h-106v547z" />
    <glyph glyph-name="afii10100" unicode="&#x453;" horiz-adv-x="367" 
d="M57 500h320v-92h-213v-408h-107v500zM254 567h-101l70 158h122z" />
    <glyph glyph-name="afii10101" unicode="&#x454;" horiz-adv-x="459" 
d="M136 297h175v-87h-175q1 -127 114 -127q70 0 98 49l80 -56q-49 -85 -175 -85q-107 0 -165 60t-58 166v68q0 108 57.5 166t165.5 58q115 0 173 -81l-81 -57q-31 45 -95 45q-54 0 -83 -31t-31 -88z" />
    <glyph glyph-name="afii10102" unicode="&#x455;" horiz-adv-x="465" 
d="M413 426l-79 -57q-19 25 -43 35t-66 10q-78 0 -78 -51q0 -28 22.5 -42t72.5 -20q92 -10 137.5 -47.5t45.5 -110.5q0 -72 -49.5 -112t-142.5 -40q-139 0 -201 83l81 58q35 -47 119 -47q41 0 64 14.5t23 40.5q0 29 -21.5 42t-82.5 21q-175 22 -175 157q0 69 49 109t138 40
q133 0 186 -83z" />
    <glyph glyph-name="afii10103" unicode="&#x456;" horiz-adv-x="251" 
d="M179 0h-107v500h107v-500zM184 581h-117v109h117v-109z" />
    <glyph glyph-name="afii10104" unicode="&#x457;" horiz-adv-x="251" 
d="M179 0h-107v500h107v-500zM72 585h-109v105h109v-105zM278 585h-108v105h108v-105z" />
    <glyph glyph-name="afii10105" unicode="&#x458;" horiz-adv-x="244" 
d="M75 500h106v-531q0 -87 -41.5 -123t-139.5 -36v94q44 0 59.5 19.5t15.5 64.5v512zM186 581h-116v109h116v-109z" />
    <glyph glyph-name="afii10106" unicode="&#x459;" horiz-adv-x="779" 
d="M99 319v181h359v-181h88q210 0 210 -158q0 -76 -49 -118.5t-143 -42.5h-213v408h-149v-134q0 -122 -29 -188q-42 -91 -160 -98v98q53 15 71 64q15 43 15 169zM540 227h-82v-135h94q88 0 88 70q0 33 -23.5 49t-76.5 16z" />
    <glyph glyph-name="afii10107" unicode="&#x45a;" horiz-adv-x="784" 
d="M57 500h107v-199h192v199h106v-181h89q210 0 210 -158q0 -76 -49 -118.5t-144 -42.5h-212v209h-192v-209h-107v500zM544 227h-82v-135h94q89 0 89 70q0 33 -24 49t-77 16z" />
    <glyph glyph-name="afii10108" unicode="&#x45b;" horiz-adv-x="526" 
d="M65 547h-94v87h94v56h106v-56h150v-87h-150v-122q36 51 122 51q87 0 135 -48.5t48 -147.5v-280h-106v268q0 114 -96 114q-48 0 -75.5 -30.5t-27.5 -82.5v-269h-106v547z" />
    <glyph glyph-name="afii10109" unicode="&#x45c;" horiz-adv-x="482" 
d="M217 297l125 203h120l-149 -242l164 -258h-125l-131 207h-57v-207h-107v500h107v-203h53zM290 567h-101l70 158h122z" />
    <glyph glyph-name="afii10110" unicode="&#x45e;" horiz-adv-x="473" 
d="M196 -6l-191 506h113l127 -352l114 352h110l-176 -520q-21 -64 -46 -102q-47 -68 -174 -68v98q55 0 80 16t43 70zM301 690h89q0 -124 -146 -124q-70 0 -108.5 31t-38.5 93h90q0 -58 57 -58t57 58z" />
    <glyph glyph-name="afii10193" unicode="&#x45f;" horiz-adv-x="526" 
d="M304 0v-117h-88v117h-159v500h107v-408h192v408h106v-500h-158z" />
    <glyph glyph-name="afii10146" unicode="&#x462;" horiz-adv-x="598" 
d="M76 613v77h116v-77h167v-101h-167v-84h124q127 0 188 -61t61 -153t-61 -153t-188 -61h-240v512h-86v101h86zM312 328h-120v-228h120q137 0 137 114q0 54 -34.5 84t-102.5 30z" />
    <glyph glyph-name="afii10194" unicode="&#x463;" horiz-adv-x="485" 
d="M57 413h-86v87h86v190h107v-190h157v-87h-157v-94h88q210 0 210 -158q0 -76 -49 -118.5t-143 -42.5h-213v413zM246 227h-82v-135h94q88 0 88 70q0 33 -23.5 49t-76.5 16z" />
    <glyph glyph-name="afii10147" unicode="&#x472;" horiz-adv-x="613" 
d="M565 389v-88q0 -154 -68 -232t-191 -78t-190.5 78t-67.5 232v88q0 154 67.5 232t190.5 78t191 -78t68 -232zM449 301v6h-285v-6q0 -108 35 -158.5t107 -50.5t107.5 50.5t35.5 158.5zM164 407h284q-6 191 -142 191t-142 -191z" />
    <glyph glyph-name="afii10195" unicode="&#x473;" horiz-adv-x="497" 
d="M461 282v-63q0 -107 -54 -167.5t-158 -60.5q-102 0 -157.5 60.5t-55.5 167.5v63q0 110 55.5 168.5t157.5 58.5t157 -58.5t55 -168.5zM249 83q50 0 77 33.5t29 92.5h-213q4 -126 107 -126zM249 416q-98 0 -107 -115h212q-7 115 -105 115z" />
    <glyph glyph-name="afii10148" unicode="&#x474;" horiz-adv-x="610" 
d="M251 0l-245 690h128l170 -504l128 377q26 74 68 104q44 32 131 32v-99q-36 0 -54 -15.5t-33 -57.5l-186 -527h-107z" />
    <glyph glyph-name="afii10196" unicode="&#x475;" horiz-adv-x="502" 
d="M512 509v-92q-28 0 -41 -12.5t-28 -49.5l-138 -355h-102l-199 500h118l130 -357l97 264q23 62 56 82q34 20 107 20z" />
    <glyph glyph-name="afii10050" unicode="&#x490;" horiz-adv-x="487" 
d="M76 690h308v108h103v-209h-295v-589h-116v690z" />
    <glyph glyph-name="afii10098" unicode="&#x491;" horiz-adv-x="367" 
d="M57 500h224v93h96v-185h-213v-408h-107v500z" />
    <glyph glyph-name="uni0492" unicode="&#x492;" horiz-adv-x="491" 
d="M80 690h411v-101h-295v-182h155v-100h-155v-307h-116v307h-90v100h90v283z" />
    <glyph glyph-name="uni0493" unicode="&#x493;" horiz-adv-x="390" 
d="M80 500h320v-92h-213v-107h116v-92h-116v-209h-107v209h-92v92h92v199z" />
    <glyph glyph-name="uni0496" unicode="&#x496;" horiz-adv-x="933" 
d="M316 297l-177 -297h-133l209 349l-172 341h124l145 -293h75v293h116v-293h75l145 293h124l-172 -341l149 -249h96v-230h-109v130h-60l-177 297h-71v-297h-116v297h-71z" />
    <glyph glyph-name="uni0497" unicode="&#x497;" horiz-adv-x="711" 
d="M446 297l97 203h113l-117 -243l88 -165h74v-209h-101v117h-44l-107 207h-55v-207h-107v207h-55l-107 -207h-121l138 257l-117 243h113l96 -203h53v203h107v-203h52z" />
    <glyph glyph-name="uni0498" unicode="&#x498;" horiz-adv-x="577" 
d="M348 -5v-125h-109v125q-168 22 -206 200h112q24 -55 56.5 -79t89.5 -24q134 0 134 109q0 107 -149 107h-65v100h70q122 0 122 99q0 92 -113 92q-55 0 -86.5 -22.5t-49.5 -71.5h-104q11 89 79 141q71 53 162 53q102 0 164 -49q64 -48 64 -136q0 -101 -101 -151
q57 -18 90 -62t33 -103q0 -80 -51 -135.5t-142 -67.5z" />
    <glyph glyph-name="uni0499" unicode="&#x499;" horiz-adv-x="451" 
d="M267 -5v-112h-101v111q-103 10 -148 83l73 55q38 -53 115 -53q41 0 64.5 19.5t23.5 52.5q0 67 -111 67h-46v84h49q89 0 89 63q0 26 -19.5 41t-56.5 15q-57 0 -99 -45l-76 54q64 79 187 79q83 0 131.5 -35.5t48.5 -92.5q0 -78 -73 -112q43 -15 67.5 -48t24.5 -80
q0 -56 -37.5 -95t-105.5 -51z" />
    <glyph glyph-name="uni049A" unicode="&#x49a;" horiz-adv-x="646" 
d="M632 100v-230h-108v130h-60l-196 297h-76v-297h-116v690h116v-293h73l172 293h128l-197 -337l167 -253h97z" />
    <glyph glyph-name="uni049B" unicode="&#x49b;" horiz-adv-x="507" 
d="M217 297l125 203h120l-149 -242l105 -166h77v-209h-100v117h-43l-131 207h-57v-207h-107v500h107v-203h53z" />
    <glyph glyph-name="uni049C" unicode="&#x49c;" horiz-adv-x="689" 
d="M443 353l234 -353h-138l-196 297h-24v-111h-93v111h-34v-297h-116v690h116v-293h34v119h93v-119h21l172 293h128z" />
    <glyph glyph-name="uni049D" unicode="&#x49d;" horiz-adv-x="542" 
d="M278 297l125 203h119l-149 -242l164 -258h-125l-130 207h-11v-102h-85v102h-22v-207h-107v500h107v-203h22v103h85v-103h7z" />
    <glyph glyph-name="uni04A0" unicode="&#x4a0;" horiz-adv-x="668" 
d="M422 353l234 -353h-138l-196 297h-76v-297h-116v589h-154v101h270v-293h73l172 293h128z" />
    <glyph glyph-name="uni04A1" unicode="&#x4a1;" horiz-adv-x="537" 
d="M272 297l125 203h120l-149 -242l164 -258h-125l-131 207h-57v-207h-107v408h-128v92h235v-203h53z" />
    <glyph glyph-name="uni04A2" unicode="&#x4a2;" horiz-adv-x="679" 
d="M76 690h116v-283h264v283h116v-590h94v-230h-109v130h-101v307h-264v-307h-116v690z" />
    <glyph glyph-name="uni04A3" unicode="&#x4a3;" horiz-adv-x="548" 
d="M57 500h107v-199h192v199h106v-408h68v-209h-100v117h-74v209h-192v-209h-107v500z" />
    <glyph glyph-name="uni04AA" unicode="&#x4aa;" horiz-adv-x="587" 
d="M361 -5v-125h-109v126q-99 16 -151.5 92.5t-52.5 212.5v88q0 154 67.5 232t190.5 78q105 0 169.5 -56.5t81.5 -166.5h-112q-26 122 -139 122q-72 0 -107 -50.5t-35 -158.5v-88q0 -209 142 -209q59 0 92 29.5t47 92.5h111q-28 -192 -195 -219z" />
    <glyph glyph-name="uni04AB" unicode="&#x4ab;" horiz-adv-x="445" 
d="M308 -5v-112h-100v112q-81 13 -126.5 72t-45.5 150v68q0 108 58.5 166t165.5 58q122 0 174 -81l-82 -57q-32 45 -94 45q-116 0 -116 -136v-58q0 -139 116 -139q68 0 95 49l81 -56q-38 -69 -126 -81z" />
    <glyph glyph-name="uni04AE" unicode="&#x4ae;" horiz-adv-x="571" 
d="M227 288l-215 402h135l138 -276l139 276h134l-215 -402v-288h-116v288z" />
    <glyph glyph-name="uni04AF" unicode="&#x4af;" horiz-adv-x="504" 
d="M252 143l129 357h119l-193 -495v-195h-106v195l-197 495h118z" />
    <glyph glyph-name="uni04B0" unicode="&#x4b0;" horiz-adv-x="571" 
d="M219 303l-207 387h135l138 -276l139 276h134l-207 -387h127v-100h-135v-203h-116v203h-133v100h125z" />
    <glyph glyph-name="uni04B1" unicode="&#x4b1;" horiz-adv-x="504" 
d="M252 143l129 357h119l-195 -500h105v-92h-105v-98h-102v98h-108v92h108l-199 500h118z" />
    <glyph glyph-name="uni04B2" unicode="&#x4b2;" horiz-adv-x="611" 
d="M287 251l-144 -251h-127l199 356l-178 334h127l123 -236l124 236h126l-179 -334l144 -256h95v-230h-109v130h-56z" />
    <glyph glyph-name="uni04B3" unicode="&#x4b3;" horiz-adv-x="505" 
d="M495 92v-209h-100v117h-39l-114 167l-114 -167h-120l172 256l-156 244h121l97 -158l98 158h120l-156 -244l111 -164h80z" />
    <glyph glyph-name="uni04B6" unicode="&#x4b6;" horiz-adv-x="625" 
d="M27 690h116v-199q0 -80 30 -112t106 -32q96 0 123 51v292h116v-590h93v-230h-108v130h-101v283q-44 -36 -144 -36q-129 0 -180 57t-51 187v199z" />
    <glyph glyph-name="uni04B7" unicode="&#x4b7;" horiz-adv-x="507" 
d="M37 500h106v-134q0 -55 22 -76.5t67 -21.5q61 0 82 40v192h107v-408h68v-209h-101v117h-74v200q-32 -27 -99 -27q-88 0 -133 42.5t-45 140.5v144z" />
    <glyph glyph-name="uni04B8" unicode="&#x4b8;" horiz-adv-x="605" 
d="M231 468h100v-117q63 11 82 47v292h116v-690h-116v283q-25 -20 -82 -31v-115h-100v110q-113 6 -159 63q-45 57 -45 181v199h116v-199q0 -67 20 -99.5t68 -41.5v118z" />
    <glyph glyph-name="uni04B9" unicode="&#x4b9;" horiz-adv-x="501" 
d="M37 500h106v-134q0 -81 56 -95v107h84v-103q38 11 54 32v193h106v-500h-106v200q-21 -13 -54 -20v-96h-84v89q-80 3 -121 46.5t-41 136.5v144z" />
    <glyph glyph-name="uni04BA" unicode="&#x4ba;" horiz-adv-x="594" 
d="M566 0h-116v264q0 80 -30 112t-105 32q-97 0 -123 -51v-357h-116v690h116v-217q42 36 144 36q130 0 179 -57q51 -57 51 -187v-265z" />
    <glyph glyph-name="uni04BB" unicode="&#x4bb;" horiz-adv-x="526" 
d="M164 0h-107v690h107v-233q36 52 122 52t134 -48.5t48 -147.5v-313h-106v301q0 113 -95 113q-48 0 -75.5 -30.5t-27.5 -81.5v-302z" />
    <glyph glyph-name="uni04D8" unicode="&#x4d8;" horiz-adv-x="603" 
d="M48 301v58h396v30q0 108 -35 158.5t-107 50.5q-114 0 -138 -122h-112q16 108 80.5 165.5t169.5 57.5q124 0 191 -78.5t67 -236.5v-83q0 -154 -67.5 -232t-190.5 -78q-122 0 -188 77.5t-66 232.5zM302 92q65 0 99 39.5t41 126.5h-281q10 -166 141 -166z" />
    <glyph glyph-name="afii10846" unicode="&#x4d9;" horiz-adv-x="487" 
d="M133 368l-80 56q49 85 179 85q104 0 161.5 -61t57.5 -165v-68q0 -110 -52 -167t-151 -57q-202 0 -202 230v55h299v2q0 65 -27 102t-82 37q-41 0 -64 -11.5t-39 -37.5zM248 84q88 0 96 110h-191q6 -110 95 -110z" />
    <glyph glyph-name="uni04E2" unicode="&#x4e2;" horiz-adv-x="667" 
d="M76 0v690h116v-471l305 471h95v-690h-116v466l-304 -466h-96zM492 755h-317v94h317v-94z" />
    <glyph glyph-name="uni04E3" unicode="&#x4e3;" horiz-adv-x="534" 
d="M57 500h107v-312l216 312h96v-500h-106v321l-219 -321h-94v500zM406 585h-277v94h277v-94z" />
    <glyph glyph-name="uni04E8" unicode="&#x4e8;" horiz-adv-x="613" 
d="M565 389v-88q0 -154 -68 -232t-191 -78t-190.5 78t-67.5 232v88q0 154 67.5 232t190.5 78t191 -78t68 -232zM449 301v6h-285v-6q0 -108 35 -158.5t107 -50.5t107.5 50.5t35.5 158.5zM164 407h284q-6 191 -142 191t-142 -191z" />
    <glyph glyph-name="uni04E9" unicode="&#x4e9;" horiz-adv-x="497" 
d="M461 282v-63q0 -107 -54 -167.5t-158 -60.5q-102 0 -157.5 60.5t-55.5 167.5v63q0 110 55.5 168.5t157.5 58.5t157 -58.5t55 -168.5zM249 83q50 0 77 33.5t29 92.5h-213q4 -126 107 -126zM249 416q-98 0 -107 -115h212q-7 115 -105 115z" />
    <glyph glyph-name="uni04EE" unicode="&#x4ee;" horiz-adv-x="580" 
d="M309 308l145 382h120l-222 -561q-32 -80 -80 -109q-49 -29 -146 -29v103q57 0 83 12q27 14 43 54l-236 530h127zM460 755h-317v94h317v-94z" />
    <glyph glyph-name="uni04EF" unicode="&#x4ef;" horiz-adv-x="473" 
d="M196 -6l-191 506h113l127 -352l114 352h110l-176 -520q-21 -64 -46 -102q-47 -68 -174 -68v98q55 0 80 16t43 70zM378 585h-277v94h277v-94z" />
    <glyph glyph-name="uni1E9E" unicode="&#x1e9e;" horiz-adv-x="606" 
d="M533 639l-107 -184q57 -10 82 -41.5t25 -92.5v-181q0 -84 -35 -113q-34 -27 -116 -27h-81v100h59q31 0 44 14.5t13 47.5v140q0 37 -12.5 51.5t-44.5 14.5h-59v78l83 139q-33 13 -77 13q-60 0 -87.5 -26.5t-27.5 -86.5v-485h-116v493q0 99 58 152.5t173 53.5q66 0 132 -20
q61 -18 94 -40z" />
    <glyph glyph-name="uni2010" unicode="&#x2010;" horiz-adv-x="319" 
d="M289 242h-259v94h259v-94z" />
    <glyph glyph-name="uni2011" unicode="&#x2011;" horiz-adv-x="319" 
d="M289 242h-259v94h259v-94z" />
    <glyph glyph-name="figuredash" unicode="&#x2012;" horiz-adv-x="522" 
d="M460 299h-398v100h398v-100z" />
    <glyph glyph-name="endash" unicode="&#x2013;" horiz-adv-x="509" 
d="M449 239h-389v100h389v-100z" />
    <glyph glyph-name="emdash" unicode="&#x2014;" horiz-adv-x="694" 
d="M674 239h-654v100h654v-100z" />
    <glyph glyph-name="quoteleft" unicode="&#x2018;" horiz-adv-x="231" 
d="M171 534h-119v168l119 102v-270z" />
    <glyph glyph-name="quoteright" unicode="&#x2019;" horiz-adv-x="237" 
d="M52 721h113v-174l-113 -96v270z" />
    <glyph glyph-name="quotesinglbase" unicode="&#x201a;" horiz-adv-x="238" 
d="M60 118h118v-168l-118 -102v270z" />
    <glyph glyph-name="quotedblleft" unicode="&#x201c;" horiz-adv-x="386" 
d="M156 534h-119v168l119 102v-270zM329 534h-118v168l118 102v-270z" />
    <glyph glyph-name="quotedblright" unicode="&#x201d;" horiz-adv-x="386" 
d="M37 721h119v-168l-119 -102v270zM211 721h118v-168l-118 -102v270z" />
    <glyph glyph-name="quotedblbase" unicode="&#x201e;" horiz-adv-x="407" 
d="M233 118h119v-168l-119 -102v270zM60 118h118v-168l-118 -102v270z" />
    <glyph glyph-name="dagger" unicode="&#x2020;" horiz-adv-x="556" 
d="M27 399v101h193v190h116v-190h192v-101h-192v-589h-116v589h-193z" />
    <glyph glyph-name="daggerdbl" unicode="&#x2021;" horiz-adv-x="556" 
d="M27 399v101h193v190h116v-190h192v-101h-192v-299h192v-100h-192v-190h-116v190h-193v100h193v299h-193z" />
    <glyph glyph-name="bullet" unicode="&#x2022;" horiz-adv-x="297" 
d="M77 269q-30 30 -30 72t30 72t72 30t72 -30t30 -72t-30 -72t-72 -30t-72 30z" />
    <glyph glyph-name="ellipsis" unicode="&#x2026;" horiz-adv-x="840" 
d="M60 138h138v-138h-138v138zM642 138h138v-138h-138v138zM351 138h138v-138h-138v138z" />
    <glyph glyph-name="perthousand" unicode="&#x2030;" horiz-adv-x="1082" 
d="M124 0l386 690h106l-385 -690h-107zM724 196v-52q0 -73 -37.5 -113t-111.5 -40q-70 0 -108 40t-38 113v52q0 73 38.5 112.5t107.5 39.5q72 0 110.5 -39.5t38.5 -112.5zM576 66q63 0 63 79v49q0 78 -63 78q-61 0 -61 -78v-49q0 -79 61 -79zM319 547v-52q0 -73 -37.5 -113
t-111.5 -40q-71 0 -109 40t-38 113v52q0 73 38.5 112.5t108.5 39.5q72 0 110.5 -39.5t38.5 -112.5zM170 417q63 0 63 79v49q0 78 -63 78q-60 0 -60 -78v-49q0 -79 60 -79zM1054 196v-52q0 -73 -37.5 -113t-111.5 -40q-71 0 -109 40t-38 113v52q0 73 38.5 112.5t108.5 39.5
q72 0 110.5 -39.5t38.5 -112.5zM905 66q63 0 63 79v49q0 78 -63 78q-60 0 -60 -78v-49q0 -79 60 -79z" />
    <glyph glyph-name="guilsinglleft" unicode="&#x2039;" horiz-adv-x="330" 
d="M262 52l-232 231l232 231v-125l-108 -106l108 -107v-124z" />
    <glyph glyph-name="guilsinglright" unicode="&#x203a;" horiz-adv-x="330" 
d="M58 389v125l232 -231l-232 -231v124l107 107z" />
    <glyph glyph-name="fraction" unicode="&#x2044;" horiz-adv-x="566" 
d="M6 0l475 690h106l-474 -690h-107z" />
    <glyph glyph-name="uni2074" unicode="&#x2074;" horiz-adv-x="345" 
d="M31 482l131 208h85l-123 -201h67v50h72v-50h39v-62h-39v-53h-72v53h-160v55z" />
    <glyph glyph-name="Euro" unicode="&#x20ac;" horiz-adv-x="522" 
d="M9 216v97h67v60h-67v97h71q27 229 218 229q186 0 208 -223h-112q-8 66 -30 94t-66 28q-48 0 -72 -29.5t-31 -98.5h125v-97h-128v-60h128v-97h-124q8 -64 32.5 -94t69.5 -30q43 0 65.5 29t30.5 93h111q-12 -114 -62 -168.5t-145 -54.5q-188 0 -217 225h-72z" />
    <glyph glyph-name="uni20B4" unicode="&#x20b4;" horiz-adv-x="522" 
d="M51 227h-45v94h511v-94h-346q-9 -17 -9 -43q0 -43 27.5 -67.5t82.5 -24.5q41 0 68 16t62 59l89 -62q-47 -60 -98 -88q-50 -26 -128 -26q-107 0 -163 56q-56 58 -56 138q0 17 5 42zM517 370h-511v95h343q10 16 10 43q0 43 -25 66.5t-72 23.5q-38 0 -64.5 -17t-55.5 -58
l-86 63q74 113 205 113q104 0 159.5 -51.5t54.5 -135.5q0 -23 -7 -47h49v-95z" />
    <glyph glyph-name="uni20B8" unicode="&#x20b8;" horiz-adv-x="522" 
d="M11 439v101h501v-101h-193v-439h-116v439h-192zM11 589v101h501v-101h-501z" />
    <glyph glyph-name="uni20BD" unicode="&#x20bd;" horiz-adv-x="522" 
d="M95 252h-86v100h86v338h169q121 0 188 -56.5t67 -161.5t-67.5 -162.5t-187.5 -57.5h-53v-45h116v-100h-116v-107h-116v107h-86v100h86v45zM211 589v-237h42q150 0 150 120q0 117 -150 117h-42z" />
    <glyph glyph-name="afii61352" unicode="&#x2116;" horiz-adv-x="947" 
d="M923 537v-47q0 -76 -39 -119.5t-113 -43.5q-72 0 -112 43.5t-40 119.5v47q0 77 40 119.5t112 42.5q73 0 112.5 -42.5t39.5 -119.5zM901 187h-259v98h259v-98zM771 414q29 0 44.5 21.5t15.5 58.5v39q0 79 -60 79q-61 0 -61 -79v-39q0 -80 61 -80zM454 215v475h112v-690
h-103l-281 469v-469h-112v690h100z" />
    <glyph glyph-name="trademark" unicode="&#x2122;" horiz-adv-x="898" 
d="M409 690h87l135 -235l135 235h88v-417h-94v232l-94 -161h-76l-88 161v-232h-93v417zM27 605v85h345v-85h-126v-332h-94v332h-125z" />
    <glyph glyph-name="uni2190" unicode="&#x2190;" horiz-adv-x="875" 
d="M209 222l314 -314h-110l-353 353l353 353h110l-314 -314h606v-78h-606z" />
    <glyph glyph-name="uni2191" unicode="&#x2191;" horiz-adv-x="826" 
d="M413 639l353 -353v-110l-314 314v-606h-78v606l-314 -314v110z" />
    <glyph glyph-name="uni2192" unicode="&#x2192;" horiz-adv-x="875" 
d="M815 261l-353 -353h-110l314 314h-606v78h606l-314 314h110z" />
    <glyph glyph-name="uni2193" unicode="&#x2193;" horiz-adv-x="826" 
d="M413 -117l-353 353v110l314 -314v606h78v-606l314 314v-110z" />
    <glyph glyph-name="uni2196" unicode="&#x2196;" horiz-adv-x="698" 
d="M137 367v-445l-77 78v500h500l78 -77h-445l428 -429l-55 -55z" />
    <glyph glyph-name="uni2197" unicode="&#x2197;" horiz-adv-x="698" 
d="M638 500v-500l-77 -78v445l-429 -428l-55 55l428 429h-445l78 77h500z" />
    <glyph glyph-name="uni2198" unicode="&#x2198;" horiz-adv-x="698" 
d="M561 133v445l77 -78v-500h-500l-78 77h445l-428 429l55 55z" />
    <glyph glyph-name="uni2199" unicode="&#x2199;" horiz-adv-x="698" 
d="M60 0v500l77 78v-445l429 428l55 -55l-428 -429h445l-78 -77h-500z" />
    <glyph glyph-name="uni21A3" unicode="&#x21a3;" horiz-adv-x="1320" 
d="M187 391l51 51l111 -111h780l-60 60l50 51l161 -161l-161 -161l-50 50l60 61h-780l-111 -111l-51 50l111 111zM40 391l51 51l160 -161l-160 -161l-51 50l110 111z" />
    <glyph glyph-name="partialdiff" unicode="&#x2202;" horiz-adv-x="502" 
d="M461 466v-247q0 -107 -54 -167.5t-158 -60.5q-102 0 -157.5 60.5t-55.5 167.5v63q0 108 54.5 167.5t153.5 59.5q67 0 111 -32q-1 130 -115 130q-54 0 -111 -39l-52 69q70 62 170 62q105 0 159.5 -59.5t54.5 -173.5zM249 83q53 0 79.5 37t26.5 102v58q0 136 -106 136
q-107 0 -107 -136v-58q0 -139 107 -139z" />
    <glyph glyph-name="product" unicode="&#x220f;" horiz-adv-x="638" 
d="M70 -190v880h498v-880h-116v779h-266v-779h-116z" />
    <glyph glyph-name="summation" unicode="&#x2211;" 
d="M30 690h460v-100h-312l185 -292v-98l-185 -290h312v-100h-460v83l228 357l-228 357v83z" />
    <glyph glyph-name="minus" unicode="&#x2212;" horiz-adv-x="503" 
d="M446 307h-389v94h389v-94z" />
    <glyph glyph-name="uni2215" unicode="&#x2215;" horiz-adv-x="485" 
d="M481 812l-336 -928h-98l336 928h98z" />
    <glyph glyph-name="radical" unicode="&#x221a;" horiz-adv-x="659" 
d="M14 399v101h194l138 -326l114 516h277v-101h-185l-143 -589h-108l-179 399h-108z" />
    <glyph glyph-name="infinity" unicode="&#x221e;" horiz-adv-x="787" 
d="M392 274q-88 -111 -185 -111q-77 0 -126 51q-49 52 -49 128q0 77 49 127q49 52 129 52q103 0 188 -109q87 109 180 109q78 0 127 -52q50 -52 50 -127t-49 -127t-124 -52q-102 0 -190 111zM580 261q34 0 57 23t23 58t-24 57.5t-60 22.5q-24 0 -45 -12q-20 -10 -31.5 -21
t-40.5 -45q35 -44 62.5 -63.5t58.5 -19.5zM209 261q34 0 61 19t63 63q-67 79 -124 79q-36 0 -59.5 -22.5t-23.5 -57.5q0 -36 23.5 -58.5t59.5 -22.5z" />
    <glyph glyph-name="integral" unicode="&#x222b;" horiz-adv-x="299" 
d="M82 -9v540q0 87 38 123t128 36h31v-100h-22q-38 0 -51.5 -17.5t-13.5 -64.5v-539q0 -87 -38 -123t-129 -36h-31v100h23q39 0 52 17t13 64z" />
    <glyph glyph-name="approxequal" unicode="&#x2248;" horiz-adv-x="500" 
d="M417 476l42 -76q-53 -52 -112 -52q-35 0 -101 26q-64 27 -93 27q-33 0 -70 -31l-42 77q52 52 110 52q35 0 102 -27q69 -26 96 -26q33 0 68 30zM417 309l42 -75q-53 -53 -112 -53q-35 0 -101 26q-64 27 -93 27q-33 0 -70 -31l-42 77q52 52 110 52q35 0 102 -27
q69 -26 96 -26q33 0 68 30z" />
    <glyph glyph-name="notequal" unicode="&#x2260;" horiz-adv-x="500" 
d="M220 377h-165v99h208l72 166l85 -35l-57 -131h81v-99h-124l-31 -73h155v-98h-198l-68 -159l-85 35l53 124h-91v98h134z" />
    <glyph glyph-name="lessequal" unicode="&#x2264;" horiz-adv-x="436" 
d="M337 170l-232 231l232 231v-125l-107 -106l107 -107v-124zM337 -30l-232 231v123l232 -229v-125z" />
    <glyph glyph-name="greaterequal" unicode="&#x2265;" horiz-adv-x="436" 
d="M105 507v125l232 -231l-232 -231v124l108 107zM105 95l232 229v-123l-232 -231v125z" />
    <glyph glyph-name="uni231A" unicode="&#x231a;" horiz-adv-x="666" 
d="M446 -205h-261v235q-58 34 -91.5 93t-33.5 127t33.5 126.5t91.5 92.5v235h261v-234q49 -30 81 -77t41 -103h38v-80h-38q-19 -118 -122 -180v-235zM167 398q-62 -62 -62 -148q0 -87 62 -149t149 -62q86 0 148 62t62 149q0 86 -62 148t-148 62q-87 0 -149 -62zM488 337
l-6 -19l-166 -93l-133 75l-6 20l20 5l119 -70l153 87z" />
    <glyph glyph-name="uni23F2" unicode="&#x23f2;" horiz-adv-x="1072" 
d="M199 5q-139 139 -139 337q0 197 139 336q140 140 337 140q196 0 336 -140t140 -336q0 -197 -140 -337q-139 -139 -336 -139q-198 0 -337 139zM237 640q-123 -123 -123 -298q0 -174 123 -299q124 -123 299 -123t298 123q123 125 123 299q0 175 -123 298t-298 123
t-299 -123zM881 544l-10 -36l-335 -192l-248 142l-10 35l36 10l222 -129l309 179zM802 318v46h126v-46h-126zM559 -50h-46v126h46v-126zM145 318v46h126v-46h-126zM559 607h-46v126h46v-126z" />
    <glyph glyph-name="uni2550" unicode="&#x2550;" horiz-adv-x="2158" 
d="M0 403h2158v-100h-2158v100zM0 257h2158v-101h-2158v101z" />
    <glyph glyph-name="lozenge" unicode="&#x25ca;" horiz-adv-x="558" 
d="M26 296l195 291h118l193 -291l-193 -296h-118zM405 296l-126 198l-127 -198l127 -204z" />
    <glyph glyph-name="uni261D" unicode="&#x261d;" horiz-adv-x="705" 
d="M645 249v-277h-370l-215 292q8 8 29 19q62 30 115 -25l71 -74v450q0 61 50 61t50 -58v-229h36q29 0 41.5 -13t12.5 -41h36q29 0 41.5 -13t12.5 -41h34q30 0 43 -12t13 -39zM645 -243h-370v161h370v-161zM584 -142q-11 11 -26 5.5t-19.5 -18.5t6.5 -27q12 -12 27 -6.5
t18.5 19.5t-6.5 27z" />
    <glyph glyph-name="uni261E" unicode="&#x261e;" horiz-adv-x="1061" 
d="M555 51h-277v370l292 215q9 -9 19 -30q31 -62 -25 -114l-74 -71h450q61 0 61 -50t-58 -50h-229v-36q0 -29 -13 -41.5t-41 -12.5v-36q0 -29 -13 -41.5t-41 -12.5v-34q0 -30 -12 -43t-39 -13zM60 51v370h164v-370h-164zM161 111q12 12 7 27.5t-18.5 19.5t-27.5 -7
q-12 -12 -6.5 -27t19.5 -18.5t26 5.5z" />
    <glyph glyph-name="uni26F3" unicode="&#x26f3;" horiz-adv-x="674" 
d="M60 513q0 115 81 196t196 81t196 -81t81 -196q0 -86 -82 -216l-195 -307l-197 309q-80 128 -80 214zM258 591q-32 -32 -32 -78t32 -78q34 -32 79 -32q46 0 78 32t32 78t-32 78t-78 32q-45 0 -79 -32z" />
    <glyph glyph-name="uni2709" unicode="&#x2709;" horiz-adv-x="1236" 
d="M60 518v60h1116v-60l-558 -334zM60 37v444l338 -201zM810 263l366 -263h-1116l366 263l192 -114zM1176 37l-338 243l338 201v-444z" />
    <glyph glyph-name="uniF040" unicode="&#xf040;" horiz-adv-x="3054" 
d="M1578 394l51 50l113 -113h1312v-100h-1310l-115 -115l-51 50l114 114zM1310 231h-1310v100h1312l113 113l51 -50l-114 -114l114 -114l-51 -50z" />
    <glyph glyph-name="uniF041" unicode="&#xf041;" horiz-adv-x="2855" 
d="M1409 173l149 259l74 -43l-34 -58h1257v-100h-1314l-58 -100zM1314 331l58 101l74 -43l-149 -258l-74 42l33 58h-1256v100h1314z" />
    <glyph glyph-name="uniF042" unicode="&#xf042;" horiz-adv-x="2825" 
d="M2825 231h-1376v100h1376v-100zM0 331h1256v-100h-1256v100z" />
    <glyph glyph-name="uniF043" unicode="&#xf043;" horiz-adv-x="705" 
d="M275 -28l-215 292l8 6q13 12 31.5 19t48.5 1.5t56 -32.5l71 -74v450q0 61 50 61t50 -58v-229h36q29 0 41.5 -13t12.5 -41h36q29 0 41.5 -13t12.5 -41h34q30 0 43 -12t13 -39v-277h-370zM275 -82h370v-161h-370v161zM545 -142q-12 -12 -6.5 -27.5t19.5 -19.5t26 7
q19 19 0 38t-39 2zM83 605v55h158v-55h-158zM409 605v55h158v-55h-158zM352 725h-55v158h55v-158z" />
    <glyph glyph-name="uniF044" unicode="&#xf044;" horiz-adv-x="931" 
d="M177 126l3 10q9 29 38.5 52t81.5 13l201 -45v478q0 61 50 61t50 -58v-229h36q29 0 41.5 -13t12.5 -41h36q29 0 41.5 -13t12.5 -41h34q30 0 43 -12t13 -39v-277h-370zM501 -82h370v-161h-370v161zM553 759v55h158v-158h-55v103h-103zM218 70v-55h-158v158h55v-103h103z
M771 -142q-12 -12 -6.5 -27.5t19.5 -19.5t26 7q19 19 0 38t-39 2z" />
    <glyph glyph-name="uniF045" unicode="&#xf045;" horiz-adv-x="903" 
d="M370 665h503v-55h-498v-202h36q29 0 41.5 -13t12.5 -41h36q29 0 41.5 -13t12.5 -41h34q30 0 43 -12t13 -39v-277h-370l-215 292q8 8 29 19q62 30 115 -25l71 -74v450q0 61 50 61q35 0 45 -30zM645 -243h-370v161h370v-161zM199 525l-112 112l112 112l39 -39l-73 -73
l73 -73zM584 -142q-11 11 -26 5.5t-19.5 -18.5t6.5 -27q12 -12 27 -6.5t18.5 19.5t-6.5 27z" />
    <glyph glyph-name="uniF046" unicode="&#xf046;" horiz-adv-x="952" 
d="M892 249v-277h-370l-215 292q8 8 29 19q62 30 115 -25l71 -74v426h-492v55h497q11 30 45 30q50 0 50 -58v-229h36q54 0 54 -54h36q54 0 54 -54h34q30 0 43 -12t13 -39zM892 -243h-370v161h370v-161zM704 749l112 -112l-112 -112l-39 39l73 73l-73 73zM831 -142
q-11 11 -26 5.5t-19.5 -18.5t6.5 -27q12 -12 27 -6.5t18.5 19.5t-6.5 27z" />
    <glyph glyph-name="uniF047" unicode="&#xf047;" horiz-adv-x="1010" 
d="M872 514l-6 -4v-634h-55v603l-137 -79l17 -31q27 -48 -19 -73l18 -32q27 -46 -20 -73l17 -30q29 -48 -17 -74l-239 -139l-185 321l145 332l5 -2q5 -2 13.5 -6t17 -11t17.5 -17t14 -23t6 -30.5t-6 -38.5l-29 -99l391 226q53 29 78 -13q25 -43 -26 -73zM245 -159l-185 321
l140 81l184 -321zM765 651l-39 39l112 112l112 -112l-39 -39l-73 73zM295 -27q-11 11 -26 5.5t-19.5 -18.5t6.5 -27q12 -12 27 -6.5t18.5 19.5t-6.5 27z" />
    <glyph glyph-name="uniF048" unicode="&#xf048;" horiz-adv-x="1145" 
d="M485 0l-240 137l186 321l360 40q3 -17 1 -35q-4 -69 -78 -87l-100 -24l332 -192v603h55v-635l4 -2q51 -30 27 -74q-25 -43 -76 -14l-198 115l-18 -30q-28 -48 -73 -21l-18 -31q-27 -46 -74 -19l-17 -30q-28 -47 -73 -22zM60 245l185 320l140 -80l-186 -320zM1085 -51
l-112 -112l-112 112l39 39l73 -73l73 73zM191 293q-11 12 -26 7t-19.5 -18.5t6.5 -27.5q12 -12 27.5 -6.5t19 19.5t-7.5 26z" />
    <glyph glyph-name="uniF400" unicode="&#xf400;" horiz-adv-x="0" 
d="M-190 567h-101l70 158h122z" />
    <glyph glyph-name="uniF401" unicode="&#xf401;" horiz-adv-x="0" 
d="M-257 744h-103l80 129h126z" />
    <glyph glyph-name="uniF406" unicode="&#xf406;" horiz-adv-x="512" 
d="M347 879h97q0 -72 -51 -112t-137 -40t-137.5 40t-51.5 112h97q10 -63 92 -63t91 63z" />
    <glyph glyph-name="uniF407" unicode="&#xf407;" horiz-adv-x="411" 
d="M150 -71l19 96l71 -3l-12 -44q56 -21 56 -74q0 -38 -31.5 -60.5t-83.5 -22.5q-30 0 -42 3l14 59q4 -1 19 -1q39 0 39 24q0 23 -49 23z" />
    <glyph glyph-name="uniF408" unicode="&#xf408;" horiz-adv-x="512" 
d="M68 738l138 142h100l138 -142h-117l-71 75l-71 -75h-117z" />
    <glyph glyph-name="uniF409" unicode="&#xf409;" horiz-adv-x="383" 
d="M132 -57h118v-114l-118 -102v216z" />
    <glyph glyph-name="uniF40A" unicode="&#xf40a;" horiz-adv-x="185" 
d="M54 690h118v-144l-118 -101v245z" />
    <glyph glyph-name="uniF40B" unicode="&#xf40b;" horiz-adv-x="383" 
d="M250 768h-118v101h118v-101z" />
    <glyph glyph-name="uniF40C" unicode="&#xf40c;" horiz-adv-x="438" 
d="M105 800q0 44 32 71.5t81 27.5q51 0 82.5 -27t31.5 -72q0 -44 -31.5 -71t-82.5 -27q-49 0 -81 27t-32 71zM172 800q0 -18 12.5 -28t33.5 -10q46 0 46 38t-46 38t-46 -38z" />
    <glyph glyph-name="uniF40D" unicode="&#xf40d;" horiz-adv-x="495" 
d="M308 744q-23 0 -62 14t-55 14q-31 0 -55 -26l-59 60q48 56 113 56q21 0 60 -14t56 -14q30 0 54 26l58 -60q-47 -56 -110 -56z" />
    <glyph glyph-name="uniF40E" unicode="&#xf40e;" horiz-adv-x="409" 
d="M236 46l30 -46q-30 -22 -42 -35.5t-12 -28.5q0 -25 35 -25q4 0 20 2l14 -59q-9 -4 -47 -4q-46 0 -76.5 19.5t-30.5 56.5q0 66 109 120z" />
    <glyph glyph-name="dollar.fitted" unicode="&#xf5f5;" horiz-adv-x="573" 
d="M523 586l-88 -63q-44 59 -102 71v-202q104 -24 151.5 -71t47.5 -132q0 -80 -50.5 -133.5t-144.5 -62.5v-109h-98v111q-131 15 -200 109l91 63q50 -59 113 -71l1 6v202q-187 46 -187 204q0 77 46 127t136 61v116h98v-116q124 -15 186 -110zM416 184q0 34 -19 56.5
t-64 39.5v-185q83 15 83 89zM173 508q0 -62 71 -91v176q-71 -15 -71 -85z" />
    <glyph glyph-name="Euro.fitted" unicode="&#xf5f6;" horiz-adv-x="628" 
d="M7 216v97h82v60h-82v97h88q17 114 82 171.5t170 57.5t169.5 -56.5t81.5 -166.5h-112q-26 122 -139 122t-136 -128h169v-97h-175v-60h175v-97h-168q25 -124 135 -124q59 0 92 29.5t47 92.5h111q-33 -223 -250 -223q-104 0 -169 56.5t-83 168.5h-88z" />
    <glyph glyph-name="cent.fitted" unicode="&#xf5f7;" horiz-adv-x="445" 
d="M353 134l81 -57q-41 -69 -131 -81v-112h-96v113q-81 13 -126 72t-45 150v64q0 93 44 149.5t127 70.5v119h96v-118q87 -13 131 -78l-82 -57q-31 46 -94 46q-116 0 -116 -137v-54q0 -139 116 -139q68 0 95 49z" />
    <glyph glyph-name="sterling.fitted" unicode="&#xf5f8;" horiz-adv-x="520" 
d="M481 0h-456v100h72v195h-72v101h72v22q0 281 215 281q128 0 189 -96l-96 -55q-38 50 -90 50q-53 0 -77.5 -41.5t-24.5 -138.5v-22h142v-101h-142v-195h268v-100z" />
    <glyph glyph-name="yen.fitted" unicode="&#xf5f9;" horiz-adv-x="578" 
d="M89 131v97h142v60h-142v97h90l-163 305h135l138 -276l139 276h134l-163 -305h90v-97h-142v-60h142v-97h-142v-131h-116v131h-142z" />
    <glyph glyph-name="florin.fitted" unicode="&#xf5fa;" horiz-adv-x="316" 
d="M32 399v101h64v31q0 87 38.5 123t129.5 36h30v-101h-20q-39 0 -52 -17t-13 -62v-10h85v-101h-85v-430q0 -86 -44 -122.5t-144 -36.5v101q44 0 59.5 18.5t15.5 62.5v407h-64z" />
    <glyph glyph-name="uni20B4.fitted" unicode="&#xf5fb;" horiz-adv-x="590" 
d="M84 227h-45v94h512v-94h-346q-9 -17 -9 -43q0 -43 27.5 -67.5t81.5 -24.5q41 0 68 16t62 59l90 -62q-50 -62 -98 -88q-50 -26 -128 -26q-107 0 -163 56q-56 58 -56 138q0 27 4 42zM551 370h-512v95h344q10 19 10 43q0 43 -25.5 66.5t-71.5 23.5q-40 0 -66 -17t-54 -58
l-87 63q74 113 206 113q103 0 158.5 -51.5t55.5 -135.5q0 -23 -7 -47h49v-95z" />
    <glyph glyph-name="uni20BD.fitted" unicode="&#xf5fc;" horiz-adv-x="522" 
d="M95 252h-86v100h86v338h169q121 0 188 -56.5t67 -161.5t-67.5 -162.5t-187.5 -57.5h-53v-45h116v-100h-116v-107h-116v107h-86v100h86v45zM211 589v-237h42q150 0 150 120q0 117 -150 117h-42z" />
    <glyph glyph-name="uni20B8.fitted" unicode="&#xf5fd;" horiz-adv-x="527" 
d="M7 439v101h513v-101h-198v-439h-116v439h-199zM7 589v101h513v-101h-513z" />
    <glyph glyph-name="currency.fitted" unicode="&#xf5fe;" horiz-adv-x="557" 
d="M79 366q0 56 26 100l-73 74l72 72l72 -73q46 28 102 28q55 0 101 -28l74 74l72 -72l-74 -74q28 -46 28 -101q0 -56 -28 -102l74 -73l-72 -72l-74 74q-48 -27 -101 -27q-54 0 -101 27l-73 -73l-72 72l73 73q-26 47 -26 101zM278 261q44 0 73.5 30.5t29.5 74.5
q0 45 -29.5 75.5t-73.5 30.5q-42 0 -71.5 -31t-29.5 -75t29 -74.5t72 -30.5z" />
    <glyph glyph-name="uniF639" unicode="&#xf639;" horiz-adv-x="546" 
d="M490 488v-286q0 -102 -63 -157q-61 -54 -154 -54q-92 0 -155 54q-62 56 -62 157v285q0 104 62 158t155 54t155 -54q62 -53 62 -157zM374 209v272q0 55 -27 86t-74 31q-48 0 -75 -31t-27 -86v-272q0 -55 27 -86t75 -31q47 0 74 31t27 86z" />
    <glyph glyph-name="uniF63A" unicode="&#xf63a;" horiz-adv-x="507" 
d="M190 100h262v-100h-417v82l237 278q70 80 70 145q0 44 -27.5 69.5t-70.5 25.5t-69.5 -25.5t-28.5 -69.5h-106q0 86 60 140t148 54q91 0 149 -55q60 -56 60 -141q0 -63 -37 -119q-13 -20 -31 -44l-36 -45z" />
    <glyph glyph-name="uniF63B" unicode="&#xf63b;" horiz-adv-x="502" 
d="M229 306h-48v100h48q54 0 82.5 27t28.5 76q0 39 -28 65t-70 26q-41 0 -67.5 -24t-30.5 -61h-106q1 81 62 132q61 52 146 52q90 0 149 -54q60 -54 60 -133q0 -52 -26 -92t-72 -62q108 -48 108 -167q0 -85 -57 -143q-57 -57 -154 -57q-100 0 -160 51.5t-65 137.5h106
q6 -41 35 -64.5t79 -23.5q45 0 73 28.5t28 73.5q0 54 -31 83t-90 29z" />
    <glyph glyph-name="uniF63C" unicode="&#xf63c;" horiz-adv-x="525" 
d="M16 186l239 504h123l-221 -485h162v188h116v-188h63v-101h-63v-104h-116v104h-303v82z" />
    <glyph glyph-name="uniF63D" unicode="&#xf63d;" horiz-adv-x="508" 
d="M256 367q-54 0 -84 -51h-105v374h374v-109h-261v-146q40 40 106 40q87 0 134.5 -64.5t47.5 -184.5q0 -114 -53.5 -174.5t-156.5 -60.5q-86 0 -144 49t-66 131h114q19 -79 94 -79q96 0 96 130q0 145 -96 145z" />
    <glyph glyph-name="uniF63E" unicode="&#xf63e;" horiz-adv-x="507" 
d="M233 690h126l-140 -293q25 13 66 13q81 0 133 -58q53 -59 53 -146q0 -101 -61 -158q-60 -57 -156 -57q-95 0 -157 56q-61 57 -61 157q0 57 56 181zM152 203q0 -51 27 -81t75 -30q47 0 74 30t27 81t-27 81t-74 30t-74.5 -30t-27.5 -81z" />
    <glyph glyph-name="uniF63F" unicode="&#xf63f;" horiz-adv-x="441" 
d="M118 589v-113h-100v214h406v-89l-207 -601h-121l208 589h-186z" />
    <glyph glyph-name="uniF640" unicode="&#xf640;" horiz-adv-x="518" 
d="M36 193q0 55 30 100.5t74 64.5q-42 21 -68 62t-26 89q0 85 63 138q62 52 150 52q89 0 150 -52q63 -53 63 -138q0 -48 -26 -89t-68 -62q45 -19 74.5 -64.5t29.5 -100.5q0 -91 -65 -147q-64 -55 -158 -55t-158 55q-65 56 -65 147zM152 200q0 -46 30.5 -77.5t76.5 -31.5
q45 0 76.5 32t31.5 77q0 48 -34 78q-33 30 -74 30q-43 0 -75 -30.5t-32 -77.5zM357 501q0 40 -28.5 68.5t-69.5 28.5t-69.5 -28t-28.5 -69t28.5 -70t69.5 -29t69.5 29t28.5 70z" />
    <glyph glyph-name="uniF641" unicode="&#xf641;" horiz-adv-x="507" 
d="M275 0h-126l139 293q-26 -14 -66 -14q-82 0 -134 58t-52 147q0 101 61 158t156 57t157 -56q61 -55 61 -157q0 -57 -56 -181zM355 487q0 51 -27 81t-75 30q-47 0 -74 -30t-27 -81t27 -81t74 -30q48 0 75 30t27 81z" />
    <glyph glyph-name="uniF6BA" unicode="&#xf6ba;" horiz-adv-x="319" 
d="M289 298h-259v94h259v-94z" />
    <glyph glyph-name="uniF6BB" unicode="&#xf6bb;" horiz-adv-x="509" 
d="M449 295h-389v100h389v-100z" />
    <glyph glyph-name="uniF6BC" unicode="&#xf6bc;" horiz-adv-x="694" 
d="M674 295h-654v100h654v-100z" />
    <glyph glyph-name="uniF6C3" unicode="&#xf6c3;" horiz-adv-x="323" 
d="M102 -57h119v-114l-119 -102v216z" />
    <glyph glyph-name="uniF6C9" unicode="&#xf6c9;" horiz-adv-x="406" 
d="M203 744h-103l80 129h126z" />
    <glyph glyph-name="uniF6CA" unicode="&#xf6ca;" horiz-adv-x="512" 
d="M444 880l-138 -142h-100l-138 142h117l71 -75l71 75h117z" />
    <glyph glyph-name="uniF6CB" unicode="&#xf6cb;" horiz-adv-x="482" 
d="M191 764h-108v105h108v-105zM398 764h-109v105h109v-105z" />
    <glyph glyph-name="uniF6CE" unicode="&#xf6ce;" horiz-adv-x="389" 
d="M91 873h127l80 -129h-104z" />
    <glyph glyph-name="uniF6CF" unicode="&#xf6cf;" horiz-adv-x="572" 
d="M187 744h-104l80 129h127zM375 744h-103l90 129h126z" />
    <glyph glyph-name="uniF6D0" unicode="&#xf6d0;" horiz-adv-x="483" 
d="M400 755h-317v94h317v-94z" />
    <glyph glyph-name="uniF6D1" unicode="&#xf6d1;" horiz-adv-x="472" 
d="M312 879h107q0 -147 -183 -147q-184 0 -184 147h108q0 -70 76 -70t76 70z" />
    <glyph glyph-name="uniF6D4" unicode="&#xf6d4;" horiz-adv-x="412" 
d="M263 690h89q0 -124 -146 -124q-70 0 -108.5 31t-38.5 93h90q0 -58 57 -58t57 58z" />
    <glyph glyph-name="uniF6DC" unicode="&#xf6dc;" horiz-adv-x="325" 
d="M141 690h109v-690h-116v565l-99 -68v117z" />
    <glyph glyph-name="uniFEFF" unicode="&#xfeff;" horiz-adv-x="0" 
 />
    <glyph glyph-name="uniF4D3" unicode="&#x1f4d3;" horiz-adv-x="752" 
d="M60 60v815q0 25 18 43t43 18h510q25 0 43 -18t18 -43v-815q0 -25 -18 -42.5t-43 -17.5h-510q-25 0 -43 17.5t-18 42.5zM376 25q17 0 29 12t12 29t-12 29t-29 12q-18 0 -30 -12t-12 -29t12 -29t30 -12zM648 132v691h-544v-691h544zM357 879q0 -17 18 -17t18 17t-18 17
t-18 -17z" />
    <glyph glyph-name="uniF4F1" unicode="&#x1f4f1;" horiz-adv-x="552" 
d="M60 60v715q0 25 18 43t43 18h310q25 0 43 -18t18 -43v-715q0 -25 -18 -42.5t-43 -17.5h-310q-25 0 -43 17.5t-18 42.5zM276 25q17 0 29 12t12 29t-12 29t-29 12q-18 0 -30 -12t-12 -29t12 -29t30 -12zM448 132v591h-344v-591h344zM323 790h-94q-11 0 -11 -12t11 -12h94
q11 0 11 12t-11 12z" />
    <glyph glyph-name="NULL" horiz-adv-x="0" 
 />
    <glyph glyph-name="CR" horiz-adv-x="333" 
 />
    <glyph glyph-name="uni2197.ss02" horiz-adv-x="667" 
d="M607 500v-500h-78v367l-414 -414l-55 55l414 414h-367v78h500z" />
    <glyph glyph-name="uni2199.ss02" horiz-adv-x="667" 
d="M60 0v500h78v-367l414 414l55 -55l-414 -414h367v-78h-500z" />
    <glyph glyph-name="a.ss01" 
d="M36 217v68q0 106 53 165t146 59q78 0 120 -44v35h106v-500h-106v34q-40 -43 -120 -43q-95 0 -147 61t-52 165zM249 83q53 0 79.5 33.5t26.5 93.5v76q0 62 -27.5 96t-78.5 34q-107 0 -107 -136v-58q0 -65 27 -102t80 -37z" />
    <glyph glyph-name="uni2198.ss02" horiz-adv-x="667" 
d="M529 133v367h78v-500h-500v78h367l-414 414l55 55z" />
    <glyph glyph-name="afii10069.ss01" 
d="M461 466v-247q0 -107 -54 -167.5t-158 -60.5q-102 0 -157.5 60.5t-55.5 167.5v63q0 108 54.5 167.5t153.5 59.5q67 0 111 -32q-1 130 -115 130q-54 0 -111 -39l-52 69q70 62 170 62q105 0 159.5 -59.5t54.5 -173.5zM249 83q53 0 79.5 37t26.5 102v58q0 136 -106 136
q-107 0 -107 -136v-58q0 -139 107 -139z" />
    <glyph glyph-name="afii10074.ss01" horiz-adv-x="526" 
d="M362 500h106v-500h-105v45q-19 -29 -46.5 -41.5t-76.5 -12.5q-86 0 -134.5 49t-48.5 148v312h107v-301q0 -61 24 -87.5t72 -26.5q49 0 75.5 30t26.5 83v302z" />
    <glyph glyph-name="afii10075.ss01" horiz-adv-x="526" 
d="M362 500h106v-500h-105v45q-19 -29 -46.5 -41.5t-76.5 -12.5q-86 0 -134.5 49t-48.5 148v312h107v-301q0 -61 24 -87.5t72 -26.5q49 0 75.5 30t26.5 83v302zM320 690h89q0 -124 -146 -124q-70 0 -108.5 31t-38.5 93h90q0 -58 57 -58t57 58z" />
    <glyph glyph-name="afii10081.ss01" horiz-adv-x="526" 
d="M164 0h-107v500h105v-45q40 54 124 54q86 0 134 -48.5t48 -147.5v-313h-106v301q0 113 -95 113q-48 0 -75.5 -30.5t-27.5 -81.5v-302z" />
    <glyph glyph-name="afii10084.ss01" horiz-adv-x="798" 
d="M164 0h-107v500h105v-45q36 54 117 54q97 0 143 -72q52 72 146 72q82 0 127.5 -50.5t45.5 -145.5v-313h-107v301q0 113 -89 113q-41 0 -66.5 -29t-26.5 -78v-307h-106v301q0 113 -88 113q-42 0 -68 -30.5t-26 -81.5v-302z" />
    <glyph glyph-name="uni2193.ss02" horiz-adv-x="826" 
d="M413 -107l-353 353l55 55l259 -259v586h78v-586l259 259l55 -55z" />
    <glyph glyph-name="uni2196.ss02" horiz-adv-x="667" 
d="M138 367v-367h-78v500h500v-78h-367l414 -414l-55 -55z" />
    <glyph glyph-name="uni261E.ss02" horiz-adv-x="1061" 
d="M555 51h-277v370l292 215q9 -9 19 -30q31 -62 -25 -114l-74 -71h450q61 0 61 -50t-58 -50h-229v-36q0 -29 -13 -41.5t-41 -12.5v-36q0 -29 -13 -41.5t-41 -12.5v-34q0 -30 -12 -43t-39 -13zM60 51v370h164v-370h-164zM106 396h-20v-319h20v319zM178 77h20v319h-20v-319z
M152 396h-20v-222h20v222zM152 112h-20v-35h20v35z" />
    <glyph glyph-name="uni2191.ss02" horiz-adv-x="826" 
d="M413 629l353 -353l-55 -55l-259 259v-586h-78v586l-259 -259l-55 55z" />
    <glyph glyph-name="uni2192.ss02" horiz-adv-x="855" 
d="M795 261l-353 -353l-55 55l259 259h-586v78h586l-259 259l55 55z" />
    <glyph glyph-name="acircumflex.ss01" 
d="M36 217v68q0 106 53 165t146 59q78 0 120 -44v35h106v-500h-106v34q-40 -43 -120 -43q-95 0 -147 61t-52 165zM249 83q53 0 79.5 33.5t26.5 93.5v76q0 62 -27.5 96t-78.5 34q-107 0 -107 -136v-58q0 -65 27 -102t80 -37zM97 558l108 142h100l108 -142h-102l-56 77
l-56 -77h-102z" />
    <glyph glyph-name="atilde.ss01" 
d="M36 217v68q0 106 53 165t146 59q78 0 120 -44v35h106v-500h-106v34q-40 -43 -120 -43q-95 0 -147 61t-52 165zM249 83q53 0 79.5 33.5t26.5 93.5v76q0 62 -27.5 96t-78.5 34q-107 0 -107 -136v-58q0 -65 27 -102t80 -37zM319 572q-23 0 -62 14t-54 14q-31 0 -56 -27
l-58 59q47 56 112 56q23 0 60 -15q39 -14 57 -14q28 0 53 27l58 -58q-44 -56 -110 -56z" />
    <glyph glyph-name="adieresis.ss01" 
d="M36 217v68q0 106 53 165t146 59q78 0 120 -44v35h106v-500h-106v34q-40 -43 -120 -43q-95 0 -147 61t-52 165zM249 83q53 0 79.5 33.5t26.5 93.5v76q0 62 -27.5 96t-78.5 34q-107 0 -107 -136v-58q0 -65 27 -102t80 -37zM210 585h-109v105h109v-105zM416 585h-108v105
h108v-105z" />
    <glyph glyph-name="aring.ss01" 
d="M36 217v68q0 106 53 165t146 59q78 0 120 -44v35h106v-500h-106v34q-40 -43 -120 -43q-95 0 -147 61t-52 165zM249 83q53 0 79.5 33.5t26.5 93.5v76q0 62 -27.5 96t-78.5 34q-107 0 -107 -136v-58q0 -65 27 -102t80 -37zM173 568q-33 32 -33 78t33 78q34 32 84 32t84 -32
q33 -32 33 -78t-33 -78q-32 -31 -84 -31t-84 31zM224 681q-13 -13 -13 -35t13 -36t33 -14t33 14t13 36t-13 35q-13 14 -33 14t-33 -14z" />
    <glyph glyph-name="egrave.ss01" horiz-adv-x="487" 
d="M354 132l80 -56q-49 -85 -179 -85q-104 0 -161.5 61t-57.5 165v68q0 108 54.5 166t154.5 58q96 0 146 -42.5t50 -113.5q0 -68 -50 -107t-146 -39h-103q7 -124 109 -124q41 0 64 11.5t39 37.5zM245 416q-49 0 -75.5 -33t-27.5 -92h103q90 0 90 62q0 63 -90 63zM135 725
h122l70 -158h-101z" />
    <glyph glyph-name="eacute.ss01" horiz-adv-x="487" 
d="M354 132l80 -56q-49 -85 -179 -85q-104 0 -161.5 61t-57.5 165v68q0 108 54.5 166t154.5 58q96 0 146 -42.5t50 -113.5q0 -68 -50 -107t-146 -39h-103q7 -124 109 -124q41 0 64 11.5t39 37.5zM245 416q-49 0 -75.5 -33t-27.5 -92h103q90 0 90 62q0 63 -90 63zM288 567
h-101l70 158h122z" />
    <glyph glyph-name="ecircumflex.ss01" horiz-adv-x="487" 
d="M354 132l80 -56q-49 -85 -179 -85q-104 0 -161.5 61t-57.5 165v68q0 108 54.5 166t154.5 58q96 0 146 -42.5t50 -113.5q0 -68 -50 -107t-146 -39h-103q7 -124 109 -124q41 0 64 11.5t39 37.5zM245 416q-49 0 -75.5 -33t-27.5 -92h103q90 0 90 62q0 63 -90 63zM94 558
l108 142h100l108 -142h-102l-56 77l-56 -77h-102z" />
    <glyph glyph-name="edieresis.ss01" horiz-adv-x="487" 
d="M354 132l80 -56q-49 -85 -179 -85q-104 0 -161.5 61t-57.5 165v68q0 108 54.5 166t154.5 58q96 0 146 -42.5t50 -113.5q0 -68 -50 -107t-146 -39h-103q7 -124 109 -124q41 0 64 11.5t39 37.5zM245 416q-49 0 -75.5 -33t-27.5 -92h103q90 0 90 62q0 63 -90 63zM201 585
h-109v105h109v-105zM407 585h-108v105h108v-105z" />
    <glyph glyph-name="afii10065.ss01" 
d="M36 217v68q0 106 53 165t146 59q78 0 120 -44v35h106v-500h-106v34q-40 -43 -120 -43q-95 0 -147 61t-52 165zM249 83q53 0 79.5 33.5t26.5 93.5v76q0 62 -27.5 96t-78.5 34q-107 0 -107 -136v-58q0 -65 27 -102t80 -37z" />
    <glyph glyph-name="afii10070.ss01" horiz-adv-x="487" 
d="M354 132l80 -56q-49 -85 -179 -85q-104 0 -161.5 61t-57.5 165v68q0 108 54.5 166t154.5 58q96 0 146 -42.5t50 -113.5q0 -68 -50 -107t-146 -39h-103q7 -124 109 -124q41 0 64 11.5t39 37.5zM245 416q-49 0 -75.5 -33t-27.5 -92h103q90 0 90 62q0 63 -90 63z" />
    <glyph glyph-name="afii10071.ss01" horiz-adv-x="487" 
d="M354 132l80 -56q-49 -85 -179 -85q-104 0 -161.5 61t-57.5 165v68q0 108 54.5 166t154.5 58q96 0 146 -42.5t50 -113.5q0 -68 -50 -107t-146 -39h-103q7 -124 109 -124q41 0 64 11.5t39 37.5zM245 416q-49 0 -75.5 -33t-27.5 -92h103q90 0 90 62q0 63 -90 63zM201 585
h-109v105h109v-105zM407 585h-108v105h108v-105z" />
    <glyph glyph-name="aogonek.ss01" 
d="M355 500h106v-500q-30 -22 -42 -35.5t-12 -28.5q0 -25 35 -25q4 0 20 2l14 -59q-9 -4 -47 -4q-46 0 -76.5 19.5t-30.5 56.5q0 42 33 69v39q-40 -43 -120 -43q-95 0 -147 61t-52 165v68q0 106 53 165t146 59q78 0 120 -44v35zM249 83q53 0 79.5 33.5t26.5 93.5v76
q0 62 -27.5 96t-78.5 34q-107 0 -107 -136v-58q0 -65 27 -102t80 -37z" />
    <glyph glyph-name="abreve.ss01" 
d="M36 217v68q0 106 53 165t146 59q78 0 120 -44v35h106v-500h-106v34q-40 -43 -120 -43q-95 0 -147 61t-52 165zM249 83q53 0 79.5 33.5t26.5 93.5v76q0 62 -27.5 96t-78.5 34q-107 0 -107 -136v-58q0 -65 27 -102t80 -37zM330 690h80q-2 -61 -39.5 -93.5t-103.5 -32.5
q-67 0 -104.5 32.5t-39.5 93.5h81q6 -56 63 -56t63 56z" />
    <glyph glyph-name="eogonek.ss01" horiz-adv-x="487" 
d="M354 132l80 -56q-34 -59 -101 -76q-30 -22 -42 -35.5t-12 -28.5q0 -25 35 -25q4 0 20 2l14 -59q-9 -4 -47 -4q-46 0 -76.5 19.5t-30.5 56.5q0 38 28 67q-89 9 -137.5 69t-48.5 155v68q0 108 54.5 166t154.5 58q96 0 146 -42.5t50 -113.5q0 -68 -50 -107t-146 -39h-103
q7 -124 109 -124q41 0 64 11.5t39 37.5zM245 416q-49 0 -75.5 -33t-27.5 -92h103q90 0 90 62q0 63 -90 63z" />
    <glyph glyph-name="ecaron.ss01" horiz-adv-x="487" 
d="M354 132l80 -56q-49 -85 -179 -85q-104 0 -161.5 61t-57.5 165v68q0 108 54.5 166t154.5 58q96 0 146 -42.5t50 -113.5q0 -68 -50 -107t-146 -39h-103q7 -124 109 -124q41 0 64 11.5t39 37.5zM245 416q-49 0 -75.5 -33t-27.5 -92h103q90 0 90 62q0 63 -90 63zM405 700
l-108 -142h-100l-108 142h102l56 -77l56 77h102z" />
    <glyph glyph-name="amacron.ss01" 
d="M36 217v68q0 106 53 165t146 59q78 0 120 -44v35h106v-500h-106v34q-40 -43 -120 -43q-95 0 -147 61t-52 165zM249 83q53 0 79.5 33.5t26.5 93.5v76q0 62 -27.5 96t-78.5 34q-107 0 -107 -136v-58q0 -65 27 -102t80 -37zM399 585h-277v94h277v-94z" />
    <glyph glyph-name="emacron.ss01" horiz-adv-x="487" 
d="M354 132l80 -56q-49 -85 -179 -85q-104 0 -161.5 61t-57.5 165v68q0 108 54.5 166t154.5 58q96 0 146 -42.5t50 -113.5q0 -68 -50 -107t-146 -39h-103q7 -124 109 -124q41 0 64 11.5t39 37.5zM245 416q-49 0 -75.5 -33t-27.5 -92h103q90 0 90 62q0 63 -90 63zM384 585
h-277v94h277v-94z" />
    <glyph glyph-name="edotaccent.ss01" horiz-adv-x="487" 
d="M354 132l80 -56q-49 -85 -179 -85q-104 0 -161.5 61t-57.5 165v68q0 108 54.5 166t154.5 58q96 0 146 -42.5t50 -113.5q0 -68 -50 -107t-146 -39h-103q7 -124 109 -124q41 0 64 11.5t39 37.5zM245 416q-49 0 -75.5 -33t-27.5 -92h103q90 0 90 62q0 63 -90 63zM306 581
h-116v109h116v-109z" />
    <glyph glyph-name="afii10065.var.accented.ss01" 
d="M36 217v68q0 106 53 165t146 59q78 0 120 -44v35h106v-500h-106v34q-40 -43 -120 -43q-95 0 -147 61t-52 165zM249 83q53 0 79.5 33.5t26.5 93.5v76q0 62 -27.5 96t-78.5 34q-107 0 -107 -136v-58q0 -65 27 -102t80 -37zM299 567h-101l70 158h122z" />
    <glyph glyph-name="afii10070.var.accented.ss01" horiz-adv-x="487" 
d="M354 132l80 -56q-49 -85 -179 -85q-104 0 -161.5 61t-57.5 165v68q0 108 54.5 166t154.5 58q96 0 146 -42.5t50 -113.5q0 -68 -50 -107t-146 -39h-103q7 -124 109 -124q41 0 64 11.5t39 37.5zM245 416q-49 0 -75.5 -33t-27.5 -92h103q90 0 90 62q0 63 -90 63zM288 567
h-101l70 158h122z" />
    <glyph glyph-name="afii10074.var.accented.ss01" horiz-adv-x="526" 
d="M362 500h106v-500h-105v45q-19 -29 -46.5 -41.5t-76.5 -12.5q-86 0 -134.5 49t-48.5 148v312h107v-301q0 -61 24 -87.5t72 -26.5q49 0 75.5 30t26.5 83v302zM307 567h-101l70 158h122z" />
    <glyph glyph-name="afii10071.var.accented.ss01" horiz-adv-x="487" 
d="M354 132l80 -56q-49 -85 -179 -85q-104 0 -161.5 61t-57.5 165v68q0 108 54.5 166t154.5 58q96 0 146 -42.5t50 -113.5q0 -68 -50 -107t-146 -39h-103q7 -124 109 -124q41 0 64 11.5t39 37.5zM245 416q-49 0 -75.5 -33t-27.5 -92h103q90 0 90 62q0 63 -90 63zM282 717
h-101l70 158h122zM187 585h-109v105h109v-105zM393 585h-108v105h108v-105z" />
    <glyph glyph-name="uni04E3.ss01" horiz-adv-x="526" 
d="M362 500h106v-500h-105v45q-19 -29 -46.5 -41.5t-76.5 -12.5q-86 0 -134.5 49t-48.5 148v312h107v-301q0 -61 24 -87.5t72 -26.5q49 0 75.5 30t26.5 83v302zM402 585h-277v94h277v-94z" />
    <glyph glyph-name="afii10193.ss01" horiz-adv-x="526" 
d="M362 500h106v-500h-105v45q-29 -44 -79 -51v-111h-88v112q-66 10 -102.5 58.5t-36.5 134.5v312h107v-301q0 -61 24 -87.5t72 -26.5q49 0 75.5 30t26.5 83v302z" />
    <glyph glyph-name="uni2190.ss02" horiz-adv-x="855" 
d="M209 222l259 -259l-55 -55l-353 353l353 353l55 -55l-259 -259h586v-78h-586z" />
    <glyph glyph-name="aacute.ss01" 
d="M36 217v68q0 106 53 165t146 59q78 0 120 -44v35h106v-500h-106v34q-40 -43 -120 -43q-95 0 -147 61t-52 165zM249 83q53 0 79.5 33.5t26.5 93.5v76q0 62 -27.5 96t-78.5 34q-107 0 -107 -136v-58q0 -65 27 -102t80 -37zM299 567h-101l70 158h122z" />
    <glyph glyph-name="agrave.ss01" 
d="M36 217v68q0 106 53 165t146 59q78 0 120 -44v35h106v-500h-106v34q-40 -43 -120 -43q-95 0 -147 61t-52 165zM249 83q53 0 79.5 33.5t26.5 93.5v76q0 62 -27.5 96t-78.5 34q-107 0 -107 -136v-58q0 -65 27 -102t80 -37zM145 725h122l70 -158h-101z" />
    <glyph glyph-name="afii10091.ss01" horiz-adv-x="806" 
d="M614 500h107v-408h67v-209h-100v117h-72v45q-38 -54 -111 -54q-96 0 -140 71q-53 -71 -139 -71q-81 0 -125 50.5t-44 145.5v313h107v-301q0 -114 85 -114q40 0 63.5 30t23.5 83v302h106v-301q0 -114 84 -114q41 0 64.5 30t23.5 83v302z" />
    <glyph glyph-name="afii10090.ss01" horiz-adv-x="779" 
d="M336 198v302h106v-301q0 -114 84 -114q41 0 64.5 30t23.5 83v302h107v-500h-105v45q-38 -54 -111 -54q-96 0 -140 71q-53 -71 -139 -71q-81 0 -125 50.5t-44 145.5v313h107v-301q0 -114 85 -114q40 0 63.5 30t23.5 83z" />
    <glyph glyph-name="afii10088.ss01" horiz-adv-x="554" 
d="M362 500h106v-408h68v-209h-100v117h-73v45q-19 -29 -46.5 -41.5t-76.5 -12.5q-86 0 -134.5 49t-48.5 148v312h107v-301q0 -61 24 -87.5t72 -26.5q49 0 75.5 30t26.5 83v302z" />
    <glyph glyph-name="e.ss01" horiz-adv-x="487" 
d="M354 132l80 -56q-49 -85 -179 -85q-104 0 -161.5 61t-57.5 165v68q0 108 54.5 166t154.5 58q96 0 146 -42.5t50 -113.5q0 -68 -50 -107t-146 -39h-103q7 -124 109 -124q41 0 64 11.5t39 37.5zM245 416q-49 0 -75.5 -33t-27.5 -92h103q90 0 90 62q0 63 -90 63z" />
    </font>
</defs>
</svg>
