<?xml version="1.0" standalone="no"?>
<!DOCTYPE svg PUBLIC "-//W3C//DTD SVG 1.1//EN" "http://www.w3.org/Graphics/SVG/1.1/DTD/svg11.dtd" >
<svg xmlns="http://www.w3.org/2000/svg" xmlns:xlink="http://www.w3.org/1999/xlink" version="1.1">
<metadata>
Created by FontForge 20190801 at Sun Jan 31 02:59:19 2016
 By Jimmy Wärting
Copyright (c) 2014 ParaType Inc., ParaType Ltd. All rights reserved.
</metadata>
<defs>
<font id="DIN2014-ExtraLightItalic" horiz-adv-x="481" >
  <font-face 
    font-family="DIN 2014"
    font-weight="250"
    font-style="italic"
    font-stretch="normal"
    units-per-em="1000"
    panose-1="2 11 3 4 2 2 2 9 2 4"
    ascent="779"
    descent="-221"
    x-height="500"
    cap-height="690"
    bbox="-175 -271 3054 953"
    underline-thickness="50"
    underline-position="-250"
    slope="-11"
    unicode-range="U+0020-1F4F1"
  />
<missing-glyph horiz-adv-x="250" 
 />
    <glyph glyph-name="afii10017.var.accented" unicode="&#x410;`" horiz-adv-x="522" 
d="M144 178l-95 -178h-34l366 690h28l98 -690h-30l-25 178h-308zM447 208l-61 427l-227 -427h288zM437 767h-30l90 129h35z" />
    <glyph glyph-name="afii10022.var.accented" unicode="&#x415;`" horiz-adv-x="546" 
d="M95 0l134 690h396l-6 -30h-366l-56 -288h336l-6 -30h-336l-60 -312h366l-6 -30h-396zM445 767h-30l90 129h35z" />
    <glyph glyph-name="afii10026.var.accented" unicode="&#x418;`" horiz-adv-x="656" 
d="M95 0l134 690h30l-123 -632l529 632h30l-134 -690h-30l123 632l-529 -632h-30zM480 767h-30l90 129h35z" />
    <glyph glyph-name="afii10032.var.accented" unicode="&#x41e;`" horiz-adv-x="600" 
d="M616 391l-18 -92q-59 -305 -296 -305q-112 0 -162.5 78t-21.5 227l18 92q32 158 105 231.5t193 73.5q112 0 161.5 -80t20.5 -225zM166 391l-18 -92q-27 -139 15 -207t142 -68q210 0 263 275l18 92q27 140 -14.5 207.5t-141.5 67.5q-104 0 -169.5 -66t-94.5 -209zM456 767
h-30l90 129h35z" />
    <glyph glyph-name="afii10037.var.accented" unicode="&#x423;`" horiz-adv-x="572" 
d="M329 152l324 538h35l-347 -574q-44 -72 -86 -97q-41 -25 -125 -25l6 30q69 0 103 19q35 20 68 74l-143 573h31zM464 767h-30l90 129h35z" />
    <glyph glyph-name="afii10045.var.accented" unicode="&#x42b;`" horiz-adv-x="740" 
d="M95 0l134 690h30l-58 -297h153q105 0 154 -49q50 -50 50 -115q0 -46 -15.5 -85.5t-47.5 -72.5t-87.5 -52t-129.5 -19h-183zM349 363h-153l-65 -333h153q117 0 180.5 52.5t63.5 142.5q0 64 -46 101t-133 37zM749 690h30l-134 -690h-30zM528 767h-30l90 129h35z" />
    <glyph glyph-name="afii10047.var.accented" unicode="&#x42d;`" horiz-adv-x="583" 
d="M557 332h-306l6 30h306l6 29q29 144 -10.5 209.5t-145.5 65.5q-177 0 -243 -177h-30q70 207 279 207q115 0 162 -76t18 -229l-18 -92q-32 -158 -106 -231.5t-193 -73.5q-37 0 -71.5 11.5t-64.5 35.5t-46.5 66.5t-13.5 97.5h29q-1 -87 44 -134t129 -47q105 0 171 66
t92 209zM445 767h-30l90 129h35z" />
    <glyph glyph-name="afii10048.var.accented" unicode="&#x42e;`" horiz-adv-x="788" 
d="M806 401l-22 -112q-29 -153 -99 -224t-183 -71q-106 0 -150.5 75t-17.5 220l10 53h-153l-66 -342h-30l134 690h30l-62 -318h153l6 29q30 153 100 224t182 71q107 0 152 -75t16 -220zM386 401l-22 -112q-52 -265 144 -265q96 0 157.5 63t88.5 202l22 112q52 265 -144 265
q-96 0 -157.5 -62.5t-88.5 -202.5zM434 767h-30l90 129h35z" />
    <glyph glyph-name="afii10049.var.accented" unicode="&#x42f;`" horiz-adv-x="604" 
d="M298 299l-220 -299h-38l226 306q-118 39 -118 151q0 111 75.5 172t209.5 61h210l-134 -690h-30l57 295h-180q-37 0 -58 4zM362 325h180l65 335h-180q-115 0 -181.5 -51t-66.5 -149q0 -135 183 -135zM464 767h-30l90 129h35z" />
    <glyph glyph-name="afii10023.var.accented" unicode="&#x401;`" horiz-adv-x="546" 
d="M95 0l134 690h396l-6 -30h-366l-56 -288h336l-6 -30h-336l-60 -312h366l-6 -30h-396zM592 869l-8 -44h-44l8 44h44zM382 869l-8 -44h-44l8 44h44zM459 824h-30l90 129h35z" />
    <glyph glyph-name="afii10065.var.accented" unicode="&#x430;`" 
d="M74 114q0 77 48 121t135 44h173l13 68q14 75 -10.5 102t-103.5 27q-52 0 -88 -11q-32 -10 -66 -53l-22 19q32 42 73 58.5t108 16.5q89 0 122.5 -37t16.5 -122l-67 -347h-30l14 71q-47 -77 -168 -77q-70 0 -109 31.5t-39 88.5zM411 179l13 70h-173q-74 0 -110.5 -36
t-36.5 -96q0 -93 120 -93q74 0 123 38.5t64 116.5zM376 567h-30l111 158h35z" />
    <glyph glyph-name="afii10070.var.accented" unicode="&#x435;`" 
d="M483 292l-10 -50h-346l-6 -32q-18 -89 17 -137.5t123 -48.5q92 0 153 67l23 -18q-69 -79 -179 -79q-98 0 -142 57t-25 159l16 82q42 214 226 214q90 0 130 -56t20 -158zM137 292l-4 -20h316l4 20q36 184 -122 184q-157 0 -194 -184zM345 567h-30l111 158h35z" />
    <glyph glyph-name="afii10074.var.accented" unicode="&#x438;`" horiz-adv-x="536" 
d="M172 500h30l-87 -447l413 447h30l-97 -500h-30l87 448l-413 -448h-30zM359 567h-30l111 158h35z" />
    <glyph glyph-name="afii10080.var.accented" unicode="&#x43e;`" horiz-adv-x="496" 
d="M503 292l-16 -84q-40 -214 -237 -214q-93 0 -135.5 56t-23.5 158l16 84q40 214 237 214q94 0 136 -56t23 -158zM457 208l16 84q36 184 -132 184q-170 0 -204 -184l-16 -84q-36 -184 132 -184q170 0 204 184zM355 567h-30l111 158h35z" />
    <glyph glyph-name="afii10085.var.accented" unicode="&#x443;`" horiz-adv-x="452" 
d="M37 -190l6 30q64 2 95 31q32 29 80 113l4 7l-115 509h31l105 -470l258 470h33l-289 -523q-53 -95 -95 -131q-41 -36 -113 -36zM354 567h-30l111 158h35z" />
    <glyph glyph-name="afii10093.var.accented" unicode="&#x44b;`" horiz-adv-x="599" 
d="M202 500l-40 -206h131q75 0 115.5 -34t40.5 -88q0 -80 -53 -126t-160 -46h-161l97 500h30zM287 264h-131l-45 -234h131q86 0 131 35.5t45 103.5q0 95 -131 95zM494 0l97 500h30l-97 -500h-30zM414 567h-30l111 158h35z" />
    <glyph glyph-name="afii10095.var.accented" unicode="&#x44d;`" horiz-adv-x="459" 
d="M426 239h-238l6 30h238l4 23q16 90 -20.5 137t-120.5 47q-91 0 -151 -63l-22 18q69 75 179 75q95 0 139.5 -58.5t25.5 -155.5l-16 -82q-42 -216 -248 -216q-113 0 -152 79l27 16q35 -65 130 -65q174 0 213 186zM334 567h-30l111 158h35z" />
    <glyph glyph-name="afii10096.var.accented" unicode="&#x44e;`" horiz-adv-x="656" 
d="M422 -6q-86 0 -124 56.5t-17 159.5l6 29h-136l-46 -239h-30l97 500h30l-45 -231h136l4 23q37 214 224 214q87 0 124.5 -56.5t17.5 -157.5l-16 -82q-22 -110 -76.5 -163t-148.5 -53zM428 24q151 0 188 184l17 84q37 184 -117 184q-152 0 -189 -184l-17 -84
q-19 -90 12 -137t106 -47zM364 567h-30l111 158h35z" />
    <glyph glyph-name="afii10097.var.accented" unicode="&#x44f;`" horiz-adv-x="500" 
d="M522 500l-97 -500h-30l40 207h-144q-4 0 -34 2l-174 -209h-38l179 216q-95 26 -95 114q0 78 56 124t163 46h174zM297 237h144l45 233h-144q-88 0 -135.5 -36.5t-47.5 -100.5q0 -46 35.5 -71t102.5 -25zM384 567h-30l111 158h35z" />
    <glyph glyph-name="afii10071.var.accented" unicode="&#x451;`" 
d="M483 292l-10 -50h-346l-6 -32q-18 -89 17 -137.5t123 -48.5q92 0 153 67l23 -18q-69 -79 -179 -79q-98 0 -142 57t-25 159l16 82q42 214 226 214q90 0 130 -56t20 -158zM137 292l-4 -20h316l4 20q36 184 -122 184q-157 0 -194 -184zM513 690l-8 -44h-44l8 44h44zM303 690
l-8 -44h-44l8 44h44zM398 717h-30l111 158h35z" />
    <glyph glyph-name="fi" unicode="fi" horiz-adv-x="465" 
d="M350 0h-30l91 470h-195l-91 -470h-30l91 470h-64l6 30h64l7 36q16 84 52 120q34 34 110 34h23l-6 -30h-20q-66 0 -91 -28q-24 -27 -38 -98l-7 -34h225z" />
    <glyph glyph-name="fl" unicode="fl" horiz-adv-x="510" 
d="M350 154l98 506h-90q-66 0 -92 -29q-23 -28 -37 -96l-7 -35h125l-6 -30h-125l-91 -470h-30l91 470h-64l6 30h64l7 36q17 83 50 118q35 36 112 36h123l-104 -536q-17 -62 0.5 -93t80.5 -31l-6 -30q-75 0 -98 36t-7 118z" />
    <glyph glyph-name=".notdef" horiz-adv-x="250" 
 />
    <glyph glyph-name=".null" horiz-adv-x="0" 
 />
    <glyph glyph-name="nonmarkingreturn" horiz-adv-x="333" 
 />
    <glyph glyph-name="space" unicode=" " horiz-adv-x="250" 
 />
    <glyph glyph-name="exclam" unicode="!" horiz-adv-x="180" 
d="M209 690h30l-103 -531h-30zM110 0h-40l8 40h40z" />
    <glyph glyph-name="quotedbl" unicode="&#x22;" horiz-adv-x="246" 
d="M184 690h30l-33 -169h-30zM300 690h30l-33 -169h-30z" />
    <glyph glyph-name="numbersign" unicode="#" horiz-adv-x="555" 
d="M80 440v30h144l41 220h31l-41 -220h206l42 220h31l-41 -220h130v-30h-136l-34 -180h133v-30h-138l-43 -230h-31l43 230h-207l-42 -230h-31l42 230h-136v30h142l33 180h-138zM456 440h-207l-33 -180h206z" />
    <glyph glyph-name="dollar" unicode="$" horiz-adv-x="480" 
d="M553 583l-29 -15q-20 50 -46 72t-88 25l-59 -307q157 -42 157 -163q0 -89 -57 -143.5t-171 -57.5l-21 -110h-30l21 111q-125 5 -175 113l26 15q21 -44 55 -71q32 -25 100 -28l60 313q-78 25 -114 63.5t-36 106.5q0 74 50 129q51 55 170 60l23 116h30l-23 -117
q120 -7 157 -112zM457 190q0 54 -31.5 87.5t-100.5 52.5l-59 -306q96 4 143.5 48t47.5 118zM177 509q0 -60 30 -91.5t96 -51.5l58 300q-89 -3 -136.5 -43.5t-47.5 -113.5z" />
    <glyph glyph-name="percent" unicode="%" horiz-adv-x="720" 
d="M144 0l518 690h36l-517 -690h-37zM236 372q104 0 127 117l12 63q11 57 -10 86t-72 29q-104 0 -126 -115l-12 -63q-23 -117 81 -117zM233 342q-61 0 -91 39.5t-17 107.5l12 63q28 145 158 145q63 0 93 -39.5t17 -105.5l-12 -63q-29 -147 -160 -147zM560 24q104 0 127 117
l12 63q11 57 -10 86t-72 29q-104 0 -126 -115l-12 -63q-23 -117 81 -117zM557 -6q-61 0 -91 39.5t-17 107.5l12 63q28 145 158 145q63 0 93 -39.5t17 -105.5l-12 -63q-29 -147 -160 -147z" />
    <glyph glyph-name="ampersand" unicode="&#x26;" horiz-adv-x="641" 
d="M81 150q0 54 30 101t65 74q30 24 96 65q-48 68 -48 136q0 77 46 123.5t119 46.5q54 0 83.5 -28.5t29.5 -69.5q0 -70 -53 -120q-35 -31 -53 -44l-69 -45q-4 -2 -13 -8l163 -241q64 81 84 182h31q-23 -120 -96 -208l77 -114h-38l-60 90q-93 -96 -215 -96q-86 0 -132 46
q-47 47 -47 110zM263 24q109 0 194 91l-169 250q-44 -28 -68 -46q-21 -15 -52 -43q-56 -52 -56 -123q0 -59 40.5 -94t110.5 -35zM255 530q0 -38 9 -63.5t33 -60.5q93 57 118 79q54 49 56 108q0 34 -21.5 53.5t-63.5 19.5q-58 0 -94.5 -37t-36.5 -99z" />
    <glyph glyph-name="quotesingle" unicode="'" horiz-adv-x="130" 
d="M184 690h30l-33 -169h-30z" />
    <glyph glyph-name="parenleft" unicode="(" horiz-adv-x="286" 
d="M235 -94l-20 -22q-82 74 -101 132q-19 56 -2 146l72 372q16 86 59 146q42 58 152 132l15 -25q-110 -75 -147 -129q-37 -53 -53 -143l-65 -334q-11 -55 -12 -97t22.5 -84t79.5 -94z" />
    <glyph glyph-name="parenright" unicode=")" horiz-adv-x="286" 
d="M186 790l20 22q80 -73 100 -132q19 -58 3 -146l-72 -372q-16 -86 -59 -146q-42 -58 -152 -132l-15 25q110 75 146 128q37 54 54 144l65 334q11 55 12 97t-22.5 84t-79.5 94z" />
    <glyph glyph-name="asterisk" unicode="*" horiz-adv-x="429" 
d="M259 680h30l-4 -145l124 76l15 -26l-127 -70l127 -69l-15 -26l-124 76l4 -145h-30l3 144l-123 -75l-15 26l127 69l-127 70l15 26l123 -76z" />
    <glyph glyph-name="plus" unicode="+" horiz-adv-x="480" 
d="M293 339h-169v30h169v170h30v-170h170v-30h-170v-169h-30v169z" />
    <glyph glyph-name="comma" unicode="," horiz-adv-x="180" 
d="M78 40h40l-21 -110l-47 -35z" />
    <glyph glyph-name="hyphen" unicode="-" horiz-adv-x="299" 
d="M337 274h-239v30h239v-30z" />
    <glyph glyph-name="period" unicode="." horiz-adv-x="186" 
d="M78 46h46l-8 -46h-46z" />
    <glyph glyph-name="slash" unicode="/" horiz-adv-x="443" 
d="M570 812l-513 -928h-35l513 928h35z" />
    <glyph glyph-name="zero" unicode="0" horiz-adv-x="480" 
d="M525 497l-59 -304q-18 -93 -78.5 -146t-144.5 -53q-82 0 -126 56q-43 56 -27 144l59 302q18 97 78.5 148.5t144.5 51.5q81 0 125 -56q45 -55 28 -143zM179 497l-59 -304q-15 -77 20 -123t105 -46q73 0 124.5 46t66.5 123l59 304q15 77 -20 123t-105 46
q-73 0 -124.5 -44.5t-66.5 -124.5z" />
    <glyph glyph-name="one" unicode="1" horiz-adv-x="480" 
d="M368 690h30l-134 -690h-30l127 650l-113 -71l6 35z" />
    <glyph glyph-name="two" unicode="2" horiz-adv-x="480" 
d="M104 30h335l-6 -30h-385l5 24l311 299q83 79 115 124q29 43 29 93q0 59 -37 92.5t-95 33.5q-68 0 -119.5 -41t-68.5 -114h-30q16 85 78 135t143 50q68 0 114 -44q45 -43 45 -110q0 -65 -49 -128q-43 -55 -106 -114q-11 -11 -16 -15z" />
    <glyph glyph-name="three" unicode="3" horiz-adv-x="480" 
d="M295 341h-33l6 30h33q103 0 155.5 45t52.5 126q0 55 -36 89.5t-96 34.5q-69 0 -120 -40.5t-66 -105.5h-30q15 78 77 127t141 49q69 0 115 -44q45 -44 45 -105q0 -158 -154 -192q45 -13 72.5 -51t27.5 -89q0 -98 -65 -160q-64 -61 -164 -61q-90 0 -135 49.5t-36 131.5h30
q-11 -151 144 -151q81 0 138 51q57 53 57 138q0 61 -41 94.5t-118 33.5z" />
    <glyph glyph-name="four" unicode="4" horiz-adv-x="480" 
d="M66 160l353 530h35l-349 -524h280l44 227h30l-44 -227h76l-6 -30h-76l-26 -136h-30l26 136h-318z" />
    <glyph glyph-name="five" unicode="5" horiz-adv-x="480" 
d="M328 438q-91 0 -162 -107h-26l70 359h330l-6 -30h-300l-52 -265q61 73 150 73q74 0 114.5 -47.5t40.5 -128.5q0 -144 -62.5 -221t-180.5 -77q-73 0 -116 49t-37 121h30q-6 -62 30 -101t96 -39q101 0 155 65.5t54 196.5q0 152 -128 152z" />
    <glyph glyph-name="six" unicode="6" horiz-adv-x="480" 
d="M318 402q69 0 113 -47q45 -47 45 -115q0 -108 -66 -177t-168 -69q-68 0 -111 46t-43 119q0 24 4 43q7 39 21 70l15 28l20 30l18 29l208 331h37l-204 -320q50 32 111 32zM118 162q0 -64 34.5 -101t95.5 -37q83 0 140 60t57 151q0 63 -35 100t-95 37q-85 0 -141 -59
t-56 -151z" />
    <glyph glyph-name="seven" unicode="7" horiz-adv-x="480" 
d="M212 660l-27 -139h-30l33 169h368l-6 -30l-362 -660h-35l363 660h-304z" />
    <glyph glyph-name="eight" unicode="8" horiz-adv-x="480" 
d="M113 157q0 -57 37 -95t94 -38q79 0 135 53q57 54 57 130q0 57 -37 95.5t-94 38.5q-75 0 -134 -54q-58 -52 -58 -130zM190 494q0 -52 34 -87.5t87 -35.5q74 0 127 50t53 120q0 54 -34.5 89.5t-88.5 35.5q-73 0 -126 -50q-52 -49 -52 -122zM83 152q0 73 42 127t113 79
q-36 19 -57.5 54.5t-21.5 77.5q0 88 62 147t149 59q64 0 107 -45q44 -44 44 -105q0 -67 -37 -117.5t-103 -73.5q39 -21 62.5 -60t23.5 -84q0 -94 -67 -155q-67 -62 -158 -62q-69 0 -114 47t-45 111z" />
    <glyph glyph-name="nine" unicode="9" horiz-adv-x="480" 
d="M296 288q-70 0 -114 45q-44 47 -44 117q0 107 65 177q66 69 165 69q71 0 114.5 -44.5t43.5 -119.5q0 -30 -6 -50q-11 -38 -15 -45q-11 -25 -21 -43q-3 -5 -5.5 -9.5t-4.5 -6.5l-1 -3l-13 -21l-13 -20l-208 -334h-36l199 317q-50 -29 -106 -29zM298 318q91 0 144 68
q54 68 54 150q0 60 -34.5 95t-95.5 35q-86 0 -142 -60q-55 -58 -55 -151q0 -63 34.5 -100t94.5 -37z" />
    <glyph glyph-name="colon" unicode=":" horiz-adv-x="180" 
d="M78 40h40l-8 -40h-40zM167 500h40l-8 -40h-40z" />
    <glyph glyph-name="semicolon" unicode=";" horiz-adv-x="180" 
d="M78 40h40l-21 -110l-47 -35zM168 500h40l-8 -40h-40z" />
    <glyph glyph-name="less" unicode="&#x3c;" horiz-adv-x="385" 
d="M413 550v-35l-269 -162l269 -161v-35l-305 183v27z" />
    <glyph glyph-name="equal" unicode="=" horiz-adv-x="529" 
d="M527 420h-389v31h389v-31zM527 256h-389v31h389v-31z" />
    <glyph glyph-name="greater" unicode="&#x3e;" horiz-adv-x="385" 
d="M108 192l269 161l-269 162v35l305 -183v-27l-305 -183v35z" />
    <glyph glyph-name="question" unicode="?" horiz-adv-x="487" 
d="M300 218l-11 -59h-30l11 59q12 60 50 90l56 43q79 61 105 97q27 38 27 92q0 59 -37 92.5t-95 33.5q-70 0 -120.5 -40.5t-67.5 -114.5h-30q17 86 77 135q62 50 142 50q69 0 115 -43t46 -111q0 -37 -13 -74q-4 -11 -36 -57q-7 -10 -47 -45l-26 -20l-23 -18l-49 -39
q-36 -27 -44 -71zM263 0h-40l7 40h40z" />
    <glyph glyph-name="at" unicode="@" horiz-adv-x="898" 
d="M674 484h30l-51 -259q-27 -137 61 -137q78 0 122 75q45 76 45 191q0 77 -25.5 136.5t-69.5 94.5t-97 52.5t-113 17.5q-97 0 -183.5 -37.5t-145.5 -101.5q-57 -64 -89.5 -145t-32.5 -165q0 -145 90 -226q91 -82 225 -82q144 0 242 59l10 -28q-40 -25 -110 -43t-148 -18
q-140 0 -240 91q-100 90 -100 243q0 106 41 199t112 155q69 61 157 95t178 34q143 0 236 -90q93 -88 93 -242q0 -125 -52 -210t-148 -85q-39 0 -63 20t-29 55q-41 -75 -159 -75q-83 0 -116 47.5t-16 136.5l12 64q18 98 64.5 140.5t129.5 42.5q107 0 128 -66zM463 88
q73 0 109.5 33t51.5 106l17 87q15 75 -11 110t-95 35q-75 0 -112 -34.5t-53 -118.5l-12 -64q-15 -79 10 -116.5t95 -37.5z" />
    <glyph glyph-name="A" unicode="A" horiz-adv-x="522" 
d="M144 178l-95 -178h-34l366 690h28l98 -690h-30l-25 178h-308zM447 208l-61 427l-227 -427h288z" />
    <glyph glyph-name="B" unicode="B" horiz-adv-x="596" 
d="M95 0l134 690h198q98 0 150 -40t52 -111t-44.5 -118.5t-114.5 -63.5q56 -14 86 -52.5t30 -96.5q0 -80 -59 -140q-66 -68 -209 -68h-223zM364 344h-172l-61 -314h193q111 0 171 51q61 51 61 123q0 140 -192 140zM421 660h-168l-55 -286h188q101 0 156.5 45t55.5 117
q0 124 -177 124z" />
    <glyph glyph-name="C" unicode="C" horiz-adv-x="583" 
d="M633 489h-30q2 89 -43 133t-130 44q-108 0 -171.5 -64t-92.5 -211l-18 -92q-29 -144 11.5 -209.5t145.5 -65.5q179 0 243 181h29q-25 -77 -72 -127q-81 -84 -203 -84q-117 0 -165.5 75t-18.5 230l18 92q32 161 104 233t194 72q88 0 147 -53q58 -52 52 -154z" />
    <glyph glyph-name="D" unicode="D" horiz-adv-x="605" 
d="M295 0h-200l134 690h200q120 0 170.5 -75t21.5 -224l-18 -92q-32 -165 -105 -232q-71 -67 -203 -67zM131 30h170q110 0 177 59t95 210l18 92q27 143 -15.5 206t-152.5 63h-170z" />
    <glyph glyph-name="E" unicode="E" horiz-adv-x="546" 
d="M95 0l134 690h396l-6 -30h-366l-56 -288h336l-6 -30h-336l-60 -312h366l-6 -30h-396z" />
    <glyph glyph-name="F" unicode="F" horiz-adv-x="541" 
d="M95 0l134 690h396l-6 -30h-366l-59 -304h336l-6 -30h-336l-63 -326h-30z" />
    <glyph glyph-name="G" unicode="G" horiz-adv-x="604" 
d="M361 295l5 30h241l-3 -16q-30 -163 -105.5 -239t-197.5 -76q-116 0 -164 76t-19 229l18 92q32 161 103.5 233t193.5 72q91 0 148 -54q58 -52 52 -153h-30q2 89 -43 133t-130 44q-108 0 -171.5 -64t-92.5 -211l-18 -92q-29 -143 11.5 -209t145.5 -66q212 0 267 271h-211z
" />
    <glyph glyph-name="H" unicode="H" horiz-adv-x="638" 
d="M229 690h30l-61 -316h388l61 316h30l-134 -690h-30l67 344h-388l-67 -344h-30z" />
    <glyph glyph-name="I" unicode="I" horiz-adv-x="240" 
d="M239 690h30l-134 -690h-30z" />
    <glyph glyph-name="J" unicode="J" horiz-adv-x="505" 
d="M35 81l26 13q37 -70 132 -70q102 0 159.5 62.5t83.5 200.5l78 403h31l-79 -404q-31 -162 -100 -228q-67 -64 -177 -64q-113 0 -154 87z" />
    <glyph glyph-name="K" unicode="K" horiz-adv-x="601" 
d="M378 413l213 -413h-34l-202 392l-188 -176l-42 -216h-30l134 690h30l-82 -424l453 424h44z" />
    <glyph glyph-name="L" unicode="L" horiz-adv-x="501" 
d="M229 690h30l-128 -660h366l-6 -30h-396z" />
    <glyph glyph-name="M" unicode="M" horiz-adv-x="752" 
d="M229 690h28l158 -486l348 486h28l-134 -690h-30l120 617l-323 -453h-28l-150 459l-121 -623h-30z" />
    <glyph glyph-name="N" unicode="N" horiz-adv-x="638" 
d="M523 57l124 633h30l-134 -690h-28l-267 630l-123 -630h-30l134 690h28z" />
    <glyph glyph-name="O" unicode="O" horiz-adv-x="600" 
d="M616 391l-18 -92q-59 -305 -296 -305q-112 0 -162.5 78t-21.5 227l18 92q32 158 105 231.5t193 73.5q112 0 161.5 -80t20.5 -225zM166 391l-18 -92q-27 -139 15 -207t142 -68q210 0 263 275l18 92q27 140 -14.5 207.5t-141.5 67.5q-104 0 -169.5 -66t-94.5 -209z" />
    <glyph glyph-name="P" unicode="P" horiz-adv-x="586" 
d="M350 283h-170l-55 -283h-30l134 690h200q102 0 159 -46t57 -125q0 -114 -76.5 -175t-218.5 -61zM253 660l-67 -347h170q127 0 193 52.5t66 150.5q0 144 -192 144h-170z" />
    <glyph glyph-name="Q" unicode="Q" horiz-adv-x="600" 
d="M588 10l-23 -20l-71 80q-73 -76 -192 -76q-112 0 -162.5 78t-21.5 227l18 92q32 158 105 231.5t193 73.5q112 0 161.5 -80t20.5 -225l-18 -92q-26 -132 -83 -205zM166 391l-18 -92q-27 -139 15 -207t142 -68q104 0 170 69l-109 125l25 22l105 -123q48 64 72 182l18 92
q27 140 -14.5 207.5t-141.5 67.5q-104 0 -169.5 -66t-94.5 -209z" />
    <glyph glyph-name="R" unicode="R" horiz-adv-x="604" 
d="M455 305l109 -305h-32l-107 299q-23 -4 -63 -4h-180l-57 -295h-30l134 690h210q98 0 152.5 -44t54.5 -119q0 -95 -47 -148t-144 -74zM253 660l-65 -335h180q248 0 248 196q0 139 -183 139h-180z" />
    <glyph glyph-name="S" unicode="S" horiz-adv-x="568" 
d="M614 582l-28 -16q-40 100 -174 100q-100 0 -156.5 -42.5t-56.5 -116.5q0 -72 54 -104q27 -15 49 -24q17 -6 64 -19q94 -26 137 -62q46 -36 46 -110q0 -90 -66 -142t-191 -52q-158 0 -214 114l25 16q28 -50 72 -75t121 -25q106 0 164.5 43.5t58.5 114.5q0 62 -37 95
t-126 55q-98 26 -143 63t-45 108q0 83 61 138t187 55q142 0 198 -114z" />
    <glyph glyph-name="T" unicode="T" horiz-adv-x="516" 
d="M143 660l6 30h486l-6 -30h-228l-128 -660h-30l128 660h-228z" />
    <glyph glyph-name="U" unicode="U" horiz-adv-x="670" 
d="M337 -6q-105 0 -161 72t-27 216l80 408h29l-79 -408q-25 -126 16.5 -192t143.5 -66q211 0 260 258l79 408h30l-79 -408q-55 -288 -292 -288z" />
    <glyph glyph-name="V" unicode="V" horiz-adv-x="548" 
d="M260 0l-116 690h31l107 -641l357 641h33l-384 -690h-28z" />
    <glyph glyph-name="W" unicode="W" horiz-adv-x="797" 
d="M180 0l-36 690h31l33 -643l308 643h31l59 -643l283 643h32l-304 -690h-37l-58 636l-305 -636h-37z" />
    <glyph glyph-name="X" unicode="X" horiz-adv-x="552" 
d="M343 331l-270 -331h-39l294 359l-143 331h33l130 -304l248 304h39l-271 -331l154 -359h-33z" />
    <glyph glyph-name="Y" unicode="Y" horiz-adv-x="516" 
d="M303 309l-159 381h32l145 -348l281 348h38l-307 -381l-60 -309h-30z" />
    <glyph glyph-name="Z" unicode="Z" horiz-adv-x="509" 
d="M163 660l6 30h429l-5 -28l-513 -632h400l-6 -30h-439l5 28l513 632h-390z" />
    <glyph glyph-name="bracketleft" unicode="[" horiz-adv-x="275" 
d="M218 -60h-145l157 810h145l-5 -30h-115l-146 -750h115z" />
    <glyph glyph-name="backslash" unicode="\" horiz-adv-x="444" 
d="M368 -116l-338 928h31l338 -928h-31z" />
    <glyph glyph-name="bracketright" unicode="]" horiz-adv-x="275" 
d="M300 720h-115l5 30h145l-157 -810h-145l6 30h115z" />
    <glyph glyph-name="asciicircum" unicode="^" horiz-adv-x="454" 
d="M85 437l174 253h38l174 -253h-38l-155 228l-155 -228h-38z" />
    <glyph glyph-name="underscore" unicode="_" horiz-adv-x="526" 
d="M0 -123v30h526v-30h-526z" />
    <glyph glyph-name="grave" unicode="`" horiz-adv-x="329" 
d="M211 725h35l49 -158h-30z" />
    <glyph glyph-name="a" unicode="a" 
d="M74 114q0 77 48 121t135 44h173l13 68q14 75 -10.5 102t-103.5 27q-52 0 -88 -11q-32 -10 -66 -53l-22 19q32 42 73 58.5t108 16.5q89 0 122.5 -37t16.5 -122l-67 -347h-30l14 71q-47 -77 -168 -77q-70 0 -109 31.5t-39 88.5zM411 179l13 70h-173q-74 0 -110.5 -36
t-36.5 -96q0 -93 120 -93q74 0 123 38.5t64 116.5z" />
    <glyph glyph-name="b" unicode="b" horiz-adv-x="511" 
d="M209 690h30l-50 -261q57 77 177 77q93 0 132.5 -56t19.5 -158l-16 -82q-22 -112 -78 -164t-154 -52q-125 0 -150 79l-15 -73h-30zM276 24q83 0 130.5 46t65.5 140l16 82q36 184 -124 184q-89 0 -137 -44.5t-64 -132.5l-17 -90q-18 -95 10.5 -140t119.5 -45z" />
    <glyph glyph-name="c" unicode="c" horiz-adv-x="443" 
d="M414 91l23 -18q-69 -79 -179 -79q-97 0 -142 57.5t-25 158.5l16 82q40 214 247 214q107 0 150 -76l-26 -15q-39 61 -128 61q-179 0 -213 -184l-16 -82q-18 -89 17 -137.5t123 -48.5q92 0 153 67z" />
    <glyph glyph-name="d" unicode="d" horiz-adv-x="511" 
d="M489 425l51 265h30l-134 -690h-30l14 70q-30 -41 -72 -58.5t-106 -17.5q-92 0 -131.5 56.5t-19.5 159.5l16 82q22 111 77.5 162.5t154.5 51.5q121 0 150 -81zM245 24q92 0 138 45t64 140l17 90q16 88 -13 132.5t-115 44.5q-84 0 -132.5 -45t-66.5 -139l-16 -82
q-36 -186 124 -186z" />
    <glyph glyph-name="e" unicode="e" 
d="M483 292l-10 -50h-346l-6 -32q-18 -89 17 -137.5t123 -48.5q92 0 153 67l23 -18q-69 -79 -179 -79q-98 0 -142 57t-25 159l16 82q42 214 226 214q90 0 130 -56t20 -158zM137 292l-4 -20h316l4 20q36 184 -122 184q-157 0 -194 -184z" />
    <glyph glyph-name="f" unicode="f" horiz-adv-x="285" 
d="M122 470l6 30h64l7 36q16 84 51 119t111 35h23l-6 -30h-23q-65 0 -89 -29q-23 -29 -38 -102l-6 -29h125l-6 -30h-125l-91 -470h-30l91 470h-64z" />
    <glyph glyph-name="g" unicode="g" horiz-adv-x="511" 
d="M91 210l17 86q22 109 77.5 159.5t152.5 50.5q122 0 151 -81l14 75h30l-91 -470q-21 -110 -82 -168t-154 -58q-110 0 -144 79l27 16q33 -65 120 -65q81 0 133 51.5t70 144.5l8 40q-30 -40 -71.5 -58t-106.5 -18q-92 0 -131 55.5t-20 160.5zM244 24q90 0 137.5 44t63.5 132
l19 99q16 90 -13 133.5t-116 43.5q-83 0 -131.5 -45t-66.5 -139l-16 -83q-36 -185 123 -185z" />
    <glyph glyph-name="h" unicode="h" horiz-adv-x="526" 
d="M105 0h-30l134 690h30l-52 -269q60 85 175 85q86 0 125 -60.5t19 -163.5l-55 -282h-30l55 282q19 92 -12.5 143t-104.5 51q-159 0 -197 -185z" />
    <glyph glyph-name="i" unicode="i" horiz-adv-x="210" 
d="M120 0h-30l97 500h30zM253 646h-44l8 44h44z" />
    <glyph glyph-name="j" unicode="j" horiz-adv-x="215" 
d="M202 500h30l-104 -536q-16 -86 -52 -120q-34 -34 -113 -34l6 30q67 0 91 30q24 28 41 110zM268 646h-44l8 44h44z" />
    <glyph glyph-name="k" unicode="k" horiz-adv-x="492" 
d="M144 201l349 299h44l-260 -224l195 -276h-37l-182 256l-118 -101l-30 -155h-30l134 690h30z" />
    <glyph glyph-name="l" unicode="l" horiz-adv-x="255" 
d="M104 151l105 539h30l-103 -531q-19 -65 -1.5 -98.5t80.5 -33.5l-6 -30q-70 0 -95 38.5t-10 115.5z" />
    <glyph glyph-name="m" unicode="m" horiz-adv-x="792" 
d="M105 0h-30l97 500h30l-15 -80q50 86 154 86q107 0 130 -113q59 113 177 113q77 0 110.5 -60t13.5 -164l-55 -282h-30l55 282q19 92 -7 143t-90 51q-141 0 -176 -177l-58 -299h-30l55 282q19 92 -7 143t-90 51q-141 0 -177 -185z" />
    <glyph glyph-name="n" unicode="n" horiz-adv-x="526" 
d="M105 0h-30l97 500h30l-15 -79q60 85 174 85q87 0 126 -60.5t19 -163.5l-55 -282h-30l55 282q19 92 -12.5 143t-104.5 51q-159 0 -197 -185z" />
    <glyph glyph-name="o" unicode="o" horiz-adv-x="496" 
d="M503 292l-16 -84q-40 -214 -237 -214q-93 0 -135.5 56t-23.5 158l16 84q40 214 237 214q94 0 136 -56t23 -158zM457 208l16 84q36 184 -132 184q-170 0 -204 -184l-16 -84q-36 -184 132 -184q170 0 204 184z" />
    <glyph glyph-name="p" unicode="p" horiz-adv-x="511" 
d="M518 292l-16 -82q-22 -112 -77 -164t-153 -52q-130 0 -152 81l-52 -265h-30l134 690h30l-13 -71q56 77 177 77q93 0 132.5 -57t19.5 -157zM276 24q82 0 129.5 45t66.5 141l16 82q36 184 -125 184q-88 0 -136 -44.5t-64 -132.5l-17 -90q-18 -95 10.5 -140t119.5 -45z" />
    <glyph glyph-name="q" unicode="q" horiz-adv-x="511" 
d="M91 210l16 82q21 110 77 162t152 52q124 0 153 -81l14 75h30l-134 -690h-30l51 260q-30 -40 -71.5 -58t-106.5 -18q-92 0 -131.5 56t-19.5 160zM245 24q91 0 137.5 45.5t64.5 139.5l17 90q16 90 -13.5 133.5t-117.5 43.5q-160 0 -196 -184l-16 -82q-36 -186 124 -186z
" />
    <glyph glyph-name="r" unicode="r" horiz-adv-x="381" 
d="M333 476q-66 0 -109.5 -49t-61.5 -136l-57 -291h-30l97 500h30l-15 -78q51 84 150 84q86 0 129 -70l-26 -18q-37 58 -107 58z" />
    <glyph glyph-name="s" unicode="s" horiz-adv-x="456" 
d="M473 423l-26 -16q-18 39 -48 54t-87 15q-73 0 -117 -28.5t-44 -84.5q0 -35 26 -59q9 -7 31 -16q26 -8 74 -18q151 -28 151 -127q0 -62 -47 -106q-46 -43 -155 -43q-70 0 -109.5 20t-61.5 63l28 17q18 -37 52 -53.5t94 -16.5q168 0 168 113q0 45 -34.5 68t-113.5 38
q-134 25 -134 116q0 68 52.5 107.5t141.5 39.5q121 0 159 -83z" />
    <glyph glyph-name="t" unicode="t" horiz-adv-x="302" 
d="M186 470h-63l5 30h64l22 110h30l-22 -110h132l-5 -30h-133l-59 -306q-20 -68 -2.5 -101t81.5 -33h27l-6 -30h-28q-71 0 -95 37.5t-9 116.5z" />
    <glyph glyph-name="u" unicode="u" horiz-adv-x="526" 
d="M518 500h31l-98 -500h-30l17 81q-61 -87 -176 -87q-85 0 -124.5 60t-19.5 164l55 282h30l-55 -282q-19 -92 12.5 -143t104.5 -51q161 0 197 187z" />
    <glyph glyph-name="v" unicode="v" horiz-adv-x="457" 
d="M236 45l274 455h34l-301 -500h-28l-108 500h30z" />
    <glyph glyph-name="w" unicode="w" horiz-adv-x="686" 
d="M531 0h-28l-71 451l-249 -451h-28l-48 500h31l41 -446l247 446h28l70 -446l218 446h31z" />
    <glyph glyph-name="x" unicode="x" horiz-adv-x="426" 
d="M280 256l126 -256h-34l-112 231l-200 -231h-40l226 258l-119 242h35l104 -218l188 218h39z" />
    <glyph glyph-name="y" unicode="y" horiz-adv-x="452" 
d="M37 -190l6 30q64 2 95 31q32 29 80 113l4 7l-115 509h31l105 -470l258 470h33l-289 -523q-53 -95 -95 -131q-41 -36 -113 -36z" />
    <glyph glyph-name="z" unicode="z" horiz-adv-x="449" 
d="M50 0l5 24l392 446h-306l6 30h349l-4 -24l-393 -446h306l-6 -30h-349z" />
    <glyph glyph-name="braceleft" unicode="{" horiz-adv-x="316" 
d="M261 632l-42 -216q-6 -31 -16.5 -46.5t-31.5 -23.5q31 -18 21 -70l-42 -216q-14 -71 10.5 -98t93.5 -27h9l-6 -30h-3q-82 0 -116.5 35.5t-17.5 119.5l43 219q5 28 -4.5 40t-35.5 12h-19l6 30h19q27 0 41 12t19 40l42 219q18 95 63 125t132 30h3l-6 -30h-9q-69 0 -103 -25
q-35 -26 -50 -100z" />
    <glyph glyph-name="bar" unicode="|" horiz-adv-x="200" 
d="M153 812h30v-928h-30v928z" />
    <glyph glyph-name="braceright" unicode="}" horiz-adv-x="316" 
d="M258 416l42 216q14 71 -10.5 98t-92.5 27h-9l5 30h3q84 0 116.5 -35t17.5 -120l-36 -188q-12 -46 -5 -64.5t39 -18.5h19l-6 -30h-19q-27 0 -40.5 -11.5t-19.5 -40.5l-43 -219q-20 -95 -62 -124q-43 -31 -135 -31l6 30h9q68 0 103 26q36 26 49 99l42 216q10 57 49 70
q-32 18 -22 70z" />
    <glyph glyph-name="asciitilde" unicode="~" horiz-adv-x="480" 
d="M394 295q-39 0 -90 25q-50 25 -82 25q-70 0 -114 -51l-23 20q57 61 137 61q37 0 88 -25t84 -25q70 0 114 51l23 -20q-57 -61 -137 -61z" />
    <glyph glyph-name="uni00A0" unicode="&#xa0;" horiz-adv-x="250" 
 />
    <glyph glyph-name="exclamdown" unicode="&#xa1;" horiz-adv-x="216" 
d="M131 341h30l-103 -531h-30zM157 500h40l-8 -40h-40z" />
    <glyph glyph-name="cent" unicode="&#xa2;" horiz-adv-x="480" 
d="M247 -116h-30l22 111q-87 5 -127 62t-21 153l16 82q41 206 231 213l23 117h30l-23 -116q97 -6 136 -76l-26 -15q-39 61 -128 61q-179 0 -213 -184l-16 -82q-18 -89 17 -137.5t123 -48.5q92 0 153 67l23 -18q-65 -75 -168 -79z" />
    <glyph glyph-name="sterling" unicode="&#xa3;" horiz-adv-x="480" 
d="M427 0h-371l6 30h71l65 336h-71l6 30h71l15 78q42 222 204 222q83 0 132 -66l-27 -20q-39 56 -111 56q-69 0 -109 -47.5t-59 -144.5l-15 -78h156l-6 -30h-156l-65 -336h270z" />
    <glyph glyph-name="currency" unicode="&#xa4;" horiz-adv-x="656" 
d="M208 532l-80 80l21 21l79 -80q70 64 167 64t168 -64l80 80l21 -21l-81 -81q63 -71 63 -165q0 -96 -63 -166l81 -80l-21 -21l-81 80q-70 -63 -167 -63q-95 0 -166 63l-80 -80l-21 21l80 80q-62 71 -62 166t62 166zM239 522q-63 -64 -63 -156t63 -156q64 -64 156 -64
t156 64q65 65 65 156t-65 156t-156 65t-156 -65z" />
    <glyph glyph-name="yen" unicode="&#xa5;" horiz-adv-x="480" 
d="M70 170l6 30h188l21 109h-188l6 30h170l-117 351h32l116 -350l252 350h36l-254 -351h171l-6 -30h-188l-21 -109h188l-6 -30h-188l-33 -170h-30l33 170h-188z" />
    <glyph glyph-name="brokenbar" unicode="&#xa6;" horiz-adv-x="278" 
d="M199 243h30v-243h-30v243zM199 690h30v-243h-30v243z" />
    <glyph glyph-name="section" unicode="&#xa7;" horiz-adv-x="504" 
d="M78 -57h30q-7 -50 20 -77t91 -27q72 0 113.5 32.5t41.5 91.5q0 40 -31.5 64.5t-108.5 46.5q-130 37 -130 145q0 85 51 137.5t141 62.5q-108 39 -108 117q0 70 51.5 112.5t139.5 42.5q73 0 108 -36.5t27 -97.5h-30q7 50 -20 77t-91 27q-71 0 -113 -32.5t-42 -89.5
q0 -40 31.5 -63t108.5 -48q129 -41 129 -146q0 -87 -51 -140.5t-141 -60.5q109 -37 109 -115q0 -74 -51 -115.5t-140 -41.5q-71 0 -107 36.5t-28 97.5zM456 277q0 54 -36 84t-97 30q-79 0 -134 -44q-53 -44 -53 -124q0 -54 35 -84t98 -30q81 0 133 43q54 44 54 125z" />
    <glyph glyph-name="dieresis" unicode="&#xa8;" horiz-adv-x="423" 
d="M383 690l-8 -44h-44l8 44h44zM173 690l-8 -44h-44l8 44h44z" />
    <glyph glyph-name="copyright" unicode="&#xa9;" horiz-adv-x="1010" 
d="M253 -62q-128 128 -128 312t128 312q130 128 312 128q183 0 311 -128q129 -128 129 -312t-129 -312q-128 -128 -311 -128q-182 0 -312 128zM274 541q-119 -119 -119 -291t119 -291q121 -119 291 -119q171 0 290 119q120 119 120 291t-120 291q-119 119 -290 119
q-170 0 -291 -119zM715 90l25 -17q-55 -79 -167 -79q-99 0 -152.5 55.5t-53.5 160.5v82q0 104 53.5 159t152.5 55q109 0 165 -75l-25 -17q-47 62 -140 62q-85 0 -130.5 -47t-45.5 -137v-82q0 -89 44 -137.5t132 -48.5q94 0 142 66z" />
    <glyph glyph-name="ordfeminine" unicode="&#xaa;" horiz-adv-x="316" 
d="M123 448q0 110 128 110h90l5 28q8 42 -7.5 59t-61.5 17q-60 0 -89 -44l-22 19q39 55 118 55q113 0 93 -101l-42 -217h-30l8 43q-38 -47 -100 -47q-41 0 -65.5 21t-24.5 57zM328 495l7 33h-86q-64 0 -82 -25q-13 -19 -13 -52q0 -51 65 -51q36 0 68 27t41 68z" />
    <glyph glyph-name="guillemotleft" unicode="&#xab;" horiz-adv-x="519" 
d="M272 52l-187 231l277 231l-9 -46l-227 -189l153 -189zM474 52l-187 231l277 231l-9 -46l-227 -189l153 -189z" />
    <glyph glyph-name="logicalnot" unicode="&#xac;" horiz-adv-x="550" 
d="M550 368v-167h-30v137h-383v30h413z" />
    <glyph glyph-name="uni00AD" unicode="&#xad;" horiz-adv-x="299" 
d="M269 274h-239v30h239v-30z" />
    <glyph glyph-name="registered" unicode="&#xae;" horiz-adv-x="606" 
d="M192 322q-74 76 -74 179q0 104 74 178q75 75 179 75q105 0 178 -75q75 -73 75 -178q0 -104 -75 -179q-74 -74 -178 -74q-103 0 -179 74zM213 658q-65 -65 -65 -157q0 -91 65 -158q67 -65 158 -65q92 0 157 65q66 66 66 158q0 93 -66 157q-65 66 -157 66t-158 -66z
M314 478v-104h-30v261h87q47 0 72 -22.5t25 -56.5q0 -57 -58 -73l71 -109h-37l-66 104h-64zM314 605v-97h57q67 0 67 48q0 49 -67 49h-57z" />
    <glyph glyph-name="overscore" unicode="&#xaf;" horiz-adv-x="423" 
d="M373 612h-249v30h249v-30z" />
    <glyph glyph-name="degree" unicode="&#xb0;" horiz-adv-x="308" 
d="M127 463q-39 39 -39 96t39 95q39 39 95 39t95 -39q39 -38 39 -95t-39 -96q-40 -38 -95 -38t-95 38zM148 633q-30 -30 -30 -74t30 -74t74 -30t74 30t30 74t-30 74t-74 30t-74 -30z" />
    <glyph glyph-name="plusminus" unicode="&#xb1;" horiz-adv-x="480" 
d="M293 379h-169v30h169v180h30v-180h170v-30h-170v-149h-30v149zM493 149h-369v30h369v-30z" />
    <glyph glyph-name="twosuperior" unicode="&#xb2;" horiz-adv-x="278" 
d="M168 404h149l-6 -30h-190l6 31l111 98q48 42 64 64.5t16 45.5t-13 36.5t-35 13.5q-25 0 -46.5 -19t-28.5 -48h-30q8 44 38.5 70.5t70.5 26.5q32 0 53 -21.5t21 -52.5q0 -38 -19 -63q-17 -24 -73 -74z" />
    <glyph glyph-name="threesuperior" unicode="&#xb3;" horiz-adv-x="301" 
d="M228 522h-14l6 30h14q84 0 84 68q0 43 -46 43q-63 0 -75 -58h-30q8 41 36.5 64.5t71.5 23.5q33 0 53.5 -19.5t20.5 -49.5q0 -35 -21 -60t-52 -27q23 -4 36.5 -20.5t13.5 -40.5q0 -48 -30.5 -76.5t-77.5 -28.5q-40 0 -62 25t-21 65h31q-2 -60 55 -60q33 0 53.5 19.5
t20.5 53.5q0 48 -67 48z" />
    <glyph glyph-name="acute" unicode="&#xb4;" horiz-adv-x="384" 
d="M359 567h-30l111 158h35z" />
    <glyph glyph-name="mu" unicode="&#x3bc;" horiz-adv-x="526" 
d="M122 86l-44 -223h-30l124 637h30l-53 -273q-12 -51 -7 -87.5t14.5 -59t29.5 -35t38 -17t39 -4.5q162 0 198 185l57 291h30l-97 -500h-30l17 81q-61 -87 -181 -87q-50 0 -86 25t-49 67z" />
    <glyph glyph-name="mu" unicode="&#xb5;" horiz-adv-x="526" 
d="M122 86l-44 -223h-30l124 637h30l-53 -273q-12 -51 -7 -87.5t14.5 -59t29.5 -35t38 -17t39 -4.5q162 0 198 185l57 291h30l-97 -500h-30l17 81q-61 -87 -181 -87q-50 0 -86 25t-49 67z" />
    <glyph glyph-name="paragraph" unicode="&#xb6;" horiz-adv-x="534" 
d="M303 690h204v-880h-30v850h-144v-850h-30v500q-80 0 -135 55t-55 135q0 79 55 134q56 56 135 56z" />
    <glyph glyph-name="middot" unicode="&#xb7;" horiz-adv-x="180" 
d="M70 368h40v-40h-40v40z" />
    <glyph glyph-name="cedilla" unicode="&#xb8;" horiz-adv-x="339" 
d="M218 -41l26 60l30 -2l-19 -37q68 -14 68 -65q0 -44 -34.5 -69t-90.5 -25q-22 0 -36 3l12 29q22 -2 30 -2q88 0 88 59q0 44 -74 49z" />
    <glyph glyph-name="onesuperior" unicode="&#xb9;" horiz-adv-x="277" 
d="M271 690h30l-61 -316h-30l54 278l-65 -41l7 36z" />
    <glyph glyph-name="ordmasculine" unicode="&#xba;" horiz-adv-x="356" 
d="M400 560l-10 -55q-26 -134 -150 -134q-55 0 -82 37t-14 97l11 55q25 133 148 133q56 0 82 -35.5t15 -97.5zM246 401q45 0 74.5 27t39.5 77l10 55q19 103 -73 103q-93 0 -112 -103l-10 -55q-20 -104 71 -104z" />
    <glyph glyph-name="guillemotright" unicode="&#xbb;" horiz-adv-x="519" 
d="M153 476l7 38l187 -231l-277 -231l9 46l227 189zM355 476l7 38l187 -231l-277 -231l9 46l227 189z" />
    <glyph glyph-name="onequarter" unicode="&#xbc;" horiz-adv-x="603" 
d="M88 0l475 690h36l-474 -690h-37zM248 690h30l-61 -316h-30l54 278l-65 -41l7 36zM330 104l173 212h37l-171 -215h122l13 66h30l-13 -66h39l-6 -30h-39l-14 -71h-30l14 71h-161z" />
    <glyph glyph-name="onehalf" unicode="&#xbd;" horiz-adv-x="603" 
d="M88 0l475 690h36l-474 -690h-37zM248 690h30l-61 -316h-30l54 278l-65 -41l7 36zM406 30h149l-6 -30h-190l6 31l111 98q48 42 64 64.5t16 45.5t-13 36.5t-35 13.5q-25 0 -46.5 -19t-28.5 -48h-30q8 44 38.5 70.5t70.5 26.5q32 0 53 -21.5t21 -52.5q0 -38 -19 -63
q-17 -24 -73 -74z" />
    <glyph glyph-name="threequarters" unicode="&#xbe;" horiz-adv-x="577" 
d="M88 0l475 690h36l-474 -690h-37zM330 104l173 212h37l-171 -215h122l13 66h30l-13 -66h39l-6 -30h-39l-14 -71h-30l14 71h-161zM201 522h-14l6 30h14q84 0 84 68q0 43 -46 43q-63 0 -75 -58h-30q8 41 36.5 64.5t71.5 23.5q33 0 53.5 -19.5t20.5 -49.5q0 -35 -21 -60
t-52 -27q23 -4 36.5 -20.5t13.5 -40.5q0 -48 -30.5 -76.5t-77.5 -28.5q-40 0 -62 25t-21 65h31q-1 -60 55 -60q33 0 53.5 19.5t20.5 53.5q0 48 -67 48z" />
    <glyph glyph-name="questiondown" unicode="&#xbf;" horiz-adv-x="487" 
d="M292 282l11 59h30l-11 -59q-12 -60 -50 -90l-56 -43q-79 -61 -105 -97q-27 -38 -27 -92q0 -59 37 -92.5t95 -33.5q70 0 120.5 40.5t67.5 114.5h30q-16 -85 -78 -135t-141 -50q-69 0 -115 43t-46 111q0 38 13 73q6 17 36 57q8 12 23 25l23 20l26 21l24 18l49 39
q36 27 44 71zM362 460h-40l7 40h40z" />
    <glyph glyph-name="Agrave" unicode="&#xc0;" horiz-adv-x="522" 
d="M144 178l-95 -178h-34l366 690h28l98 -690h-30l-25 178h-308zM447 208l-61 427l-227 -427h288zM393 767l-51 129h35l40 -129h-24z" />
    <glyph glyph-name="Aacute" unicode="&#xc1;" horiz-adv-x="522" 
d="M144 178l-95 -178h-34l366 690h28l98 -690h-30l-25 178h-308zM447 208l-61 427l-227 -427h288zM432 767h-30l90 129h35z" />
    <glyph glyph-name="Acircumflex" unicode="&#xc2;" horiz-adv-x="522" 
d="M144 178l-95 -178h-34l366 690h28l98 -690h-30l-25 178h-308zM447 208l-61 427l-227 -427h288zM243 757l177 142h32l121 -142h-42l-98 116l-144 -116h-46z" />
    <glyph glyph-name="Atilde" unicode="&#xc3;" horiz-adv-x="522" 
d="M144 178l-95 -178h-34l366 690h28l98 -690h-30l-25 178h-308zM447 208l-61 427l-227 -427h288zM483 807q-26 0 -61 16q-36 17 -55 17q-38 0 -71 -33l-23 19q42 44 94 44q22 0 58 -17q35 -16 57 -16q42 0 70 33l23 -19q-38 -44 -92 -44z" />
    <glyph glyph-name="Adieresis" unicode="&#xc4;" horiz-adv-x="522" 
d="M144 178l-95 -178h-34l366 690h28l98 -690h-30l-25 178h-308zM447 208l-61 427l-227 -427h288zM560 869l-8 -44h-44l8 44h44zM350 869l-8 -44h-44l8 44h44z" />
    <glyph glyph-name="Aring" unicode="&#xc5;" horiz-adv-x="522" 
d="M144 178l-95 -178h-34l352 663q-37 8 -58.5 33.5t-21.5 61.5q0 44 31 71.5t78 27.5q48 0 79 -27.5t31 -71.5q0 -39 -25.5 -65.5t-67.5 -31.5l94 -661h-30l-25 178h-308zM447 208l-61 427l-227 -427h288zM317 758q0 -30 19.5 -48t52.5 -20h13q34 2 54 20t20 48
q0 33 -21.5 51t-58.5 18q-35 0 -57 -18t-22 -51z" />
    <glyph glyph-name="AE" unicode="&#xc6;" horiz-adv-x="852" 
d="M191 182l-143 -182h-38l545 690h376l-6 -30h-346l-56 -288h316l-6 -30h-316l-60 -312h346l-6 -30h-376l35 182h-265zM543 628l-328 -416h247z" />
    <glyph glyph-name="Ccedilla" unicode="&#xc7;" horiz-adv-x="583" 
d="M633 489h-30q2 89 -43 133t-130 44q-108 0 -171.5 -64t-92.5 -211l-18 -92q-29 -144 11.5 -209.5t145.5 -65.5q179 0 243 181h29q-68 -209 -274 -211l-6 -14q68 -14 68 -65q0 -44 -34.5 -69t-90.5 -25q-22 0 -36 3l12 29q22 -2 30 -2q88 0 88 59q0 44 -74 49l15 36
q-213 16 -157 304l18 92q32 161 104 233t194 72q88 0 147 -53q58 -52 52 -154z" />
    <glyph glyph-name="Egrave" unicode="&#xc8;" horiz-adv-x="546" 
d="M95 0l134 690h396l-6 -30h-366l-56 -288h336l-6 -30h-336l-60 -312h366l-6 -30h-396zM462 767l-51 129h35l40 -129h-24z" />
    <glyph glyph-name="Eacute" unicode="&#xc9;" horiz-adv-x="546" 
d="M95 0l134 690h396l-6 -30h-366l-56 -288h336l-6 -30h-336l-60 -312h366l-6 -30h-396zM445 767h-30l90 129h35z" />
    <glyph glyph-name="Ecircumflex" unicode="&#xca;" horiz-adv-x="546" 
d="M95 0l134 690h396l-6 -30h-366l-56 -288h336l-6 -30h-336l-60 -312h366l-6 -30h-396zM275 757l177 142h32l121 -142h-42l-98 116l-144 -116h-46z" />
    <glyph glyph-name="Edieresis" unicode="&#xcb;" horiz-adv-x="546" 
d="M95 0l134 690h396l-6 -30h-366l-56 -288h336l-6 -30h-336l-60 -312h366l-6 -30h-396zM592 869l-8 -44h-44l8 44h44zM382 869l-8 -44h-44l8 44h44z" />
    <glyph glyph-name="Igrave" unicode="&#xcc;" horiz-adv-x="240" 
d="M239 690h30l-134 -690h-30zM260 767l-51 129h35l40 -129h-24z" />
    <glyph glyph-name="Iacute" unicode="&#xcd;" horiz-adv-x="240" 
d="M239 690h30l-134 -690h-30zM284 767h-30l90 129h35z" />
    <glyph glyph-name="Icircumflex" unicode="&#xce;" horiz-adv-x="240" 
d="M239 690h30l-134 -690h-30zM102 757l177 142h32l121 -142h-42l-98 116l-144 -116h-46z" />
    <glyph glyph-name="Idieresis" unicode="&#xcf;" horiz-adv-x="276" 
d="M259 690l-134 -690h-30l134 690h30zM374 869l-8 -40h-40l8 40h40zM224 869l-8 -40h-40l8 40h40z" />
    <glyph glyph-name="Eth" unicode="&#xd0;" horiz-adv-x="605" 
d="M161 342h-103l6 30h103l62 318h200q120 0 170.5 -75t21.5 -224l-18 -92q-32 -165 -105 -232q-71 -67 -203 -67h-200zM131 30h170q110 0 177 59t95 210l18 92q27 143 -15.5 206t-152.5 63h-170l-56 -288h216l-6 -30h-216z" />
    <glyph glyph-name="Ntilde" unicode="&#xd1;" horiz-adv-x="638" 
d="M523 57l124 633h30l-134 -690h-28l-267 630l-123 -630h-30l134 690h28zM541 807q-26 0 -61 16q-36 17 -55 17q-38 0 -71 -33l-23 19q42 44 94 44q22 0 58 -17q35 -16 57 -16q42 0 70 33l23 -19q-38 -44 -92 -44z" />
    <glyph glyph-name="Ograve" unicode="&#xd2;" horiz-adv-x="600" 
d="M616 391l-18 -92q-59 -305 -296 -305q-112 0 -162.5 78t-21.5 227l18 92q32 158 105 231.5t193 73.5q112 0 161.5 -80t20.5 -225zM166 391l-18 -92q-27 -139 15 -207t142 -68q210 0 263 275l18 92q27 140 -14.5 207.5t-141.5 67.5q-104 0 -169.5 -66t-94.5 -209zM438 767
l-51 129h35l40 -129h-24z" />
    <glyph glyph-name="Oacute" unicode="&#xd3;" horiz-adv-x="600" 
d="M616 391l-18 -92q-59 -305 -296 -305q-112 0 -162.5 78t-21.5 227l18 92q32 158 105 231.5t193 73.5q112 0 161.5 -80t20.5 -225zM166 391l-18 -92q-27 -139 15 -207t142 -68q210 0 263 275l18 92q27 140 -14.5 207.5t-141.5 67.5q-104 0 -169.5 -66t-94.5 -209zM456 767
h-30l90 129h35z" />
    <glyph glyph-name="Ocircumflex" unicode="&#xd4;" horiz-adv-x="600" 
d="M616 391l-18 -92q-59 -305 -296 -305q-112 0 -162.5 78t-21.5 227l18 92q32 158 105 231.5t193 73.5q112 0 161.5 -80t20.5 -225zM166 391l-18 -92q-27 -139 15 -207t142 -68q210 0 263 275l18 92q27 140 -14.5 207.5t-141.5 67.5q-104 0 -169.5 -66t-94.5 -209zM282 757
l177 142h32l121 -142h-42l-98 116l-144 -116h-46z" />
    <glyph glyph-name="Otilde" unicode="&#xd5;" horiz-adv-x="600" 
d="M616 391l-18 -92q-59 -305 -296 -305q-112 0 -162.5 78t-21.5 227l18 92q32 158 105 231.5t193 73.5q112 0 161.5 -80t20.5 -225zM166 391l-18 -92q-27 -139 15 -207t142 -68q210 0 263 275l18 92q27 140 -14.5 207.5t-141.5 67.5q-104 0 -169.5 -66t-94.5 -209zM522 807
q-26 0 -61 16q-36 17 -55 17q-38 0 -71 -33l-23 19q42 44 94 44q22 0 58 -17q35 -16 57 -16q41 0 70 33l23 -19q-38 -44 -92 -44z" />
    <glyph glyph-name="Odieresis" unicode="&#xd6;" horiz-adv-x="600" 
d="M616 391l-18 -92q-59 -305 -296 -305q-112 0 -162.5 78t-21.5 227l18 92q32 158 105 231.5t193 73.5q112 0 161.5 -80t20.5 -225zM166 391l-18 -92q-27 -139 15 -207t142 -68q210 0 263 275l18 92q27 140 -14.5 207.5t-141.5 67.5q-104 0 -169.5 -66t-94.5 -209zM599 869
l-8 -44h-44l8 44h44zM389 869l-8 -44h-44l8 44h44z" />
    <glyph glyph-name="multiply" unicode="&#xd7;" horiz-adv-x="480" 
d="M307 332l-119 -119l-21 21l119 119l-120 121l21 21l120 -121l121 121l21 -21l-121 -121l120 -119l-21 -21z" />
    <glyph glyph-name="Oslash" unicode="&#xd8;" horiz-adv-x="600" 
d="M536 672l77 140h34l-87 -157q93 -75 56 -264l-18 -92q-59 -305 -296 -305q-55 0 -97 20l-72 -130h-34l80 145q-99 73 -61 270l18 92q32 158 105 231.5t193 73.5q58 0 102 -24zM166 391l-18 -92q-37 -179 46 -243l327 590q-37 20 -91 20q-104 0 -169.5 -66t-94.5 -209z
M568 299l18 92q35 173 -40 238l-327 -589q35 -16 86 -16q210 0 263 275z" />
    <glyph glyph-name="Ugrave" unicode="&#xd9;" horiz-adv-x="670" 
d="M337 -6q-105 0 -161 72t-27 216l80 408h29l-79 -408q-25 -126 16.5 -192t143.5 -66q211 0 260 258l79 408h30l-79 -408q-55 -288 -292 -288zM492 767l-51 129h35l40 -129h-24z" />
    <glyph glyph-name="Uacute" unicode="&#xda;" horiz-adv-x="670" 
d="M337 -6q-105 0 -161 72t-27 216l80 408h29l-79 -408q-25 -126 16.5 -192t143.5 -66q211 0 260 258l79 408h30l-79 -408q-55 -288 -292 -288zM480 767h-30l90 129h35z" />
    <glyph glyph-name="Ucircumflex" unicode="&#xdb;" horiz-adv-x="670" 
d="M337 -6q-105 0 -161 72t-27 216l80 408h29l-79 -408q-25 -126 16.5 -192t143.5 -66q211 0 260 258l79 408h30l-79 -408q-55 -288 -292 -288zM317 757l177 142h32l121 -142h-42l-98 116l-144 -116h-46z" />
    <glyph glyph-name="Udieresis" unicode="&#xdc;" horiz-adv-x="670" 
d="M337 -6q-105 0 -161 72t-27 216l80 408h29l-79 -408q-25 -126 16.5 -192t143.5 -66q211 0 260 258l79 408h30l-79 -408q-55 -288 -292 -288zM634 869l-8 -44h-44l8 44h44zM424 869l-8 -44h-44l8 44h44z" />
    <glyph glyph-name="Yacute" unicode="&#xdd;" horiz-adv-x="516" 
d="M303 309l-159 381h32l145 -348l281 348h38l-307 -381l-60 -309h-30zM421 767h-30l90 129h35z" />
    <glyph glyph-name="Thorn" unicode="&#xde;" horiz-adv-x="566" 
d="M289 153h-134l-30 -153h-30l134 690h30l-25 -130h134q99 0 157.5 -46t58.5 -122q0 -112 -78 -175.5t-217 -63.5zM228 530l-67 -347h134q122 0 190 55t68 150q0 67 -49 104.5t-142 37.5h-134z" />
    <glyph glyph-name="germandbls" unicode="&#xdf;" horiz-adv-x="527" 
d="M564 583q0 -90 -82 -118q57 -32 39 -113l-42 -212q-16 -85 -56 -113q-41 -27 -125 -27h-25l6 30h40q60 0 89 24t41 86l41 212q11 55 -8 76t-82 21h-40l6 30h40q59 0 93.5 26t34.5 75q0 40 -33 63t-99 23q-86 0 -135 -40.5t-67 -134.5l-95 -491h-30l97 499
q19 101 75.5 149t158.5 48q77 0 117.5 -32t40.5 -81z" />
    <glyph glyph-name="agrave" unicode="&#xe0;" 
d="M74 114q0 77 48 121t135 44h173l13 68q14 75 -10.5 102t-103.5 27q-52 0 -88 -11q-32 -10 -66 -53l-22 19q32 42 73 58.5t108 16.5q89 0 122.5 -37t16.5 -122l-67 -347h-30l14 71q-47 -77 -168 -77q-70 0 -109 31.5t-39 88.5zM411 179l13 70h-173q-74 0 -110.5 -36
t-36.5 -96q0 -93 120 -93q74 0 123 38.5t64 116.5zM303 725h35l49 -158h-30z" />
    <glyph glyph-name="aacute" unicode="&#xe1;" 
d="M74 114q0 77 48 121t135 44h173l13 68q14 75 -10.5 102t-103.5 27q-52 0 -88 -11q-32 -10 -66 -53l-22 19q32 42 73 58.5t108 16.5q89 0 122.5 -37t16.5 -122l-67 -347h-30l14 71q-47 -77 -168 -77q-70 0 -109 31.5t-39 88.5zM411 179l13 70h-173q-74 0 -110.5 -36
t-36.5 -96q0 -93 120 -93q74 0 123 38.5t64 116.5zM366 567h-30l111 158h35z" />
    <glyph glyph-name="acircumflex" unicode="&#xe2;" 
d="M74 114q0 77 48 121t135 44h173l13 68q14 75 -10.5 102t-103.5 27q-52 0 -88 -11q-32 -10 -66 -53l-22 19q32 42 73 58.5t108 16.5q89 0 122.5 -37t16.5 -122l-67 -347h-30l14 71q-47 -77 -168 -77q-70 0 -109 31.5t-39 88.5zM411 179l13 70h-173q-74 0 -110.5 -36
t-36.5 -96q0 -93 120 -93q74 0 123 38.5t64 116.5zM231 558l136 142h32l80 -142h-36l-64 113l-108 -113h-40z" />
    <glyph glyph-name="atilde" unicode="&#xe3;" 
d="M74 114q0 77 48 121t135 44h173l13 68q14 75 -10.5 102t-103.5 27q-52 0 -88 -11q-32 -10 -66 -53l-22 19q32 42 73 58.5t108 16.5q89 0 122.5 -37t16.5 -122l-67 -347h-30l14 71q-47 -77 -168 -77q-70 0 -109 31.5t-39 88.5zM411 179l13 70h-173q-74 0 -110.5 -36
t-36.5 -96q0 -93 120 -93q74 0 123 38.5t64 116.5zM430 608q-26 0 -61 16q-36 17 -55 17q-38 0 -71 -33l-23 19q42 44 94 44q22 0 58 -17q35 -16 57 -16q41 0 70 33l23 -19q-38 -44 -92 -44z" />
    <glyph glyph-name="adieresis" unicode="&#xe4;" 
d="M74 114q0 77 48 121t135 44h173l13 68q14 75 -10.5 102t-103.5 27q-52 0 -88 -11q-32 -10 -66 -53l-22 19q32 42 73 58.5t108 16.5q89 0 122.5 -37t16.5 -122l-67 -347h-30l14 71q-47 -77 -168 -77q-70 0 -109 31.5t-39 88.5zM411 179l13 70h-173q-74 0 -110.5 -36
t-36.5 -96q0 -93 120 -93q74 0 123 38.5t64 116.5zM503 690l-8 -44h-44l8 44h44zM293 690l-8 -44h-44l8 44h44z" />
    <glyph glyph-name="aring" unicode="&#xe5;" 
d="M74 114q0 77 48 121t135 44h173l13 68q14 75 -10.5 102t-103.5 27q-52 0 -88 -11q-32 -10 -66 -53l-22 19q32 42 73 58.5t108 16.5q89 0 122.5 -37t16.5 -122l-67 -347h-30l14 71q-47 -77 -168 -77q-70 0 -109 31.5t-39 88.5zM411 179l13 70h-173q-74 0 -110.5 -36
t-36.5 -96q0 -93 120 -93q74 0 123 38.5t64 116.5zM265 646q0 46 32 78t77 32q46 0 78 -32t32 -78q0 -45 -32 -77t-78 -32q-45 0 -77 32t-32 77zM295 646q0 -32 23.5 -55.5t55.5 -23.5q34 0 57 23.5t23 55.5q0 34 -23 57t-57 23q-32 0 -55.5 -23t-23.5 -57z" />
    <glyph glyph-name="ae" unicode="&#xe6;" horiz-adv-x="777" 
d="M74 114q0 74 50 119.5t133 45.5h173l13 68q14 75 -10.5 102t-103.5 27q-57 0 -89.5 -12.5t-63.5 -51.5l-22 18q32 42 73.5 59t106.5 17q73 0 107 -24t35 -77q57 101 180 101q85 0 118.5 -59.5t12.5 -164.5l-8 -40h-326l-6 -32q-35 -186 120 -186q92 0 153 67l23 -18
q-69 -79 -182 -79q-127 0 -147 111q-25 -52 -75.5 -81.5t-118.5 -29.5t-107 32.5t-39 87.5zM411 179l13 70h-173q-72 0 -109.5 -37t-37.5 -95q0 -93 120 -93q74 0 123 38.5t64 116.5zM463 292l-4 -20h296l2 10q39 194 -106 194q-70 0 -120.5 -48t-67.5 -136z" />
    <glyph glyph-name="ccedilla" unicode="&#xe7;" horiz-adv-x="443" 
d="M214 -41l16 37q-83 8 -120 64t-19 150l16 82q40 214 247 214q107 0 150 -76l-26 -15q-39 61 -128 61q-179 0 -213 -184l-16 -82q-18 -89 17 -137.5t123 -48.5q92 0 153 67l23 -18q-69 -79 -179 -79l-7 -14q68 -14 68 -65q0 -44 -34.5 -69t-90.5 -25q-22 0 -36 3l12 29
q22 -2 30 -2q88 0 88 59q0 44 -74 49z" />
    <glyph glyph-name="egrave" unicode="&#xe8;" 
d="M483 292l-10 -50h-346l-6 -32q-18 -89 17 -137.5t123 -48.5q92 0 153 67l23 -18q-69 -79 -179 -79q-98 0 -142 57t-25 159l16 82q42 214 226 214q90 0 130 -56t20 -158zM137 292l-4 -20h316l4 20q36 184 -122 184q-157 0 -194 -184zM306 725h35l49 -158h-30z" />
    <glyph glyph-name="eacute" unicode="&#xe9;" 
d="M483 292l-10 -50h-346l-6 -32q-18 -89 17 -137.5t123 -48.5q92 0 153 67l23 -18q-69 -79 -179 -79q-98 0 -142 57t-25 159l16 82q42 214 226 214q90 0 130 -56t20 -158zM137 292l-4 -20h316l4 20q36 184 -122 184q-157 0 -194 -184zM345 567h-30l111 158h35z" />
    <glyph glyph-name="ecircumflex" unicode="&#xea;" 
d="M483 292l-10 -50h-346l-6 -32q-18 -89 17 -137.5t123 -48.5q92 0 153 67l23 -18q-69 -79 -179 -79q-98 0 -142 57t-25 159l16 82q42 214 226 214q90 0 130 -56t20 -158zM137 292l-4 -20h316l4 20q36 184 -122 184q-157 0 -194 -184zM226 558l136 142h32l80 -142h-36
l-64 113l-108 -113h-40z" />
    <glyph glyph-name="edieresis" unicode="&#xeb;" 
d="M483 292l-10 -50h-346l-6 -32q-18 -89 17 -137.5t123 -48.5q92 0 153 67l23 -18q-69 -79 -179 -79q-98 0 -142 57t-25 159l16 82q42 214 226 214q90 0 130 -56t20 -158zM137 292l-4 -20h316l4 20q36 184 -122 184q-157 0 -194 -184zM503 690l-8 -44h-44l8 44h44zM293 690
l-8 -44h-44l8 44h44z" />
    <glyph glyph-name="igrave" unicode="&#xec;" horiz-adv-x="210" 
d="M146 725h35l49 -158h-30zM120 0h-30l97 500h30z" />
    <glyph glyph-name="iacute" unicode="&#xed;" horiz-adv-x="210" 
d="M230 567h-30l111 158h35zM120 0h-30l97 500h30z" />
    <glyph glyph-name="icircumflex" unicode="&#xee;" horiz-adv-x="210" 
d="M120 0h-30l97 500h30zM93 558l136 142h32l80 -142h-36l-64 113l-108 -113h-40z" />
    <glyph glyph-name="idieresis" unicode="&#xef;" horiz-adv-x="210" 
d="M327 690l-9 -44h-44l9 44h44zM197 690l-9 -44h-44l9 44h44zM120 0h-30l97 500h30z" />
    <glyph glyph-name="eth" unicode="&#xf0;" horiz-adv-x="496" 
d="M301 679l18 26q64 -29 70 -33l47 60l24 -17l-45 -57q84 -44 106 -98t3 -160l-37 -192q-40 -214 -240 -214q-91 0 -133.5 56t-22.5 158l16 84q40 214 240 214q119 0 150 -87l1 6q14 83 -8 125q-21 45 -94 84l-47 -60l-25 16l46 58q-23 11 -69 31zM253 24q170 0 204 184
l16 84q36 184 -132 184t-204 -184l-16 -84q-36 -184 132 -184z" />
    <glyph glyph-name="ntilde" unicode="&#xf1;" horiz-adv-x="526" 
d="M105 0h-30l97 500h30l-15 -79q60 85 174 85q87 0 126 -60.5t19 -163.5l-55 -282h-30l55 282q19 92 -12.5 143t-104.5 51q-159 0 -197 -185zM452 608q-26 0 -61 16q-36 17 -55 17q-38 0 -71 -33l-23 19q42 44 94 44q22 0 58 -17q35 -16 57 -16q41 0 70 33l23 -19
q-38 -44 -92 -44z" />
    <glyph glyph-name="ograve" unicode="&#xf2;" horiz-adv-x="496" 
d="M503 292l-16 -84q-40 -214 -237 -214q-93 0 -135.5 56t-23.5 158l16 84q40 214 237 214q94 0 136 -56t23 -158zM457 208l16 84q36 184 -132 184q-170 0 -204 -184l-16 -84q-36 -184 132 -184q170 0 204 184zM316 725h35l49 -158h-30z" />
    <glyph glyph-name="oacute" unicode="&#xf3;" horiz-adv-x="496" 
d="M503 292l-16 -84q-40 -214 -237 -214q-93 0 -135.5 56t-23.5 158l16 84q40 214 237 214q94 0 136 -56t23 -158zM457 208l16 84q36 184 -132 184q-170 0 -204 -184l-16 -84q-36 -184 132 -184q170 0 204 184zM355 567h-30l111 158h35z" />
    <glyph glyph-name="ocircumflex" unicode="&#xf4;" horiz-adv-x="496" 
d="M503 292l-16 -84q-40 -214 -237 -214q-93 0 -135.5 56t-23.5 158l16 84q40 214 237 214q94 0 136 -56t23 -158zM457 208l16 84q36 184 -132 184q-170 0 -204 -184l-16 -84q-36 -184 132 -184q170 0 204 184zM236 558l136 142h32l80 -142h-36l-64 113l-108 -113h-40z" />
    <glyph glyph-name="otilde" unicode="&#xf5;" horiz-adv-x="496" 
d="M503 292l-16 -84q-40 -214 -237 -214q-93 0 -135.5 56t-23.5 158l16 84q40 214 237 214q94 0 136 -56t23 -158zM457 208l16 84q36 184 -132 184q-170 0 -204 -184l-16 -84q-36 -184 132 -184q170 0 204 184zM437 608q-26 0 -61 16q-36 17 -55 17q-38 0 -71 -33l-23 19
q42 44 94 44q22 0 58 -17q35 -16 57 -16q42 0 70 33l23 -19q-38 -44 -92 -44z" />
    <glyph glyph-name="odieresis" unicode="&#xf6;" horiz-adv-x="496" 
d="M503 292l-16 -84q-40 -214 -237 -214q-93 0 -135.5 56t-23.5 158l16 84q40 214 237 214q94 0 136 -56t23 -158zM457 208l16 84q36 184 -132 184q-170 0 -204 -184l-16 -84q-36 -184 132 -184q170 0 204 184zM513 690l-8 -44h-44l8 44h44zM303 690l-8 -44h-44l8 44h44z
" />
    <glyph glyph-name="divide" unicode="&#xf7;" horiz-adv-x="480" 
d="M124 339v30h369v-30h-369zM327 534v-40h-40v40h40zM327 215v-40h-40v40h40z" />
    <glyph glyph-name="oslash" unicode="&#xf8;" horiz-adv-x="496" 
d="M431 489l60 93h35l-69 -109q70 -52 46 -181l-16 -84q-40 -214 -237 -214q-49 0 -88 17l-58 -90h-35l68 106q-70 52 -46 181l16 84q40 214 237 214q48 0 87 -17zM457 208l16 84q21 112 -33 156l-262 -411q27 -13 75 -13q170 0 204 184zM137 292l-16 -84q-22 -111 32 -156
l262 411q-32 13 -74 13q-170 0 -204 -184z" />
    <glyph glyph-name="ugrave" unicode="&#xf9;" horiz-adv-x="526" 
d="M518 500h31l-98 -500h-30l17 81q-61 -87 -176 -87q-85 0 -124.5 60t-19.5 164l55 282h30l-55 -282q-19 -92 12.5 -143t104.5 -51q161 0 197 187zM331 725h35l49 -158h-30z" />
    <glyph glyph-name="uacute" unicode="&#xfa;" horiz-adv-x="526" 
d="M518 500h31l-98 -500h-30l17 81q-61 -87 -176 -87q-85 0 -124.5 60t-19.5 164l55 282h30l-55 -282q-19 -92 12.5 -143t104.5 -51q161 0 197 187zM371 567h-30l111 158h35z" />
    <glyph glyph-name="ucircumflex" unicode="&#xfb;" horiz-adv-x="526" 
d="M518 500h31l-98 -500h-30l17 81q-61 -87 -176 -87q-85 0 -124.5 60t-19.5 164l55 282h30l-55 -282q-19 -92 12.5 -143t104.5 -51q161 0 197 187zM251 558l136 142h32l80 -142h-36l-64 113l-108 -113h-40z" />
    <glyph glyph-name="udieresis" unicode="&#xfc;" horiz-adv-x="526" 
d="M518 500h31l-98 -500h-30l17 81q-61 -87 -176 -87q-85 0 -124.5 60t-19.5 164l55 282h30l-55 -282q-19 -92 12.5 -143t104.5 -51q161 0 197 187zM528 690l-8 -44h-44l8 44h44zM318 690l-8 -44h-44l8 44h44z" />
    <glyph glyph-name="yacute" unicode="&#xfd;" horiz-adv-x="452" 
d="M37 -190l6 30q64 2 95 31q32 29 80 113l4 7l-115 509h31l105 -470l258 470h33l-289 -523q-53 -95 -95 -131q-41 -36 -113 -36zM354 567h-30l111 158h35z" />
    <glyph glyph-name="thorn" unicode="&#xfe;" horiz-adv-x="511" 
d="M518 292l-16 -82q-22 -112 -77 -164t-153 -52q-130 0 -152 81l-52 -265h-30l171 880h30l-50 -261q56 77 177 77q93 0 132.5 -57t19.5 -157zM276 24q82 0 129.5 45t66.5 141l16 82q36 184 -125 184q-88 0 -136 -44.5t-64 -132.5l-17 -90q-18 -95 10.5 -140t119.5 -45z" />
    <glyph glyph-name="ydieresis" unicode="&#xff;" horiz-adv-x="452" 
d="M37 -190l6 30q64 2 95 31q32 29 80 113l4 7l-115 509h31l105 -470l258 470h33l-289 -523q-53 -95 -95 -131q-41 -36 -113 -36zM485 690l-8 -44h-44l8 44h44zM275 690l-8 -44h-44l8 44h44z" />
    <glyph glyph-name="Amacron" unicode="&#x100;" horiz-adv-x="522" 
d="M144 178l-95 -178h-34l366 690h28l98 -690h-30l-25 178h-308zM447 208l-61 427l-227 -427h288zM572 815h-289v30h289v-30z" />
    <glyph glyph-name="amacron" unicode="&#x101;" 
d="M74 114q0 77 48 121t135 44h173l13 68q14 75 -10.5 102t-103.5 27q-52 0 -88 -11q-32 -10 -66 -53l-22 19q32 42 73 58.5t108 16.5q89 0 122.5 -37t16.5 -122l-67 -347h-30l14 71q-47 -77 -168 -77q-70 0 -109 31.5t-39 88.5zM411 179l13 70h-173q-74 0 -110.5 -36
t-36.5 -96q0 -93 120 -93q74 0 123 38.5t64 116.5zM497 612h-249v30h249v-30z" />
    <glyph glyph-name="Abreve" unicode="&#x102;" horiz-adv-x="522" 
d="M144 178l-95 -178h-34l366 690h28l98 -690h-30l-25 178h-308zM447 208l-61 427l-227 -427h288zM554 887h30q-14 -69 -55.5 -99.5t-119.5 -30.5q-67 0 -101.5 34t-22.5 96h30q-19 -100 100 -100q66 0 97.5 25.5t41.5 74.5z" />
    <glyph glyph-name="abreve" unicode="&#x103;" 
d="M74 114q0 77 48 121t135 44h173l13 68q14 75 -10.5 102t-103.5 27q-52 0 -88 -11q-32 -10 -66 -53l-22 19q32 42 73 58.5t108 16.5q89 0 122.5 -37t16.5 -122l-67 -347h-30l14 71q-47 -77 -168 -77q-70 0 -109 31.5t-39 88.5zM411 179l13 70h-173q-74 0 -110.5 -36
t-36.5 -96q0 -93 120 -93q74 0 123 38.5t64 116.5zM480 700h30q-11 -61 -47 -89.5t-102 -28.5q-58 0 -86 31t-17 87h30q-18 -88 79 -88q52 0 78 21t35 67z" />
    <glyph glyph-name="Aogonek" unicode="&#x104;" horiz-adv-x="522" 
d="M144 178l-95 -178h-34l366 690h28l98 -690h-14l-35 -13q-4 -2 -17 -7.5t-16 -7.5t-12.5 -9.5t-12.5 -10.5t-8.5 -9.5t-7.5 -12.5t-2 -14q0 -36 60 -36q20 0 35 3v-29q-15 -4 -40 -4q-38 0 -62 15.5t-24 45.5q0 37 27 59q26 21 96 52l-22 156h-308zM447 208l-61 427
l-227 -427h288z" />
    <glyph glyph-name="aogonek" unicode="&#x105;" 
d="M74 114q0 77 48 121t135 44h173l13 68q14 75 -10.5 102t-103.5 27q-52 0 -88 -11q-32 -10 -66 -53l-22 19q32 42 73 58.5t108 16.5q89 0 122.5 -37t16.5 -122l-67 -347h-3l-35 -13q-4 -2 -17 -7.5t-16 -7.5t-12.5 -9.5t-12.5 -10.5t-8.5 -9.5t-7.5 -12.5t-2 -14
q0 -36 60 -36q20 0 35 3v-29q-15 -4 -40 -4q-38 0 -62 15.5t-24 45.5q0 36 25.5 58t93.5 51l10 51q-47 -77 -168 -77q-70 0 -109 31.5t-39 88.5zM411 179l13 70h-173q-74 0 -110.5 -36t-36.5 -96q0 -93 120 -93q74 0 123 38.5t64 116.5z" />
    <glyph glyph-name="Cacute" unicode="&#x106;" horiz-adv-x="583" 
d="M633 489h-30q2 89 -43 133t-130 44q-108 0 -171.5 -64t-92.5 -211l-18 -92q-29 -144 11.5 -209.5t145.5 -65.5q179 0 243 181h29q-25 -77 -72 -127q-81 -84 -203 -84q-117 0 -165.5 75t-18.5 230l18 92q32 161 104 233t194 72q88 0 147 -53q58 -52 52 -154zM456 767h-30
l90 129h35z" />
    <glyph glyph-name="cacute" unicode="&#x107;" horiz-adv-x="443" 
d="M414 91l23 -18q-69 -79 -179 -79q-97 0 -142 57.5t-25 158.5l16 82q40 214 247 214q107 0 150 -76l-26 -15q-39 61 -128 61q-179 0 -213 -184l-16 -82q-18 -89 17 -137.5t123 -48.5q92 0 153 67zM355 567h-30l111 158h35z" />
    <glyph glyph-name="Ccircumflex" unicode="&#x108;" horiz-adv-x="583" 
d="M633 489h-30q2 89 -43 133t-130 44q-108 0 -171.5 -64t-92.5 -211l-18 -92q-29 -144 11.5 -209.5t145.5 -65.5q179 0 243 181h29q-25 -77 -72 -127q-81 -84 -203 -84q-117 0 -165.5 75t-18.5 230l18 92q32 161 104 233t194 72q88 0 147 -53q58 -52 52 -154zM281 757
l177 142h32l121 -142h-42l-98 116l-144 -116h-46z" />
    <glyph glyph-name="ccircumflex" unicode="&#x109;" horiz-adv-x="443" 
d="M414 91l23 -18q-69 -79 -179 -79q-97 0 -142 57.5t-25 158.5l16 82q40 214 247 214q107 0 150 -76l-26 -15q-39 61 -128 61q-179 0 -213 -184l-16 -82q-18 -89 17 -137.5t123 -48.5q92 0 153 67zM224 558l136 142h32l80 -142h-36l-64 113l-108 -113h-40z" />
    <glyph glyph-name="Cdotaccent" unicode="&#x10a;" horiz-adv-x="583" 
d="M633 489h-30q2 89 -43 133t-130 44q-108 0 -171.5 -64t-92.5 -211l-18 -92q-29 -144 11.5 -209.5t145.5 -65.5q179 0 243 181h29q-25 -77 -72 -127q-81 -84 -203 -84q-117 0 -165.5 75t-18.5 230l18 92q32 161 104 233t194 72q88 0 147 -53q58 -52 52 -154zM493 869
l-8 -44h-44l8 44h44z" />
    <glyph glyph-name="cdotaccent" unicode="&#x10b;" horiz-adv-x="443" 
d="M414 91l23 -18q-69 -79 -179 -79q-97 0 -142 57.5t-25 158.5l16 82q40 214 247 214q107 0 150 -76l-26 -15q-39 61 -128 61q-179 0 -213 -184l-16 -82q-18 -89 17 -137.5t123 -48.5q92 0 153 67zM396 690l-8 -44h-44l8 44h44z" />
    <glyph glyph-name="Ccaron" unicode="&#x10c;" horiz-adv-x="583" 
d="M633 489h-30q2 89 -43 133t-130 44q-108 0 -171.5 -64t-92.5 -211l-18 -92q-29 -144 11.5 -209.5t145.5 -65.5q179 0 243 181h29q-25 -77 -72 -127q-81 -84 -203 -84q-117 0 -165.5 75t-18.5 230l18 92q32 161 104 233t194 72q88 0 147 -53q58 -52 52 -154zM309 899h42
l98 -116l144 116h46l-177 -142h-32z" />
    <glyph glyph-name="ccaron" unicode="&#x10d;" horiz-adv-x="443" 
d="M414 91l23 -18q-69 -79 -179 -79q-97 0 -142 57.5t-25 158.5l16 82q40 214 247 214q107 0 150 -76l-26 -15q-39 61 -128 61q-179 0 -213 -184l-16 -82q-18 -89 17 -137.5t123 -48.5q92 0 153 67zM500 700l-136 -142h-32l-80 142h36l64 -113l108 113h40z" />
    <glyph glyph-name="Dcaron" unicode="&#x10e;" horiz-adv-x="605" 
d="M295 0h-200l134 690h200q120 0 170.5 -75t21.5 -224l-18 -92q-32 -165 -105 -232q-71 -67 -203 -67zM131 30h170q110 0 177 59t95 210l18 92q27 143 -15.5 206t-152.5 63h-170zM298 899h42l98 -116l144 116h46l-177 -142h-32z" />
    <glyph glyph-name="dcaron" unicode="&#x10f;" horiz-adv-x="561" 
d="M489 425l51 265h30l-134 -690h-30l14 70q-30 -41 -72 -58.5t-106 -17.5q-92 0 -131.5 56.5t-19.5 159.5l16 82q22 111 77.5 162.5t154.5 51.5q121 0 150 -81zM245 24q92 0 138 45t64 140l17 90q16 88 -13 132.5t-115 44.5q-84 0 -132.5 -45t-66.5 -139l-16 -82
q-36 -186 124 -186zM645 690h30l-22 -110l-35 -27z" />
    <glyph glyph-name="Dcroat" unicode="&#x110;" horiz-adv-x="605" 
d="M161 342h-103l6 30h103l62 318h200q120 0 170.5 -75t21.5 -224l-18 -92q-32 -165 -105 -232q-71 -67 -203 -67h-200zM131 30h170q110 0 177 59t95 210l18 92q27 143 -15.5 206t-152.5 63h-170l-56 -288h216l-6 -30h-216z" />
    <glyph glyph-name="dslash" unicode="&#x111;" horiz-adv-x="511" 
d="M518 579h-182l6 30h182l16 81h30l-16 -81h107l-6 -30h-107l-112 -579h-30l14 70q-30 -41 -72 -58.5t-106 -17.5q-92 0 -131.5 56.5t-19.5 159.5l16 82q22 111 77.5 162.5t154.5 51.5q121 0 150 -81zM245 24q92 0 138 45t64 140l17 90q16 88 -13 132.5t-115 44.5
q-84 0 -132.5 -45t-66.5 -139l-16 -82q-36 -186 124 -186z" />
    <glyph glyph-name="Emacron" unicode="&#x112;" horiz-adv-x="546" 
d="M95 0l134 690h396l-6 -30h-366l-56 -288h336l-6 -30h-336l-60 -312h366l-6 -30h-396zM604 815h-289v30h289v-30z" />
    <glyph glyph-name="emacron" unicode="&#x113;" 
d="M483 292l-10 -50h-346l-6 -32q-18 -89 17 -137.5t123 -48.5q92 0 153 67l23 -18q-69 -79 -179 -79q-98 0 -142 57t-25 159l16 82q42 214 226 214q90 0 130 -56t20 -158zM137 292l-4 -20h316l4 20q36 184 -122 184q-157 0 -194 -184zM491 612h-249v30h249v-30z" />
    <glyph glyph-name="Edotaccent" unicode="&#x116;" horiz-adv-x="546" 
d="M95 0l134 690h396l-6 -30h-366l-56 -288h336l-6 -30h-336l-60 -312h366l-6 -30h-396zM487 869l-8 -44h-44l8 44h44z" />
    <glyph glyph-name="edotaccent" unicode="&#x117;" 
d="M483 292l-10 -50h-346l-6 -32q-18 -89 17 -137.5t123 -48.5q92 0 153 67l23 -18q-69 -79 -179 -79q-98 0 -142 57t-25 159l16 82q42 214 226 214q90 0 130 -56t20 -158zM137 292l-4 -20h316l4 20q36 184 -122 184q-157 0 -194 -184zM398 690l-8 -44h-44l8 44h44z" />
    <glyph glyph-name="Eogonek" unicode="&#x118;" horiz-adv-x="546" 
d="M95 0l134 690h396l-6 -30h-366l-56 -288h336l-6 -30h-336l-60 -312h366l-6 -30h-133l-35 -13q-4 -2 -17 -7.5t-16 -7.5t-12.5 -9.5t-12.5 -10.5t-8.5 -9.5t-7.5 -12.5t-2 -14q0 -36 60 -36q20 0 35 3v-29q-15 -4 -40 -4q-38 0 -62 15.5t-24 45.5q0 29 17 48.5t57 40.5
h-195z" />
    <glyph glyph-name="eogonek" unicode="&#x119;" 
d="M483 292l-10 -50h-346l-6 -32q-18 -89 17 -137.5t123 -48.5q92 0 153 67l23 -18q-52 -59 -129 -74l-26 -10l-23 -10q-16 -7 -25 -12q-38 -28 -34 -51q0 -36 60 -36q20 0 35 3v-29q-15 -4 -40 -4q-38 0 -62 15.5t-24 45.5q0 28 15.5 47t51.5 37q-87 7 -125.5 63.5
t-19.5 151.5l16 82q42 214 226 214q90 0 130 -56t20 -158zM137 292l-4 -20h316l4 20q36 184 -122 184q-157 0 -194 -184z" />
    <glyph glyph-name="Ecaron" unicode="&#x11a;" horiz-adv-x="546" 
d="M95 0l134 690h396l-6 -30h-366l-56 -288h336l-6 -30h-336l-60 -312h366l-6 -30h-396zM304 899h42l98 -116l144 116h46l-177 -142h-32z" />
    <glyph glyph-name="ecaron" unicode="&#x11b;" 
d="M483 292l-10 -50h-346l-6 -32q-18 -89 17 -137.5t123 -48.5q92 0 153 67l23 -18q-69 -79 -179 -79q-98 0 -142 57t-25 159l16 82q42 214 226 214q90 0 130 -56t20 -158zM137 292l-4 -20h316l4 20q36 184 -122 184q-157 0 -194 -184zM502 700l-136 -142h-32l-80 142h36
l64 -113l108 113h40z" />
    <glyph glyph-name="Gcircumflex" unicode="&#x11c;" horiz-adv-x="604" 
d="M361 295l5 30h241l-3 -16q-30 -163 -105.5 -239t-197.5 -76q-116 0 -164 76t-19 229l18 92q32 161 103.5 233t193.5 72q91 0 148 -54q58 -52 52 -153h-30q2 89 -43 133t-130 44q-108 0 -171.5 -64t-92.5 -211l-18 -92q-29 -143 11.5 -209t145.5 -66q212 0 267 271h-211z
M284 757l177 142h32l121 -142h-42l-98 116l-144 -116h-46z" />
    <glyph glyph-name="gcircumflex" unicode="&#x11d;" horiz-adv-x="511" 
d="M91 210l17 86q22 109 77.5 159.5t152.5 50.5q122 0 151 -81l14 75h30l-91 -470q-21 -110 -82 -168t-154 -58q-110 0 -144 79l27 16q33 -65 120 -65q81 0 133 51.5t70 144.5l8 40q-30 -40 -71.5 -58t-106.5 -18q-92 0 -131 55.5t-20 160.5zM244 24q90 0 137.5 44t63.5 132
l19 99q16 90 -13 133.5t-116 43.5q-83 0 -131.5 -45t-66.5 -139l-16 -83q-36 -185 123 -185zM231 558l136 142h32l80 -142h-36l-64 113l-108 -113h-40z" />
    <glyph glyph-name="Gbreve" unicode="&#x11e;" horiz-adv-x="604" 
d="M361 295l5 30h241l-3 -16q-30 -163 -105.5 -239t-197.5 -76q-116 0 -164 76t-19 229l18 92q32 161 103.5 233t193.5 72q91 0 148 -54q58 -52 52 -153h-30q2 89 -43 133t-130 44q-108 0 -171.5 -64t-92.5 -211l-18 -92q-29 -143 11.5 -209t145.5 -66q212 0 267 271h-211z
M595 887h30q-14 -69 -55.5 -99.5t-119.5 -30.5q-68 0 -102 34t-22 96h30q-19 -100 100 -100q66 0 97.5 25.5t41.5 74.5z" />
    <glyph glyph-name="gbreve" unicode="&#x11f;" horiz-adv-x="511" 
d="M91 210l17 86q22 109 77.5 159.5t152.5 50.5q122 0 151 -81l14 75h30l-91 -470q-21 -110 -82 -168t-154 -58q-110 0 -144 79l27 16q33 -65 120 -65q81 0 133 51.5t70 144.5l8 40q-30 -40 -71.5 -58t-106.5 -18q-92 0 -131 55.5t-20 160.5zM244 24q90 0 137.5 44t63.5 132
l19 99q16 90 -13 133.5t-116 43.5q-83 0 -131.5 -45t-66.5 -139l-16 -83q-36 -185 123 -185zM475 700h30q-11 -61 -47 -89.5t-102 -28.5q-58 0 -86 31t-17 87h30q-18 -88 79 -88q52 0 78 21t35 67z" />
    <glyph glyph-name="Gdotaccent" unicode="&#x120;" horiz-adv-x="604" 
d="M361 295l5 30h241l-3 -16q-30 -163 -105.5 -239t-197.5 -76q-116 0 -164 76t-19 229l18 92q32 161 103.5 233t193.5 72q91 0 148 -54q58 -52 52 -153h-30q2 89 -43 133t-130 44q-108 0 -171.5 -64t-92.5 -211l-18 -92q-29 -143 11.5 -209t145.5 -66q212 0 267 271h-211z
M496 869l-8 -44h-44l8 44h44z" />
    <glyph glyph-name="gdotaccent" unicode="&#x121;" horiz-adv-x="511" 
d="M91 210l17 86q22 109 77.5 159.5t152.5 50.5q122 0 151 -81l14 75h30l-91 -470q-21 -110 -82 -168t-154 -58q-110 0 -144 79l27 16q33 -65 120 -65q81 0 133 51.5t70 144.5l8 40q-30 -40 -71.5 -58t-106.5 -18q-92 0 -131 55.5t-20 160.5zM244 24q90 0 137.5 44t63.5 132
l19 99q16 90 -13 133.5t-116 43.5q-83 0 -131.5 -45t-66.5 -139l-16 -83q-36 -185 123 -185zM403 690l-8 -44h-44l8 44h44z" />
    <glyph glyph-name="Gcommaaccent" unicode="&#x122;" horiz-adv-x="604" 
d="M361 295l5 30h241l-3 -16q-30 -163 -105.5 -239t-197.5 -76q-116 0 -164 76t-19 229l18 92q32 161 103.5 233t193.5 72q91 0 148 -54q58 -52 52 -153h-30q2 89 -43 133t-130 44q-108 0 -171.5 -64t-92.5 -211l-18 -92q-29 -143 11.5 -209t145.5 -66q212 0 267 271h-211z
M275 -64h30l-22 -110l-35 -27z" />
    <glyph glyph-name="gcommaaccent" unicode="&#x123;" horiz-adv-x="511" 
d="M91 210l17 86q22 109 77.5 159.5t152.5 50.5q122 0 151 -81l14 75h30l-91 -470q-21 -110 -82 -168t-154 -58q-110 0 -144 79l27 16q33 -65 120 -65q81 0 133 51.5t70 144.5l8 40q-30 -40 -71.5 -58t-106.5 -18q-92 0 -131 55.5t-20 160.5zM244 24q90 0 137.5 44t63.5 132
l19 99q16 90 -13 133.5t-116 43.5q-83 0 -131.5 -45t-66.5 -139l-16 -83q-36 -185 123 -185zM366 584h-30l22 110l35 27z" />
    <glyph glyph-name="Hcircumflex" unicode="&#x124;" horiz-adv-x="638" 
d="M229 690h30l-61 -316h388l61 316h30l-134 -690h-30l67 344h-388l-67 -344h-30zM301 757l177 142h32l121 -142h-42l-98 116l-144 -116h-46z" />
    <glyph glyph-name="hcircumflex" unicode="&#x125;" horiz-adv-x="526" 
d="M105 0h-30l134 690h30l-52 -269q60 85 175 85q86 0 125 -60.5t19 -163.5l-55 -282h-30l55 282q19 92 -12.5 143t-104.5 51q-159 0 -197 -185zM115 748l136 142h32l80 -142h-36l-64 113l-108 -113h-40z" />
    <glyph glyph-name="Hbar" unicode="&#x126;" horiz-adv-x="638" 
d="M615 522l32 168h30l-32 -168h100l-6 -30h-100l-96 -492h-30l67 344h-388l-67 -344h-30l96 492h-100l6 30h100l32 168h30l-32 -168h388zM609 492h-388l-23 -118h388z" />
    <glyph glyph-name="hbar" unicode="&#x127;" horiz-adv-x="526" 
d="M187 579h-93l5 30h94l16 81h30l-16 -81h195l-5 -30h-196l-30 -158q60 85 175 85q86 0 125 -60.5t19 -163.5l-55 -282h-30l55 282q19 92 -12.5 143t-104.5 51q-159 0 -197 -185l-57 -291h-30z" />
    <glyph glyph-name="Imacron" unicode="&#x12a;" horiz-adv-x="240" 
d="M239 690h30l-134 -690h-30zM431 815h-289v30h289v-30z" />
    <glyph glyph-name="imacron" unicode="&#x12b;" horiz-adv-x="210" 
d="M120 0h-30l97 500h30zM358 612h-249v30h249v-30z" />
    <glyph glyph-name="Iogonek" unicode="&#x12e;" horiz-adv-x="240" 
d="M239 690h30l-134 -690h-10l-35 -13q-4 -2 -17 -7.5t-16 -7.5t-12.5 -9.5t-12.5 -10.5t-8.5 -9.5t-7.5 -12.5t-2 -14q0 -36 60 -36q20 0 35 3v-29q-15 -4 -40 -4q-38 0 -62 15.5t-24 45.5q0 37 27 60q30 24 99 53z" />
    <glyph glyph-name="iogonek" unicode="&#x12f;" horiz-adv-x="210" 
d="M217 500l-97 -500h-8l-35 -13q-4 -2 -17 -7.5t-16 -7.5t-12.5 -9.5t-12.5 -10.5t-8.5 -9.5t-7.5 -12.5t-2 -14q0 -36 60 -36q20 0 35 3v-29q-15 -4 -40 -4q-38 0 -62 15.5t-24 45.5q0 38 28 60q26 21 96 52l93 477h30zM253 646h-44l8 44h44z" />
    <glyph glyph-name="Idot" unicode="&#x130;" horiz-adv-x="240" 
d="M239 690h30l-134 -690h-30zM315 869l-8 -44h-44l8 44h44z" />
    <glyph glyph-name="dotlessi" unicode="&#x131;" horiz-adv-x="210" 
d="M120 0h-30l97 500h30z" />
    <glyph glyph-name="Jcircumflex" unicode="&#x134;" horiz-adv-x="505" 
d="M35 81l26 13q37 -70 132 -70q102 0 159.5 62.5t83.5 200.5l78 403h31l-79 -404q-31 -162 -100 -228q-67 -64 -177 -64q-113 0 -154 87zM378 757l177 142h32l121 -142h-42l-98 116l-144 -116h-46z" />
    <glyph glyph-name="jcircumflex" unicode="&#x135;" horiz-adv-x="235" 
d="M202 500h30l-104 -536q-16 -86 -52 -120q-34 -34 -113 -34l6 30q67 0 91 30q24 28 41 110zM109 558l136 142h32l80 -142h-36l-64 113l-108 -113h-40z" />
    <glyph glyph-name="Kcommaaccent" unicode="&#x136;" horiz-adv-x="601" 
d="M378 413l213 -413h-34l-202 392l-188 -176l-42 -216h-30l134 690h30l-82 -424l453 424h44zM288 -64h30l-22 -110l-35 -27z" />
    <glyph glyph-name="kcommaaccent" unicode="&#x137;" horiz-adv-x="492" 
d="M144 201l349 299h44l-260 -224l195 -276h-37l-182 256l-118 -101l-30 -155h-30l134 690h30zM216 -64h30l-22 -110l-35 -27z" />
    <glyph glyph-name="Lacute" unicode="&#x139;" horiz-adv-x="501" 
d="M229 690h30l-128 -660h366l-6 -30h-396zM274 767h-30l90 129h35z" />
    <glyph glyph-name="lacute" unicode="&#x13a;" horiz-adv-x="255" 
d="M104 151l105 539h30l-103 -531q-19 -65 -1.5 -98.5t80.5 -33.5l-6 -30q-70 0 -95 38.5t-10 115.5zM245 726h-30l111 158h35z" />
    <glyph glyph-name="Lcommaaccent" unicode="&#x13b;" horiz-adv-x="501" 
d="M229 690h30l-128 -660h366l-6 -30h-396zM266 -64h30l-22 -110l-35 -27z" />
    <glyph glyph-name="lcommaaccent" unicode="&#x13c;" horiz-adv-x="255" 
d="M104 151l105 539h30l-103 -531q-19 -65 -1.5 -98.5t80.5 -33.5l-6 -30q-70 0 -95 38.5t-10 115.5zM117 -64h30l-22 -110l-35 -27z" />
    <glyph glyph-name="Lcaron" unicode="&#x13d;" horiz-adv-x="501" 
d="M229 690h30l-128 -660h366l-6 -30h-396zM447 690h40l-21 -108l-47 -35z" />
    <glyph glyph-name="lcaron" unicode="&#x13e;" horiz-adv-x="293" 
d="M104 151l105 539h30l-103 -531q-19 -65 -1.5 -98.5t80.5 -33.5l-6 -30q-70 0 -95 38.5t-10 115.5zM355 690h30l-22 -110l-35 -27z" />
    <glyph glyph-name="Ldot" unicode="&#x13f;" horiz-adv-x="501" 
d="M229 690h30l-128 -660h366l-6 -30h-396zM465 400l-8 -44h-44l8 44h44z" />
    <glyph glyph-name="ldot" unicode="&#x140;" horiz-adv-x="255" 
d="M104 151l105 539h30l-103 -531q-19 -65 -1.5 -98.5t80.5 -33.5l-6 -30q-70 0 -95 38.5t-10 115.5zM320 393l-8 -44h-44l8 44h44z" />
    <glyph glyph-name="Lslash" unicode="&#x141;" horiz-adv-x="501" 
d="M219 690h30l-62 -317l220 153l15 -25l-242 -167l-59 -304h366l-6 -30h-396l61 310l-96 -67l-15 25l118 81z" />
    <glyph glyph-name="lslash" unicode="&#x142;" horiz-adv-x="255" 
d="M135 310l-96 -58l-13 25l117 71l66 342h30l-62 -322l150 92l13 -24l-171 -105l-33 -172q-19 -65 -1.5 -98.5t80.5 -33.5l-5 -30q-75 0 -98 36t-7 118z" />
    <glyph glyph-name="Nacute" unicode="&#x143;" horiz-adv-x="638" 
d="M523 57l124 633h30l-134 -690h-28l-267 630l-123 -630h-30l134 690h28zM480 767h-30l90 129h35z" />
    <glyph glyph-name="nacute" unicode="&#x144;" horiz-adv-x="526" 
d="M105 0h-30l97 500h30l-15 -79q60 85 174 85q87 0 126 -60.5t19 -163.5l-55 -282h-30l55 282q19 92 -12.5 143t-104.5 51q-159 0 -197 -185zM387 567h-30l111 158h35z" />
    <glyph glyph-name="Ncommaaccent" unicode="&#x145;" horiz-adv-x="638" 
d="M523 57l124 633h30l-134 -690h-28l-267 630l-123 -630h-30l134 690h28zM296 -64h30l-22 -110l-35 -27z" />
    <glyph glyph-name="ncommaaccent" unicode="&#x146;" horiz-adv-x="526" 
d="M105 0h-30l97 500h30l-15 -79q60 85 174 85q87 0 126 -60.5t19 -163.5l-55 -282h-30l55 282q19 92 -12.5 143t-104.5 51q-159 0 -197 -185zM236 -64h30l-22 -110l-35 -27z" />
    <glyph glyph-name="Ncaron" unicode="&#x147;" horiz-adv-x="638" 
d="M523 57l124 633h30l-134 -690h-28l-267 630l-123 -630h-30l134 690h28zM329 899h42l98 -116l144 116h46l-177 -142h-32z" />
    <glyph glyph-name="ncaron" unicode="&#x148;" horiz-adv-x="526" 
d="M105 0h-30l97 500h30l-15 -79q60 85 174 85q87 0 126 -60.5t19 -163.5l-55 -282h-30l55 282q19 92 -12.5 143t-104.5 51q-159 0 -197 -185zM527 700l-136 -142h-32l-80 142h36l64 -113l108 113h40z" />
    <glyph glyph-name="Omacron" unicode="&#x14c;" horiz-adv-x="600" 
d="M616 391l-18 -92q-59 -305 -296 -305q-112 0 -162.5 78t-21.5 227l18 92q32 158 105 231.5t193 73.5q112 0 161.5 -80t20.5 -225zM166 391l-18 -92q-27 -139 15 -207t142 -68q210 0 263 275l18 92q27 140 -14.5 207.5t-141.5 67.5q-104 0 -169.5 -66t-94.5 -209zM611 815
h-289v30h289v-30z" />
    <glyph glyph-name="omacron" unicode="&#x14d;" horiz-adv-x="496" 
d="M503 292l-16 -84q-40 -214 -237 -214q-93 0 -135.5 56t-23.5 158l16 84q40 214 237 214q94 0 136 -56t23 -158zM457 208l16 84q36 184 -132 184q-170 0 -204 -184l-16 -84q-36 -184 132 -184q170 0 204 184zM501 612h-249v30h249v-30z" />
    <glyph glyph-name="Ohungarumlaut" unicode="&#x150;" horiz-adv-x="600" 
d="M616 391l-18 -92q-59 -305 -296 -305q-112 0 -162.5 78t-21.5 227l18 92q32 158 105 231.5t193 73.5q112 0 161.5 -80t20.5 -225zM166 391l-18 -92q-27 -139 15 -207t142 -68q210 0 263 275l18 92q27 140 -14.5 207.5t-141.5 67.5q-104 0 -169.5 -66t-94.5 -209zM359 767
h-30l105 129h35zM544 767h-30l105 129h35z" />
    <glyph glyph-name="ohungarumlaut" unicode="&#x151;" horiz-adv-x="496" 
d="M503 292l-16 -84q-40 -214 -237 -214q-93 0 -135.5 56t-23.5 158l16 84q40 214 237 214q94 0 136 -56t23 -158zM457 208l16 84q36 184 -132 184q-170 0 -204 -184l-16 -84q-36 -184 132 -184q170 0 204 184zM276 567h-30l111 158h35zM461 567h-30l111 158h35z" />
    <glyph glyph-name="OE" unicode="&#x152;" horiz-adv-x="961" 
d="M618 553l27 137h396l-6 -30h-366l-56 -288h336l-6 -30h-336l-60 -312h366l-6 -30h-396l24 124q-78 -130 -233 -130q-112 0 -162.5 78t-21.5 227l18 92q32 158 105 231.5t193 73.5q73 0 121 -37t63 -106zM166 391l-18 -92q-27 -139 15 -207t142 -68q210 0 263 275l18 92
q27 140 -14.5 207.5t-141.5 67.5q-104 0 -169.5 -66t-94.5 -209z" />
    <glyph glyph-name="oe" unicode="&#x153;" horiz-adv-x="847" 
d="M849 292l-10 -50h-346l-6 -34q-33 -184 140 -184q92 0 153 67l23 -18q-69 -79 -179 -79q-71 0 -114.5 30.5t-54.5 87.5q-58 -118 -205 -118q-93 0 -135.5 56t-23.5 158l16 84q40 214 237 214q142 0 161 -118q58 118 194 118q90 0 130 -56t20 -158zM457 208l16 84
q36 184 -132 184q-170 0 -204 -184l-16 -84q-36 -184 132 -184q170 0 204 184zM503 292l-4 -20h316l4 20q36 184 -122 184q-157 0 -194 -184z" />
    <glyph glyph-name="Racute" unicode="&#x154;" horiz-adv-x="604" 
d="M455 305l109 -305h-32l-107 299q-23 -4 -63 -4h-180l-57 -295h-30l134 690h210q98 0 152.5 -44t54.5 -119q0 -95 -47 -148t-144 -74zM253 660l-65 -335h180q248 0 248 196q0 139 -183 139h-180zM436 767h-30l90 129h35z" />
    <glyph glyph-name="racute" unicode="&#x155;" horiz-adv-x="381" 
d="M333 476q-66 0 -109.5 -49t-61.5 -136l-57 -291h-30l97 500h30l-15 -78q51 84 150 84q86 0 129 -70l-26 -18q-37 58 -107 58zM346 567h-30l111 158h35z" />
    <glyph glyph-name="Rcommaaccent" unicode="&#x156;" horiz-adv-x="604" 
d="M455 305l109 -305h-32l-107 299q-23 -4 -63 -4h-180l-57 -295h-30l134 690h210q98 0 152.5 -44t54.5 -119q0 -95 -47 -148t-144 -74zM253 660l-65 -335h180q248 0 248 196q0 139 -183 139h-180zM260 -64h30l-22 -110l-35 -27z" />
    <glyph glyph-name="rcommaaccent" unicode="&#x157;" horiz-adv-x="381" 
d="M333 476q-66 0 -109.5 -49t-61.5 -136l-57 -291h-30l97 500h30l-15 -78q51 84 150 84q86 0 129 -70l-26 -18q-37 58 -107 58zM63 -64h30l-22 -110l-35 -27z" />
    <glyph glyph-name="Rcaron" unicode="&#x158;" horiz-adv-x="604" 
d="M455 305l109 -305h-32l-107 299q-23 -4 -63 -4h-180l-57 -295h-30l134 690h210q98 0 152.5 -44t54.5 -119q0 -95 -47 -148t-144 -74zM253 660l-65 -335h180q248 0 248 196q0 139 -183 139h-180zM296 899h42l98 -116l144 116h46l-177 -142h-32z" />
    <glyph glyph-name="rcaron" unicode="&#x159;" horiz-adv-x="381" 
d="M333 476q-66 0 -109.5 -49t-61.5 -136l-57 -291h-30l97 500h30l-15 -78q51 84 150 84q86 0 129 -70l-26 -18q-37 58 -107 58zM505 700l-136 -142h-32l-80 142h36l64 -113l108 113h40z" />
    <glyph glyph-name="Sacute" unicode="&#x15a;" horiz-adv-x="568" 
d="M614 582l-28 -16q-40 100 -174 100q-100 0 -156.5 -42.5t-56.5 -116.5q0 -72 54 -104q27 -15 49 -24q17 -6 64 -19q94 -26 137 -62q46 -36 46 -110q0 -90 -66 -142t-191 -52q-158 0 -214 114l25 16q28 -50 72 -75t121 -25q106 0 164.5 43.5t58.5 114.5q0 62 -37 95
t-126 55q-98 26 -143 63t-45 108q0 83 61 138t187 55q142 0 198 -114zM432 767h-30l90 129h35z" />
    <glyph glyph-name="sacute" unicode="&#x15b;" horiz-adv-x="456" 
d="M473 423l-26 -16q-18 39 -48 54t-87 15q-73 0 -117 -28.5t-44 -84.5q0 -35 26 -59q9 -7 31 -16q26 -8 74 -18q151 -28 151 -127q0 -62 -47 -106q-46 -43 -155 -43q-70 0 -109.5 20t-61.5 63l28 17q18 -37 52 -53.5t94 -16.5q168 0 168 113q0 45 -34.5 68t-113.5 38
q-134 25 -134 116q0 68 52.5 107.5t141.5 39.5q121 0 159 -83zM345 567h-30l111 158h35z" />
    <glyph glyph-name="Scircumflex" unicode="&#x15c;" horiz-adv-x="568" 
d="M614 582l-28 -16q-40 100 -174 100q-100 0 -156.5 -42.5t-56.5 -116.5q0 -72 54 -104q27 -15 49 -24q17 -6 64 -19q94 -26 137 -62q46 -36 46 -110q0 -90 -66 -142t-191 -52q-158 0 -214 114l25 16q28 -50 72 -75t121 -25q106 0 164.5 43.5t58.5 114.5q0 62 -37 95
t-126 55q-98 26 -143 63t-45 108q0 83 61 138t187 55q142 0 198 -114zM270 757l177 142h32l121 -142h-42l-98 116l-144 -116h-46z" />
    <glyph glyph-name="scircumflex" unicode="&#x15d;" horiz-adv-x="456" 
d="M473 423l-26 -16q-18 39 -48 54t-87 15q-73 0 -117 -28.5t-44 -84.5q0 -35 26 -59q9 -7 31 -16q26 -8 74 -18q151 -28 151 -127q0 -62 -47 -106q-46 -43 -155 -43q-70 0 -109.5 20t-61.5 63l28 17q18 -37 52 -53.5t94 -16.5q168 0 168 113q0 45 -34.5 68t-113.5 38
q-134 25 -134 116q0 68 52.5 107.5t141.5 39.5q121 0 159 -83zM209 558l136 142h32l80 -142h-36l-64 113l-108 -113h-40z" />
    <glyph glyph-name="Scedilla" unicode="&#x15e;" horiz-adv-x="568" 
d="M258 -41l14 36q-143 6 -194 113l25 16q28 -50 72 -75t121 -25q106 0 164.5 43.5t58.5 114.5q0 62 -37 95t-126 55q-98 26 -143 63t-45 108q0 83 61 138t187 55q142 0 198 -114l-28 -16q-40 100 -174 100q-100 0 -156.5 -42.5t-56.5 -116.5q0 -72 54 -104q27 -15 49 -24
q17 -6 64 -19q94 -26 137 -62q46 -36 46 -110q0 -88 -63.5 -140t-184.5 -54l-6 -14q68 -14 68 -65q0 -44 -34.5 -69t-90.5 -25q-22 0 -36 3l12 29q22 -2 30 -2q88 0 88 59q0 44 -74 49z" />
    <glyph glyph-name="scedilla" unicode="&#x15f;" horiz-adv-x="456" 
d="M473 423l-26 -16q-18 39 -48 54t-87 15q-73 0 -117 -28.5t-44 -84.5q0 -35 26 -59q9 -7 31 -16q26 -8 74 -18q151 -28 151 -127q0 -60 -44 -104q-43 -42 -147 -45l-7 -14q68 -14 68 -65q0 -44 -34.5 -69t-90.5 -25q-22 0 -36 3l12 29q22 -2 30 -2q88 0 88 59q0 44 -74 49
l15 35q-115 4 -153 83l28 17q18 -37 52 -53.5t94 -16.5q168 0 168 113q0 45 -34.5 68t-113.5 38q-134 25 -134 116q0 68 52.5 107.5t141.5 39.5q121 0 159 -83z" />
    <glyph glyph-name="Scaron" unicode="&#x160;" horiz-adv-x="568" 
d="M614 582l-28 -16q-40 100 -174 100q-100 0 -156.5 -42.5t-56.5 -116.5q0 -72 54 -104q27 -15 49 -24q17 -6 64 -19q94 -26 137 -62q46 -36 46 -110q0 -90 -66 -142t-191 -52q-158 0 -214 114l25 16q28 -50 72 -75t121 -25q106 0 164.5 43.5t58.5 114.5q0 62 -37 95
t-126 55q-98 26 -143 63t-45 108q0 83 61 138t187 55q142 0 198 -114zM288 899h42l98 -116l144 116h46l-177 -142h-32z" />
    <glyph glyph-name="scaron" unicode="&#x161;" horiz-adv-x="456" 
d="M473 423l-26 -16q-18 39 -48 54t-87 15q-73 0 -117 -28.5t-44 -84.5q0 -35 26 -59q9 -7 31 -16q26 -8 74 -18q151 -28 151 -127q0 -62 -47 -106q-46 -43 -155 -43q-70 0 -109.5 20t-61.5 63l28 17q18 -37 52 -53.5t94 -16.5q168 0 168 113q0 45 -34.5 68t-113.5 38
q-134 25 -134 116q0 68 52.5 107.5t141.5 39.5q121 0 159 -83zM485 700l-136 -142h-32l-80 142h36l64 -113l108 113h40z" />
    <glyph glyph-name="Tcedilla" unicode="&#x162;" horiz-adv-x="516" 
d="M226 -41l17 41l128 660h-228l6 30h486l-6 -30h-228l-128 -660l-10 -20q68 -14 68 -65q0 -44 -34.5 -69t-90.5 -25q-22 0 -36 3l12 29q22 -2 30 -2q88 0 88 59q0 44 -74 49z" />
    <glyph glyph-name="tcedilla" unicode="&#x163;" horiz-adv-x="302" 
d="M186 470h-63l5 30h64l22 110h30l-22 -110h132l-5 -30h-133l-59 -306q-20 -68 -2.5 -101t81.5 -33h27l-6 -30h-28q-18 0 -23 1l-11 -21q68 -14 68 -65q0 -44 -34.5 -69t-90.5 -25q-22 0 -36 3l12 29q22 -2 30 -2q88 0 88 59q0 44 -74 49l20 47q-79 23 -53 148z" />
    <glyph glyph-name="Tcaron" unicode="&#x164;" horiz-adv-x="516" 
d="M143 660l6 30h486l-6 -30h-228l-128 -660h-30l128 660h-228zM268 899h42l98 -116l144 116h46l-177 -142h-32z" />
    <glyph glyph-name="tcaron" unicode="&#x165;" horiz-adv-x="322" 
d="M186 470h-63l5 30h64l22 110h30l-22 -110h132l-5 -30h-133l-59 -306q-20 -68 -2.5 -101t81.5 -33h27l-6 -30h-28q-71 0 -95 37.5t-9 116.5zM416 690h30l-22 -110l-35 -27z" />
    <glyph glyph-name="Umacron" unicode="&#x16a;" horiz-adv-x="670" 
d="M337 -6q-105 0 -161 72t-27 216l80 408h29l-79 -408q-25 -126 16.5 -192t143.5 -66q211 0 260 258l79 408h30l-79 -408q-55 -288 -292 -288zM646 815h-289v30h289v-30z" />
    <glyph glyph-name="umacron" unicode="&#x16b;" horiz-adv-x="526" 
d="M518 500h31l-98 -500h-30l17 81q-61 -87 -176 -87q-85 0 -124.5 60t-19.5 164l55 282h30l-55 -282q-19 -92 12.5 -143t104.5 -51q161 0 197 187zM516 612h-249v30h249v-30z" />
    <glyph glyph-name="Ubreve" unicode="&#x16c;" horiz-adv-x="670" 
d="M337 -6q-105 0 -161 72t-27 216l80 408h29l-79 -408q-25 -126 16.5 -192t143.5 -66q211 0 260 258l79 408h30l-79 -408q-55 -288 -292 -288zM628 887h30q-14 -69 -55.5 -99.5t-119.5 -30.5q-67 0 -101.5 34t-22.5 96h30q-19 -100 100 -100q66 0 97.5 25.5t41.5 74.5z" />
    <glyph glyph-name="ubreve" unicode="&#x16d;" horiz-adv-x="526" 
d="M518 500h31l-98 -500h-30l17 81q-61 -87 -176 -87q-85 0 -124.5 60t-19.5 164l55 282h30l-55 -282q-19 -92 12.5 -143t104.5 -51q161 0 197 187zM495 700h30q-11 -61 -47 -89.5t-102 -28.5q-58 0 -86 31t-17 87h30q-18 -88 79 -88q52 0 78 21t35 67z" />
    <glyph glyph-name="Uring" unicode="&#x16e;" horiz-adv-x="670" 
d="M337 -6q-105 0 -161 72t-27 216l80 408h29l-79 -408q-25 -126 16.5 -192t143.5 -66q211 0 260 258l79 408h30l-79 -408q-55 -288 -292 -288zM381 800q0 44 31 71.5t78 27.5q48 0 79 -27.5t31 -71.5t-31 -71t-79 -27q-47 0 -78 27t-31 71zM411 800q0 -32 22 -50t57 -18
q36 0 58 18t22 50q0 33 -21.5 51t-58.5 18q-35 0 -57 -18t-22 -51z" />
    <glyph glyph-name="uring" unicode="&#x16f;" horiz-adv-x="526" 
d="M518 500h31l-98 -500h-30l17 81q-61 -87 -176 -87q-85 0 -124.5 60t-19.5 164l55 282h30l-55 -282q-19 -92 12.5 -143t104.5 -51q161 0 197 187zM280 646q0 46 32 78t77 32q46 0 78 -32t32 -78q0 -45 -32 -77t-78 -32q-45 0 -77 32t-32 77zM310 646q0 -32 23.5 -55.5
t55.5 -23.5q33 0 56.5 23.5t23.5 55.5q0 34 -23 57t-57 23q-33 0 -56 -23t-23 -57z" />
    <glyph glyph-name="Uhungarumlaut" unicode="&#x170;" horiz-adv-x="670" 
d="M337 -6q-105 0 -161 72t-27 216l80 408h29l-79 -408q-25 -126 16.5 -192t143.5 -66q211 0 260 258l79 408h30l-79 -408q-55 -288 -292 -288zM401 767h-30l105 129h35zM586 767h-30l105 129h35z" />
    <glyph glyph-name="uhungarumlaut" unicode="&#x171;" horiz-adv-x="526" 
d="M518 500h31l-98 -500h-30l17 81q-61 -87 -176 -87q-85 0 -124.5 60t-19.5 164l55 282h30l-55 -282q-19 -92 12.5 -143t104.5 -51q161 0 197 187zM286 567h-30l111 158h35zM471 567h-30l111 158h35z" />
    <glyph glyph-name="Uogonek" unicode="&#x172;" horiz-adv-x="670" 
d="M708 690l-79 -408q-48 -251 -233 -283q-71 -29 -87 -43q-21 -18 -21 -40q0 -36 60 -36q20 0 35 3v-29q-15 -4 -40 -4q-38 0 -62 15.5t-24 45.5q0 51 64 84q-100 4 -150 77t-22 210l80 408h29l-79 -408q-25 -126 16.5 -192t143.5 -66q211 0 260 258l79 408h30z" />
    <glyph glyph-name="uogonek" unicode="&#x173;" horiz-adv-x="526" 
d="M518 500h31l-98 -500h-14l-35 -13q-4 -2 -17 -7.5t-16 -7.5t-12.5 -9.5t-12.5 -10.5t-8.5 -9.5t-7.5 -12.5t-2 -14q0 -36 60 -36q20 0 35 3v-29q-15 -4 -40 -4q-38 0 -62 15.5t-24 45.5q0 39 28 61q27 22 103 54l12 55q-61 -87 -176 -87q-85 0 -124.5 60t-19.5 164
l55 282h30l-55 -282q-19 -92 12.5 -143t104.5 -51q161 0 197 187z" />
    <glyph glyph-name="Ydieresis" unicode="&#x178;" horiz-adv-x="516" 
d="M303 309l-159 381h32l145 -348l281 348h38l-307 -381l-60 -309h-30zM557 869l-8 -44h-44l8 44h44zM347 869l-8 -44h-44l8 44h44z" />
    <glyph glyph-name="Zacute" unicode="&#x179;" horiz-adv-x="509" 
d="M163 660l6 30h429l-5 -28l-513 -632h400l-6 -30h-439l5 28l513 632h-390zM409 767h-30l90 129h35z" />
    <glyph glyph-name="zacute" unicode="&#x17a;" horiz-adv-x="449" 
d="M50 0l5 24l392 446h-306l6 30h349l-4 -24l-393 -446h306l-6 -30h-349zM348 567h-30l111 158h35z" />
    <glyph glyph-name="Zdotaccent" unicode="&#x17b;" horiz-adv-x="509" 
d="M163 660l6 30h429l-5 -28l-513 -632h400l-6 -30h-439l5 28l513 632h-390zM448 869l-8 -44h-44l8 44h44z" />
    <glyph glyph-name="zdotaccent" unicode="&#x17c;" horiz-adv-x="449" 
d="M50 0l5 24l392 446h-306l6 30h349l-4 -24l-393 -446h306l-6 -30h-349zM384 690l-8 -44h-44l8 44h44z" />
    <glyph glyph-name="Zcaron" unicode="&#x17d;" horiz-adv-x="509" 
d="M163 660l6 30h429l-5 -28l-513 -632h400l-6 -30h-439l5 28l513 632h-390zM264 899h42l98 -116l144 116h46l-177 -142h-32z" />
    <glyph glyph-name="zcaron" unicode="&#x17e;" horiz-adv-x="449" 
d="M50 0l5 24l392 446h-306l6 30h349l-4 -24l-393 -446h306l-6 -30h-349zM488 700l-136 -142h-32l-80 142h36l64 -113l108 113h40z" />
    <glyph glyph-name="uni018F" unicode="&#x18f;" horiz-adv-x="604" 
d="M434 666q-165 0 -234 -158l-28 12q77 176 268 176q114 0 162 -77.5t18 -227.5l-18 -92q-32 -161 -104.5 -233t-194.5 -72q-116 0 -165 76t-20 229l5 26h454l13 66q54 275 -156 275zM309 24q103 0 168.5 65t94.5 206h-424q-27 -141 14 -206t147 -65z" />
    <glyph glyph-name="florin" unicode="&#x192;" horiz-adv-x="480" 
d="M237 470l6 30h64l7 36q16 83 52.5 118.5t109.5 35.5h23l-6 -30h-23q-66 0 -93 -35q-22 -33 -34 -96l-6 -29h125l-6 -30h-125l-98 -506q-16 -82 -53 -118t-112 -36l6 30q66 0 91 31q24 30 41 109l95 490h-64z" />
    <glyph glyph-name="uni01DD" unicode="&#x1dd;" horiz-adv-x="476" 
d="M91 208l9 50h347l6 32q18 89 -17 137.5t-123 48.5q-93 0 -154 -67l-23 18q66 79 183 79q96 0 139.5 -58t24.5 -158l-16 -82q-42 -214 -230 -214q-87 0 -126 56.5t-20 157.5zM437 208l4 20h-316l-4 -20q-18 -90 14 -137t108 -47t125.5 47t68.5 137z" />
    <glyph glyph-name="Scommaaccent" unicode="&#x218;" horiz-adv-x="568" 
d="M614 582l-28 -16q-40 100 -174 100q-100 0 -156.5 -42.5t-56.5 -116.5q0 -72 54 -104q27 -15 49 -24q17 -6 64 -19q94 -26 137 -62q46 -36 46 -110q0 -90 -66 -142t-191 -52q-158 0 -214 114l25 16q28 -50 72 -75t121 -25q106 0 164.5 43.5t58.5 114.5q0 62 -37 95
t-126 55q-98 26 -143 63t-45 108q0 83 61 138t187 55q142 0 198 -114zM259 -64h30l-21 -110l-35 -26z" />
    <glyph glyph-name="scommaaccent" unicode="&#x219;" horiz-adv-x="456" 
d="M473 423l-26 -16q-18 39 -48 54t-87 15q-73 0 -117 -28.5t-44 -84.5q0 -35 26 -59q9 -7 31 -16q26 -8 74 -18q151 -28 151 -127q0 -62 -47 -106q-46 -43 -155 -43q-70 0 -109.5 20t-61.5 63l28 17q18 -37 52 -53.5t94 -16.5q168 0 168 113q0 45 -34.5 68t-113.5 38
q-134 25 -134 116q0 68 52.5 107.5t141.5 39.5q121 0 159 -83zM204 -64h30l-22 -110l-35 -27z" />
    <glyph glyph-name="Tcommaaccent" unicode="&#x21a;" horiz-adv-x="516" 
d="M143 660l6 30h486l-6 -30h-228l-128 -660h-30l128 660h-228zM231 -64h30l-22 -110l-35 -27z" />
    <glyph glyph-name="tcommaaccent" unicode="&#x21b;" horiz-adv-x="302" 
d="M186 470h-63l5 30h64l22 110h30l-22 -110h132l-5 -30h-133l-59 -306q-20 -68 -2.5 -101t81.5 -33h27l-6 -30h-28q-71 0 -95 37.5t-9 116.5zM149 -64h30l-22 -110l-35 -27z" />
    <glyph glyph-name="uni0237" unicode="&#x237;" horiz-adv-x="235" 
d="M202 500h30l-104 -536q-16 -86 -52 -120q-34 -34 -113 -34l6 30q67 0 91 30q24 28 41 110z" />
    <glyph glyph-name="uni0259" unicode="&#x259;" horiz-adv-x="476" 
d="M91 208l9 50h347l6 32q18 89 -17 137.5t-123 48.5q-93 0 -154 -67l-23 18q66 79 183 79q96 0 139.5 -58t24.5 -158l-16 -82q-42 -214 -230 -214q-87 0 -126 56.5t-20 157.5zM437 208l4 20h-316l-4 -20q-18 -90 14 -137t108 -47t125.5 47t68.5 137z" />
    <glyph glyph-name="afii57929" unicode="&#x2bc;" horiz-adv-x="100" 
d="M137 500h30l-31 -160l-35 -26z" />
    <glyph glyph-name="circumflex" unicode="&#x2c6;" horiz-adv-x="422" 
d="M236 558l136 142h32l80 -142h-36l-64 113l-108 -113h-40z" />
    <glyph glyph-name="caron" unicode="&#x2c7;" horiz-adv-x="421" 
d="M511 700l-136 -142h-32l-80 142h36l64 -113l108 113h40z" />
    <glyph glyph-name="breve" unicode="&#x2d8;" horiz-adv-x="424" 
d="M480 700h30q-11 -61 -47 -89.5t-102 -28.5q-58 0 -86 31t-17 87h30q-18 -88 79 -88q52 0 78 21t35 67z" />
    <glyph glyph-name="dotaccent" unicode="&#x2d9;" horiz-adv-x="318" 
d="M278 690l-8 -44h-44l8 44h44z" />
    <glyph glyph-name="ring" unicode="&#x2da;" horiz-adv-x="408" 
d="M139 646q0 46 32 78t77 32q46 0 78 -32t32 -78q0 -45 -32 -77t-78 -32q-45 0 -77 32t-32 77zM169 646q0 -32 23.5 -55.5t55.5 -23.5q34 0 57 23.5t23 55.5q0 34 -23 57t-57 23q-32 0 -55.5 -23t-23.5 -57z" />
    <glyph glyph-name="ogonek" unicode="&#x2db;" horiz-adv-x="320" 
d="M306 30l1 -30l-35 -13q-4 -2 -17 -7.5t-16 -7.5t-12.5 -9.5t-12.5 -10.5t-8.5 -9.5t-7.5 -12.5t-2 -14q0 -36 60 -36q20 0 35 3v-29q-15 -4 -40 -4q-38 0 -62 15.5t-24 45.5q0 39 30 62t111 57z" />
    <glyph glyph-name="tilde" unicode="&#x2dc;" horiz-adv-x="462" 
d="M320 608q-26 0 -61 16q-36 17 -55 17q-38 0 -71 -33l-23 19q42 44 94 44q22 0 58 -17q35 -16 57 -16q41 0 70 33l23 -19q-38 -44 -92 -44z" />
    <glyph glyph-name="hungarumlaut" unicode="&#x2dd;" horiz-adv-x="468" 
d="M258 567h-30l111 158h35zM443 567h-30l111 158h35z" />
    <glyph glyph-name="acutecomb" unicode="&#x301;" horiz-adv-x="0" 
d="M-133 567h-30l111 158h35z" />
    <glyph glyph-name="uni0394" unicode="&#x2206;" horiz-adv-x="506" 
d="M544 0h-472l226 690h20zM308 624l-195 -594h390z" />
    <glyph glyph-name="uni0394" unicode="&#x394;" horiz-adv-x="506" 
d="M544 0h-472l226 690h20zM308 624l-195 -594h390z" />
    <glyph glyph-name="uni03A9" unicode="&#x2126;" horiz-adv-x="620" 
d="M502 30h116v-30h-184v30q154 36 154 259v112q0 265 -210 265t-210 -265v-112q0 -223 154 -259v-30h-184v30h116q-63 33 -89.5 93t-26.5 166v112q0 295 240 295t240 -295v-112q0 -106 -26.5 -166t-89.5 -93z" />
    <glyph glyph-name="uni03A9" unicode="&#x3a9;" horiz-adv-x="620" 
d="M502 30h116v-30h-184v30q154 36 154 259v112q0 265 -210 265t-210 -265v-112q0 -223 154 -259v-30h-184v30h116q-63 33 -89.5 93t-26.5 166v112q0 295 240 295t240 -295v-112q0 -106 -26.5 -166t-89.5 -93z" />
    <glyph glyph-name="pi" unicode="&#x3c0;" horiz-adv-x="610" 
d="M91 470l6 30h580l-6 -30h-105l-60 -311q-19 -65 -1.5 -98.5t80.5 -33.5l-6 -30q-74 3 -97 38t-8 116l62 319h-316l-91 -470h-30l91 470h-99z" />
    <glyph glyph-name="afii10023" unicode="&#x401;" horiz-adv-x="546" 
d="M95 0l134 690h396l-6 -30h-366l-56 -288h336l-6 -30h-336l-60 -312h366l-6 -30h-396zM592 869l-8 -44h-44l8 44h44zM382 869l-8 -44h-44l8 44h44z" />
    <glyph glyph-name="afii10051" unicode="&#x402;" horiz-adv-x="727" 
d="M645 157l9 47q23 116 -11 157q-33 41 -125 41q-120 0 -178 -58l-67 -344h-30l128 660h-228l6 30h486l-6 -30h-228l-53 -275q23 19 72.5 33t103.5 14q107 0 144.5 -55.5t15.5 -172.5l-9 -47q-18 -95 -61 -126t-130 -31h-21l6 30h21q76 0 108 27q34 28 47 100z" />
    <glyph glyph-name="afii10052" unicode="&#x403;" 
d="M229 690h376l-6 -30h-346l-128 -660h-30zM429 767h-30l90 129h35z" />
    <glyph glyph-name="afii10053" unicode="&#x404;" horiz-adv-x="583" 
d="M633 489h-30q2 89 -43 133t-130 44q-108 0 -171.5 -64t-92.5 -211l-6 -29h308l-6 -30h-308l-6 -33q-29 -144 11.5 -209.5t145.5 -65.5q179 0 243 181h29q-25 -77 -72 -127q-81 -84 -203 -84q-117 0 -165.5 75t-18.5 230l18 92q32 161 104 233t194 72q88 0 147 -53
q58 -52 52 -154z" />
    <glyph glyph-name="afii10054" unicode="&#x405;" horiz-adv-x="568" 
d="M614 582l-28 -16q-40 100 -174 100q-100 0 -156.5 -42.5t-56.5 -116.5q0 -72 54 -104q27 -15 49 -24q17 -6 64 -19q94 -26 137 -62q46 -36 46 -110q0 -90 -66 -142t-191 -52q-158 0 -214 114l25 16q28 -50 72 -75t121 -25q106 0 164.5 43.5t58.5 114.5q0 62 -37 95
t-126 55q-98 26 -143 63t-45 108q0 83 61 138t187 55q142 0 198 -114z" />
    <glyph glyph-name="afii10055" unicode="&#x406;" horiz-adv-x="240" 
d="M311 869l-9 -44h-44l9 44h44zM239 690h30l-134 -690h-30z" />
    <glyph glyph-name="afii10056" unicode="&#x407;" horiz-adv-x="276" 
d="M259 690l-134 -690h-30l134 690h30zM376 869l-9 -44h-44l9 44h44zM226 869l-9 -44h-44l9 44h44z" />
    <glyph glyph-name="afii10057" unicode="&#x408;" horiz-adv-x="505" 
d="M35 81l26 13q37 -70 132 -70q102 0 159.5 62.5t83.5 200.5l78 403h31l-79 -404q-31 -162 -100 -228q-67 -64 -177 -64q-113 0 -154 87z" />
    <glyph glyph-name="afii10058" unicode="&#x409;" horiz-adv-x="1019" 
d="M258 532l31 158h393l-58 -297h183q103 0 153 -49q51 -48 51 -115q0 -91 -60 -157q-67 -72 -220 -72h-213l128 660h-333l-25 -128q-73 -370 -124 -454q-50 -80 -135 -84l6 30q69 10 108 78q47 84 115 430zM802 363h-184l-64 -333h183q119 0 181.5 53t62.5 142
q0 64 -46 101t-133 37z" />
    <glyph glyph-name="afii10059" unicode="&#x40a;" horiz-adv-x="1014" 
d="M726 0h-213l71 363h-388l-71 -363h-30l134 690h30l-58 -297h388l58 297h30l-58 -297h183q103 0 153 -49q51 -48 51 -115q0 -91 -60 -157q-67 -72 -220 -72zM797 363h-183l-65 -333h183q119 0 181.5 53t62.5 142q0 64 -46 101t-133 37z" />
    <glyph glyph-name="afii10060" unicode="&#x40b;" horiz-adv-x="727" 
d="M143 660l6 30h486l-6 -30h-228l-58 -302q31 31 86 52.5t118 21.5q112 0 148.5 -58.5t12.5 -179.5l-38 -194h-30l38 194q22 115 -9 161q-30 47 -128 47q-137 0 -209 -98l-59 -304h-30l128 660h-228z" />
    <glyph glyph-name="afii10061" unicode="&#x40c;" horiz-adv-x="598" 
d="M391 352l192 -352h-34l-181 332h-178l-65 -332h-30l134 690h30l-64 -328h166l276 328h39zM431 767h-30l90 129h35z" />
    <glyph glyph-name="afii10062" unicode="&#x40e;" horiz-adv-x="572" 
d="M583 899h30q-14 -69 -55.5 -99.5t-119.5 -30.5q-68 0 -102 34t-22 96h30q-19 -100 100 -100q66 0 97.5 25.5t41.5 74.5zM329 152l324 538h35l-347 -574q-44 -72 -86 -97q-41 -25 -125 -25l6 30q69 0 103 19q35 20 68 74l-143 573h31z" />
    <glyph glyph-name="afii10145" unicode="&#x40f;" horiz-adv-x="638" 
d="M334 0l-25 -130h-30l25 130h-209l134 690h30l-128 -660h388l128 660h30l-134 -690h-209z" />
    <glyph glyph-name="afii10017" unicode="&#x410;" horiz-adv-x="522" 
d="M144 178l-95 -178h-34l366 690h28l98 -690h-30l-25 178h-308zM447 208l-61 427l-227 -427h288z" />
    <glyph glyph-name="afii10018" unicode="&#x411;" horiz-adv-x="596" 
d="M229 690h403l-6 -30h-373l-52 -267h183q104 0 153 -49q51 -49 51 -115q0 -99 -69 -164q-68 -65 -211 -65h-213zM379 363h-183l-65 -333h183q117 0 180.5 52.5t63.5 142.5q0 64 -46 101t-133 37z" />
    <glyph glyph-name="afii10019" unicode="&#x412;" horiz-adv-x="596" 
d="M95 0l134 690h198q98 0 150 -40t52 -111t-44.5 -118.5t-114.5 -63.5q56 -14 86 -52.5t30 -96.5q0 -80 -59 -140q-66 -68 -209 -68h-223zM364 344h-172l-61 -314h193q111 0 171 51q61 51 61 123q0 140 -192 140zM421 660h-168l-55 -286h188q101 0 156.5 45t55.5 117
q0 124 -177 124z" />
    <glyph glyph-name="afii10020" unicode="&#x413;" 
d="M229 690h376l-6 -30h-346l-128 -660h-30z" />
    <glyph glyph-name="afii10021" unicode="&#x414;" horiz-adv-x="666" 
d="M49 0l-25 -130h-29l31 160h37q21 12 50 48q29 35 47 71q53 106 98 335l40 206h394l-128 -660h78l-31 -160h-30l25 130h-557zM174 114q-33 -55 -64 -84h424l123 630h-335l-34 -176q-51 -265 -114 -370z" />
    <glyph glyph-name="afii10022" unicode="&#x415;" horiz-adv-x="546" 
d="M95 0l134 690h396l-6 -30h-366l-56 -288h336l-6 -30h-336l-60 -312h366l-6 -30h-396z" />
    <glyph glyph-name="afii10024" unicode="&#x416;" horiz-adv-x="858" 
d="M349 332l-294 -332h-40l309 349l-134 341h32l129 -328h133l64 328h30l-64 -328h126l258 328h38l-267 -341l174 -349h-34l-164 332h-136l-65 -332h-30l65 332h-130z" />
    <glyph glyph-name="afii10025" unicode="&#x417;" horiz-adv-x="547" 
d="M330 348h-62l6 30h62q106 0 160 45.5t54 123.5q0 54 -37.5 86.5t-110.5 32.5q-78 0 -136.5 -41t-81.5 -113h-32q29 89 96 136.5t159 47.5q78 0 125.5 -40.5t47.5 -102.5q0 -77 -36 -123t-112 -67q105 -33 105 -144q0 -95 -65 -160t-192 -65q-94 0 -146.5 50t-56.5 146h31
q7 -166 175 -166q104 0 164 53t60 141q0 130 -177 130z" />
    <glyph glyph-name="afii10026" unicode="&#x418;" horiz-adv-x="656" 
d="M95 0l134 690h30l-123 -632l529 632h30l-134 -690h-30l123 632l-529 -632h-30z" />
    <glyph glyph-name="afii10027" unicode="&#x419;" horiz-adv-x="656" 
d="M622 899h30q-14 -69 -55.5 -99.5t-119.5 -30.5q-67 0 -101.5 34t-22.5 96h30q-19 -100 100 -100q66 0 97.5 25.5t41.5 74.5zM95 0l134 690h30l-123 -632l529 632h30l-134 -690h-30l123 632l-529 -632h-30z" />
    <glyph glyph-name="afii10028" unicode="&#x41a;" horiz-adv-x="598" 
d="M391 352l192 -352h-34l-181 332h-178l-65 -332h-30l134 690h30l-64 -328h166l276 328h39z" />
    <glyph glyph-name="afii10029" unicode="&#x41b;" horiz-adv-x="643" 
d="M258 532l31 158h393l-134 -690h-30l128 660h-333l-25 -128q-73 -370 -124 -454q-50 -80 -135 -84l6 30q69 10 108 78q47 84 115 430z" />
    <glyph glyph-name="afii10030" unicode="&#x41c;" horiz-adv-x="752" 
d="M229 690h28l158 -486l348 486h28l-134 -690h-30l120 617l-323 -453h-28l-150 459l-121 -623h-30z" />
    <glyph glyph-name="afii10031" unicode="&#x41d;" horiz-adv-x="638" 
d="M229 690h30l-61 -316h388l61 316h30l-134 -690h-30l67 344h-388l-67 -344h-30z" />
    <glyph glyph-name="afii10032" unicode="&#x41e;" horiz-adv-x="600" 
d="M616 391l-18 -92q-59 -305 -296 -305q-112 0 -162.5 78t-21.5 227l18 92q32 158 105 231.5t193 73.5q112 0 161.5 -80t20.5 -225zM166 391l-18 -92q-27 -139 15 -207t142 -68q210 0 263 275l18 92q27 140 -14.5 207.5t-141.5 67.5q-104 0 -169.5 -66t-94.5 -209z" />
    <glyph glyph-name="afii10033" unicode="&#x41f;" horiz-adv-x="638" 
d="M95 0l134 690h448l-134 -690h-30l128 660h-388l-128 -660h-30z" />
    <glyph glyph-name="afii10034" unicode="&#x420;" horiz-adv-x="586" 
d="M350 283h-170l-55 -283h-30l134 690h200q102 0 159 -46t57 -125q0 -114 -76.5 -175t-218.5 -61zM253 660l-67 -347h170q127 0 193 52.5t66 150.5q0 144 -192 144h-170z" />
    <glyph glyph-name="afii10035" unicode="&#x421;" horiz-adv-x="583" 
d="M633 489h-30q2 89 -43 133t-130 44q-108 0 -171.5 -64t-92.5 -211l-18 -92q-29 -144 11.5 -209.5t145.5 -65.5q179 0 243 181h29q-25 -77 -72 -127q-81 -84 -203 -84q-117 0 -165.5 75t-18.5 230l18 92q32 161 104 233t194 72q88 0 147 -53q58 -52 52 -154z" />
    <glyph glyph-name="afii10036" unicode="&#x422;" horiz-adv-x="516" 
d="M143 660l6 30h486l-6 -30h-228l-128 -660h-30l128 660h-228z" />
    <glyph glyph-name="afii10037" unicode="&#x423;" horiz-adv-x="572" 
d="M329 152l324 538h35l-347 -574q-44 -72 -86 -97q-41 -25 -125 -25l6 30q69 0 103 19q35 20 68 74l-143 573h31z" />
    <glyph glyph-name="afii10038" unicode="&#x424;" horiz-adv-x="746" 
d="M122 319l11 52q27 124 94 189q88 78 255 76l11 54h30l-11 -54q129 0 200 -57q73 -56 47 -208l-11 -52q-32 -149 -118 -207q-85 -58 -231 -58l-11 -54h-30l11 54q-48 0 -88 8t-77 26.5t-57.5 49t-30 75.5t5.5 106zM506 606l-101 -522q113 0 192 43q91 49 121 192l11 52
q11 43 8 76t-10 58t-25 42.5t-37.5 29t-47 18t-53.5 9t-58 2.5zM163 371l-11 -52q-13 -72 0.5 -120.5t50 -72.5t77.5 -33t95 -9l101 522q-113 0 -190 -40q-92 -47 -123 -195z" />
    <glyph glyph-name="afii10039" unicode="&#x425;" horiz-adv-x="552" 
d="M343 331l-270 -331h-39l294 359l-143 331h33l130 -304l248 304h39l-271 -331l154 -359h-33z" />
    <glyph glyph-name="afii10040" unicode="&#x426;" horiz-adv-x="651" 
d="M229 690h30l-128 -660h388l128 660h30l-128 -660h78l-31 -160h-30l25 130h-496z" />
    <glyph glyph-name="afii10041" unicode="&#x427;" horiz-adv-x="573" 
d="M173 690h30l-33 -172q-22 -118 12 -163q35 -45 143 -45q124 0 200 88l57 292h30l-134 -690h-30l68 348q-74 -68 -195 -68t-163 57t-18 181z" />
    <glyph glyph-name="afii10042" unicode="&#x428;" horiz-adv-x="841" 
d="M229 690h30l-128 -660h280l128 660h30l-128 -660h281l128 660h30l-134 -690h-651z" />
    <glyph glyph-name="afii10043" unicode="&#x429;" horiz-adv-x="854" 
d="M229 690h30l-128 -660h280l128 660h30l-128 -660h281l128 660h30l-128 -660h78l-31 -160h-30l25 130h-699z" />
    <glyph glyph-name="afii10044" unicode="&#x42a;" horiz-adv-x="664" 
d="M128 660l6 30h193l-58 -297h183q104 0 154 -50t50 -114q0 -99 -69 -164q-68 -65 -211 -65h-213l128 660h-163zM446 363h-183l-64 -333h183q117 0 180.5 52t63.5 143q0 64 -46.5 101t-133.5 37z" />
    <glyph glyph-name="afii10045" unicode="&#x42b;" horiz-adv-x="740" 
d="M95 0l134 690h30l-58 -297h153q105 0 154 -49q50 -50 50 -115q0 -46 -15.5 -85.5t-47.5 -72.5t-87.5 -52t-129.5 -19h-183zM349 363h-153l-65 -333h153q117 0 180.5 52.5t63.5 142.5q0 64 -46 101t-133 37zM749 690h30l-134 -690h-30z" />
    <glyph glyph-name="afii10046" unicode="&#x42c;" horiz-adv-x="596" 
d="M95 0l134 690h30l-58 -297h183q103 0 153 -49q51 -48 51 -115q0 -91 -60 -157q-67 -72 -220 -72h-213zM379 363h-183l-65 -333h183q119 0 181.5 53t62.5 142q0 64 -46 101t-133 37z" />
    <glyph glyph-name="afii10047" unicode="&#x42d;" horiz-adv-x="583" 
d="M557 332h-306l6 30h306l6 29q29 144 -10.5 209.5t-145.5 65.5q-177 0 -243 -177h-30q70 207 279 207q115 0 162 -76t18 -229l-18 -92q-32 -158 -106 -231.5t-193 -73.5q-37 0 -71.5 11.5t-64.5 35.5t-46.5 66.5t-13.5 97.5h29q-1 -87 44 -134t129 -47q105 0 171 66
t92 209z" />
    <glyph glyph-name="afii10048" unicode="&#x42e;" horiz-adv-x="788" 
d="M806 401l-22 -112q-29 -153 -99 -224t-183 -71q-106 0 -150.5 75t-17.5 220l10 53h-153l-66 -342h-30l134 690h30l-62 -318h153l6 29q30 153 100 224t182 71q107 0 152 -75t16 -220zM386 401l-22 -112q-52 -265 144 -265q96 0 157.5 63t88.5 202l22 112q52 265 -144 265
q-96 0 -157.5 -62.5t-88.5 -202.5z" />
    <glyph glyph-name="afii10049" unicode="&#x42f;" horiz-adv-x="604" 
d="M298 299l-220 -299h-38l226 306q-118 39 -118 151q0 111 75.5 172t209.5 61h210l-134 -690h-30l57 295h-180q-37 0 -58 4zM362 325h180l65 335h-180q-115 0 -181.5 -51t-66.5 -149q0 -135 183 -135z" />
    <glyph glyph-name="afii10065" unicode="&#x430;" 
d="M74 114q0 77 48 121t135 44h173l13 68q14 75 -10.5 102t-103.5 27q-52 0 -88 -11q-32 -10 -66 -53l-22 19q32 42 73 58.5t108 16.5q89 0 122.5 -37t16.5 -122l-67 -347h-30l14 71q-47 -77 -168 -77q-70 0 -109 31.5t-39 88.5zM411 179l13 70h-173q-74 0 -110.5 -36
t-36.5 -96q0 -93 120 -93q74 0 123 38.5t64 116.5z" />
    <glyph glyph-name="afii10066" unicode="&#x431;" horiz-adv-x="497" 
d="M502 290l-15 -80q-41 -216 -240 -216q-92 0 -134 57.5t-22 158.5l17 88q39 199 101 292q32 47 71 70t104 29l95 8q31 3 57 26l16 -25q-22 -27 -68 -31l-95 -7q-63 -5 -100 -27.5t-69 -77.5q-28 -50 -56 -136q64 87 182 87q93 0 134 -57.5t22 -158.5zM457 210l15 80
q34 186 -131 186q-83 0 -135 -47t-69 -137l-16 -82q-18 -89 14.5 -137.5t117.5 -48.5q169 0 204 186z" />
    <glyph glyph-name="afii10067" unicode="&#x432;" horiz-adv-x="477" 
d="M75 0l97 500h155q74 0 115.5 -28.5t41.5 -76.5q0 -98 -103 -129q40 -10 63 -38.5t23 -66.5q0 -75 -54 -118t-157 -43h-181zM284 250h-130l-43 -220h142q183 0 183 128q0 92 -152 92zM308 470h-112l-37 -190h123q171 0 171 112q0 78 -145 78z" />
    <glyph glyph-name="afii10068" unicode="&#x433;" horiz-adv-x="359" 
d="M172 500h284l-6 -30h-254l-91 -470h-30z" />
    <glyph glyph-name="afii10069" unicode="&#x434;" horiz-adv-x="517" 
d="M57 0l-23 -117h-30l29 147h34q22 16 52 66q43 74 75 237l32 167h303l-91 -470h70l-29 -147h-30l23 117h-415zM140 73q-22 -32 -33 -43h301l85 440h-242l-29 -151q-33 -168 -82 -246z" />
    <glyph glyph-name="afii10070" unicode="&#x435;" 
d="M483 292l-10 -50h-346l-6 -32q-18 -89 17 -137.5t123 -48.5q92 0 153 67l23 -18q-69 -79 -179 -79q-98 0 -142 57t-25 159l16 82q42 214 226 214q90 0 130 -56t20 -158zM137 292l-4 -20h316l4 20q36 184 -122 184q-157 0 -194 -184z" />
    <glyph glyph-name="afii10072" unicode="&#x436;" horiz-adv-x="650" 
d="M479 272l188 228h37l-200 -243l126 -257h-35l-118 242h-90l-47 -242h-30l47 242h-86l-212 -242h-39l226 257l-106 243h33l100 -228h90l44 228h30l-44 -228h86z" />
    <glyph glyph-name="afii10073" unicode="&#x437;" horiz-adv-x="448" 
d="M299 476q-90 0 -151 -64l-22 19q69 75 179 75q64 0 103 -31.5t39 -77.5q0 -91 -101 -129q74 -29 74 -103q0 -73 -55 -122t-156 -49q-114 0 -153 79l26 16q35 -65 132 -65q78 0 127 37t49 101q0 45 -34.5 68.5t-98.5 23.5h-67l6 30h67q71 0 112 28.5t41 81.5
q0 37 -30 59.5t-87 22.5z" />
    <glyph glyph-name="afii10074" unicode="&#x438;" horiz-adv-x="536" 
d="M172 500h30l-87 -447l413 447h30l-97 -500h-30l87 448l-413 -448h-30z" />
    <glyph glyph-name="afii10075" unicode="&#x439;" horiz-adv-x="536" 
d="M500 700h30q-11 -61 -47 -89.5t-102 -28.5q-58 0 -86 31t-17 87h30q-18 -88 79 -88q52 0 78 21t35 67zM172 500h30l-87 -447l413 447h30l-97 -500h-30l87 448l-413 -448h-30z" />
    <glyph glyph-name="afii10076" unicode="&#x43a;" horiz-adv-x="478" 
d="M283 273l216 227h40l-231 -241l150 -259h-35l-140 243h-131l-47 -243h-30l97 500h30l-44 -227h125z" />
    <glyph glyph-name="afii10077" unicode="&#x43b;" horiz-adv-x="510" 
d="M177 300l39 200h316l-97 -500h-30l91 470h-255l-34 -173q-28 -148 -66 -214q-46 -84 -113 -94l7 32q53 18 86 88q30 62 56 191z" />
    <glyph glyph-name="afii10078" unicode="&#x43c;" horiz-adv-x="636" 
d="M172 500h27l143 -365l285 365h31l-97 -500h-30l85 437l-263 -336h-30l-133 336l-85 -437h-30z" />
    <glyph glyph-name="afii10079" unicode="&#x43d;" horiz-adv-x="526" 
d="M172 500h30l-45 -231h316l45 231h30l-97 -500h-30l46 239h-316l-46 -239h-30z" />
    <glyph glyph-name="afii10080" unicode="&#x43e;" horiz-adv-x="496" 
d="M503 292l-16 -84q-40 -214 -237 -214q-93 0 -135.5 56t-23.5 158l16 84q40 214 237 214q94 0 136 -56t23 -158zM457 208l16 84q36 184 -132 184q-170 0 -204 -184l-16 -84q-36 -184 132 -184q170 0 204 184z" />
    <glyph glyph-name="afii10081" unicode="&#x43f;" horiz-adv-x="526" 
d="M75 0l97 500h376l-97 -500h-30l91 470h-316l-91 -470h-30z" />
    <glyph glyph-name="afii10082" unicode="&#x440;" horiz-adv-x="511" 
d="M518 292l-16 -82q-22 -112 -77 -164t-153 -52q-130 0 -152 81l-52 -265h-30l134 690h30l-13 -71q56 77 177 77q93 0 132.5 -57t19.5 -157zM276 24q82 0 129.5 45t66.5 141l16 82q36 184 -125 184q-88 0 -136 -44.5t-64 -132.5l-17 -90q-18 -95 10.5 -140t119.5 -45z" />
    <glyph glyph-name="afii10083" unicode="&#x441;" horiz-adv-x="443" 
d="M414 91l23 -18q-69 -79 -179 -79q-97 0 -142 57.5t-25 158.5l16 82q40 214 247 214q107 0 150 -76l-26 -15q-39 61 -128 61q-179 0 -213 -184l-16 -82q-18 -89 17 -137.5t123 -48.5q92 0 153 67z" />
    <glyph glyph-name="afii10084" unicode="&#x442;" horiz-adv-x="407" 
d="M101 470l6 30h387l-6 -30h-179l-91 -470h-30l91 470h-178z" />
    <glyph glyph-name="afii10085" unicode="&#x443;" horiz-adv-x="452" 
d="M37 -190l6 30q64 2 95 31q32 29 80 113l4 7l-115 509h31l105 -470l258 470h33l-289 -523q-53 -95 -95 -131q-41 -36 -113 -36z" />
    <glyph glyph-name="afii10086" unicode="&#x444;" horiz-adv-x="648" 
d="M443 690h30l-36 -184q120 0 178 -56t39 -158l-15 -82q-41 -216 -301 -216l-36 -184h-30l36 184q-119 0 -178 56.5t-39 159.5l16 82q40 214 300 214zM609 210l15 82q18 92 -31.5 138t-161.5 46l-88 -452q114 0 182 47.5t84 138.5zM137 292l-16 -82q-18 -90 30.5 -138
t161.5 -48l88 452q-228 0 -264 -184z" />
    <glyph glyph-name="afii10087" unicode="&#x445;" horiz-adv-x="426" 
d="M280 256l126 -256h-34l-112 231l-200 -231h-40l226 258l-119 242h35l104 -218l188 218h39z" />
    <glyph glyph-name="afii10088" unicode="&#x446;" horiz-adv-x="536" 
d="M527 30l-29 -147h-30l23 117h-416l97 500h30l-91 -470h316l91 470h30l-91 -470h70z" />
    <glyph glyph-name="afii10089" unicode="&#x447;" horiz-adv-x="467" 
d="M136 500h30l-24 -126q-14 -78 16 -109.5t103 -31.5q106 0 156 50l42 217h30l-97 -500h-30l47 243q-50 -40 -154 -40q-78 0 -119 40q-40 40 -24 131z" />
    <glyph glyph-name="afii10090" unicode="&#x448;" horiz-adv-x="690" 
d="M712 500l-97 -500h-540l97 500h30l-91 -470h225l91 470h30l-91 -470h225l91 470h30z" />
    <glyph glyph-name="afii10091" unicode="&#x449;" horiz-adv-x="700" 
d="M691 30l-29 -147h-30l23 117h-580l97 500h30l-91 -470h225l91 470h30l-91 -470h225l91 470h30l-91 -470h70z" />
    <glyph glyph-name="afii10092" unicode="&#x44a;" horiz-adv-x="524" 
d="M254 500l-40 -206h151q75 0 115.5 -34t40.5 -88q0 -80 -53.5 -126t-159.5 -46h-181l91 470h-147l6 30h177zM359 264h-151l-46 -234h151q86 0 131.5 35.5t45.5 103.5q0 95 -131 95z" />
    <glyph glyph-name="afii10093" unicode="&#x44b;" horiz-adv-x="599" 
d="M202 500l-40 -206h131q75 0 115.5 -34t40.5 -88q0 -80 -53 -126t-160 -46h-161l97 500h30zM287 264h-131l-45 -234h131q86 0 131 35.5t45 103.5q0 95 -131 95zM494 0l97 500h30l-97 -500h-30z" />
    <glyph glyph-name="afii10094" unicode="&#x44c;" horiz-adv-x="472" 
d="M202 500l-40 -206h151q75 0 115.5 -34t40.5 -88q0 -80 -53 -126t-160 -46h-181l97 500h30zM307 264h-151l-45 -234h151q85 0 130.5 36t45.5 103q0 95 -131 95z" />
    <glyph glyph-name="afii10095" unicode="&#x44d;" horiz-adv-x="459" 
d="M426 239h-238l6 30h238l4 23q16 90 -20.5 137t-120.5 47q-91 0 -151 -63l-22 18q69 75 179 75q95 0 139.5 -58.5t25.5 -155.5l-16 -82q-42 -216 -248 -216q-113 0 -152 79l27 16q35 -65 130 -65q174 0 213 186z" />
    <glyph glyph-name="afii10096" unicode="&#x44e;" horiz-adv-x="656" 
d="M422 -6q-86 0 -124 56.5t-17 159.5l6 29h-136l-46 -239h-30l97 500h30l-45 -231h136l4 23q37 214 224 214q87 0 124.5 -56.5t17.5 -157.5l-16 -82q-22 -110 -76.5 -163t-148.5 -53zM428 24q151 0 188 184l17 84q37 184 -117 184q-152 0 -189 -184l-17 -84
q-19 -90 12 -137t106 -47z" />
    <glyph glyph-name="afii10097" unicode="&#x44f;" horiz-adv-x="500" 
d="M522 500l-97 -500h-30l40 207h-144q-4 0 -34 2l-174 -209h-38l179 216q-95 26 -95 114q0 78 56 124t163 46h174zM297 237h144l45 233h-144q-88 0 -135.5 -36.5t-47.5 -100.5q0 -46 35.5 -71t102.5 -25z" />
    <glyph glyph-name="afii10071" unicode="&#x451;" 
d="M483 292l-10 -50h-346l-6 -32q-18 -89 17 -137.5t123 -48.5q92 0 153 67l23 -18q-69 -79 -179 -79q-98 0 -142 57t-25 159l16 82q42 214 226 214q90 0 130 -56t20 -158zM137 292l-4 -20h316l4 20q36 184 -122 184q-157 0 -194 -184zM513 690l-8 -44h-44l8 44h44zM303 690
l-8 -44h-44l8 44h44z" />
    <glyph glyph-name="afii10099" unicode="&#x452;" horiz-adv-x="526" 
d="M188 579h-94l5 30h94l16 81h30l-16 -81h195l-5 -30h-195l-42 -214q27 42 74.5 65.5t106.5 23.5q82 0 120.5 -61t18.5 -163l-52 -266q-17 -84 -51 -118q-35 -36 -114 -36l6 30h8q56 0 82 28t39 96l52 266q19 93 -11.5 143.5t-103.5 50.5q-163 0 -200 -185l-46 -239h-30z
" />
    <glyph glyph-name="afii10100" unicode="&#x453;" horiz-adv-x="359" 
d="M172 500h284l-6 -30h-254l-91 -470h-30zM321 567h-30l111 158h35z" />
    <glyph glyph-name="afii10101" unicode="&#x454;" horiz-adv-x="459" 
d="M414 91l23 -18q-69 -79 -179 -79q-97 0 -142 57.5t-25 158.5l16 82q40 214 247 214q107 0 150 -76l-26 -15q-39 61 -128 61q-179 0 -213 -184l-5 -23h237l-6 -30h-237l-5 -29q-18 -89 17 -137.5t123 -48.5q92 0 153 67z" />
    <glyph glyph-name="afii10102" unicode="&#x455;" horiz-adv-x="456" 
d="M473 423l-26 -16q-18 39 -48 54t-87 15q-73 0 -117 -28.5t-44 -84.5q0 -35 26 -59q9 -7 31 -16q26 -8 74 -18q151 -28 151 -127q0 -62 -47 -106q-46 -43 -155 -43q-70 0 -109.5 20t-61.5 63l28 17q18 -37 52 -53.5t94 -16.5q168 0 168 113q0 45 -34.5 68t-113.5 38
q-134 25 -134 116q0 68 52.5 107.5t141.5 39.5q121 0 159 -83z" />
    <glyph glyph-name="afii10103" unicode="&#x456;" horiz-adv-x="210" 
d="M120 0h-30l97 500h30zM253 646h-44l8 44h44z" />
    <glyph glyph-name="afii10104" unicode="&#x457;" horiz-adv-x="210" 
d="M327 690l-9 -44h-44l9 44h44zM197 690l-9 -44h-44l9 44h44zM120 0h-30l97 500h30z" />
    <glyph glyph-name="afii10105" unicode="&#x458;" horiz-adv-x="215" 
d="M202 500h30l-104 -536q-16 -86 -52 -120q-34 -34 -113 -34l6 30q67 0 91 30q24 28 41 110zM268 646h-44l8 44h44z" />
    <glyph glyph-name="afii10106" unicode="&#x459;" horiz-adv-x="802" 
d="M586 0h-181l91 470h-255l-34 -173q-28 -148 -66 -214q-46 -84 -113 -94l7 32q53 18 86 88q30 62 56 191l39 200h316l-40 -206h151q75 0 115.5 -34t40.5 -88q0 -80 -53 -126t-160 -46zM637 264h-151l-45 -234h151q85 0 130.5 36t45.5 103q0 95 -131 95z" />
    <glyph glyph-name="afii10107" unicode="&#x45a;" horiz-adv-x="818" 
d="M586 0h-165l51 264h-316l-51 -264h-30l97 500h30l-40 -206h316l40 206h30l-40 -206h135q75 0 115.5 -34t40.5 -88q0 -80 -53 -126t-160 -46zM637 264h-135l-45 -234h135q85 0 130.5 36t45.5 103q0 95 -131 95z" />
    <glyph glyph-name="afii10108" unicode="&#x45b;" horiz-adv-x="526" 
d="M496 230l-45 -230h-30l45 230q19 93 -11.5 143.5t-103.5 50.5q-163 0 -200 -185l-46 -239h-30l113 579h-94l5 30h94l16 81h30l-16 -81h195l-5 -30h-195l-42 -214q27 42 74.5 65.5t106.5 23.5q82 0 120.5 -61t18.5 -163z" />
    <glyph glyph-name="afii10109" unicode="&#x45c;" horiz-adv-x="478" 
d="M283 273l216 227h40l-231 -241l150 -259h-35l-140 243h-131l-47 -243h-30l97 500h30l-44 -227h125zM347 567h-30l111 158h35z" />
    <glyph glyph-name="afii10110" unicode="&#x45e;" horiz-adv-x="452" 
d="M37 -190l6 30q64 2 95 31q32 29 80 113l4 7l-115 509h31l105 -470l258 470h33l-289 -523q-53 -95 -95 -131q-41 -36 -113 -36zM459 690h30q-11 -61 -47 -89.5t-102 -28.5q-58 0 -86 31t-17 87h30q-18 -88 79 -88q52 0 78 21t35 67z" />
    <glyph glyph-name="afii10193" unicode="&#x45f;" horiz-adv-x="526" 
d="M278 0l-23 -117h-30l23 117h-173l97 500h30l-91 -470h316l91 470h30l-97 -500h-173z" />
    <glyph glyph-name="afii10146" unicode="&#x462;" horiz-adv-x="596" 
d="M203 556h-105l6 30h105l20 104h30l-21 -104h235l-6 -30h-235l-31 -163h183q103 0 153 -49q51 -48 51 -115q0 -91 -60 -157q-67 -72 -220 -72h-213zM379 363h-183l-65 -333h183q119 0 181.5 53t62.5 142q0 64 -46 101t-133 37z" />
    <glyph glyph-name="afii10194" unicode="&#x463;" horiz-adv-x="472" 
d="M166 470h-94l6 30h94l37 190h30l-37 -190h165l-6 -30h-165l-34 -176h151q75 0 115.5 -34t40.5 -88q0 -80 -53 -126t-160 -46h-181zM307 264h-151l-45 -234h151q85 0 130.5 36t45.5 103q0 95 -131 95z" />
    <glyph glyph-name="afii10147" unicode="&#x472;" horiz-adv-x="600" 
d="M616 391l-18 -92q-59 -305 -296 -305q-112 0 -162.5 78t-21.5 227l18 92q32 158 105 231.5t193 73.5q112 0 161.5 -80t20.5 -225zM305 24q210 0 263 275l9 45h-420l-9 -45q-27 -139 15 -207t142 -68zM166 391l-3 -17h419l4 17q27 140 -14.5 207.5t-141.5 67.5
q-104 0 -169.5 -66t-94.5 -209z" />
    <glyph glyph-name="afii10195" unicode="&#x473;" horiz-adv-x="496" 
d="M503 292l-16 -84q-40 -214 -237 -214q-93 0 -135.5 56t-23.5 158l16 84q40 214 237 214q94 0 136 -56t23 -158zM457 208l6 31h-336l-6 -31q-36 -184 132 -184q170 0 204 184zM137 292l-5 -23h336l5 23q36 184 -132 184q-170 0 -204 -184z" />
    <glyph glyph-name="afii10148" unicode="&#x474;" horiz-adv-x="581" 
d="M260 0l-116 690h31l107 -641l289 518q5 9 11 20t9.5 17t5.5 9q11 18 22 33q14 21 26 28q33 20 67 20l-6 -30q-29 0 -47 -15.5t-45 -62.5l-326 -586h-28z" />
    <glyph glyph-name="afii10196" unicode="&#x475;" horiz-adv-x="458" 
d="M556 506l-6 -30q-18 0 -32 -13.5t-35 -50.5l-240 -412h-28l-108 500h30l99 -455l217 372q32 54 50 71q18 18 53 18z" />
    <glyph glyph-name="afii10050" unicode="&#x490;" 
d="M229 690h346l21 108h30l-27 -138h-346l-128 -660h-30z" />
    <glyph glyph-name="afii10098" unicode="&#x491;" horiz-adv-x="359" 
d="M172 500h254l18 93h30l-24 -123h-254l-91 -470h-30z" />
    <glyph glyph-name="uni0492" unicode="&#x492;" 
d="M229 690h376l-6 -30h-346l-56 -288h204l-6 -30h-204l-66 -342h-30l66 342h-115l6 30h115z" />
    <glyph glyph-name="uni0493" unicode="&#x493;" horiz-adv-x="369" 
d="M182 500h284l-6 -30h-254l-39 -201h147l-6 -30h-147l-46 -239h-30l46 239h-106l6 30h106z" />
    <glyph glyph-name="uni0496" unicode="&#x496;" horiz-adv-x="907" 
d="M349 332l-294 -332h-40l309 349l-134 341h32l129 -328h133l64 328h30l-64 -328h126l258 328h38l-267 -341l159 -319h70l-31 -160h-30l25 130h-53l-164 332h-136l-65 -332h-30l65 332h-130z" />
    <glyph glyph-name="uni0497" unicode="&#x497;" horiz-adv-x="679" 
d="M479 272l188 228h37l-200 -243l111 -227h60l-29 -147h-30l23 117h-44l-118 242h-90l-47 -242h-30l47 242h-86l-212 -242h-39l226 257l-106 243h33l100 -228h90l44 228h30l-44 -228h86z" />
    <glyph glyph-name="uni0498" unicode="&#x498;" horiz-adv-x="547" 
d="M273 -130h-30l23 124q-88 4 -136.5 53.5t-52.5 142.5h31q7 -166 175 -166q104 0 164 53t60 141q0 130 -177 130h-62l6 30h62q106 0 160 45.5t54 123.5q0 54 -37.5 86.5t-110.5 32.5q-78 0 -136.5 -41t-81.5 -113h-32q29 89 96 136.5t159 47.5q78 0 125.5 -40.5
t47.5 -102.5q0 -77 -36 -123t-112 -67q105 -33 105 -144q0 -93 -61 -157q-61 -63 -180 -68z" />
    <glyph glyph-name="uni0499" unicode="&#x499;" horiz-adv-x="448" 
d="M203 -117h-30l22 111q-105 6 -139 79l26 16q35 -65 132 -65q78 0 127 37t49 101q0 45 -34.5 68.5t-98.5 23.5h-67l6 30h67q71 0 112 28.5t41 81.5q0 37 -30 59.5t-87 22.5q-90 0 -151 -64l-22 19q69 75 179 75q64 0 103 -31.5t39 -77.5q0 -91 -101 -129q74 -29 74 -103
q0 -72 -51.5 -119.5t-144.5 -51.5z" />
    <glyph glyph-name="uni049A" unicode="&#x49a;" horiz-adv-x="644" 
d="M599 0h-50l-181 332h-178l-65 -332h-30l134 690h30l-64 -328h166l276 328h39l-285 -338l175 -322h69l-31 -160h-30z" />
    <glyph glyph-name="uni049B" unicode="&#x49b;" horiz-adv-x="505" 
d="M283 273l216 227h40l-231 -241l133 -229h60l-29 -147h-30l23 117h-42l-140 243h-131l-47 -243h-30l97 500h30l-44 -227h125z" />
    <glyph glyph-name="uni049C" unicode="&#x49c;" horiz-adv-x="598" 
d="M229 690h30l-64 -328h89l27 136h30l-27 -136h47l276 328h39l-285 -338l192 -352h-34l-181 332h-59l-26 -133h-30l26 133h-89l-65 -332h-30z" />
    <glyph glyph-name="uni049D" unicode="&#x49d;" horiz-adv-x="478" 
d="M105 0h-30l97 500h30l-44 -227h62l23 117h30l-23 -117h33l216 227h40l-231 -241l150 -259h-35l-140 243h-39l-23 -120h-30l23 120h-62z" />
    <glyph glyph-name="uni04A0" unicode="&#x4a0;" horiz-adv-x="666" 
d="M291 660h-163l6 30h193l-64 -328h166l276 328h39l-285 -338l192 -352h-34l-181 332h-178l-65 -332h-30z" />
    <glyph glyph-name="uni04A1" unicode="&#x4a1;" horiz-adv-x="530" 
d="M218 470h-147l6 30h177l-44 -227h125l216 227h40l-231 -241l150 -259h-35l-140 243h-131l-47 -243h-30z" />
    <glyph glyph-name="uni04A2" unicode="&#x4a2;" horiz-adv-x="651" 
d="M229 690h30l-61 -316h388l61 316h30l-128 -660h78l-31 -160h-30l25 130h-78l67 344h-388l-67 -344h-30z" />
    <glyph glyph-name="uni04A3" unicode="&#x4a3;" horiz-adv-x="536" 
d="M172 500h30l-45 -231h316l45 231h30l-91 -470h70l-29 -147h-30l23 117h-70l46 239h-316l-46 -239h-30z" />
    <glyph glyph-name="uni04AA" unicode="&#x4aa;" horiz-adv-x="583" 
d="M291 -130h-30l24 125q-224 11 -167 304l18 92q32 161 104 233t194 72q88 0 147 -53q58 -52 52 -154h-30q2 89 -43 133t-130 44q-108 0 -171.5 -64t-92.5 -211l-18 -92q-29 -144 11.5 -209.5t145.5 -65.5q179 0 243 181h29q-64 -202 -262 -210z" />
    <glyph glyph-name="uni04AB" unicode="&#x4ab;" horiz-adv-x="443" 
d="M246 -117h-30l22 112q-87 5 -126.5 62t-20.5 153l16 82q40 214 247 214q107 0 150 -76l-26 -15q-39 61 -128 61q-179 0 -213 -184l-16 -82q-18 -89 17 -137.5t123 -48.5q92 0 153 67l23 -18q-65 -75 -170 -79z" />
    <glyph glyph-name="uni04AE" unicode="&#x4ae;" horiz-adv-x="516" 
d="M303 309l-159 381h32l145 -348l281 348h38l-307 -381l-60 -309h-30z" />
    <glyph glyph-name="uni04AF" unicode="&#x4af;" horiz-adv-x="457" 
d="M236 45l274 455h34l-300 -498l-37 -192h-30l37 192l-107 498h30z" />
    <glyph glyph-name="uni04B0" unicode="&#x4b0;" horiz-adv-x="516" 
d="M303 309l-159 381h33l145 -348l281 348h37l-307 -381h150l-6 -30h-150l-54 -279h-30l54 279h-149l6 30h149z" />
    <glyph glyph-name="uni04B1" unicode="&#x4b1;" horiz-adv-x="457" 
d="M236 43l275 457h33l-300 -500h124l-6 -30h-124l-31 -160h-30l31 160h-123l6 30h123l-107 500h31z" />
    <glyph glyph-name="uni04B2" unicode="&#x4b2;" horiz-adv-x="581" 
d="M343 331l-270 -331h-39l294 359l-143 331h33l130 -304l248 304h39l-271 -331l141 -329h67l-31 -160h-30l25 130h-51z" />
    <glyph glyph-name="uni04B3" unicode="&#x4b3;" horiz-adv-x="455" 
d="M392 -117l23 117h-43l-112 231l-200 -231h-40l226 258l-119 242h35l104 -218l188 218h39l-213 -244l111 -226h60l-29 -147h-30z" />
    <glyph glyph-name="uni04B6" unicode="&#x4b6;" horiz-adv-x="586" 
d="M173 690h30l-33 -172q-22 -118 12 -163q35 -45 143 -45q124 0 200 88l57 292h30l-128 -660h78l-31 -160h-30l25 130h-78l68 348q-74 -68 -195 -68t-163 57t-18 181z" />
    <glyph glyph-name="uni04B7" unicode="&#x4b7;" horiz-adv-x="477" 
d="M136 500h30l-24 -126q-14 -78 16 -109.5t103 -31.5q106 0 156 50l42 217h30l-91 -470h70l-29 -147h-30l23 117h-70l47 243q-50 -40 -154 -40q-78 0 -119 40q-40 40 -24 131z" />
    <glyph glyph-name="uni04B8" unicode="&#x4b8;" horiz-adv-x="573" 
d="M305 152h-30l24 128q-107 5 -144.5 62t-14.5 176l33 172h30l-33 -172q-22 -112 8 -159q31 -45 127 -49l28 141h30l-27 -141q116 3 189 88l57 292h30l-134 -690h-30l68 348q-71 -65 -186 -68z" />
    <glyph glyph-name="uni04B9" unicode="&#x4b9;" horiz-adv-x="467" 
d="M253 102h-30l19 101q-75 3 -111 45.5t-19 125.5l24 126h30l-24 -126q-14 -74 13 -106.5t93 -34.5l22 112h30l-22 -112q92 3 139 50l42 217h30l-97 -500h-30l47 243q-46 -35 -137 -40z" />
    <glyph glyph-name="uni04BA" unicode="&#x4ba;" horiz-adv-x="573" 
d="M533 0h-30l52 268q22 118 -12 163t-142 45q-123 0 -201 -88l-75 -388h-30l134 690h30l-49 -251q73 67 196 67q121 0 162 -58t17 -180z" />
    <glyph glyph-name="uni04BB" unicode="&#x4bb;" horiz-adv-x="526" 
d="M105 0h-30l134 690h30l-52 -269q60 85 175 85q86 0 125 -60.5t19 -163.5l-55 -282h-30l55 282q19 92 -12.5 143t-104.5 51q-159 0 -197 -185z" />
    <glyph glyph-name="uni04D8" unicode="&#x4d8;" horiz-adv-x="604" 
d="M434 666q-165 0 -234 -158l-28 12q77 176 268 176q114 0 162 -77.5t18 -227.5l-18 -92q-32 -161 -104.5 -233t-194.5 -72q-116 0 -165 76t-20 229l5 26h454l13 66q54 275 -156 275zM309 24q103 0 168.5 65t94.5 206h-424q-27 -141 14 -206t147 -65z" />
    <glyph glyph-name="afii10846" unicode="&#x4d9;" horiz-adv-x="476" 
d="M91 208l9 50h347l6 32q18 89 -17 137.5t-123 48.5q-93 0 -154 -67l-23 18q66 79 183 79q96 0 139.5 -58t24.5 -158l-16 -82q-42 -214 -230 -214q-87 0 -126 56.5t-20 157.5zM437 208l4 20h-316l-4 -20q-18 -90 14 -137t108 -47t125.5 47t68.5 137z" />
    <glyph glyph-name="uni04E2" unicode="&#x4e2;" horiz-adv-x="656" 
d="M95 0l134 690h30l-123 -632l529 632h30l-134 -690h-30l123 632l-529 -632h-30zM621 815h-289v30h289v-30z" />
    <glyph glyph-name="uni04E3" unicode="&#x4e3;" horiz-adv-x="536" 
d="M172 500h30l-87 -447l413 447h30l-97 -500h-30l87 448l-413 -448h-30zM501 612h-249v30h249v-30z" />
    <glyph glyph-name="uni04E8" unicode="&#x4e8;" horiz-adv-x="600" 
d="M616 391l-18 -92q-59 -305 -296 -305q-112 0 -162.5 78t-21.5 227l18 92q32 158 105 231.5t193 73.5q112 0 161.5 -80t20.5 -225zM305 24q210 0 263 275l9 45h-420l-9 -45q-27 -139 15 -207t142 -68zM166 391l-3 -17h419l4 17q27 140 -14.5 207.5t-141.5 67.5
q-104 0 -169.5 -66t-94.5 -209z" />
    <glyph glyph-name="uni04E9" unicode="&#x4e9;" horiz-adv-x="496" 
d="M503 292l-16 -84q-40 -214 -237 -214q-93 0 -135.5 56t-23.5 158l16 84q40 214 237 214q94 0 136 -56t23 -158zM457 208l6 31h-336l-6 -31q-36 -184 132 -184q170 0 204 184zM137 292l-5 -23h336l5 23q36 184 -132 184q-170 0 -204 -184z" />
    <glyph glyph-name="uni04EE" unicode="&#x4ee;" horiz-adv-x="572" 
d="M329 152l324 538h35l-347 -574q-44 -72 -86 -97q-41 -25 -125 -25l6 30q69 0 103 19q35 20 68 74l-143 573h31zM621 815h-289v30h289v-30z" />
    <glyph glyph-name="uni04EF" unicode="&#x4ef;" horiz-adv-x="452" 
d="M37 -190l6 30q64 2 95 31q32 29 80 113l4 7l-115 509h31l105 -470l258 470h33l-289 -523q-53 -95 -95 -131q-41 -36 -113 -36zM501 612h-249v30h249v-30z" />
    <glyph glyph-name="uni1E9E" unicode="&#x1e9e;" horiz-adv-x="573" 
d="M637 636l-192 -192q81 -1 111.5 -31.5t18.5 -95.5l-35 -177q-10 -56 -47 -90q-34 -30 -73 -40t-102 -10h-25l6 30h40q69 0 114.5 27.5t56.5 82.5l35 178q10 51 -12 73.5t-94 22.5h-42l6 30l184 184q-64 40 -153 40q-179 0 -212 -169l-97 -499h-30l97 499q39 199 248 199
q99 0 197 -62z" />
    <glyph glyph-name="uni2010" unicode="&#x2010;" horiz-adv-x="299" 
d="M337 274h-239v30h239v-30z" />
    <glyph glyph-name="uni2011" unicode="&#x2011;" horiz-adv-x="299" 
d="M337 274h-239v30h239v-30z" />
    <glyph glyph-name="figuredash" unicode="&#x2012;" horiz-adv-x="480" 
d="M479 333h-348v30h348v-30z" />
    <glyph glyph-name="endash" unicode="&#x2013;" horiz-adv-x="509" 
d="M497 274h-369v30h369v-30z" />
    <glyph glyph-name="emdash" unicode="&#x2014;" horiz-adv-x="729" 
d="M757 274h-669v30h669v-30z" />
    <glyph glyph-name="quoteleft" unicode="&#x2018;" horiz-adv-x="180" 
d="M225 592h-40l21 108l47 35z" />
    <glyph glyph-name="quoteright" unicode="&#x2019;" horiz-adv-x="180" 
d="M204 690h40l-21 -108l-47 -35z" />
    <glyph glyph-name="quotesinglbase" unicode="&#x201a;" horiz-adv-x="180" 
d="M78 40h40l-21 -108l-47 -35z" />
    <glyph glyph-name="quotedblleft" unicode="&#x201c;" horiz-adv-x="296" 
d="M225 592h-40l21 108l47 35zM341 592h-40l21 108l47 35z" />
    <glyph glyph-name="quotedblright" unicode="&#x201d;" horiz-adv-x="296" 
d="M320 690h40l-21 -108l-47 -35zM204 690h40l-21 -108l-47 -35z" />
    <glyph glyph-name="quotedblbase" unicode="&#x201e;" horiz-adv-x="296" 
d="M78 40h40l-21 -108l-47 -35zM194 40h40l-21 -108l-47 -35z" />
    <glyph glyph-name="dagger" unicode="&#x2020;" horiz-adv-x="546" 
d="M108 446v30h218v214h30v-214h218v-30h-218v-636h-30v636h-218z" />
    <glyph glyph-name="daggerdbl" unicode="&#x2021;" horiz-adv-x="546" 
d="M108 446v30h218v214h30v-214h218v-30h-218v-392h218v-30h-218v-214h-30v214h-218v30h218v392h-218z" />
    <glyph glyph-name="bullet" unicode="&#x2022;" horiz-adv-x="298" 
d="M157 281q-24 25 -24 60t24 59q25 25 60 25t59 -25q25 -24 25 -59t-25 -60q-24 -24 -59 -24t-60 24z" />
    <glyph glyph-name="ellipsis" unicode="&#x2026;" horiz-adv-x="538" 
d="M78 46h46l-8 -46h-46zM430 46h46l-8 -46h-46zM254 46h46l-8 -46h-46z" />
    <glyph glyph-name="perthousand" unicode="&#x2030;" horiz-adv-x="1059" 
d="M144 0l518 690h36l-517 -690h-37zM236 372q104 0 127 117l12 63q11 57 -10 86t-72 29q-104 0 -126 -115l-12 -63q-23 -117 81 -117zM233 342q-61 0 -91 39.5t-17 107.5l12 63q28 145 158 145q63 0 93 -39.5t17 -105.5l-12 -63q-29 -147 -160 -147zM560 24q104 0 127 117
l12 63q11 57 -10 86t-72 29q-104 0 -126 -115l-12 -63q-23 -117 81 -117zM557 -6q-61 0 -91 39.5t-17 107.5l12 63q28 145 158 145q63 0 93 -39.5t17 -105.5l-12 -63q-29 -147 -160 -147zM879 24q104 0 127 117l12 63q11 57 -10 86t-72 29q-104 0 -126 -115l-12 -63
q-22 -117 81 -117zM876 -6q-61 0 -91 39.5t-17 107.5l12 63q28 145 158 145q63 0 93 -39.5t17 -105.5l-12 -63q-28 -147 -160 -147z" />
    <glyph glyph-name="guilsinglleft" unicode="&#x2039;" horiz-adv-x="322" 
d="M272 52l-187 231l277 231l-9 -46l-227 -189l153 -189z" />
    <glyph glyph-name="guilsinglright" unicode="&#x203a;" horiz-adv-x="322" 
d="M153 476l7 38l187 -231l-277 -231l9 46l227 189z" />
    <glyph glyph-name="fraction" unicode="&#x2044;" horiz-adv-x="566" 
d="M21 0l475 690h36l-474 -690h-37z" />
    <glyph glyph-name="uni2074" unicode="&#x2074;" horiz-adv-x="296" 
d="M122 478l173 212h37l-171 -215h122l13 66h30l-13 -66h39l-6 -30h-39l-14 -71h-30l14 71h-161z" />
    <glyph glyph-name="Euro" unicode="&#x20ac;" horiz-adv-x="480" 
d="M66 255l6 30h70l23 120h-70l6 30h71q34 144 87 203q52 58 153 58q75 0 113.5 -52.5t30.5 -154.5h-31q7 91 -22 134t-97 43q-83 0 -129 -52q-46 -51 -75 -179h190l-6 -30h-191l-23 -120h191l-6 -30h-190q-19 -127 6 -179t108 -52q65 0 113.5 48.5t72.5 132.5h30
q-29 -109 -87 -160t-135 -51q-183 0 -138 261h-71z" />
    <glyph glyph-name="uni20B4" unicode="&#x20b4;" horiz-adv-x="480" 
d="M144 272h-80l6 30h458l-6 -30h-336q-71 -53 -71 -134q0 -51 33.5 -82.5t94.5 -31.5q46 0 82 16q35 16 56 33q17 15 51 53l23 -19q-50 -59 -102 -86t-116 -27q-71 0 -112 40q-41 41 -41 98q0 83 60 140zM546 394h-458l6 30h335q66 49 66 133q0 109 -118 109
q-101 0 -174 -100l-23 18q79 112 201 112q69 0 107 -38t38 -96q0 -83 -55 -138h81z" />
    <glyph glyph-name="uni20B8" unicode="&#x20b8;" horiz-adv-x="480" 
d="M128 580l6 30h450l-6 -30h-210l-113 -580h-30l113 580h-210zM144 660l5 30h450l-5 -30h-450z" />
    <glyph glyph-name="uni20BD" unicode="&#x20bd;" horiz-adv-x="480" 
d="M125 153h-79l6 30h79l19 100h-79l6 30h79l73 377h121q102 0 159 -46t57 -125q0 -114 -76.5 -175t-218.5 -61h-91l-20 -100h153l-6 -30h-153l-29 -153h-30zM253 660l-67 -347h91q127 0 193 52.5t66 150.5q0 144 -192 144h-91z" />
    <glyph glyph-name="afii61352" unicode="&#x2116;" horiz-adv-x="952" 
d="M1012 544l-12 -66q-16 -78 -57 -115t-113 -37q-64 0 -95 40.5t-16 111.5l13 66q30 152 170 152q65 0 94 -40t16 -112zM969 478l13 66q24 122 -86 122t-134 -122l-13 -66q-24 -122 87 -122q57 0 89 29.5t44 92.5zM932 234h-239l6 30h239zM523 57l124 633h30l-134 -690h-28
l-267 630l-123 -630h-30l134 690h28z" />
    <glyph glyph-name="trademark" unicode="&#x2122;" horiz-adv-x="872" 
d="M490 690h24l181 -304l181 304h24v-417h-30v348l-160 -268h-30l-160 268v-348h-30v417zM108 660v30h317v-30h-144v-387h-30v387h-143z" />
    <glyph glyph-name="uni2190" unicode="&#x2190;" horiz-adv-x="868" 
d="M127 246l339 -338h-43l-353 353l353 353h43l-339 -338h671v-30h-671z" />
    <glyph glyph-name="uni2191" unicode="&#x2191;" horiz-adv-x="846" 
d="M423 625l353 -353v-43l-338 339v-671h-30v671l-338 -339v43z" />
    <glyph glyph-name="uni2192" unicode="&#x2192;" horiz-adv-x="868" 
d="M798 261l-353 -353h-43l339 338h-671v30h671l-339 338h43z" />
    <glyph glyph-name="uni2193" unicode="&#x2193;" horiz-adv-x="846" 
d="M423 -103l-353 353v43l338 -339v671h30v-671l338 339v-43z" />
    <glyph glyph-name="uni2196" unicode="&#x2196;" horiz-adv-x="670" 
d="M100 449v-479l-30 30v500h500l30 -30h-479l474 -474l-21 -21z" />
    <glyph glyph-name="uni2197" unicode="&#x2197;" horiz-adv-x="670" 
d="M600 500v-500l-30 -30v479l-474 -474l-21 21l474 474h-479l30 30h500z" />
    <glyph glyph-name="uni2198" unicode="&#x2198;" horiz-adv-x="670" 
d="M600 0h-500l-30 30h479l-474 474l21 21l474 -474v479l30 -30v-500z" />
    <glyph glyph-name="uni2199" unicode="&#x2199;" horiz-adv-x="670" 
d="M121 30h479l-30 -30h-500v500l30 30v-479l474 474l21 -21z" />
    <glyph glyph-name="uni21A3" unicode="&#x21a3;" horiz-adv-x="1183" 
d="M1086 264h-847l-97 -97l-21 21l91 91l-91 91l21 21l97 -97h847l-76 76l21 21l112 -112l-112 -112l-21 21zM61 391l112 -112l-112 -112l-21 21l91 91l-91 91z" />
    <glyph glyph-name="partialdiff" unicode="&#x2202;" horiz-adv-x="496" 
d="M514 472v-264q0 -104 -51 -159t-147 -55t-147 55t-51 159v84q0 104 51 159t147 55q120 0 168 -89v55q0 93 -45 143.5t-129 50.5q-81 0 -143 -53l-18 24q73 59 162 59q98 0 150.5 -58t52.5 -166zM484 208v84q0 90 -43 137t-125 47t-125 -47t-43 -137v-84q0 -90 43 -137
t125 -47t125 47t43 137z" />
    <glyph glyph-name="product" unicode="&#x220f;" horiz-adv-x="638" 
d="M163 690h448v-880h-30v850h-388v-850h-30v880z" />
    <glyph glyph-name="summation" unicode="&#x2211;" horiz-adv-x="519" 
d="M146 660l240 -392v-36l-240 -392h391v-30h-429v28l254 412l-254 412v28h429v-30h-391z" />
    <glyph glyph-name="minus" unicode="&#x2212;" horiz-adv-x="480" 
d="M492 339h-369v30h369v-30z" />
    <glyph glyph-name="uni2215" unicode="&#x2215;" horiz-adv-x="443" 
d="M570 812l-513 -928h-35l513 928h35z" />
    <glyph glyph-name="radical" unicode="&#x221a;" horiz-adv-x="613" 
d="M400 0l-213 470h-87v30h107l203 -450l168 640h199v-30h-176l-173 -660h-28z" />
    <glyph glyph-name="infinity" unicode="&#x221e;" horiz-adv-x="762" 
d="M268 198q48 0 84.5 33.5t83.5 112.5q-76 142 -168 142q-55 0 -92 -40q-38 -41 -38 -104q0 -64 37.5 -104t92.5 -40zM636 198q55 0 92.5 40t37.5 104q0 63 -38 104q-37 40 -92 40q-95 0 -168 -142q47 -79 83.5 -112.5t84.5 -33.5zM452 313q-46 -75 -87.5 -110t-95.5 -35
q-72 0 -117 50q-44 50 -44 124t44 124q45 50 117 50q52 0 100 -39.5t83 -103.5q35 64 83 103.5t100 39.5q72 0 116 -50q45 -50 45 -124t-45 -124q-44 -50 -116 -50q-54 0 -95.5 35t-87.5 110z" />
    <glyph glyph-name="integral" unicode="&#x222b;" horiz-adv-x="285" 
d="M173 -52v604q0 138 125 138h10v-30h-10q-50 0 -72.5 -25.5t-22.5 -82.5v-604q0 -138 -125 -138h-10v30h10q50 0 72.5 26t22.5 82z" />
    <glyph glyph-name="approxequal" unicode="&#x2248;" horiz-adv-x="509" 
d="M493 286l17 -25q-44 -39 -88 -39q-33 0 -102 26q-68 27 -95 27q-41 0 -91 -47l-17 25q56 52 108 52q33 0 102 -27q70 -26 95 -26q34 0 71 34zM493 445l17 -25q-44 -39 -88 -39q-33 0 -102 26q-68 27 -95 27q-42 0 -91 -47l-17 25q56 52 108 52q33 0 102 -27
q70 -26 95 -26q34 0 71 34z" />
    <glyph glyph-name="notequal" unicode="&#x2260;" horiz-adv-x="509" 
d="M336 420h-208v31h222l79 184l27 -13l-74 -171h135v-31h-148l-57 -133h205v-31h-219l-82 -192l-27 13l77 179h-138v31h151z" />
    <glyph glyph-name="lessequal" unicode="&#x2264;" horiz-adv-x="330" 
d="M358 170l-232 231l232 231v-42l-190 -189l190 -189v-42zM358 17l-232 231v41l232 -229v-43z" />
    <glyph glyph-name="greaterequal" unicode="&#x2265;" horiz-adv-x="330" 
d="M126 590v42l232 -231l-232 -231v42l190 189zM126 60l232 229v-41l-232 -231v43z" />
    <glyph glyph-name="uni231A" unicode="&#x231a;" horiz-adv-x="686" 
d="M456 -205h-261v235q-58 34 -91.5 93t-33.5 127t33.5 126.5t91.5 92.5v235h261v-234q51 -30 84 -80t40 -110h36v-60h-36q-7 -60 -40 -110t-84 -80v-235zM166 410q-66 -66 -66 -160t66 -160t160 -66t160 66t66 160t-66 160t-160 66t-160 -66zM326 -6q-52 0 -101 20v-189
h201v189q-49 -20 -100 -20zM426 674h-201v-189q47 21 101 21q51 0 100 -20v188zM498 337l-6 -19l-166 -93l-133 75l-6 20l20 5l119 -70l153 87z" />
    <glyph glyph-name="uni23F2" unicode="&#x23f2;" horiz-adv-x="1092" 
d="M209 5q-139 139 -139 337q0 197 139 336q140 140 337 140q196 0 336 -140t140 -336q0 -197 -140 -337q-139 -139 -336 -139q-198 0 -337 139zM230 657q-130 -130 -130 -315q0 -186 130 -316t316 -130q185 0 315 130q131 131 131 316q0 184 -131 315q-130 130 -315 130
q-186 0 -316 -130zM914 538l-5 -21l-363 -207l-257 147l-6 22l21 4l242 -138v-1l348 199zM131 327v30h140v-30h-140zM822 327v30h140v-30h-140zM561 -74h-30v140h30v-140zM561 617h-30v140h30v-140z" />
    <glyph glyph-name="uni2550" unicode="&#x2550;" horiz-adv-x="2158" 
d="M0 339h2158v-30h-2158v30zM0 239h2158v-30h-2158v30z" />
    <glyph glyph-name="lozenge" unicode="&#x25ca;" horiz-adv-x="593" 
d="M136 296l224 291h25l222 -291l-222 -296h-25zM569 296l-198 260l-198 -260l198 -265z" />
    <glyph glyph-name="uni261D" unicode="&#x261d;" horiz-adv-x="768" 
d="M698 219v-268h-393l-235 350q14 14 40 28q76 47 142 -28l46 -56v372q0 36 17 56.5t48 20.5q30 0 47.5 -20t17.5 -53v-207h13q66 0 66 -52h17q33 0 53 -16.5t20 -41.5h15q37 0 61.5 -23.5t24.5 -61.5zM116 291l208 -310h344v238q0 25 -15.5 40t-42.5 15h-2v-122h-30v122
q0 58 -57 58h-3v-126h-30v126q0 29 -11.5 40.5t-38.5 11.5h-10v-122h-30v344q0 31 -7.5 44.5t-27.5 13.5t-27.5 -14t-7.5 -46v-434l-107 114q-19 21 -41 26t-36 -0.5t-22 -13.5zM698 -271h-393v177h393v-177zM668 -241v117h-333v-117h333zM586 -163q20 17 39 -2t0 -38
q-11 -12 -26 -7t-19.5 19t6.5 28z" />
    <glyph glyph-name="uni261E" unicode="&#x261e;" horiz-adv-x="1105" 
d="M560 47h-268v393l350 235q14 -14 28 -41q46 -81 -28 -141l-56 -46h372q36 0 56.5 -17t20.5 -48q0 -30 -20 -47.5t-53 -17.5h-207v-13q0 -66 -52 -66v-17q0 -33 -16.5 -53t-41.5 -20v-15q0 -37 -23.5 -61.5t-61.5 -24.5zM632 629l-310 -208v-344h238q25 0 40 15.5t15 42.5
v2h-122v30h122q58 0 58 57v3h-126v30h126q29 0 40.5 11.5t11.5 38.5v10h-122v30h344q31 0 44.5 7.5t13.5 27.5t-14 27.5t-46 7.5h-434l114 107q21 19 26 41.5t-0.5 35.5t-13.5 23zM70 47v393h177v-393h-177zM100 77h117v333h-117v-333zM177 159q19 -19 0 -38t-39 -2
q-12 12 -6.5 27.5t19.5 19.5t26 -7z" />
    <glyph glyph-name="uni26F3" unicode="&#x26f3;" horiz-adv-x="694" 
d="M70 513q0 115 81 196t196 81t196 -81t81 -196q0 -86 -82 -216l-195 -307l-197 309q-80 128 -80 214zM347 431q-35 0 -59 24t-24 58t24 58t59 24q34 0 58 -24t24 -58t-24 -58t-58 -24zM99 513q0 -79 89 -218l161 -246l158 246q90 141 90 218q0 105 -73 175q-72 72 -175 72
q-105 0 -178 -72q-72 -70 -72 -175z" />
    <glyph glyph-name="uni2709" unicode="&#x2709;" horiz-adv-x="1256" 
d="M1186 0h-1116v578h1116v-578zM1156 548h-1056v-50l528 -314l528 314v50zM628 149l-165 98l-363 -217h1056l-363 217zM1156 64v399l-334 -199zM100 64l335 200l-335 199v-399z" />
    <glyph glyph-name="uniF040" unicode="&#xf040;" horiz-adv-x="3054" 
d="M3054 264h-1366l-97 -97l-21 21l91 91l-91 91l21 21l97 -97h1366v-30zM1366 264h-1366v30h1366l97 97l21 -21l-91 -91l91 -91l-21 -21z" />
    <glyph glyph-name="uniF041" unicode="&#xf041;" horiz-adv-x="2855" 
d="M1445 203l-26 14l79 138l26 -15l-27 -46h1358v-30h-1375zM0 294h1372l35 61l26 -15l-79 -137l-26 14l27 47h-1355v30z" />
    <glyph glyph-name="uniF042" unicode="&#xf042;" horiz-adv-x="2825" 
d="M2825 264h-1381v30h1381v-30zM0 294h1261v-30h-1261v30z" />
    <glyph glyph-name="uniF043" unicode="&#xf043;" horiz-adv-x="768" 
d="M305 -49l-235 350l11 10q17 16 42 27t62.5 5t66.5 -42l46 -56v372q0 36 17 56.5t48 20.5q30 0 47.5 -20t17.5 -53v-207h13q66 0 66 -52h17q33 0 53 -16.5t20 -41.5h15q37 0 61.5 -23.5t24.5 -61.5v-268h-393zM668 -19v238q0 25 -15.5 40t-42.5 15h-2v-122h-30v122
q0 58 -57 58h-3v-126h-30v126q0 29 -11.5 40.5t-38.5 11.5h-10v-122h-30v344q0 31 -7.5 44.5t-27.5 13.5t-27.5 -14t-7.5 -46v-434l-107 114q-38 44 -84 21q-14 -7 -21 -14l208 -310h344zM305 -94h393v-177h-393v177zM335 -124v-117h333v117h-333zM586 -163q20 17 39 -2
t0 -38q-11 -12 -26 -7t-19.5 19t6.5 28zM626 634v-30h-158v30h158zM258 634v-30h-158v30h158zM378 730h-30v158h30v-158z" />
    <glyph glyph-name="uniF044" unicode="&#xf044;" horiz-adv-x="937" 
d="M474 -49l-317 157l3 13q4 16 11.5 30.5t25.5 31.5t45 20.5t69 -2.5l156 -40v456q0 36 17 56.5t48 20.5q30 0 47.5 -20t17.5 -53v-207h13q66 0 66 -52h17q33 0 53 -16.5t20 -41.5h15q37 0 61.5 -23.5t24.5 -61.5v-268h-393zM837 -19v238q0 25 -15.5 40t-42.5 15h-2v-122
h-30v122q0 58 -57 58h-3v-126h-30v132q-1 26 -12.5 36t-37.5 10h-10v-122h-30v344q0 31 -7.5 44.5t-27.5 13.5t-27.5 -14t-7.5 -46v-483l-196 52q-27 7 -46.5 4.5t-31 -11.5t-18 -18.5t-9.5 -17.5l-2 -7l286 -142h357zM474 -94h393v-177h-393v177zM504 -124v-117h333v117
h-333zM228 25v-30h-158v158h30v-128h128zM532 764v30h158v-158h-30v128h-128zM755 -163q20 17 39 -2t0 -38q-11 -12 -26 -7t-19.5 19t6.5 28z" />
    <glyph glyph-name="uniF045" unicode="&#xf045;" horiz-adv-x="904" 
d="M427 636h457v-30h-456v-192h13q66 0 66 -52h17q33 0 53 -16.5t20 -41.5h15q37 0 61.5 -23.5t24.5 -61.5v-268h-393l-235 350q14 14 40 28q76 47 142 -28l46 -56v372q0 36 17 56.5t48 20.5q55 0 64 -58zM116 291l208 -310h344v238q0 25 -15.5 40t-42.5 15h-2v-122h-30v128
q-3 52 -57 52h-3v-126h-30v132q-1 26 -12.5 36t-37.5 10h-10v-122h-30v344q0 31 -7.5 44.5t-27.5 13.5t-27.5 -14t-7.5 -46v-434l-107 114q-19 21 -41 26t-36 -0.5t-22 -13.5zM698 -271h-393v177h393v-177zM668 -241v117h-333v-117h333zM261 530l-21 -21l-112 112l112 112
l21 -21l-91 -91zM586 -163q20 17 39 -2t0 -38q-11 -12 -26 -7t-19.5 19t6.5 28z" />
    <glyph glyph-name="uniF046" unicode="&#xf046;" horiz-adv-x="946" 
d="M876 219v-268h-393l-235 350q14 14 40 28q76 47 142 -28l46 -56v361h-456v30h457q10 58 64 58q30 0 47.5 -20t17.5 -53v-207h13q66 0 66 -52h17q33 0 53 -16.5t20 -41.5h15q37 0 61.5 -23.5t24.5 -61.5zM294 291l208 -310h344v238q0 25 -15.5 40t-42.5 15h-2v-122h-30
v128q-3 52 -57 52h-3v-126h-30v132q-1 26 -12.5 36t-37.5 10h-10v-122h-30v344q0 31 -7.5 44.5t-27.5 13.5t-27.5 -14t-7.5 -46v-434l-107 114q-19 21 -41 26t-36 -0.5t-22 -13.5zM876 -271h-393v177h393v-177zM846 -241v117h-333v-117h333zM664 733l112 -112l-112 -112
l-21 21l91 91l-91 91zM764 -163q20 17 39 -2t0 -38q-11 -12 -26 -7t-19.5 19t6.5 28z" />
    <glyph glyph-name="uniF047" unicode="&#xf047;" horiz-adv-x="1062" 
d="M691 17l-232 -134l-197 341l186 378q3 -1 8 -2.5t18 -7.5t24.5 -13.5t24 -21t19 -29t6.5 -37.5t-9 -47l-26 -68l323 186q68 38 99 -18q15 -28 6.5 -52t-37.5 -40l-9 -5v-571h-30v553l-140 -81l6 -11q35 -57 -12 -83l9 -15q15 -31 11 -55.5t-25 -36.5l7 -13q19 -29 11 -64
t-41 -53zM462 557l-164 -335l172 -298l206 119q21 12 26.5 33t-8.5 45l-1 1l-105 -61l-15 26l105 61q50 30 22 79l-1 2l-109 -63l-15 26l109 63q24 15 28.5 31t-8.5 39l-5 8l-106 -61l-15 26l298 172q27 16 34 27.5t-1 32.5q-17 30 -70 0l-375 -217l45 150q11 41 -4 63.5
t-36 27.5zM266 -228l-196 341l153 88l197 -340zM277 -187l102 59l-167 288l-101 -58zM768 635l112 112l112 -112l-21 -21l-91 91l-91 -91zM276 -84q20 17 39 -2t0 -38q-11 -12 -26 -7t-19.5 19t6.5 28z" />
    <glyph glyph-name="uniF048" unicode="&#xf048;" horiz-adv-x="1196" 
d="M495 -52l-232 134l196 341l421 28q5 -14 4 -49q2 -38 -21 -68.5t-75 -40.5l-71 -11l282 -164v555h30v-573l10 -5q67 -39 34 -95q-15 -26 -41.5 -30.5t-53.5 11.5l-179 103l-7 -11q-31 -57 -78 -31l-8 -15q-17 -29 -43 -38t-44 4l-8 -13q-18 -32 -49 -41t-67 9zM848 416
l-372 -25l-172 -298l206 -119q21 -12 42 -6.5t35 29.5v2l-106 60l15 26l106 -60q51 -29 79 20l1 2l-109 63l15 26l109 -63q27 -14 41.5 -10t29.5 28l5 8l-106 61l15 26l298 -172q52 -29 68 2q18 29 -35 61l-375 216l152 36q28 6 43 23t17 30.5t0 26.5zM70 193l197 340
l153 -88l-196 -341zM111 204l102 -59l166 289l-101 58zM1126 -86l-112 -112l-112 112l21 21l91 -91l91 91zM172 248q12 12 27 7t19 -19t-7 -27q-7 -8 -19 -8t-20 8t-8 20t8 19z" />
    <glyph glyph-name="uniF400" unicode="&#xf400;" horiz-adv-x="0" 
d="M-133 567h-30l111 158h35z" />
    <glyph glyph-name="uniF401" unicode="&#xf401;" horiz-adv-x="0" 
d="M-145 767h-30l90 129h35z" />
    <glyph glyph-name="uniF406" unicode="&#xf406;" horiz-adv-x="534" 
d="M602 887h30q-14 -69 -55.5 -99.5t-119.5 -30.5q-67 0 -101.5 34t-22.5 96h30q-19 -100 100 -100q66 0 97.5 25.5t41.5 74.5z" />
    <glyph glyph-name="uniF407" unicode="&#xf407;" horiz-adv-x="390" 
d="M268 -41l26 63l30 -2l-19 -40q68 -14 68 -65q0 -44 -34.5 -69t-90.5 -25q-22 0 -36 3l12 29q22 -2 30 -2q88 0 88 59q0 44 -74 49z" />
    <glyph glyph-name="uniF408" unicode="&#xf408;" horiz-adv-x="525" 
d="M292 757l177 142h32l121 -142h-42l-98 116l-144 -116h-46z" />
    <glyph glyph-name="uniF409" unicode="&#xf409;" horiz-adv-x="325" 
d="M282 -64h30l-21 -110l-35 -26z" />
    <glyph glyph-name="uniF40A" unicode="&#xf40a;" horiz-adv-x="90" 
d="M174 690h30l-29 -150l-35 -26z" />
    <glyph glyph-name="uniF40B" unicode="&#xf40b;" horiz-adv-x="380" 
d="M340 869l-8 -44h-44l8 44h44z" />
    <glyph glyph-name="uniF40C" unicode="&#xf40c;" horiz-adv-x="470" 
d="M201 800q0 44 31 71.5t78 27.5q48 0 79 -27.5t31 -71.5t-31 -71t-79 -27q-47 0 -78 27t-31 71zM231 800q0 -32 22 -50t57 -18q36 0 58 18t22 50q0 33 -21.5 51t-58.5 18q-35 0 -57 -18t-22 -51z" />
    <glyph glyph-name="uniF40D" unicode="&#xf40d;" horiz-adv-x="522" 
d="M380 807q-26 0 -61 16q-36 17 -55 17q-38 0 -71 -33l-23 19q42 44 94 44q22 0 58 -17q35 -16 57 -16q42 0 70 33l23 -19q-38 -44 -92 -44z" />
    <glyph glyph-name="uniF40E" unicode="&#xf40e;" horiz-adv-x="383" 
d="M369 30l1 -30l-35 -13q-4 -2 -17 -7.5t-16 -7.5t-12.5 -9.5t-12.5 -10.5t-8.5 -9.5t-7.5 -12.5t-2 -14q0 -36 60 -36q20 0 35 3v-29q-15 -4 -40 -4q-38 0 -62 15.5t-24 45.5q0 39 30 62t111 57z" />
    <glyph glyph-name="dollar.fitted" unicode="&#xf5f5;" horiz-adv-x="568" 
d="M614 582l-28 -16q-39 93 -156 99l-59 -307q94 -25 136 -62.5t42 -107.5q0 -88 -64 -140t-185 -54l-21 -110h-30l21 111q-141 8 -192 113l25 16q51 -95 173 -100l61 313q-87 25 -128 61.5t-41 104.5q0 84 61 137t177 56l23 116h30l-23 -117q125 -7 178 -113zM519 182
q0 61 -35 93t-119 54l-59 -305q101 2 157 45t56 113zM199 507q0 -60 34.5 -90.5t108.5 -50.5l58 300q-95 -3 -148 -45t-53 -114z" />
    <glyph glyph-name="Euro.fitted" unicode="&#xf5f6;" horiz-adv-x="627" 
d="M183 405h-94l6 30h95q35 137 104.5 199t183.5 62q88 0 147 -53q58 -52 52 -154h-30q2 89 -43 133t-130 44q-100 0 -161 -54.5t-93 -176.5h226l-6 -30h-227l-3 -14l-18 -92l-3 -14h228l-6 -30h-226q-15 -121 26.5 -176t137.5 -55q179 0 243 181h29q-25 -77 -72 -127
q-81 -84 -203 -84q-108 0 -158.5 64.5t-32.5 196.5h-95l6 30h93l3 14l18 92z" />
    <glyph glyph-name="cent.fitted" unicode="&#xf5f7;" horiz-adv-x="443" 
d="M414 91l23 -18q-65 -75 -168 -79l-22 -110h-30l22 111q-87 5 -127 62t-21 153l16 82q41 206 231 213l23 117h30l-23 -116q97 -6 136 -76l-26 -15q-39 61 -128 61q-179 0 -213 -184l-16 -82q-18 -89 17 -137.5t123 -48.5q92 0 153 67z" />
    <glyph glyph-name="sterling.fitted" unicode="&#xf5f8;" horiz-adv-x="462" 
d="M421 0h-371l6 30h71l65 336h-71l6 30h71l15 78q18 96 58 153q48 69 146 69q78 0 130 -67l-25 -19q-39 56 -111 56q-69 0 -109 -47.5t-59 -144.5l-15 -78h156l-6 -30h-156l-65 -336h270z" />
    <glyph glyph-name="yen.fitted" unicode="&#xf5f9;" horiz-adv-x="516" 
d="M88 170l6 30h188l21 109h-188l6 30h169l-146 351h34l145 -348l281 348h36l-283 -351h170l-6 -30h-188l-21 -109h188l-6 -30h-188l-33 -170h-30l33 170h-188z" />
    <glyph glyph-name="florin.fitted" unicode="&#xf5fa;" horiz-adv-x="326" 
d="M163 470l6 30h64l7 36q16 83 52.5 118.5t109.5 35.5h23l-6 -30h-23q-66 0 -93 -35q-22 -33 -34 -96l-6 -29h125l-6 -30h-125l-98 -506q-16 -82 -53 -118t-112 -36l6 30q66 0 91 31q24 30 41 109l95 490h-64z" />
    <glyph glyph-name="uni20B4.fitted" unicode="&#xf5fb;" horiz-adv-x="508" 
d="M158 272h-80l6 30h458l-6 -30h-336q-71 -53 -71 -134q0 -51 33.5 -82.5t94.5 -31.5q46 0 82 16q35 16 56 33q17 15 51 53l23 -19q-50 -59 -102 -86t-116 -27q-71 0 -112 40q-41 41 -41 98q0 83 60 140zM560 394h-458l6 30h335q66 49 66 133q0 109 -118 109
q-101 0 -174 -100l-23 18q79 112 201 112q69 0 107 -38t38 -96q0 -83 -55 -138h81z" />
    <glyph glyph-name="uni20BD.fitted" unicode="&#xf5fc;" horiz-adv-x="480" 
d="M125 153h-79l6 30h79l19 100h-79l6 30h79l73 377h121q102 0 159 -46t57 -125q0 -114 -76.5 -175t-218.5 -61h-91l-20 -100h153l-6 -30h-153l-29 -153h-30zM253 660l-67 -347h91q127 0 193 52.5t66 150.5q0 144 -192 144h-91z" />
    <glyph glyph-name="uni20B8.fitted" unicode="&#xf5fd;" horiz-adv-x="516" 
d="M128 580l6 30h486l-6 -30h-228l-113 -580h-30l113 580h-228zM144 660l5 30h486l-5 -30h-486z" />
    <glyph glyph-name="uniF639" unicode="&#xf639;" horiz-adv-x="516" 
d="M543 497l-59 -304q-18 -93 -78.5 -146t-144.5 -53q-82 0 -126 56q-43 56 -27 144l59 302q18 97 78.5 148.5t144.5 51.5q81 0 125 -56q45 -55 28 -143zM197 497l-59 -304q-15 -77 20 -123t105 -46q73 0 124.5 46t66.5 123l59 304q15 77 -20 123t-105 46
q-73 0 -124.5 -44.5t-66.5 -124.5z" />
    <glyph glyph-name="uniF63A" unicode="&#xf63a;" horiz-adv-x="497" 
d="M101 30h335l-6 -30h-385l5 24l311 299q83 79 115 124q29 43 29 93q0 59 -37 92.5t-95 33.5q-68 0 -119.5 -41t-68.5 -114h-30q17 85 78 135q62 50 143 50q68 0 114 -44q45 -43 45 -110q0 -65 -49 -128q-43 -55 -106 -114q-11 -11 -16 -15z" />
    <glyph glyph-name="uniF63B" unicode="&#xf63b;" horiz-adv-x="489" 
d="M289 341h-33l6 30h33q103 0 155.5 45t52.5 126q0 55 -36 89.5t-96 34.5q-69 0 -120 -40.5t-66 -105.5h-30q15 78 77 127t141 49q69 0 115 -44q45 -44 45 -105q0 -158 -154 -192q45 -13 72.5 -51t27.5 -89q0 -98 -65 -160q-64 -61 -164 -61q-90 0 -135 49.5t-36 131.5h30
q-11 -151 144 -151q81 0 138 51q57 53 57 138q0 61 -41 94.5t-118 33.5z" />
    <glyph glyph-name="uniF63C" unicode="&#xf63c;" horiz-adv-x="494" 
d="M61 160l353 530h35l-349 -524h280l44 227h30l-44 -227h76l-6 -30h-76l-26 -136h-30l26 136h-318z" />
    <glyph glyph-name="uniF63D" unicode="&#xf63d;" horiz-adv-x="480" 
d="M328 438q-91 0 -162 -107h-26l70 359h330l-6 -30h-300l-52 -265q61 73 150 73q74 0 114.5 -47.5t40.5 -128.5q0 -144 -62.5 -221t-180.5 -77q-73 0 -116 49t-37 121h30q-6 -62 30 -101t96 -39q101 0 155 65.5t54 196.5q0 152 -128 152z" />
    <glyph glyph-name="uniF63E" unicode="&#xf63e;" horiz-adv-x="478" 
d="M314 402q69 0 113 -47q45 -47 45 -115q0 -108 -66 -177t-168 -69q-68 0 -111 46t-43 119q0 24 4 43q7 39 21 70l15 28l20 30l18 29l208 331h37l-204 -320q50 32 111 32zM114 162q0 -64 34.5 -101t95.5 -37q83 0 140 60t57 151q0 63 -35 100t-95 37q-85 0 -141 -59
t-56 -151z" />
    <glyph glyph-name="uniF63F" unicode="&#xf63f;" horiz-adv-x="428" 
d="M193 660l-27 -139h-30l33 169h368l-6 -30l-362 -660h-35l363 660h-304z" />
    <glyph glyph-name="uniF640" unicode="&#xf640;" horiz-adv-x="477" 
d="M113 157q0 -57 37 -95t94 -38q79 0 135 53q57 54 57 130q0 57 -37 95.5t-94 38.5q-75 0 -134 -54q-58 -52 -58 -130zM190 494q0 -52 34 -87.5t87 -35.5q74 0 127 50t53 120q0 54 -34.5 89.5t-88.5 35.5q-73 0 -126 -50q-52 -49 -52 -122zM83 152q0 73 42 127t113 79
q-36 19 -57.5 54.5t-21.5 77.5q0 88 62 147t149 59q64 0 107 -45q44 -44 44 -105q0 -67 -37 -117.5t-103 -73.5q39 -21 62.5 -60t23.5 -84q0 -94 -67 -155q-67 -62 -158 -62q-69 0 -114 47t-45 111z" />
    <glyph glyph-name="uniF641" unicode="&#xf641;" horiz-adv-x="478" 
d="M296 288q-70 0 -114 45q-44 47 -44 117q0 107 65 177q66 69 165 69q71 0 114.5 -44.5t43.5 -119.5q0 -30 -6 -50q-11 -38 -15 -45q-11 -25 -21 -43q-3 -5 -5.5 -9.5t-4.5 -6.5l-1 -3l-13 -21l-13 -20l-208 -334h-36l199 317q-50 -29 -106 -29zM298 318q91 0 144 68
q54 68 54 150q0 60 -34.5 95t-95.5 35q-86 0 -142 -60q-55 -58 -55 -151q0 -63 34.5 -100t94.5 -37z" />
    <glyph glyph-name="uniF6BA" unicode="&#xf6ba;" horiz-adv-x="299" 
d="M347 330h-239v30h239v-30z" />
    <glyph glyph-name="uniF6BB" unicode="&#xf6bb;" horiz-adv-x="509" 
d="M507 330h-369v30h369v-30z" />
    <glyph glyph-name="uniF6BC" unicode="&#xf6bc;" horiz-adv-x="729" 
d="M767 330h-669v30h669v-30z" />
    <glyph glyph-name="uniF6C3" unicode="&#xf6c3;" horiz-adv-x="263" 
d="M221 -64h30l-22 -110l-35 -27z" />
    <glyph glyph-name="uniF6C9" unicode="&#xf6c9;" horiz-adv-x="416" 
d="M445 767h-30l90 129h35z" />
    <glyph glyph-name="uniF6CA" unicode="&#xf6ca;" horiz-adv-x="525" 
d="M320 899h42l98 -116l144 116h46l-177 -142h-32z" />
    <glyph glyph-name="uniF6CB" unicode="&#xf6cb;" horiz-adv-x="485" 
d="M445 869l-8 -44h-44l8 44h44zM235 869l-8 -44h-44l8 44h44z" />
    <glyph glyph-name="uniF6CE" unicode="&#xf6ce;" horiz-adv-x="403" 
d="M478 767l-51 129h35l40 -129h-24z" />
    <glyph glyph-name="uniF6CF" unicode="&#xf6cf;" horiz-adv-x="538" 
d="M367 767h-30l105 129h35zM552 767h-30l105 129h35z" />
    <glyph glyph-name="uniF6D0" unicode="&#xf6d0;" horiz-adv-x="505" 
d="M455 815h-289v30h289v-30z" />
    <glyph glyph-name="uniF6D1" unicode="&#xf6d1;" horiz-adv-x="524" 
d="M602 887h30q-14 -69 -55.5 -99.5t-119.5 -30.5q-67 0 -101.5 34t-22.5 96h30q-19 -100 100 -100q66 0 97.5 25.5t41.5 74.5z" />
    <glyph glyph-name="uniF6D4" unicode="&#xf6d4;" horiz-adv-x="424" 
d="M480 690h30q-11 -61 -47 -89.5t-102 -28.5q-58 0 -86 31t-17 87h30q-18 -88 79 -88q52 0 78 21t35 67z" />
    <glyph glyph-name="uniF6DC" unicode="&#xf6dc;" horiz-adv-x="269" 
d="M278 690h30l-134 -690h-30l127 650l-113 -71l6 35z" />
    <glyph glyph-name="uniFEFF" unicode="&#xfeff;" horiz-adv-x="0" 
 />
    <glyph glyph-name="uniF4D3" unicode="&#x1f4d3;" horiz-adv-x="772" 
d="M70 60v815q0 25 18 43t43 18h510q25 0 43 -18t18 -43v-815q0 -25 -18 -42.5t-43 -17.5h-510q-25 0 -43 17.5t-18 42.5zM386 127q17 0 29 -12t12 -29t-12 -29t-29 -12q-18 0 -30 12t-12 29t12 29t30 12zM672 172v641h-572v-641h572zM373 861q-8 8 -4.5 16.5t12 10.5
t16.5 -4t4.5 -15t-12 -12t-16.5 4zM100 875v-32h572v32q0 13 -9 22t-22 9h-509q-14 0 -23 -9t-9 -22zM672 61v81h-572v-81q0 -13 9 -22t23 -9h509q13 0 22 9t9 22z" />
    <glyph glyph-name="uniF4F1" unicode="&#x1f4f1;" horiz-adv-x="572" 
d="M70 60v715q0 25 18 43t43 18h310q25 0 43 -18t18 -43v-715q0 -25 -18 -42.5t-43 -17.5h-310q-25 0 -43 17.5t-18 42.5zM472 183v510h-372v-510h372zM239 777h94q11 0 11 -12t-11 -12h-94q-11 0 -11 12t11 12zM472 62v91h-372v-91q0 -14 9 -23t23 -9h309q13 0 22 9t9 23z
M100 775v-52h372v52q0 13 -9 22t-22 9h-309q-14 0 -23 -9t-9 -22zM286 132q17 0 29 -12t12 -29t-12 -29t-29 -12q-18 0 -30 12t-12 29t12 29t30 12z" />
    <glyph glyph-name="NULL" horiz-adv-x="0" 
 />
    <glyph glyph-name="CR" horiz-adv-x="333" 
 />
    <glyph glyph-name="e.ss01" 
d="M284 237h-158l-4 -23q-16 -90 18 -140t121 -50q92 0 154 68l22 -19q-69 -79 -182 -79q-93 0 -138 58.5t-26 157.5l16 82q40 214 242 214q68 0 110 -32.5t42 -84.5q0 -72 -56.5 -112t-160.5 -40zM137 292l-5 -25h158q86 0 133 31.5t47 88.5q0 42 -33 65.5t-93 23.5
q-82 0 -135 -47t-72 -137z" />
    <glyph glyph-name="uni2196.ss02" horiz-adv-x="665" 
d="M100 449v-449h-30v500h500v-30h-449l474 -474l-21 -21z" />
    <glyph glyph-name="afii10081.ss01" horiz-adv-x="526" 
d="M105 0h-30l97 500h30l-15 -79q60 85 174 85q87 0 126 -60.5t19 -163.5l-55 -282h-30l55 282q19 92 -12.5 143t-104.5 51q-159 0 -197 -185z" />
    <glyph glyph-name="afii10069.ss01" horiz-adv-x="496" 
d="M503 292l-16 -84q-40 -214 -237 -214q-93 0 -135.5 56t-23.5 158l16 84q40 214 237 214q122 0 153 -88l11 54q18 93 -17 143.5t-119 50.5q-81 0 -154 -53l-13 24q85 59 173 59q98 0 139.5 -58.5t20.5 -165.5l-33 -169q-2 -10 -2 -11zM457 208l16 84q36 184 -132 184
q-170 0 -204 -184l-16 -84q-36 -184 132 -184q170 0 204 184z" />
    <glyph glyph-name="uni261E.ss02" horiz-adv-x="1098" 
d="M70 51v389h164v-389h-164zM116 415h-20v-338h20v338zM188 77h20v338h-20v-338zM162 415h-20v-241h20v241zM162 112h-20v-35h20v35zM553 47h-268v393l350 235q14 -14 28 -41q46 -81 -28 -141l-56 -46h372q36 0 56.5 -17t20.5 -48q0 -30 -20 -47.5t-53 -17.5h-207v-13
q0 -66 -52 -66v-17q0 -33 -16.5 -53t-41.5 -20v-15q0 -37 -23.5 -61.5t-61.5 -24.5zM625 629l-310 -208v-344h238q25 0 40 15.5t15 42.5v2h-122v30h122q58 0 58 57v3h-126v30h126q29 0 40.5 11.5t11.5 38.5v10h-122v30h344q31 0 44.5 7.5t13.5 27.5t-14 27.5t-46 7.5h-434
l114 107q21 19 26 41.5t-0.5 35.5t-13.5 23z" />
    <glyph glyph-name="uni2191.ss02" horiz-adv-x="846" 
d="M423 625l353 -353l-21 -22l-317 318v-671h-30v671l-317 -318l-21 22z" />
    <glyph glyph-name="afii10075.ss01" horiz-adv-x="526" 
d="M518 500h31l-98 -500h-30l17 81q-61 -87 -176 -87q-85 0 -124.5 60t-19.5 164l55 282h30l-55 -282q-19 -92 12.5 -143t104.5 -51q161 0 197 187zM490 690h30q-11 -61 -47 -89.5t-102 -28.5q-58 0 -86 31t-17 87h30q-18 -88 79 -88q52 0 78 21t35 67z" />
    <glyph glyph-name="afii10074.ss01" horiz-adv-x="526" 
d="M518 500h31l-98 -500h-30l17 81q-61 -87 -176 -87q-85 0 -124.5 60t-19.5 164l55 282h30l-55 -282q-19 -92 12.5 -143t104.5 -51q161 0 197 187z" />
    <glyph glyph-name="uni2197.ss02" horiz-adv-x="665" 
d="M595 500v-500h-30v449l-474 -474l-21 21l474 474h-449v30h500z" />
    <glyph glyph-name="a.ss01" horiz-adv-x="511" 
d="M489 425l14 75h30l-97 -500h-30l14 70q-30 -41 -72 -58.5t-106 -17.5q-92 0 -131.5 56.5t-19.5 159.5l16 82q22 111 77.5 162.5t154.5 51.5q121 0 150 -81zM245 24q92 0 138 45t64 140l17 90q16 88 -13 132.5t-115 44.5q-84 0 -132.5 -45t-66.5 -139l-16 -82
q-36 -186 124 -186z" />
    <glyph glyph-name="uni2190.ss02" horiz-adv-x="868" 
d="M127 246l318 -317l-22 -21l-353 353l353 353l22 -21l-318 -317h671v-30h-671z" />
    <glyph glyph-name="uni2192.ss02" horiz-adv-x="868" 
d="M798 261l-353 -353l-22 21l318 317h-671v30h671l-318 317l22 21z" />
    <glyph glyph-name="uni2198.ss02" horiz-adv-x="665" 
d="M565 51v449h30v-500h-500v30h449l-474 474l21 21z" />
    <glyph glyph-name="uni2199.ss02" horiz-adv-x="665" 
d="M70 0v500h30v-449l474 474l21 -21l-474 -474h449v-30h-500z" />
    <glyph glyph-name="eacute.ss01" 
d="M284 237h-158l-4 -23q-16 -90 18 -140t121 -50q92 0 154 68l22 -19q-69 -79 -182 -79q-93 0 -138 58.5t-26 157.5l16 82q40 214 242 214q68 0 110 -32.5t42 -84.5q0 -72 -56.5 -112t-160.5 -40zM137 292l-5 -25h158q86 0 133 31.5t47 88.5q0 42 -33 65.5t-93 23.5
q-82 0 -135 -47t-72 -137zM359 567h-30l111 158h35z" />
    <glyph glyph-name="ecircumflex.ss01" 
d="M284 237h-158l-4 -23q-16 -90 18 -140t121 -50q92 0 154 68l22 -19q-69 -79 -182 -79q-93 0 -138 58.5t-26 157.5l16 82q40 214 242 214q68 0 110 -32.5t42 -84.5q0 -72 -56.5 -112t-160.5 -40zM137 292l-5 -25h158q86 0 133 31.5t47 88.5q0 42 -33 65.5t-93 23.5
q-82 0 -135 -47t-72 -137zM236 558l136 142h32l80 -142h-36l-64 113l-108 -113h-40z" />
    <glyph glyph-name="edieresis.ss01" 
d="M284 237h-158l-4 -23q-16 -90 18 -140t121 -50q92 0 154 68l22 -19q-69 -79 -182 -79q-93 0 -138 58.5t-26 157.5l16 82q40 214 242 214q68 0 110 -32.5t42 -84.5q0 -72 -56.5 -112t-160.5 -40zM137 292l-5 -25h158q86 0 133 31.5t47 88.5q0 42 -33 65.5t-93 23.5
q-82 0 -135 -47t-72 -137zM513 690l-8 -44h-44l8 44h44zM303 690l-8 -44h-44l8 44h44z" />
    <glyph glyph-name="afii10065.ss01" horiz-adv-x="511" 
d="M489 425l14 75h30l-97 -500h-30l14 70q-30 -41 -72 -58.5t-106 -17.5q-92 0 -131.5 56.5t-19.5 159.5l16 82q22 111 77.5 162.5t154.5 51.5q121 0 150 -81zM245 24q92 0 138 45t64 140l17 90q16 88 -13 132.5t-115 44.5q-84 0 -132.5 -45t-66.5 -139l-16 -82
q-36 -186 124 -186z" />
    <glyph glyph-name="afii10070.ss01" 
d="M284 237h-158l-4 -23q-16 -90 18 -140t121 -50q92 0 154 68l22 -19q-69 -79 -182 -79q-93 0 -138 58.5t-26 157.5l16 82q40 214 242 214q68 0 110 -32.5t42 -84.5q0 -72 -56.5 -112t-160.5 -40zM137 292l-5 -25h158q86 0 133 31.5t47 88.5q0 42 -33 65.5t-93 23.5
q-82 0 -135 -47t-72 -137z" />
    <glyph glyph-name="afii10071.ss01" 
d="M284 237h-158l-4 -23q-16 -90 18 -140t121 -50q92 0 154 68l22 -19q-69 -79 -182 -79q-93 0 -138 58.5t-26 157.5l16 82q40 214 242 214q68 0 110 -32.5t42 -84.5q0 -72 -56.5 -112t-160.5 -40zM137 292l-5 -25h158q86 0 133 31.5t47 88.5q0 42 -33 65.5t-93 23.5
q-82 0 -135 -47t-72 -137zM513 690l-8 -44h-44l8 44h44zM303 690l-8 -44h-44l8 44h44z" />
    <glyph glyph-name="aogonek.ss01" horiz-adv-x="511" 
d="M503 500h30l-97 -500l-35 -13q-4 -2 -17 -7.5t-16 -7.5t-12.5 -9.5t-12.5 -10.5t-8.5 -9.5t-7.5 -12.5t-2 -14q0 -36 60 -36q20 0 35 3v-29q-15 -4 -40 -4q-38 0 -62 15.5t-24 45.5q0 35 25 57t91 51l10 51q-30 -41 -72 -58.5t-106 -17.5q-92 0 -131.5 56.5t-19.5 159.5
l16 82q22 111 77.5 162.5t154.5 51.5q121 0 150 -81zM245 24q92 0 138 45t64 140l17 90q16 88 -13 132.5t-115 44.5q-84 0 -132.5 -45t-66.5 -139l-16 -82q-36 -186 124 -186z" />
    <glyph glyph-name="abreve.ss01" horiz-adv-x="511" 
d="M489 425l14 75h30l-97 -500h-30l14 70q-30 -41 -72 -58.5t-106 -17.5q-92 0 -131.5 56.5t-19.5 159.5l16 82q22 111 77.5 162.5t154.5 51.5q121 0 150 -81zM245 24q92 0 138 45t64 140l17 90q16 88 -13 132.5t-115 44.5q-84 0 -132.5 -45t-66.5 -139l-16 -82
q-36 -186 124 -186zM480 700h30q-11 -61 -47 -89.5t-102 -28.5q-58 0 -86 31t-17 87h30q-18 -88 79 -88q52 0 78 21t35 67z" />
    <glyph glyph-name="eogonek.ss01" 
d="M284 237h-158l-4 -23q-16 -90 18 -140t121 -50q92 0 154 68l22 -19q-51 -57 -126 -73l-35 -13q-4 -2 -17 -7.5t-16 -7.5t-12.5 -9.5t-12.5 -10.5t-8.5 -9.5t-7.5 -12.5t-2 -14q0 -36 60 -36q20 0 35 3v-29q-15 -4 -40 -4q-38 0 -62 15.5t-24 45.5q0 29 14.5 47.5
t50.5 36.5q-84 7 -123 65t-20 150l16 82q40 214 242 214q68 0 110 -32.5t42 -84.5q0 -72 -56.5 -112t-160.5 -40zM137 292l-5 -25h158q86 0 133 31.5t47 88.5q0 42 -33 65.5t-93 23.5q-82 0 -135 -47t-72 -137z" />
    <glyph glyph-name="ecaron.ss01" 
d="M284 237h-158l-4 -23q-16 -90 18 -140t121 -50q92 0 154 68l22 -19q-69 -79 -182 -79q-93 0 -138 58.5t-26 157.5l16 82q40 214 242 214q68 0 110 -32.5t42 -84.5q0 -72 -56.5 -112t-160.5 -40zM137 292l-5 -25h158q86 0 133 31.5t47 88.5q0 42 -33 65.5t-93 23.5
q-82 0 -135 -47t-72 -137zM511 700l-136 -142h-32l-80 142h36l64 -113l108 113h40z" />
    <glyph glyph-name="amacron.ss01" horiz-adv-x="511" 
d="M489 425l14 75h30l-97 -500h-30l14 70q-30 -41 -72 -58.5t-106 -17.5q-92 0 -131.5 56.5t-19.5 159.5l16 82q22 111 77.5 162.5t154.5 51.5q121 0 150 -81zM245 24q92 0 138 45t64 140l17 90q16 88 -13 132.5t-115 44.5q-84 0 -132.5 -45t-66.5 -139l-16 -82
q-36 -186 124 -186zM511 612h-249v30h249v-30z" />
    <glyph glyph-name="emacron.ss01" 
d="M284 237h-158l-4 -23q-16 -90 18 -140t121 -50q92 0 154 68l22 -19q-69 -79 -182 -79q-93 0 -138 58.5t-26 157.5l16 82q40 214 242 214q68 0 110 -32.5t42 -84.5q0 -72 -56.5 -112t-160.5 -40zM137 292l-5 -25h158q86 0 133 31.5t47 88.5q0 42 -33 65.5t-93 23.5
q-82 0 -135 -47t-72 -137zM501 612h-249v30h249v-30z" />
    <glyph glyph-name="edotaccent.ss01" 
d="M284 237h-158l-4 -23q-16 -90 18 -140t121 -50q92 0 154 68l22 -19q-69 -79 -182 -79q-93 0 -138 58.5t-26 157.5l16 82q40 214 242 214q68 0 110 -32.5t42 -84.5q0 -72 -56.5 -112t-160.5 -40zM137 292l-5 -25h158q86 0 133 31.5t47 88.5q0 42 -33 65.5t-93 23.5
q-82 0 -135 -47t-72 -137zM408 690l-8 -44h-44l8 44h44z" />
    <glyph glyph-name="afii10065.var.accented.ss01" horiz-adv-x="511" 
d="M489 425l14 75h30l-97 -500h-30l14 70q-30 -41 -72 -58.5t-106 -17.5q-92 0 -131.5 56.5t-19.5 159.5l16 82q22 111 77.5 162.5t154.5 51.5q121 0 150 -81zM245 24q92 0 138 45t64 140l17 90q16 88 -13 132.5t-115 44.5q-84 0 -132.5 -45t-66.5 -139l-16 -82
q-36 -186 124 -186zM379 567h-30l111 158h35z" />
    <glyph glyph-name="afii10070.var.accented.ss01" 
d="M284 237h-158l-4 -23q-16 -90 18 -140t121 -50q92 0 154 68l22 -19q-69 -79 -182 -79q-93 0 -138 58.5t-26 157.5l16 82q40 214 242 214q68 0 110 -32.5t42 -84.5q0 -72 -56.5 -112t-160.5 -40zM137 292l-5 -25h158q86 0 133 31.5t47 88.5q0 42 -33 65.5t-93 23.5
q-82 0 -135 -47t-72 -137zM359 567h-30l111 158h35z" />
    <glyph glyph-name="afii10074.var.accented.ss01" horiz-adv-x="526" 
d="M518 500h31l-98 -500h-30l17 81q-61 -87 -176 -87q-85 0 -124.5 60t-19.5 164l55 282h30l-55 -282q-19 -92 12.5 -143t104.5 -51q161 0 197 187zM371 567h-30l111 158h35z" />
    <glyph glyph-name="afii10071.var.accented.ss01" 
d="M284 237h-158l-4 -23q-16 -90 18 -140t121 -50q92 0 154 68l22 -19q-69 -79 -182 -79q-93 0 -138 58.5t-26 157.5l16 82q40 214 242 214q68 0 110 -32.5t42 -84.5q0 -72 -56.5 -112t-160.5 -40zM137 292l-5 -25h158q86 0 133 31.5t47 88.5q0 42 -33 65.5t-93 23.5
q-82 0 -135 -47t-72 -137zM513 690l-8 -44h-44l8 44h44zM303 690l-8 -44h-44l8 44h44zM398 717h-30l111 158h35z" />
    <glyph glyph-name="uni04E3.ss01" horiz-adv-x="526" 
d="M518 500h31l-98 -500h-30l17 81q-61 -87 -176 -87q-85 0 -124.5 60t-19.5 164l55 282h30l-55 -282q-19 -92 12.5 -143t104.5 -51q161 0 197 187zM516 612h-249v30h249v-30z" />
    <glyph glyph-name="afii10193.ss01" horiz-adv-x="526" 
d="M253 -117h-30l21 112q-77 6 -111 65.5t-15 157.5l55 282h30l-55 -282q-19 -92 12.5 -143t104.5 -51q161 0 197 187l56 289h31l-98 -500h-30l17 81q-58 -82 -164 -87z" />
    <glyph glyph-name="aacute.ss01" horiz-adv-x="511" 
d="M489 425l14 75h30l-97 -500h-30l14 70q-30 -41 -72 -58.5t-106 -17.5q-92 0 -131.5 56.5t-19.5 159.5l16 82q22 111 77.5 162.5t154.5 51.5q121 0 150 -81zM245 24q92 0 138 45t64 140l17 90q16 88 -13 132.5t-115 44.5q-84 0 -132.5 -45t-66.5 -139l-16 -82
q-36 -186 124 -186zM379 567h-30l111 158h35z" />
    <glyph glyph-name="agrave.ss01" horiz-adv-x="511" 
d="M489 425l14 75h30l-97 -500h-30l14 70q-30 -41 -72 -58.5t-106 -17.5q-92 0 -131.5 56.5t-19.5 159.5l16 82q22 111 77.5 162.5t154.5 51.5q121 0 150 -81zM245 24q92 0 138 45t64 140l17 90q16 88 -13 132.5t-115 44.5q-84 0 -132.5 -45t-66.5 -139l-16 -82
q-36 -186 124 -186zM311 725h35l49 -158h-30z" />
    <glyph glyph-name="afii10091.ss01" horiz-adv-x="782" 
d="M765 500h30l-92 -470h70l-28 -147h-30l22 117h-70l16 78q-49 -84 -153 -84q-101 0 -121 113q-30 -58 -71.5 -85.5t-103.5 -27.5q-75 0 -106 59.5t-10 164.5l55 282h30l-55 -282q-19 -94 5 -144t87 -50q136 0 172 185l57 291h30l-55 -282q-19 -94 5 -144t87 -50
q136 0 172 185z" />
    <glyph glyph-name="afii10090.ss01" horiz-adv-x="772" 
d="M765 500h30l-98 -500h-30l16 78q-49 -84 -153 -84q-101 0 -121 113q-30 -58 -71.5 -85.5t-103.5 -27.5q-75 0 -106 59.5t-10 164.5l55 282h30l-55 -282q-19 -94 5 -144t87 -50q136 0 172 185l57 291h30l-55 -282q-19 -94 5 -144t87 -50q136 0 172 185z" />
    <glyph glyph-name="afii10088.ss01" horiz-adv-x="536" 
d="M518 500h31l-92 -470h70l-28 -147h-30l22 117h-70l17 81q-61 -87 -176 -87q-85 0 -124.5 60t-19.5 164l55 282h30l-55 -282q-19 -92 12.5 -143t104.5 -51q161 0 197 187z" />
    <glyph glyph-name="uni2193.ss02" horiz-adv-x="846" 
d="M423 -103l-353 353l21 22l317 -318v671h30v-671l317 318l21 -22z" />
    <glyph glyph-name="egrave.ss01" 
d="M284 237h-158l-4 -23q-16 -90 18 -140t121 -50q92 0 154 68l22 -19q-69 -79 -182 -79q-93 0 -138 58.5t-26 157.5l16 82q40 214 242 214q68 0 110 -32.5t42 -84.5q0 -72 -56.5 -112t-160.5 -40zM137 292l-5 -25h158q86 0 133 31.5t47 88.5q0 42 -33 65.5t-93 23.5
q-82 0 -135 -47t-72 -137zM301 725h35l49 -158h-30z" />
    <glyph glyph-name="aring.ss01" horiz-adv-x="511" 
d="M489 425l14 75h30l-97 -500h-30l14 70q-30 -41 -72 -58.5t-106 -17.5q-92 0 -131.5 56.5t-19.5 159.5l16 82q22 111 77.5 162.5t154.5 51.5q121 0 150 -81zM245 24q92 0 138 45t64 140l17 90q16 88 -13 132.5t-115 44.5q-84 0 -132.5 -45t-66.5 -139l-16 -82
q-36 -186 124 -186zM275 646q0 46 32 78t77 32q46 0 78 -32t32 -78q0 -45 -32 -77t-78 -32q-45 0 -77 32t-32 77zM305 646q0 -32 23.5 -55.5t55.5 -23.5q34 0 57 23.5t23 55.5q0 34 -23 57t-57 23q-32 0 -55.5 -23t-23.5 -57z" />
    <glyph glyph-name="adieresis.ss01" horiz-adv-x="511" 
d="M489 425l14 75h30l-97 -500h-30l14 70q-30 -41 -72 -58.5t-106 -17.5q-92 0 -131.5 56.5t-19.5 159.5l16 82q22 111 77.5 162.5t154.5 51.5q121 0 150 -81zM245 24q92 0 138 45t64 140l17 90q16 88 -13 132.5t-115 44.5q-84 0 -132.5 -45t-66.5 -139l-16 -82
q-36 -186 124 -186zM517 690l-8 -44h-44l8 44h44zM307 690l-8 -44h-44l8 44h44z" />
    <glyph glyph-name="atilde.ss01" horiz-adv-x="511" 
d="M489 425l14 75h30l-97 -500h-30l14 70q-30 -41 -72 -58.5t-106 -17.5q-92 0 -131.5 56.5t-19.5 159.5l16 82q22 111 77.5 162.5t154.5 51.5q121 0 150 -81zM245 24q92 0 138 45t64 140l17 90q16 88 -13 132.5t-115 44.5q-84 0 -132.5 -45t-66.5 -139l-16 -82
q-36 -186 124 -186zM445 608q-26 0 -61 16q-36 17 -55 17q-38 0 -71 -33l-23 19q42 44 94 44q22 0 58 -17q35 -16 57 -16q41 0 70 33l23 -19q-38 -44 -92 -44z" />
    <glyph glyph-name="acircumflex.ss01" horiz-adv-x="511" 
d="M489 425l14 75h30l-97 -500h-30l14 70q-30 -41 -72 -58.5t-106 -17.5q-92 0 -131.5 56.5t-19.5 159.5l16 82q22 111 77.5 162.5t154.5 51.5q121 0 150 -81zM245 24q92 0 138 45t64 140l17 90q16 88 -13 132.5t-115 44.5q-84 0 -132.5 -45t-66.5 -139l-16 -82
q-36 -186 124 -186zM236 558l136 142h32l80 -142h-36l-64 113l-108 -113h-40z" />
    <glyph glyph-name="afii10084.ss01" horiz-adv-x="792" 
d="M105 0h-30l97 500h30l-15 -80q50 86 154 86q107 0 130 -113q59 113 177 113q77 0 110.5 -60t13.5 -164l-55 -282h-30l55 282q19 92 -7 143t-90 51q-141 0 -176 -177l-58 -299h-30l55 282q19 92 -7 143t-90 51q-141 0 -177 -185z" />
    </font>
</defs>
</svg>
