<?xml version="1.0" standalone="no"?>
<!DOCTYPE svg PUBLIC "-//W3C//DTD SVG 1.1//EN" "http://www.w3.org/Graphics/SVG/1.1/DTD/svg11.dtd" >
<svg xmlns="http://www.w3.org/2000/svg" xmlns:xlink="http://www.w3.org/1999/xlink" version="1.1">
<metadata>
Created by FontForge 20190801 at Sun Jan 31 02:57:07 2016
 By Jimmy Wärting
Copyright (c) 2014 ParaType Inc., ParaType Ltd. All rights reserved.
</metadata>
<defs>
<font id="DIN2014-Light" horiz-adv-x="526" >
  <font-face 
    font-family="DIN 2014"
    font-weight="300"
    font-stretch="normal"
    units-per-em="1000"
    panose-1="2 11 4 4 2 2 2 2 2 4"
    ascent="779"
    descent="-221"
    x-height="500"
    cap-height="690"
    bbox="-325 -271 3054 953"
    underline-thickness="50"
    underline-position="-250"
    unicode-range="U+0020-1F4F1"
  />
<missing-glyph horiz-adv-x="250" 
 />
    <glyph glyph-name="afii10017.var.accented" unicode="&#x410;`" horiz-adv-x="551" 
d="M130 168l-56 -168h-62l236 690h54l236 -690h-61l-57 168h-290zM402 222l-127 375l-127 -375h254zM310 757h-53l72 129h68z" />
    <glyph glyph-name="afii10022.var.accented" unicode="&#x415;`" horiz-adv-x="543" 
d="M90 0v690h406v-54h-348v-252h318v-54h-318v-276h348v-54h-406zM307 757h-53l72 129h68z" />
    <glyph glyph-name="afii10026.var.accented" unicode="&#x418;`" horiz-adv-x="656" 
d="M90 0v690h58v-576l368 576h50v-690h-58v573l-367 -573h-51zM343 757h-53l72 129h68z" />
    <glyph glyph-name="afii10032.var.accented" unicode="&#x41e;`" horiz-adv-x="600" 
d="M545 386v-82q0 -156 -63.5 -233t-181.5 -77t-181.5 77t-63.5 233v82q0 154 63.5 232t181.5 78t181.5 -78t63.5 -232zM113 386v-82q0 -256 187 -256t187 256v82q0 256 -187 256t-187 -256zM309 757h-53l72 129h68z" />
    <glyph glyph-name="afii10037.var.accented" unicode="&#x423;`" horiz-adv-x="577" 
d="M303 207l196 483h61l-235 -574q-30 -71 -69 -97q-37 -25 -123 -25v54q65 0 91 16q28 16 49 69l-246 557h64zM326 757h-53l72 129h68z" />
    <glyph glyph-name="afii10045.var.accented" unicode="&#x42b;`" horiz-adv-x="758" 
d="M90 0v690h58v-285h135q121 0 180 -60q58 -59 58 -143t-58 -143q-59 -59 -180 -59h-193zM283 351h-135v-297h135q87 0 133.5 40t46.5 108q0 69 -46.5 109t-133.5 40zM610 690h58v-690h-58v690zM394 757h-53l72 129h68z" />
    <glyph glyph-name="afii10047.var.accented" unicode="&#x42d;`" horiz-adv-x="580" 
d="M467 320h-284v54h284v12q0 133 -46.5 194.5t-140.5 61.5q-154 0 -186 -161h-57q15 106 79.5 160.5t163.5 54.5q245 0 245 -310v-82q0 -310 -245 -310q-98 0 -162.5 55t-79.5 162h56q33 -163 186 -163q94 0 140.5 60.5t46.5 195.5v16zM307 757h-53l72 129h68z" />
    <glyph glyph-name="afii10048.var.accented" unicode="&#x42e;`" horiz-adv-x="788" 
d="M733 391v-92q0 -305 -228 -305q-227 0 -227 305v31h-130v-330h-58v690h58v-306h130v7q0 305 227 305q228 0 228 -305zM336 391v-92q0 -131 42.5 -191t126.5 -60q85 0 127.5 60t42.5 191v92q0 131 -43 191t-127 60t-126.5 -60t-42.5 -191zM307 757h-53l72 129h68z" />
    <glyph glyph-name="afii10049.var.accented" unicode="&#x42f;`" horiz-adv-x="604" 
d="M35 0l160 305q-142 39 -142 186q0 96 64 147.5t182 51.5h215v-690h-58v293h-157q-26 0 -46 2l-153 -295h-65zM456 347v289h-157q-188 0 -188 -145q0 -144 188 -144h157zM337 757h-53l72 129h68z" />
    <glyph glyph-name="afii10023.var.accented" unicode="&#x401;`" horiz-adv-x="543" 
d="M90 0v690h406v-54h-348v-252h318v-54h-318v-276h348v-54h-406zM431 869v-67h-67v67h67zM221 869v-67h-67v67h67zM303 824h-53l72 129h68z" />
    <glyph glyph-name="afii10065.var.accented" unicode="&#x430;`" horiz-adv-x="486" 
d="M45 143q0 69 44.5 105t125.5 36h146v62q0 62 -27.5 85t-98.5 23q-55 0 -82.5 -11t-48.5 -46l-42 29q26 44 65.5 62t108.5 18q97 0 138.5 -36t41.5 -124v-346h-55v62q-36 -68 -142 -68q-83 0 -128.5 38.5t-45.5 110.5zM361 186v49h-146q-115 0 -115 -93q0 -96 119 -96
q71 0 106.5 32.5t35.5 107.5zM271 567h-53l75 158h66z" />
    <glyph glyph-name="afii10070.var.accented" unicode="&#x435;`" horiz-adv-x="484" 
d="M431 287v-51h-331v-21q0 -80 39 -125t113 -45q90 0 130 61l44 -31q-52 -81 -171 -81q-100 0 -155 58.5t-55 162.5v72q0 106 49.5 162.5t143.5 56.5t143.5 -56.5t49.5 -162.5zM100 287v-1h276v1q0 82 -35 125t-103 43t-103 -43t-35 -125zM252 567h-53l75 158h66z" />
    <glyph glyph-name="afii10074.var.accented" unicode="&#x438;`" horiz-adv-x="536" 
d="M70 500h55v-404l288 404h53v-500h-55v408l-289 -408h-52v500zM275 567h-53l75 158h66z" />
    <glyph glyph-name="afii10080.var.accented" unicode="&#x43e;`" horiz-adv-x="496" 
d="M451 287v-73q0 -105 -52.5 -162.5t-150.5 -57.5q-97 0 -150 57.5t-53 162.5v73q0 105 53 162t150 57t150 -57t53 -162zM396 214v73q0 82 -38.5 125t-109.5 43q-72 0 -110 -43t-38 -125v-73q0 -82 37.5 -125.5t110.5 -43.5q72 0 110 44t38 125zM257 567h-53l75 158h66z
" />
    <glyph glyph-name="afii10085.var.accented" unicode="&#x443;`" horiz-adv-x="459" 
d="M73 -190v54q59 0 84 25q28 25 53 97l2 6l-205 508h60l173 -428l148 428h58l-181 -520q-33 -97 -70 -133q-37 -37 -122 -37zM260 567h-53l75 158h66z" />
    <glyph glyph-name="afii10093.var.accented" unicode="&#x44b;`" horiz-adv-x="619" 
d="M125 500v-199h102q195 0 195 -149q0 -71 -45.5 -111.5t-135.5 -40.5h-171v500h55zM225 250h-100v-199h106q131 0 131 101q0 98 -137 98zM494 0v500h55v-500h-55zM325 567h-53l75 158h66z" />
    <glyph glyph-name="afii10095.var.accented" unicode="&#x44d;`" horiz-adv-x="459" 
d="M359 228h-217v51h217v8q0 81 -41 124.5t-115 43.5q-84 0 -125 -56l-44 30q56 77 169 77q100 0 155.5 -57t55.5 -162v-72q0 -106 -55 -163.5t-156 -57.5q-121 0 -170 81l44 31q39 -61 126 -61q77 0 116.5 45t39.5 125v13zM235 567h-53l75 158h66z" />
    <glyph glyph-name="afii10096.var.accented" unicode="&#x44e;`" horiz-adv-x="660" 
d="M428 -6q-91 0 -139.5 57.5t-48.5 163.5v13h-115v-228h-55v500h55v-221h115v8q0 106 48.5 162.5t139.5 56.5t139 -56.5t48 -162.5v-72q0 -106 -47.5 -163.5t-139.5 -57.5zM428 45q65 0 98.5 44t33.5 125v73q0 168 -132 168q-133 0 -133 -168v-73q0 -169 133 -169zM270 567
h-53l75 158h66z" />
    <glyph glyph-name="afii10097.var.accented" unicode="&#x44f;`" horiz-adv-x="500" 
d="M430 500v-500h-55v199h-119q-18 0 -23 1l-130 -200h-63l135 208q-117 32 -117 144q0 66 48.5 107t140.5 41h183zM258 250h117v199h-123q-134 0 -134 -98q0 -101 140 -101zM280 567h-53l75 158h66z" />
    <glyph glyph-name="afii10071.var.accented" unicode="&#x451;`" horiz-adv-x="484" 
d="M431 287v-51h-331v-21q0 -80 39 -125t113 -45q90 0 130 61l44 -31q-52 -81 -171 -81q-100 0 -155 58.5t-55 162.5v72q0 106 49.5 162.5t143.5 56.5t143.5 -56.5t49.5 -162.5zM100 287v-1h276v1q0 82 -35 125t-103 43t-103 -43t-35 -125zM377 690v-67h-67v67h67zM167 690
v-67h-67v67h67zM271 717h-53l75 158h66z" />
    <glyph glyph-name="fi" unicode="fi" horiz-adv-x="465" 
d="M375 0h-55v449h-175v-449h-55v449h-64v51h64v36q0 83 31.5 118.5t110.5 35.5h23v-53h-20q-55 0 -72.5 -23.5t-17.5 -87.5v-26h230v-500z" />
    <glyph glyph-name="fl" unicode="fl" horiz-adv-x="510" 
d="M320 154v483h-85q-55 0 -72.5 -23.5t-17.5 -87.5v-26h110v-51h-110v-449h-55v449h-64v51h64v36q0 83 31.5 118.5t110.5 35.5h143v-526q0 -63 19 -87.5t76 -24.5v-52q-83 0 -116.5 36t-33.5 118z" />
    <glyph glyph-name=".notdef" horiz-adv-x="250" 
 />
    <glyph glyph-name=".null" horiz-adv-x="0" 
 />
    <glyph glyph-name="nonmarkingreturn" horiz-adv-x="333" 
 />
    <glyph glyph-name="space" unicode=" " horiz-adv-x="250" 
 />
    <glyph glyph-name="exclam" unicode="!" horiz-adv-x="208" 
d="M75 690h58v-516h-58v516zM138 0h-68v68h68v-68z" />
    <glyph glyph-name="quotedbl" unicode="&#x22;" horiz-adv-x="291" 
d="M46 690h58v-169h-58v169zM182 690h58v-169h-58v169z" />
    <glyph glyph-name="numbersign" unicode="#" horiz-adv-x="580" 
d="M15 428v54h137l39 208h59l-39 -208h178l39 208h60l-39 -208h119v-54h-129l-29 -156h121v-54h-131l-41 -218h-59l40 218h-178l-40 -218h-60l41 218h-125v54h135l29 156h-127zM379 428h-178l-29 -156h178z" />
    <glyph glyph-name="dollar" unicode="$" horiz-adv-x="490" 
d="M456 583l-47 -32q-28 44 -57 64t-78 25v-271q101 -24 147.5 -68.5t46.5 -126.5q0 -70 -47 -122q-47 -51 -147 -57v-111h-52v111q-131 7 -202 112l47 32q34 -45 67.5 -65.5t87.5 -24.5v275q-187 43 -187 194q0 78 47 125t140 52v117h52v-117q63 -5 106 -32t76 -80z
M410 172q0 56 -31 89.5t-105 51.5v-264q136 9 136 123zM93 518q0 -55 31.5 -86t97.5 -50v259q-129 -7 -129 -123z" />
    <glyph glyph-name="percent" unicode="%" horiz-adv-x="718" 
d="M130 0l386 690h59l-385 -690h-60zM162 387q46 0 69.5 28.5t23.5 78.5v52q0 51 -24 78t-69 27q-44 0 -68 -27t-24 -78v-52q0 -107 92 -107zM162 342q-67 0 -103 39.5t-36 112.5v53q0 72 36.5 111t102.5 39t102.5 -39t36.5 -111v-53q0 -73 -35.5 -112.5t-103.5 -39.5z
M554 39q46 0 69.5 28.5t23.5 78.5v52q0 51 -24 78t-69 27q-44 0 -68 -27t-24 -78v-52q0 -107 92 -107zM554 -6q-67 0 -103 39.5t-36 112.5v53q0 72 36.5 111t102.5 39t102.5 -39t36.5 -111v-53q0 -73 -35.5 -112.5t-103.5 -39.5z" />
    <glyph glyph-name="ampersand" unicode="&#x26;" horiz-adv-x="651" 
d="M47 182q0 63 33 110.5t101 95.5q-74 88 -74 160q0 67 42.5 107.5t110.5 40.5q72 0 110 -36t38 -93q0 -60 -48 -105q-27 -27 -43 -39l-56 -40l196 -219q39 69 39 158h54q0 -112 -55 -200l109 -122h-77l-68 76q-76 -82 -199 -82q-103 0 -158 55t-55 133zM260 48
q101 0 163 68l-209 234q-56 -41 -83.5 -80t-27.5 -87q0 -62 42.5 -98.5t114.5 -36.5zM165 548q0 -58 62 -128q45 32 62 45q61 48 61 99q0 34 -23.5 56t-66.5 22t-69 -25t-26 -69z" />
    <glyph glyph-name="quotesingle" unicode="'" horiz-adv-x="153" 
d="M46 690h58v-169h-58v169z" />
    <glyph glyph-name="parenleft" unicode="(" horiz-adv-x="301" 
d="M271 -72l-34 -44q-100 74 -131 132t-31 146v372q0 88 31 146t131 132l34 -44q-87 -68 -114 -118q-27 -51 -27 -135v-334q0 -85 27 -136t114 -117z" />
    <glyph glyph-name="parenright" unicode=")" horiz-adv-x="301" 
d="M64 -116l-34 44q87 66 114 117t27 136v334q0 84 -27 135q-27 50 -114 118l34 44q98 -73 130 -132t32 -146v-372q0 -87 -32 -146t-130 -132z" />
    <glyph glyph-name="asterisk" unicode="*" horiz-adv-x="432" 
d="M187 685h49l-3 -133l113 69l25 -42l-116 -64l116 -63l-25 -43l-113 69l3 -132h-49l3 131l-113 -68l-24 43l116 63l-116 64l24 42l113 -69z" />
    <glyph glyph-name="plus" unicode="+" horiz-adv-x="490" 
d="M219 328h-163v51h163v165h51v-165h165v-51h-165v-163h-51v163z" />
    <glyph glyph-name="comma" unicode="," horiz-adv-x="198" 
d="M65 78h68v-143l-68 -59v202z" />
    <glyph glyph-name="hyphen" unicode="-" horiz-adv-x="309" 
d="M279 263h-249v51h249v-51z" />
    <glyph glyph-name="period" unicode="." horiz-adv-x="211" 
d="M65 81h81v-81h-81v81z" />
    <glyph glyph-name="slash" unicode="/" horiz-adv-x="464" 
d="M436 812l-336 -928h-54l336 928h54z" />
    <glyph glyph-name="zero" unicode="0" horiz-adv-x="490" 
d="M438 497v-304q0 -92 -56 -146q-56 -53 -137 -53q-82 0 -138 53q-55 54 -55 147v302q0 94 55 146q55 54 138 54q81 0 137 -54q56 -53 56 -145zM380 193v304q0 65 -38 105t-97 40q-60 0 -98 -40t-38 -105v-304q0 -65 38 -105t98 -40q59 0 97 40t38 105z" />
    <glyph glyph-name="one" unicode="1" horiz-adv-x="490" 
d="M233 690h58v-690h-58v620l-99 -71v65z" />
    <glyph glyph-name="two" unicode="2" horiz-adv-x="490" 
d="M124 54h317v-54h-395v48l248 292q49 59 70 97t21 74q0 62 -40 96q-41 35 -95 35q-59 0 -96.5 -35t-39.5 -96h-57q0 83 55 134q56 51 138 51q83 0 138 -52q55 -51 55 -137q0 -28 -9 -52q-15 -37 -23 -49q-19 -29 -32 -46l-17 -21q-9 -12 -19 -23l-17 -21z" />
    <glyph glyph-name="three" unicode="3" horiz-adv-x="490" 
d="M226 329h-38v54h38q153 0 153 133q0 54 -38 90t-97 36q-57 0 -95 -34.5t-40 -87.5h-57q0 79 56 127q56 49 136 49q85 0 138 -52q55 -51 55 -129q0 -58 -29.5 -98.5t-81.5 -59.5q56 -19 88.5 -63.5t32.5 -106.5q0 -83 -54 -138t-142 -55q-92 0 -147.5 49.5t-60.5 131.5h57
q7 -60 45 -93.5t106 -33.5q58 0 98 38q40 39 40 99q0 69 -42.5 106.5t-120.5 37.5z" />
    <glyph glyph-name="four" unicode="4" horiz-adv-x="490" 
d="M28 167l247 523h59l-238 -512h241v215h58v-215h69v-54h-69v-124h-58v124h-309v43z" />
    <glyph glyph-name="five" unicode="5" horiz-adv-x="490" 
d="M243 410q-77 0 -120 -79h-52v359h340v-58h-284v-224q43 60 125 60q188 0 188 -252q0 -105 -51 -163.5t-146 -58.5q-78 0 -130 49q-54 51 -58 121h57q7 -53 43 -84.5t88 -31.5q139 0 139 168q0 194 -139 194z" />
    <glyph glyph-name="six" unicode="6" horiz-adv-x="490" 
d="M255 402q82 0 133 -57t51 -145q0 -92 -54 -149t-140 -57q-84 0 -140 56q-54 57 -54 147q0 5 3 32q5 28 12 49q6 19 12 32l6 15q1 2 7 16t6 15l143 334h65l-138 -312q36 24 88 24zM109 200q0 -70 37 -111t99 -41q61 0 98.5 41.5t37.5 110.5q0 67 -38 108.5t-98 41.5
q-61 0 -98.5 -41t-37.5 -109z" />
    <glyph glyph-name="seven" unicode="7" horiz-adv-x="490" 
d="M115 636v-130h-54v184h378v-54l-228 -636h-62l229 636h-263z" />
    <glyph glyph-name="eight" unicode="8" horiz-adv-x="490" 
d="M105 188q0 -60 40 -100t100 -40q58 0 99 41t41 99q0 59 -42 100q-43 41 -98 41q-56 0 -99 -41q-41 -41 -41 -100zM245 382q54 0 92 38t38 92t-38 92t-92 38q-55 0 -93 -38q-37 -37 -37 -92t37 -92q38 -38 93 -38zM47 188q0 56 31 102t79 67q-45 21 -72.5 63t-27.5 92
q0 79 55 131q56 53 133 53q76 0 132 -53t56 -131q0 -50 -28 -92t-73 -63q49 -21 80 -67t31 -102q0 -83 -59 -139q-58 -55 -139 -55q-82 0 -140 55t-58 139z" />
    <glyph glyph-name="nine" unicode="9" horiz-adv-x="490" 
d="M236 288q-83 0 -134 57t-51 145q0 92 54 149t140 57q85 0 139 -57q55 -55 55 -146q0 -5 -3 -32q-5 -28 -12 -49q-6 -19 -12 -32l-6 -15q-1 -2 -7 -16t-6 -15l-143 -334h-65l137 312q-34 -24 -86 -24zM381 490q0 69 -37 110.5t-99 41.5q-61 0 -98.5 -41.5t-37.5 -110.5
q0 -68 37.5 -109t98.5 -41q62 0 99 41t37 109z" />
    <glyph glyph-name="colon" unicode=":" horiz-adv-x="198" 
d="M65 73h68v-73h-68v73zM65 500h68v-73h-68v73z" />
    <glyph glyph-name="semicolon" unicode=";" horiz-adv-x="198" 
d="M65 68h68v-143l-68 -59v202zM65 500h68v-73h-68v73z" />
    <glyph glyph-name="less" unicode="&#x3c;" horiz-adv-x="431" 
d="M368 565v-63l-255 -148l255 -147v-63l-315 183v55z" />
    <glyph glyph-name="equal" unicode="=" horiz-adv-x="490" 
d="M439 410h-389v51h389v-51zM439 246h-389v51h389v-51z" />
    <glyph glyph-name="greater" unicode="&#x3e;" horiz-adv-x="431" 
d="M53 207l256 147l-256 148v63l315 -183v-55l-315 -183v63z" />
    <glyph glyph-name="question" unicode="?" horiz-adv-x="487" 
d="M270 221v-47h-55v67q0 50 32 79l48 43q48 43 67.5 75.5t19.5 72.5q0 62 -40 96q-41 35 -95 35q-59 0 -96.5 -35t-39.5 -96h-57q0 83 55 134t138 51t138 -52q55 -51 55 -137q0 -39 -19 -76q-18 -38 -37 -57q-26 -28 -49 -49l-36 -33q-17 -15 -23 -29.5t-6 -41.5zM277 0
h-68v68h68v-68z" />
    <glyph glyph-name="at" unicode="@" horiz-adv-x="898" 
d="M560 484h55v-259q0 -63 20 -89.5t59 -26.5q51 0 77.5 44.5t26.5 122.5q0 91 -30.5 163t-83.5 113q-101 82 -235 82q-81 0 -149.5 -30.5t-112.5 -82.5q-87 -106 -87 -245q0 -83 29 -153t80 -115q106 -89 248 -89q133 0 225 54l23 -41q-32 -24 -98 -43q-67 -21 -153 -21
q-162 0 -282 104q-59 52 -93 131t-34 173q0 184 119 297q119 112 285 112q108 0 199 -47q90 -46 148 -142q57 -95 57 -220q0 -99 -41.5 -158.5t-118.5 -59.5q-88 0 -116 73q-30 -73 -138 -73q-80 0 -121.5 49.5t-41.5 137.5v58q0 91 42 138.5t121 47.5q83 0 121 -47v42z
M446 109q62 0 88 33t26 105v54q0 71 -27 104t-87 33t-87.5 -33t-27.5 -104v-54q0 -138 115 -138z" />
    <glyph glyph-name="A" unicode="A" horiz-adv-x="551" 
d="M130 168l-56 -168h-62l236 690h54l236 -690h-61l-57 168h-290zM402 222l-127 375l-127 -375h254z" />
    <glyph glyph-name="B" unicode="B" horiz-adv-x="596" 
d="M90 0v690h204q235 0 235 -175q0 -56 -33.5 -99.5t-85.5 -55.5q67 -15 104 -58.5t37 -109.5q0 -80 -57 -136q-58 -56 -176 -56h-228zM299 331h-151v-277h170q85 0 130 37t45 101q0 139 -194 139zM294 636h-146v-251h164q78 0 118.5 35.5t40.5 94.5q0 60 -41 90.5
t-136 30.5z" />
    <glyph glyph-name="C" unicode="C" horiz-adv-x="580" 
d="M543 481h-57q-32 161 -186 161q-94 0 -140.5 -61.5t-46.5 -194.5v-82q0 -135 46.5 -195.5t140.5 -60.5q153 0 186 163h56q-15 -107 -79.5 -162t-162.5 -55q-245 0 -245 310v82q0 310 245 310q99 0 163.5 -54.5t79.5 -160.5z" />
    <glyph glyph-name="D" unicode="D" horiz-adv-x="605" 
d="M300 0h-210v690h210q124 0 187 -73t63 -231v-82q0 -158 -63 -231t-187 -73zM148 54h152q97 0 144.5 58.5t47.5 191.5v82q0 133 -47 191.5t-145 58.5h-152v-582z" />
    <glyph glyph-name="E" unicode="E" horiz-adv-x="543" 
d="M90 0v690h406v-54h-348v-252h318v-54h-318v-276h348v-54h-406z" />
    <glyph glyph-name="F" unicode="F" horiz-adv-x="536" 
d="M90 0v690h406v-54h-348v-268h318v-54h-318v-314h-58z" />
    <glyph glyph-name="G" unicode="G" horiz-adv-x="604" 
d="M303 283v54h246v-28q0 -158 -64 -236.5t-185 -78.5q-245 0 -245 310v82q0 310 245 310q99 0 163.5 -54.5t79.5 -160.5h-57q-32 161 -186 161q-94 0 -140.5 -61.5t-46.5 -194.5v-82q0 -133 46.5 -194.5t140.5 -61.5q183 0 190 235h-187z" />
    <glyph glyph-name="H" unicode="H" horiz-adv-x="638" 
d="M90 690h58v-305h342v305h58v-690h-58v331h-342v-331h-58v690z" />
    <glyph glyph-name="I" unicode="I" horiz-adv-x="258" 
d="M100 690h58v-690h-58v690z" />
    <glyph glyph-name="J" unicode="J" horiz-adv-x="505" 
d="M10 80l50 28q45 -60 128 -60q88 0 128.5 57t40.5 181v404h58v-404q0 -292 -227 -292q-124 0 -178 86z" />
    <glyph glyph-name="K" unicode="K" horiz-adv-x="619" 
d="M327 414l285 -414h-70l-254 368l-140 -166v-202h-58v690h58v-401l337 401h76z" />
    <glyph glyph-name="L" unicode="L" horiz-adv-x="501" 
d="M90 690h58v-636h348v-54h-406v690z" />
    <glyph glyph-name="M" unicode="M" horiz-adv-x="752" 
d="M90 690h56l230 -459l229 459h57v-690h-58v563l-203 -409h-52l-201 408v-562h-58v690z" />
    <glyph glyph-name="N" unicode="N" horiz-adv-x="638" 
d="M490 111v579h58v-690h-56l-344 574v-574h-58v690h55z" />
    <glyph glyph-name="O" unicode="O" horiz-adv-x="600" 
d="M545 386v-82q0 -156 -63.5 -233t-181.5 -77t-181.5 77t-63.5 233v82q0 154 63.5 232t181.5 78t181.5 -78t63.5 -232zM113 386v-82q0 -256 187 -256t187 256v82q0 256 -187 256t-187 -256z" />
    <glyph glyph-name="P" unicode="P" horiz-adv-x="587" 
d="M300 273h-152v-273h-58v690h210q119 0 185 -55t66 -154q0 -98 -66 -153t-185 -55zM148 636v-309h152q193 0 193 154q0 155 -193 155h-152z" />
    <glyph glyph-name="Q" unicode="Q" horiz-adv-x="600" 
d="M545 386v-82q0 -125 -42 -200l91 -86l-36 -38l-86 80q-63 -66 -172 -66q-118 0 -181.5 77t-63.5 233v82q0 154 63.5 232t181.5 78t181.5 -78t63.5 -232zM113 386v-82q0 -256 187 -256q85 0 130 51l-116 109l38 40l108 -103q27 61 27 159v82q0 256 -187 256t-187 -256z
" />
    <glyph glyph-name="R" unicode="R" horiz-adv-x="604" 
d="M409 305l160 -305h-65l-153 295q-20 -2 -46 -2h-157v-293h-58v690h215q118 0 182 -51.5t64 -147.5q0 -147 -142 -186zM148 636v-289h157q188 0 188 144q0 145 -188 145h-157z" />
    <glyph glyph-name="S" unicode="S" horiz-adv-x="569" 
d="M506 583l-46 -33q-62 92 -179 92q-76 0 -117 -31.5t-41 -92.5q0 -67 44 -97q47 -30 135 -49q111 -24 163 -66q53 -41 53 -132q0 -74 -56 -127t-171 -53q-164 0 -241 113l47 33q38 -48 81.5 -70t112.5 -22q84 0 126.5 33.5t42.5 90.5q0 62 -40.5 95.5t-137.5 52.5
q-109 21 -163 67.5t-54 130.5q0 81 55.5 129.5t162.5 48.5q152 0 223 -113z" />
    <glyph glyph-name="T" unicode="T" horiz-adv-x="516" 
d="M10 636v54h496v-54h-219v-636h-58v636h-219z" />
    <glyph glyph-name="U" unicode="U" horiz-adv-x="670" 
d="M90 282v408h58v-408q0 -234 187 -234t187 234v408h58v-408q0 -145 -63 -216.5t-182 -71.5t-182 71.5t-63 216.5z" />
    <glyph glyph-name="V" unicode="V" horiz-adv-x="574" 
d="M260 0l-250 690h63l213 -596l215 596h63l-250 -690h-54z" />
    <glyph glyph-name="W" unicode="W" horiz-adv-x="819" 
d="M179 0l-169 690h60l139 -582l170 582h59l174 -573l137 573h60l-169 -690h-62l-169 586l-169 -586h-61z" />
    <glyph glyph-name="X" unicode="X" horiz-adv-x="552" 
d="M276 301l-184 -301h-65l215 357l-196 333h65l165 -280l164 280h66l-197 -333l216 -357h-66z" />
    <glyph glyph-name="Y" unicode="Y" horiz-adv-x="536" 
d="M239 302l-224 388h68l185 -324l185 324h68l-224 -388v-302h-58v302z" />
    <glyph glyph-name="Z" unicode="Z" horiz-adv-x="514" 
d="M32 636v54h439v-43l-365 -593h375v-54h-449v43l365 593h-365z" />
    <glyph glyph-name="bracketleft" unicode="[" horiz-adv-x="305" 
d="M252 -81h-175v852h175v-51h-120v-750h120v-51z" />
    <glyph glyph-name="backslash" unicode="\" horiz-adv-x="464" 
d="M374 -116l-336 928h55l336 -928h-55z" />
    <glyph glyph-name="bracketright" unicode="]" horiz-adv-x="305" 
d="M52 720v51h175v-852h-175v51h120v750h-120z" />
    <glyph glyph-name="asciicircum" unicode="^" horiz-adv-x="454" 
d="M12 437l174 253h63l175 -253h-64l-142 209l-142 -209h-64z" />
    <glyph glyph-name="underscore" unicode="_" 
d="M0 -139v46h526v-46h-526z" />
    <glyph glyph-name="grave" unicode="`" horiz-adv-x="279" 
d="M69 725h65l75 -158h-52z" />
    <glyph glyph-name="a" unicode="a" horiz-adv-x="486" 
d="M45 143q0 69 44.5 105t125.5 36h146v62q0 62 -27.5 85t-98.5 23q-55 0 -82.5 -11t-48.5 -46l-42 29q26 44 65.5 62t108.5 18q97 0 138.5 -36t41.5 -124v-346h-55v62q-36 -68 -142 -68q-83 0 -128.5 38.5t-45.5 110.5zM361 186v49h-146q-115 0 -115 -93q0 -96 119 -96
q71 0 106.5 32.5t35.5 107.5z" />
    <glyph glyph-name="b" unicode="b" horiz-adv-x="516" 
d="M70 690h55v-253q43 69 151 69q93 0 144 -57t51 -162v-72q0 -106 -50 -163.5t-145 -57.5q-110 0 -151 65v-59h-55v690zM272 45q70 0 107 44.5t37 125.5v72q0 82 -36.5 125t-107.5 43q-147 0 -147 -162v-87q2 -161 147 -161z" />
    <glyph glyph-name="c" unicode="c" horiz-adv-x="443" 
d="M382 106l44 -31q-50 -81 -170 -81q-101 0 -156 57.5t-55 163.5v72q0 105 55.5 162t155.5 57q113 0 169 -77l-44 -30q-41 56 -125 56q-74 0 -115 -43.5t-41 -124.5v-72q0 -80 39.5 -125t116.5 -45q87 0 126 61z" />
    <glyph glyph-name="d" unicode="d" horiz-adv-x="516" 
d="M391 435v255h55v-690h-55v61q-40 -67 -151 -67q-95 0 -145 57.5t-50 163.5v72q0 105 51 162t144 57q109 0 151 -71zM244 45q147 0 147 169v72q0 169 -147 169q-71 0 -107.5 -43t-36.5 -125v-72q0 -82 36.5 -126t107.5 -44z" />
    <glyph glyph-name="e" unicode="e" horiz-adv-x="484" 
d="M431 287v-51h-331v-21q0 -80 39 -125t113 -45q90 0 130 61l44 -31q-52 -81 -171 -81q-100 0 -155 58.5t-55 162.5v72q0 106 49.5 162.5t143.5 56.5t143.5 -56.5t49.5 -162.5zM100 287v-1h276v1q0 82 -35 125t-103 43t-103 -43t-35 -125z" />
    <glyph glyph-name="f" unicode="f" horiz-adv-x="285" 
d="M26 449v51h64v36q0 83 31.5 118.5t110.5 35.5h23v-53h-22q-55 0 -72 -26q-16 -25 -16 -89v-22h110v-51h-110v-449h-55v449h-64z" />
    <glyph glyph-name="g" unicode="g" horiz-adv-x="516" 
d="M45 215v72q0 105 51 162t144 57q109 0 151 -71v65h55v-480q0 -104 -53.5 -160t-150.5 -56q-116 0 -166 81l43 31q37 -61 126 -61q72 0 109 43.5t37 121.5v41q-40 -67 -151 -67q-95 0 -145 57.5t-50 163.5zM244 45q147 0 147 169v79q0 162 -147 162q-71 0 -107.5 -43
t-36.5 -125v-72q0 -82 36.5 -126t107.5 -44z" />
    <glyph glyph-name="h" unicode="h" 
d="M125 0h-55v690h55v-258q42 74 147 74q87 0 135.5 -54t48.5 -156v-296h-55v295q0 80 -35.5 119.5t-99.5 39.5q-68 0 -104.5 -41t-36.5 -113v-300z" />
    <glyph glyph-name="i" unicode="i" horiz-adv-x="225" 
d="M140 0h-55v500h55v-500zM146 623h-67v67h67v-67z" />
    <glyph glyph-name="j" unicode="j" horiz-adv-x="225" 
d="M95 500h55v-536q0 -82 -33.5 -118t-116.5 -36v52q62 0 78 28q17 28 17 92v518zM156 623h-67v67h67v-67z" />
    <glyph glyph-name="k" unicode="k" horiz-adv-x="489" 
d="M125 249l246 251h72l-214 -221l248 -279h-72l-216 238l-64 -66v-172h-55v690h55v-441z" />
    <glyph glyph-name="l" unicode="l" horiz-adv-x="268" 
d="M70 152v538h55v-524q0 -64 19 -90t76 -26v-52q-83 0 -116.5 36t-33.5 118z" />
    <glyph glyph-name="m" unicode="m" horiz-adv-x="797" 
d="M125 0h-55v500h55v-68q35 74 132 74q108 0 149 -98q44 98 152 98q81 0 125 -54.5t44 -155.5v-296h-55v295q0 78 -31.5 118.5t-88.5 40.5q-59 0 -92.5 -40t-33.5 -107v-307h-55v295q0 78 -31.5 118.5t-88.5 40.5q-60 0 -93 -41t-33 -113v-300z" />
    <glyph glyph-name="n" unicode="n" 
d="M125 0h-55v500h55v-68q41 74 147 74q87 0 135.5 -54t48.5 -156v-296h-55v295q0 80 -35.5 119.5t-99.5 39.5q-68 0 -104.5 -41t-36.5 -113v-300z" />
    <glyph glyph-name="o" unicode="o" horiz-adv-x="496" 
d="M451 287v-73q0 -105 -52.5 -162.5t-150.5 -57.5q-97 0 -150 57.5t-53 162.5v73q0 105 53 162t150 57t150 -57t53 -162zM396 214v73q0 82 -38.5 125t-109.5 43q-72 0 -110 -43t-38 -125v-73q0 -82 37.5 -125.5t110.5 -43.5q72 0 110 44t38 125z" />
    <glyph glyph-name="p" unicode="p" horiz-adv-x="516" 
d="M471 287v-72q0 -106 -50 -163.5t-145 -57.5q-110 0 -151 65v-249h-55v690h55v-63q43 69 151 69q93 0 144 -57t51 -162zM272 45q70 0 107 44.5t37 125.5v72q0 82 -36.5 125t-107.5 43q-147 0 -147 -162v-87q2 -161 147 -161z" />
    <glyph glyph-name="q" unicode="q" horiz-adv-x="516" 
d="M45 215v72q0 105 51 162t144 57q109 0 151 -71v65h55v-690h-55v251q-40 -67 -151 -67q-95 0 -145 57.5t-50 163.5zM244 45q147 0 147 161v87q0 162 -147 162q-71 0 -107.5 -43t-36.5 -125v-72q0 -82 36.5 -126t107.5 -44z" />
    <glyph glyph-name="r" unicode="r" horiz-adv-x="387" 
d="M246 454q-57 0 -89 -41.5t-32 -111.5v-301h-55v500h55v-68q35 74 126 74q89 0 141 -69l-46 -34q-39 51 -100 51z" />
    <glyph glyph-name="s" unicode="s" horiz-adv-x="461" 
d="M398 423l-42 -30q-24 34 -53.5 47.5t-82.5 13.5q-55 0 -86.5 -21t-31.5 -61q0 -45 31.5 -64.5t101.5 -28.5q77 -10 124 -38q54 -31 54 -109q0 -65 -45.5 -101.5t-137.5 -36.5q-129 0 -188 83l43 30q24 -33 57 -47t89 -14q127 0 127 85q0 45 -34.5 67t-114.5 32t-121 42.5
t-41 98.5q0 63 45.5 99t128.5 36q126 0 177 -83z" />
    <glyph glyph-name="t" unicode="t" horiz-adv-x="308" 
d="M90 449h-64v51h64v110h55v-110h123v-51h-123v-280q0 -66 16 -91t74 -25h33v-53h-35q-80 0 -111.5 35.5t-31.5 118.5v295z" />
    <glyph glyph-name="u" unicode="u" 
d="M401 500h55v-500h-55v67q-42 -73 -148 -73q-87 0 -135 53.5t-48 156.5v296h55v-296q0 -79 35.5 -118.5t98.5 -39.5q68 0 105 41t37 113v300z" />
    <glyph glyph-name="v" unicode="v" horiz-adv-x="480" 
d="M240 73l169 427h61l-202 -500h-54l-204 500h61z" />
    <glyph glyph-name="w" unicode="w" horiz-adv-x="701" 
d="M546 0h-49l-147 412l-146 -412h-49l-145 500h58l114 -399l143 399h47l146 -400l115 400h58z" />
    <glyph glyph-name="x" unicode="x" horiz-adv-x="452" 
d="M258 256l179 -256h-66l-145 208l-146 -208h-65l179 256l-164 244h65l131 -197l130 197h66z" />
    <glyph glyph-name="y" unicode="y" horiz-adv-x="459" 
d="M73 -190v54q59 0 84 25q28 25 53 97l2 6l-205 508h60l173 -428l148 428h58l-181 -520q-33 -97 -70 -133q-37 -37 -122 -37z" />
    <glyph glyph-name="z" unicode="z" horiz-adv-x="449" 
d="M45 0v43l287 406h-287v51h359v-43l-285 -406h285v-51h-359z" />
    <glyph glyph-name="braceleft" unicode="{" horiz-adv-x="316" 
d="M159 630v-214q0 -57 -40 -70q40 -13 40 -70v-215q0 -61 24.5 -83t81.5 -22h16v-51h-13q-83 0 -124 32q-40 31 -40 123v208q0 28 -11.5 40t-38.5 12h-19v51h19q27 0 38.5 12t11.5 40v209q0 92 40 123q41 32 124 32h13v-51h-16q-58 0 -82 -22t-24 -84z" />
    <glyph glyph-name="bar" unicode="|" horiz-adv-x="227" 
d="M85 812h52v-928h-52v928z" />
    <glyph glyph-name="braceright" unicode="}" horiz-adv-x="316" 
d="M157 416v214q0 62 -24 84t-82 22h-16v51h7q89 0 129 -31q41 -32 41 -124v-193q0 -39 10 -53.5t40 -14.5h19v-51h-19q-27 0 -38.5 -12t-11.5 -40v-208q0 -96 -43 -126t-134 -29v51h16q57 0 81.5 22t24.5 83v215q0 55 40 70q-40 15 -40 70z" />
    <glyph glyph-name="asciitilde" unicode="~" horiz-adv-x="490" 
d="M329 286q-42 0 -91 24q-50 24 -78 24q-66 0 -107 -50l-40 33q60 68 147 68q40 0 90 -24t79 -24q65 0 107 49l40 -33q-58 -67 -147 -67z" />
    <glyph glyph-name="uni00A0" unicode="&#xa0;" horiz-adv-x="250" 
 />
    <glyph glyph-name="exclamdown" unicode="&#xa1;" horiz-adv-x="216" 
d="M65 326h58v-516h-58v516zM60 500h68v-68h-68v68z" />
    <glyph glyph-name="cent" unicode="&#xa2;" horiz-adv-x="490" 
d="M293 -5v-111h-52v111q-88 8 -136 65t-48 155v72q0 98 48 154t136 64v117h52v-117q95 -9 144 -76l-44 -30q-41 56 -125 56q-74 0 -115 -43.5t-41 -124.5v-72q0 -80 39.5 -125t116.5 -45q87 0 126 61l44 -31q-47 -73 -145 -80z" />
    <glyph glyph-name="sterling" unicode="&#xa3;" horiz-adv-x="490" 
d="M443 0h-404v54h71v288h-71v54h71v43q0 257 185 257q101 0 159 -76l-49 -31q-44 53 -110 53q-68 0 -97.5 -48.5t-29.5 -154.5v-43h156v-54h-156v-288h275v-54z" />
    <glyph glyph-name="currency" unicode="&#xa4;" horiz-adv-x="637" 
d="M69 366q0 86 53 156l-80 81l39 39l80 -80q67 55 157 55q87 0 157 -56l81 81l39 -39l-81 -81q55 -70 55 -156q0 -87 -55 -157l81 -81l-39 -39l-81 82q-67 -55 -157 -55t-157 54l-80 -80l-39 39l81 81q-54 68 -54 156zM182 504q-55 -56 -55 -138t55 -138q56 -56 136 -56
q81 0 137 56q56 58 56 138t-56 138q-55 57 -137 57q-80 0 -136 -57z" />
    <glyph glyph-name="yen" unicode="&#xa5;" horiz-adv-x="490" 
d="M47 158v54h164v90h-164v54h132l-156 334h64l153 -331l161 331h65l-167 -334h134v-54h-164v-90h164v-54h-164v-158h-58v158h-164z" />
    <glyph glyph-name="brokenbar" unicode="&#xa6;" horiz-adv-x="278" 
d="M117 243h58v-243h-58v243zM117 690h58v-243h-58v243z" />
    <glyph glyph-name="section" unicode="&#xa7;" horiz-adv-x="502" 
d="M84 -52h58q7 -85 107 -85q53 0 81.5 23t28.5 64q0 40 -30.5 63.5t-104.5 44.5q-82 22 -126 65q-43 42 -43 127q0 63 32 106.5t90 60.5q-100 42 -100 131q0 63 46.5 103t121.5 40q79 0 121 -36.5t44 -102.5h-58q-7 85 -107 85q-110 0 -110 -87q0 -41 30 -64.5t105 -44.5
q82 -22 126 -65q43 -40 43 -126q0 -64 -32.5 -108t-90.5 -60q101 -41 101 -131q0 -63 -46.5 -102.5t-121.5 -39.5q-79 0 -121 36.5t-44 102.5zM381 250v6q-2 57 -38 88.5t-96 31.5q-61 0 -98 -33q-36 -31 -36 -93q0 -61 36 -94q38 -32 98 -32q62 0 98 33t36 93z" />
    <glyph glyph-name="dieresis" unicode="&#xa8;" horiz-adv-x="385" 
d="M331 690v-67h-67v67h67zM121 690v-67h-67v67h67z" />
    <glyph glyph-name="copyright" unicode="&#xa9;" horiz-adv-x="977" 
d="M173 -62q-128 128 -128 312t128 312q130 128 312 128q183 0 311 -128q129 -128 129 -312t-129 -312q-128 -128 -311 -128q-182 0 -312 128zM212 526q-112 -112 -112 -276t112 -276q112 -114 273 -114t273 114q112 112 112 276t-112 276q-113 113 -273 113t-273 -113z
M620 106l43 -31q-49 -81 -170 -81q-101 0 -156 57.5t-55 163.5v72q0 105 55.5 162t155.5 57q115 0 169 -77l-44 -30q-41 56 -125 56q-74 0 -115 -43.5t-41 -124.5v-72q0 -80 39.5 -125t116.5 -45q88 0 127 61z" />
    <glyph glyph-name="ordfeminine" unicode="&#xaa;" horiz-adv-x="316" 
d="M30 466q0 92 113 92h82v28q0 37 -17.5 51.5t-59.5 14.5q-31 0 -48.5 -8t-29.5 -31l-33 24q31 55 112 55q60 0 89 -24t29 -77v-217h-42v37q-26 -41 -87 -41q-52 0 -80 25t-28 71zM225 495v25h-79q-41 0 -57.5 -13t-16.5 -43q0 -55 69 -55q38 0 61 22t23 64z" />
    <glyph glyph-name="guillemotleft" unicode="&#xab;" horiz-adv-x="519" 
d="M262 52l-232 231l232 231v-72l-160 -159l160 -159v-72zM464 52l-232 231l232 231v-72l-160 -159l160 -159v-72z" />
    <glyph glyph-name="logicalnot" unicode="&#xac;" horiz-adv-x="550" 
d="M487 380v-186h-52v132h-371v54h423z" />
    <glyph glyph-name="uni00AD" unicode="&#xad;" horiz-adv-x="309" 
d="M279 263h-249v51h249v-51z" />
    <glyph glyph-name="registered" unicode="&#xae;" horiz-adv-x="567" 
d="M102 322q-74 76 -74 179q0 104 74 178q75 75 179 75q105 0 178 -75q75 -73 75 -178q0 -104 -75 -179q-74 -74 -178 -74q-103 0 -179 74zM72 501q0 -88 61 -149t148 -61t148 61q62 62 62 149q0 85 -62 147t-148 62t-148 -62q-61 -61 -61 -147zM228 474v-100h-41v261h97
q48 0 72.5 -22.5t24.5 -56.5q0 -58 -57 -76l70 -106h-48l-65 100h-53zM228 597v-86h50q62 0 62 44q0 42 -59 42h-53z" />
    <glyph glyph-name="overscore" unicode="&#xaf;" horiz-adv-x="378" 
d="M318 621h-259v51h259v-51z" />
    <glyph glyph-name="degree" unicode="&#xb0;" horiz-adv-x="308" 
d="M59 463q-39 39 -39 96t39 95q39 39 95 39t95 -39q39 -38 39 -95t-39 -96q-40 -38 -95 -38t-95 38zM69 559q0 -37 24.5 -61.5t60.5 -24.5q35 0 59.5 24.5t24.5 61.5q0 36 -24.5 60.5t-59.5 24.5q-36 0 -60.5 -24.5t-24.5 -60.5z" />
    <glyph glyph-name="plusminus" unicode="&#xb1;" horiz-adv-x="490" 
d="M218 368h-163v51h163v170h51v-170h165v-51h-165v-138h-51v138zM434 138h-379v51h379v-51z" />
    <glyph glyph-name="twosuperior" unicode="&#xb2;" horiz-adv-x="278" 
d="M98 414h143v-40h-198v40l100 100q49 49 49 84q0 25 -14.5 40t-36.5 15q-23 0 -39 -16t-17 -41h-41q0 42 28.5 69.5t68.5 27.5q42 0 67.5 -25t25.5 -68q0 -23 -10 -43q-10 -19 -21 -33q-4 -5 -40 -43z" />
    <glyph glyph-name="threesuperior" unicode="&#xb3;" horiz-adv-x="301" 
d="M127 517h-17v40h17q65 0 65 50q0 21 -13.5 33.5t-35.5 12.5q-53 0 -56 -48h-42q0 38 27.5 63t70.5 25q42 0 66.5 -22.5t24.5 -61.5q0 -27 -15 -46t-40 -25q28 -5 44.5 -26t16.5 -50q0 -42 -27 -66.5t-70 -24.5q-44 0 -72 25.5t-30 64.5h43q8 -50 59 -50q54 0 54 52
q0 54 -70 54z" />
    <glyph glyph-name="acute" unicode="&#xb4;" horiz-adv-x="340" 
d="M152 567h-53l75 158h66z" />
    <glyph glyph-name="mu" unicode="&#x3bc;" 
d="M125 49v-186h-55v637h55v-301q0 -153 134 -153q68 0 105 40.5t37 112.5v301h55v-500h-55v67q-40 -73 -148 -73q-91 0 -128 55z" />
    <glyph glyph-name="mu" unicode="&#xb5;" 
d="M125 49v-186h-55v637h55v-301q0 -153 134 -153q68 0 105 40.5t37 112.5v301h55v-500h-55v67q-40 -73 -148 -73q-91 0 -128 55z" />
    <glyph glyph-name="paragraph" unicode="&#xb6;" horiz-adv-x="564" 
d="M235 690h232v-880h-58v826h-116v-826h-58v500q-80 0 -135 55t-55 135q0 79 55 134q56 56 135 56z" />
    <glyph glyph-name="middot" unicode="&#xb7;" horiz-adv-x="198" 
d="M65 382h68v-68h-68v68z" />
    <glyph glyph-name="cedilla" unicode="&#xb8;" horiz-adv-x="338" 
d="M123 -55l16 77l44 -3l-12 -41q71 -17 71 -75q0 -39 -29.5 -60.5t-79.5 -21.5q-23 0 -37 3l9 40q5 -1 25 -1q62 0 62 40q0 37 -69 42z" />
    <glyph glyph-name="onesuperior" unicode="&#xb9;" horiz-adv-x="277" 
d="M132 690h42v-316h-42v266l-57 -41v48z" />
    <glyph glyph-name="ordmasculine" unicode="&#xba;" horiz-adv-x="356" 
d="M296 557v-50q0 -63 -33.5 -99.5t-94.5 -36.5q-59 0 -93 36t-34 100v50q0 64 34 100t93 36q60 0 94 -35.5t34 -100.5zM168 411q40 0 63 25.5t23 70.5v50q0 96 -86 96q-85 0 -85 -96v-50q0 -96 85 -96z" />
    <glyph glyph-name="guillemotright" unicode="&#xbb;" horiz-adv-x="519" 
d="M257 442v72l232 -231l-232 -231v72l160 159zM55 442v72l232 -231l-232 -231v72l160 159z" />
    <glyph glyph-name="onequarter" unicode="&#xbc;" horiz-adv-x="603" 
d="M11 0l475 690h57l-474 -690h-58zM108 690h42v-316h-42v266l-57 -41v48zM305 104l131 212h48l-126 -210h106v61h42v-61h39v-40h-39v-66h-42v66h-159v38z" />
    <glyph glyph-name="onehalf" unicode="&#xbd;" horiz-adv-x="603" 
d="M11 0l475 690h57l-474 -690h-58zM108 690h42v-316h-42v266l-57 -41v48zM409 40h143v-40h-198v40l100 100q49 49 49 84q0 25 -14.5 40t-36.5 15q-23 0 -39 -16t-17 -41h-41q0 42 28.5 69.5t68.5 27.5q42 0 67.5 -25t25.5 -68q0 -23 -10 -43q-11 -19 -21 -33q-4 -5 -40 -43
z" />
    <glyph glyph-name="threequarters" unicode="&#xbe;" horiz-adv-x="577" 
d="M11 0l475 690h57l-474 -690h-58zM305 104l131 212h48l-126 -210h106v61h42v-61h39v-40h-39v-66h-42v66h-159v38zM100 517h-17v40h17q65 0 65 50q0 21 -13.5 33.5t-35.5 12.5q-53 0 -56 -48h-42q0 38 27.5 63t70.5 25q42 0 66.5 -22.5t24.5 -61.5q0 -27 -15 -46t-40 -25
q28 -5 44.5 -26t16.5 -50q0 -42 -27 -66.5t-70 -24.5q-44 0 -72 25.5t-30 64.5h43q8 -50 59 -50q54 0 54 52q0 54 -70 54z" />
    <glyph glyph-name="questiondown" unicode="&#xbf;" horiz-adv-x="487" 
d="M224 279v47h55v-67q0 -50 -32 -79l-48 -43q-48 -43 -67.5 -75.5t-19.5 -72.5q0 -62 40 -96q41 -35 95 -35q59 0 96.5 35t39.5 96h57q0 -83 -56 -134t-137 -51q-83 0 -138 52q-55 51 -55 137q0 37 18 75q21 41 37 58q39 39 50 49l36 33q17 15 23 29.5t6 41.5zM285 432h-68
v68h68v-68z" />
    <glyph glyph-name="Agrave" unicode="&#xc0;" horiz-adv-x="551" 
d="M130 168l-56 -168h-62l236 690h54l236 -690h-61l-57 168h-290zM402 222l-127 375l-127 -375h254zM243 757l-90 129h68l72 -129h-50z" />
    <glyph glyph-name="Aacute" unicode="&#xc1;" horiz-adv-x="551" 
d="M130 168l-56 -168h-62l236 690h54l236 -690h-61l-57 168h-290zM402 222l-127 375l-127 -375h254zM308 757h-53l72 129h68z" />
    <glyph glyph-name="Acircumflex" unicode="&#xc2;" horiz-adv-x="551" 
d="M130 168l-56 -168h-62l236 690h54l236 -690h-61l-57 168h-290zM402 222l-127 375l-127 -375h254zM101 747l149 142h52l148 -142h-74l-100 100l-101 -100h-74z" />
    <glyph glyph-name="Atilde" unicode="&#xc3;" horiz-adv-x="551" 
d="M130 168l-56 -168h-62l236 690h54l236 -690h-61l-57 168h-290zM402 222l-127 375l-127 -375h254zM333 775q-24 0 -60 15q-35 15 -55 15q-36 0 -65 -29l-35 36q42 47 100 47q22 0 58 -15t57 -15q35 0 64 30l35 -37q-42 -47 -99 -47z" />
    <glyph glyph-name="Adieresis" unicode="&#xc4;" horiz-adv-x="551" 
d="M130 168l-56 -168h-62l236 690h54l236 -690h-61l-57 168h-290zM402 222l-127 375l-127 -375h254zM414 869v-67h-67v67h67zM204 869v-67h-67v67h67z" />
    <glyph glyph-name="Aring" unicode="&#xc5;" horiz-adv-x="580" 
d="M132 168l-56 -168h-62l224 655q-32 10 -50.5 34t-18.5 58q0 44 31 71.5t78 27.5q48 0 79 -27.5t31 -71.5q0 -34 -19.5 -58.5t-52.5 -34.5l224 -654h-61l-57 168h-290zM404 222l-127 375l-127 -375h254zM210 747q0 -27 19 -42.5t49 -15.5q31 0 49.5 15.5t18.5 42.5
t-18.5 42.5t-49.5 15.5q-30 0 -49 -15.5t-19 -42.5z" />
    <glyph glyph-name="AE" unicode="&#xc6;" horiz-adv-x="861" 
d="M181 170l-98 -170h-66l401 690h396v-54h-338v-252h308v-54h-308v-276h338v-54h-396v170h-237zM418 582l-206 -358h206v358z" />
    <glyph glyph-name="Ccedilla" unicode="&#xc7;" horiz-adv-x="580" 
d="M275 -56l10 50q-230 11 -230 310v82q0 310 245 310q99 0 163.5 -54.5t79.5 -160.5h-57q-32 161 -186 161q-94 0 -140.5 -61.5t-46.5 -194.5v-82q0 -135 46.5 -195.5t140.5 -60.5q153 0 186 163h56q-14 -100 -70.5 -154.5t-143.5 -61.5l-5 -18q71 -17 71 -75
q0 -39 -29.5 -60.5t-79.5 -21.5q-23 0 -37 3l9 40q5 -1 25 -1q62 0 62 40q0 38 -69 42z" />
    <glyph glyph-name="Egrave" unicode="&#xc8;" horiz-adv-x="543" 
d="M90 0v690h406v-54h-348v-252h318v-54h-318v-276h348v-54h-406zM298 757l-90 129h68l72 -129h-50z" />
    <glyph glyph-name="Eacute" unicode="&#xc9;" horiz-adv-x="543" 
d="M90 0v690h406v-54h-348v-252h318v-54h-318v-276h348v-54h-406zM307 757h-53l72 129h68z" />
    <glyph glyph-name="Ecircumflex" unicode="&#xca;" horiz-adv-x="543" 
d="M90 0v690h406v-54h-348v-252h318v-54h-318v-276h348v-54h-406zM118 747l149 142h52l148 -142h-74l-100 100l-101 -100h-74z" />
    <glyph glyph-name="Edieresis" unicode="&#xcb;" horiz-adv-x="543" 
d="M90 0v690h406v-54h-348v-252h318v-54h-318v-276h348v-54h-406zM431 869v-67h-67v67h67zM221 869v-67h-67v67h67z" />
    <glyph glyph-name="Igrave" unicode="&#xcc;" horiz-adv-x="258" 
d="M100 690h58v-690h-58v690zM107 757l-90 129h68l72 -129h-50z" />
    <glyph glyph-name="Iacute" unicode="&#xcd;" horiz-adv-x="258" 
d="M100 690h58v-690h-58v690zM153 757h-53l72 129h68z" />
    <glyph glyph-name="Icircumflex" unicode="&#xce;" horiz-adv-x="258" 
d="M100 690h58v-690h-58v690zM-46 747l149 142h52l148 -142h-74l-100 100l-101 -100h-74z" />
    <glyph glyph-name="Idieresis" unicode="&#xcf;" horiz-adv-x="246" 
d="M153 690v-690h-58v690h58zM71 869v-65h-65v65h65zM241 869v-65h-65v65h65z" />
    <glyph glyph-name="Eth" unicode="&#xd0;" horiz-adv-x="603" 
d="M298 0h-210v330h-103v54h103v306h210q124 0 187 -73t63 -231v-82q0 -158 -63 -231t-187 -73zM146 54h152q97 0 144.5 58.5t47.5 191.5v82q0 133 -47 191.5t-145 58.5h-152v-252h198v-54h-198v-276z" />
    <glyph glyph-name="Ntilde" unicode="&#xd1;" horiz-adv-x="638" 
d="M490 111v579h58v-690h-56l-344 574v-574h-58v690h55zM377 775q-24 0 -60 15q-34 15 -55 15q-36 0 -65 -29l-35 36q42 47 100 47q22 0 58 -15t57 -15q35 0 64 30l35 -37q-42 -47 -99 -47z" />
    <glyph glyph-name="Ograve" unicode="&#xd2;" horiz-adv-x="600" 
d="M545 386v-82q0 -156 -63.5 -233t-181.5 -77t-181.5 77t-63.5 233v82q0 154 63.5 232t181.5 78t181.5 -78t63.5 -232zM113 386v-82q0 -256 187 -256t187 256v82q0 256 -187 256t-187 -256zM290 757l-90 129h68l72 -129h-50z" />
    <glyph glyph-name="Oacute" unicode="&#xd3;" horiz-adv-x="600" 
d="M545 386v-82q0 -156 -63.5 -233t-181.5 -77t-181.5 77t-63.5 233v82q0 154 63.5 232t181.5 78t181.5 -78t63.5 -232zM113 386v-82q0 -256 187 -256t187 256v82q0 256 -187 256t-187 -256zM309 757h-53l72 129h68z" />
    <glyph glyph-name="Ocircumflex" unicode="&#xd4;" horiz-adv-x="600" 
d="M545 386v-82q0 -156 -63.5 -233t-181.5 -77t-181.5 77t-63.5 233v82q0 154 63.5 232t181.5 78t181.5 -78t63.5 -232zM113 386v-82q0 -256 187 -256t187 256v82q0 256 -187 256t-187 -256zM125 747l149 142h52l148 -142h-74l-100 100l-101 -100h-74z" />
    <glyph glyph-name="Otilde" unicode="&#xd5;" horiz-adv-x="600" 
d="M545 386v-82q0 -156 -63.5 -233t-181.5 -77t-181.5 77t-63.5 233v82q0 154 63.5 232t181.5 78t181.5 -78t63.5 -232zM113 386v-82q0 -256 187 -256t187 256v82q0 256 -187 256t-187 -256zM358 775q-24 0 -60 15q-34 15 -55 15q-36 0 -65 -29l-35 36q42 47 100 47
q22 0 58 -15t57 -15q36 0 64 30l35 -37q-42 -47 -99 -47z" />
    <glyph glyph-name="Odieresis" unicode="&#xd6;" horiz-adv-x="600" 
d="M545 386v-82q0 -156 -63.5 -233t-181.5 -77t-181.5 77t-63.5 233v82q0 154 63.5 232t181.5 78t181.5 -78t63.5 -232zM113 386v-82q0 -256 187 -256t187 256v82q0 256 -187 256t-187 -256zM439 869v-67h-67v67h67zM229 869v-67h-67v67h67z" />
    <glyph glyph-name="multiply" unicode="&#xd7;" horiz-adv-x="490" 
d="M368 513l36 -36l-124 -124l123 -122l-36 -36l-123 122l-122 -122l-36 36l122 122l-123 124l36 36l123 -124z" />
    <glyph glyph-name="Oslash" unicode="&#xd8;" horiz-adv-x="600" 
d="M209 8l-45 -124h-54l53 147q-108 71 -108 273v82q0 154 63.5 232t181.5 78q50 0 98 -17l48 133h54l-57 -158q102 -73 102 -268v-82q0 -156 -63.5 -233t-181.5 -77q-47 0 -91 14zM113 386v-82q0 -160 70 -218l196 541q-36 15 -79 15q-187 0 -187 -256zM487 304v82
q0 150 -65 212l-195 -538q33 -12 73 -12q187 0 187 256z" />
    <glyph glyph-name="Ugrave" unicode="&#xd9;" horiz-adv-x="670" 
d="M90 282v408h58v-408q0 -234 187 -234t187 234v408h58v-408q0 -145 -63 -216.5t-182 -71.5t-182 71.5t-63 216.5zM330 757l-90 129h68l72 -129h-50z" />
    <glyph glyph-name="Uacute" unicode="&#xda;" horiz-adv-x="670" 
d="M90 282v408h58v-408q0 -234 187 -234t187 234v408h58v-408q0 -145 -63 -216.5t-182 -71.5t-182 71.5t-63 216.5zM341 757h-53l72 129h68z" />
    <glyph glyph-name="Ucircumflex" unicode="&#xdb;" horiz-adv-x="670" 
d="M90 282v408h58v-408q0 -234 187 -234t187 234v408h58v-408q0 -145 -63 -216.5t-182 -71.5t-182 71.5t-63 216.5zM160 747l149 142h52l148 -142h-74l-100 100l-101 -100h-74z" />
    <glyph glyph-name="Udieresis" unicode="&#xdc;" horiz-adv-x="670" 
d="M90 282v408h58v-408q0 -234 187 -234t187 234v408h58v-408q0 -145 -63 -216.5t-182 -71.5t-182 71.5t-63 216.5zM474 869v-67h-67v67h67zM264 869v-67h-67v67h67z" />
    <glyph glyph-name="Yacute" unicode="&#xdd;" horiz-adv-x="536" 
d="M239 302l-224 388h68l185 -324l185 324h68l-224 -388v-302h-58v302zM291 757h-53l72 129h68z" />
    <glyph glyph-name="Thorn" unicode="&#xde;" horiz-adv-x="577" 
d="M282 148h-134v-148h-58v690h58v-125h134q119 0 185 -55t66 -154q0 -98 -66 -153t-185 -55zM148 511v-309h134q96 0 144.5 39.5t48.5 114.5t-49 115t-144 40h-134z" />
    <glyph glyph-name="germandbls" unicode="&#xdf;" horiz-adv-x="527" 
d="M457 563q0 -68 -61 -96q34 -12 47.5 -38.5t13.5 -76.5v-212q0 -84 -35 -113q-34 -27 -117 -27h-32v51h40q49 0 69 19.5t20 69.5v212q0 49 -19 67.5t-70 18.5h-40v51h40q42 0 65.5 18t23.5 53q0 39 -32.5 62t-96.5 23q-77 0 -112.5 -35.5t-35.5 -118.5v-491h-55v499
q0 197 203 197q91 0 137.5 -36.5t46.5 -96.5z" />
    <glyph glyph-name="agrave" unicode="&#xe0;" horiz-adv-x="486" 
d="M45 143q0 69 44.5 105t125.5 36h146v62q0 62 -27.5 85t-98.5 23q-55 0 -82.5 -11t-48.5 -46l-42 29q26 44 65.5 62t108.5 18q97 0 138.5 -36t41.5 -124v-346h-55v62q-36 -68 -142 -68q-83 0 -128.5 38.5t-45.5 110.5zM361 186v49h-146q-115 0 -115 -93q0 -96 119 -96
q71 0 106.5 32.5t35.5 107.5zM152 725h65l75 -158h-52z" />
    <glyph glyph-name="aacute" unicode="&#xe1;" horiz-adv-x="486" 
d="M45 143q0 69 44.5 105t125.5 36h146v62q0 62 -27.5 85t-98.5 23q-55 0 -82.5 -11t-48.5 -46l-42 29q26 44 65.5 62t108.5 18q97 0 138.5 -36t41.5 -124v-346h-55v62q-36 -68 -142 -68q-83 0 -128.5 38.5t-45.5 110.5zM361 186v49h-146q-115 0 -115 -93q0 -96 119 -96
q71 0 106.5 32.5t35.5 107.5zM266 567h-53l75 158h66z" />
    <glyph glyph-name="acircumflex" unicode="&#xe2;" horiz-adv-x="486" 
d="M45 143q0 69 44.5 105t125.5 36h146v62q0 62 -27.5 85t-98.5 23q-55 0 -82.5 -11t-48.5 -46l-42 29q26 44 65.5 62t108.5 18q97 0 138.5 -36t41.5 -124v-346h-55v62q-36 -68 -142 -68q-83 0 -128.5 38.5t-45.5 110.5zM361 186v49h-146q-115 0 -115 -93q0 -96 119 -96
q71 0 106.5 32.5t35.5 107.5zM111 558l108 142h62l108 -142h-60l-79 105l-79 -105h-60z" />
    <glyph glyph-name="atilde" unicode="&#xe3;" horiz-adv-x="486" 
d="M45 143q0 69 44.5 105t125.5 36h146v62q0 62 -27.5 85t-98.5 23q-55 0 -82.5 -11t-48.5 -46l-42 29q26 44 65.5 62t108.5 18q97 0 138.5 -36t41.5 -124v-346h-55v62q-36 -68 -142 -68q-83 0 -128.5 38.5t-45.5 110.5zM361 186v49h-146q-115 0 -115 -93q0 -96 119 -96
q71 0 106.5 32.5t35.5 107.5zM301 603q-24 0 -60 15q-35 15 -55 15q-36 0 -65 -29l-35 31q42 47 100 47q22 0 58 -15t57 -15q35 0 64 30l35 -32q-42 -47 -99 -47z" />
    <glyph glyph-name="adieresis" unicode="&#xe4;" horiz-adv-x="486" 
d="M45 143q0 69 44.5 105t125.5 36h146v62q0 62 -27.5 85t-98.5 23q-55 0 -82.5 -11t-48.5 -46l-42 29q26 44 65.5 62t108.5 18q97 0 138.5 -36t41.5 -124v-346h-55v62q-36 -68 -142 -68q-83 0 -128.5 38.5t-45.5 110.5zM361 186v49h-146q-115 0 -115 -93q0 -96 119 -96
q71 0 106.5 32.5t35.5 107.5zM382 690v-67h-67v67h67zM172 690v-67h-67v67h67z" />
    <glyph glyph-name="aring" unicode="&#xe5;" horiz-adv-x="486" 
d="M45 143q0 69 44.5 105t125.5 36h146v62q0 62 -27.5 85t-98.5 23q-55 0 -82.5 -11t-48.5 -46l-42 29q26 44 65.5 62t108.5 18q97 0 138.5 -36t41.5 -124v-346h-55v62q-36 -68 -142 -68q-83 0 -128.5 38.5t-45.5 110.5zM361 186v49h-146q-115 0 -115 -93q0 -96 119 -96
q71 0 106.5 32.5t35.5 107.5zM144 646q0 46 32 78t77 32q46 0 78 -32t32 -78q0 -45 -32 -77t-78 -32q-45 0 -77 32t-32 77zM253 714q-28 0 -48 -20t-20 -48t20 -48t48 -20t48 20t20 48t-19.5 48t-48.5 20z" />
    <glyph glyph-name="ae" unicode="&#xe6;" horiz-adv-x="785" 
d="M45 143q0 69 44.5 105t125.5 36h146v62q0 62 -27.5 85t-98.5 23q-55 0 -82.5 -11t-48.5 -46l-42 29q26 44 65.5 62t108.5 18t107.5 -20t54.5 -65q46 85 153 85q92 0 139 -57.5t47 -166.5v-46h-321v-21q0 -80 36 -125t106 -45q90 0 130 61l44 -31q-52 -81 -171 -81
q-126 0 -171 99q-40 -99 -171 -99q-83 0 -128.5 38.5t-45.5 110.5zM361 186v49h-146q-115 0 -115 -93q0 -96 119 -96q71 0 106.5 32.5t35.5 107.5zM416 287v-1h266q-1 169 -131 169q-64 0 -99.5 -43.5t-35.5 -124.5z" />
    <glyph glyph-name="ccedilla" unicode="&#xe7;" horiz-adv-x="444" 
d="M221 -56l10 51q-89 7 -137.5 64t-48.5 156v72q0 105 55.5 162t155.5 57q113 0 169 -77l-44 -30q-41 56 -125 56q-74 0 -115 -43.5t-41 -124.5v-72q0 -80 39.5 -125t116.5 -45q87 0 126 61l44 -31q-47 -74 -152 -80l-5 -18q71 -17 71 -75q0 -39 -29.5 -60.5t-79.5 -21.5
q-23 0 -37 3l9 40q5 -1 25 -1q62 0 62 40q0 38 -69 42z" />
    <glyph glyph-name="egrave" unicode="&#xe8;" horiz-adv-x="484" 
d="M431 287v-51h-331v-21q0 -80 39 -125t113 -45q90 0 130 61l44 -31q-52 -81 -171 -81q-100 0 -155 58.5t-55 162.5v72q0 106 49.5 162.5t143.5 56.5t143.5 -56.5t49.5 -162.5zM100 287v-1h276v1q0 82 -35 125t-103 43t-103 -43t-35 -125zM150 725h65l75 -158h-52z" />
    <glyph glyph-name="eacute" unicode="&#xe9;" horiz-adv-x="484" 
d="M431 287v-51h-331v-21q0 -80 39 -125t113 -45q90 0 130 61l44 -31q-52 -81 -171 -81q-100 0 -155 58.5t-55 162.5v72q0 106 49.5 162.5t143.5 56.5t143.5 -56.5t49.5 -162.5zM100 287v-1h276v1q0 82 -35 125t-103 43t-103 -43t-35 -125zM252 567h-53l75 158h66z" />
    <glyph glyph-name="ecircumflex" unicode="&#xea;" horiz-adv-x="484" 
d="M431 287v-51h-331v-21q0 -80 39 -125t113 -45q90 0 130 61l44 -31q-52 -81 -171 -81q-100 0 -155 58.5t-55 162.5v72q0 106 49.5 162.5t143.5 56.5t143.5 -56.5t49.5 -162.5zM100 287v-1h276v1q0 82 -35 125t-103 43t-103 -43t-35 -125zM99 558l108 142h62l108 -142h-60
l-79 105l-79 -105h-60z" />
    <glyph glyph-name="edieresis" unicode="&#xeb;" horiz-adv-x="484" 
d="M431 287v-51h-331v-21q0 -80 39 -125t113 -45q90 0 130 61l44 -31q-52 -81 -171 -81q-100 0 -155 58.5t-55 162.5v72q0 106 49.5 162.5t143.5 56.5t143.5 -56.5t49.5 -162.5zM100 287v-1h276v1q0 82 -35 125t-103 43t-103 -43t-35 -125zM377 690v-67h-67v67h67zM167 690
v-67h-67v67h67z" />
    <glyph glyph-name="igrave" unicode="&#xec;" horiz-adv-x="213" 
d="M-7 725h66l75 -158h-53zM134 0h-55v500h55v-500z" />
    <glyph glyph-name="iacute" unicode="&#xed;" horiz-adv-x="213" 
d="M131 567h-52l75 158h65zM134 0h-55v500h55v-500z" />
    <glyph glyph-name="icircumflex" unicode="&#xee;" horiz-adv-x="213" 
d="M134 0h-55v500h55v-500zM-33 558l108 142h62l108 -142h-60l-79 105l-79 -105h-60z" />
    <glyph glyph-name="idieresis" unicode="&#xef;" horiz-adv-x="225" 
d="M140 500v-500h-55v500h55zM71 690v-67h-67v67h67zM154 623v67h67v-67h-67z" />
    <glyph glyph-name="eth" unicode="&#xf0;" horiz-adv-x="496" 
d="M224 632l-67 28l26 46q20 -9 67 -29l36 59l43 -26l-33 -55q92 -44 122 -95q33 -52 33 -165v-181q0 -105 -52.5 -162.5t-150.5 -57.5q-97 0 -150 57.5t-53 162.5v73q0 105 53 162t150 57q100 0 148 -65q-2 63 -30 99q-26 36 -96 71l-35 -59l-44 25zM248 45q72 0 110 44
t38 125v73q0 82 -38.5 125t-109.5 43q-72 0 -110 -43t-38 -125v-73q0 -82 37.5 -125.5t110.5 -43.5z" />
    <glyph glyph-name="ntilde" unicode="&#xf1;" 
d="M125 0h-55v500h55v-68q41 74 147 74q87 0 135.5 -54t48.5 -156v-296h-55v295q0 80 -35.5 119.5t-99.5 39.5q-68 0 -104.5 -41t-36.5 -113v-300zM321 603q-24 0 -60 15q-34 15 -55 15q-36 0 -65 -29l-35 31q42 47 100 47q22 0 58 -15t57 -15q35 0 64 30l35 -32
q-42 -47 -99 -47z" />
    <glyph glyph-name="ograve" unicode="&#xf2;" horiz-adv-x="496" 
d="M451 287v-73q0 -105 -52.5 -162.5t-150.5 -57.5q-97 0 -150 57.5t-53 162.5v73q0 105 53 162t150 57t150 -57t53 -162zM396 214v73q0 82 -38.5 125t-109.5 43q-72 0 -110 -43t-38 -125v-73q0 -82 37.5 -125.5t110.5 -43.5q72 0 110 44t38 125zM160 725h65l75 -158h-52z
" />
    <glyph glyph-name="oacute" unicode="&#xf3;" horiz-adv-x="496" 
d="M451 287v-73q0 -105 -52.5 -162.5t-150.5 -57.5q-97 0 -150 57.5t-53 162.5v73q0 105 53 162t150 57t150 -57t53 -162zM396 214v73q0 82 -38.5 125t-109.5 43q-72 0 -110 -43t-38 -125v-73q0 -82 37.5 -125.5t110.5 -43.5q72 0 110 44t38 125zM257 567h-53l75 158h66z
" />
    <glyph glyph-name="ocircumflex" unicode="&#xf4;" horiz-adv-x="496" 
d="M451 287v-73q0 -105 -52.5 -162.5t-150.5 -57.5q-97 0 -150 57.5t-53 162.5v73q0 105 53 162t150 57t150 -57t53 -162zM396 214v73q0 82 -38.5 125t-109.5 43q-72 0 -110 -43t-38 -125v-73q0 -82 37.5 -125.5t110.5 -43.5q72 0 110 44t38 125zM109 558l108 142h62
l108 -142h-60l-79 105l-79 -105h-60z" />
    <glyph glyph-name="otilde" unicode="&#xf5;" horiz-adv-x="496" 
d="M451 287v-73q0 -105 -52.5 -162.5t-150.5 -57.5q-97 0 -150 57.5t-53 162.5v73q0 105 53 162t150 57t150 -57t53 -162zM396 214v73q0 82 -38.5 125t-109.5 43q-72 0 -110 -43t-38 -125v-73q0 -82 37.5 -125.5t110.5 -43.5q72 0 110 44t38 125zM306 603q-24 0 -60 15
q-34 15 -55 15q-36 0 -65 -29l-35 31q42 47 100 47q22 0 58 -15t57 -15q36 0 64 30l35 -32q-42 -47 -99 -47z" />
    <glyph glyph-name="odieresis" unicode="&#xf6;" horiz-adv-x="496" 
d="M451 287v-73q0 -105 -52.5 -162.5t-150.5 -57.5q-97 0 -150 57.5t-53 162.5v73q0 105 53 162t150 57t150 -57t53 -162zM396 214v73q0 82 -38.5 125t-109.5 43q-72 0 -110 -43t-38 -125v-73q0 -82 37.5 -125.5t110.5 -43.5q72 0 110 44t38 125zM387 690v-67h-67v67h67z
M177 690v-67h-67v67h67z" />
    <glyph glyph-name="divide" unicode="&#xf7;" horiz-adv-x="490" 
d="M434 379v-51h-379v51h379zM275 545v-65h-65v65h65zM210 162v65h65v-65h-65z" />
    <glyph glyph-name="oslash" unicode="&#xf8;" horiz-adv-x="496" 
d="M166 7l-38 -86h-55l49 109q-77 57 -77 184v73q0 105 53 162t150 57q48 0 81 -13l40 89h55l-50 -112q77 -54 77 -183v-73q0 -105 -52.5 -162.5t-150.5 -57.5q-44 0 -82 13zM396 214v73q0 87 -45 131l-163 -364q26 -9 60 -9q71 0 109.5 45t38.5 124zM100 287v-73
q0 -89 44 -133l163 364q-27 10 -59 10q-71 0 -109.5 -43.5t-38.5 -124.5z" />
    <glyph glyph-name="ugrave" unicode="&#xf9;" 
d="M401 500h55v-500h-55v67q-42 -73 -148 -73q-87 0 -135 53.5t-48 156.5v296h55v-296q0 -79 35.5 -118.5t98.5 -39.5q68 0 105 41t37 113v300zM170 725h65l75 -158h-52z" />
    <glyph glyph-name="uacute" unicode="&#xfa;" 
d="M401 500h55v-500h-55v67q-42 -73 -148 -73q-87 0 -135 53.5t-48 156.5v296h55v-296q0 -79 35.5 -118.5t98.5 -39.5q68 0 105 41t37 113v300zM278 567h-53l75 158h66z" />
    <glyph glyph-name="ucircumflex" unicode="&#xfb;" 
d="M401 500h55v-500h-55v67q-42 -73 -148 -73q-87 0 -135 53.5t-48 156.5v296h55v-296q0 -79 35.5 -118.5t98.5 -39.5q68 0 105 41t37 113v300zM124 558l108 142h62l108 -142h-60l-79 105l-79 -105h-60z" />
    <glyph glyph-name="udieresis" unicode="&#xfc;" 
d="M401 500h55v-500h-55v67q-42 -73 -148 -73q-87 0 -135 53.5t-48 156.5v296h55v-296q0 -79 35.5 -118.5t98.5 -39.5q68 0 105 41t37 113v300zM401 690v-67h-67v67h67zM191 690v-67h-67v67h67z" />
    <glyph glyph-name="yacute" unicode="&#xfd;" horiz-adv-x="459" 
d="M73 -190v54q59 0 84 25q28 25 53 97l2 6l-205 508h60l173 -428l148 428h58l-181 -520q-33 -97 -70 -133q-37 -37 -122 -37zM260 567h-53l75 158h66z" />
    <glyph glyph-name="thorn" unicode="&#xfe;" horiz-adv-x="521" 
d="M471 287v-72q0 -105 -51 -163t-144 -58q-111 0 -151 70v-254h-55v880h55v-253q42 69 151 69q93 0 144 -57t51 -162zM272 45q69 0 106.5 44.5t37.5 125.5v72q0 81 -37.5 124.5t-106.5 43.5q-72 0 -109.5 -41t-37.5 -119v-80q0 -170 147 -170z" />
    <glyph glyph-name="ydieresis" unicode="&#xff;" horiz-adv-x="459" 
d="M73 -190v54q59 0 84 25q28 25 53 97l2 6l-205 508h60l173 -428l148 428h58l-181 -520q-33 -97 -70 -133q-37 -37 -122 -37zM365 690v-67h-67v67h67zM155 690v-67h-67v67h67z" />
    <glyph glyph-name="Amacron" unicode="&#x100;" horiz-adv-x="551" 
d="M130 168l-56 -168h-62l236 690h54l236 -690h-61l-57 168h-290zM402 222l-127 375l-127 -375h254zM426 787h-299v51h299v-51z" />
    <glyph glyph-name="amacron" unicode="&#x101;" horiz-adv-x="486" 
d="M45 143q0 69 44.5 105t125.5 36h146v62q0 62 -27.5 85t-98.5 23q-55 0 -82.5 -11t-48.5 -46l-42 29q26 44 65.5 62t108.5 18q97 0 138.5 -36t41.5 -124v-346h-55v62q-36 -68 -142 -68q-83 0 -128.5 38.5t-45.5 110.5zM361 186v49h-146q-115 0 -115 -93q0 -96 119 -96
q71 0 106.5 32.5t35.5 107.5zM374 621h-259v51h259v-51z" />
    <glyph glyph-name="Abreve" unicode="&#x102;" horiz-adv-x="551" 
d="M130 168l-56 -168h-62l236 690h54l236 -690h-61l-57 168h-290zM402 222l-127 375l-127 -375h254zM402 889h54q0 -70 -48 -108.5t-131 -38.5t-131.5 38.5t-48.5 108.5h54q9 -93 126 -93q116 0 125 93z" />
    <glyph glyph-name="abreve" unicode="&#x103;" horiz-adv-x="486" 
d="M45 143q0 69 44.5 105t125.5 36h146v62q0 62 -27.5 85t-98.5 23q-55 0 -82.5 -11t-48.5 -46l-42 29q26 44 65.5 62t108.5 18q97 0 138.5 -36t41.5 -124v-346h-55v62q-36 -68 -142 -68q-83 0 -128.5 38.5t-45.5 110.5zM361 186v49h-146q-115 0 -115 -93q0 -96 119 -96
q71 0 106.5 32.5t35.5 107.5zM329 690h48q-5 -113 -131 -113t-131 113h48q3 -36 22.5 -52.5t60.5 -16.5q77 0 83 69z" />
    <glyph glyph-name="Aogonek" unicode="&#x104;" horiz-adv-x="580" 
d="M132 168l-56 -168h-62l236 690h54l236 -690h-25l-32 -17l-23 -14q-25 -19 -25 -42q0 -35 57 -35q9 0 27 2l9 -41q-12 -3 -41 -3q-45 0 -73.5 19t-28.5 55q0 55 86 99l-49 145h-290zM404 222l-127 375l-127 -375h254z" />
    <glyph glyph-name="aogonek" unicode="&#x105;" horiz-adv-x="491" 
d="M50 143q0 69 44.5 105t125.5 36h146v62q0 62 -27.5 85t-98.5 23q-55 0 -82.5 -11t-48.5 -46l-42 29q26 44 65.5 62t108.5 18q97 0 138.5 -36t41.5 -124v-346h-13l-32 -17l-23 -14q-25 -19 -25 -42q0 -35 57 -35q9 0 27 2l9 -41q-12 -3 -41 -3q-45 0 -73.5 19t-28.5 55
q0 57 88 100v38q-36 -68 -142 -68q-83 0 -128.5 38.5t-45.5 110.5zM366 186v49h-146q-115 0 -115 -93q0 -96 119 -96q71 0 106.5 32.5t35.5 107.5z" />
    <glyph glyph-name="Cacute" unicode="&#x106;" horiz-adv-x="580" 
d="M543 481h-57q-32 161 -186 161q-94 0 -140.5 -61.5t-46.5 -194.5v-82q0 -135 46.5 -195.5t140.5 -60.5q153 0 186 163h56q-15 -107 -79.5 -162t-162.5 -55q-245 0 -245 310v82q0 310 245 310q99 0 163.5 -54.5t79.5 -160.5zM319 757h-53l72 129h68z" />
    <glyph glyph-name="cacute" unicode="&#x107;" horiz-adv-x="443" 
d="M382 106l44 -31q-50 -81 -170 -81q-101 0 -156 57.5t-55 163.5v72q0 105 55.5 162t155.5 57q113 0 169 -77l-44 -30q-41 56 -125 56q-74 0 -115 -43.5t-41 -124.5v-72q0 -80 39.5 -125t116.5 -45q87 0 126 61zM256 567h-53l75 158h66z" />
    <glyph glyph-name="Ccircumflex" unicode="&#x108;" horiz-adv-x="580" 
d="M543 481h-57q-32 161 -186 161q-94 0 -140.5 -61.5t-46.5 -194.5v-82q0 -135 46.5 -195.5t140.5 -60.5q153 0 186 163h56q-15 -107 -79.5 -162t-162.5 -55q-245 0 -245 310v82q0 310 245 310q99 0 163.5 -54.5t79.5 -160.5zM125 747l149 142h52l148 -142h-74l-100 100
l-101 -100h-74z" />
    <glyph glyph-name="ccircumflex" unicode="&#x109;" horiz-adv-x="443" 
d="M382 106l44 -31q-50 -81 -170 -81q-101 0 -156 57.5t-55 163.5v72q0 105 55.5 162t155.5 57q113 0 169 -77l-44 -30q-41 56 -125 56q-74 0 -115 -43.5t-41 -124.5v-72q0 -80 39.5 -125t116.5 -45q87 0 126 61zM108 558l108 142h62l108 -142h-60l-79 105l-79 -105h-60z
" />
    <glyph glyph-name="Cdotaccent" unicode="&#x10a;" horiz-adv-x="580" 
d="M543 481h-57q-32 161 -186 161q-94 0 -140.5 -61.5t-46.5 -194.5v-82q0 -135 46.5 -195.5t140.5 -60.5q153 0 186 163h56q-15 -107 -79.5 -162t-162.5 -55q-245 0 -245 310v82q0 310 245 310q99 0 163.5 -54.5t79.5 -160.5zM333 869v-67h-67v67h67z" />
    <glyph glyph-name="cdotaccent" unicode="&#x10b;" horiz-adv-x="443" 
d="M382 106l44 -31q-50 -81 -170 -81q-101 0 -156 57.5t-55 163.5v72q0 105 55.5 162t155.5 57q113 0 169 -77l-44 -30q-41 56 -125 56q-74 0 -115 -43.5t-41 -124.5v-72q0 -80 39.5 -125t116.5 -45q87 0 126 61zM280 690v-67h-67v67h67z" />
    <glyph glyph-name="Ccaron" unicode="&#x10c;" horiz-adv-x="580" 
d="M543 481h-57q-32 161 -186 161q-94 0 -140.5 -61.5t-46.5 -194.5v-82q0 -135 46.5 -195.5t140.5 -60.5q153 0 186 163h56q-15 -107 -79.5 -162t-162.5 -55q-245 0 -245 310v82q0 310 245 310q99 0 163.5 -54.5t79.5 -160.5zM124 889h74l101 -100l100 100h74l-148 -142
h-52z" />
    <glyph glyph-name="ccaron" unicode="&#x10d;" horiz-adv-x="443" 
d="M382 106l44 -31q-50 -81 -170 -81q-101 0 -156 57.5t-55 163.5v72q0 105 55.5 162t155.5 57q113 0 169 -77l-44 -30q-41 56 -125 56q-74 0 -115 -43.5t-41 -124.5v-72q0 -80 39.5 -125t116.5 -45q87 0 126 61zM384 700l-108 -142h-62l-108 142h60l79 -105l79 105h60z" />
    <glyph glyph-name="Dcaron" unicode="&#x10e;" horiz-adv-x="605" 
d="M300 0h-210v690h210q124 0 187 -73t63 -231v-82q0 -158 -63 -231t-187 -73zM148 54h152q97 0 144.5 58.5t47.5 191.5v82q0 133 -47 191.5t-145 58.5h-152v-582zM114 889h74l101 -100l100 100h74l-148 -142h-52z" />
    <glyph glyph-name="dcaron" unicode="&#x10f;" horiz-adv-x="593" 
d="M391 435v255h55v-690h-55v61q-40 -67 -151 -67q-95 0 -145 57.5t-50 163.5v72q0 105 51 162t144 57q109 0 151 -71zM244 45q147 0 147 169v72q0 169 -147 169q-71 0 -107.5 -43t-36.5 -125v-72q0 -82 36.5 -126t107.5 -44zM505 690h63v-103l-63 -55v158z" />
    <glyph glyph-name="Dcroat" unicode="&#x110;" horiz-adv-x="613" 
d="M308 0h-210v330h-113v54h113v306h210q124 0 187 -73t63 -231v-82q0 -158 -63 -231t-187 -73zM156 54h152q97 0 144.5 58.5t47.5 191.5v82q0 133 -47 191.5t-145 58.5h-152v-252h188v-54h-188v-276z" />
    <glyph glyph-name="dslash" unicode="&#x111;" horiz-adv-x="521" 
d="M218 619h173v71h55v-71h101v-51h-101v-568h-55v61q-40 -67 -151 -67q-95 0 -145 57.5t-50 163.5v72q0 105 51 162t144 57q109 0 151 -71v133h-173v51zM244 45q147 0 147 169v72q0 169 -147 169q-71 0 -107.5 -43t-36.5 -125v-72q0 -82 36.5 -126t107.5 -44z" />
    <glyph glyph-name="Emacron" unicode="&#x112;" horiz-adv-x="543" 
d="M90 0v690h406v-54h-348v-252h318v-54h-318v-276h348v-54h-406zM443 787h-299v51h299v-51z" />
    <glyph glyph-name="emacron" unicode="&#x113;" horiz-adv-x="484" 
d="M431 287v-51h-331v-21q0 -80 39 -125t113 -45q90 0 130 61l44 -31q-52 -81 -171 -81q-100 0 -155 58.5t-55 162.5v72q0 106 49.5 162.5t143.5 56.5t143.5 -56.5t49.5 -162.5zM100 287v-1h276v1q0 82 -35 125t-103 43t-103 -43t-35 -125zM368 621h-259v51h259v-51z" />
    <glyph glyph-name="Edotaccent" unicode="&#x116;" horiz-adv-x="543" 
d="M90 0v690h406v-54h-348v-252h318v-54h-318v-276h348v-54h-406zM326 869v-67h-67v67h67z" />
    <glyph glyph-name="edotaccent" unicode="&#x117;" horiz-adv-x="484" 
d="M431 287v-51h-331v-21q0 -80 39 -125t113 -45q90 0 130 61l44 -31q-52 -81 -171 -81q-100 0 -155 58.5t-55 162.5v72q0 106 49.5 162.5t143.5 56.5t143.5 -56.5t49.5 -162.5zM100 287v-1h276v1q0 82 -35 125t-103 43t-103 -43t-35 -125zM272 690v-67h-67v67h67z" />
    <glyph glyph-name="Eogonek" unicode="&#x118;" horiz-adv-x="543" 
d="M90 0v690h406v-54h-348v-252h318v-54h-318v-276h348v-54h-128l-32 -17l-23 -14q-25 -19 -25 -42q0 -35 57 -35q9 0 27 2l9 -41q-12 -3 -41 -3q-45 0 -73.5 19t-28.5 55q0 45 46 76h-194z" />
    <glyph glyph-name="eogonek" unicode="&#x119;" horiz-adv-x="478" 
d="M431 287v-51h-331v-21q0 -80 39 -125t113 -45q90 0 130 61l44 -31q-39 -60 -111 -75l-32 -17l-23 -14q-25 -19 -25 -42q0 -35 57 -35q9 0 27 2l9 -41q-12 -3 -41 -3q-45 0 -73.5 19t-28.5 55q0 40 41 72q-86 8 -133.5 65t-47.5 154v72q0 106 49.5 162.5t143.5 56.5
t143.5 -56.5t49.5 -162.5zM100 287v-1h276v1q0 82 -35 125t-103 43t-103 -43t-35 -125z" />
    <glyph glyph-name="Ecaron" unicode="&#x11a;" horiz-adv-x="543" 
d="M90 0v690h406v-54h-348v-252h318v-54h-318v-276h348v-54h-406zM118 889h74l101 -100l100 100h74l-148 -142h-52z" />
    <glyph glyph-name="ecaron" unicode="&#x11b;" horiz-adv-x="484" 
d="M431 287v-51h-331v-21q0 -80 39 -125t113 -45q90 0 130 61l44 -31q-52 -81 -171 -81q-100 0 -155 58.5t-55 162.5v72q0 106 49.5 162.5t143.5 56.5t143.5 -56.5t49.5 -162.5zM100 287v-1h276v1q0 82 -35 125t-103 43t-103 -43t-35 -125zM376 700l-108 -142h-62l-108 142
h60l79 -105l79 105h60z" />
    <glyph glyph-name="Gcircumflex" unicode="&#x11c;" horiz-adv-x="604" 
d="M303 283v54h246v-28q0 -158 -64 -236.5t-185 -78.5q-245 0 -245 310v82q0 310 245 310q99 0 163.5 -54.5t79.5 -160.5h-57q-32 161 -186 161q-94 0 -140.5 -61.5t-46.5 -194.5v-82q0 -133 46.5 -194.5t140.5 -61.5q183 0 190 235h-187zM127 747l149 142h52l148 -142h-74
l-100 100l-101 -100h-74z" />
    <glyph glyph-name="gcircumflex" unicode="&#x11d;" horiz-adv-x="516" 
d="M45 215v72q0 105 51 162t144 57q109 0 151 -71v65h55v-480q0 -104 -53.5 -160t-150.5 -56q-116 0 -166 81l43 31q37 -61 126 -61q72 0 109 43.5t37 121.5v41q-40 -67 -151 -67q-95 0 -145 57.5t-50 163.5zM244 45q147 0 147 169v79q0 162 -147 162q-71 0 -107.5 -43
t-36.5 -125v-72q0 -82 36.5 -126t107.5 -44zM104 558l108 142h62l108 -142h-60l-79 105l-79 -105h-60z" />
    <glyph glyph-name="Gbreve" unicode="&#x11e;" horiz-adv-x="604" 
d="M303 283v54h246v-28q0 -158 -64 -236.5t-185 -78.5q-245 0 -245 310v82q0 310 245 310q99 0 163.5 -54.5t79.5 -160.5h-57q-32 161 -186 161q-94 0 -140.5 -61.5t-46.5 -194.5v-82q0 -133 46.5 -194.5t140.5 -61.5q183 0 190 235h-187zM428 889h54q0 -70 -48 -108.5
t-131 -38.5t-131.5 38.5t-48.5 108.5h54q9 -93 126 -93q116 0 125 93z" />
    <glyph glyph-name="gbreve" unicode="&#x11f;" horiz-adv-x="516" 
d="M45 215v72q0 105 51 162t144 57q109 0 151 -71v65h55v-480q0 -104 -53.5 -160t-150.5 -56q-116 0 -166 81l43 31q37 -61 126 -61q72 0 109 43.5t37 121.5v41q-40 -67 -151 -67q-95 0 -145 57.5t-50 163.5zM244 45q147 0 147 169v79q0 162 -147 162q-71 0 -107.5 -43
t-36.5 -125v-72q0 -82 36.5 -126t107.5 -44zM326 690h48q-5 -113 -131 -113t-131 113h48q3 -36 22.5 -52.5t60.5 -16.5q77 0 83 69z" />
    <glyph glyph-name="Gdotaccent" unicode="&#x120;" horiz-adv-x="604" 
d="M303 283v54h246v-28q0 -158 -64 -236.5t-185 -78.5q-245 0 -245 310v82q0 310 245 310q99 0 163.5 -54.5t79.5 -160.5h-57q-32 161 -186 161q-94 0 -140.5 -61.5t-46.5 -194.5v-82q0 -133 46.5 -194.5t140.5 -61.5q183 0 190 235h-187zM336 869v-67h-67v67h67z" />
    <glyph glyph-name="gdotaccent" unicode="&#x121;" horiz-adv-x="516" 
d="M45 215v72q0 105 51 162t144 57q109 0 151 -71v65h55v-480q0 -104 -53.5 -160t-150.5 -56q-116 0 -166 81l43 31q37 -61 126 -61q72 0 109 43.5t37 121.5v41q-40 -67 -151 -67q-95 0 -145 57.5t-50 163.5zM244 45q147 0 147 169v79q0 162 -147 162q-71 0 -107.5 -43
t-36.5 -125v-72q0 -82 36.5 -126t107.5 -44zM277 690v-67h-67v67h67z" />
    <glyph glyph-name="Gcommaaccent" unicode="&#x122;" horiz-adv-x="604" 
d="M303 283v54h246v-28q0 -158 -64 -236.5t-185 -78.5q-245 0 -245 310v82q0 310 245 310q99 0 163.5 -54.5t79.5 -160.5h-57q-32 161 -186 161q-94 0 -140.5 -61.5t-46.5 -194.5v-82q0 -133 46.5 -194.5t140.5 -61.5q183 0 190 235h-187zM270 -64h63v-103l-63 -55v158z" />
    <glyph glyph-name="gcommaaccent" unicode="&#x123;" horiz-adv-x="516" 
d="M45 215v72q0 105 51 162t144 57q109 0 151 -71v65h55v-480q0 -104 -53.5 -160t-150.5 -56q-116 0 -166 81l43 31q37 -61 126 -61q72 0 109 43.5t37 121.5v41q-40 -67 -151 -67q-95 0 -145 57.5t-50 163.5zM244 45q147 0 147 169v79q0 162 -147 162q-71 0 -107.5 -43
t-36.5 -125v-72q0 -82 36.5 -126t107.5 -44zM289 588h-63v103l63 55v-158z" />
    <glyph glyph-name="Hcircumflex" unicode="&#x124;" horiz-adv-x="638" 
d="M90 690h58v-305h342v305h58v-690h-58v331h-342v-331h-58v690zM144 747l149 142h52l148 -142h-74l-100 100l-101 -100h-74z" />
    <glyph glyph-name="hcircumflex" unicode="&#x125;" 
d="M125 0h-55v690h55v-258q42 74 147 74q87 0 135.5 -54t48.5 -156v-296h-55v295q0 80 -35.5 119.5t-99.5 39.5q-68 0 -104.5 -41t-36.5 -113v-300zM-42 724l108 142h62l108 -142h-60l-79 105l-79 -105h-60z" />
    <glyph glyph-name="Hbar" unicode="&#x126;" horiz-adv-x="663" 
d="M502 534v156h58v-156h100v-54h-100v-480h-58v331h-342v-331h-58v480h-100v54h100v156h58v-156h342zM502 480h-342v-95h342v95z" />
    <glyph glyph-name="hbar" unicode="&#x127;" horiz-adv-x="545" 
d="M89 568h-94v51h94v71h55v-71h180v-51h-180v-136q42 74 148 74q86 0 134.5 -54.5t48.5 -155.5v-296h-55v295q0 79 -35.5 119t-98.5 40q-68 0 -104.5 -41t-37.5 -113v-300h-55v568z" />
    <glyph glyph-name="Imacron" unicode="&#x12a;" horiz-adv-x="258" 
d="M100 690h58v-690h-58v690zM279 787h-299v51h299v-51z" />
    <glyph glyph-name="imacron" unicode="&#x12b;" horiz-adv-x="213" 
d="M134 0h-55v500h55v-500zM236 621h-259v51h259v-51z" />
    <glyph glyph-name="Iogonek" unicode="&#x12e;" horiz-adv-x="258" 
d="M100 690h58v-690h-20l-32 -17l-23 -14q-25 -19 -25 -42q0 -35 57 -35q9 0 27 2l9 -41q-12 -3 -41 -3q-45 0 -73.5 19t-28.5 55q0 31 21.5 54.5t70.5 47.5v664z" />
    <glyph glyph-name="iogonek" unicode="&#x12f;" horiz-adv-x="225" 
d="M140 500v-500h-20l-32 -17l-23 -14q-25 -19 -25 -42q0 -35 57 -35q9 0 27 2l9 -41q-12 -3 -41 -3q-45 0 -73.5 19t-28.5 55q0 32 22.5 55.5t72.5 48.5v472h55zM146 623h-67v67h67v-67z" />
    <glyph glyph-name="Idot" unicode="&#x130;" horiz-adv-x="258" 
d="M100 690h58v-690h-58v690zM162 869v-67h-67v67h67z" />
    <glyph glyph-name="dotlessi" unicode="&#x131;" horiz-adv-x="213" 
d="M134 0h-55v500h55v-500z" />
    <glyph glyph-name="Jcircumflex" unicode="&#x134;" horiz-adv-x="505" 
d="M10 80l50 28q45 -60 128 -60q88 0 128.5 57t40.5 181v404h58v-404q0 -292 -227 -292q-124 0 -178 86zM213 747l149 142h52l148 -142h-74l-100 100l-101 -100h-74z" />
    <glyph glyph-name="jcircumflex" unicode="&#x135;" horiz-adv-x="235" 
d="M95 500h55v-536q0 -82 -33.5 -118t-116.5 -36v52q57 0 76 24.5t19 87.5v526zM-17 558l108 142h62l108 -142h-60l-79 105l-79 -105h-60z" />
    <glyph glyph-name="Kcommaaccent" unicode="&#x136;" horiz-adv-x="619" 
d="M327 414l285 -414h-70l-254 368l-140 -166v-202h-58v690h58v-401l337 401h76zM290 -64h63v-103l-63 -55v158z" />
    <glyph glyph-name="kcommaaccent" unicode="&#x137;" horiz-adv-x="489" 
d="M125 249l246 251h72l-214 -221l248 -279h-72l-216 238l-64 -66v-172h-55v690h55v-441zM216 -64h63v-103l-63 -55v158z" />
    <glyph glyph-name="Lacute" unicode="&#x139;" horiz-adv-x="501" 
d="M90 690h58v-636h348v-54h-406v690zM147 757h-53l72 129h68z" />
    <glyph glyph-name="lacute" unicode="&#x13a;" horiz-adv-x="268" 
d="M70 152v538h55v-524q0 -64 19 -90t76 -26v-52q-83 0 -116.5 36t-33.5 118zM123 726h-53l75 158h66z" />
    <glyph glyph-name="Lcommaaccent" unicode="&#x13b;" horiz-adv-x="501" 
d="M90 690h58v-636h348v-54h-406v690zM269 -64h63v-103l-63 -55v158z" />
    <glyph glyph-name="lcommaaccent" unicode="&#x13c;" horiz-adv-x="268" 
d="M70 152v538h55v-524q0 -64 19 -90t76 -26v-52q-83 0 -116.5 36t-33.5 118zM118 -64h63v-103l-63 -55v158z" />
    <glyph glyph-name="Lcaron" unicode="&#x13d;" horiz-adv-x="501" 
d="M90 690h58v-636h348v-54h-406v690zM302 705h68v-142l-68 -59v201z" />
    <glyph glyph-name="lcaron" unicode="&#x13e;" horiz-adv-x="297" 
d="M70 152v538h55v-524q0 -64 19 -90t76 -26v-52q-83 0 -116.5 36t-33.5 118zM221 690h63v-103l-63 -55v158z" />
    <glyph glyph-name="Ldot" unicode="&#x13f;" horiz-adv-x="501" 
d="M90 690h58v-636h348v-54h-406v690zM403 430v-67h-67v67h67z" />
    <glyph glyph-name="ldot" unicode="&#x140;" horiz-adv-x="247" 
d="M70 152v538h55v-524q0 -64 19 -90t76 -26v-52q-83 0 -116.5 36t-33.5 118zM261 438v-67h-67v67h67z" />
    <glyph glyph-name="Lslash" unicode="&#x141;" horiz-adv-x="501" 
d="M85 690h58v-281l162 130l32 -39l-194 -156v-290h348v-54h-406v298l-77 -62l-32 40l109 87v327z" />
    <glyph glyph-name="lslash" unicode="&#x142;" horiz-adv-x="255" 
d="M70 297l-76 -53l-28 42l104 72v332h55v-294l110 76l28 -41l-138 -96v-169q0 -64 19 -90t76 -26v-52q-83 0 -116.5 36t-33.5 118v145z" />
    <glyph glyph-name="Nacute" unicode="&#x143;" horiz-adv-x="638" 
d="M490 111v579h58v-690h-56l-344 574v-574h-58v690h55zM343 757h-53l72 129h68z" />
    <glyph glyph-name="nacute" unicode="&#x144;" 
d="M125 0h-55v500h55v-68q41 74 147 74q87 0 135.5 -54t48.5 -156v-296h-55v295q0 80 -35.5 119.5t-99.5 39.5q-68 0 -104.5 -41t-36.5 -113v-300zM296 567h-53l75 158h66z" />
    <glyph glyph-name="Ncommaaccent" unicode="&#x145;" horiz-adv-x="638" 
d="M490 111v579h58v-690h-56l-344 574v-574h-58v690h55zM291 -64h63v-103l-63 -55v158z" />
    <glyph glyph-name="ncommaaccent" unicode="&#x146;" 
d="M125 0h-55v500h55v-68q41 74 147 74q87 0 135.5 -54t48.5 -156v-296h-55v295q0 80 -35.5 119.5t-99.5 39.5q-68 0 -104.5 -41t-36.5 -113v-300zM231 -64h63v-103l-63 -55v158z" />
    <glyph glyph-name="Ncaron" unicode="&#x147;" horiz-adv-x="638" 
d="M490 111v579h58v-690h-56l-344 574v-574h-58v690h55zM144 889h74l101 -100l100 100h74l-148 -142h-52z" />
    <glyph glyph-name="ncaron" unicode="&#x148;" 
d="M125 0h-55v500h55v-68q41 74 147 74q87 0 135.5 -54t48.5 -156v-296h-55v295q0 80 -35.5 119.5t-99.5 39.5q-68 0 -104.5 -41t-36.5 -113v-300zM401 700l-108 -142h-62l-108 142h60l79 -105l79 105h60z" />
    <glyph glyph-name="Omacron" unicode="&#x14c;" horiz-adv-x="600" 
d="M545 386v-82q0 -156 -63.5 -233t-181.5 -77t-181.5 77t-63.5 233v82q0 154 63.5 232t181.5 78t181.5 -78t63.5 -232zM113 386v-82q0 -256 187 -256t187 256v82q0 256 -187 256t-187 -256zM450 787h-299v51h299v-51z" />
    <glyph glyph-name="omacron" unicode="&#x14d;" horiz-adv-x="496" 
d="M451 287v-73q0 -105 -52.5 -162.5t-150.5 -57.5q-97 0 -150 57.5t-53 162.5v73q0 105 53 162t150 57t150 -57t53 -162zM396 214v73q0 82 -38.5 125t-109.5 43q-72 0 -110 -43t-38 -125v-73q0 -82 37.5 -125.5t110.5 -43.5q72 0 110 44t38 125zM378 621h-259v51h259v-51z
" />
    <glyph glyph-name="Ohungarumlaut" unicode="&#x150;" horiz-adv-x="600" 
d="M545 386v-82q0 -156 -63.5 -233t-181.5 -77t-181.5 77t-63.5 233v82q0 154 63.5 232t181.5 78t181.5 -78t63.5 -232zM113 386v-82q0 -256 187 -256t187 256v82q0 256 -187 256t-187 -256zM226 757h-54l80 129h68zM403 757h-53l85 129h67z" />
    <glyph glyph-name="ohungarumlaut" unicode="&#x151;" horiz-adv-x="496" 
d="M451 287v-73q0 -105 -52.5 -162.5t-150.5 -57.5q-97 0 -150 57.5t-53 162.5v73q0 105 53 162t150 57t150 -57t53 -162zM396 214v73q0 82 -38.5 125t-109.5 43q-72 0 -110 -43t-38 -125v-73q0 -82 37.5 -125.5t110.5 -43.5q72 0 110 44t38 125zM351 567h-53l85 158h66z
M181 567h-52l75 158h65z" />
    <glyph glyph-name="OE" unicode="&#x152;" horiz-adv-x="940" 
d="M545 330v-276h348v-54h-406v78q-61 -84 -187 -84q-118 0 -181.5 77t-63.5 233v82q0 154 63.5 232t181.5 78q124 0 187 -85v79h406v-54h-348v-252h318v-54h-318zM113 386v-82q0 -256 187 -256t187 242v96q0 256 -187 256t-187 -256z" />
    <glyph glyph-name="oe" unicode="&#x153;" horiz-adv-x="835" 
d="M248 506q123 0 174 -91q48 91 167 91q94 0 143.5 -56.5t49.5 -162.5v-51h-331v-21q0 -80 39 -125t113 -45q90 0 130 61l44 -31q-53 -81 -171 -81q-129 0 -182 95q-50 -95 -176 -95q-97 0 -150 57.5t-53 162.5v73q0 105 53 162t150 57zM396 215v72q0 82 -38.5 125
t-109.5 43q-72 0 -110 -43t-38 -125v-73q0 -82 37.5 -125.5t110.5 -43.5q71 0 109.5 44.5t38.5 125.5zM451 287v-1h276v1q0 82 -35 125t-103 43t-103 -43t-35 -125z" />
    <glyph glyph-name="Racute" unicode="&#x154;" horiz-adv-x="604" 
d="M409 305l160 -305h-65l-153 295q-20 -2 -46 -2h-157v-293h-58v690h215q118 0 182 -51.5t64 -147.5q0 -147 -142 -186zM148 636v-289h157q188 0 188 144q0 145 -188 145h-157zM299 757h-53l72 129h68z" />
    <glyph glyph-name="racute" unicode="&#x155;" horiz-adv-x="387" 
d="M246 454q-57 0 -89 -41.5t-32 -111.5v-301h-55v500h55v-68q35 74 126 74q89 0 141 -69l-46 -34q-39 51 -100 51zM257 567h-53l75 158h66z" />
    <glyph glyph-name="Rcommaaccent" unicode="&#x156;" horiz-adv-x="604" 
d="M409 305l160 -305h-65l-153 295q-20 -2 -46 -2h-157v-293h-58v690h215q118 0 182 -51.5t64 -147.5q0 -147 -142 -186zM148 636v-289h157q188 0 188 144q0 145 -188 145h-157zM267 -64h63v-103l-63 -55v158z" />
    <glyph glyph-name="rcommaaccent" unicode="&#x157;" horiz-adv-x="387" 
d="M246 454q-57 0 -89 -41.5t-32 -111.5v-301h-55v500h55v-68q35 74 126 74q89 0 141 -69l-46 -34q-39 51 -100 51zM67 -64h63v-103l-63 -55v158z" />
    <glyph glyph-name="Rcaron" unicode="&#x158;" horiz-adv-x="604" 
d="M409 305l160 -305h-65l-153 295q-20 -2 -46 -2h-157v-293h-58v690h215q118 0 182 -51.5t64 -147.5q0 -147 -142 -186zM148 636v-289h157q188 0 188 144q0 145 -188 145h-157zM115 889h74l101 -100l100 100h74l-148 -142h-52z" />
    <glyph glyph-name="rcaron" unicode="&#x159;" horiz-adv-x="387" 
d="M246 454q-57 0 -89 -41.5t-32 -111.5v-301h-55v500h55v-68q35 74 126 74q89 0 141 -69l-46 -34q-39 51 -100 51zM384 700l-108 -142h-62l-108 142h60l79 -105l79 105h60z" />
    <glyph glyph-name="Sacute" unicode="&#x15a;" horiz-adv-x="569" 
d="M506 583l-46 -33q-62 92 -179 92q-76 0 -117 -31.5t-41 -92.5q0 -67 44 -97q47 -30 135 -49q111 -24 163 -66q53 -41 53 -132q0 -74 -56 -127t-171 -53q-164 0 -241 113l47 33q38 -48 81.5 -70t112.5 -22q84 0 126.5 33.5t42.5 90.5q0 62 -40.5 95.5t-137.5 52.5
q-109 21 -163 67.5t-54 130.5q0 81 55.5 129.5t162.5 48.5q152 0 223 -113zM292 757h-53l72 129h68z" />
    <glyph glyph-name="sacute" unicode="&#x15b;" horiz-adv-x="461" 
d="M398 423l-42 -30q-24 34 -53.5 47.5t-82.5 13.5q-55 0 -86.5 -21t-31.5 -61q0 -45 31.5 -64.5t101.5 -28.5q77 -10 124 -38q54 -31 54 -109q0 -65 -45.5 -101.5t-137.5 -36.5q-129 0 -188 83l43 30q24 -33 57 -47t89 -14q127 0 127 85q0 45 -34.5 67t-114.5 32t-121 42.5
t-41 98.5q0 63 45.5 99t128.5 36q126 0 177 -83zM248 567h-53l75 158h66z" />
    <glyph glyph-name="Scircumflex" unicode="&#x15c;" horiz-adv-x="569" 
d="M506 583l-46 -33q-62 92 -179 92q-76 0 -117 -31.5t-41 -92.5q0 -67 44 -97q47 -30 135 -49q111 -24 163 -66q53 -41 53 -132q0 -74 -56 -127t-171 -53q-164 0 -241 113l47 33q38 -48 81.5 -70t112.5 -22q84 0 126.5 33.5t42.5 90.5q0 62 -40.5 95.5t-137.5 52.5
q-109 21 -163 67.5t-54 130.5q0 81 55.5 129.5t162.5 48.5q152 0 223 -113zM113 747l149 142h52l148 -142h-74l-100 100l-101 -100h-74z" />
    <glyph glyph-name="scircumflex" unicode="&#x15d;" horiz-adv-x="461" 
d="M398 423l-42 -30q-24 34 -53.5 47.5t-82.5 13.5q-55 0 -86.5 -21t-31.5 -61q0 -45 31.5 -64.5t101.5 -28.5q77 -10 124 -38q54 -31 54 -109q0 -65 -45.5 -101.5t-137.5 -36.5q-129 0 -188 83l43 30q24 -33 57 -47t89 -14q127 0 127 85q0 45 -34.5 67t-114.5 32t-121 42.5
t-41 98.5q0 63 45.5 99t128.5 36q126 0 177 -83zM86 558l108 142h62l108 -142h-60l-79 105l-79 -105h-60z" />
    <glyph glyph-name="Scedilla" unicode="&#x15e;" horiz-adv-x="579" 
d="M256 -55l11 50q-147 7 -217 112l47 33q38 -48 81.5 -70t112.5 -22q84 0 126.5 33.5t42.5 90.5q0 62 -40.5 95.5t-137.5 52.5q-109 21 -163 67.5t-54 130.5q0 81 55.5 129.5t162.5 48.5q152 0 223 -113l-46 -33q-62 92 -179 92q-76 0 -117 -31.5t-41 -92.5q0 -67 44 -97
q47 -30 135 -49q111 -24 163 -66q53 -41 53 -132q0 -72 -52 -124t-158 -56l-4 -15q72 -17 72 -76q0 -39 -29.5 -60.5t-79.5 -21.5q-25 0 -37 3l9 40q5 -1 25 -1q62 0 62 40q0 38 -70 42z" />
    <glyph glyph-name="scedilla" unicode="&#x15f;" horiz-adv-x="461" 
d="M199 -55l10 50q-114 4 -167 82l43 30q24 -33 57 -47t89 -14q127 0 127 85q0 45 -34.5 67t-114.5 32t-121 42.5t-41 98.5q0 63 45.5 99t128.5 36q126 0 177 -83l-42 -30q-24 34 -53.5 47.5t-82.5 13.5q-55 0 -86.5 -21t-31.5 -61q0 -45 31.5 -64.5t101.5 -28.5
q77 -10 124 -38q54 -31 54 -109q0 -61 -40 -97t-121 -40l-5 -17q71 -17 71 -75q0 -39 -29.5 -60.5t-79.5 -21.5q-23 0 -37 3l9 40q5 -1 25 -1q62 0 62 40q0 37 -69 42z" />
    <glyph glyph-name="Scaron" unicode="&#x160;" horiz-adv-x="569" 
d="M506 583l-46 -33q-62 92 -179 92q-76 0 -117 -31.5t-41 -92.5q0 -67 44 -97q47 -30 135 -49q111 -24 163 -66q53 -41 53 -132q0 -74 -56 -127t-171 -53q-164 0 -241 113l47 33q38 -48 81.5 -70t112.5 -22q84 0 126.5 33.5t42.5 90.5q0 62 -40.5 95.5t-137.5 52.5
q-109 21 -163 67.5t-54 130.5q0 81 55.5 129.5t162.5 48.5q152 0 223 -113zM108 889h74l101 -100l100 100h74l-148 -142h-52z" />
    <glyph glyph-name="scaron" unicode="&#x161;" horiz-adv-x="461" 
d="M398 423l-42 -30q-24 34 -53.5 47.5t-82.5 13.5q-55 0 -86.5 -21t-31.5 -61q0 -45 31.5 -64.5t101.5 -28.5q77 -10 124 -38q54 -31 54 -109q0 -65 -45.5 -101.5t-137.5 -36.5q-129 0 -188 83l43 30q24 -33 57 -47t89 -14q127 0 127 85q0 45 -34.5 67t-114.5 32t-121 42.5
t-41 98.5q0 63 45.5 99t128.5 36q126 0 177 -83zM365 700l-108 -142h-62l-108 142h60l79 -105l79 105h60z" />
    <glyph glyph-name="Tcedilla" unicode="&#x162;" horiz-adv-x="516" 
d="M10 636v54h496v-54h-219v-636h-8l-6 -21q72 -17 72 -76q0 -39 -29.5 -60.5t-79.5 -21.5q-25 0 -37 3l9 40q5 -1 25 -1q62 0 62 40q0 38 -70 42l11 55h-7v636h-219z" />
    <glyph glyph-name="tcedilla" unicode="&#x163;" horiz-adv-x="315" 
d="M164 -55l13 61q-47 12 -67 47t-20 101v295h-64v51h64v110h55v-110h123v-51h-123v-280q0 -66 16 -91t74 -25h33v-53h-50l-6 -22q71 -17 71 -75q0 -39 -29.5 -60.5t-79.5 -21.5q-24 0 -37 3l9 40q5 -1 25 -1q62 0 62 40q0 37 -69 42z" />
    <glyph glyph-name="Tcaron" unicode="&#x164;" horiz-adv-x="516" 
d="M10 636v54h496v-54h-219v-636h-58v636h-219zM83 889h74l101 -100l100 100h74l-148 -142h-52z" />
    <glyph glyph-name="tcaron" unicode="&#x165;" horiz-adv-x="390" 
d="M90 449h-64v51h64v110h55v-110h123v-51h-123v-280q0 -66 16 -91t74 -25h33v-53h-35q-80 0 -111.5 35.5t-31.5 118.5v295zM288 690h63v-103l-63 -55v158z" />
    <glyph glyph-name="Umacron" unicode="&#x16a;" horiz-adv-x="670" 
d="M90 282v408h58v-408q0 -234 187 -234t187 234v408h58v-408q0 -145 -63 -216.5t-182 -71.5t-182 71.5t-63 216.5zM485 787h-299v51h299v-51z" />
    <glyph glyph-name="umacron" unicode="&#x16b;" 
d="M401 500h55v-500h-55v67q-42 -73 -148 -73q-87 0 -135 53.5t-48 156.5v296h55v-296q0 -79 35.5 -118.5t98.5 -39.5q68 0 105 41t37 113v300zM393 621h-259v51h259v-51z" />
    <glyph glyph-name="Ubreve" unicode="&#x16c;" horiz-adv-x="670" 
d="M90 282v408h58v-408q0 -234 187 -234t187 234v408h58v-408q0 -145 -63 -216.5t-182 -71.5t-182 71.5t-63 216.5zM461 889h54q0 -70 -48 -108.5t-131 -38.5t-131.5 38.5t-48.5 108.5h54q9 -93 126 -93q116 0 125 93z" />
    <glyph glyph-name="ubreve" unicode="&#x16d;" 
d="M401 500h55v-500h-55v67q-42 -73 -148 -73q-87 0 -135 53.5t-48 156.5v296h55v-296q0 -79 35.5 -118.5t98.5 -39.5q68 0 105 41t37 113v300zM346 690h48q-5 -113 -131 -113t-131 113h48q3 -36 22.5 -52.5t60.5 -16.5q77 0 83 69z" />
    <glyph glyph-name="Uring" unicode="&#x16e;" horiz-adv-x="670" 
d="M90 282v408h58v-408q0 -234 187 -234t187 234v408h58v-408q0 -145 -63 -216.5t-182 -71.5t-182 71.5t-63 216.5zM226 800q0 44 31 71.5t78 27.5q48 0 79 -27.5t31 -71.5t-31 -71t-79 -27q-47 0 -78 27t-31 71zM267 800q0 -27 19 -42.5t49 -15.5q31 0 49.5 15.5t18.5 42.5
t-18.5 42.5t-49.5 15.5q-30 0 -49 -15.5t-19 -42.5z" />
    <glyph glyph-name="uring" unicode="&#x16f;" 
d="M401 500h55v-500h-55v67q-42 -73 -148 -73q-87 0 -135 53.5t-48 156.5v296h55v-296q0 -79 35.5 -118.5t98.5 -39.5q68 0 105 41t37 113v300zM154 646q0 46 32 78t77 32q46 0 78 -32t32 -78q0 -45 -32 -77t-78 -32q-45 0 -77 32t-32 77zM263 714q-28 0 -48 -20t-20 -48
t20 -48t48 -20t48 20t20 48t-19.5 48t-48.5 20z" />
    <glyph glyph-name="Uhungarumlaut" unicode="&#x170;" horiz-adv-x="670" 
d="M90 282v408h58v-408q0 -234 187 -234t187 234v408h58v-408q0 -145 -63 -216.5t-182 -71.5t-182 71.5t-63 216.5zM267 757h-54l80 129h68zM444 757h-53l85 129h67z" />
    <glyph glyph-name="uhungarumlaut" unicode="&#x171;" 
d="M401 500h55v-500h-55v67q-42 -73 -148 -73q-87 0 -135 53.5t-48 156.5v296h55v-296q0 -79 35.5 -118.5t98.5 -39.5q68 0 105 41t37 113v300zM368 567h-53l85 158h66zM198 567h-52l75 158h65z" />
    <glyph glyph-name="Uogonek" unicode="&#x172;" horiz-adv-x="670" 
d="M580 690v-408q0 -247 -182 -282l-32 -17l-23 -14q-25 -19 -25 -42q0 -35 57 -35q9 0 27 2l9 -41q-12 -3 -41 -3q-45 0 -73.5 19t-28.5 55q0 40 40 71q-218 17 -218 287v408h58v-408q0 -234 187 -234t187 234v408h58z" />
    <glyph glyph-name="uogonek" unicode="&#x173;" 
d="M401 500h55v-500h-17l-32 -17l-23 -14q-25 -19 -25 -42q0 -35 57 -35q9 0 27 2l9 -41q-12 -3 -41 -3q-45 0 -73.5 19t-28.5 55q0 31 21.5 54.5t70.5 47.5v41q-42 -73 -148 -73q-87 0 -135 53.5t-48 156.5v296h55v-296q0 -79 35.5 -118.5t98.5 -39.5q68 0 105 41t37 113
v300z" />
    <glyph glyph-name="Ydieresis" unicode="&#x178;" horiz-adv-x="536" 
d="M239 302l-224 388h68l185 -324l185 324h68l-224 -388v-302h-58v302zM407 869v-67h-67v67h67zM197 869v-67h-67v67h67z" />
    <glyph glyph-name="Zacute" unicode="&#x179;" horiz-adv-x="514" 
d="M32 636v54h439v-43l-365 -593h375v-54h-449v43l365 593h-365zM271 757h-53l72 129h68z" />
    <glyph glyph-name="zacute" unicode="&#x17a;" horiz-adv-x="449" 
d="M45 0v43l287 406h-287v51h359v-43l-285 -406h285v-51h-359zM253 567h-53l75 158h66z" />
    <glyph glyph-name="Zdotaccent" unicode="&#x17b;" horiz-adv-x="514" 
d="M32 636v54h439v-43l-365 -593h375v-54h-449v43l365 593h-365zM290 869v-67h-67v67h67z" />
    <glyph glyph-name="zdotaccent" unicode="&#x17c;" horiz-adv-x="449" 
d="M45 0v43l287 406h-287v51h359v-43l-285 -406h285v-51h-359zM258 690v-67h-67v67h67z" />
    <glyph glyph-name="Zcaron" unicode="&#x17d;" horiz-adv-x="514" 
d="M32 636v54h439v-43l-365 -593h375v-54h-449v43l365 593h-365zM82 889h74l101 -100l100 100h74l-148 -142h-52z" />
    <glyph glyph-name="zcaron" unicode="&#x17e;" horiz-adv-x="449" 
d="M45 0v43l287 406h-287v51h359v-43l-285 -406h285v-51h-359zM363 700l-108 -142h-62l-108 142h60l79 -105l79 105h60z" />
    <glyph glyph-name="uni018F" unicode="&#x18f;" horiz-adv-x="604" 
d="M304 642q-144 0 -185 -143l-51 20q23 88 84.5 132.5t151.5 44.5q245 0 245 -310v-82q0 -310 -245 -310q-249 0 -249 310v33h436v49q0 256 -187 256zM304 48q179 0 186 235h-377q7 -235 191 -235z" />
    <glyph glyph-name="florin" unicode="&#x192;" horiz-adv-x="490" 
d="M141 449v51h64v36q0 83 31.5 118.5t110.5 35.5h23v-53h-21q-56 0 -73 -26q-16 -25 -16 -89v-22h110v-51h-110v-485q0 -82 -33.5 -118t-116.5 -36v52q62 0 78 28q17 28 17 92v467h-64z" />
    <glyph glyph-name="uni01DD" unicode="&#x1dd;" horiz-adv-x="482" 
d="M51 213v51h331v21q0 79 -39 124.5t-113 45.5q-91 0 -131 -61l-43 30q51 82 171 82q99 0 154.5 -58.5t55.5 -162.5v-72q0 -106 -50 -162.5t-143 -56.5q-94 0 -143.5 56t-49.5 163zM382 213v1h-276v-1q0 -82 35 -125t103 -43t103 43t35 125z" />
    <glyph glyph-name="Scommaaccent" unicode="&#x218;" horiz-adv-x="569" 
d="M506 583l-46 -33q-62 92 -179 92q-76 0 -117 -31.5t-41 -92.5q0 -67 44 -97q47 -30 135 -49q111 -24 163 -66q53 -41 53 -132q0 -74 -56 -127t-171 -53q-164 0 -241 113l47 33q38 -48 81.5 -70t112.5 -22q84 0 126.5 33.5t42.5 90.5q0 62 -40.5 95.5t-137.5 52.5
q-109 21 -163 67.5t-54 130.5q0 81 55.5 129.5t162.5 48.5q152 0 223 -113zM259 -64h63v-103l-63 -55v158z" />
    <glyph glyph-name="scommaaccent" unicode="&#x219;" horiz-adv-x="461" 
d="M398 423l-42 -30q-24 34 -53.5 47.5t-82.5 13.5q-55 0 -86.5 -21t-31.5 -61q0 -45 31.5 -64.5t101.5 -28.5q77 -10 124 -38q54 -31 54 -109q0 -65 -45.5 -101.5t-137.5 -36.5q-129 0 -188 83l43 30q24 -33 57 -47t89 -14q127 0 127 85q0 45 -34.5 67t-114.5 32t-121 42.5
t-41 98.5q0 63 45.5 99t128.5 36q126 0 177 -83zM201 -64h63v-103l-63 -55v158z" />
    <glyph glyph-name="Tcommaaccent" unicode="&#x21a;" horiz-adv-x="516" 
d="M10 636v54h496v-54h-219v-636h-58v636h-219zM226 -64h63v-103l-63 -55v158z" />
    <glyph glyph-name="tcommaaccent" unicode="&#x21b;" horiz-adv-x="308" 
d="M90 449h-64v51h64v110h55v-110h123v-51h-123v-280q0 -66 16 -91t74 -25h33v-53h-35q-80 0 -111.5 35.5t-31.5 118.5v295zM156 -64h63v-103l-63 -55v158z" />
    <glyph glyph-name="uni0237" unicode="&#x237;" horiz-adv-x="235" 
d="M95 500h55v-536q0 -82 -33.5 -118t-116.5 -36v52q57 0 76 24.5t19 87.5v526z" />
    <glyph glyph-name="uni0259" unicode="&#x259;" horiz-adv-x="482" 
d="M51 213v51h331v21q0 79 -39 124.5t-113 45.5q-91 0 -131 -61l-43 30q51 82 171 82q99 0 154.5 -58.5t55.5 -162.5v-72q0 -106 -50 -162.5t-143 -56.5q-94 0 -143.5 56t-49.5 163zM382 213v1h-276v-1q0 -82 35 -125t103 -43t103 43t35 125z" />
    <glyph glyph-name="afii57929" unicode="&#x2bc;" horiz-adv-x="125" 
d="M37 500h63v-153l-63 -55v208z" />
    <glyph glyph-name="circumflex" unicode="&#x2c6;" horiz-adv-x="382" 
d="M52 558l108 142h62l108 -142h-60l-79 105l-79 -105h-60z" />
    <glyph glyph-name="caron" unicode="&#x2c7;" horiz-adv-x="381" 
d="M329 700l-108 -142h-62l-108 142h60l79 -105l79 105h60z" />
    <glyph glyph-name="breve" unicode="&#x2d8;" horiz-adv-x="379" 
d="M272 690h48q-5 -113 -131 -113t-131 113h48q3 -36 22.5 -52.5t60.5 -16.5q77 0 83 69z" />
    <glyph glyph-name="dotaccent" unicode="&#x2d9;" horiz-adv-x="280" 
d="M173 690v-67h-67v67h67z" />
    <glyph glyph-name="ring" unicode="&#x2da;" horiz-adv-x="358" 
d="M69 646q0 46 32 78t77 32q46 0 78 -32t32 -78q0 -45 -32 -77t-78 -32q-45 0 -77 32t-32 77zM130 694q-20 -20 -20 -48t20 -48t48 -20t48 20t20 48t-20 48t-48 20t-48 -20z" />
    <glyph glyph-name="ogonek" unicode="&#x2db;" horiz-adv-x="318" 
d="M209 41l8 -41l-32 -17l-23 -14q-25 -19 -25 -42q0 -35 57 -35q9 0 27 2l9 -41q-12 -3 -41 -3q-45 0 -73.5 19t-28.5 55q0 35 27.5 60.5t94.5 56.5z" />
    <glyph glyph-name="tilde" unicode="&#x2dc;" horiz-adv-x="416" 
d="M266 603q-24 0 -60 15q-34 15 -55 15q-36 0 -65 -29l-35 31q42 47 100 47q22 0 58 -15t57 -15q36 0 64 30l35 -32q-42 -47 -99 -47z" />
    <glyph glyph-name="hungarumlaut" unicode="&#x2dd;" horiz-adv-x="431" 
d="M277 567h-53l85 158h66zM107 567h-52l75 158h65z" />
    <glyph glyph-name="acutecomb" unicode="&#x301;" horiz-adv-x="0" 
d="M-228 567h-53l75 158h66z" />
    <glyph glyph-name="uni0394" unicode="&#x2206;" horiz-adv-x="506" 
d="M210 690h60q12 -36 103 -340l108 -350h-482q19 58 105 345q92 303 106 345zM76 54h328q-18 52 -84 276q-62 216 -80 269q-16 -46 -84 -277q-60 -209 -80 -268z" />
    <glyph glyph-name="uni0394" unicode="&#x394;" horiz-adv-x="506" 
d="M210 690h60q12 -36 103 -340l108 -350h-482q19 58 105 345q92 303 106 345zM76 54h328q-18 52 -84 276q-62 216 -80 269q-16 -46 -84 -277q-60 -209 -80 -268z" />
    <glyph glyph-name="uni03A9" unicode="&#x2126;" horiz-adv-x="620" 
d="M460 54h95v-54h-184v54q63 22 94.5 78.5t31.5 166.5v92q0 251 -187 251t-187 -251v-92q0 -110 31.5 -166.5t94.5 -78.5v-54h-184v54h95q-50 35 -72.5 92t-22.5 153v92q0 154 63 229.5t182 75.5t182 -75.5t63 -229.5v-92q0 -95 -22.5 -152t-72.5 -93z" />
    <glyph glyph-name="uni03A9" unicode="&#x3a9;" horiz-adv-x="620" 
d="M460 54h95v-54h-184v54q63 22 94.5 78.5t31.5 166.5v92q0 251 -187 251t-187 -251v-92q0 -110 31.5 -166.5t94.5 -78.5v-54h-184v54h95q-50 35 -72.5 92t-22.5 153v92q0 154 63 229.5t182 75.5t182 -75.5t63 -229.5v-92q0 -95 -22.5 -152t-72.5 -93z" />
    <glyph glyph-name="pi" unicode="&#x3c0;" horiz-adv-x="595" 
d="M-5 449v51h573v-51h-95v-283q0 -64 19 -90t76 -26v-52q-83 0 -116.5 36t-33.5 118v297h-276v-449h-55v449h-92z" />
    <glyph glyph-name="afii10023" unicode="&#x401;" horiz-adv-x="544" 
d="M91 0v690h406v-54h-348v-252h318v-54h-318v-276h348v-54h-406zM217 869v-65h-65v65h65zM427 869v-65h-65v65h65z" />
    <glyph glyph-name="afii10051" unicode="&#x402;" horiz-adv-x="727" 
d="M606 164v35q0 100 -38.5 139.5t-127.5 39.5q-110 0 -153 -60v-318h-58v636h-219v54h496v-54h-219v-251q20 19 64.5 33t95.5 14q119 0 168 -55q49 -53 49 -178v-37q0 -81 -33 -121q-40 -43 -128 -41h-26v54h26q57 0 80 25t23 85z" />
    <glyph glyph-name="afii10052" unicode="&#x403;" horiz-adv-x="481" 
d="M90 690h386v-54h-328v-636h-58v690zM296 757h-53l72 129h68z" />
    <glyph glyph-name="afii10053" unicode="&#x404;" horiz-adv-x="580" 
d="M543 481h-57q-32 161 -186 161q-94 0 -140.5 -61.5t-46.5 -194.5v-12h284v-54h-284v-16q0 -135 46.5 -195.5t140.5 -60.5q153 0 186 163h56q-15 -107 -79.5 -162t-162.5 -55q-245 0 -245 310v82q0 310 245 310q99 0 163.5 -54.5t79.5 -160.5z" />
    <glyph glyph-name="afii10054" unicode="&#x405;" horiz-adv-x="569" 
d="M506 583l-46 -33q-62 92 -179 92q-76 0 -117 -31.5t-41 -92.5q0 -67 44 -97q47 -30 135 -49q111 -24 163 -66q53 -41 53 -132q0 -74 -56 -127t-171 -53q-164 0 -241 113l47 33q38 -48 81.5 -70t112.5 -22q84 0 126.5 33.5t42.5 90.5q0 62 -40.5 95.5t-137.5 52.5
q-109 21 -163 67.5t-54 130.5q0 81 55.5 129.5t162.5 48.5q152 0 223 -113z" />
    <glyph glyph-name="afii10055" unicode="&#x406;" horiz-adv-x="258" 
d="M100 690h58v-690h-58v690zM160 869v-67h-67v67h67z" />
    <glyph glyph-name="afii10056" unicode="&#x407;" horiz-adv-x="258" 
d="M76 869v-65h-65v65h65zM246 869v-65h-65v65h65zM100 690h58v-690h-58v690z" />
    <glyph glyph-name="afii10057" unicode="&#x408;" horiz-adv-x="505" 
d="M10 80l50 28q45 -60 128 -60q88 0 128.5 57t40.5 181v404h58v-404q0 -292 -227 -292q-124 0 -178 86z" />
    <glyph glyph-name="afii10058" unicode="&#x409;" horiz-adv-x="1001" 
d="M149 532v158h404v-285h165q122 0 180 -60q58 -59 58 -143t-58 -143q-59 -59 -180 -59h-223v636h-288v-104q0 -339 -36 -429q-21 -55 -66 -81q-33 -18 -80 -28v63q70 13 94 78q30 83 30 397zM553 351v-297h165q87 0 133.5 40t46.5 108q0 69 -46.5 109t-133.5 40h-165z" />
    <glyph glyph-name="afii10059" unicode="&#x40a;" horiz-adv-x="996" 
d="M90 690h58v-296h342v296h58v-285h165q121 0 180 -60q58 -59 58 -143t-58 -143q-59 -59 -180 -59h-223v340h-342v-340h-58v690zM548 351v-297h165q87 0 133.5 40t46.5 108q0 69 -46.5 109t-133.5 40h-165z" />
    <glyph glyph-name="afii10060" unicode="&#x40b;" horiz-adv-x="727" 
d="M677 0h-58v194q0 101 -38 142.5t-129 41.5q-118 0 -165 -80v-298h-58v636h-219v54h496v-54h-219v-267q23 26 69 44.5t103 18.5q119 0 168.5 -56.5t49.5 -181.5v-194z" />
    <glyph glyph-name="afii10061" unicode="&#x40c;" horiz-adv-x="600" 
d="M332 351l256 -351h-71l-232 320h-137v-320h-58v690h58v-316h132l201 316h66zM302 757h-53l72 129h68z" />
    <glyph glyph-name="afii10062" unicode="&#x40e;" horiz-adv-x="577" 
d="M303 207l196 483h61l-235 -574q-30 -71 -69 -97q-37 -25 -123 -25v54q65 0 91 16q28 16 49 69l-246 557h64zM413 889h56q0 -142 -169 -142q-170 0 -170 142h56q0 -96 114 -96q113 0 113 96z" />
    <glyph glyph-name="afii10145" unicode="&#x40f;" horiz-adv-x="638" 
d="M348 0v-130h-58v130h-200v690h58v-636h342v636h58v-690h-200z" />
    <glyph glyph-name="afii10017" unicode="&#x410;" horiz-adv-x="551" 
d="M130 168l-56 -168h-62l236 690h54l236 -690h-61l-57 168h-290zM402 222l-127 375l-127 -375h254z" />
    <glyph glyph-name="afii10018" unicode="&#x411;" horiz-adv-x="596" 
d="M90 690h415v-54h-357v-231h165q121 0 180 -60q58 -59 58 -143t-58 -143q-59 -59 -180 -59h-223v690zM313 351h-165v-297h165q87 0 133.5 40t46.5 108q0 69 -46.5 109t-133.5 40z" />
    <glyph glyph-name="afii10019" unicode="&#x412;" horiz-adv-x="596" 
d="M90 0v690h204q235 0 235 -175q0 -56 -33.5 -99.5t-85.5 -55.5q67 -15 104 -58.5t37 -109.5q0 -80 -57 -136q-58 -56 -176 -56h-228zM299 331h-151v-277h170q85 0 130 37t45 101q0 139 -194 139zM294 636h-146v-251h164q78 0 118.5 35.5t40.5 94.5q0 60 -41 90.5
t-136 30.5z" />
    <glyph glyph-name="afii10020" unicode="&#x413;" horiz-adv-x="481" 
d="M90 690h386v-54h-328v-636h-58v690z" />
    <glyph glyph-name="afii10021" unicode="&#x414;" horiz-adv-x="666" 
d="M72 0v-130h-57v184h34q20 13 40.5 46.5t32.5 72.5q33 105 33 335v182h404v-636h82v-184h-58v130h-511zM170 135q-20 -51 -45 -81h376v582h-288v-128q0 -256 -43 -373z" />
    <glyph glyph-name="afii10022" unicode="&#x415;" horiz-adv-x="543" 
d="M90 0v690h406v-54h-348v-252h318v-54h-318v-276h348v-54h-406z" />
    <glyph glyph-name="afii10024" unicode="&#x416;" horiz-adv-x="863" 
d="M290 320l-208 -320h-70l226 349l-185 341h65l172 -316h112v316h58v-316h113l172 316h64l-186 -341l227 -349h-70l-208 320h-112v-320h-58v320h-112z" />
    <glyph glyph-name="afii10025" unicode="&#x417;" horiz-adv-x="552" 
d="M263 333h-58v54h62q160 0 160 131q0 57 -37.5 90.5t-110.5 33.5q-68 0 -113 -34t-58 -96h-56q12 84 77 134t147 50q99 0 154 -47t55 -131q0 -112 -114 -155q61 -14 98.5 -61t37.5 -110q0 -82 -55 -140t-169 -58q-197 0 -243 196h58q22 -73 66 -107.5t119 -34.5
q79 0 122.5 39t43.5 105q0 141 -186 141z" />
    <glyph glyph-name="afii10026" unicode="&#x418;" horiz-adv-x="656" 
d="M90 0v690h58v-576l368 576h50v-690h-58v573l-367 -573h-51z" />
    <glyph glyph-name="afii10027" unicode="&#x419;" horiz-adv-x="656" 
d="M439 884h56q0 -136 -162 -136t-162 136h56q0 -90 106 -90t106 90zM90 0v690h58v-576l368 576h50v-690h-58v573l-367 -573h-51z" />
    <glyph glyph-name="afii10028" unicode="&#x41a;" horiz-adv-x="600" 
d="M332 351l256 -351h-71l-232 320h-137v-320h-58v690h58v-316h132l201 316h66z" />
    <glyph glyph-name="afii10029" unicode="&#x41b;" horiz-adv-x="643" 
d="M149 532v158h404v-690h-58v636h-288v-104q0 -339 -36 -429q-21 -55 -66 -81q-33 -18 -80 -28v63q70 13 94 78q30 83 30 397z" />
    <glyph glyph-name="afii10030" unicode="&#x41c;" horiz-adv-x="752" 
d="M90 690h56l230 -459l229 459h57v-690h-58v563l-203 -409h-52l-201 408v-562h-58v690z" />
    <glyph glyph-name="afii10031" unicode="&#x41d;" horiz-adv-x="638" 
d="M90 690h58v-305h342v305h58v-690h-58v331h-342v-331h-58v690z" />
    <glyph glyph-name="afii10032" unicode="&#x41e;" horiz-adv-x="600" 
d="M545 386v-82q0 -156 -63.5 -233t-181.5 -77t-181.5 77t-63.5 233v82q0 154 63.5 232t181.5 78t181.5 -78t63.5 -232zM113 386v-82q0 -256 187 -256t187 256v82q0 256 -187 256t-187 -256z" />
    <glyph glyph-name="afii10033" unicode="&#x41f;" horiz-adv-x="638" 
d="M90 0v690h458v-690h-58v636h-342v-636h-58z" />
    <glyph glyph-name="afii10034" unicode="&#x420;" horiz-adv-x="587" 
d="M300 273h-152v-273h-58v690h210q119 0 185 -55t66 -154q0 -98 -66 -153t-185 -55zM148 636v-309h152q193 0 193 154q0 155 -193 155h-152z" />
    <glyph glyph-name="afii10035" unicode="&#x421;" horiz-adv-x="580" 
d="M543 481h-57q-32 161 -186 161q-94 0 -140.5 -61.5t-46.5 -194.5v-82q0 -135 46.5 -195.5t140.5 -60.5q153 0 186 163h56q-15 -107 -79.5 -162t-162.5 -55q-245 0 -245 310v82q0 310 245 310q99 0 163.5 -54.5t79.5 -160.5z" />
    <glyph glyph-name="afii10036" unicode="&#x422;" horiz-adv-x="516" 
d="M10 636v54h496v-54h-219v-636h-58v636h-219z" />
    <glyph glyph-name="afii10037" unicode="&#x423;" horiz-adv-x="577" 
d="M303 207l196 483h61l-235 -574q-30 -71 -69 -97q-37 -25 -123 -25v54q65 0 91 16q28 16 49 69l-246 557h64z" />
    <glyph glyph-name="afii10038" unicode="&#x424;" horiz-adv-x="746" 
d="M55 324v42q0 270 289 270v54h58v-54q289 0 289 -270v-42q0 -270 -289 -270v-54h-58v54q-289 0 -289 270zM344 108v474q-51 0 -89 -9t-72 -31t-52 -66.5t-18 -109.5v-42q0 -130 72 -176q65 -40 159 -40zM402 582v-474q93 0 158 40q73 45 73 176v42q0 112 -58 164t-173 52z
" />
    <glyph glyph-name="afii10039" unicode="&#x425;" horiz-adv-x="552" 
d="M276 301l-184 -301h-65l215 357l-196 333h65l165 -280l164 280h66l-197 -333l216 -357h-66z" />
    <glyph glyph-name="afii10040" unicode="&#x426;" horiz-adv-x="650" 
d="M630 54v-184h-58v130h-482v690h58v-636h342v636h58v-636h82z" />
    <glyph glyph-name="afii10041" unicode="&#x427;" horiz-adv-x="580" 
d="M37 690h58v-183q0 -105 39 -145q39 -39 137 -39q117 0 161 74v293h58v-690h-58v324q-51 -55 -168 -55q-128 0 -178 56q-49 55 -49 182v183z" />
    <glyph glyph-name="afii10042" unicode="&#x428;" horiz-adv-x="850" 
d="M90 690h58v-636h248v636h58v-636h248v636h58v-690h-670v690z" />
    <glyph glyph-name="afii10043" unicode="&#x429;" horiz-adv-x="863" 
d="M842 54v-184h-58v130h-694v690h58v-636h248v636h58v-636h248v636h58v-636h82z" />
    <glyph glyph-name="afii10044" unicode="&#x42a;" horiz-adv-x="654" 
d="M-10 636v54h216v-285h165q121 0 180 -60q58 -59 58 -143t-58 -143q-59 -59 -180 -59h-223v636h-158zM371 351h-165v-297h165q87 0 133.5 40t46.5 108q0 69 -46.5 109t-133.5 40z" />
    <glyph glyph-name="afii10045" unicode="&#x42b;" horiz-adv-x="758" 
d="M90 0v690h58v-285h135q121 0 180 -60q58 -59 58 -143t-58 -143q-59 -59 -180 -59h-193zM283 351h-135v-297h135q87 0 133.5 40t46.5 108q0 69 -46.5 109t-133.5 40zM610 690h58v-690h-58v690z" />
    <glyph glyph-name="afii10046" unicode="&#x42c;" horiz-adv-x="596" 
d="M90 0v690h58v-285h165q121 0 180 -60q58 -59 58 -143t-58 -143q-59 -59 -180 -59h-223zM313 351h-165v-297h165q87 0 133.5 40t46.5 108q0 69 -46.5 109t-133.5 40z" />
    <glyph glyph-name="afii10047" unicode="&#x42d;" horiz-adv-x="580" 
d="M467 320h-284v54h284v12q0 133 -46.5 194.5t-140.5 61.5q-154 0 -186 -161h-57q15 106 79.5 160.5t163.5 54.5q245 0 245 -310v-82q0 -310 -245 -310q-98 0 -162.5 55t-79.5 162h56q33 -163 186 -163q94 0 140.5 60.5t46.5 195.5v16z" />
    <glyph glyph-name="afii10048" unicode="&#x42e;" horiz-adv-x="788" 
d="M733 391v-92q0 -305 -228 -305q-227 0 -227 305v31h-130v-330h-58v690h58v-306h130v7q0 305 227 305q228 0 228 -305zM336 391v-92q0 -131 42.5 -191t126.5 -60q85 0 127.5 60t42.5 191v92q0 131 -43 191t-127 60t-126.5 -60t-42.5 -191z" />
    <glyph glyph-name="afii10049" unicode="&#x42f;" horiz-adv-x="604" 
d="M253 295l-153 -295h-65l160 305q-142 39 -142 186q0 96 64 147.5t182 51.5h215v-690h-58v293h-157q-26 0 -46 2zM299 347h157v289h-157q-188 0 -188 -145q0 -144 188 -144z" />
    <glyph glyph-name="afii10065" unicode="&#x430;" horiz-adv-x="486" 
d="M45 143q0 69 44.5 105t125.5 36h146v62q0 62 -27.5 85t-98.5 23q-55 0 -82.5 -11t-48.5 -46l-42 29q26 44 65.5 62t108.5 18q97 0 138.5 -36t41.5 -124v-346h-55v62q-36 -68 -142 -68q-83 0 -128.5 38.5t-45.5 110.5zM361 186v49h-146q-115 0 -115 -93q0 -96 119 -96
q71 0 106.5 32.5t35.5 107.5z" />
    <glyph glyph-name="afii10066" unicode="&#x431;" horiz-adv-x="497" 
d="M451 286v-71q0 -104 -52.5 -162.5t-150.5 -58.5q-97 0 -150 58t-53 163v74q0 211 44 301t157 99l98 8q34 3 53 25l32 -41q-18 -32 -74 -37l-94 -7q-52 -4 -82.5 -24t-48.5 -62q-17 -43 -26 -119q48 74 148 74q94 0 146.5 -57.5t52.5 -162.5zM396 215v71q0 80 -37.5 124.5
t-110.5 44.5q-71 0 -109.5 -44t-38.5 -124v-72q0 -80 37 -125t111 -45q73 0 110.5 45.5t37.5 124.5z" />
    <glyph glyph-name="afii10067" unicode="&#x432;" horiz-adv-x="487" 
d="M70 0v500h170q84 0 131 -33t47 -95q0 -74 -72 -103q46 -12 73.5 -46t27.5 -82q0 -63 -46.5 -102t-134.5 -39h-196zM240 238h-115v-187h127q135 0 135 94q0 48 -35 70.5t-112 22.5zM222 449h-97v-160h108q125 0 125 80t-136 80z" />
    <glyph glyph-name="afii10068" unicode="&#x433;" horiz-adv-x="359" 
d="M70 500h294v-51h-239v-449h-55v500z" />
    <glyph glyph-name="afii10069" unicode="&#x434;" 
d="M509 51v-168h-55v117h-377v-117h-55v168h36q19 14 40 66q27 67 27 237v146h314v-449h70zM143 81q-10 -21 -17 -30h258v398h-204v-109q0 -178 -37 -259z" />
    <glyph glyph-name="afii10070" unicode="&#x435;" horiz-adv-x="484" 
d="M431 287v-51h-331v-21q0 -80 39 -125t113 -45q90 0 130 61l44 -31q-52 -81 -171 -81q-100 0 -155 58.5t-55 162.5v72q0 106 49.5 162.5t143.5 56.5t143.5 -56.5t49.5 -162.5zM100 287v-1h276v1q0 82 -35 125t-103 43t-103 -43t-35 -125z" />
    <glyph glyph-name="afii10072" unicode="&#x436;" horiz-adv-x="658" 
d="M430 279l130 221h61l-143 -243l165 -257h-66l-145 229h-76v-229h-55v229h-75l-146 -229h-65l164 257l-142 243h61l129 -221h74v221h55v-221h74z" />
    <glyph glyph-name="afii10073" unicode="&#x437;" horiz-adv-x="448" 
d="M204 455q-77 0 -124 -56l-44 30q56 77 171 77q76 0 122.5 -35.5t46.5 -90.5q0 -77 -79 -110q44 -13 71 -47t27 -81q0 -61 -47 -105q-46 -43 -137 -43q-127 0 -179 81l44 31q42 -61 133 -61q57 0 91.5 26.5t34.5 73.5q0 95 -139 95h-55v51h56q119 0 119 84q0 36 -28.5 58
t-83.5 22z" />
    <glyph glyph-name="afii10074" unicode="&#x438;" horiz-adv-x="536" 
d="M70 500h55v-404l288 404h53v-500h-55v408l-289 -408h-52v500z" />
    <glyph glyph-name="afii10075" unicode="&#x439;" horiz-adv-x="536" 
d="M348 700h51q0 -118 -131 -118t-131 118h50q0 -75 81 -75q80 0 80 75zM70 500h55v-404l288 404h53v-500h-55v408l-289 -408h-52v500z" />
    <glyph glyph-name="afii10076" unicode="&#x43a;" horiz-adv-x="473" 
d="M219 279l157 221h66l-174 -242l190 -258h-67l-169 229h-97v-229h-55v500h55v-221h94z" />
    <glyph glyph-name="afii10077" unicode="&#x43b;" horiz-adv-x="510" 
d="M114 300v200h326v-500h-55v449h-216v-165q0 -129 -26 -198q-33 -87 -118 -97v54q53 17 71 79q18 58 18 178z" />
    <glyph glyph-name="afii10078" unicode="&#x43c;" horiz-adv-x="636" 
d="M70 500h53l195 -339l194 339h54v-500h-55v392l-171 -294h-48l-167 293v-391h-55v500z" />
    <glyph glyph-name="afii10079" unicode="&#x43d;" 
d="M70 500h55v-221h276v221h55v-500h-55v228h-276v-228h-55v500z" />
    <glyph glyph-name="afii10080" unicode="&#x43e;" horiz-adv-x="496" 
d="M451 287v-73q0 -105 -52.5 -162.5t-150.5 -57.5q-97 0 -150 57.5t-53 162.5v73q0 105 53 162t150 57t150 -57t53 -162zM396 214v73q0 82 -38.5 125t-109.5 43q-72 0 -110 -43t-38 -125v-73q0 -82 37.5 -125.5t110.5 -43.5q72 0 110 44t38 125z" />
    <glyph glyph-name="afii10081" unicode="&#x43f;" 
d="M70 0v500h386v-500h-55v449h-276v-449h-55z" />
    <glyph glyph-name="afii10082" unicode="&#x440;" horiz-adv-x="516" 
d="M471 287v-72q0 -106 -50 -163.5t-145 -57.5q-110 0 -151 65v-249h-55v690h55v-63q43 69 151 69q93 0 144 -57t51 -162zM272 45q70 0 107 44.5t37 125.5v72q0 82 -36.5 125t-107.5 43q-147 0 -147 -162v-87q2 -161 147 -161z" />
    <glyph glyph-name="afii10083" unicode="&#x441;" horiz-adv-x="443" 
d="M382 106l44 -31q-50 -81 -170 -81q-101 0 -156 57.5t-55 163.5v72q0 105 55.5 162t155.5 57q113 0 169 -77l-44 -30q-41 56 -125 56q-74 0 -115 -43.5t-41 -124.5v-72q0 -80 39.5 -125t116.5 -45q87 0 126 61z" />
    <glyph glyph-name="afii10084" unicode="&#x442;" horiz-adv-x="407" 
d="M5 449v51h397v-51h-172v-449h-55v449h-170z" />
    <glyph glyph-name="afii10085" unicode="&#x443;" horiz-adv-x="459" 
d="M73 -190v54q59 0 84 25q28 25 53 97l2 6l-205 508h60l173 -428l148 428h58l-181 -520q-33 -97 -70 -133q-37 -37 -122 -37z" />
    <glyph glyph-name="afii10086" unicode="&#x444;" horiz-adv-x="647" 
d="M296 690h55v-184q121 0 186 -56t65 -163v-72q0 -106 -65.5 -163.5t-185.5 -57.5v-184h-55v184q-120 0 -185.5 57.5t-65.5 163.5v72q0 107 65 163t186 56v184zM547 215v72q0 168 -196 168v-410q196 0 196 170zM100 287v-72q0 -82 49.5 -126t146.5 -44v410
q-196 0 -196 -168z" />
    <glyph glyph-name="afii10087" unicode="&#x445;" horiz-adv-x="452" 
d="M258 256l179 -256h-66l-145 208l-146 -208h-65l179 256l-164 244h65l131 -197l130 197h66z" />
    <glyph glyph-name="afii10088" unicode="&#x446;" horiz-adv-x="543" 
d="M526 51v-168h-55v117h-401v500h55v-449h276v449h55v-449h70z" />
    <glyph glyph-name="afii10089" unicode="&#x447;" horiz-adv-x="477" 
d="M45 500h55v-123q0 -72 32.5 -101t96.5 -29q90 0 123 49v204h55v-500h-55v230q-39 -36 -126 -36q-91 0 -136 43t-45 140v123z" />
    <glyph glyph-name="afii10090" unicode="&#x448;" horiz-adv-x="699" 
d="M629 500v-500h-559v500h55v-449h197v449h55v-449h197v449h55z" />
    <glyph glyph-name="afii10091" unicode="&#x449;" horiz-adv-x="716" 
d="M699 51v-168h-55v117h-574v500h55v-449h197v449h55v-449h197v449h55v-449h70z" />
    <glyph glyph-name="afii10092" unicode="&#x44a;" horiz-adv-x="529" 
d="M177 500v-199h127q195 0 195 -149q0 -71 -45.5 -111.5t-135.5 -40.5h-196v449h-142v51h197zM302 250h-125v-199h131q131 0 131 101q0 98 -137 98z" />
    <glyph glyph-name="afii10093" unicode="&#x44b;" horiz-adv-x="619" 
d="M125 500v-199h102q195 0 195 -149q0 -71 -45.5 -111.5t-135.5 -40.5h-171v500h55zM225 250h-100v-199h106q131 0 131 101q0 98 -137 98zM494 0v500h55v-500h-55z" />
    <glyph glyph-name="afii10094" unicode="&#x44c;" horiz-adv-x="477" 
d="M125 500v-199h127q195 0 195 -149q0 -71 -45.5 -111.5t-135.5 -40.5h-196v500h55zM250 250h-125v-199h131q131 0 131 101q0 98 -137 98z" />
    <glyph glyph-name="afii10095" unicode="&#x44d;" horiz-adv-x="459" 
d="M359 228h-217v51h217v8q0 81 -41 124.5t-115 43.5q-84 0 -125 -56l-44 30q56 77 169 77q100 0 155.5 -57t55.5 -162v-72q0 -106 -55 -163.5t-156 -57.5q-121 0 -170 81l44 31q39 -61 126 -61q77 0 116.5 45t39.5 125v13z" />
    <glyph glyph-name="afii10096" unicode="&#x44e;" horiz-adv-x="660" 
d="M428 -6q-91 0 -139.5 57.5t-48.5 163.5v13h-115v-228h-55v500h55v-221h115v8q0 106 48.5 162.5t139.5 56.5t139 -56.5t48 -162.5v-72q0 -106 -47.5 -163.5t-139.5 -57.5zM428 45q65 0 98.5 44t33.5 125v73q0 168 -132 168q-133 0 -133 -168v-73q0 -169 133 -169z" />
    <glyph glyph-name="afii10097" unicode="&#x44f;" horiz-adv-x="500" 
d="M430 500v-500h-55v199h-119q-18 0 -23 1l-130 -200h-63l135 208q-117 32 -117 144q0 66 48.5 107t140.5 41h183zM258 250h117v199h-123q-134 0 -134 -98q0 -101 140 -101z" />
    <glyph glyph-name="afii10071" unicode="&#x451;" horiz-adv-x="484" 
d="M431 287v-51h-331v-21q0 -80 39 -125t113 -45q90 0 130 61l44 -31q-52 -81 -171 -81q-100 0 -155 58.5t-55 162.5v72q0 106 49.5 162.5t143.5 56.5t143.5 -56.5t49.5 -162.5zM100 287v-1h276v1q0 82 -35 125t-103 43t-103 -43t-35 -125zM386 690v-67h-67v67h67zM176 690
v-67h-67v67h67z" />
    <glyph glyph-name="afii10099" unicode="&#x452;" 
d="M70 568h-94v51h94v71h55v-71h180v-51h-180v-177q41 74 149 74q94 0 138 -59t44 -184v-263q0 -80 -33 -114.5t-112 -34.5v51h11q43 0 61 22.5t18 76.5v262q0 103 -31.5 147t-101.5 44q-69 0 -106 -41t-37 -113v-259h-55v568z" />
    <glyph glyph-name="afii10100" unicode="&#x453;" horiz-adv-x="359" 
d="M70 500h294v-51h-239v-449h-55v500zM226 567h-53l75 158h66z" />
    <glyph glyph-name="afii10101" unicode="&#x454;" horiz-adv-x="459" 
d="M377 106l44 -31q-49 -81 -170 -81q-101 0 -156 57.5t-55 163.5v72q0 105 55.5 162t155.5 57q113 0 169 -77l-44 -30q-41 56 -125 56q-74 0 -115 -43.5t-41 -124.5v-8h217v-51h-217v-13q0 -80 39.5 -125t116.5 -45q87 0 126 61z" />
    <glyph glyph-name="afii10102" unicode="&#x455;" horiz-adv-x="461" 
d="M398 423l-42 -30q-24 34 -53.5 47.5t-82.5 13.5q-55 0 -86.5 -21t-31.5 -61q0 -45 31.5 -64.5t101.5 -28.5q77 -10 124 -38q54 -31 54 -109q0 -65 -45.5 -101.5t-137.5 -36.5q-129 0 -188 83l43 30q24 -33 57 -47t89 -14q127 0 127 85q0 45 -34.5 67t-114.5 32t-121 42.5
t-41 98.5q0 63 45.5 99t128.5 36q126 0 177 -83z" />
    <glyph glyph-name="afii10103" unicode="&#x456;" horiz-adv-x="225" 
d="M140 0h-55v500h55v-500zM146 623h-67v67h67v-67z" />
    <glyph glyph-name="afii10104" unicode="&#x457;" horiz-adv-x="213" 
d="M65 690v-67h-67v67h67zM148 623v67h67v-67h-67zM134 0h-55v500h55v-500z" />
    <glyph glyph-name="afii10105" unicode="&#x458;" horiz-adv-x="225" 
d="M95 500h55v-536q0 -82 -33.5 -118t-116.5 -36v52q62 0 78 28q17 28 17 92v518zM156 623h-67v67h67v-67z" />
    <glyph glyph-name="afii10106" unicode="&#x459;" horiz-adv-x="792" 
d="M440 500v-199h127q195 0 195 -149q0 -71 -45.5 -111.5t-135.5 -40.5h-196v449h-216v-165q0 -129 -26 -198q-33 -87 -118 -97v54q53 17 71 79q18 58 18 178v200h326zM565 250h-125v-199h131q131 0 131 101q0 98 -137 98z" />
    <glyph glyph-name="afii10107" unicode="&#x45a;" horiz-adv-x="808" 
d="M70 500h55v-208h276v208h55v-199h127q195 0 195 -149q0 -71 -45.5 -111.5t-135.5 -40.5h-196v241h-276v-241h-55v500zM581 250h-125v-199h131q131 0 131 101q0 98 -137 98z" />
    <glyph glyph-name="afii10108" unicode="&#x45b;" 
d="M70 568h-94v51h94v71h55v-71h180v-51h-180v-172q41 74 147 74q87 0 135.5 -54t48.5 -156v-260h-55v259q0 80 -35.5 119.5t-99.5 39.5q-68 0 -104.5 -41t-36.5 -113v-264h-55v568z" />
    <glyph glyph-name="afii10109" unicode="&#x45c;" horiz-adv-x="473" 
d="M219 279l157 221h66l-174 -242l190 -258h-67l-169 229h-97v-229h-55v500h55v-221h94zM249 567h-53l75 158h66z" />
    <glyph glyph-name="afii10110" unicode="&#x45e;" horiz-adv-x="459" 
d="M73 -190v54q59 0 84 25q28 25 53 97l2 6l-205 508h60l173 -428l148 428h58l-181 -520q-33 -97 -70 -133q-37 -37 -122 -37zM316 690h48q-3 -118 -131 -118q-130 0 -131 118h48q2 -38 21.5 -56t61.5 -18t61.5 18t21.5 56z" />
    <glyph glyph-name="afii10193" unicode="&#x45f;" 
d="M290 0v-117h-55v117h-165v500h55v-449h276v449h55v-500h-166z" />
    <glyph glyph-name="afii10146" unicode="&#x462;" horiz-adv-x="596" 
d="M90 596v94h58v-94h211v-54h-211v-137h165q121 0 180 -60q58 -59 58 -143t-58 -143q-59 -59 -180 -59h-223v542h-100v54h100zM313 351h-165v-297h165q87 0 133.5 40t46.5 108q0 69 -46.5 109t-133.5 40z" />
    <glyph glyph-name="afii10194" unicode="&#x463;" horiz-adv-x="477" 
d="M70 449h-94v51h94v190h55v-190h165v-51h-165v-148h127q195 0 195 -149q0 -71 -45.5 -111.5t-135.5 -40.5h-196v449zM250 250h-125v-199h131q131 0 131 101q0 98 -137 98z" />
    <glyph glyph-name="afii10147" unicode="&#x472;" horiz-adv-x="600" 
d="M545 386v-82q0 -156 -63.5 -233t-181.5 -77t-181.5 77t-63.5 233v82q0 154 63.5 232t181.5 78t181.5 -78t63.5 -232zM487 304v27h-374v-27q0 -256 187 -256t187 256zM113 386v-1h374v1q0 256 -187 256t-187 -256z" />
    <glyph glyph-name="afii10195" unicode="&#x473;" horiz-adv-x="496" 
d="M451 287v-73q0 -105 -52.5 -162.5t-150.5 -57.5q-97 0 -150 57.5t-53 162.5v73q0 105 53 162t150 57t150 -57t53 -162zM396 214v14h-296v-14q0 -82 37.5 -125.5t110.5 -43.5q72 0 110 44t38 125zM100 287v-8h296v8q0 82 -38.5 125t-109.5 43q-72 0 -110 -43t-38 -125z
" />
    <glyph glyph-name="afii10148" unicode="&#x474;" horiz-adv-x="601" 
d="M271 0l-250 690h64l213 -597l170 474q26 71 55 98q30 30 91 30v-54q-33 0 -51 -16.5t-33 -59.5l-204 -565h-55z" />
    <glyph glyph-name="afii10196" unicode="&#x475;" horiz-adv-x="480" 
d="M485 506v-51q-23 0 -36 -14t-26 -50l-155 -391h-54l-204 500h61l169 -427l132 344q19 52 42 70q22 19 71 19z" />
    <glyph glyph-name="afii10050" unicode="&#x490;" horiz-adv-x="481" 
d="M90 690h328v108h58v-162h-328v-636h-58v690z" />
    <glyph glyph-name="afii10098" unicode="&#x491;" horiz-adv-x="359" 
d="M70 500h239v93h55v-144h-239v-449h-55v500z" />
    <glyph glyph-name="uni0492" unicode="&#x492;" horiz-adv-x="486" 
d="M95 690h386v-54h-328v-252h191v-54h-191v-330h-58v330h-110v54h110v306z" />
    <glyph glyph-name="uni0493" unicode="&#x493;" horiz-adv-x="376" 
d="M87 500h294v-51h-239v-170h137v-51h-137v-228h-55v228h-103v51h103v221z" />
    <glyph glyph-name="uni0496" unicode="&#x496;" horiz-adv-x="902" 
d="M290 320l-208 -320h-70l226 349l-185 341h65l172 -316h112v316h58v-316h113l172 316h64l-186 -341l192 -295h75v-184h-58v130h-52l-208 320h-112v-320h-58v320h-112z" />
    <glyph glyph-name="uni0497" unicode="&#x497;" horiz-adv-x="686" 
d="M430 279l130 221h61l-143 -243l132 -206h66v-168h-55v117h-44l-145 229h-76v-229h-55v229h-75l-146 -229h-65l164 257l-142 243h61l129 -221h74v221h55v-221h74z" />
    <glyph glyph-name="uni0498" unicode="&#x498;" horiz-adv-x="552" 
d="M314 -5v-125h-58v125q-174 12 -216 195h58q22 -73 66 -107.5t119 -34.5q79 0 122.5 39t43.5 105q0 141 -186 141h-58v54h62q160 0 160 131q0 57 -37.5 90.5t-110.5 33.5q-68 0 -113 -34t-58 -96h-56q12 84 77 134t147 50q99 0 154 -47t55 -131q0 -112 -114 -155
q61 -14 98.5 -61t37.5 -110q0 -75 -48 -132q-47 -57 -145 -65z" />
    <glyph glyph-name="uni0499" unicode="&#x499;" horiz-adv-x="448" 
d="M235 -5v-112h-55v113q-102 8 -148 79l44 31q42 -61 133 -61q57 0 91.5 26.5t34.5 73.5q0 95 -139 95h-55v51h56q119 0 119 84q0 36 -28.5 58t-83.5 22q-77 0 -124 -56l-44 30q56 77 171 77q76 0 122.5 -35.5t46.5 -90.5q0 -77 -79 -110q44 -13 71 -47t27 -81
q0 -59 -42 -100t-118 -47z" />
    <glyph glyph-name="uni049A" unicode="&#x49a;" horiz-adv-x="633" 
d="M621 54v-184h-58v130h-46l-232 320h-137v-320h-58v690h58v-316h132l201 316h66l-215 -339l216 -297h73z" />
    <glyph glyph-name="uni049B" unicode="&#x49b;" horiz-adv-x="499" 
d="M219 279l157 221h66l-174 -242l152 -207h69v-168h-55v117h-43l-169 229h-97v-229h-55v500h55v-221h94z" />
    <glyph glyph-name="uni049C" unicode="&#x49c;" horiz-adv-x="624" 
d="M90 690h58v-316h64v130h54v-130h38l201 316h66l-215 -339l256 -351h-71l-232 320h-43v-125h-54v125h-64v-320h-58v690z" />
    <glyph glyph-name="uni049D" unicode="&#x49d;" horiz-adv-x="493" 
d="M125 0h-55v500h55v-221h42v113h51v-113h21l157 221h66l-174 -242l190 -258h-67l-169 229h-24v-114h-51v114h-42v-229z" />
    <glyph glyph-name="uni04A0" unicode="&#x4a0;" horiz-adv-x="658" 
d="M390 351l256 -351h-71l-232 320h-137v-320h-58v636h-158v54h216v-316h132l201 316h66z" />
    <glyph glyph-name="uni04A1" unicode="&#x4a1;" horiz-adv-x="525" 
d="M271 279l157 221h66l-174 -242l190 -258h-67l-169 229h-97v-229h-55v449h-142v51h197v-221h94z" />
    <glyph glyph-name="uni04A2" unicode="&#x4a2;" horiz-adv-x="650" 
d="M90 690h58v-305h342v305h58v-636h82v-184h-58v130h-82v331h-342v-331h-58v690z" />
    <glyph glyph-name="uni04A3" unicode="&#x4a3;" horiz-adv-x="548" 
d="M70 500h55v-221h276v221h55v-449h75v-168h-55v117h-75v228h-276v-228h-55v500z" />
    <glyph glyph-name="uni04AA" unicode="&#x4aa;" horiz-adv-x="580" 
d="M331 -4v-126h-58v125q-218 17 -218 309v82q0 310 245 310q99 0 163.5 -54.5t79.5 -160.5h-57q-32 161 -186 161q-94 0 -140.5 -61.5t-46.5 -194.5v-82q0 -135 46.5 -195.5t140.5 -60.5q153 0 186 163h56q-14 -99 -69.5 -153.5t-141.5 -61.5z" />
    <glyph glyph-name="uni04AB" unicode="&#x4ab;" horiz-adv-x="443" 
d="M283 -4v-113h-55v113q-88 8 -135.5 64.5t-47.5 154.5v72q0 105 55.5 162t155.5 57q113 0 169 -77l-44 -30q-41 56 -125 56q-74 0 -115 -43.5t-41 -124.5v-72q0 -80 39.5 -125t116.5 -45q87 0 126 61l44 -31q-44 -72 -143 -79z" />
    <glyph glyph-name="uni04AE" unicode="&#x4ae;" horiz-adv-x="536" 
d="M239 302l-224 388h68l185 -324l185 324h68l-224 -388v-302h-58v302z" />
    <glyph glyph-name="uni04AF" unicode="&#x4af;" horiz-adv-x="480" 
d="M240 73l169 427h61l-201 -498v-192h-55v190l-204 500h61z" />
    <glyph glyph-name="uni04B0" unicode="&#x4b0;" horiz-adv-x="536" 
d="M239 302l-224 388h68l185 -324l185 324h68l-224 -388h146v-54h-146v-248h-58v248h-145v54h145z" />
    <glyph glyph-name="uni04B1" unicode="&#x4b1;" horiz-adv-x="480" 
d="M240 73l169 427h61l-201 -498v-2h118v-51h-118v-139h-55v139h-119v51h119l-204 500h61z" />
    <glyph glyph-name="uni04B2" unicode="&#x4b2;" horiz-adv-x="577" 
d="M276 301l-184 -301h-65l215 357l-196 333h65l165 -280l164 280h66l-197 -333l183 -303h72v-184h-58v130h-47z" />
    <glyph glyph-name="uni04B3" unicode="&#x4b3;" horiz-adv-x="476" 
d="M411 -117v117h-40l-145 208l-146 -208h-65l179 256l-164 244h65l131 -197l130 197h66l-164 -244l143 -205h65v-168h-55z" />
    <glyph glyph-name="uni04B6" unicode="&#x4b6;" horiz-adv-x="592" 
d="M37 690h58v-183q0 -105 39 -145q39 -39 137 -39q117 0 161 74v293h58v-636h82v-184h-58v130h-82v324q-51 -55 -168 -55q-128 0 -178 56q-49 55 -49 182v183z" />
    <glyph glyph-name="uni04B7" unicode="&#x4b7;" horiz-adv-x="509" 
d="M55 500h55v-123q0 -72 32.5 -101t96.5 -29q90 0 123 49v204h55v-449h75v-168h-55v117h-75v230q-39 -36 -126 -36q-91 0 -136 43t-45 140v123z" />
    <glyph glyph-name="uni04B8" unicode="&#x4b8;" horiz-adv-x="580" 
d="M37 690h58v-183q0 -96 32.5 -137t111.5 -46v132h54v-133q98 6 139 74v293h58v-690h-58v324q-44 -47 -139 -54v-123h-54v122q-114 4 -158 61q-44 58 -44 177v183z" />
    <glyph glyph-name="uni04B9" unicode="&#x4b9;" horiz-adv-x="487" 
d="M55 500h55v-123q0 -64 26 -94.5t77 -34.5v112h51v-112q68 6 98 48v204h55v-500h-55v230q-31 -29 -98 -35v-100h-51v99q-80 5 -119 48.5t-39 134.5v123z" />
    <glyph glyph-name="uni04BA" unicode="&#x4ba;" horiz-adv-x="568" 
d="M543 0h-58v268q0 104 -39 144t-137 40q-116 0 -161 -75v-377h-58v690h58v-240q50 56 168 56q127 0 177 -56t50 -182v-268z" />
    <glyph glyph-name="uni04BB" unicode="&#x4bb;" 
d="M125 0h-55v690h55v-258q42 74 147 74q87 0 135.5 -54t48.5 -156v-296h-55v295q0 80 -35.5 119.5t-99.5 39.5q-68 0 -104.5 -41t-36.5 -113v-300z" />
    <glyph glyph-name="uni04D8" unicode="&#x4d8;" horiz-adv-x="604" 
d="M304 642q-144 0 -185 -143l-51 20q23 88 84.5 132.5t151.5 44.5q245 0 245 -310v-82q0 -310 -245 -310q-249 0 -249 310v33h436v49q0 256 -187 256zM304 48q179 0 186 235h-377q7 -235 191 -235z" />
    <glyph glyph-name="afii10846" unicode="&#x4d9;" horiz-adv-x="482" 
d="M51 213v51h331v21q0 79 -39 124.5t-113 45.5q-91 0 -131 -61l-43 30q51 82 171 82q99 0 154.5 -58.5t55.5 -162.5v-72q0 -106 -50 -162.5t-143 -56.5q-94 0 -143.5 56t-49.5 163zM382 213v1h-276v-1q0 -82 35 -125t103 -43t103 43t35 125z" />
    <glyph glyph-name="uni04E2" unicode="&#x4e2;" horiz-adv-x="656" 
d="M90 0v690h58v-576l368 576h50v-690h-58v573l-367 -573h-51zM460 787h-299v51h299v-51z" />
    <glyph glyph-name="uni04E3" unicode="&#x4e3;" horiz-adv-x="536" 
d="M70 500h55v-404l288 404h53v-500h-55v408l-289 -408h-52v500zM378 621h-259v51h259v-51z" />
    <glyph glyph-name="uni04E8" unicode="&#x4e8;" horiz-adv-x="600" 
d="M545 386v-82q0 -156 -63.5 -233t-181.5 -77t-181.5 77t-63.5 233v82q0 154 63.5 232t181.5 78t181.5 -78t63.5 -232zM487 304v27h-374v-27q0 -256 187 -256t187 256zM113 386v-1h374v1q0 256 -187 256t-187 -256z" />
    <glyph glyph-name="uni04E9" unicode="&#x4e9;" horiz-adv-x="496" 
d="M451 287v-73q0 -105 -52.5 -162.5t-150.5 -57.5q-97 0 -150 57.5t-53 162.5v73q0 105 53 162t150 57t150 -57t53 -162zM396 214v14h-296v-14q0 -82 37.5 -125.5t110.5 -43.5q72 0 110 44t38 125zM100 287v-8h296v8q0 82 -38.5 125t-109.5 43q-72 0 -110 -43t-38 -125z
" />
    <glyph glyph-name="uni04EE" unicode="&#x4ee;" horiz-adv-x="577" 
d="M303 207l196 483h61l-235 -574q-30 -71 -69 -97q-37 -25 -123 -25v54q65 0 91 16q28 16 49 69l-246 557h64zM460 787h-299v51h299v-51z" />
    <glyph glyph-name="uni04EF" unicode="&#x4ef;" horiz-adv-x="459" 
d="M73 -190v54q59 0 84 25q28 25 53 97l2 6l-205 508h60l173 -428l148 428h58l-181 -520q-33 -97 -70 -133q-37 -37 -122 -37zM378 621h-259v51h259v-51z" />
    <glyph glyph-name="uni1E9E" unicode="&#x1e9e;" horiz-adv-x="703" 
d="M518 636l-136 -192q73 -4 104.5 -35.5t31.5 -99.5v-169q0 -80 -41.5 -110t-133.5 -30h-47v54h55q109 0 109 89v164q0 47 -20 66.5t-76 19.5h-56v46l127 175q-54 30 -129 30q-81 0 -119.5 -36t-38.5 -113v-495h-58v499q0 95 55.5 147t160.5 52q108 0 212 -62z" />
    <glyph glyph-name="uni2010" unicode="&#x2010;" horiz-adv-x="309" 
d="M279 263h-249v51h249v-51z" />
    <glyph glyph-name="uni2011" unicode="&#x2011;" horiz-adv-x="309" 
d="M279 263h-249v51h249v-51z" />
    <glyph glyph-name="figuredash" unicode="&#x2012;" horiz-adv-x="490" 
d="M427 322h-364v51h364v-51z" />
    <glyph glyph-name="endash" unicode="&#x2013;" horiz-adv-x="509" 
d="M444 263h-379v51h379v-51z" />
    <glyph glyph-name="emdash" unicode="&#x2014;" horiz-adv-x="704" 
d="M679 263h-654v51h654v-51z" />
    <glyph glyph-name="quoteleft" unicode="&#x2018;" horiz-adv-x="198" 
d="M133 563h-68v142l68 59v-201z" />
    <glyph glyph-name="quoteright" unicode="&#x2019;" horiz-adv-x="201" 
d="M65 705h68v-142l-68 -59v201z" />
    <glyph glyph-name="quotesinglbase" unicode="&#x201a;" horiz-adv-x="198" 
d="M65 68h68v-142l-68 -59v201z" />
    <glyph glyph-name="quotedblleft" unicode="&#x201c;" horiz-adv-x="341" 
d="M133 563h-68v142l68 59v-201zM274 563h-68v142l68 59v-201z" />
    <glyph glyph-name="quotedblright" unicode="&#x201d;" horiz-adv-x="341" 
d="M206 705h68v-142l-68 -59v201zM65 705h68v-142l-68 -59v201z" />
    <glyph glyph-name="quotedblbase" unicode="&#x201e;" horiz-adv-x="336" 
d="M65 68h68v-142l-68 -59v201zM206 68h68v-142l-68 -59v201z" />
    <glyph glyph-name="dagger" unicode="&#x2020;" horiz-adv-x="536" 
d="M30 434v54h209v202h58v-202h209v-54h-209v-624h-58v624h-209z" />
    <glyph glyph-name="daggerdbl" unicode="&#x2021;" horiz-adv-x="536" 
d="M30 434v54h209v202h58v-202h209v-54h-209v-368h209v-54h-209v-202h-58v202h-209v54h209v368h-209z" />
    <glyph glyph-name="bullet" unicode="&#x2022;" horiz-adv-x="298" 
d="M89 281q-24 25 -24 60t24 59q25 25 60 25t59 -25q25 -24 25 -59t-25 -60q-24 -24 -59 -24t-60 24z" />
    <glyph glyph-name="ellipsis" unicode="&#x2026;" horiz-adv-x="663" 
d="M65 81h81v-81h-81v81zM517 81h81v-81h-81v81zM291 81h81v-81h-81v81z" />
    <glyph glyph-name="perthousand" unicode="&#x2030;" horiz-adv-x="1059" 
d="M129 0l386 690h58l-385 -690h-59zM160 387q47 0 70 28.5t23 78.5v52q0 105 -93 105q-44 0 -67.5 -27t-23.5 -78v-52q0 -107 91 -107zM160 342q-66 0 -102 39.5t-36 112.5v53q0 72 36.5 111t101.5 39q66 0 103 -39t37 -111v-53q0 -73 -36 -112.5t-104 -39.5zM552 39
q47 0 70 28.5t23 78.5v52q0 105 -93 105q-44 0 -67.5 -27t-23.5 -78v-52q0 -107 91 -107zM552 -6q-66 0 -102 39.5t-36 112.5v53q0 72 36.5 111t101.5 39q66 0 103 -39t37 -111v-53q0 -73 -36 -112.5t-104 -39.5zM872 39q47 0 70 28.5t23 78.5v52q0 105 -93 105
q-44 0 -67.5 -27t-23.5 -78v-52q0 -107 91 -107zM872 -6q-66 0 -102 39.5t-36 112.5v53q0 72 36.5 111t101.5 39q66 0 103 -39t37 -111v-53q0 -73 -36 -112.5t-104 -39.5z" />
    <glyph glyph-name="guilsinglleft" unicode="&#x2039;" horiz-adv-x="326" 
d="M262 52l-232 231l232 231v-72l-160 -159l160 -159v-72z" />
    <glyph glyph-name="guilsinglright" unicode="&#x203a;" horiz-adv-x="326" 
d="M59 442v72l232 -231l-232 -231v72l160 159z" />
    <glyph glyph-name="fraction" unicode="&#x2044;" horiz-adv-x="566" 
d="M11 0l475 690h57l-474 -690h-58z" />
    <glyph glyph-name="uni2074" unicode="&#x2074;" horiz-adv-x="296" 
d="M25 478l131 212h48l-126 -210h106v61h42v-61h39v-40h-39v-66h-42v66h-159v38z" />
    <glyph glyph-name="Euro" unicode="&#x20ac;" horiz-adv-x="490" 
d="M12 243v54h67v96h-67v54h69q8 130 56.5 189.5t142.5 59.5q168 0 191 -215h-58q-10 83 -41 122t-92 39q-69 0 -102 -45t-40 -150h167v-54h-168v-96h168v-54h-166q7 -104 40.5 -149.5t100.5 -45.5q113 0 132 163h56q-11 -107 -60 -162t-128 -55q-92 0 -141 60.5t-58 188.5
h-69z" />
    <glyph glyph-name="uni20B4" unicode="&#x20b4;" horiz-adv-x="490" 
d="M69 259h-62v55h475v-55h-345q-30 -33 -30 -87q0 -55 35.5 -89.5t98.5 -34.5q45 0 75 13q33 14 48 29q10 10 41 50l46 -33q-42 -60 -90 -86.5t-120 -26.5q-93 0 -143 53q-49 53 -49 127q0 50 20 85zM482 385h-475v55h347q25 29 25 78q0 60 -32.5 92t-95.5 32
q-49 0 -81 -21.5t-64 -69.5l-44 32q68 113 187 113q93 0 140.5 -48.5t47.5 -129.5q0 -44 -18 -78h63v-55z" />
    <glyph glyph-name="uni20B8" unicode="&#x20b8;" horiz-adv-x="490" 
d="M11 531v54h468v-54h-205v-531h-58v531h-205zM11 636v54h468v-54h-468z" />
    <glyph glyph-name="uni20BD" unicode="&#x20bd;" horiz-adv-x="490" 
d="M96 143h-84v54h84v76h-84v54h84v363h131q119 0 185 -55t66 -154q0 -98 -66 -153t-185 -55h-73v-76h135v-54h-135v-143h-58v143zM154 636v-309h73q193 0 193 154q0 155 -193 155h-73z" />
    <glyph glyph-name="afii61352" unicode="&#x2116;" horiz-adv-x="948" 
d="M912 539v-56q0 -76 -37 -116.5t-108 -40.5q-69 0 -107 41t-38 116v56q0 75 38 116t107 41q70 0 107.5 -40t37.5 -117zM861 485v52q0 108 -94 108q-95 0 -95 -108v-52q0 -108 95 -108q45 0 69.5 28.5t24.5 79.5zM892 223h-249v51h249v-51zM490 111v579h58v-690h-56
l-344 574v-574h-58v690h55z" />
    <glyph glyph-name="trademark" unicode="&#x2122;" horiz-adv-x="898" 
d="M417 690h45l165 -282l166 282h44v-417h-50v313l-138 -233h-47l-134 233v-313h-51v417zM35 642v48h328v-48h-139v-369h-51v369h-138z" />
    <glyph glyph-name="uni2190" unicode="&#x2190;" horiz-adv-x="868" 
d="M127 246l339 -338h-43l-353 353l353 353h43l-339 -338h671v-30h-671z" />
    <glyph glyph-name="uni2191" unicode="&#x2191;" horiz-adv-x="846" 
d="M423 625l353 -353v-43l-338 339v-671h-30v671l-338 -339v43z" />
    <glyph glyph-name="uni2192" unicode="&#x2192;" horiz-adv-x="868" 
d="M798 261l-353 -353h-43l339 338h-671v30h671l-339 338h43z" />
    <glyph glyph-name="uni2193" unicode="&#x2193;" horiz-adv-x="846" 
d="M423 -103l-353 353v43l338 -339v671h30v-671l338 339v-43z" />
    <glyph glyph-name="uni2196" unicode="&#x2196;" horiz-adv-x="670" 
d="M100 449v-479l-30 30v500h500l30 -30h-479l474 -474l-21 -21z" />
    <glyph glyph-name="uni2197" unicode="&#x2197;" horiz-adv-x="670" 
d="M600 500v-500l-30 -30v479l-474 -474l-21 21l474 474h-479l30 30h500z" />
    <glyph glyph-name="uni2198" unicode="&#x2198;" horiz-adv-x="670" 
d="M600 0h-500l-30 30h479l-474 474l21 21l474 -474v479l30 -30v-500z" />
    <glyph glyph-name="uni2199" unicode="&#x2199;" horiz-adv-x="670" 
d="M121 30h479l-30 -30h-500v500l30 30v-479l474 474l21 -21z" />
    <glyph glyph-name="uni21A3" unicode="&#x21a3;" horiz-adv-x="1217" 
d="M144 372l30 30l96 -95h820l-65 65l30 30l122 -122l-122 -123l-30 30l65 66h-820l-96 -96l-30 30l93 93zM40 372l30 30l122 -122l-122 -123l-30 30l92 93z" />
    <glyph glyph-name="partialdiff" unicode="&#x2202;" horiz-adv-x="496" 
d="M451 472v-258q0 -105 -52.5 -162.5t-150.5 -57.5q-97 0 -150 57.5t-53 162.5v73q0 105 53 162t150 57q100 0 148 -63v29q0 82 -40 127.5t-114 45.5q-71 0 -130 -49l-31 41q31 27 75.5 43t86.5 16q100 0 154 -58.5t54 -165.5zM396 214v81q0 77 -39 118.5t-109 41.5
q-71 0 -109.5 -43.5t-38.5 -124.5v-73q0 -81 37.5 -125t110.5 -44q71 0 109.5 45t38.5 124z" />
    <glyph glyph-name="product" unicode="&#x220f;" horiz-adv-x="638" 
d="M90 690h458v-880h-58v826h-342v-826h-58v880z" />
    <glyph glyph-name="summation" unicode="&#x2211;" horiz-adv-x="519" 
d="M109 636l218 -357v-59l-218 -356h365v-54h-439v43l243 397l-243 397v43h439v-54h-365z" />
    <glyph glyph-name="minus" unicode="&#x2212;" horiz-adv-x="490" 
d="M434 328h-379v51h379v-51z" />
    <glyph glyph-name="uni2215" unicode="&#x2215;" horiz-adv-x="464" 
d="M436 812l-336 -928h-54l336 928h54z" />
    <glyph glyph-name="radical" unicode="&#x221a;" horiz-adv-x="613" 
d="M322 0l-198 446h-97v54h139l177 -403q41 162 73 297q42 174 73 296h225v-54h-181q-21 -76 -80 -318l-78 -318h-53z" />
    <glyph glyph-name="infinity" unicode="&#x221e;" horiz-adv-x="762" 
d="M200 222q44 0 77 27t77 94q-76 118 -154 118q-48 0 -81 -33.5t-33 -85.5q0 -53 33 -86.5t81 -33.5zM569 222q48 0 80 33.5t32 86.5t-32.5 86t-81.5 33q-43 0 -76.5 -27.5t-73.5 -89.5q45 -67 77.5 -94.5t74.5 -27.5zM383 298q-87 -130 -180 -130q-75 0 -122 50
q-46 49 -46 124t46 124q47 50 122 50q102 0 183 -129q81 129 178 129q75 0 122 -50t47 -124t-47 -124t-122 -50q-93 0 -181 130z" />
    <glyph glyph-name="integral" unicode="&#x222b;" horiz-adv-x="285" 
d="M150 531v-575q0 -74 -34 -110t-108 -36h-16v56h15q48 0 66.5 23t18.5 80v575q0 75 33.5 110.5t107.5 35.5h17v-56h-15q-48 0 -66.5 -23t-18.5 -80z" />
    <glyph glyph-name="approxequal" unicode="&#x2248;" horiz-adv-x="490" 
d="M419 296l27 -40q-52 -45 -99 -45q-33 0 -102 26q-67 27 -95 27q-36 0 -80 -41l-27 40q56 52 108 52q33 0 102 -27q70 -26 95 -26q34 0 71 34zM419 455l27 -40q-50 -45 -99 -45q-33 0 -102 26q-67 27 -95 27q-36 0 -80 -41l-27 40q56 52 108 52q33 0 102 -27
q70 -26 95 -26q34 0 71 34z" />
    <glyph glyph-name="notequal" unicode="&#x2260;" horiz-adv-x="490" 
d="M244 410h-194v51h216l78 181l47 -20l-70 -161h118v-51h-140l-48 -113h188v-51h-210l-78 -182l-47 20l69 162h-123v51h145z" />
    <glyph glyph-name="lessequal" unicode="&#x2264;" horiz-adv-x="330" 
d="M290 170l-232 231l232 231v-72l-160 -159l160 -159v-72zM290 -3l-232 231v71l232 -229v-73z" />
    <glyph glyph-name="greaterequal" unicode="&#x2265;" horiz-adv-x="330" 
d="M58 560v72l232 -231l-232 -231v72l160 159zM58 70l232 229v-71l-232 -231v73z" />
    <glyph glyph-name="uni231A" unicode="&#x231a;" horiz-adv-x="686" 
d="M456 -205h-261v235q-58 34 -91.5 93t-33.5 127t33.5 126.5t91.5 92.5v235h261v-234q51 -30 84 -80t40 -110h36v-60h-36q-7 -60 -40 -110t-84 -80v-235zM166 410q-66 -66 -66 -160t66 -160t160 -66t160 66t66 160t-66 160t-160 66t-160 -66zM326 -6q-52 0 -101 20v-189
h201v189q-49 -20 -100 -20zM426 674h-201v-189q47 21 101 21q51 0 100 -20v188zM498 337l-6 -19l-166 -93l-133 75l-6 20l20 5l119 -70l153 87z" />
    <glyph glyph-name="uni23F2" unicode="&#x23f2;" horiz-adv-x="1092" 
d="M209 5q-139 139 -139 337q0 197 139 336q140 140 337 140q196 0 336 -140t140 -336q0 -197 -140 -337q-139 -139 -336 -139q-198 0 -337 139zM230 657q-130 -130 -130 -315q0 -186 130 -316t316 -130q185 0 315 130q131 131 131 316q0 184 -131 315q-130 130 -315 130
q-186 0 -316 -130zM914 538l-5 -21l-363 -207l-257 147l-6 22l21 4l242 -138v-1l348 199zM131 327v30h140v-30h-140zM822 327v30h140v-30h-140zM561 -74h-30v140h30v-140zM561 617h-30v140h30v-140z" />
    <glyph glyph-name="uni2550" unicode="&#x2550;" horiz-adv-x="2158" 
d="M0 363h2158v-54h-2158v54zM0 249h2158v-54h-2158v54z" />
    <glyph glyph-name="lozenge" unicode="&#x25ca;" horiz-adv-x="593" 
d="M63 296l211 291h60l210 -291l-210 -296h-60zM474 296l-171 240l-172 -240l172 -246z" />
    <glyph glyph-name="uni261D" unicode="&#x261d;" horiz-adv-x="768" 
d="M698 219v-268h-393l-235 350q14 14 40 28q76 47 142 -28l46 -56v372q0 36 17 56.5t48 20.5q30 0 47.5 -20t17.5 -53v-207h13q66 0 66 -52h17q33 0 53 -16.5t20 -41.5h15q37 0 61.5 -23.5t24.5 -61.5zM116 291l208 -310h344v238q0 25 -15.5 40t-42.5 15h-2v-122h-30v122
q0 58 -57 58h-3v-126h-30v126q0 29 -11.5 40.5t-38.5 11.5h-10v-122h-30v344q0 31 -7.5 44.5t-27.5 13.5t-27.5 -14t-7.5 -46v-434l-107 114q-19 21 -41 26t-36 -0.5t-22 -13.5zM698 -271h-393v177h393v-177zM668 -241v117h-333v-117h333zM586 -163q20 17 39 -2t0 -38
q-11 -12 -26 -7t-19.5 19t6.5 28z" />
    <glyph glyph-name="uni261E" unicode="&#x261e;" horiz-adv-x="1105" 
d="M560 47h-268v393l350 235q14 -14 28 -41q46 -81 -28 -141l-56 -46h372q36 0 56.5 -17t20.5 -48q0 -30 -20 -47.5t-53 -17.5h-207v-13q0 -66 -52 -66v-17q0 -33 -16.5 -53t-41.5 -20v-15q0 -37 -23.5 -61.5t-61.5 -24.5zM632 629l-310 -208v-344h238q25 0 40 15.5t15 42.5
v2h-122v30h122q58 0 58 57v3h-126v30h126q29 0 40.5 11.5t11.5 38.5v10h-122v30h344q31 0 44.5 7.5t13.5 27.5t-14 27.5t-46 7.5h-434l114 107q21 19 26 41.5t-0.5 35.5t-13.5 23zM70 47v393h177v-393h-177zM100 77h117v333h-117v-333zM177 159q19 -19 0 -38t-39 -2
q-12 12 -6.5 27.5t19.5 19.5t26 -7z" />
    <glyph glyph-name="uni26F3" unicode="&#x26f3;" horiz-adv-x="694" 
d="M70 513q0 115 81 196t196 81t196 -81t81 -196q0 -86 -82 -216l-195 -307l-197 309q-80 128 -80 214zM347 431q-35 0 -59 24t-24 58t24 58t59 24q34 0 58 -24t24 -58t-24 -58t-58 -24zM99 513q0 -79 89 -218l161 -246l158 246q90 141 90 218q0 105 -73 175q-72 72 -175 72
q-105 0 -178 -72q-72 -70 -72 -175z" />
    <glyph glyph-name="uni2709" unicode="&#x2709;" horiz-adv-x="1256" 
d="M70 0v578h1116v-578h-1116zM1156 548h-1056v-50l528 -314l528 314v50zM628 149l-165 98l-363 -217h1056l-363 217zM1156 64v399l-334 -199zM100 64l335 200l-335 199v-399z" />
    <glyph glyph-name="uniF040" unicode="&#xf040;" horiz-adv-x="3054" 
d="M1353 253h-1353v54h1353l96 95l30 -30l-93 -92l93 -93l-30 -30zM1575 372l30 30l95 -95h1354v-54h-1354l-95 -96l-30 30l92 93z" />
    <glyph glyph-name="uniF041" unicode="&#xf041;" horiz-adv-x="2855" 
d="M1418 198l109 190l47 -27l-32 -54h1313v-54h-1344l-47 -81zM1342 307l47 81l47 -27l-110 -189l-46 26l31 55h-1311v54h1342z" />
    <glyph glyph-name="uniF042" unicode="&#xf042;" horiz-adv-x="2825" 
d="M2825 253h-1371v54h1371v-54zM0 307h1251v-54h-1251v54z" />
    <glyph glyph-name="uniF043" unicode="&#xf043;" horiz-adv-x="768" 
d="M305 -49l-235 350l11 10q17 16 42 27t62.5 5t66.5 -42l46 -56v372q0 36 17 56.5t48 20.5q30 0 47.5 -20t17.5 -53v-207h13q66 0 66 -52h17q33 0 53 -16.5t20 -41.5h15q37 0 61.5 -23.5t24.5 -61.5v-268h-393zM668 -19v238q0 25 -15.5 40t-42.5 15h-2v-122h-30v122
q0 58 -57 58h-3v-126h-30v126q0 29 -11.5 40.5t-38.5 11.5h-10v-122h-30v344q0 31 -7.5 44.5t-27.5 13.5t-27.5 -14t-7.5 -46v-434l-107 114q-38 44 -84 21q-14 -7 -21 -14l208 -310h344zM305 -94h393v-177h-393v177zM335 -124v-117h333v117h-333zM586 -163q20 17 39 -2
t0 -38q-11 -12 -26 -7t-19.5 19t6.5 28zM626 634v-30h-158v30h158zM258 634v-30h-158v30h158zM378 730h-30v158h30v-158z" />
    <glyph glyph-name="uniF044" unicode="&#xf044;" horiz-adv-x="937" 
d="M474 -49l-317 157l3 13q4 16 11.5 30.5t25.5 31.5t45 20.5t69 -2.5l156 -40v456q0 36 17 56.5t48 20.5q30 0 47.5 -20t17.5 -53v-207h13q66 0 66 -52h17q33 0 53 -16.5t20 -41.5h15q37 0 61.5 -23.5t24.5 -61.5v-268h-393zM837 -19v238q0 25 -15.5 40t-42.5 15h-2v-122
h-30v122q0 58 -57 58h-3v-126h-30v132q-1 26 -12.5 36t-37.5 10h-10v-122h-30v344q0 31 -7.5 44.5t-27.5 13.5t-27.5 -14t-7.5 -46v-483l-196 52q-27 7 -46.5 4.5t-31 -11.5t-18 -18.5t-9.5 -17.5l-2 -7l286 -142h357zM474 -94h393v-177h-393v177zM504 -124v-117h333v117
h-333zM228 25v-30h-158v158h30v-128h128zM532 764v30h158v-158h-30v128h-128zM755 -163q20 17 39 -2t0 -38q-11 -12 -26 -7t-19.5 19t6.5 28z" />
    <glyph glyph-name="uniF045" unicode="&#xf045;" horiz-adv-x="904" 
d="M427 636h457v-30h-456v-192h13q66 0 66 -52h17q33 0 53 -16.5t20 -41.5h15q37 0 61.5 -23.5t24.5 -61.5v-268h-393l-235 350q14 14 40 28q76 47 142 -28l46 -56v372q0 36 17 56.5t48 20.5q55 0 64 -58zM116 291l208 -310h344v238q0 25 -15.5 40t-42.5 15h-2v-122h-30v128
q-3 52 -57 52h-3v-126h-30v132q-1 26 -12.5 36t-37.5 10h-10v-122h-30v344q0 31 -7.5 44.5t-27.5 13.5t-27.5 -14t-7.5 -46v-434l-107 114q-19 21 -41 26t-36 -0.5t-22 -13.5zM698 -271h-393v177h393v-177zM668 -241v117h-333v-117h333zM261 530l-21 -21l-112 112l112 112
l21 -21l-91 -91zM586 -163q20 17 39 -2t0 -38q-11 -12 -26 -7t-19.5 19t6.5 28z" />
    <glyph glyph-name="uniF046" unicode="&#xf046;" horiz-adv-x="946" 
d="M876 219v-268h-393l-235 350q14 14 40 28q76 47 142 -28l46 -56v361h-456v30h457q10 58 64 58q30 0 47.5 -20t17.5 -53v-207h13q66 0 66 -52h17q33 0 53 -16.5t20 -41.5h15q37 0 61.5 -23.5t24.5 -61.5zM294 291l208 -310h344v238q0 25 -15.5 40t-42.5 15h-2v-122h-30
v128q-3 52 -57 52h-3v-126h-30v132q-1 26 -12.5 36t-37.5 10h-10v-122h-30v344q0 31 -7.5 44.5t-27.5 13.5t-27.5 -14t-7.5 -46v-434l-107 114q-19 21 -41 26t-36 -0.5t-22 -13.5zM876 -271h-393v177h393v-177zM846 -241v117h-333v-117h333zM664 733l112 -112l-112 -112
l-21 21l91 91l-91 91zM764 -163q20 17 39 -2t0 -38q-11 -12 -26 -7t-19.5 19t6.5 28z" />
    <glyph glyph-name="uniF047" unicode="&#xf047;" horiz-adv-x="1062" 
d="M691 17l-232 -134l-197 341l186 378q3 -1 8 -2.5t18 -7.5t24.5 -13.5t24 -21t19 -29t6.5 -37.5t-9 -47l-26 -68l323 186q68 38 99 -18q15 -28 6.5 -52t-37.5 -40l-9 -5v-571h-30v553l-140 -81l6 -11q35 -57 -12 -83l9 -15q15 -31 11 -55.5t-25 -36.5l7 -13q19 -29 11 -64
t-41 -53zM462 557l-164 -335l172 -298l206 119q21 12 26.5 33t-8.5 45l-1 1l-105 -61l-15 26l105 61q50 30 22 79l-1 2l-109 -63l-15 26l109 63q24 15 28.5 31t-8.5 39l-5 8l-106 -61l-15 26l298 172q27 16 34 27.5t-1 32.5q-17 30 -70 0l-375 -217l45 150q11 41 -4 63.5
t-36 27.5zM266 -228l-196 341l153 88l197 -340zM277 -187l102 59l-167 288l-101 -58zM768 635l112 112l112 -112l-21 -21l-91 91l-91 -91zM276 -84q20 17 39 -2t0 -38q-11 -12 -26 -7t-19.5 19t6.5 28z" />
    <glyph glyph-name="uniF048" unicode="&#xf048;" horiz-adv-x="1196" 
d="M495 -52l-232 134l196 341l421 28q5 -14 4 -49q2 -38 -21 -68.5t-75 -40.5l-71 -11l282 -164v555h30v-573l10 -5q67 -39 34 -95q-15 -26 -41.5 -30.5t-53.5 11.5l-179 103l-7 -11q-31 -57 -78 -31l-8 -15q-17 -29 -43 -38t-44 4l-8 -13q-18 -32 -49 -41t-67 9zM848 416
l-372 -25l-172 -298l206 -119q21 -12 42 -6.5t35 29.5v2l-106 60l15 26l106 -60q51 -29 79 20l1 2l-109 63l15 26l109 -63q27 -14 41.5 -10t29.5 28l5 8l-106 61l15 26l298 -172q52 -29 68 2q18 29 -35 61l-375 216l152 36q28 6 43 23t17 30.5t0 26.5zM70 193l197 340
l153 -88l-196 -341zM111 204l102 -59l166 289l-101 58zM1126 -86l-112 -112l-112 112l21 21l91 -91l91 91zM172 248q12 12 27 7t19 -19t-7 -27q-7 -8 -19 -8t-20 8t-8 20t8 19z" />
    <glyph glyph-name="uniF400" unicode="&#xf400;" horiz-adv-x="0" 
d="M-228 567h-53l75 158h66z" />
    <glyph glyph-name="uniF401" unicode="&#xf401;" horiz-adv-x="0" 
d="M-272 757h-53l72 129h68z" />
    <glyph glyph-name="uniF406" unicode="&#xf406;" horiz-adv-x="489" 
d="M370 889h54q0 -70 -48 -108.5t-131 -38.5t-131.5 38.5t-48.5 108.5h54q9 -93 126 -93q116 0 125 93z" />
    <glyph glyph-name="uniF407" unicode="&#xf407;" horiz-adv-x="396" 
d="M151 -55l17 78l43 -2l-12 -42q72 -17 72 -76q0 -39 -29.5 -60.5t-79.5 -21.5q-25 0 -37 3l9 40q5 -1 25 -1q62 0 62 40q0 38 -70 42z" />
    <glyph glyph-name="uniF408" unicode="&#xf408;" horiz-adv-x="484" 
d="M67 747l149 142h52l148 -142h-74l-100 100l-101 -100h-74z" />
    <glyph glyph-name="uniF409" unicode="&#xf409;" horiz-adv-x="341" 
d="M139 -64h63v-103l-63 -55v158z" />
    <glyph glyph-name="uniF40A" unicode="&#xf40a;" horiz-adv-x="125" 
d="M45 690h63v-143l-63 -55v198z" />
    <glyph glyph-name="uniF40B" unicode="&#xf40b;" horiz-adv-x="342" 
d="M204 869v-67h-67v67h67z" />
    <glyph glyph-name="uniF40C" unicode="&#xf40c;" horiz-adv-x="420" 
d="M100 800q0 44 31 71.5t78 27.5q48 0 79 -27.5t31 -71.5t-31 -71t-79 -27q-47 0 -78 27t-31 71zM141 800q0 -27 19 -42.5t49 -15.5q31 0 49.5 15.5t18.5 42.5t-18.5 42.5t-49.5 15.5q-30 0 -49 -15.5t-19 -42.5z" />
    <glyph glyph-name="uniF40D" unicode="&#xf40d;" horiz-adv-x="478" 
d="M297 775q-24 0 -60 15q-35 15 -55 15q-36 0 -65 -29l-35 36q42 47 100 47q22 0 58 -15t57 -15q35 0 64 30l35 -37q-42 -47 -99 -47z" />
    <glyph glyph-name="uniF40E" unicode="&#xf40e;" horiz-adv-x="383" 
d="M242 41l8 -41l-32 -17l-23 -14q-25 -19 -25 -42q0 -35 57 -35q9 0 27 2l9 -41q-12 -3 -41 -3q-45 0 -73.5 19t-28.5 55q0 35 27.5 60.5t94.5 56.5z" />
    <glyph glyph-name="dollar.fitted" unicode="&#xf5f5;" horiz-adv-x="569" 
d="M506 583l-46 -33q-55 79 -146 90v-271q103 -22 153 -65q51 -42 51 -130q0 -70 -51 -123q-50 -52 -153 -56v-111h-52v111q-142 9 -212 112l47 33q35 -44 72 -65.5t93 -25.5v275q-99 22 -148 67.5t-49 126.5q0 77 50 124.5t147 52.5v117h52v-117q128 -11 192 -112zM460 172
q0 57 -33.5 89.5t-112.5 51.5v-264q72 4 109 37t37 86zM123 518q0 -58 33 -88t106 -49v260q-67 -4 -103 -35t-36 -88z" />
    <glyph glyph-name="Euro.fitted" unicode="&#xf5f6;" horiz-adv-x="621" 
d="M7 243v54h88v96h-88v54h91q22 249 242 249q99 0 163.5 -54.5t79.5 -160.5h-57q-32 161 -186 161q-83 0 -129 -47t-56 -148h211v-54h-213v-96h213v-54h-211q10 -101 56 -148t129 -47q153 0 186 163h56q-15 -107 -79.5 -162t-162.5 -55q-220 0 -242 249h-91z" />
    <glyph glyph-name="cent.fitted" unicode="&#xf5f7;" horiz-adv-x="443" 
d="M293 -3v-113h-52v111q-94 4 -145 61t-51 159v72q0 101 51.5 157.5t144.5 60.5v117h52v-119q85 -10 132 -74l-44 -30q-41 56 -125 56q-74 0 -115 -43.5t-41 -124.5v-72q0 -80 39.5 -125t116.5 -45q87 0 126 61l44 -31q-44 -68 -133 -78z" />
    <glyph glyph-name="sterling.fitted" unicode="&#xf5f8;" horiz-adv-x="480" 
d="M441 0h-404v54h71v288h-71v54h71v43q0 257 186 257q101 0 159 -76l-49 -31q-45 53 -110 53q-68 0 -98 -48.5t-30 -154.5v-43h156v-54h-156v-288h275v-54z" />
    <glyph glyph-name="yen.fitted" unicode="&#xf5f9;" horiz-adv-x="536" 
d="M75 158v54h164v90h-164v54h133l-193 334h68l185 -324l185 324h68l-193 -334h133v-54h-164v-90h164v-54h-164v-158h-58v158h-164z" />
    <glyph glyph-name="florin.fitted" unicode="&#xf5fa;" horiz-adv-x="316" 
d="M56 449v51h64v36q0 83 31.5 118.5t110.5 35.5h23v-53h-21q-56 0 -73 -26q-16 -25 -16 -89v-22h110v-51h-110v-485q0 -82 -33.5 -118t-116.5 -36v52q62 0 78 28q17 28 17 92v467h-64z" />
    <glyph glyph-name="uni20B4.fitted" unicode="&#xf5fb;" horiz-adv-x="545" 
d="M97 259h-62v55h475v-55h-345q-30 -33 -30 -87q0 -55 35.5 -89.5t98.5 -34.5q44 0 74 13q33 14 48 29q10 10 41 50l47 -33q-42 -60 -90.5 -86.5t-119.5 -26.5q-93 0 -143 53q-49 53 -49 127q0 47 20 85zM510 385h-475v55h347q25 31 25 78q0 60 -32.5 92t-95.5 32
q-50 0 -82 -21.5t-63 -69.5l-45 32q68 113 188 113q93 0 140.5 -48.5t47.5 -129.5q0 -44 -18 -78h63v-55z" />
    <glyph glyph-name="uni20BD.fitted" unicode="&#xf5fc;" horiz-adv-x="490" 
d="M96 143h-84v54h84v76h-84v54h84v363h131q119 0 185 -55t66 -154q0 -98 -66 -153t-185 -55h-73v-76h135v-54h-135v-143h-58v143zM154 636v-309h73q193 0 193 154q0 155 -193 155h-73z" />
    <glyph glyph-name="uni20B8.fitted" unicode="&#xf5fd;" horiz-adv-x="516" 
d="M10 531v54h496v-54h-219v-531h-58v531h-219zM10 636v54h496v-54h-496z" />
    <glyph glyph-name="uniF639" unicode="&#xf639;" horiz-adv-x="516" 
d="M451 497v-304q0 -92 -56 -146q-56 -53 -137 -53q-82 0 -138 53q-55 54 -55 147v302q0 94 55 146q56 54 138 54t137 -54q56 -53 56 -145zM393 193v304q0 65 -38 105t-97 40q-60 0 -98 -40t-38 -105v-304q0 -65 38 -105t98 -40q59 0 97 40t38 105z" />
    <glyph glyph-name="uniF63A" unicode="&#xf63a;" horiz-adv-x="497" 
d="M118 54h317v-54h-395v48l248 292q49 59 70 97t21 74q0 62 -40 96q-41 35 -95 35q-59 0 -96.5 -35t-39.5 -96h-57q0 83 55 134q56 51 138 51q83 0 138 -52q55 -51 55 -137q0 -28 -9 -52q-15 -37 -23 -49q-19 -29 -32 -46l-17 -21q-9 -12 -19 -23l-17 -21z" />
    <glyph glyph-name="uniF63B" unicode="&#xf63b;" horiz-adv-x="489" 
d="M223 329h-38v54h38q153 0 153 133q0 54 -38 90t-97 36q-57 0 -95 -34.5t-40 -87.5h-57q0 79 56 127q56 49 136 49q85 0 138 -52q55 -51 55 -129q0 -58 -29.5 -98.5t-81.5 -59.5q56 -19 88.5 -63.5t32.5 -106.5q0 -83 -54 -138t-142 -55q-92 0 -147.5 49.5t-60.5 131.5h57
q7 -60 45 -93.5t106 -33.5q58 0 98 38q40 39 40 99q0 69 -42.5 106.5t-120.5 37.5z" />
    <glyph glyph-name="uniF63C" unicode="&#xf63c;" horiz-adv-x="497" 
d="M24 167l247 523h59l-238 -512h241v215h58v-215h69v-54h-69v-124h-58v124h-309v43z" />
    <glyph glyph-name="uniF63D" unicode="&#xf63d;" horiz-adv-x="482" 
d="M243 410q-77 0 -120 -79h-52v359h340v-58h-284v-224q43 60 125 60q188 0 188 -252q0 -105 -51 -163.5t-146 -58.5q-78 0 -130 49q-54 51 -58 121h57q7 -53 43 -84.5t88 -31.5q139 0 139 168q0 194 -139 194z" />
    <glyph glyph-name="uniF63E" unicode="&#xf63e;" horiz-adv-x="478" 
d="M249 402q82 0 133 -57t51 -145q0 -92 -54 -149t-140 -57q-84 0 -140 56q-54 57 -54 147q0 5 3 32q5 28 12 49q6 19 12 32l6 15q1 2 7 16t6 15l143 334h65l-138 -312q36 24 88 24zM103 200q0 -70 37 -111t99 -41q61 0 98.5 41.5t37.5 110.5q0 67 -38 108.5t-98 41.5
q-61 0 -98.5 -41t-37.5 -109z" />
    <glyph glyph-name="uniF63F" unicode="&#xf63f;" horiz-adv-x="428" 
d="M81 636v-130h-54v184h378v-54l-228 -636h-62l229 636h-263z" />
    <glyph glyph-name="uniF640" unicode="&#xf640;" horiz-adv-x="486" 
d="M103 188q0 -60 40 -100t100 -40q58 0 99 41t41 99q0 59 -42 100q-43 41 -98 41q-56 0 -99 -41q-41 -41 -41 -100zM243 382q54 0 92 38t38 92t-38 92t-92 38q-55 0 -93 -38q-37 -37 -37 -92t37 -92q38 -38 93 -38zM45 188q0 56 31 102t79 67q-45 21 -72.5 63t-27.5 92
q0 79 55 131q56 53 133 53q76 0 132 -53t56 -131q0 -50 -28 -92t-73 -63q49 -21 80 -67t31 -102q0 -83 -59 -139q-58 -55 -139 -55q-82 0 -140 55t-58 139z" />
    <glyph glyph-name="uniF641" unicode="&#xf641;" horiz-adv-x="478" 
d="M230 288q-83 0 -134 57t-51 145q0 92 54 149t140 57q85 0 139 -57q55 -55 55 -146q0 -5 -3 -32q-5 -28 -12 -49q-6 -19 -12 -32l-6 -15q-1 -2 -7 -16t-6 -15l-143 -334h-65l137 312q-34 -24 -86 -24zM375 490q0 69 -37 110.5t-99 41.5q-61 0 -98.5 -41.5t-37.5 -110.5
q0 -68 37.5 -109t98.5 -41q62 0 99 41t37 109z" />
    <glyph glyph-name="uniF6BA" unicode="&#xf6ba;" horiz-adv-x="309" 
d="M279 319h-249v51h249v-51z" />
    <glyph glyph-name="uniF6BB" unicode="&#xf6bb;" horiz-adv-x="509" 
d="M444 319h-379v51h379v-51z" />
    <glyph glyph-name="uniF6BC" unicode="&#xf6bc;" horiz-adv-x="704" 
d="M679 319h-654v51h654v-51z" />
    <glyph glyph-name="uniF6C3" unicode="&#xf6c3;" horiz-adv-x="279" 
d="M108 -64h63v-103l-63 -55v158z" />
    <glyph glyph-name="uniF6C9" unicode="&#xf6c9;" horiz-adv-x="391" 
d="M178 757h-53l72 129h68z" />
    <glyph glyph-name="uniF6CA" unicode="&#xf6ca;" horiz-adv-x="484" 
d="M67 889h74l101 -100l100 100h74l-148 -142h-52z" />
    <glyph glyph-name="uniF6CB" unicode="&#xf6cb;" horiz-adv-x="447" 
d="M362 869v-67h-67v67h67zM152 869v-67h-67v67h67z" />
    <glyph glyph-name="uniF6CE" unicode="&#xf6ce;" horiz-adv-x="360" 
d="M200 757l-90 129h68l72 -129h-50z" />
    <glyph glyph-name="uniF6CF" unicode="&#xf6cf;" horiz-adv-x="506" 
d="M142 757h-54l80 129h68zM319 757h-53l85 129h67z" />
    <glyph glyph-name="uniF6D0" unicode="&#xf6d0;" horiz-adv-x="460" 
d="M379 787h-299v51h299v-51z" />
    <glyph glyph-name="uniF6D1" unicode="&#xf6d1;" horiz-adv-x="479" 
d="M353 889h56q0 -142 -169 -142q-170 0 -170 142h56q0 -96 114 -96q113 0 113 96z" />
    <glyph glyph-name="uniF6D4" unicode="&#xf6d4;" horiz-adv-x="379" 
d="M272 690h48q-3 -118 -131 -118q-130 0 -131 118h48q2 -38 21.5 -56t61.5 -18t61.5 18t21.5 56z" />
    <glyph glyph-name="uniF6DC" unicode="&#xf6dc;" horiz-adv-x="289" 
d="M141 690h58v-690h-58v620l-99 -71v65z" />
    <glyph glyph-name="uniFEFF" unicode="&#xfeff;" horiz-adv-x="0" 
 />
    <glyph glyph-name="uniF4D3" unicode="&#x1f4d3;" horiz-adv-x="772" 
d="M70 60v815q0 25 18 43t43 18h510q25 0 43 -18t18 -43v-815q0 -25 -18 -42.5t-43 -17.5h-510q-25 0 -43 17.5t-18 42.5zM386 127q17 0 29 -12t12 -29t-12 -29t-29 -12q-18 0 -30 12t-12 29t12 29t30 12zM672 172v641h-572v-641h572zM373 861q-8 8 -4.5 16.5t12 10.5
t16.5 -4t4.5 -15t-12 -12t-16.5 4zM100 875v-32h572v32q0 13 -9 22t-22 9h-509q-14 0 -23 -9t-9 -22zM672 61v81h-572v-81q0 -13 9 -22t23 -9h509q13 0 22 9t9 22z" />
    <glyph glyph-name="uniF4F1" unicode="&#x1f4f1;" horiz-adv-x="572" 
d="M70 60v715q0 25 18 43t43 18h310q25 0 43 -18t18 -43v-715q0 -25 -18 -42.5t-43 -17.5h-310q-25 0 -43 17.5t-18 42.5zM472 183v510h-372v-510h372zM239 777h94q11 0 11 -12t-11 -12h-94q-11 0 -11 12t11 12zM472 62v91h-372v-91q0 -14 9 -23t23 -9h309q13 0 22 9t9 23z
M100 775v-52h372v52q0 13 -9 22t-22 9h-309q-14 0 -23 -9t-9 -22zM286 132q17 0 29 -12t12 -29t-12 -29t-29 -12q-18 0 -30 12t-12 29t12 29t30 12z" />
    <glyph glyph-name="NULL" horiz-adv-x="0" 
 />
    <glyph glyph-name="CR" horiz-adv-x="333" 
 />
    <glyph glyph-name="uni2191.ss02" horiz-adv-x="846" 
d="M423 625l353 -353l-21 -22l-317 318v-671h-30v671l-317 -318l-21 22z" />
    <glyph glyph-name="uni2190.ss02" horiz-adv-x="868" 
d="M127 246l318 -317l-22 -21l-353 353l353 353l22 -21l-318 -317h671v-30h-671z" />
    <glyph glyph-name="uni2198.ss02" horiz-adv-x="665" 
d="M565 51v449h30v-500h-500v30h449l-474 474l21 21z" />
    <glyph glyph-name="uni2193.ss02" horiz-adv-x="846" 
d="M423 -103l-353 353l21 22l317 -318v671h30v-671l317 318l21 -22z" />
    <glyph glyph-name="afii10069.ss01" horiz-adv-x="496" 
d="M451 472v-258q0 -105 -52.5 -162.5t-150.5 -57.5q-97 0 -150 57.5t-53 162.5v73q0 105 53 162t150 57q100 0 148 -63v29q0 82 -40 127.5t-114 45.5q-71 0 -130 -49l-31 41q31 27 75.5 43t86.5 16q100 0 154 -58.5t54 -165.5zM396 214v81q0 77 -39 118.5t-109 41.5
q-71 0 -109.5 -43.5t-38.5 -124.5v-73q0 -81 37.5 -125t110.5 -44q71 0 109.5 45t38.5 124z" />
    <glyph glyph-name="afii10074.ss01" 
d="M401 500h55v-500h-55v67q-42 -73 -148 -73q-87 0 -135 53.5t-48 156.5v296h55v-296q0 -79 35.5 -118.5t98.5 -39.5q68 0 105 41t37 113v300z" />
    <glyph glyph-name="afii10075.ss01" 
d="M401 500h55v-500h-55v67q-42 -73 -148 -73q-87 0 -135 53.5t-48 156.5v296h55v-296q0 -79 35.5 -118.5t98.5 -39.5q68 0 105 41t37 113v300zM346 690h48q-3 -118 -131 -118q-130 0 -131 118h48q2 -38 21.5 -56t61.5 -18t61.5 18t21.5 56z" />
    <glyph glyph-name="afii10081.ss01" 
d="M125 0h-55v500h55v-68q41 74 147 74q87 0 135.5 -54t48.5 -156v-296h-55v295q0 80 -35.5 119.5t-99.5 39.5q-68 0 -104.5 -41t-36.5 -113v-300z" />
    <glyph glyph-name="afii10084.ss01" horiz-adv-x="797" 
d="M125 0h-55v500h55v-68q35 74 132 74q108 0 149 -98q44 98 152 98q81 0 125 -54.5t44 -155.5v-296h-55v295q0 78 -31.5 118.5t-88.5 40.5q-59 0 -92.5 -40t-33.5 -107v-307h-55v295q0 78 -31.5 118.5t-88.5 40.5q-60 0 -93 -41t-33 -113v-300z" />
    <glyph glyph-name="uni2192.ss02" horiz-adv-x="868" 
d="M798 261l-353 -353l-22 21l318 317h-671v30h671l-318 317l22 21z" />
    <glyph glyph-name="uni2197.ss02" horiz-adv-x="665" 
d="M595 500v-500h-30v449l-474 -474l-21 21l474 474h-449v30h500z" />
    <glyph glyph-name="uni2199.ss02" horiz-adv-x="665" 
d="M70 0v500h30v-449l474 474l21 -21l-474 -474h449v-30h-500z" />
    <glyph glyph-name="uni261E.ss02" horiz-adv-x="1098" 
d="M70 51v389h164v-389h-164zM116 415h-20v-338h20v338zM188 77h20v338h-20v-338zM162 415h-20v-241h20v241zM162 112h-20v-35h20v35zM553 47h-268v393l350 235q14 -14 28 -41q46 -81 -28 -141l-56 -46h372q36 0 56.5 -17t20.5 -48q0 -30 -20 -47.5t-53 -17.5h-207v-13
q0 -66 -52 -66v-17q0 -33 -16.5 -53t-41.5 -20v-15q0 -37 -23.5 -61.5t-61.5 -24.5zM625 629l-310 -208v-344h238q25 0 40 15.5t15 42.5v2h-122v30h122q58 0 58 57v3h-126v30h126q29 0 40.5 11.5t11.5 38.5v10h-122v30h344q31 0 44.5 7.5t13.5 27.5t-14 27.5t-46 7.5h-434
l114 107q21 19 26 41.5t-0.5 35.5t-13.5 23z" />
    <glyph glyph-name="uni2196.ss02" horiz-adv-x="665" 
d="M100 449v-449h-30v500h500v-30h-449l474 -474l-21 -21z" />
    <glyph glyph-name="acircumflex.ss01" horiz-adv-x="516" 
d="M45 215v72q0 105 51 162t144 57q109 0 151 -71v65h55v-500h-55v61q-40 -67 -151 -67q-95 0 -145 57.5t-50 163.5zM244 45q147 0 147 161v87q0 162 -147 162q-71 0 -107.5 -43t-36.5 -125v-72q0 -82 36.5 -126t107.5 -44zM114 558l108 142h62l108 -142h-60l-79 105
l-79 -105h-60z" />
    <glyph glyph-name="atilde.ss01" horiz-adv-x="516" 
d="M45 215v72q0 105 51 162t144 57q109 0 151 -71v65h55v-500h-55v61q-40 -67 -151 -67q-95 0 -145 57.5t-50 163.5zM244 45q147 0 147 161v87q0 162 -147 162q-71 0 -107.5 -43t-36.5 -125v-72q0 -82 36.5 -126t107.5 -44zM314 603q-24 0 -60 15q-35 15 -55 15
q-36 0 -65 -29l-35 31q42 47 100 47q22 0 58 -15t57 -15q36 0 64 30l35 -32q-42 -47 -99 -47z" />
    <glyph glyph-name="adieresis.ss01" horiz-adv-x="516" 
d="M45 215v72q0 105 51 162t144 57q109 0 151 -71v65h55v-500h-55v61q-40 -67 -151 -67q-95 0 -145 57.5t-50 163.5zM244 45q147 0 147 161v87q0 162 -147 162q-71 0 -107.5 -43t-36.5 -125v-72q0 -82 36.5 -126t107.5 -44zM393 690v-67h-67v67h67zM183 690v-67h-67v67h67z
" />
    <glyph glyph-name="aring.ss01" horiz-adv-x="516" 
d="M45 215v72q0 105 51 162t144 57q109 0 151 -71v65h55v-500h-55v61q-40 -67 -151 -67q-95 0 -145 57.5t-50 163.5zM244 45q147 0 147 161v87q0 162 -147 162q-71 0 -107.5 -43t-36.5 -125v-72q0 -82 36.5 -126t107.5 -44zM147 646q0 46 32 78t77 32q46 0 78 -32t32 -78
q0 -45 -32 -77t-78 -32q-45 0 -77 32t-32 77zM208 694q-20 -20 -20 -48t20 -48t48 -20t48 20t20 48t-20 48t-48 20t-48 -20z" />
    <glyph glyph-name="egrave.ss01" horiz-adv-x="484" 
d="M243 227h-143v-10q0 -80 39 -126t113 -46q90 0 130 61l44 -31q-52 -81 -171 -81q-100 0 -155 58.5t-55 162.5v72q0 105 54 162t150 57q85 0 133.5 -38t48.5 -102t-49.5 -101.5t-138.5 -37.5zM100 287v-10h143q133 0 133 89t-127 89q-71 0 -110 -43.5t-39 -124.5zM156 725
h65l75 -158h-52z" />
    <glyph glyph-name="eacute.ss01" horiz-adv-x="484" 
d="M243 227h-143v-10q0 -80 39 -126t113 -46q90 0 130 61l44 -31q-52 -81 -171 -81q-100 0 -155 58.5t-55 162.5v72q0 105 54 162t150 57q85 0 133.5 -38t48.5 -102t-49.5 -101.5t-138.5 -37.5zM100 287v-10h143q133 0 133 89t-127 89q-71 0 -110 -43.5t-39 -124.5zM261 567
h-53l75 158h66z" />
    <glyph glyph-name="ecircumflex.ss01" horiz-adv-x="484" 
d="M243 227h-143v-10q0 -80 39 -126t113 -46q90 0 130 61l44 -31q-52 -81 -171 -81q-100 0 -155 58.5t-55 162.5v72q0 105 54 162t150 57q85 0 133.5 -38t48.5 -102t-49.5 -101.5t-138.5 -37.5zM100 287v-10h143q133 0 133 89t-127 89q-71 0 -110 -43.5t-39 -124.5zM111 558
l108 142h62l108 -142h-60l-79 105l-79 -105h-60z" />
    <glyph glyph-name="edieresis.ss01" horiz-adv-x="484" 
d="M243 227h-143v-10q0 -80 39 -126t113 -46q90 0 130 61l44 -31q-52 -81 -171 -81q-100 0 -155 58.5t-55 162.5v72q0 105 54 162t150 57q85 0 133.5 -38t48.5 -102t-49.5 -101.5t-138.5 -37.5zM100 287v-10h143q133 0 133 89t-127 89q-71 0 -110 -43.5t-39 -124.5zM386 690
v-67h-67v67h67zM176 690v-67h-67v67h67z" />
    <glyph glyph-name="afii10065.ss01" horiz-adv-x="516" 
d="M45 215v72q0 105 51 162t144 57q109 0 151 -71v65h55v-500h-55v61q-40 -67 -151 -67q-95 0 -145 57.5t-50 163.5zM244 45q147 0 147 161v87q0 162 -147 162q-71 0 -107.5 -43t-36.5 -125v-72q0 -82 36.5 -126t107.5 -44z" />
    <glyph glyph-name="afii10070.ss01" horiz-adv-x="484" 
d="M243 227h-143v-10q0 -80 39 -126t113 -46q90 0 130 61l44 -31q-52 -81 -171 -81q-100 0 -155 58.5t-55 162.5v72q0 105 54 162t150 57q85 0 133.5 -38t48.5 -102t-49.5 -101.5t-138.5 -37.5zM100 287v-10h143q133 0 133 89t-127 89q-71 0 -110 -43.5t-39 -124.5z" />
    <glyph glyph-name="afii10071.ss01" horiz-adv-x="484" 
d="M243 227h-143v-10q0 -80 39 -126t113 -46q90 0 130 61l44 -31q-52 -81 -171 -81q-100 0 -155 58.5t-55 162.5v72q0 105 54 162t150 57q85 0 133.5 -38t48.5 -102t-49.5 -101.5t-138.5 -37.5zM100 287v-10h143q133 0 133 89t-127 89q-71 0 -110 -43.5t-39 -124.5zM386 690
v-67h-67v67h67zM176 690v-67h-67v67h67z" />
    <glyph glyph-name="aogonek.ss01" horiz-adv-x="516" 
d="M45 215v72q0 105 51 162t144 57q109 0 151 -71v65h55v-500l-32 -17l-23 -14q-25 -19 -25 -42q0 -35 56 -35q6 0 28 2l9 -41q-12 -3 -42 -3q-44 0 -72.5 19t-28.5 55q0 54 75 94v43q-40 -67 -151 -67q-95 0 -145 57.5t-50 163.5zM244 45q147 0 147 161v87q0 162 -147 162
q-71 0 -107.5 -43t-36.5 -125v-72q0 -82 36.5 -126t107.5 -44z" />
    <glyph glyph-name="abreve.ss01" horiz-adv-x="516" 
d="M45 215v72q0 105 51 162t144 57q109 0 151 -71v65h55v-500h-55v61q-40 -67 -151 -67q-95 0 -145 57.5t-50 163.5zM244 45q147 0 147 161v87q0 162 -147 162q-71 0 -107.5 -43t-36.5 -125v-72q0 -82 36.5 -126t107.5 -44zM339 690h48q-5 -113 -131 -113t-131 113h48
q3 -36 22.5 -52.5t60.5 -16.5q77 0 83 69z" />
    <glyph glyph-name="eogonek.ss01" horiz-adv-x="484" 
d="M243 227h-143v-10q0 -80 39 -126t113 -46q90 0 130 61l44 -31q-39 -60 -111 -75l-32 -17l-23 -14q-25 -19 -25 -42q0 -35 57 -35q9 0 27 2l9 -41q-12 -3 -41 -3q-45 0 -73.5 19t-28.5 55q0 40 42 72q-87 7 -134.5 64.5t-47.5 154.5v72q0 105 54 162t150 57
q85 0 133.5 -38t48.5 -102t-49.5 -101.5t-138.5 -37.5zM100 287v-10h143q133 0 133 89t-127 89q-71 0 -110 -43.5t-39 -124.5z" />
    <glyph glyph-name="ecaron.ss01" horiz-adv-x="484" 
d="M243 227h-143v-10q0 -80 39 -126t113 -46q90 0 130 61l44 -31q-52 -81 -171 -81q-100 0 -155 58.5t-55 162.5v72q0 105 54 162t150 57q85 0 133.5 -38t48.5 -102t-49.5 -101.5t-138.5 -37.5zM100 287v-10h143q133 0 133 89t-127 89q-71 0 -110 -43.5t-39 -124.5zM386 700
l-108 -142h-62l-108 142h60l79 -105l79 105h60z" />
    <glyph glyph-name="amacron.ss01" horiz-adv-x="516" 
d="M45 215v72q0 105 51 162t144 57q109 0 151 -71v65h55v-500h-55v61q-40 -67 -151 -67q-95 0 -145 57.5t-50 163.5zM244 45q147 0 147 161v87q0 162 -147 162q-71 0 -107.5 -43t-36.5 -125v-72q0 -82 36.5 -126t107.5 -44zM387 621h-259v51h259v-51z" />
    <glyph glyph-name="emacron.ss01" horiz-adv-x="484" 
d="M243 227h-143v-10q0 -80 39 -126t113 -46q90 0 130 61l44 -31q-52 -81 -171 -81q-100 0 -155 58.5t-55 162.5v72q0 105 54 162t150 57q85 0 133.5 -38t48.5 -102t-49.5 -101.5t-138.5 -37.5zM100 287v-10h143q133 0 133 89t-127 89q-71 0 -110 -43.5t-39 -124.5zM378 621
h-259v51h259v-51z" />
    <glyph glyph-name="edotaccent.ss01" horiz-adv-x="484" 
d="M243 227h-143v-10q0 -80 39 -126t113 -46q90 0 130 61l44 -31q-52 -81 -171 -81q-100 0 -155 58.5t-55 162.5v72q0 105 54 162t150 57q85 0 133.5 -38t48.5 -102t-49.5 -101.5t-138.5 -37.5zM100 287v-10h143q133 0 133 89t-127 89q-71 0 -110 -43.5t-39 -124.5zM281 690
v-67h-67v67h67z" />
    <glyph glyph-name="afii10065.var.accented.ss01" horiz-adv-x="516" 
d="M45 215v72q0 105 51 162t144 57q109 0 151 -71v65h55v-500h-55v61q-40 -67 -151 -67q-95 0 -145 57.5t-50 163.5zM244 45q147 0 147 161v87q0 162 -147 162q-71 0 -107.5 -43t-36.5 -125v-72q0 -82 36.5 -126t107.5 -44zM276 567h-53l75 158h66z" />
    <glyph glyph-name="afii10070.var.accented.ss01" horiz-adv-x="484" 
d="M243 227h-143v-10q0 -80 39 -126t113 -46q90 0 130 61l44 -31q-52 -81 -171 -81q-100 0 -155 58.5t-55 162.5v72q0 105 54 162t150 57q85 0 133.5 -38t48.5 -102t-49.5 -101.5t-138.5 -37.5zM100 287v-10h143q133 0 133 89t-127 89q-71 0 -110 -43.5t-39 -124.5zM261 567
h-53l75 158h66z" />
    <glyph glyph-name="afii10074.var.accented.ss01" 
d="M401 500h55v-500h-55v67q-42 -73 -148 -73q-87 0 -135 53.5t-48 156.5v296h55v-296q0 -79 35.5 -118.5t98.5 -39.5q68 0 105 41t37 113v300zM278 567h-53l75 158h66z" />
    <glyph glyph-name="afii10071.var.accented.ss01" horiz-adv-x="484" 
d="M243 227h-143v-10q0 -80 39 -126t113 -46q90 0 130 61l44 -31q-52 -81 -171 -81q-100 0 -155 58.5t-55 162.5v72q0 105 54 162t150 57q85 0 133.5 -38t48.5 -102t-49.5 -101.5t-138.5 -37.5zM100 287v-10h143q133 0 133 89t-127 89q-71 0 -110 -43.5t-39 -124.5zM386 690
v-67h-67v67h67zM176 690v-67h-67v67h67zM272 717h-53l75 158h66z" />
    <glyph glyph-name="uni04E3.ss01" 
d="M401 500h55v-500h-55v67q-42 -73 -148 -73q-87 0 -135 53.5t-48 156.5v296h55v-296q0 -79 35.5 -118.5t98.5 -39.5q68 0 105 41t37 113v300zM393 621h-259v51h259v-51z" />
    <glyph glyph-name="afii10193.ss01" 
d="M401 500h55v-500h-55v67q-37 -65 -120 -72v-112h-55v113q-75 8 -115.5 61t-40.5 147v296h55v-296q0 -79 35.5 -118.5t98.5 -39.5q68 0 105 41t37 113v300z" />
    <glyph glyph-name="e.ss01" horiz-adv-x="484" 
d="M243 227h-143v-10q0 -80 39 -126t113 -46q90 0 130 61l44 -31q-52 -81 -171 -81q-100 0 -155 58.5t-55 162.5v72q0 105 54 162t150 57q85 0 133.5 -38t48.5 -102t-49.5 -101.5t-138.5 -37.5zM100 287v-10h143q133 0 133 89t-127 89q-71 0 -110 -43.5t-39 -124.5z" />
    <glyph glyph-name="aacute.ss01" horiz-adv-x="516" 
d="M45 215v72q0 105 51 162t144 57q109 0 151 -71v65h55v-500h-55v61q-40 -67 -151 -67q-95 0 -145 57.5t-50 163.5zM244 45q147 0 147 161v87q0 162 -147 162q-71 0 -107.5 -43t-36.5 -125v-72q0 -82 36.5 -126t107.5 -44zM276 567h-53l75 158h66z" />
    <glyph glyph-name="agrave.ss01" horiz-adv-x="516" 
d="M45 215v72q0 105 51 162t144 57q109 0 151 -71v65h55v-500h-55v61q-40 -67 -151 -67q-95 0 -145 57.5t-50 163.5zM244 45q147 0 147 161v87q0 162 -147 162q-71 0 -107.5 -43t-36.5 -125v-72q0 -82 36.5 -126t107.5 -44zM161 725h65l75 -158h-52z" />
    <glyph glyph-name="afii10091.ss01" horiz-adv-x="794" 
d="M361 199v301h55v-296q0 -158 114 -158q59 0 90.5 40.5t31.5 112.5v301h55v-449h70v-168h-55v117h-70v67q-36 -73 -128 -73q-106 0 -145 96q-43 -96 -146 -96q-78 0 -120.5 54t-42.5 156v296h55v-296q0 -158 114 -158q59 0 90.5 40.5t31.5 112.5z" />
    <glyph glyph-name="afii10090.ss01" horiz-adv-x="777" 
d="M361 199v301h55v-296q0 -158 114 -158q59 0 90.5 40.5t31.5 112.5v301h55v-500h-55v67q-36 -73 -128 -73q-106 0 -145 96q-43 -96 -146 -96q-78 0 -120.5 54t-42.5 156v296h55v-296q0 -158 114 -158q59 0 90.5 40.5t31.5 112.5z" />
    <glyph glyph-name="afii10088.ss01" horiz-adv-x="543" 
d="M401 500h55v-449h70v-168h-55v117h-70v67q-42 -73 -148 -73q-87 0 -135 53.5t-48 156.5v296h55v-296q0 -79 35.5 -118.5t98.5 -39.5q68 0 105 41t37 113v300z" />
    <glyph glyph-name="a.ss01" horiz-adv-x="516" 
d="M45 215v72q0 105 51 162t144 57q109 0 151 -71v65h55v-500h-55v61q-40 -67 -151 -67q-95 0 -145 57.5t-50 163.5zM244 45q147 0 147 161v87q0 162 -147 162q-71 0 -107.5 -43t-36.5 -125v-72q0 -82 36.5 -126t107.5 -44z" />
    </font>
</defs>
</svg>
