<?xml version="1.0" standalone="no"?>
<!DOCTYPE svg PUBLIC "-//W3C//DTD SVG 1.1//EN" "http://www.w3.org/Graphics/SVG/1.1/DTD/svg11.dtd" >
<svg xmlns="http://www.w3.org/2000/svg" xmlns:xlink="http://www.w3.org/1999/xlink" version="1.1">
<metadata>
Created by FontForge 20190801 at Sun Jan 31 02:51:36 2016
 By Jimmy Wärting
Copyright (c) 2014 ParaType Inc., ParaType Ltd. All rights reserved.
</metadata>
<defs>
<font id="DIN2014-ExtraLight" horiz-adv-x="481" >
  <font-face 
    font-family="DIN 2014"
    font-weight="250"
    font-stretch="normal"
    units-per-em="1000"
    panose-1="2 11 3 4 2 2 2 2 2 4"
    ascent="779"
    descent="-221"
    x-height="500"
    cap-height="690"
    bbox="-324 -271 3054 953"
    underline-thickness="50"
    underline-position="-250"
    unicode-range="U+0020-1F4F1"
  />
<missing-glyph horiz-adv-x="250" 
 />
    <glyph glyph-name="afii10017.var.accented" unicode="&#x410;`" horiz-adv-x="522" 
d="M107 178l-60 -178h-32l232 690h28l232 -690h-32l-60 178h-308zM405 208l-144 427l-144 -427h288zM288 767h-30l65 129h35z" />
    <glyph glyph-name="afii10022.var.accented" unicode="&#x415;`" horiz-adv-x="546" 
d="M95 0v690h396v-30h-366v-288h336v-30h-336v-312h366v-30h-396zM295 767h-30l65 129h35z" />
    <glyph glyph-name="afii10026.var.accented" unicode="&#x418;`" horiz-adv-x="656" 
d="M95 0v690h30v-632l408 632h28v-690h-30v632l-408 -632h-28zM331 767h-30l65 129h35z" />
    <glyph glyph-name="afii10032.var.accented" unicode="&#x41e;`" horiz-adv-x="600" 
d="M540 391v-92q0 -151 -63 -228t-177 -77t-177 77t-63 228v92q0 151 63 228t177 77t177 -77t63 -228zM90 391v-92q0 -140 55 -207.5t155 -67.5t155 67.5t55 207.5v92q0 140 -55 207.5t-155 67.5t-155 -67.5t-55 -207.5zM307 767h-30l65 129h35z" />
    <glyph glyph-name="afii10037.var.accented" unicode="&#x423;`" horiz-adv-x="572" 
d="M301 152l220 538h32l-235 -574q-30 -72 -67 -97t-120 -25v30q69 0 100 18q31 20 54 72l-255 576h33zM315 767h-30l65 129h35z" />
    <glyph glyph-name="afii10045.var.accented" unicode="&#x42b;`" horiz-adv-x="740" 
d="M95 0v690h30v-297h153q122 0 180 -58t58 -139t-58 -139q-58 -57 -180 -57h-183zM278 363h-153v-333h153q101 0 154.5 44.5t53.5 121.5t-54 122t-154 45zM615 690h30v-690h-30v690zM379 767h-30l65 129h35z" />
    <glyph glyph-name="afii10047.var.accented" unicode="&#x42d;`" horiz-adv-x="583" 
d="M493 332h-307v30h307v29q0 144 -52.5 209.5t-157.5 65.5q-177 0 -208 -177h-30q15 107 81 156q66 51 157 51q240 0 240 -305v-92q0 -305 -240 -305q-89 0 -156 51q-66 53 -81 160h29q16 -87 70 -134t138 -47q105 0 157.5 65.5t52.5 209.5v33zM295 767h-30l65 129h35z" />
    <glyph glyph-name="afii10048.var.accented" unicode="&#x42e;`" horiz-adv-x="788" 
d="M728 401v-112q0 -295 -225 -295t-225 295v53h-153v-342h-30v690h30v-318h153v29q0 295 225 295t225 -295zM308 401v-112q0 -265 195 -265t195 265v112q0 265 -195 265t-195 -265zM285 767h-30l65 129h35z" />
    <glyph glyph-name="afii10049.var.accented" unicode="&#x42f;`" horiz-adv-x="604" 
d="M40 0l166 305q-148 37 -148 187q0 96 63 147t178 51h210v-690h-30v295h-180q-39 0 -62 4l-163 -299h-34zM479 325v335h-180q-211 0 -211 -168q0 -167 211 -167h180zM325 767h-30l65 129h35z" />
    <glyph glyph-name="afii10023.var.accented" unicode="&#x401;`" horiz-adv-x="546" 
d="M95 0v690h396v-30h-366v-288h336v-30h-336v-312h366v-30h-396zM420 869v-44h-44v44h44zM210 869v-44h-44v44h44zM295 824h-30l65 129h35z" />
    <glyph glyph-name="afii10065.var.accented" unicode="&#x430;`" 
d="M50 141q0 63 41 100.5t112 37.5h173v68q0 74 -31 101q-29 28 -109 28q-38 0 -57 -3q-53 -6 -85 -60l-24 17q24 42 62.5 59t103.5 17q92 0 131 -35t39 -124v-347h-30v74q-38 -80 -157 -80q-81 0 -125 38t-44 109zM376 179v70h-173q-63 0 -93 -29t-30 -79q0 -117 139 -117
q74 0 115.5 38.5t41.5 116.5zM266 567h-30l80 158h35z" />
    <glyph glyph-name="afii10070.var.accented" unicode="&#x435;`" 
d="M426 292v-50h-346v-32q0 -89 44 -137.5t132 -48.5q94 0 142 66l25 -17q-55 -79 -167 -79q-98 0 -152 56.5t-54 159.5v82q0 104 48.5 159t139.5 55t139.5 -55t48.5 -159zM80 292v-20h316v20q0 184 -158 184q-76 0 -117 -47t-41 -137zM235 567h-30l80 158h35z" />
    <glyph glyph-name="afii10074.var.accented" unicode="&#x438;`" horiz-adv-x="536" 
d="M75 500h30v-447l327 447h29v-500h-30v448l-327 -448h-29v500zM249 567h-30l80 158h35z" />
    <glyph glyph-name="afii10080.var.accented" unicode="&#x43e;`" horiz-adv-x="496" 
d="M446 292v-84q0 -104 -51 -159t-147 -55t-147 55t-51 159v84q0 104 51 159t147 55t147 -55t51 -159zM416 208v84q0 184 -168 184t-168 -184v-84q0 -184 168 -184t168 184zM245 567h-30l80 158h35z" />
    <glyph glyph-name="afii10085.var.accented" unicode="&#x443;`" horiz-adv-x="452" 
d="M74 -190v30q67 0 93 35q26 31 54 109l2 7l-213 509h33l150 -360l46 -105l167 465h31l-187 -523q-32 -94 -68 -130q-37 -37 -108 -37zM244 567h-30l80 158h35z" />
    <glyph glyph-name="afii10093.var.accented" unicode="&#x44b;`" horiz-adv-x="599" 
d="M105 500v-206h131q90 0 135.5 -39.5t45.5 -107.5t-45.5 -107.5t-135.5 -39.5h-161v500h30zM236 264h-131v-234h131q151 0 151 117t-151 117zM494 0v500h30v-500h-30zM304 567h-30l80 158h35z" />
    <glyph glyph-name="afii10095.var.accented" unicode="&#x44d;`" horiz-adv-x="459" 
d="M379 239h-237v30h237v23q0 90 -45.5 137t-130.5 47q-93 0 -140 -62l-25 17q56 75 165 75q99 0 152.5 -55t53.5 -159v-82q0 -105 -53.5 -160.5t-152.5 -55.5q-112 0 -167 79l25 17q48 -66 142 -66q88 0 132 48.5t44 137.5v29zM224 567h-30l80 158h35z" />
    <glyph glyph-name="afii10096.var.accented" unicode="&#x44e;`" horiz-adv-x="656" 
d="M240 210v29h-135v-239h-30v500h30v-231h135v23q0 104 47.5 159t135.5 55t135.5 -55t47.5 -159v-82q0 -106 -47 -161t-136 -55t-136 55t-47 161zM576 208v84q0 184 -153 184t-153 -184v-84q0 -184 153 -184t153 184zM254 567h-30l80 158h35z" />
    <glyph glyph-name="afii10097.var.accented" unicode="&#x44f;`" horiz-adv-x="500" 
d="M425 500v-500h-30v207h-144q-27 0 -34 1l-136 -208h-36l139 213q-59 14 -90 50.5t-31 89.5q0 67 48.5 107t139.5 40h174zM251 237h144v233h-144q-76 0 -117 -31t-41 -86t41 -85.5t117 -30.5zM274 567h-30l80 158h35z" />
    <glyph glyph-name="afii10071.var.accented" unicode="&#x451;`" 
d="M426 292v-50h-346v-32q0 -89 44 -137.5t132 -48.5q94 0 142 66l25 -17q-55 -79 -167 -79q-98 0 -152 56.5t-54 159.5v82q0 104 48.5 159t139.5 55t139.5 -55t48.5 -159zM80 292v-20h316v20q0 184 -158 184q-76 0 -117 -47t-41 -137zM375 690v-44h-44v44h44zM165 690v-44
h-44v44h44zM259 717h-30l80 158h35z" />
    <glyph glyph-name="fi" unicode="fi" horiz-adv-x="465" 
d="M350 0h-30v470h-195v-470h-30v470h-64v30h64v36q0 82 29.5 118t102.5 36h23v-30h-20q-66 0 -86 -29q-19 -28 -19 -95v-36h225v-500z" />
    <glyph glyph-name="fl" unicode="fl" horiz-adv-x="510" 
d="M320 154v506h-90q-66 0 -86 -29q-19 -28 -19 -95v-36h125v-30h-125v-470h-30v470h-64v30h64v36q0 82 29.5 118t102.5 36h123v-536q0 -67 19 -95q20 -29 86 -29v-30q-75 0 -105 36t-30 118z" />
    <glyph glyph-name=".notdef" horiz-adv-x="250" 
 />
    <glyph glyph-name=".null" horiz-adv-x="0" 
 />
    <glyph glyph-name="nonmarkingreturn" horiz-adv-x="333" 
 />
    <glyph glyph-name="space" unicode=" " horiz-adv-x="250" 
 />
    <glyph glyph-name="exclam" unicode="!" horiz-adv-x="180" 
d="M75 690h30v-531h-30v531zM110 0h-40v40h40v-40z" />
    <glyph glyph-name="quotedbl" unicode="&#x22;" horiz-adv-x="246" 
d="M50 690h30v-169h-30v169zM166 690h30v-169h-30v169z" />
    <glyph glyph-name="numbersign" unicode="#" horiz-adv-x="555" 
d="M12 440v30h144l41 220h31l-41 -220h206l42 220h31l-41 -220h130v-30h-136l-34 -180h133v-30h-138l-43 -230h-31l43 230h-207l-42 -230h-31l42 230h-136v30h142l33 180h-138zM388 440h-207l-33 -180h206z" />
    <glyph glyph-name="dollar" unicode="$" horiz-adv-x="480" 
d="M439 583l-26 -15q-29 50 -60 72t-92 25v-306q100 -27 144 -70q46 -42 46 -127q0 -75 -47 -120t-143 -48v-110h-30v111q-69 3 -115 29.5t-83 82.5l24 16q35 -50 72.5 -73t101.5 -26v311q-93 25 -138 70t-45 121q0 164 183 170v116h30v-117q66 -3 107.5 -29t70.5 -83z
M421 162q0 67 -37 105.5t-123 60.5v-304q81 3 120.5 39.5t39.5 98.5zM78 526q0 -65 37 -100.5t116 -58.5v299q-153 -4 -153 -140z" />
    <glyph glyph-name="percent" unicode="%" horiz-adv-x="720" 
d="M144 0l386 690h34l-385 -690h-35zM268 489v63q0 115 -104 115t-104 -115v-63q0 -117 104 -117t104 117zM30 489v63q0 71 35 108t99 37t99 -37t35 -108v-63q0 -72 -34.5 -109.5t-99.5 -37.5t-99.5 37.5t-34.5 109.5zM660 141v63q0 115 -104 115t-104 -115v-63
q0 -117 104 -117t104 117zM422 141v63q0 71 35 108t99 37t99 -37t35 -108v-63q0 -72 -34.5 -109.5t-99.5 -37.5t-99.5 37.5t-34.5 109.5z" />
    <glyph glyph-name="ampersand" unicode="&#x26;" horiz-adv-x="641" 
d="M50 179q0 46 23 87q22 40 50 66q32 28 74 57q-77 86 -77 167q0 64 38 102t99 38q63 0 96.5 -33.5t33.5 -88.5q0 -40 -24 -77q-20 -33 -49 -59q-19 -16 -73 -54l212 -243q46 79 46 181h30q0 -115 -56 -204l103 -118h-41l-80 92q-75 -98 -197 -98q-99 0 -154 55
q-54 55 -54 130zM258 24q110 0 178 90l-220 253q-72 -52 -104 -93t-32 -95q0 -70 49 -112.5t129 -42.5zM150 556q0 -74 72 -150q54 38 68 50q67 57 67 118q0 42 -25.5 67t-74.5 25q-48 0 -77.5 -29.5t-29.5 -80.5z" />
    <glyph glyph-name="quotesingle" unicode="'" horiz-adv-x="130" 
d="M50 690h30v-169h-30v169z" />
    <glyph glyph-name="parenleft" unicode="(" horiz-adv-x="286" 
d="M256 -92l-19 -24q-95 73 -127 132q-30 58 -30 146v372q0 88 30 146q32 59 127 132l19 -24q-99 -78 -124 -138q-22 -51 -22 -135v-334q0 -84 22 -136q26 -59 124 -137z" />
    <glyph glyph-name="parenright" unicode=")" horiz-adv-x="286" 
d="M49 -116l-19 24q98 78 124 137q22 52 22 136v334q0 84 -22 135q-25 60 -124 138l19 24q96 -74 126 -132q31 -58 31 -146v-372q0 -88 -31 -146q-30 -58 -126 -132z" />
    <glyph glyph-name="asterisk" unicode="*" horiz-adv-x="429" 
d="M191 680h30l-4 -145l124 76l15 -26l-127 -70l127 -69l-15 -26l-124 76l4 -145h-30l3 144l-123 -75l-15 26l127 69l-127 70l15 26l123 -76z" />
    <glyph glyph-name="plus" unicode="+" horiz-adv-x="480" 
d="M225 339h-169v30h169v170h30v-170h170v-30h-170v-169h-30v169z" />
    <glyph glyph-name="comma" unicode="," horiz-adv-x="180" 
d="M70 40h40v-110l-40 -35v145z" />
    <glyph glyph-name="hyphen" unicode="-" horiz-adv-x="299" 
d="M269 274h-239v30h239v-30z" />
    <glyph glyph-name="period" unicode="." horiz-adv-x="186" 
d="M70 46h46v-46h-46v46z" />
    <glyph glyph-name="slash" unicode="/" horiz-adv-x="443" 
d="M413 812l-336 -928h-32l336 928h32z" />
    <glyph glyph-name="zero" unicode="0" horiz-adv-x="480" 
d="M428 497v-304q0 -92 -54 -146q-53 -53 -134 -53q-80 0 -135 53q-53 55 -53 147v302q0 93 53 146q54 54 135 54q82 0 134 -54q54 -52 54 -145zM82 497v-304q0 -77 43.5 -123t114.5 -46t114.5 46t43.5 123v304q0 77 -43.5 123t-114.5 46t-114.5 -46t-43.5 -123z" />
    <glyph glyph-name="one" unicode="1" horiz-adv-x="480" 
d="M234 690h30v-690h-30v649l-99 -71v36z" />
    <glyph glyph-name="two" unicode="2" horiz-adv-x="480" 
d="M92 30h341v-30h-385v24l253 299q59 70 81 109q23 41 23 79q0 73 -47 114t-111 41q-68 0 -112 -41t-46 -114h-30q0 83 54 134t134 51q81 0 134 -52q54 -51 54 -137q0 -27 -10 -51q-14 -33 -24 -49q-20 -31 -35 -49q-14 -16 -18 -24l-22 -25l-20 -24z" />
    <glyph glyph-name="three" unicode="3" horiz-adv-x="480" 
d="M229 341h-33v30h33q176 0 176 146q0 64 -44 106q-43 43 -114 43q-68 0 -111.5 -41t-45.5 -105h-30q0 79 55 127q55 49 132 49q83 0 135 -51q53 -51 53 -128q0 -128 -119 -161q58 -16 93.5 -62.5t35.5 -109.5q0 -82 -53 -137q-53 -53 -138 -53q-91 0 -144.5 49t-58.5 132
h30q16 -151 173 -151q69 0 115 43t46 115q0 75 -48 117t-138 42z" />
    <glyph glyph-name="four" unicode="4" horiz-adv-x="480" 
d="M35 160l250 530h33l-247 -524h282v227h30v-227h76v-30h-76v-136h-30v136h-318v24z" />
    <glyph glyph-name="five" unicode="5" horiz-adv-x="480" 
d="M243 438q-90 0 -141 -107h-26v359h330v-30h-300v-267q50 75 139 75q190 0 190 -252q0 -105 -50 -163.5t-142 -58.5q-75 0 -127 49q-52 50 -56 121h30q6 -60 50 -101q44 -39 103 -39q162 0 162 192q0 222 -162 222z" />
    <glyph glyph-name="six" unicode="6" horiz-adv-x="480" 
d="M245 402q83 0 135 -57q52 -55 52 -145q0 -91 -53 -149q-53 -57 -136 -57t-136 57q-53 58 -53 147q3 46 15 84l9 23l12 27l10 24l143 334h34l-142 -322q46 34 110 34zM84 200q0 -80 43.5 -128t115.5 -48t115.5 48t43.5 128q0 78 -44 125t-115 47q-72 0 -115.5 -47
t-43.5 -125z" />
    <glyph glyph-name="seven" unicode="7" horiz-adv-x="480" 
d="M84 660v-139h-30v169h368v-30l-236 -660h-33l237 660h-306z" />
    <glyph glyph-name="eight" unicode="8" horiz-adv-x="480" 
d="M127 294q-46 -46 -46 -112t46 -112t112 -46t112 46q47 47 47 112t-47 112t-112 47t-112 -47zM239 371q62 0 105 43t43 104t-44 105q-43 43 -104 43t-104 -43t-43 -105t43 -105q43 -42 104 -42zM51 182q0 58 31.5 105.5t83.5 68.5q-47 21 -75.5 65t-28.5 97q0 74 52 126
t125 52t125 -52q53 -53 53 -126q0 -53 -29 -97t-77 -65q52 -21 84.5 -69t32.5 -105q0 -77 -56 -133q-55 -55 -133 -55t-133 55t-55 133z" />
    <glyph glyph-name="nine" unicode="9" horiz-adv-x="480" 
d="M237 288q-84 0 -137 56q-52 56 -52 146q0 93 52 149q52 57 137 57q83 0 136 -57q53 -58 53 -146q-2 -45 -15 -84q-1 -8 -14 -38q-12 -19 -16 -37l-144 -334h-34l142 322q-46 -34 -108 -34zM396 490q0 80 -43.5 128t-115.5 48t-115.5 -48t-43.5 -128q0 -78 44 -125
t115 -47q72 0 115.5 47t43.5 125z" />
    <glyph glyph-name="colon" unicode=":" horiz-adv-x="180" 
d="M70 40h40v-40h-40v40zM70 500h40v-40h-40v40z" />
    <glyph glyph-name="semicolon" unicode=";" horiz-adv-x="180" 
d="M70 40h40v-110l-40 -35v145zM70 500h40v-40h-40v40z" />
    <glyph glyph-name="less" unicode="&#x3c;" horiz-adv-x="385" 
d="M345 550v-35l-269 -162l269 -161v-35l-305 183v27z" />
    <glyph glyph-name="equal" unicode="=" horiz-adv-x="529" 
d="M459 420h-389v31h389v-31zM459 256h-389v31h389v-31z" />
    <glyph glyph-name="greater" unicode="&#x3e;" horiz-adv-x="385" 
d="M40 192l269 161l-269 162v35l305 -183v-27l-305 -183v35z" />
    <glyph glyph-name="question" unicode="?" horiz-adv-x="487" 
d="M258 218v-59h-30v59q0 57 34 88l47 43q54 50 75 84t21 78q0 73 -47 114t-111 41q-68 0 -112 -41t-46 -114h-30q0 83 54 134t134 51q81 0 134 -52q54 -51 54 -137q0 -38 -20 -76q-21 -40 -38 -57q-21 -22 -48 -47l-42 -38q-17 -15 -23 -29.5t-6 -41.5zM263 0h-40v40h40
v-40z" />
    <glyph glyph-name="at" unicode="@" horiz-adv-x="898" 
d="M580 484h30v-259q0 -75 22.5 -106t64.5 -31q57 0 89 51.5t32 136.5q0 96 -32 172t-88 120q-106 87 -249 87q-113 0 -198 -54q-85 -53 -128 -137.5t-43 -187.5q0 -89 31.5 -162.5t86.5 -120.5q112 -95 262 -95q145 0 231 59l14 -26q-36 -26 -101.5 -44.5t-143.5 -18.5
q-163 0 -283 104q-59 51 -93 130.5t-34 173.5q0 124 57 219q56 93 145.5 141.5t196.5 48.5q108 0 197 -47q90 -46 146 -142q56 -95 56 -220q0 -99 -39 -158.5t-112 -59.5q-87 0 -109 79q-15 -41 -50 -60t-99 -19q-158 0 -158 184v64q0 183 158 183q107 0 141 -66v61z
M580 227v87q-1 75 -33 110t-101 35q-71 0 -103 -36t-32 -117v-64q0 -79 32 -116.5t103 -37.5q70 0 101 33t33 106z" />
    <glyph glyph-name="A" unicode="A" horiz-adv-x="522" 
d="M107 178l-60 -178h-32l232 690h28l232 -690h-32l-60 178h-308zM405 208l-144 427l-144 -427h288z" />
    <glyph glyph-name="B" unicode="B" horiz-adv-x="596" 
d="M95 0v690h198q231 0 231 -173q0 -58 -35 -101t-89 -56q69 -16 107.5 -60.5t38.5 -112.5q0 -76 -56 -132q-55 -55 -172 -55h-223zM297 344h-172v-314h193q94 0 146 43t52 114q0 157 -219 157zM293 660h-168v-286h188q87 0 134 40t47 103q0 143 -201 143z" />
    <glyph glyph-name="C" unicode="C" horiz-adv-x="583" 
d="M538 489h-30q-32 177 -208 177q-105 0 -157.5 -65.5t-52.5 -209.5v-92q0 -144 52.5 -209.5t157.5 -65.5q84 0 138 47t70 134h29q-15 -108 -82 -160q-66 -51 -155 -51q-240 0 -240 305v92q0 305 240 305q91 0 157 -51q66 -49 81 -156z" />
    <glyph glyph-name="D" unicode="D" horiz-adv-x="605" 
d="M295 0h-200v690h200q124 0 187 -71.5t63 -227.5v-92q0 -156 -63 -227.5t-187 -71.5zM125 30h170q106 0 163 59q57 60 57 210v92q0 143 -54.5 206t-165.5 63h-170v-630z" />
    <glyph glyph-name="E" unicode="E" horiz-adv-x="546" 
d="M95 0v690h396v-30h-366v-288h336v-30h-336v-312h366v-30h-396z" />
    <glyph glyph-name="F" unicode="F" horiz-adv-x="541" 
d="M95 0v690h396v-30h-366v-304h336v-30h-336v-326h-30z" />
    <glyph glyph-name="G" unicode="G" horiz-adv-x="604" 
d="M303 295v30h241v-16q0 -315 -244 -315q-240 0 -240 305v92q0 305 240 305q91 0 157 -51q66 -49 81 -156h-30q-32 177 -208 177q-105 0 -157.5 -65.5t-52.5 -209.5v-92q0 -144 52.5 -209.5t157.5 -65.5q208 0 214 271h-211z" />
    <glyph glyph-name="H" unicode="H" horiz-adv-x="638" 
d="M95 690h30v-316h388v316h30v-690h-30v344h-388v-344h-30v690z" />
    <glyph glyph-name="I" unicode="I" horiz-adv-x="240" 
d="M105 690h30v-690h-30v690z" />
    <glyph glyph-name="J" unicode="J" horiz-adv-x="505" 
d="M15 80l27 14q52 -70 146 -70q100 0 146 64.5t46 198.5v403h30v-404q0 -292 -222 -292q-119 0 -173 86z" />
    <glyph glyph-name="K" unicode="K" horiz-adv-x="601" 
d="M299 415l292 -415h-37l-275 392l-154 -176v-216h-30v690h30v-428l374 428h41z" />
    <glyph glyph-name="L" unicode="L" horiz-adv-x="501" 
d="M95 690h30v-660h366v-30h-396v690z" />
    <glyph glyph-name="M" unicode="M" horiz-adv-x="752" 
d="M95 690h28l253 -488l253 488h28v-690h-30v621l-237 -457h-28l-237 457v-621h-30v690z" />
    <glyph glyph-name="N" unicode="N" horiz-adv-x="638" 
d="M513 59v631h30v-690h-28l-390 626v-626h-30v690h28z" />
    <glyph glyph-name="O" unicode="O" horiz-adv-x="600" 
d="M540 391v-92q0 -151 -63 -228t-177 -77t-177 77t-63 228v92q0 151 63 228t177 77t177 -77t63 -228zM90 391v-92q0 -140 55 -207.5t155 -67.5t155 67.5t55 207.5v92q0 140 -55 207.5t-155 67.5t-155 -67.5t-55 -207.5z" />
    <glyph glyph-name="P" unicode="P" horiz-adv-x="586" 
d="M295 283h-170v-283h-30v690h200q119 0 185 -54t66 -150t-66 -149.5t-185 -53.5zM125 660v-347h170q109 0 165 44.5t56 128.5q0 85 -56 129.5t-165 44.5h-170z" />
    <glyph glyph-name="Q" unicode="Q" horiz-adv-x="600" 
d="M540 391v-92q0 -126 -46 -203l92 -86l-19 -20l-89 83q-61 -79 -178 -79q-114 0 -177 77t-63 228v92q0 151 63 228t177 77t177 -77t63 -228zM90 391v-92q0 -140 55 -207.5t155 -67.5q102 0 156 69l-133 125l21 22l128 -122q38 68 38 181v92q0 140 -55 207.5t-155 67.5
t-155 -67.5t-55 -207.5z" />
    <glyph glyph-name="R" unicode="R" horiz-adv-x="604" 
d="M398 305l166 -305h-34l-163 299q-23 -4 -62 -4h-180v-295h-30v690h210q115 0 178 -51t63 -147q0 -150 -148 -187zM125 660v-335h180q211 0 211 167q0 168 -211 168h-180z" />
    <glyph glyph-name="S" unicode="S" horiz-adv-x="568" 
d="M501 583l-25 -17q-60 100 -194 100q-86 0 -134 -35.5t-48 -104.5q3 -41 13 -65t34 -41l29 -20q8 -5 39 -16l38 -12q6 -1 43 -11q82 -21 130 -46q44 -23 64 -58t23 -95q0 -70 -56 -120q-55 -48 -166 -48q-161 0 -236 113l24 17q38 -50 86.5 -75t125.5 -25q92 0 142 38
t50 100q0 73 -45 109q-44 36 -147 60q-108 25 -166 67q-55 40 -55 128q0 78 54 124t159 46q147 0 218 -113z" />
    <glyph glyph-name="T" unicode="T" horiz-adv-x="516" 
d="M15 660v30h486v-30h-228v-660h-30v660h-228z" />
    <glyph glyph-name="U" unicode="U" horiz-adv-x="670" 
d="M95 282v408h30v-408q0 -126 54 -192t156 -66t156 66t54 192v408h30v-408q0 -145 -61.5 -216.5t-178.5 -71.5t-178.5 71.5t-61.5 216.5z" />
    <glyph glyph-name="V" unicode="V" horiz-adv-x="548" 
d="M260 0l-250 690h32l232 -641l232 641h32l-250 -690h-28z" />
    <glyph glyph-name="W" unicode="W" horiz-adv-x="797" 
d="M180 0l-170 690h31l158 -643l183 643h32l184 -643l158 643h31l-170 -690h-37l-182 636l-181 -636h-37z" />
    <glyph glyph-name="X" unicode="X" horiz-adv-x="552" 
d="M276 331l-206 -331h-36l224 359l-207 331h36l189 -304l189 304h36l-207 -331l224 -359h-36z" />
    <glyph glyph-name="Y" unicode="Y" horiz-adv-x="516" 
d="M243 309l-233 381h35l213 -348l213 348h35l-233 -381v-309h-30v309z" />
    <glyph glyph-name="Z" unicode="Z" horiz-adv-x="509" 
d="M35 660v30h429v-28l-394 -632h404v-30h-439v28l393 632h-393z" />
    <glyph glyph-name="bracketleft" unicode="[" horiz-adv-x="275" 
d="M230 -60h-145v810h145v-30h-115v-750h115v-30z" />
    <glyph glyph-name="backslash" unicode="\" horiz-adv-x="444" 
d="M366 -116l-336 928h33l336 -928h-33z" />
    <glyph glyph-name="bracketright" unicode="]" horiz-adv-x="275" 
d="M160 720h-115v30h145v-810h-145v30h115v750z" />
    <glyph glyph-name="asciicircum" unicode="^" horiz-adv-x="454" 
d="M17 437l174 253h38l174 -253h-38l-155 228l-155 -228h-38z" />
    <glyph glyph-name="underscore" unicode="_" horiz-adv-x="526" 
d="M0 -123v30h526v-30h-526z" />
    <glyph glyph-name="grave" unicode="`" horiz-adv-x="279" 
d="M82 725h35l80 -158h-30z" />
    <glyph glyph-name="a" unicode="a" 
d="M50 141q0 63 41 100.5t112 37.5h173v68q0 74 -31 101q-29 28 -109 28q-38 0 -57 -3q-53 -6 -85 -60l-24 17q24 42 62.5 59t103.5 17q92 0 131 -35t39 -124v-347h-30v74q-38 -80 -157 -80q-81 0 -125 38t-44 109zM376 179v70h-173q-63 0 -93 -29t-30 -79q0 -117 139 -117
q74 0 115.5 38.5t41.5 116.5z" />
    <glyph glyph-name="b" unicode="b" horiz-adv-x="511" 
d="M75 690h30v-265q41 81 166 81q190 0 190 -214v-82q0 -216 -190 -216q-125 0 -166 81v-75h-30v690zM271 24q160 0 160 186v82q0 184 -160 184q-89 0 -127 -43.5t-39 -133.5v-90q0 -94 37.5 -139.5t128.5 -45.5z" />
    <glyph glyph-name="c" unicode="c" horiz-adv-x="443" 
d="M398 90l25 -17q-55 -79 -167 -79q-99 0 -152.5 55.5t-53.5 160.5v82q0 104 53.5 159t152.5 55q110 0 165 -75l-25 -17q-47 62 -140 62q-85 0 -130.5 -47t-45.5 -137v-82q0 -89 44 -137.5t132 -48.5q94 0 142 66z" />
    <glyph glyph-name="d" unicode="d" horiz-adv-x="511" 
d="M406 425v265h30v-690h-30v75q-40 -81 -166 -81q-190 0 -190 216v82q0 214 190 214q126 0 166 -81zM240 24q91 0 128.5 45.5t37.5 139.5v90q-2 90 -40 133.5t-126 43.5q-160 0 -160 -184v-82q0 -186 160 -186z" />
    <glyph glyph-name="e" unicode="e" 
d="M426 292v-50h-346v-32q0 -89 44 -137.5t132 -48.5q94 0 142 66l25 -17q-55 -79 -167 -79q-98 0 -152 56.5t-54 159.5v82q0 104 48.5 159t139.5 55t139.5 -55t48.5 -159zM80 292v-20h316v20q0 184 -158 184q-76 0 -117 -47t-41 -137z" />
    <glyph glyph-name="f" unicode="f" horiz-adv-x="285" 
d="M31 470v30h64v36q0 83 29.5 118.5t102.5 35.5h23v-30h-23q-65 0 -84 -30q-18 -28 -18 -101v-29h125v-30h-125v-470h-30v470h-64z" />
    <glyph glyph-name="g" unicode="g" horiz-adv-x="511" 
d="M50 210v82q0 214 190 214q126 0 166 -81v75h30v-470q0 -106 -51 -166t-143 -60q-105 0 -157 79l25 17q45 -66 132 -66q80 0 122 53t42 143v45q-40 -81 -166 -81q-190 0 -190 216zM240 24q88 0 126 43.5t40 133.5v98q-2 90 -40 133.5t-126 43.5q-160 0 -160 -184v-82
q0 -186 160 -186z" />
    <glyph glyph-name="h" unicode="h" horiz-adv-x="526" 
d="M105 0h-30v690h30v-274q45 90 161 90q87 0 136 -58.5t49 -165.5v-282h-30v282q0 93 -41 143.5t-114 50.5q-158 0 -161 -185v-291z" />
    <glyph glyph-name="i" unicode="i" horiz-adv-x="210" 
d="M120 0h-30v500h30v-500zM127 646h-44v44h44v-44z" />
    <glyph glyph-name="j" unicode="j" horiz-adv-x="215" 
d="M105 500h30v-536q0 -82 -30 -118t-105 -36v30q66 0 85 31q20 32 20 109v520zM142 646h-44v44h44v-44z" />
    <glyph glyph-name="k" unicode="k" horiz-adv-x="492" 
d="M105 201l291 299h40l-213 -219l249 -281h-40l-230 259l-97 -100v-159h-30v690h30v-489z" />
    <glyph glyph-name="l" unicode="l" horiz-adv-x="256" 
d="M75 151v539h30v-531q0 -71 20 -102q19 -30 85 -30v-30q-75 0 -105 36t-30 118z" />
    <glyph glyph-name="m" unicode="m" horiz-adv-x="792" 
d="M105 0h-30v500h30v-84q16 43 53 66.5t88 23.5q110 0 150 -117q36 117 156 117q78 0 121.5 -58.5t43.5 -165.5v-282h-30v282q0 93 -35.5 143.5t-99.5 50.5q-135 0 -141 -177v-299h-30v282q0 93 -35.5 143.5t-99.5 50.5q-138 0 -141 -185v-291z" />
    <glyph glyph-name="n" unicode="n" horiz-adv-x="526" 
d="M105 0h-30v500h30v-84q44 90 161 90q87 0 136 -58.5t49 -165.5v-282h-30v282q0 93 -41 143.5t-114 50.5q-158 0 -161 -185v-291z" />
    <glyph glyph-name="o" unicode="o" horiz-adv-x="496" 
d="M446 292v-84q0 -104 -51 -159t-147 -55t-147 55t-51 159v84q0 104 51 159t147 55t147 -55t51 -159zM416 208v84q0 184 -168 184t-168 -184v-84q0 -184 168 -184t168 184z" />
    <glyph glyph-name="p" unicode="p" horiz-adv-x="511" 
d="M461 292v-82q0 -216 -190 -216q-125 0 -166 81v-265h-30v690h30v-75q41 81 166 81q190 0 190 -214zM271 24q160 0 160 186v82q0 184 -160 184q-89 0 -127 -43.5t-39 -133.5v-90q0 -94 37.5 -139.5t128.5 -45.5z" />
    <glyph glyph-name="q" unicode="q" horiz-adv-x="511" 
d="M50 210v82q0 214 190 214q126 0 166 -81v75h30v-690h-30v265q-40 -81 -166 -81q-190 0 -190 216zM240 24q91 0 128.5 45.5t37.5 139.5v90q-2 90 -40 133.5t-126 43.5q-160 0 -160 -184v-82q0 -186 160 -186z" />
    <glyph glyph-name="r" unicode="r" horiz-adv-x="381" 
d="M240 476q-67 0 -101 -49.5t-34 -135.5v-291h-30v500h30v-84q17 42 53 66t84 24q82 0 139 -70l-24 -19q-48 59 -117 59z" />
    <glyph glyph-name="s" unicode="s" horiz-adv-x="456" 
d="M391 423l-25 -17q-26 39 -58 54.5t-89 15.5q-65 0 -102 -24.5t-37 -73.5q0 -40 30 -70q12 -10 35 -18q31 -11 84 -20q91 -17 134 -49t43 -96q0 -61 -43.5 -96t-134.5 -35q-126 0 -183 83l26 18q27 -38 63 -54.5t95 -16.5q147 0 147 101q0 49 -40 75t-129 43
q-82 15 -119.5 44.5t-37.5 90.5q0 60 44.5 94t124.5 34q122 0 172 -83z" />
    <glyph glyph-name="t" unicode="t" horiz-adv-x="302" 
d="M95 470h-64v30h64v110h30v-110h132v-30h-132v-306q0 -76 19 -105q20 -29 86 -29h27v-30h-28q-74 0 -104 36t-30 118v316z" />
    <glyph glyph-name="u" unicode="u" horiz-adv-x="526" 
d="M421 500h30v-500h-30v84q-43 -90 -161 -90q-87 0 -136 58.5t-49 165.5v282h30v-282q0 -93 41 -143.5t114 -50.5q161 0 161 187v289z" />
    <glyph glyph-name="v" unicode="v" horiz-adv-x="457" 
d="M229 45l186 455h32l-204 -500h-28l-205 500h32z" />
    <glyph glyph-name="w" unicode="w" horiz-adv-x="686" 
d="M531 0h-28l-160 451l-160 -451h-28l-145 500h31l129 -446l159 446h28l159 -446l129 446h31z" />
    <glyph glyph-name="x" unicode="x" horiz-adv-x="426" 
d="M230 257l176 -257h-37l-156 231l-156 -231h-37l176 257l-166 243h37l146 -217l146 217h37z" />
    <glyph glyph-name="y" unicode="y" horiz-adv-x="452" 
d="M74 -190v30q67 0 93 35q26 31 54 109l2 7l-213 509h33l150 -360l46 -105l167 465h31l-187 -523q-32 -94 -68 -130q-37 -37 -108 -37z" />
    <glyph glyph-name="z" unicode="z" horiz-adv-x="449" 
d="M50 0v24l309 446h-309v30h349v-24l-309 -446h309v-30h-349z" />
    <glyph glyph-name="braceleft" unicode="{" horiz-adv-x="316" 
d="M139 632v-216q0 -55 -35 -70q35 -15 35 -70v-216q0 -71 30 -98t98 -27h9v-30h-3q-83 0 -124 32q-40 31 -40 123v219q0 28 -11.5 40t-38.5 12h-19v30h19q27 0 38.5 12t11.5 40v219q0 92 40 123q41 32 124 32h3v-30h-9q-68 0 -98 -27t-30 -98z" />
    <glyph glyph-name="bar" unicode="|" horiz-adv-x="200" 
d="M85 812h30v-928h-30v928z" />
    <glyph glyph-name="braceright" unicode="}" horiz-adv-x="316" 
d="M177 416v216q0 71 -30 98t-98 27h-9v30h3q83 0 124 -32q40 -31 40 -123v-188q0 -52 9 -67.5t41 -15.5h19v-30h-19q-27 0 -38.5 -12t-11.5 -40v-219q0 -89 -38.5 -122.5t-128.5 -32.5v30h9q68 0 98 27t30 98v216q0 55 35 70q-35 15 -35 70z" />
    <glyph glyph-name="asciitilde" unicode="~" horiz-adv-x="480" 
d="M326 295q-39 0 -90 25q-50 25 -82 25q-70 0 -114 -51l-23 20q57 61 137 61q37 0 88 -25t84 -25q70 0 114 51l23 -20q-57 -61 -137 -61z" />
    <glyph glyph-name="uni00A0" unicode="&#xa0;" horiz-adv-x="250" 
 />
    <glyph glyph-name="exclamdown" unicode="&#xa1;" horiz-adv-x="216" 
d="M65 341h30v-531h-30v531zM60 500h40v-40h-40v40z" />
    <glyph glyph-name="cent" unicode="&#xa2;" horiz-adv-x="480" 
d="M270 -6v-110h-30v111q-93 4 -141.5 58.5t-48.5 156.5v82q0 100 49 154t141 59v117h30v-116q97 -4 151 -75l-25 -17q-47 62 -140 62q-85 0 -130.5 -47t-45.5 -137v-82q0 -89 44 -137.5t132 -48.5q94 0 142 66l25 -17q-51 -73 -153 -79z" />
    <glyph glyph-name="sterling" unicode="&#xa3;" horiz-adv-x="480" 
d="M427 0h-371v30h71v336h-71v30h71v78q0 222 161 222q80 0 145 -66l-24 -20q-50 56 -121 56q-69 0 -100 -47.5t-31 -144.5v-78h156v-30h-156v-336h270v-30z" />
    <glyph glyph-name="currency" unicode="&#xa4;" horiz-adv-x="656" 
d="M140 532l-80 80l21 21l79 -80q70 64 167 64t168 -64l80 80l21 -21l-81 -81q63 -71 63 -165q0 -96 -63 -166l81 -80l-21 -21l-81 80q-70 -63 -167 -63q-95 0 -166 63l-80 -80l-21 21l80 80q-62 71 -62 166t62 166zM171 522q-63 -64 -63 -156t63 -156q64 -64 156 -64
t156 64q65 65 65 156t-65 156t-156 65t-156 -65z" />
    <glyph glyph-name="yen" unicode="&#xa5;" horiz-adv-x="480" 
d="M37 170v30h188v109h-188v30h170l-185 351h34l184 -350l184 350h34l-186 -351h171v-30h-188v-109h188v-30h-188v-170h-30v170h-188z" />
    <glyph glyph-name="brokenbar" unicode="&#xa6;" horiz-adv-x="278" 
d="M131 243h30v-243h-30v243zM131 690h30v-243h-30v243z" />
    <glyph glyph-name="section" unicode="&#xa7;" horiz-adv-x="504" 
d="M89 -57h30q5 -104 131 -104q63 0 97.5 27.5t34.5 78.5q0 50 -37 75q-38 26 -127 51q-83 23 -120.5 66t-37.5 113q0 72 41 116.5t113 52.5q-70 24 -101 55t-31 81q0 61 44 98.5t118 37.5q76 0 117.5 -36t43.5 -98h-30q-5 104 -131 104q-63 0 -97.5 -27.5t-34.5 -78.5
t37 -76q35 -24 127 -50q158 -44 158 -179q0 -72 -41 -116.5t-114 -52.5q70 -25 101.5 -56t31.5 -80q0 -61 -44 -98.5t-118 -37.5q-76 0 -117.5 36t-43.5 98zM404 250q0 67 -43 104t-114 37q-72 0 -114.5 -36.5t-42.5 -104.5q0 -67 42.5 -104t114.5 -37t114.5 36.5
t42.5 104.5z" />
    <glyph glyph-name="dieresis" unicode="&#xa8;" horiz-adv-x="373" 
d="M313 690v-44h-44v44h44zM103 690v-44h-44v44h44z" />
    <glyph glyph-name="copyright" unicode="&#xa9;" horiz-adv-x="1010" 
d="M193 -62q-128 128 -128 312t128 312q130 128 312 128q183 0 311 -128q129 -128 129 -312t-129 -312q-128 -128 -311 -128q-182 0 -312 128zM214 541q-119 -119 -119 -291t119 -291q121 -119 291 -119q171 0 290 119q120 119 120 291t-120 291q-119 119 -290 119
q-170 0 -291 -119zM655 90l25 -17q-55 -79 -167 -79q-99 0 -152.5 55.5t-53.5 160.5v82q0 104 53.5 159t152.5 55q109 0 165 -75l-25 -17q-47 62 -140 62q-85 0 -130.5 -47t-45.5 -137v-82q0 -89 44 -137.5t132 -48.5q94 0 142 66z" />
    <glyph glyph-name="ordfeminine" unicode="&#xaa;" horiz-adv-x="316" 
d="M35 466q0 92 108 92h89v28q0 42 -19 59t-65 17q-33 0 -51.5 -9t-29.5 -34l-25 18q31 55 107 55q58 0 85.5 -24t27.5 -77v-217h-30v45q-28 -49 -94 -49q-50 0 -76.5 25t-26.5 71zM232 495v33h-86q-44 0 -62.5 -15t-18.5 -49q0 -64 76 -64q36 0 63.5 27t27.5 68z" />
    <glyph glyph-name="guillemotleft" unicode="&#xab;" horiz-adv-x="519" 
d="M262 52l-232 231l232 231v-42l-190 -189l190 -189v-42zM464 52l-232 231l232 231v-42l-190 -189l190 -189v-42z" />
    <glyph glyph-name="logicalnot" unicode="&#xac;" horiz-adv-x="550" 
d="M482 368v-167h-30v137h-383v30h413z" />
    <glyph glyph-name="uni00AD" unicode="&#xad;" horiz-adv-x="299" 
d="M269 274h-239v30h239v-30z" />
    <glyph glyph-name="registered" unicode="&#xae;" horiz-adv-x="606" 
d="M124 322q-74 76 -74 179q0 104 74 178q75 75 179 75q105 0 178 -75q75 -73 75 -178q0 -104 -75 -179q-74 -74 -178 -74q-103 0 -179 74zM145 658q-65 -65 -65 -157q0 -91 65 -158q67 -65 158 -65q92 0 157 65q66 66 66 158q0 93 -66 157q-64 66 -157 66q-92 0 -158 -66z
M246 478v-104h-30v261h87q47 0 72 -22.5t25 -56.5q0 -57 -58 -73l71 -109h-37l-66 104h-64zM246 605v-97h57q67 0 67 48q0 49 -67 49h-57z" />
    <glyph glyph-name="overscore" unicode="&#xaf;" horiz-adv-x="373" 
d="M311 612h-249v30h249v-30z" />
    <glyph glyph-name="degree" unicode="&#xb0;" horiz-adv-x="308" 
d="M59 463q-39 39 -39 96t39 95q39 39 95 39t95 -39q39 -38 39 -95t-39 -96q-40 -38 -95 -38t-95 38zM80 633q-30 -30 -30 -74t30 -74t74 -30t74 30t30 74t-30 74t-74 30t-74 -30z" />
    <glyph glyph-name="plusminus" unicode="&#xb1;" horiz-adv-x="480" 
d="M225 379h-169v30h169v180h30v-180h170v-30h-170v-149h-30v149zM425 149h-369v30h369v-30z" />
    <glyph glyph-name="twosuperior" unicode="&#xb2;" horiz-adv-x="278" 
d="M87 404h151v-30h-190v30l93 99q58 61 58 98q0 28 -16.5 45t-41.5 17t-43 -19t-19 -48h-30q0 42 26.5 69.5t65.5 27.5t63.5 -25t24.5 -67q0 -28 -13.5 -51t-54.5 -66z" />
    <glyph glyph-name="threesuperior" unicode="&#xb3;" horiz-adv-x="301" 
d="M127 522h-14v30h14q72 0 72 57q0 26 -15.5 40t-40.5 14q-29 0 -46 -15t-17 -43h-30q0 38 26 63t67 25q39 0 62.5 -22.5t23.5 -61.5q0 -28 -15.5 -48.5t-41.5 -22.5q29 -3 46 -24.5t17 -52.5q0 -42 -25 -66t-67 -24t-68.5 25.5t-28.5 64.5h31q9 -60 66 -60q28 0 44.5 15.5
t16.5 44.5q0 61 -77 61z" />
    <glyph glyph-name="acute" unicode="&#xb4;" horiz-adv-x="334" 
d="M139 567h-30l80 158h35z" />
    <glyph glyph-name="mu" unicode="&#x3bc;" horiz-adv-x="526" 
d="M105 84v-221h-30v637h30v-273q0 -123 54 -167q44 -36 100 -36q162 0 162 185v291h30v-500h-30v84q-43 -90 -162 -90q-113 0 -154 90z" />
    <glyph glyph-name="mu" unicode="&#xb5;" horiz-adv-x="526" 
d="M105 84v-221h-30v637h30v-273q0 -123 54 -167q44 -36 100 -36q162 0 162 185v291h30v-500h-30v84q-43 -90 -162 -90q-113 0 -154 90z" />
    <glyph glyph-name="paragraph" unicode="&#xb6;" horiz-adv-x="534" 
d="M235 690h204v-880h-30v850h-144v-850h-30v500q-80 0 -135 55t-55 135q0 79 55 134q56 56 135 56z" />
    <glyph glyph-name="middot" unicode="&#xb7;" horiz-adv-x="180" 
d="M70 368h40v-40h-40v40z" />
    <glyph glyph-name="cedilla" unicode="&#xb8;" horiz-adv-x="339" 
d="M127 -41l14 60l30 -2l-11 -37q81 -15 81 -77q0 -39 -28.5 -60.5t-78.5 -21.5q-24 0 -37 3l6 29q24 -2 31 -2q77 0 77 52q0 51 -84 56z" />
    <glyph glyph-name="onesuperior" unicode="&#xb9;" horiz-adv-x="277" 
d="M137 690h30v-316h-30v278l-57 -41v36z" />
    <glyph glyph-name="ordmasculine" unicode="&#xba;" horiz-adv-x="356" 
d="M291 560v-55q0 -63 -32 -98.5t-91 -35.5q-57 0 -89.5 35.5t-32.5 98.5v55q0 63 32.5 98t89.5 35q58 0 90.5 -34t32.5 -99zM168 401q44 0 68.5 27t24.5 77v55q0 103 -93 103q-92 0 -92 -103v-55q0 -104 92 -104z" />
    <glyph glyph-name="guillemotright" unicode="&#xbb;" horiz-adv-x="519" 
d="M257 472v42l232 -231l-232 -231v42l190 189zM55 472v42l232 -231l-232 -231v42l190 189z" />
    <glyph glyph-name="onequarter" unicode="&#xbc;" horiz-adv-x="603" 
d="M21 0l475 690h36l-474 -690h-37zM114 690h30v-316h-30v278l-57 -41v36zM310 104l131 212h33l-129 -215h126v66h30v-66h39v-30h-39v-71h-30v71h-161v33z" />
    <glyph glyph-name="onehalf" unicode="&#xbd;" horiz-adv-x="603" 
d="M21 0l475 690h36l-474 -690h-37zM114 690h30v-316h-30v278l-57 -41v36zM398 30h151v-30h-190v30l93 99q58 61 58 98q0 28 -16.5 45t-41.5 17t-43 -19t-19 -48h-30q0 42 26.5 69.5t65.5 27.5t63.5 -25t24.5 -67q0 -28 -13.5 -51t-54.5 -66z" />
    <glyph glyph-name="threequarters" unicode="&#xbe;" horiz-adv-x="577" 
d="M21 0l475 690h36l-474 -690h-37zM310 104l131 212h33l-129 -215h126v66h30v-66h39v-30h-39v-71h-30v71h-161v33zM100 522h-14v30h14q72 0 72 57q0 26 -15.5 40t-40.5 14q-29 0 -46 -15t-17 -43h-30q0 38 26 63t67 25q39 0 62.5 -22.5t23.5 -61.5q0 -28 -15.5 -48.5
t-41.5 -22.5q29 -3 46 -24.5t17 -52.5q0 -42 -25 -66t-67 -24q-41 0 -68 25.5t-29 64.5h31q9 -60 66 -60q28 0 44.5 15.5t16.5 44.5q0 61 -77 61z" />
    <glyph glyph-name="questiondown" unicode="&#xbf;" horiz-adv-x="487" 
d="M236 282v59h30v-59q0 -57 -34 -88l-47 -43q-54 -50 -75 -84t-21 -78q0 -74 46 -114q47 -41 112 -41q68 0 112 41t46 114h30q0 -83 -54 -134t-134 -51q-81 0 -134 52q-54 51 -54 137q0 38 19 75q20 39 38 58q29 29 49 47l42 38q17 15 23 29.5t6 41.5zM271 460h-40v40h40
v-40z" />
    <glyph glyph-name="Agrave" unicode="&#xc0;" horiz-adv-x="522" 
d="M107 178l-60 -178h-32l232 690h28l232 -690h-32l-60 178h-308zM405 208l-144 427l-144 -427h288zM244 767l-76 129h35l65 -129h-24z" />
    <glyph glyph-name="Aacute" unicode="&#xc1;" horiz-adv-x="522" 
d="M107 178l-60 -178h-32l232 690h28l232 -690h-32l-60 178h-308zM405 208l-144 427l-144 -427h288zM283 767h-30l65 129h35z" />
    <glyph glyph-name="Acircumflex" unicode="&#xc2;" horiz-adv-x="522" 
d="M107 178l-60 -178h-32l232 690h28l232 -690h-32l-60 178h-308zM405 208l-144 427l-144 -427h288zM96 757l149 142h32l149 -142h-44l-121 116l-121 -116h-44z" />
    <glyph glyph-name="Atilde" unicode="&#xc3;" horiz-adv-x="522" 
d="M107 178l-60 -178h-32l232 690h28l232 -690h-32l-60 178h-308zM405 208l-144 427l-144 -427h288zM320 807q-26 0 -61 16q-36 17 -55 17q-38 0 -71 -33l-23 19q42 44 94 44q22 0 58 -17q35 -16 57 -16q41 0 70 33l23 -19q-38 -44 -92 -44z" />
    <glyph glyph-name="Adieresis" unicode="&#xc4;" horiz-adv-x="522" 
d="M107 178l-60 -178h-32l232 690h28l232 -690h-32l-60 178h-308zM405 208l-144 427l-144 -427h288zM388 869v-44h-44v44h44zM178 869v-44h-44v44h44z" />
    <glyph glyph-name="Aring" unicode="&#xc5;" horiz-adv-x="580" 
d="M112 178l-60 -178h-32l222 662q-37 6 -61 32t-24 64q0 44 31 71.5t78 27.5q48 0 79 -27.5t31 -71.5q0 -38 -24 -64t-63 -32l223 -662h-32l-60 178h-308zM410 208l-144 427l-144 -427h288zM187 758q0 -32 22 -50t57 -18q36 0 58 18t22 50q0 33 -21.5 51t-58.5 18
q-35 0 -57 -18t-22 -51z" />
    <glyph glyph-name="AE" unicode="&#xc6;" horiz-adv-x="852" 
d="M153 182l-108 -182h-35l411 690h376v-30h-346v-288h316v-30h-316v-312h346v-30h-376v182h-268zM421 633l-250 -421h250v421z" />
    <glyph glyph-name="Ccedilla" unicode="&#xc7;" horiz-adv-x="583" 
d="M267 -42l9 37q-216 13 -216 304v92q0 305 240 305q91 0 157 -51q66 -49 81 -156h-30q-32 177 -208 177q-105 0 -157.5 -65.5t-52.5 -209.5v-92q0 -144 52.5 -209.5t157.5 -65.5q84 0 138 47t70 134h29q-15 -107 -80 -158q-65 -52 -153 -53l-4 -15q81 -15 81 -77
q0 -39 -28.5 -60.5t-78.5 -21.5q-24 0 -37 3l6 29q24 -2 31 -2q77 0 77 52t-84 56z" />
    <glyph glyph-name="Egrave" unicode="&#xc8;" horiz-adv-x="546" 
d="M95 0v690h396v-30h-366v-288h336v-30h-336v-312h366v-30h-396zM313 767l-76 129h35l65 -129h-24z" />
    <glyph glyph-name="Eacute" unicode="&#xc9;" horiz-adv-x="546" 
d="M95 0v690h396v-30h-366v-288h336v-30h-336v-312h366v-30h-396zM295 767h-30l65 129h35z" />
    <glyph glyph-name="Ecircumflex" unicode="&#xca;" horiz-adv-x="546" 
d="M95 0v690h396v-30h-366v-288h336v-30h-336v-312h366v-30h-396zM128 757l149 142h32l149 -142h-44l-121 116l-121 -116h-44z" />
    <glyph glyph-name="Edieresis" unicode="&#xcb;" horiz-adv-x="546" 
d="M95 0v690h396v-30h-366v-288h336v-30h-336v-312h366v-30h-396zM420 869v-44h-44v44h44zM210 869v-44h-44v44h44z" />
    <glyph glyph-name="Igrave" unicode="&#xcc;" horiz-adv-x="240" 
d="M105 690h30v-690h-30v690zM111 767l-76 129h35l65 -129h-24z" />
    <glyph glyph-name="Iacute" unicode="&#xcd;" horiz-adv-x="240" 
d="M105 690h30v-690h-30v690zM135 767h-30l65 129h35z" />
    <glyph glyph-name="Icircumflex" unicode="&#xce;" horiz-adv-x="240" 
d="M105 690h30v-690h-30v690zM-45 757l149 142h32l149 -142h-44l-121 116l-121 -116h-44z" />
    <glyph glyph-name="Idieresis" unicode="&#xcf;" horiz-adv-x="276" 
d="M125 690v-690h-30v690h30zM205 869v-40h-40v40h40zM55 869v-40h-40v40h40z" />
    <glyph glyph-name="Eth" unicode="&#xd0;" horiz-adv-x="593" 
d="M283 0h-200v342h-103v30h103v318h200q124 0 187 -71.5t63 -227.5v-92q0 -156 -63 -227.5t-187 -71.5zM113 30h170q106 0 163 59q57 60 57 210v92q0 143 -54.5 206t-165.5 63h-170v-288h216v-30h-216v-312z" />
    <glyph glyph-name="Ntilde" unicode="&#xd1;" horiz-adv-x="638" 
d="M513 59v631h30v-690h-28l-390 626v-626h-30v690h28zM378 807q-26 0 -61 16q-36 17 -55 17q-38 0 -71 -33l-23 19q42 44 94 44q22 0 58 -17q35 -16 57 -16q41 0 70 33l23 -19q-38 -44 -92 -44z" />
    <glyph glyph-name="Ograve" unicode="&#xd2;" horiz-adv-x="600" 
d="M540 391v-92q0 -151 -63 -228t-177 -77t-177 77t-63 228v92q0 151 63 228t177 77t177 -77t63 -228zM90 391v-92q0 -140 55 -207.5t155 -67.5t155 67.5t55 207.5v92q0 140 -55 207.5t-155 67.5t-155 -67.5t-55 -207.5zM289 767l-76 129h35l65 -129h-24z" />
    <glyph glyph-name="Oacute" unicode="&#xd3;" horiz-adv-x="600" 
d="M540 391v-92q0 -151 -63 -228t-177 -77t-177 77t-63 228v92q0 151 63 228t177 77t177 -77t63 -228zM90 391v-92q0 -140 55 -207.5t155 -67.5t155 67.5t55 207.5v92q0 140 -55 207.5t-155 67.5t-155 -67.5t-55 -207.5zM307 767h-30l65 129h35z" />
    <glyph glyph-name="Ocircumflex" unicode="&#xd4;" horiz-adv-x="600" 
d="M540 391v-92q0 -151 -63 -228t-177 -77t-177 77t-63 228v92q0 151 63 228t177 77t177 -77t63 -228zM90 391v-92q0 -140 55 -207.5t155 -67.5t155 67.5t55 207.5v92q0 140 -55 207.5t-155 67.5t-155 -67.5t-55 -207.5zM135 757l149 142h32l149 -142h-44l-121 116
l-121 -116h-44z" />
    <glyph glyph-name="Otilde" unicode="&#xd5;" horiz-adv-x="600" 
d="M540 391v-92q0 -151 -63 -228t-177 -77t-177 77t-63 228v92q0 151 63 228t177 77t177 -77t63 -228zM90 391v-92q0 -140 55 -207.5t155 -67.5t155 67.5t55 207.5v92q0 140 -55 207.5t-155 67.5t-155 -67.5t-55 -207.5zM359 807q-26 0 -61 16q-36 17 -55 17q-38 0 -71 -33
l-23 19q42 44 94 44q22 0 58 -17q35 -16 57 -16q42 0 70 33l23 -19q-38 -44 -92 -44z" />
    <glyph glyph-name="Odieresis" unicode="&#xd6;" horiz-adv-x="600" 
d="M540 391v-92q0 -151 -63 -228t-177 -77t-177 77t-63 228v92q0 151 63 228t177 77t177 -77t63 -228zM90 391v-92q0 -140 55 -207.5t155 -67.5t155 67.5t55 207.5v92q0 140 -55 207.5t-155 67.5t-155 -67.5t-55 -207.5zM427 869v-44h-44v44h44zM217 869v-44h-44v44h44z" />
    <glyph glyph-name="multiply" unicode="&#xd7;" horiz-adv-x="480" 
d="M239 332l-119 -119l-21 21l119 119l-120 121l21 21l120 -121l121 121l21 -21l-121 -121l120 -119l-21 -21z" />
    <glyph glyph-name="Oslash" unicode="&#xd8;" horiz-adv-x="600" 
d="M199 12l-46 -128h-32l51 142q-112 70 -112 273v92q0 151 63 228t177 77q62 0 107 -22l50 138h32l-56 -153q107 -72 107 -268v-92q0 -151 -63 -228t-177 -77q-56 0 -101 18zM90 391v-92q0 -181 93 -243l214 590q-42 20 -97 20q-100 0 -155 -67.5t-55 -207.5zM510 299v92
q0 172 -87 238l-213 -588q39 -17 90 -17q100 0 155 67.5t55 207.5z" />
    <glyph glyph-name="Ugrave" unicode="&#xd9;" horiz-adv-x="670" 
d="M95 282v408h30v-408q0 -126 54 -192t156 -66t156 66t54 192v408h30v-408q0 -145 -61.5 -216.5t-178.5 -71.5t-178.5 71.5t-61.5 216.5zM343 767l-76 129h35l65 -129h-24z" />
    <glyph glyph-name="Uacute" unicode="&#xda;" horiz-adv-x="670" 
d="M95 282v408h30v-408q0 -126 54 -192t156 -66t156 66t54 192v408h30v-408q0 -145 -61.5 -216.5t-178.5 -71.5t-178.5 71.5t-61.5 216.5zM331 767h-30l65 129h35z" />
    <glyph glyph-name="Ucircumflex" unicode="&#xdb;" horiz-adv-x="670" 
d="M95 282v408h30v-408q0 -126 54 -192t156 -66t156 66t54 192v408h30v-408q0 -145 -61.5 -216.5t-178.5 -71.5t-178.5 71.5t-61.5 216.5zM170 757l149 142h32l149 -142h-44l-121 116l-121 -116h-44z" />
    <glyph glyph-name="Udieresis" unicode="&#xdc;" horiz-adv-x="670" 
d="M95 282v408h30v-408q0 -126 54 -192t156 -66t156 66t54 192v408h30v-408q0 -145 -61.5 -216.5t-178.5 -71.5t-178.5 71.5t-61.5 216.5zM462 869v-44h-44v44h44zM252 869v-44h-44v44h44z" />
    <glyph glyph-name="Yacute" unicode="&#xdd;" horiz-adv-x="516" 
d="M243 309l-233 381h35l213 -348l213 348h35l-233 -381v-309h-30v309zM272 767h-30l65 129h35z" />
    <glyph glyph-name="Thorn" unicode="&#xde;" horiz-adv-x="566" 
d="M259 153h-134v-153h-30v690h30v-130h134q119 0 185 -54t66 -150t-66 -149.5t-185 -53.5zM125 530v-347h134q107 0 164 45.5t57 127.5q0 83 -57 128.5t-164 45.5h-134z" />
    <glyph glyph-name="germandbls" unicode="&#xdf;" horiz-adv-x="527" 
d="M452 563q0 -71 -61 -96q34 -12 47.5 -38.5t13.5 -76.5v-212q0 -84 -37 -112q-35 -28 -117 -28h-25v30h40q59 0 84 24.5t25 85.5v212q0 55 -23 76t-86 21h-40v30h40q52 0 80.5 21.5t28.5 62.5q0 48 -37 75.5t-112 27.5q-86 0 -127 -40.5t-41 -134.5v-491h-30v499
q0 197 198 197q89 0 134 -36.5t45 -96.5z" />
    <glyph glyph-name="agrave" unicode="&#xe0;" 
d="M50 141q0 63 41 100.5t112 37.5h173v68q0 74 -31 101q-29 28 -109 28q-38 0 -57 -3q-53 -6 -85 -60l-24 17q24 42 62.5 59t103.5 17q92 0 131 -35t39 -124v-347h-30v74q-38 -80 -157 -80q-81 0 -125 38t-44 109zM376 179v70h-173q-63 0 -93 -29t-30 -79q0 -117 139 -117
q74 0 115.5 38.5t41.5 116.5zM162 725h35l80 -158h-30z" />
    <glyph glyph-name="aacute" unicode="&#xe1;" 
d="M50 141q0 63 41 100.5t112 37.5h173v68q0 74 -31 101q-29 28 -109 28q-38 0 -57 -3q-53 -6 -85 -60l-24 17q24 42 62.5 59t103.5 17q92 0 131 -35t39 -124v-347h-30v74q-38 -80 -157 -80q-81 0 -125 38t-44 109zM376 179v70h-173q-63 0 -93 -29t-30 -79q0 -117 139 -117
q74 0 115.5 38.5t41.5 116.5zM256 567h-30l80 158h35z" />
    <glyph glyph-name="acircumflex" unicode="&#xe2;" 
d="M50 141q0 63 41 100.5t112 37.5h173v68q0 74 -31 101q-29 28 -109 28q-38 0 -57 -3q-53 -6 -85 -60l-24 17q24 42 62.5 59t103.5 17q92 0 131 -35t39 -124v-347h-30v74q-38 -80 -157 -80q-81 0 -125 38t-44 109zM376 179v70h-173q-63 0 -93 -29t-30 -79q0 -117 139 -117
q74 0 115.5 38.5t41.5 116.5zM119 558l108 142h32l108 -142h-38l-86 113l-86 -113h-38z" />
    <glyph glyph-name="atilde" unicode="&#xe3;" 
d="M50 141q0 63 41 100.5t112 37.5h173v68q0 74 -31 101q-29 28 -109 28q-38 0 -57 -3q-53 -6 -85 -60l-24 17q24 42 62.5 59t103.5 17q92 0 131 -35t39 -124v-347h-30v74q-38 -80 -157 -80q-81 0 -125 38t-44 109zM376 179v70h-173q-63 0 -93 -29t-30 -79q0 -117 139 -117
q74 0 115.5 38.5t41.5 116.5zM300 608q-26 0 -61 16q-36 17 -55 17q-38 0 -71 -33l-23 19q42 44 94 44q22 0 58 -17q35 -16 57 -16q41 0 70 33l23 -19q-38 -44 -92 -44z" />
    <glyph glyph-name="adieresis" unicode="&#xe4;" 
d="M50 141q0 63 41 100.5t112 37.5h173v68q0 74 -31 101q-29 28 -109 28q-38 0 -57 -3q-53 -6 -85 -60l-24 17q24 42 62.5 59t103.5 17q92 0 131 -35t39 -124v-347h-30v74q-38 -80 -157 -80q-81 0 -125 38t-44 109zM376 179v70h-173q-63 0 -93 -29t-30 -79q0 -117 139 -117
q74 0 115.5 38.5t41.5 116.5zM365 690v-44h-44v44h44zM155 690v-44h-44v44h44z" />
    <glyph glyph-name="aring" unicode="&#xe5;" 
d="M50 141q0 63 41 100.5t112 37.5h173v68q0 74 -31 101q-29 28 -109 28q-38 0 -57 -3q-53 -6 -85 -60l-24 17q24 42 62.5 59t103.5 17q92 0 131 -35t39 -124v-347h-30v74q-38 -80 -157 -80q-81 0 -125 38t-44 109zM376 179v70h-173q-63 0 -93 -29t-30 -79q0 -117 139 -117
q74 0 115.5 38.5t41.5 116.5zM139 646q0 46 32 78t77 32q46 0 78 -32t32 -78q0 -45 -32 -77t-78 -32q-45 0 -77 32t-32 77zM169 646q0 -32 23.5 -55.5t55.5 -23.5q34 0 57 23.5t23 55.5q0 34 -23 57t-57 23q-32 0 -55.5 -23t-23.5 -57z" />
    <glyph glyph-name="ae" unicode="&#xe6;" horiz-adv-x="777" 
d="M50 141q0 63 41 100.5t112 37.5h173v68q0 74 -31 101q-29 28 -109 28q-38 0 -57 -3q-53 -6 -85 -60l-24 17q24 42 62.5 59t103.5 17q76 0 114 -24t48 -81q44 105 160 105q86 0 130 -57.5t44 -166.5v-40h-326v-32q0 -89 39.5 -137.5t116.5 -48.5q94 0 142 66l25 -17
q-55 -79 -167 -79q-132 0 -170 111q-15 -52 -59.5 -81.5t-113.5 -29.5q-81 0 -125 38t-44 109zM376 179v70h-173q-63 0 -93 -29t-30 -79q0 -117 139 -117q74 0 115.5 38.5t41.5 116.5zM406 292v-20h296v10q0 194 -144 194q-70 0 -111 -48t-41 -136z" />
    <glyph glyph-name="ccedilla" unicode="&#xe7;" horiz-adv-x="444" 
d="M219 -42l9 37q-178 17 -178 215v82q0 104 53.5 159t152.5 55q110 0 165 -75l-25 -17q-47 62 -140 62q-85 0 -130.5 -47t-45.5 -137v-82q0 -89 44 -137.5t132 -48.5q94 0 142 66l25 -17q-55 -79 -167 -79l-4 -15q81 -15 81 -77q0 -39 -28.5 -60.5t-78.5 -21.5q-24 0 -37 3
l6 29q24 -2 31 -2q77 0 77 52t-84 56z" />
    <glyph glyph-name="egrave" unicode="&#xe8;" 
d="M426 292v-50h-346v-32q0 -89 44 -137.5t132 -48.5q94 0 142 66l25 -17q-55 -79 -167 -79q-98 0 -152 56.5t-54 159.5v82q0 104 48.5 159t139.5 55t139.5 -55t48.5 -159zM80 292v-20h316v20q0 184 -158 184q-76 0 -117 -47t-41 -137zM165 725h35l80 -158h-30z" />
    <glyph glyph-name="eacute" unicode="&#xe9;" 
d="M426 292v-50h-346v-32q0 -89 44 -137.5t132 -48.5q94 0 142 66l25 -17q-55 -79 -167 -79q-98 0 -152 56.5t-54 159.5v82q0 104 48.5 159t139.5 55t139.5 -55t48.5 -159zM80 292v-20h316v20q0 184 -158 184q-76 0 -117 -47t-41 -137zM235 567h-30l80 158h35z" />
    <glyph glyph-name="ecircumflex" unicode="&#xea;" 
d="M426 292v-50h-346v-32q0 -89 44 -137.5t132 -48.5q94 0 142 66l25 -17q-55 -79 -167 -79q-98 0 -152 56.5t-54 159.5v82q0 104 48.5 159t139.5 55t139.5 -55t48.5 -159zM80 292v-20h316v20q0 184 -158 184q-76 0 -117 -47t-41 -137zM114 558l108 142h32l108 -142h-38
l-86 113l-86 -113h-38z" />
    <glyph glyph-name="edieresis" unicode="&#xeb;" 
d="M426 292v-50h-346v-32q0 -89 44 -137.5t132 -48.5q94 0 142 66l25 -17q-55 -79 -167 -79q-98 0 -152 56.5t-54 159.5v82q0 104 48.5 159t139.5 55t139.5 -55t48.5 -159zM80 292v-20h316v20q0 184 -158 184q-76 0 -117 -47t-41 -137zM365 690v-44h-44v44h44zM155 690v-44
h-44v44h44z" />
    <glyph glyph-name="igrave" unicode="&#xec;" horiz-adv-x="210" 
d="M5 725h35l80 -158h-30zM120 0h-30v500h30v-500z" />
    <glyph glyph-name="iacute" unicode="&#xed;" horiz-adv-x="210" 
d="M120 567h-30l80 158h35zM120 0h-30v500h30v-500z" />
    <glyph glyph-name="icircumflex" unicode="&#xee;" horiz-adv-x="210" 
d="M120 0h-30v500h30v-500zM-19 558l108 142h32l108 -142h-38l-86 113l-86 -113h-38z" />
    <glyph glyph-name="idieresis" unicode="&#xef;" horiz-adv-x="210" 
d="M192 690v-44h-44v44h44zM62 690v-44h-44v44h44zM120 0h-30v500h30v-500z" />
    <glyph glyph-name="eth" unicode="&#xf0;" horiz-adv-x="496" 
d="M169 679l14 27q64 -27 77 -34l35 59l26 -16l-33 -56q51 -26 78 -45t46 -48.5t25.5 -66.5t8.5 -99v-192q0 -104 -51 -159t-147 -55t-147 55t-51 159v84q0 104 51 159t147 55q122 0 168 -87v6q-2 82 -32 124q-30 44 -111 85l-36 -60l-27 15l35 58q-24 11 -76 32zM416 208
v84q0 184 -168 184t-168 -184v-84q0 -184 168 -184t168 184z" />
    <glyph glyph-name="ntilde" unicode="&#xf1;" horiz-adv-x="526" 
d="M105 0h-30v500h30v-84q44 90 161 90q87 0 136 -58.5t49 -165.5v-282h-30v282q0 93 -41 143.5t-114 50.5q-158 0 -161 -185v-291zM322 608q-26 0 -61 16q-36 17 -55 17q-38 0 -71 -33l-23 19q42 44 94 44q22 0 58 -17q35 -16 57 -16q41 0 70 33l23 -19q-38 -44 -92 -44z
" />
    <glyph glyph-name="ograve" unicode="&#xf2;" horiz-adv-x="496" 
d="M446 292v-84q0 -104 -51 -159t-147 -55t-147 55t-51 159v84q0 104 51 159t147 55t147 -55t51 -159zM416 208v84q0 184 -168 184t-168 -184v-84q0 -184 168 -184t168 184zM175 725h35l80 -158h-30z" />
    <glyph glyph-name="oacute" unicode="&#xf3;" horiz-adv-x="496" 
d="M446 292v-84q0 -104 -51 -159t-147 -55t-147 55t-51 159v84q0 104 51 159t147 55t147 -55t51 -159zM416 208v84q0 184 -168 184t-168 -184v-84q0 -184 168 -184t168 184zM245 567h-30l80 158h35z" />
    <glyph glyph-name="ocircumflex" unicode="&#xf4;" horiz-adv-x="496" 
d="M446 292v-84q0 -104 -51 -159t-147 -55t-147 55t-51 159v84q0 104 51 159t147 55t147 -55t51 -159zM416 208v84q0 184 -168 184t-168 -184v-84q0 -184 168 -184t168 184zM124 558l108 142h32l108 -142h-38l-86 113l-86 -113h-38z" />
    <glyph glyph-name="otilde" unicode="&#xf5;" horiz-adv-x="496" 
d="M446 292v-84q0 -104 -51 -159t-147 -55t-147 55t-51 159v84q0 104 51 159t147 55t147 -55t51 -159zM416 208v84q0 184 -168 184t-168 -184v-84q0 -184 168 -184t168 184zM307 608q-26 0 -61 16q-36 17 -55 17q-38 0 -71 -33l-23 19q42 44 94 44q22 0 58 -17
q35 -16 57 -16q42 0 70 33l23 -19q-38 -44 -92 -44z" />
    <glyph glyph-name="odieresis" unicode="&#xf6;" horiz-adv-x="496" 
d="M446 292v-84q0 -104 -51 -159t-147 -55t-147 55t-51 159v84q0 104 51 159t147 55t147 -55t51 -159zM416 208v84q0 184 -168 184t-168 -184v-84q0 -184 168 -184t168 184zM375 690v-44h-44v44h44zM165 690v-44h-44v44h44z" />
    <glyph glyph-name="divide" unicode="&#xf7;" horiz-adv-x="480" 
d="M56 339v30h369v-30h-369zM259 534v-40h-40v40h40zM259 215v-40h-40v40h40z" />
    <glyph glyph-name="oslash" unicode="&#xf8;" horiz-adv-x="496" 
d="M157 10l-40 -89h-33l46 103q-80 53 -80 184v84q0 104 51 159t147 55q48 0 90 -17l42 93h33l-48 -107q81 -51 81 -183v-84q0 -104 -51 -159t-147 -55q-50 0 -91 16zM416 208v84q0 112 -64 155l-183 -409q33 -14 79 -14q82 0 125 47t43 137zM80 292v-84q0 -110 63 -155
l183 409q-36 14 -78 14q-82 0 -125 -47t-43 -137z" />
    <glyph glyph-name="ugrave" unicode="&#xf9;" horiz-adv-x="526" 
d="M421 500h30v-500h-30v84q-43 -90 -161 -90q-87 0 -136 58.5t-49 165.5v282h30v-282q0 -93 41 -143.5t114 -50.5q161 0 161 187v289zM190 725h35l80 -158h-30z" />
    <glyph glyph-name="uacute" unicode="&#xfa;" horiz-adv-x="526" 
d="M421 500h30v-500h-30v84q-43 -90 -161 -90q-87 0 -136 58.5t-49 165.5v282h30v-282q0 -93 41 -143.5t114 -50.5q161 0 161 187v289zM261 567h-30l80 158h35z" />
    <glyph glyph-name="ucircumflex" unicode="&#xfb;" horiz-adv-x="526" 
d="M421 500h30v-500h-30v84q-43 -90 -161 -90q-87 0 -136 58.5t-49 165.5v282h30v-282q0 -93 41 -143.5t114 -50.5q161 0 161 187v289zM139 558l108 142h32l108 -142h-38l-86 113l-86 -113h-38z" />
    <glyph glyph-name="udieresis" unicode="&#xfc;" horiz-adv-x="526" 
d="M421 500h30v-500h-30v84q-43 -90 -161 -90q-87 0 -136 58.5t-49 165.5v282h30v-282q0 -93 41 -143.5t114 -50.5q161 0 161 187v289zM390 690v-44h-44v44h44zM180 690v-44h-44v44h44z" />
    <glyph glyph-name="yacute" unicode="&#xfd;" horiz-adv-x="452" 
d="M74 -190v30q67 0 93 35q26 31 54 109l2 7l-213 509h33l150 -360l46 -105l167 465h31l-187 -523q-32 -94 -68 -130q-37 -37 -108 -37zM244 567h-30l80 158h35z" />
    <glyph glyph-name="thorn" unicode="&#xfe;" horiz-adv-x="521" 
d="M461 292v-82q0 -106 -49 -161t-141 -55q-129 0 -166 85v-269h-30v880h30v-269q39 85 166 85q91 0 140.5 -55t49.5 -159zM271 24q160 0 160 186v82q0 91 -41.5 137.5t-118.5 46.5q-85 0 -124.5 -43t-41.5 -132v-99q1 -88 39.5 -133t126.5 -45z" />
    <glyph glyph-name="ydieresis" unicode="&#xff;" horiz-adv-x="452" 
d="M74 -190v30q67 0 93 35q26 31 54 109l2 7l-213 509h33l150 -360l46 -105l167 465h31l-187 -523q-32 -94 -68 -130q-37 -37 -108 -37zM347 690v-44h-44v44h44zM137 690v-44h-44v44h44z" />
    <glyph glyph-name="Amacron" unicode="&#x100;" horiz-adv-x="522" 
d="M107 178l-60 -178h-32l232 690h28l232 -690h-32l-60 178h-308zM405 208l-144 427l-144 -427h288zM406 815h-289v30h289v-30z" />
    <glyph glyph-name="amacron" unicode="&#x101;" 
d="M50 141q0 63 41 100.5t112 37.5h173v68q0 74 -31 101q-29 28 -109 28q-38 0 -57 -3q-53 -6 -85 -60l-24 17q24 42 62.5 59t103.5 17q92 0 131 -35t39 -124v-347h-30v74q-38 -80 -157 -80q-81 0 -125 38t-44 109zM376 179v70h-173q-63 0 -93 -29t-30 -79q0 -117 139 -117
q74 0 115.5 38.5t41.5 116.5zM369 612h-249v30h249v-30z" />
    <glyph glyph-name="Abreve" unicode="&#x102;" horiz-adv-x="522" 
d="M107 178l-60 -178h-32l232 690h28l232 -690h-32l-60 178h-308zM405 208l-144 427l-144 -427h288zM406 899h30q0 -68 -46.5 -105t-127.5 -37t-128 37.5t-47 104.5h30q10 -112 145 -112q134 0 144 112z" />
    <glyph glyph-name="abreve" unicode="&#x103;" 
d="M50 141q0 63 41 100.5t112 37.5h173v68q0 74 -31 101q-29 28 -109 28q-38 0 -57 -3q-53 -6 -85 -60l-24 17q24 42 62.5 59t103.5 17q92 0 131 -35t39 -124v-347h-30v74q-38 -80 -157 -80q-81 0 -125 38t-44 109zM376 179v70h-173q-63 0 -93 -29t-30 -79q0 -117 139 -117
q74 0 115.5 38.5t41.5 116.5zM344 690h30q-4 -108 -126 -108t-126 108h30q4 -40 26.5 -59t69.5 -19t69.5 19t26.5 59z" />
    <glyph glyph-name="Aogonek" unicode="&#x104;" horiz-adv-x="580" 
d="M112 178l-60 -178h-32l232 690h28l232 -690h-19l-18 -8q-19 -8 -37 -17q-40 -21 -40 -52q0 -43 68 -43q20 0 34 3l6 -29q-15 -4 -39 -4q-43 0 -71 18.5t-28 53.5q0 31 22.5 52.5t81.5 48.5l-52 155h-308zM410 208l-144 427l-144 -427h288z" />
    <glyph glyph-name="aogonek" unicode="&#x105;" horiz-adv-x="491" 
d="M60 141q0 63 41 100.5t112 37.5h173v68q0 74 -31 101q-29 28 -109 28q-38 0 -57 -3q-53 -6 -85 -60l-24 17q24 42 62.5 59t103.5 17q92 0 131 -35t39 -124v-347h-13l-18 -8q-19 -8 -37 -17q-40 -21 -40 -52q0 -43 68 -43q20 0 34 3l6 -29q-15 -4 -39 -4q-43 0 -71 18.5
t-28 53.5q0 32 23.5 53.5t84.5 49.5v49q-38 -80 -157 -80q-81 0 -125 38t-44 109zM386 179v70h-173q-63 0 -93 -29t-30 -79q0 -117 139 -117q74 0 115.5 38.5t41.5 116.5z" />
    <glyph glyph-name="Cacute" unicode="&#x106;" horiz-adv-x="583" 
d="M538 489h-30q-32 177 -208 177q-105 0 -157.5 -65.5t-52.5 -209.5v-92q0 -144 52.5 -209.5t157.5 -65.5q84 0 138 47t70 134h29q-15 -108 -82 -160q-66 -51 -155 -51q-240 0 -240 305v92q0 305 240 305q91 0 157 -51q66 -49 81 -156zM307 767h-30l65 129h35z" />
    <glyph glyph-name="cacute" unicode="&#x107;" horiz-adv-x="443" 
d="M398 90l25 -17q-55 -79 -167 -79q-99 0 -152.5 55.5t-53.5 160.5v82q0 104 53.5 159t152.5 55q110 0 165 -75l-25 -17q-47 62 -140 62q-85 0 -130.5 -47t-45.5 -137v-82q0 -89 44 -137.5t132 -48.5q94 0 142 66zM245 567h-30l80 158h35z" />
    <glyph glyph-name="Ccircumflex" unicode="&#x108;" horiz-adv-x="583" 
d="M538 489h-30q-32 177 -208 177q-105 0 -157.5 -65.5t-52.5 -209.5v-92q0 -144 52.5 -209.5t157.5 -65.5q84 0 138 47t70 134h29q-15 -108 -82 -160q-66 -51 -155 -51q-240 0 -240 305v92q0 305 240 305q91 0 157 -51q66 -49 81 -156zM134 757l149 142h32l149 -142h-44
l-121 116l-121 -116h-44z" />
    <glyph glyph-name="ccircumflex" unicode="&#x109;" horiz-adv-x="443" 
d="M398 90l25 -17q-55 -79 -167 -79q-99 0 -152.5 55.5t-53.5 160.5v82q0 104 53.5 159t152.5 55q110 0 165 -75l-25 -17q-47 62 -140 62q-85 0 -130.5 -47t-45.5 -137v-82q0 -89 44 -137.5t132 -48.5q94 0 142 66zM112 558l108 142h32l108 -142h-38l-86 113l-86 -113h-38z
" />
    <glyph glyph-name="Cdotaccent" unicode="&#x10a;" horiz-adv-x="583" 
d="M538 489h-30q-32 177 -208 177q-105 0 -157.5 -65.5t-52.5 -209.5v-92q0 -144 52.5 -209.5t157.5 -65.5q84 0 138 47t70 134h29q-15 -108 -82 -160q-66 -51 -155 -51q-240 0 -240 305v92q0 305 240 305q91 0 157 -51q66 -49 81 -156zM321 869v-44h-44v44h44z" />
    <glyph glyph-name="cdotaccent" unicode="&#x10b;" horiz-adv-x="443" 
d="M398 90l25 -17q-55 -79 -167 -79q-99 0 -152.5 55.5t-53.5 160.5v82q0 104 53.5 159t152.5 55q110 0 165 -75l-25 -17q-47 62 -140 62q-85 0 -130.5 -47t-45.5 -137v-82q0 -89 44 -137.5t132 -48.5q94 0 142 66zM258 690v-44h-44v44h44z" />
    <glyph glyph-name="Ccaron" unicode="&#x10c;" horiz-adv-x="583" 
d="M538 489h-30q-32 177 -208 177q-105 0 -157.5 -65.5t-52.5 -209.5v-92q0 -144 52.5 -209.5t157.5 -65.5q84 0 138 47t70 134h29q-15 -108 -82 -160q-66 -51 -155 -51q-240 0 -240 305v92q0 305 240 305q91 0 157 -51q66 -49 81 -156zM134 899h44l121 -116l121 116h44
l-149 -142h-32z" />
    <glyph glyph-name="ccaron" unicode="&#x10d;" horiz-adv-x="443" 
d="M398 90l25 -17q-55 -79 -167 -79q-99 0 -152.5 55.5t-53.5 160.5v82q0 104 53.5 159t152.5 55q110 0 165 -75l-25 -17q-47 62 -140 62q-85 0 -130.5 -47t-45.5 -137v-82q0 -89 44 -137.5t132 -48.5q94 0 142 66zM360 700l-108 -142h-32l-108 142h38l86 -113l86 113h38z
" />
    <glyph glyph-name="Dcaron" unicode="&#x10e;" horiz-adv-x="605" 
d="M295 0h-200v690h200q124 0 187 -71.5t63 -227.5v-92q0 -156 -63 -227.5t-187 -71.5zM125 30h170q106 0 163 59q57 60 57 210v92q0 143 -54.5 206t-165.5 63h-170v-630zM123 899h44l121 -116l121 116h44l-149 -142h-32z" />
    <glyph glyph-name="dcaron" unicode="&#x10f;" horiz-adv-x="561" 
d="M406 425v265h30v-690h-30v75q-40 -81 -166 -81q-190 0 -190 216v82q0 214 190 214q126 0 166 -81zM240 24q91 0 128.5 45.5t37.5 139.5v90q-2 90 -40 133.5t-126 43.5q-160 0 -160 -184v-82q0 -186 160 -186zM511 690h30v-110l-30 -27v137z" />
    <glyph glyph-name="Dcroat" unicode="&#x110;" horiz-adv-x="603" 
d="M293 0h-200v342h-113v30h113v318h200q124 0 187 -71.5t63 -227.5v-92q0 -156 -63 -227.5t-187 -71.5zM123 30h170q106 0 163 59q57 60 57 210v92q0 143 -54.5 206t-165.5 63h-170v-288h206v-30h-206v-312z" />
    <glyph glyph-name="dslash" unicode="&#x111;" horiz-adv-x="521" 
d="M223 609h183v81h30v-81h106v-30h-106v-579h-30v75q-40 -81 -166 -81q-190 0 -190 216v82q0 214 190 214q126 0 166 -81v154h-183v30zM240 24q91 0 128.5 45.5t37.5 139.5v90q0 88 -39 132.5t-127 44.5q-160 0 -160 -184v-82q0 -186 160 -186z" />
    <glyph glyph-name="Emacron" unicode="&#x112;" horiz-adv-x="546" 
d="M95 0v690h396v-30h-366v-288h336v-30h-336v-312h366v-30h-396zM438 815h-289v30h289v-30z" />
    <glyph glyph-name="emacron" unicode="&#x113;" 
d="M426 292v-50h-346v-32q0 -89 44 -137.5t132 -48.5q94 0 142 66l25 -17q-55 -79 -167 -79q-98 0 -152 56.5t-54 159.5v82q0 104 48.5 159t139.5 55t139.5 -55t48.5 -159zM80 292v-20h316v20q0 184 -158 184q-76 0 -117 -47t-41 -137zM363 612h-249v30h249v-30z" />
    <glyph glyph-name="Edotaccent" unicode="&#x116;" horiz-adv-x="546" 
d="M95 0v690h396v-30h-366v-288h336v-30h-336v-312h366v-30h-396zM315 869v-44h-44v44h44z" />
    <glyph glyph-name="edotaccent" unicode="&#x117;" 
d="M426 292v-50h-346v-32q0 -89 44 -137.5t132 -48.5q94 0 142 66l25 -17q-55 -79 -167 -79q-98 0 -152 56.5t-54 159.5v82q0 104 48.5 159t139.5 55t139.5 -55t48.5 -159zM80 292v-20h316v20q0 184 -158 184q-76 0 -117 -47t-41 -137zM260 690v-44h-44v44h44z" />
    <glyph glyph-name="Eogonek" unicode="&#x118;" horiz-adv-x="546" 
d="M95 0v690h396v-30h-366v-288h336v-30h-336v-312h366v-30h-133l-18 -8q-19 -8 -37 -17q-40 -21 -40 -52q0 -43 68 -43q20 0 34 3l6 -29q-15 -4 -39 -4q-43 0 -71 18.5t-28 53.5q0 45 59 78h-197z" />
    <glyph glyph-name="eogonek" unicode="&#x119;" 
d="M426 292v-50h-346v-32q0 -89 44 -137.5t132 -48.5q94 0 142 66l25 -17q-38 -56 -112 -73l-18 -8q-19 -8 -37 -17q-40 -21 -40 -52q0 -43 68 -43q20 0 34 3l6 -29q-15 -4 -39 -4q-43 0 -71 18.5t-28 53.5q0 41 50 73q-89 5 -137.5 61t-48.5 154v82q0 104 48.5 159
t139.5 55t139.5 -55t48.5 -159zM80 292v-20h316v20q0 184 -158 184q-76 0 -117 -47t-41 -137z" />
    <glyph glyph-name="Ecaron" unicode="&#x11a;" horiz-adv-x="546" 
d="M95 0v690h396v-30h-366v-288h336v-30h-336v-312h366v-30h-396zM129 899h44l121 -116l121 116h44l-149 -142h-32z" />
    <glyph glyph-name="ecaron" unicode="&#x11b;" 
d="M426 292v-50h-346v-32q0 -89 44 -137.5t132 -48.5q94 0 142 66l25 -17q-55 -79 -167 -79q-98 0 -152 56.5t-54 159.5v82q0 104 48.5 159t139.5 55t139.5 -55t48.5 -159zM80 292v-20h316v20q0 184 -158 184q-76 0 -117 -47t-41 -137zM362 700l-108 -142h-32l-108 142h38
l86 -113l86 113h38z" />
    <glyph glyph-name="Gcircumflex" unicode="&#x11c;" horiz-adv-x="604" 
d="M303 295v30h241v-16q0 -315 -244 -315q-240 0 -240 305v92q0 305 240 305q91 0 157 -51q66 -49 81 -156h-30q-32 177 -208 177q-105 0 -157.5 -65.5t-52.5 -209.5v-92q0 -144 52.5 -209.5t157.5 -65.5q208 0 214 271h-211zM137 757l149 142h32l149 -142h-44l-121 116
l-121 -116h-44z" />
    <glyph glyph-name="gcircumflex" unicode="&#x11d;" horiz-adv-x="511" 
d="M50 210v82q0 214 190 214q126 0 166 -81v75h30v-470q0 -106 -51 -166t-143 -60q-105 0 -157 79l25 17q45 -66 132 -66q80 0 122 53t42 143v45q-40 -81 -166 -81q-190 0 -190 216zM240 24q88 0 126 43.5t40 133.5v98q-2 90 -40 133.5t-126 43.5q-160 0 -160 -184v-82
q0 -186 160 -186zM119 558l108 142h32l108 -142h-38l-86 113l-86 -113h-38z" />
    <glyph glyph-name="Gbreve" unicode="&#x11e;" horiz-adv-x="604" 
d="M303 295v30h241v-16q0 -315 -244 -315q-240 0 -240 305v92q0 305 240 305q91 0 157 -51q66 -49 81 -156h-30q-32 177 -208 177q-105 0 -157.5 -65.5t-52.5 -209.5v-92q0 -144 52.5 -209.5t157.5 -65.5q208 0 214 271h-211zM447 899h30q0 -68 -46.5 -105t-127.5 -37
t-128 37.5t-47 104.5h30q10 -112 145 -112q134 0 144 112z" />
    <glyph glyph-name="gbreve" unicode="&#x11f;" horiz-adv-x="511" 
d="M50 210v82q0 214 190 214q126 0 166 -81v75h30v-470q0 -106 -51 -166t-143 -60q-105 0 -157 79l25 17q45 -66 132 -66q80 0 122 53t42 143v45q-40 -81 -166 -81q-190 0 -190 216zM240 24q88 0 126 43.5t40 133.5v98q-2 90 -40 133.5t-126 43.5q-160 0 -160 -184v-82
q0 -186 160 -186zM339 690h30q-5 -108 -126 -108t-126 108h30q4 -40 26.5 -59t69.5 -19t69.5 19t26.5 59z" />
    <glyph glyph-name="Gdotaccent" unicode="&#x120;" horiz-adv-x="604" 
d="M303 295v30h241v-16q0 -315 -244 -315q-240 0 -240 305v92q0 305 240 305q91 0 157 -51q66 -49 81 -156h-30q-32 177 -208 177q-105 0 -157.5 -65.5t-52.5 -209.5v-92q0 -144 52.5 -209.5t157.5 -65.5q208 0 214 271h-211zM324 869v-44h-44v44h44z" />
    <glyph glyph-name="gdotaccent" unicode="&#x121;" horiz-adv-x="511" 
d="M50 210v82q0 214 190 214q126 0 166 -81v75h30v-470q0 -106 -51 -166t-143 -60q-105 0 -157 79l25 17q45 -66 132 -66q80 0 122 53t42 143v45q-40 -81 -166 -81q-190 0 -190 216zM240 24q88 0 126 43.5t40 133.5v98q-2 90 -40 133.5t-126 43.5q-160 0 -160 -184v-82
q0 -186 160 -186zM265 690v-44h-44v44h44z" />
    <glyph glyph-name="Gcommaaccent" unicode="&#x122;" horiz-adv-x="604" 
d="M303 295v30h241v-16q0 -315 -244 -315q-240 0 -240 305v92q0 305 240 305q91 0 157 -51q66 -49 81 -156h-30q-32 177 -208 177q-105 0 -157.5 -65.5t-52.5 -209.5v-92q0 -144 52.5 -209.5t157.5 -65.5q208 0 214 271h-211zM287 -64h30v-110l-30 -27v137z" />
    <glyph glyph-name="gcommaaccent" unicode="&#x123;" horiz-adv-x="511" 
d="M50 210v82q0 214 190 214q126 0 166 -81v75h30v-470q0 -106 -51 -166t-143 -60q-105 0 -157 79l25 17q45 -66 132 -66q80 0 122 53t42 143v45q-40 -81 -166 -81q-190 0 -190 216zM240 24q88 0 126 43.5t40 133.5v98q-2 90 -40 133.5t-126 43.5q-160 0 -160 -184v-82
q0 -186 160 -186zM270 584h-30v110l30 27v-137z" />
    <glyph glyph-name="Hcircumflex" unicode="&#x124;" horiz-adv-x="638" 
d="M95 690h30v-316h388v316h30v-690h-30v344h-388v-344h-30v690zM154 757l149 142h32l149 -142h-44l-121 116l-121 -116h-44z" />
    <glyph glyph-name="hcircumflex" unicode="&#x125;" horiz-adv-x="526" 
d="M105 0h-30v690h30v-274q45 90 161 90q87 0 136 -58.5t49 -165.5v-282h-30v282q0 93 -41 143.5t-114 50.5q-158 0 -161 -185v-291zM-34 748l108 142h32l108 -142h-38l-86 113l-86 -113h-38z" />
    <glyph glyph-name="Hbar" unicode="&#x126;" horiz-adv-x="638" 
d="M513 522v168h30v-168h100v-30h-100v-492h-30v344h-388v-344h-30v492h-100v30h100v168h30v-168h388zM513 492h-388v-118h388v118z" />
    <glyph glyph-name="hbar" unicode="&#x127;" horiz-adv-x="526" 
d="M75 579h-94v30h94v81h30v-81h195v-30h-195v-163q45 90 161 90q87 0 136 -58.5t49 -165.5v-282h-30v282q0 93 -41 143.5t-114 50.5q-158 0 -161 -185v-291h-30v579z" />
    <glyph glyph-name="Imacron" unicode="&#x12a;" horiz-adv-x="240" 
d="M105 690h30v-690h-30v690zM265 815h-289v30h289v-30z" />
    <glyph glyph-name="imacron" unicode="&#x12b;" horiz-adv-x="210" 
d="M120 0h-30v500h30v-500zM230 612h-249v30h249v-30z" />
    <glyph glyph-name="Iogonek" unicode="&#x12e;" horiz-adv-x="240" 
d="M105 690h30v-690h-10l-18 -8q-19 -8 -37 -17q-40 -21 -40 -52q0 -43 68 -43q20 0 34 3l6 -29q-15 -4 -39 -4q-43 0 -71 18.5t-28 53.5q0 31 23 52.5t82 48.5v667z" />
    <glyph glyph-name="iogonek" unicode="&#x12f;" horiz-adv-x="200" 
d="M110 500v-500h-8l-18 -8q-19 -8 -37 -17q-40 -21 -40 -52q0 -43 68 -43q21 0 34 3l6 -29q-15 -4 -39 -4q-43 0 -71 18.5t-28 53.5q0 32 23 53.5t80 46.5v478h30zM117 646h-44v44h44v-44z" />
    <glyph glyph-name="Idot" unicode="&#x130;" horiz-adv-x="240" 
d="M105 690h30v-690h-30v690zM142 869v-44h-44v44h44z" />
    <glyph glyph-name="dotlessi" unicode="&#x131;" horiz-adv-x="210" 
d="M120 0h-30v500h30v-500z" />
    <glyph glyph-name="Jcircumflex" unicode="&#x134;" horiz-adv-x="505" 
d="M15 80l27 14q52 -70 146 -70q100 0 146 64.5t46 198.5v403h30v-404q0 -292 -222 -292q-119 0 -173 86zM231 757l149 142h32l149 -142h-44l-121 116l-121 -116h-44z" />
    <glyph glyph-name="jcircumflex" unicode="&#x135;" horiz-adv-x="235" 
d="M105 500h30v-536q0 -82 -30 -118t-105 -36v30q65 0 85 29t20 95v536zM-3 558l108 142h32l108 -142h-38l-86 113l-86 -113h-38z" />
    <glyph glyph-name="Kcommaaccent" unicode="&#x136;" horiz-adv-x="601" 
d="M299 415l292 -415h-37l-275 392l-154 -176v-216h-30v690h30v-428l374 428h41zM300 -64h30v-110l-30 -27v137z" />
    <glyph glyph-name="kcommaaccent" unicode="&#x137;" horiz-adv-x="492" 
d="M105 201l291 299h40l-213 -219l249 -281h-40l-230 259l-97 -100v-159h-30v690h30v-489zM228 -64h30v-110l-30 -27v137z" />
    <glyph glyph-name="Lacute" unicode="&#x139;" horiz-adv-x="501" 
d="M95 690h30v-660h366v-30h-396v690zM125 767h-30l65 129h35z" />
    <glyph glyph-name="lacute" unicode="&#x13a;" horiz-adv-x="256" 
d="M75 151v539h30v-531q0 -71 20 -102q19 -30 85 -30v-30q-75 0 -105 36t-30 118zM104 726h-30l80 158h35z" />
    <glyph glyph-name="Lcommaaccent" unicode="&#x13b;" horiz-adv-x="501" 
d="M95 690h30v-660h366v-30h-396v690zM278 -64h30v-110l-30 -27v137z" />
    <glyph glyph-name="lcommaaccent" unicode="&#x13c;" horiz-adv-x="256" 
d="M75 151v539h30v-531q0 -71 20 -102q19 -30 85 -30v-30q-75 0 -105 36t-30 118zM129 -64h30v-110l-30 -27v137z" />
    <glyph glyph-name="Lcaron" unicode="&#x13d;" horiz-adv-x="501" 
d="M95 690h30v-660h366v-30h-396v690zM313 690h40v-108l-40 -35v143z" />
    <glyph glyph-name="lcaron" unicode="&#x13e;" horiz-adv-x="293" 
d="M75 151v539h30v-531q0 -71 20 -102q19 -30 85 -30v-30q-75 0 -105 36t-30 118zM221 690h30v-110l-30 -27v137z" />
    <glyph glyph-name="Ldot" unicode="&#x13f;" horiz-adv-x="501" 
d="M95 690h30v-660h366v-30h-396v690zM384 400v-44h-44v44h44z" />
    <glyph glyph-name="ldot" unicode="&#x140;" horiz-adv-x="256" 
d="M75 151v539h30v-531q0 -71 20 -102q19 -30 85 -30v-30q-75 0 -105 36t-30 118zM239 393v-44h-44v44h44z" />
    <glyph glyph-name="Lslash" unicode="&#x141;" horiz-adv-x="501" 
d="M85 690h30v-317l190 153l18 -23l-208 -167v-306h366v-30h-396v312l-84 -67l-18 23l102 81v341z" />
    <glyph glyph-name="lslash" unicode="&#x142;" horiz-adv-x="255" 
d="M75 312l-86 -59l-17 24l103 71v342h30v-322l132 92l17 -23l-149 -104v-174q0 -71 20 -102q19 -30 85 -30v-30q-75 0 -105 36t-30 118v161z" />
    <glyph glyph-name="Nacute" unicode="&#x143;" horiz-adv-x="638" 
d="M513 59v631h30v-690h-28l-390 626v-626h-30v690h28zM331 767h-30l65 129h35z" />
    <glyph glyph-name="nacute" unicode="&#x144;" horiz-adv-x="526" 
d="M105 0h-30v500h30v-84q44 90 161 90q87 0 136 -58.5t49 -165.5v-282h-30v282q0 93 -41 143.5t-114 50.5q-158 0 -161 -185v-291zM277 567h-30l80 158h35z" />
    <glyph glyph-name="Ncommaaccent" unicode="&#x145;" horiz-adv-x="638" 
d="M513 59v631h30v-690h-28l-390 626v-626h-30v690h28zM308 -64h30v-110l-30 -27v137z" />
    <glyph glyph-name="ncommaaccent" unicode="&#x146;" horiz-adv-x="526" 
d="M105 0h-30v500h30v-84q44 90 161 90q87 0 136 -58.5t49 -165.5v-282h-30v282q0 93 -41 143.5t-114 50.5q-158 0 -161 -185v-291zM248 -64h30v-110l-30 -27v137z" />
    <glyph glyph-name="Ncaron" unicode="&#x147;" horiz-adv-x="638" 
d="M513 59v631h30v-690h-28l-390 626v-626h-30v690h28zM154 899h44l121 -116l121 116h44l-149 -142h-32z" />
    <glyph glyph-name="ncaron" unicode="&#x148;" horiz-adv-x="526" 
d="M105 0h-30v500h30v-84q44 90 161 90q87 0 136 -58.5t49 -165.5v-282h-30v282q0 93 -41 143.5t-114 50.5q-158 0 -161 -185v-291zM387 700l-108 -142h-32l-108 142h38l86 -113l86 113h38z" />
    <glyph glyph-name="Omacron" unicode="&#x14c;" horiz-adv-x="600" 
d="M540 391v-92q0 -151 -63 -228t-177 -77t-177 77t-63 228v92q0 151 63 228t177 77t177 -77t63 -228zM90 391v-92q0 -140 55 -207.5t155 -67.5t155 67.5t55 207.5v92q0 140 -55 207.5t-155 67.5t-155 -67.5t-55 -207.5zM445 815h-289v30h289v-30z" />
    <glyph glyph-name="omacron" unicode="&#x14d;" horiz-adv-x="496" 
d="M446 292v-84q0 -104 -51 -159t-147 -55t-147 55t-51 159v84q0 104 51 159t147 55t147 -55t51 -159zM416 208v84q0 184 -168 184t-168 -184v-84q0 -184 168 -184t168 184zM373 612h-249v30h249v-30z" />
    <glyph glyph-name="Ohungarumlaut" unicode="&#x150;" horiz-adv-x="600" 
d="M540 391v-92q0 -151 -63 -228t-177 -77t-177 77t-63 228v92q0 151 63 228t177 77t177 -77t63 -228zM90 391v-92q0 -140 55 -207.5t155 -67.5t155 67.5t55 207.5v92q0 140 -55 207.5t-155 67.5t-155 -67.5t-55 -207.5zM210 767h-30l80 129h35zM395 767h-30l80 129h35z" />
    <glyph glyph-name="ohungarumlaut" unicode="&#x151;" horiz-adv-x="496" 
d="M446 292v-84q0 -104 -51 -159t-147 -55t-147 55t-51 159v84q0 104 51 159t147 55t147 -55t51 -159zM416 208v84q0 184 -168 184t-168 -184v-84q0 -184 168 -184t168 184zM166 567h-30l80 158h35zM351 567h-30l80 158h35z" />
    <glyph glyph-name="OE" unicode="&#x152;" horiz-adv-x="961" 
d="M510 690h396v-30h-366v-254v-15v-19h336v-30h-336v-43v-16v-253h366v-30h-396v126q-57 -132 -210 -132q-114 0 -177 77t-63 228v92q0 151 63 228t177 77q153 0 210 -133v127zM90 391v-92q0 -140 55 -207.5t155 -67.5q97 0 151.5 64t58.5 196v122q-4 131 -58.5 195.5
t-151.5 64.5q-100 0 -155 -67.5t-55 -207.5z" />
    <glyph glyph-name="oe" unicode="&#x153;" horiz-adv-x="847" 
d="M248 506q141 0 182 -116q39 116 174 116q91 0 139.5 -55t48.5 -159v-50h-346v-32q0 -186 176 -186q94 0 142 66l25 -17q-55 -79 -167 -79q-146 0 -191 119q-41 -119 -183 -119q-96 0 -147 55t-51 159v84q0 104 51 159t147 55zM416 210v82q0 184 -168 184t-168 -184v-84
q0 -184 168 -184t168 186zM446 292v-20h316v20q0 184 -158 184q-76 0 -117 -46.5t-41 -137.5z" />
    <glyph glyph-name="Racute" unicode="&#x154;" horiz-adv-x="604" 
d="M398 305l166 -305h-34l-163 299q-23 -4 -62 -4h-180v-295h-30v690h210q115 0 178 -51t63 -147q0 -150 -148 -187zM125 660v-335h180q211 0 211 167q0 168 -211 168h-180zM287 767h-30l65 129h35z" />
    <glyph glyph-name="racute" unicode="&#x155;" horiz-adv-x="381" 
d="M240 476q-67 0 -101 -49.5t-34 -135.5v-291h-30v500h30v-84q17 42 53 66t84 24q82 0 139 -70l-24 -19q-48 59 -117 59zM236 567h-30l80 158h35z" />
    <glyph glyph-name="Rcommaaccent" unicode="&#x156;" horiz-adv-x="604" 
d="M398 305l166 -305h-34l-163 299q-23 -4 -62 -4h-180v-295h-30v690h210q115 0 178 -51t63 -147q0 -150 -148 -187zM125 660v-335h180q211 0 211 167q0 168 -211 168h-180zM272 -64h30v-110l-30 -27v137z" />
    <glyph glyph-name="rcommaaccent" unicode="&#x157;" horiz-adv-x="381" 
d="M240 476q-67 0 -101 -49.5t-34 -135.5v-291h-30v500h30v-84q17 42 53 66t84 24q82 0 139 -70l-24 -19q-48 59 -117 59zM75 -64h30v-110l-30 -27v137z" />
    <glyph glyph-name="Rcaron" unicode="&#x158;" horiz-adv-x="604" 
d="M398 305l166 -305h-34l-163 299q-23 -4 -62 -4h-180v-295h-30v690h210q115 0 178 -51t63 -147q0 -150 -148 -187zM125 660v-335h180q211 0 211 167q0 168 -211 168h-180zM121 899h44l121 -116l121 116h44l-149 -142h-32z" />
    <glyph glyph-name="rcaron" unicode="&#x159;" horiz-adv-x="381" 
d="M240 476q-67 0 -101 -49.5t-34 -135.5v-291h-30v500h30v-84q17 42 53 66t84 24q82 0 139 -70l-24 -19q-48 59 -117 59zM365 700l-108 -142h-32l-108 142h38l86 -113l86 113h38z" />
    <glyph glyph-name="Sacute" unicode="&#x15a;" horiz-adv-x="568" 
d="M501 583l-25 -17q-60 100 -194 100q-86 0 -134 -35.5t-48 -104.5q3 -41 13 -65t34 -41l29 -20q8 -5 39 -16l38 -12q6 -1 43 -11q82 -21 130 -46q44 -23 64 -58t23 -95q0 -70 -56 -120q-55 -48 -166 -48q-161 0 -236 113l24 17q38 -50 86.5 -75t125.5 -25q92 0 142 38
t50 100q0 73 -45 109q-44 36 -147 60q-108 25 -166 67q-55 40 -55 128q0 78 54 124t159 46q147 0 218 -113zM283 767h-30l65 129h35z" />
    <glyph glyph-name="sacute" unicode="&#x15b;" horiz-adv-x="456" 
d="M391 423l-25 -17q-26 39 -58 54.5t-89 15.5q-65 0 -102 -24.5t-37 -73.5q0 -40 30 -70q12 -10 35 -18q31 -11 84 -20q91 -17 134 -49t43 -96q0 -61 -43.5 -96t-134.5 -35q-126 0 -183 83l26 18q27 -38 63 -54.5t95 -16.5q147 0 147 101q0 49 -40 75t-129 43
q-82 15 -119.5 44.5t-37.5 90.5q0 60 44.5 94t124.5 34q122 0 172 -83zM235 567h-30l80 158h35z" />
    <glyph glyph-name="Scircumflex" unicode="&#x15c;" horiz-adv-x="568" 
d="M501 583l-25 -17q-60 100 -194 100q-86 0 -134 -35.5t-48 -104.5q3 -41 13 -65t34 -41l29 -20q8 -5 39 -16l38 -12q6 -1 43 -11q82 -21 130 -46q44 -23 64 -58t23 -95q0 -70 -56 -120q-55 -48 -166 -48q-161 0 -236 113l24 17q38 -50 86.5 -75t125.5 -25q92 0 142 38
t50 100q0 73 -45 109q-44 36 -147 60q-108 25 -166 67q-55 40 -55 128q0 78 54 124t159 46q147 0 218 -113zM123 757l149 142h32l149 -142h-44l-121 116l-121 -116h-44z" />
    <glyph glyph-name="scircumflex" unicode="&#x15d;" horiz-adv-x="456" 
d="M391 423l-25 -17q-26 39 -58 54.5t-89 15.5q-65 0 -102 -24.5t-37 -73.5q0 -40 30 -70q12 -10 35 -18q31 -11 84 -20q91 -17 134 -49t43 -96q0 -61 -43.5 -96t-134.5 -35q-126 0 -183 83l26 18q27 -38 63 -54.5t95 -16.5q147 0 147 101q0 49 -40 75t-129 43
q-82 15 -119.5 44.5t-37.5 90.5q0 60 44.5 94t124.5 34q122 0 172 -83zM97 558l108 142h32l108 -142h-38l-86 113l-86 -113h-38z" />
    <glyph glyph-name="Scedilla" unicode="&#x15e;" horiz-adv-x="587" 
d="M266 -41l8 35q-148 6 -219 113l24 17q38 -50 86.5 -75t125.5 -25q92 0 142 38t50 100q0 73 -45 109q-44 36 -147 60q-108 25 -166 67q-55 40 -55 128q0 78 54 124t159 46q147 0 218 -113l-25 -17q-60 100 -194 100q-86 0 -134 -35.5t-48 -104.5q3 -41 13 -65t34 -41
l29 -20q8 -5 39 -16l38 -12q6 -1 43 -11q82 -21 130 -46q44 -23 64 -58t23 -95q0 -72 -54.5 -118.5t-155.5 -49.5l-4 -14q81 -15 81 -77q0 -39 -28.5 -60.5t-78.5 -21.5q-23 0 -37 3l6 29q24 -2 31 -2q77 0 77 52q0 51 -84 56z" />
    <glyph glyph-name="scedilla" unicode="&#x15f;" horiz-adv-x="456" 
d="M206 -41l8 35q-116 5 -169 83l26 18q27 -38 63 -54.5t95 -16.5q147 0 147 101q0 49 -40 75t-129 43q-82 15 -119.5 44.5t-37.5 90.5q0 60 44.5 94t124.5 34q122 0 172 -83l-25 -17q-26 39 -58 54.5t-89 15.5q-65 0 -102 -24.5t-37 -73.5q0 -40 30 -70q12 -10 35 -18
q31 -11 84 -20q91 -17 134 -49t43 -96q0 -124 -163 -130l-4 -15q81 -15 81 -77q0 -39 -28.5 -60.5t-78.5 -21.5q-23 0 -37 3l6 29q24 -2 31 -2q77 0 77 52q0 51 -84 56z" />
    <glyph glyph-name="Scaron" unicode="&#x160;" horiz-adv-x="568" 
d="M501 583l-25 -17q-60 100 -194 100q-86 0 -134 -35.5t-48 -104.5q3 -41 13 -65t34 -41l29 -20q8 -5 39 -16l38 -12q6 -1 43 -11q82 -21 130 -46q44 -23 64 -58t23 -95q0 -70 -56 -120q-55 -48 -166 -48q-161 0 -236 113l24 17q38 -50 86.5 -75t125.5 -25q92 0 142 38
t50 100q0 73 -45 109q-44 36 -147 60q-108 25 -166 67q-55 40 -55 128q0 78 54 124t159 46q147 0 218 -113zM113 899h44l121 -116l121 116h44l-149 -142h-32z" />
    <glyph glyph-name="scaron" unicode="&#x161;" horiz-adv-x="456" 
d="M391 423l-25 -17q-26 39 -58 54.5t-89 15.5q-65 0 -102 -24.5t-37 -73.5q0 -40 30 -70q12 -10 35 -18q31 -11 84 -20q91 -17 134 -49t43 -96q0 -61 -43.5 -96t-134.5 -35q-126 0 -183 83l26 18q27 -38 63 -54.5t95 -16.5q147 0 147 101q0 49 -40 75t-129 43
q-82 15 -119.5 44.5t-37.5 90.5q0 60 44.5 94t124.5 34q122 0 172 -83zM345 700l-108 -142h-32l-108 142h38l86 -113l86 113h38z" />
    <glyph glyph-name="Tcedilla" unicode="&#x162;" horiz-adv-x="516" 
d="M15 660v30h486v-30h-228v-660l-6 -20q81 -15 81 -77q0 -39 -28.5 -60.5t-78.5 -21.5q-23 0 -37 3l6 29q24 -2 31 -2q77 0 77 52q0 51 -84 56l9 41v660h-228z" />
    <glyph glyph-name="tcedilla" unicode="&#x163;" horiz-adv-x="315" 
d="M166 -41l11 47q-45 12 -63.5 46.5t-18.5 101.5v316h-64v30h64v110h30v-110h132v-30h-132v-306q0 -76 19 -105q20 -29 86 -29h27v-30h-28q-19 0 -24 1l-6 -21q81 -15 81 -77q0 -39 -28.5 -60.5t-78.5 -21.5q-23 0 -37 3l6 29q24 -2 31 -2q77 0 77 52q0 51 -84 56z" />
    <glyph glyph-name="Tcaron" unicode="&#x164;" horiz-adv-x="516" 
d="M15 660v30h486v-30h-228v-660h-30v660h-228zM93 899h44l121 -116l121 116h44l-149 -142h-32z" />
    <glyph glyph-name="tcaron" unicode="&#x165;" horiz-adv-x="322" 
d="M95 470h-64v30h64v110h30v-110h132v-30h-132v-306q0 -76 19 -105q20 -29 86 -29h27v-30h-28q-74 0 -104 36t-30 118v316zM282 690h30v-110l-30 -27v137z" />
    <glyph glyph-name="Umacron" unicode="&#x16a;" horiz-adv-x="670" 
d="M95 282v408h30v-408q0 -126 54 -192t156 -66t156 66t54 192v408h30v-408q0 -145 -61.5 -216.5t-178.5 -71.5t-178.5 71.5t-61.5 216.5zM480 815h-289v30h289v-30z" />
    <glyph glyph-name="umacron" unicode="&#x16b;" horiz-adv-x="526" 
d="M421 500h30v-500h-30v84q-43 -90 -161 -90q-87 0 -136 58.5t-49 165.5v282h30v-282q0 -93 41 -143.5t114 -50.5q161 0 161 187v289zM388 612h-249v30h249v-30z" />
    <glyph glyph-name="Ubreve" unicode="&#x16c;" horiz-adv-x="670" 
d="M95 282v408h30v-408q0 -126 54 -192t156 -66t156 66t54 192v408h30v-408q0 -145 -61.5 -216.5t-178.5 -71.5t-178.5 71.5t-61.5 216.5zM480 899h30q0 -68 -46.5 -105t-127.5 -37t-128 37.5t-47 104.5h30q10 -112 145 -112q134 0 144 112z" />
    <glyph glyph-name="ubreve" unicode="&#x16d;" horiz-adv-x="526" 
d="M421 500h30v-500h-30v84q-43 -90 -161 -90q-87 0 -136 58.5t-49 165.5v282h30v-282q0 -93 41 -143.5t114 -50.5q161 0 161 187v289zM359 690h30q-5 -108 -126 -108t-126 108h30q4 -40 26.5 -59t69.5 -19t69.5 19t26.5 59z" />
    <glyph glyph-name="Uring" unicode="&#x16e;" horiz-adv-x="670" 
d="M95 282v408h30v-408q0 -126 54 -192t156 -66t156 66t54 192v408h30v-408q0 -145 -61.5 -216.5t-178.5 -71.5t-178.5 71.5t-61.5 216.5zM226 800q0 44 31 71.5t78 27.5q48 0 79 -27.5t31 -71.5t-31 -71t-79 -27q-47 0 -78 27t-31 71zM256 800q0 -32 22 -50t57 -18
q36 0 58 18t22 50q0 33 -21.5 51t-58.5 18q-35 0 -57 -18t-22 -51z" />
    <glyph glyph-name="uring" unicode="&#x16f;" horiz-adv-x="526" 
d="M421 500h30v-500h-30v84q-43 -90 -161 -90q-87 0 -136 58.5t-49 165.5v282h30v-282q0 -93 41 -143.5t114 -50.5q161 0 161 187v289zM154 646q0 46 32 78t77 32q46 0 78 -32t32 -78q0 -45 -32 -77t-78 -32q-45 0 -77 32t-32 77zM184 646q0 -32 23.5 -55.5t55.5 -23.5
q33 0 56.5 23.5t23.5 55.5q0 34 -23 57t-57 23q-33 0 -56 -23t-23 -57z" />
    <glyph glyph-name="Uhungarumlaut" unicode="&#x170;" horiz-adv-x="670" 
d="M95 282v408h30v-408q0 -126 54 -192t156 -66t156 66t54 192v408h30v-408q0 -145 -61.5 -216.5t-178.5 -71.5t-178.5 71.5t-61.5 216.5zM252 767h-30l80 129h35zM437 767h-30l80 129h35z" />
    <glyph glyph-name="uhungarumlaut" unicode="&#x171;" horiz-adv-x="526" 
d="M421 500h30v-500h-30v84q-43 -90 -161 -90q-87 0 -136 58.5t-49 165.5v282h30v-282q0 -93 41 -143.5t114 -50.5q161 0 161 187v289zM176 567h-30l80 158h35zM361 567h-30l80 158h35z" />
    <glyph glyph-name="Uogonek" unicode="&#x172;" horiz-adv-x="670" 
d="M575 690v-408q0 -248 -177 -282l-18 -8q-19 -8 -37 -17q-40 -21 -40 -52q0 -43 68 -43q21 0 34 3l6 -29q-15 -4 -39 -4q-43 0 -71 18.5t-28 53.5q0 41 49 72q-227 8 -227 288v408h30v-408q0 -126 54 -192t156 -66t156 66t54 192v408h30z" />
    <glyph glyph-name="uogonek" unicode="&#x173;" horiz-adv-x="526" 
d="M421 500h30v-500h-13l-18 -8q-19 -8 -37 -17q-40 -21 -40 -52q0 -43 68 -43q21 0 34 3l6 -29q-15 -4 -39 -4q-43 0 -71 18.5t-28 53.5q0 32 23.5 53.5t84.5 49.5v59q-43 -90 -161 -90q-87 0 -136 58.5t-49 165.5v282h30v-282q0 -93 41 -143.5t114 -50.5q161 0 161 187
v289z" />
    <glyph glyph-name="Ydieresis" unicode="&#x178;" horiz-adv-x="516" 
d="M243 309l-233 381h35l213 -348l213 348h35l-233 -381v-309h-30v309zM385 869v-44h-44v44h44zM175 869v-44h-44v44h44z" />
    <glyph glyph-name="Zacute" unicode="&#x179;" horiz-adv-x="509" 
d="M35 660v30h429v-28l-394 -632h404v-30h-439v28l393 632h-393zM260 767h-30l65 129h35z" />
    <glyph glyph-name="zacute" unicode="&#x17a;" horiz-adv-x="449" 
d="M50 0v24l309 446h-309v30h349v-24l-309 -446h309v-30h-349zM238 567h-30l80 158h35z" />
    <glyph glyph-name="Zdotaccent" unicode="&#x17b;" horiz-adv-x="509" 
d="M35 660v30h429v-28l-394 -632h404v-30h-439v28l393 632h-393zM276 869v-44h-44v44h44z" />
    <glyph glyph-name="zdotaccent" unicode="&#x17c;" horiz-adv-x="449" 
d="M50 0v24l309 446h-309v30h349v-24l-309 -446h309v-30h-349zM246 690v-44h-44v44h44z" />
    <glyph glyph-name="Zcaron" unicode="&#x17d;" horiz-adv-x="509" 
d="M35 660v30h429v-28l-394 -632h404v-30h-439v28l393 632h-393zM89 899h44l121 -116l121 116h44l-149 -142h-32z" />
    <glyph glyph-name="zcaron" unicode="&#x17e;" horiz-adv-x="449" 
d="M50 0v24l309 446h-309v30h349v-24l-309 -446h309v-30h-349zM348 700l-108 -142h-32l-108 142h38l86 -113l86 113h38z" />
    <glyph glyph-name="uni018F" unicode="&#x18f;" horiz-adv-x="604" 
d="M304 666q-167 0 -204 -157l-29 11q20 87 82.5 131.5t150.5 44.5q240 0 240 -305v-92q0 -305 -240 -305q-121 0 -182.5 73.5t-61.5 231.5v26h454v66q0 275 -210 275zM304 24q103 0 156 65t54 206h-424q1 -141 54.5 -206t159.5 -65z" />
    <glyph glyph-name="florin" unicode="&#x192;" horiz-adv-x="480" 
d="M146 470v30h64v36q0 83 29.5 118.5t102.5 35.5h23v-30h-23q-64 0 -84 -30q-18 -28 -18 -101v-29h125v-30h-125v-506q0 -82 -30 -118t-105 -36v30q66 0 85 31q20 32 20 109v490h-64z" />
    <glyph glyph-name="uni01DD" unicode="&#x1dd;" horiz-adv-x="476" 
d="M50 208v50h346v32q0 89 -44 137.5t-132 48.5q-94 0 -142 -66l-25 17q55 79 167 79q98 0 152 -56.5t54 -159.5v-82q0 -104 -48.5 -159t-139.5 -55t-139.5 55t-48.5 159zM396 208v20h-316v-20q0 -90 41 -137t117 -47t117 47t41 137z" />
    <glyph glyph-name="Scommaaccent" unicode="&#x218;" horiz-adv-x="568" 
d="M501 583l-25 -17q-60 100 -194 100q-86 0 -134 -35.5t-48 -104.5q3 -41 13 -65t34 -41l29 -20q8 -5 39 -16l38 -12q6 -1 43 -11q82 -21 130 -46q44 -23 64 -58t23 -95q0 -70 -56 -120q-55 -48 -166 -48q-161 0 -236 113l24 17q38 -50 86.5 -75t125.5 -25q92 0 142 38
t50 100q0 73 -45 109q-44 36 -147 60q-108 25 -166 67q-55 40 -55 128q0 78 54 124t159 46q147 0 218 -113zM272 -64h30v-110l-30 -26v136z" />
    <glyph glyph-name="scommaaccent" unicode="&#x219;" horiz-adv-x="456" 
d="M391 423l-25 -17q-26 39 -58 54.5t-89 15.5q-65 0 -102 -24.5t-37 -73.5q0 -40 30 -70q12 -10 35 -18q31 -11 84 -20q91 -17 134 -49t43 -96q0 -61 -43.5 -96t-134.5 -35q-126 0 -183 83l26 18q27 -38 63 -54.5t95 -16.5q147 0 147 101q0 49 -40 75t-129 43
q-82 15 -119.5 44.5t-37.5 90.5q0 60 44.5 94t124.5 34q122 0 172 -83zM216 -64h30v-110l-30 -27v137z" />
    <glyph glyph-name="Tcommaaccent" unicode="&#x21a;" horiz-adv-x="516" 
d="M15 660v30h486v-30h-228v-660h-30v660h-228zM243 -64h30v-110l-30 -27v137z" />
    <glyph glyph-name="tcommaaccent" unicode="&#x21b;" horiz-adv-x="302" 
d="M95 470h-64v30h64v110h30v-110h132v-30h-132v-306q0 -76 19 -105q20 -29 86 -29h27v-30h-28q-74 0 -104 36t-30 118v316zM161 -64h30v-110l-30 -27v137z" />
    <glyph glyph-name="uni0237" unicode="&#x237;" horiz-adv-x="235" 
d="M105 500h30v-536q0 -82 -30 -118t-105 -36v30q65 0 85 29t20 95v536z" />
    <glyph glyph-name="uni0259" unicode="&#x259;" horiz-adv-x="476" 
d="M50 208v50h346v32q0 89 -44 137.5t-132 48.5q-94 0 -142 -66l-25 17q55 79 167 79q98 0 152 -56.5t54 -159.5v-82q0 -104 -48.5 -159t-139.5 -55t-139.5 55t-48.5 159zM396 208v20h-316v-20q0 -90 41 -137t117 -47t117 47t41 137z" />
    <glyph glyph-name="afii57929" unicode="&#x2bc;" horiz-adv-x="100" 
d="M40 500h30v-160l-30 -26v186z" />
    <glyph glyph-name="circumflex" unicode="&#x2c6;" horiz-adv-x="372" 
d="M62 558l108 142h32l108 -142h-38l-86 113l-86 -113h-38z" />
    <glyph glyph-name="caron" unicode="&#x2c7;" horiz-adv-x="371" 
d="M309 700l-108 -142h-32l-108 142h38l86 -113l86 113h38z" />
    <glyph glyph-name="breve" unicode="&#x2d8;" horiz-adv-x="374" 
d="M283 690h30q-5 -108 -126 -108t-126 108h30q4 -40 26.5 -59t69.5 -19t69.5 19t26.5 59z" />
    <glyph glyph-name="dotaccent" unicode="&#x2d9;" horiz-adv-x="268" 
d="M156 690v-44h-44v44h44z" />
    <glyph glyph-name="ring" unicode="&#x2da;" horiz-adv-x="358" 
d="M69 646q0 46 32 78t77 32q46 0 78 -32t32 -78q0 -45 -32 -77t-78 -32q-45 0 -77 32t-32 77zM99 646q0 -32 23.5 -55.5t55.5 -23.5q34 0 57 23.5t23 55.5q0 34 -23 57t-57 23q-32 0 -55.5 -23t-23.5 -57z" />
    <glyph glyph-name="ogonek" unicode="&#x2db;" horiz-adv-x="320" 
d="M210 30l6 -30l-18 -8q-19 -8 -37 -17q-40 -21 -40 -52q0 -43 68 -43q21 0 34 3l6 -29q-15 -4 -39 -4q-43 0 -71 18.5t-28 53.5q0 33 25.5 55t93.5 53z" />
    <glyph glyph-name="tilde" unicode="&#x2dc;" horiz-adv-x="412" 
d="M265 608q-26 0 -61 16q-36 17 -55 17q-38 0 -71 -33l-23 19q42 44 94 44q22 0 58 -17q35 -16 57 -16q42 0 70 33l23 -19q-38 -44 -92 -44z" />
    <glyph glyph-name="hungarumlaut" unicode="&#x2dd;" horiz-adv-x="418" 
d="M89 567h-30l80 158h35zM274 567h-30l80 158h35z" />
    <glyph glyph-name="acutecomb" unicode="&#x301;" horiz-adv-x="0" 
d="M-243 567h-30l80 158h35z" />
    <glyph glyph-name="uni0394" unicode="&#x2206;" horiz-adv-x="506" 
d="M476 0h-472l226 690h20zM240 624l-195 -594h390z" />
    <glyph glyph-name="uni0394" unicode="&#x394;" horiz-adv-x="506" 
d="M476 0h-472l226 690h20zM240 624l-195 -594h390z" />
    <glyph glyph-name="uni03A9" unicode="&#x2126;" horiz-adv-x="620" 
d="M434 30h116v-30h-184v30q154 36 154 259v112q0 265 -210 265t-210 -265v-112q0 -223 154 -259v-30h-184v30h116q-63 33 -89.5 93t-26.5 166v112q0 295 240 295t240 -295v-112q0 -106 -26.5 -166t-89.5 -93z" />
    <glyph glyph-name="uni03A9" unicode="&#x3a9;" horiz-adv-x="620" 
d="M434 30h116v-30h-184v30q154 36 154 259v112q0 265 -210 265t-210 -265v-112q0 -223 154 -259v-30h-184v30h116q-63 33 -89.5 93t-26.5 166v112q0 295 240 295t240 -295v-112q0 -106 -26.5 -166t-89.5 -93z" />
    <glyph glyph-name="pi" unicode="&#x3c0;" horiz-adv-x="610" 
d="M0 470v30h580v-30h-105v-311q0 -71 20 -102q19 -30 85 -30v-30q-75 0 -105 36t-30 118v319h-316v-470h-30v470h-99z" />
    <glyph glyph-name="afii10023" unicode="&#x401;" horiz-adv-x="546" 
d="M95 0v690h396v-30h-366v-288h336v-30h-336v-312h366v-30h-396zM420 869v-44h-44v44h44zM210 869v-44h-44v44h44z" />
    <glyph glyph-name="afii10051" unicode="&#x402;" horiz-adv-x="727" 
d="M615 157v47q0 116 -42 157q-41 41 -133 41q-119 0 -167 -58v-344h-30v660h-228v30h486v-30h-228v-275q20 19 66.5 33t100.5 14q111 0 158 -53t47 -175v-47q0 -94 -40 -125q-40 -32 -121 -32h-21v30h21q75 0 103 27.5t28 99.5z" />
    <glyph glyph-name="afii10052" unicode="&#x403;" 
d="M95 690h376v-30h-346v-660h-30v690zM280 767h-30l65 129h35z" />
    <glyph glyph-name="afii10053" unicode="&#x404;" horiz-adv-x="583" 
d="M538 489h-30q-32 177 -208 177q-105 0 -157.5 -65.5t-52.5 -209.5v-29h307v-30h-307v-33q0 -144 52.5 -209.5t157.5 -65.5q84 0 138 47t70 134h29q-15 -108 -82 -160q-66 -51 -155 -51q-240 0 -240 305v92q0 305 240 305q91 0 157 -51q66 -49 81 -156z" />
    <glyph glyph-name="afii10054" unicode="&#x405;" horiz-adv-x="568" 
d="M501 583l-25 -17q-60 100 -194 100q-86 0 -134 -35.5t-48 -104.5q3 -41 13 -65t34 -41l29 -20q8 -5 39 -16l38 -12q6 -1 43 -11q82 -21 130 -46q44 -23 64 -58t23 -95q0 -70 -56 -120q-55 -48 -166 -48q-161 0 -236 113l24 17q38 -50 86.5 -75t125.5 -25q92 0 142 38
t50 100q0 73 -45 109q-44 36 -147 60q-108 25 -166 67q-55 40 -55 128q0 78 54 124t159 46q147 0 218 -113z" />
    <glyph glyph-name="afii10055" unicode="&#x406;" horiz-adv-x="240" 
d="M142 869v-44h-44v44h44zM105 690h30v-690h-30v690z" />
    <glyph glyph-name="afii10056" unicode="&#x407;" horiz-adv-x="276" 
d="M125 690v-690h-30v690h30zM207 869v-44h-44v44h44zM57 869v-44h-44v44h44z" />
    <glyph glyph-name="afii10057" unicode="&#x408;" horiz-adv-x="505" 
d="M15 80l27 14q52 -70 146 -70q100 0 146 64.5t46 198.5v403h30v-404q0 -292 -222 -292q-119 0 -173 86z" />
    <glyph glyph-name="afii10058" unicode="&#x409;" horiz-adv-x="1019" 
d="M154 532v158h394v-297h183q122 0 180 -58t58 -139t-58 -139q-59 -57 -180 -57h-213v660h-334v-128q0 -368 -36 -454q-35 -80 -118 -84v30q68 10 94 78q30 82 30 430zM548 363v-333h183q101 0 154.5 44.5t53.5 121.5t-54 122t-154 45h-183z" />
    <glyph glyph-name="afii10059" unicode="&#x40a;" horiz-adv-x="1014" 
d="M95 690h30v-297h388v297h30v-297h183q122 0 180 -58t58 -139t-58 -139q-58 -57 -180 -57h-213v363h-388v-363h-30v690zM543 363v-333h183q101 0 154.5 44.5t53.5 121.5t-54 122t-154 45h-183z" />
    <glyph glyph-name="afii10060" unicode="&#x40b;" horiz-adv-x="727" 
d="M15 660v30h486v-30h-228v-306q26 35 75 56.5t115 21.5q118 0 163 -58t45 -180v-194h-30v194q0 115 -40 161q-41 47 -138 47q-136 0 -190 -98v-304h-30v660h-228z" />
    <glyph glyph-name="afii10061" unicode="&#x40c;" horiz-adv-x="598" 
d="M323 352l260 -352h-37l-245 332h-176v-332h-30v690h30v-328h169l212 328h36zM282 767h-30l65 129h35z" />
    <glyph glyph-name="afii10062" unicode="&#x40e;" horiz-adv-x="572" 
d="M431 899h30q0 -142 -164 -142q-165 0 -165 142h30q0 -112 135 -112q134 0 134 112zM301 152l220 538h32l-235 -574q-30 -72 -67 -97t-120 -25v30q69 0 100 18q31 20 54 72l-255 576h33z" />
    <glyph glyph-name="afii10145" unicode="&#x40f;" horiz-adv-x="638" 
d="M334 0v-130h-30v130h-209v690h30v-660h388v660h30v-690h-209z" />
    <glyph glyph-name="afii10017" unicode="&#x410;" horiz-adv-x="522" 
d="M107 178l-60 -178h-32l232 690h28l232 -690h-32l-60 178h-308zM405 208l-144 427l-144 -427h288z" />
    <glyph glyph-name="afii10018" unicode="&#x411;" horiz-adv-x="596" 
d="M95 690h403v-30h-373v-267h183q122 0 180 -58t58 -139t-58 -139q-58 -57 -180 -57h-213v690zM308 363h-183v-333h183q101 0 154.5 44.5t53.5 121.5t-54 122t-154 45z" />
    <glyph glyph-name="afii10019" unicode="&#x412;" horiz-adv-x="596" 
d="M95 0v690h198q231 0 231 -173q0 -58 -35 -101t-89 -56q69 -16 107.5 -60.5t38.5 -112.5q0 -76 -56 -132q-55 -55 -172 -55h-223zM297 344h-172v-314h193q94 0 146 43t52 114q0 157 -219 157zM293 660h-168v-286h188q87 0 134 40t47 103q0 143 -201 143z" />
    <glyph glyph-name="afii10020" unicode="&#x413;" 
d="M95 690h376v-30h-346v-660h-30v690z" />
    <glyph glyph-name="afii10021" unicode="&#x414;" horiz-adv-x="666" 
d="M49 0v-130h-29v160h37q20 14 41.5 48.5t32.5 70.5q33 105 33 335v206h394v-660h78v-160h-30v130h-557zM150 114q-21 -53 -49 -84h427v630h-334v-176q0 -259 -44 -370z" />
    <glyph glyph-name="afii10022" unicode="&#x415;" horiz-adv-x="546" 
d="M95 0v690h396v-30h-366v-288h336v-30h-336v-312h366v-30h-396z" />
    <glyph glyph-name="afii10024" unicode="&#x416;" horiz-adv-x="858" 
d="M281 332l-229 -332h-37l241 349l-200 341h35l193 -328h130v328h30v-328h129l194 328h35l-201 -341l242 -349h-37l-229 332h-133v-332h-30v332h-133z" />
    <glyph glyph-name="afii10025" unicode="&#x417;" horiz-adv-x="547" 
d="M262 348h-62v30h62q183 0 183 144q0 65 -44.5 104.5t-128.5 39.5q-72 0 -126 -42q-53 -42 -63 -112h-31q11 85 75 134q65 50 145 50q95 0 149 -47t54 -127q0 -116 -114 -159q62 -15 99 -62.5t37 -114.5q0 -35 -12 -67.5t-36.5 -61t-68.5 -46t-102 -17.5q-193 0 -238 196
h31q40 -166 207 -166q89 0 139 44.5t50 117.5q0 162 -205 162z" />
    <glyph glyph-name="afii10026" unicode="&#x418;" horiz-adv-x="656" 
d="M95 0v690h30v-632l408 632h28v-690h-30v632l-408 -632h-28z" />
    <glyph glyph-name="afii10027" unicode="&#x419;" horiz-adv-x="656" 
d="M447 899h30q0 -130 -149 -130q-150 0 -150 130h30q0 -100 120 -100q119 0 119 100zM95 0v690h30v-632l408 632h28v-690h-30v632l-408 -632h-28z" />
    <glyph glyph-name="afii10028" unicode="&#x41a;" horiz-adv-x="598" 
d="M323 352l260 -352h-37l-245 332h-176v-332h-30v690h30v-328h169l212 328h36z" />
    <glyph glyph-name="afii10029" unicode="&#x41b;" horiz-adv-x="643" 
d="M154 532v158h394v-690h-30v660h-334v-128q0 -368 -36 -454q-35 -80 -118 -84v30q68 10 94 78q30 82 30 430z" />
    <glyph glyph-name="afii10030" unicode="&#x41c;" horiz-adv-x="752" 
d="M95 690h28l253 -488l253 488h28v-690h-30v621l-237 -457h-28l-237 457v-621h-30v690z" />
    <glyph glyph-name="afii10031" unicode="&#x41d;" horiz-adv-x="638" 
d="M95 690h30v-316h388v316h30v-690h-30v344h-388v-344h-30v690z" />
    <glyph glyph-name="afii10032" unicode="&#x41e;" horiz-adv-x="600" 
d="M540 391v-92q0 -151 -63 -228t-177 -77t-177 77t-63 228v92q0 151 63 228t177 77t177 -77t63 -228zM90 391v-92q0 -140 55 -207.5t155 -67.5t155 67.5t55 207.5v92q0 140 -55 207.5t-155 67.5t-155 -67.5t-55 -207.5z" />
    <glyph glyph-name="afii10033" unicode="&#x41f;" horiz-adv-x="638" 
d="M95 0v690h448v-690h-30v660h-388v-660h-30z" />
    <glyph glyph-name="afii10034" unicode="&#x420;" horiz-adv-x="586" 
d="M295 283h-170v-283h-30v690h200q119 0 185 -54t66 -150t-66 -149.5t-185 -53.5zM125 660v-347h170q109 0 165 44.5t56 128.5q0 85 -56 129.5t-165 44.5h-170z" />
    <glyph glyph-name="afii10035" unicode="&#x421;" horiz-adv-x="583" 
d="M538 489h-30q-32 177 -208 177q-105 0 -157.5 -65.5t-52.5 -209.5v-92q0 -144 52.5 -209.5t157.5 -65.5q84 0 138 47t70 134h29q-15 -108 -82 -160q-66 -51 -155 -51q-240 0 -240 305v92q0 305 240 305q91 0 157 -51q66 -49 81 -156z" />
    <glyph glyph-name="afii10036" unicode="&#x422;" horiz-adv-x="516" 
d="M15 660v30h486v-30h-228v-660h-30v660h-228z" />
    <glyph glyph-name="afii10037" unicode="&#x423;" horiz-adv-x="572" 
d="M301 152l220 538h32l-235 -574q-30 -72 -67 -97t-120 -25v30q69 0 100 18q31 20 54 72l-255 576h33z" />
    <glyph glyph-name="afii10038" unicode="&#x424;" horiz-adv-x="746" 
d="M60 319v52q0 155 88 213q80 52 210 52v54h30v-54q130 0 209 -52q89 -58 89 -213v-52q0 -155 -89 -213q-79 -52 -209 -52v-54h-30v54q-130 0 -210 52q-88 58 -88 213zM388 606v-522q88 0 149 25q119 52 119 210v52q0 144 -84 193q-70 42 -184 42zM90 371v-52
q0 -112 57 -169q25 -24 62 -41q61 -25 149 -25v522q-113 0 -185 -42q-83 -50 -83 -193z" />
    <glyph glyph-name="afii10039" unicode="&#x425;" horiz-adv-x="552" 
d="M276 331l-206 -331h-36l224 359l-207 331h36l189 -304l189 304h36l-207 -331l224 -359h-36z" />
    <glyph glyph-name="afii10040" unicode="&#x426;" horiz-adv-x="651" 
d="M95 690h30v-660h388v660h30v-660h78v-160h-30v130h-496v690z" />
    <glyph glyph-name="afii10041" unicode="&#x427;" horiz-adv-x="573" 
d="M40 690h30v-172q0 -119 43 -163q43 -45 152 -45q123 0 183 88v292h30v-690h-30v350q-61 -70 -183 -70q-126 0 -176 56q-49 55 -49 182v172z" />
    <glyph glyph-name="afii10042" unicode="&#x428;" horiz-adv-x="840" 
d="M95 690h30v-660h280v660h30v-660h280v660h30v-690h-650v690z" />
    <glyph glyph-name="afii10043" unicode="&#x429;" horiz-adv-x="853" 
d="M95 690h30v-660h280v660h30v-660h280v660h30v-660h78v-160h-30v130h-698v690z" />
    <glyph glyph-name="afii10044" unicode="&#x42a;" horiz-adv-x="664" 
d="M0 660v30h193v-297h183q122 0 180 -58t58 -139t-58 -139q-58 -57 -180 -57h-213v660h-163zM376 363h-183v-333h183q101 0 154.5 44.5t53.5 121.5t-54 122t-154 45z" />
    <glyph glyph-name="afii10045" unicode="&#x42b;" horiz-adv-x="740" 
d="M95 0v690h30v-297h153q122 0 180 -58t58 -139t-58 -139q-58 -57 -180 -57h-183zM278 363h-153v-333h153q101 0 154.5 44.5t53.5 121.5t-54 122t-154 45zM615 690h30v-690h-30v690z" />
    <glyph glyph-name="afii10046" unicode="&#x42c;" horiz-adv-x="596" 
d="M95 0v690h30v-297h183q122 0 180 -58t58 -139t-58 -139q-58 -57 -180 -57h-213zM308 363h-183v-333h183q101 0 154.5 44.5t53.5 121.5t-54 122t-154 45z" />
    <glyph glyph-name="afii10047" unicode="&#x42d;" horiz-adv-x="583" 
d="M493 332h-307v30h307v29q0 144 -52.5 209.5t-157.5 65.5q-177 0 -208 -177h-30q15 107 81 156q66 51 157 51q240 0 240 -305v-92q0 -305 -240 -305q-89 0 -156 51q-66 53 -81 160h29q16 -87 70 -134t138 -47q105 0 157.5 65.5t52.5 209.5v33z" />
    <glyph glyph-name="afii10048" unicode="&#x42e;" horiz-adv-x="788" 
d="M728 401v-112q0 -295 -225 -295t-225 295v53h-153v-342h-30v690h30v-318h153v29q0 295 225 295t225 -295zM308 401v-112q0 -265 195 -265t195 265v112q0 265 -195 265t-195 -265z" />
    <glyph glyph-name="afii10049" unicode="&#x42f;" horiz-adv-x="604" 
d="M237 299l-163 -299h-34l166 305q-148 37 -148 187q0 96 63 147t178 51h210v-690h-30v295h-180q-39 0 -62 4zM299 325h180v335h-180q-211 0 -211 -168q0 -167 211 -167z" />
    <glyph glyph-name="afii10065" unicode="&#x430;" 
d="M50 141q0 63 41 100.5t112 37.5h173v68q0 74 -31 101q-29 28 -109 28q-38 0 -57 -3q-53 -6 -85 -60l-24 17q24 42 62.5 59t103.5 17q92 0 131 -35t39 -124v-347h-30v74q-38 -80 -157 -80q-81 0 -125 38t-44 109zM376 179v70h-173q-63 0 -93 -29t-30 -79q0 -117 139 -117
q74 0 115.5 38.5t41.5 116.5z" />
    <glyph glyph-name="afii10066" unicode="&#x431;" horiz-adv-x="497" 
d="M446 290v-80q0 -104 -51.5 -160t-146.5 -56t-146.5 56t-51.5 160v88q0 199 44 292q44 90 152 99l98 8q34 3 53 25l19 -24q-17 -26 -61 -30l-94 -7q-60 -4 -95.5 -28t-55.5 -79q-18 -46 -29 -141q47 93 167 93q95 0 146.5 -56t51.5 -160zM416 210v80q0 186 -168 186
q-81 0 -124.5 -47t-43.5 -137v-82q0 -186 168 -186t168 186z" />
    <glyph glyph-name="afii10067" unicode="&#x432;" horiz-adv-x="477" 
d="M75 0v500h155q85 0 131.5 -32.5t46.5 -92.5q0 -80 -79 -108q50 -11 79 -44.5t29 -82.5q0 -64 -46.5 -102t-134.5 -38h-181zM235 250h-130v-220h142q160 0 160 110t-172 110zM217 470h-112v-190h123q150 0 150 95q0 47 -37.5 71t-123.5 24z" />
    <glyph glyph-name="afii10068" unicode="&#x433;" horiz-adv-x="359" 
d="M75 500h284v-30h-254v-470h-30v500z" />
    <glyph glyph-name="afii10069" unicode="&#x434;" horiz-adv-x="517" 
d="M57 0v-117h-30v147h34q20 16 40 66q29 75 29 237v167h302v-470h70v-147h-30v117h-415zM124 73q-12 -27 -25 -43h303v440h-242v-151q0 -162 -36 -246z" />
    <glyph glyph-name="afii10070" unicode="&#x435;" 
d="M426 292v-50h-346v-32q0 -89 44 -137.5t132 -48.5q94 0 142 66l25 -17q-55 -79 -167 -79q-98 0 -152 56.5t-54 159.5v82q0 104 48.5 159t139.5 55t139.5 -55t48.5 -159zM80 292v-20h316v20q0 184 -158 184q-76 0 -117 -47t-41 -137z" />
    <glyph glyph-name="afii10072" unicode="&#x436;" horiz-adv-x="650" 
d="M428 272l144 228h35l-153 -243l176 -257h-37l-165 242h-88v-242h-30v242h-88l-165 -242h-37l176 257l-153 243h35l144 -228h88v228h30v-228h88z" />
    <glyph glyph-name="afii10073" unicode="&#x437;" horiz-adv-x="448" 
d="M207 476q-93 0 -140 -62l-25 17q56 75 165 75q74 0 119 -35.5t45 -90.5q0 -76 -83 -109q47 -13 74.5 -46.5t27.5 -82.5q0 -64 -47.5 -106t-132.5 -42q-113 0 -168 79l25 17q48 -66 143 -66q67 0 108.5 32t41.5 86t-39.5 83t-112.5 29h-67v30h67q62 0 97.5 24.5t35.5 71.5
q0 43 -35 69.5t-99 26.5z" />
    <glyph glyph-name="afii10074" unicode="&#x438;" horiz-adv-x="536" 
d="M75 500h30v-447l327 447h29v-500h-30v448l-327 -448h-29v500z" />
    <glyph glyph-name="afii10075" unicode="&#x439;" horiz-adv-x="536" 
d="M364 700h30q0 -118 -126 -118t-126 118h30q0 -88 96 -88t96 88zM75 500h30v-447l327 447h29v-500h-30v448l-327 -448h-29v500z" />
    <glyph glyph-name="afii10076" unicode="&#x43a;" horiz-adv-x="478" 
d="M233 273l171 227h38l-184 -241l200 -259h-38l-187 243h-128v-243h-30v500h30v-227h128z" />
    <glyph glyph-name="afii10077" unicode="&#x43b;" horiz-adv-x="510" 
d="M119 300v200h316v-500h-30v470h-256v-173q0 -144 -25 -213q-29 -84 -94 -95v29q52 19 70 88q19 69 19 194z" />
    <glyph glyph-name="afii10078" unicode="&#x43c;" horiz-adv-x="636" 
d="M75 500h29l214 -365l214 365h29v-500h-30v437l-198 -336h-30l-198 336v-437h-30v500z" />
    <glyph glyph-name="afii10079" unicode="&#x43d;" horiz-adv-x="526" 
d="M75 500h30v-231h316v231h30v-500h-30v239h-316v-239h-30v500z" />
    <glyph glyph-name="afii10080" unicode="&#x43e;" horiz-adv-x="496" 
d="M446 292v-84q0 -104 -51 -159t-147 -55t-147 55t-51 159v84q0 104 51 159t147 55t147 -55t51 -159zM416 208v84q0 184 -168 184t-168 -184v-84q0 -184 168 -184t168 184z" />
    <glyph glyph-name="afii10081" unicode="&#x43f;" horiz-adv-x="526" 
d="M75 0v500h376v-500h-30v470h-316v-470h-30z" />
    <glyph glyph-name="afii10082" unicode="&#x440;" horiz-adv-x="511" 
d="M461 292v-82q0 -216 -190 -216q-125 0 -166 81v-265h-30v690h30v-75q41 81 166 81q190 0 190 -214zM271 24q160 0 160 186v82q0 184 -160 184q-89 0 -127 -43.5t-39 -133.5v-90q0 -94 37.5 -139.5t128.5 -45.5z" />
    <glyph glyph-name="afii10083" unicode="&#x441;" horiz-adv-x="443" 
d="M398 90l25 -17q-55 -79 -167 -79q-99 0 -152.5 55.5t-53.5 160.5v82q0 104 53.5 159t152.5 55q110 0 165 -75l-25 -17q-47 62 -140 62q-85 0 -130.5 -47t-45.5 -137v-82q0 -89 44 -137.5t132 -48.5q94 0 142 66z" />
    <glyph glyph-name="afii10084" unicode="&#x442;" horiz-adv-x="407" 
d="M10 470v30h387v-30h-179v-470h-30v470h-178z" />
    <glyph glyph-name="afii10085" unicode="&#x443;" horiz-adv-x="452" 
d="M74 -190v30q67 0 93 35q26 31 54 109l2 7l-213 509h33l150 -360l46 -105l167 465h31l-187 -523q-32 -94 -68 -130q-37 -37 -108 -37z" />
    <glyph glyph-name="afii10086" unicode="&#x444;" horiz-adv-x="648" 
d="M309 690h30v-184q123 0 191 -54.5t68 -159.5v-82q0 -104 -68.5 -160t-190.5 -56v-184h-30v184q-122 0 -190.5 56t-68.5 160v82q0 105 68 159.5t191 54.5v184zM568 210v82q0 184 -229 184v-452q113 0 171 48t58 138zM80 292v-82q0 -90 58 -138t171 -48v452
q-229 0 -229 -184z" />
    <glyph glyph-name="afii10087" unicode="&#x445;" horiz-adv-x="426" 
d="M230 257l176 -257h-37l-156 231l-156 -231h-37l176 257l-166 243h37l146 -217l146 217h37z" />
    <glyph glyph-name="afii10088" unicode="&#x446;" horiz-adv-x="536" 
d="M521 30v-147h-30v117h-416v500h30v-470h316v470h30v-470h70z" />
    <glyph glyph-name="afii10089" unicode="&#x447;" horiz-adv-x="467" 
d="M40 500h30v-126q0 -78 36.5 -109.5t109.5 -31.5q107 0 146 50v217h30v-500h-30v244q-44 -41 -146 -41q-87 0 -131.5 40.5t-44.5 130.5v126z" />
    <glyph glyph-name="afii10090" unicode="&#x448;" horiz-adv-x="690" 
d="M615 500v-500h-540v500h30v-470h225v470h30v-470h225v470h30z" />
    <glyph glyph-name="afii10091" unicode="&#x449;" horiz-adv-x="700" 
d="M685 30v-147h-30v117h-580v500h30v-470h225v470h30v-470h225v470h30v-470h70z" />
    <glyph glyph-name="afii10092" unicode="&#x44a;" horiz-adv-x="524" 
d="M157 500v-206h151q90 0 135.5 -39.5t45.5 -107.5t-45.5 -107.5t-135.5 -39.5h-181v470h-147v30h177zM308 264h-151v-234h151q151 0 151 117t-151 117z" />
    <glyph glyph-name="afii10093" unicode="&#x44b;" horiz-adv-x="599" 
d="M105 500v-206h131q90 0 135.5 -39.5t45.5 -107.5t-45.5 -107.5t-135.5 -39.5h-161v500h30zM236 264h-131v-234h131q151 0 151 117t-151 117zM494 0v500h30v-500h-30z" />
    <glyph glyph-name="afii10094" unicode="&#x44c;" horiz-adv-x="472" 
d="M105 500v-206h151q90 0 135.5 -39.5t45.5 -107.5t-45.5 -107.5t-135.5 -39.5h-181v500h30zM256 264h-151v-234h151q151 0 151 117t-151 117z" />
    <glyph glyph-name="afii10095" unicode="&#x44d;" horiz-adv-x="459" 
d="M379 239h-237v30h237v23q0 90 -45.5 137t-130.5 47q-93 0 -140 -62l-25 17q56 75 165 75q99 0 152.5 -55t53.5 -159v-82q0 -105 -53.5 -160.5t-152.5 -55.5q-112 0 -167 79l25 17q48 -66 142 -66q88 0 132 48.5t44 137.5v29z" />
    <glyph glyph-name="afii10096" unicode="&#x44e;" horiz-adv-x="656" 
d="M240 210v29h-135v-239h-30v500h30v-231h135v23q0 104 47.5 159t135.5 55t135.5 -55t47.5 -159v-82q0 -106 -47 -161t-136 -55t-136 55t-47 161zM576 208v84q0 184 -153 184t-153 -184v-84q0 -184 153 -184t153 184z" />
    <glyph glyph-name="afii10097" unicode="&#x44f;" horiz-adv-x="500" 
d="M425 500v-500h-30v207h-144q-27 0 -34 1l-136 -208h-36l139 213q-59 14 -90 50.5t-31 89.5q0 67 48.5 107t139.5 40h174zM251 237h144v233h-144q-76 0 -117 -31t-41 -86t41 -85.5t117 -30.5z" />
    <glyph glyph-name="afii10071" unicode="&#x451;" 
d="M426 292v-50h-346v-32q0 -89 44 -137.5t132 -48.5q94 0 142 66l25 -17q-55 -79 -167 -79q-98 0 -152 56.5t-54 159.5v82q0 104 48.5 159t139.5 55t139.5 -55t48.5 -159zM80 292v-20h316v20q0 184 -158 184q-76 0 -117 -47t-41 -137zM375 690v-44h-44v44h44zM165 690v-44
h-44v44h44z" />
    <glyph glyph-name="afii10099" unicode="&#x452;" horiz-adv-x="526" 
d="M75 579h-94v30h94v81h30v-81h195v-30h-195v-215q19 41 63 65.5t101 24.5q85 0 133.5 -58.5t48.5 -165.5v-266q0 -82 -30 -118t-105 -36v30h8q55 0 76 28t21 96v266q0 94 -39.5 144t-112.5 50q-82 0 -123 -48t-41 -137v-239h-30v579z" />
    <glyph glyph-name="afii10100" unicode="&#x453;" horiz-adv-x="359" 
d="M75 500h284v-30h-254v-470h-30v500zM211 567h-30l80 158h35z" />
    <glyph glyph-name="afii10101" unicode="&#x454;" horiz-adv-x="459" 
d="M398 90l25 -17q-55 -79 -167 -79q-99 0 -152.5 55.5t-53.5 160.5v82q0 104 53.5 159t152.5 55q110 0 165 -75l-25 -17q-47 62 -140 62q-85 0 -130.5 -47t-45.5 -137v-23h237v-30h-237v-29q0 -89 44 -137.5t132 -48.5q94 0 142 66z" />
    <glyph glyph-name="afii10102" unicode="&#x455;" horiz-adv-x="456" 
d="M391 423l-25 -17q-26 39 -58 54.5t-89 15.5q-65 0 -102 -24.5t-37 -73.5q0 -40 30 -70q12 -10 35 -18q31 -11 84 -20q91 -17 134 -49t43 -96q0 -61 -43.5 -96t-134.5 -35q-126 0 -183 83l26 18q27 -38 63 -54.5t95 -16.5q147 0 147 101q0 49 -40 75t-129 43
q-82 15 -119.5 44.5t-37.5 90.5q0 60 44.5 94t124.5 34q122 0 172 -83z" />
    <glyph glyph-name="afii10103" unicode="&#x456;" horiz-adv-x="210" 
d="M120 0h-30v500h30v-500zM127 646h-44v44h44v-44z" />
    <glyph glyph-name="afii10104" unicode="&#x457;" horiz-adv-x="210" 
d="M192 690v-44h-44v44h44zM62 690v-44h-44v44h44zM120 0h-30v500h30v-500z" />
    <glyph glyph-name="afii10105" unicode="&#x458;" horiz-adv-x="215" 
d="M105 500h30v-536q0 -82 -30 -118t-105 -36v30q66 0 85 31q20 32 20 109v520zM142 646h-44v44h44v-44z" />
    <glyph glyph-name="afii10106" unicode="&#x459;" horiz-adv-x="802" 
d="M435 500v-206h151q90 0 135.5 -39.5t45.5 -107.5t-45.5 -107.5t-135.5 -39.5h-181v470h-256v-173q0 -144 -25 -213q-29 -84 -94 -95v29q52 19 70 88q19 69 19 194v200h316zM586 264h-151v-234h151q151 0 151 117t-151 117z" />
    <glyph glyph-name="afii10107" unicode="&#x45a;" horiz-adv-x="818" 
d="M75 500h30v-206h316v206h30v-206h151q90 0 135.5 -39.5t45.5 -107.5t-45.5 -107.5t-135.5 -39.5h-181v264h-316v-264h-30v500zM602 264h-151v-234h151q151 0 151 117t-151 117z" />
    <glyph glyph-name="afii10108" unicode="&#x45b;" horiz-adv-x="526" 
d="M75 579h-94v30h94v81h30v-81h195v-30h-195v-205q44 90 161 90q87 0 136 -58.5t49 -165.5v-240h-30v240q0 93 -41 143.5t-114 50.5q-161 0 -161 -185v-249h-30v579z" />
    <glyph glyph-name="afii10109" unicode="&#x45c;" horiz-adv-x="478" 
d="M233 273l171 227h38l-184 -241l200 -259h-38l-187 243h-128v-243h-30v500h30v-227h128zM237 567h-30l80 158h35z" />
    <glyph glyph-name="afii10110" unicode="&#x45e;" horiz-adv-x="452" 
d="M74 -190v30q67 0 93 35q26 31 54 109l2 7l-213 509h33l150 -360l46 -105l167 465h31l-187 -523q-32 -94 -68 -130q-37 -37 -108 -37zM323 690h30q0 -118 -126 -118t-126 118h30q0 -88 96 -88t96 88z" />
    <glyph glyph-name="afii10193" unicode="&#x45f;" horiz-adv-x="526" 
d="M278 0v-117h-30v117h-173v500h30v-470h316v470h30v-500h-173z" />
    <glyph glyph-name="afii10146" unicode="&#x462;" horiz-adv-x="596" 
d="M95 586v104h30v-104h234v-30h-234v-163h183q122 0 180 -58t58 -139t-58 -139q-58 -57 -180 -57h-213v556h-105v30h105zM308 363h-183v-333h183q101 0 154.5 44.5t53.5 121.5t-54 122t-154 45z" />
    <glyph glyph-name="afii10194" unicode="&#x463;" horiz-adv-x="472" 
d="M75 470h-94v30h94v190h30v-190h165v-30h-165v-176h151q90 0 135.5 -39.5t45.5 -107.5t-45.5 -107.5t-135.5 -39.5h-181v470zM256 264h-151v-234h151q151 0 151 117t-151 117z" />
    <glyph glyph-name="afii10147" unicode="&#x472;" horiz-adv-x="600" 
d="M540 391v-92q0 -151 -63 -228t-177 -77t-177 77t-63 228v92q0 151 63 228t177 77t177 -77t63 -228zM510 299v45h-420v-45q0 -140 55 -207.5t155 -67.5t155 67.5t55 207.5zM90 391v-17h420v17q0 140 -55 207.5t-155 67.5t-155 -67.5t-55 -207.5z" />
    <glyph glyph-name="afii10195" unicode="&#x473;" horiz-adv-x="496" 
d="M446 292v-84q0 -104 -51 -159t-147 -55t-147 55t-51 159v84q0 104 51 159t147 55t147 -55t51 -159zM416 208v31h-336v-31q0 -184 168 -184t168 184zM80 292v-23h336v23q0 184 -168 184t-168 -184z" />
    <glyph glyph-name="afii10148" unicode="&#x474;" horiz-adv-x="601" 
d="M283 0l-250 690h32l232 -641l187 518q25 71 47 99t69 28v-30q-30 0 -45.5 -16t-31.5 -62l-212 -586h-28z" />
    <glyph glyph-name="afii10196" unicode="&#x475;" horiz-adv-x="458" 
d="M458 506v-30q-18 0 -30 -14t-25 -50l-160 -412h-28l-205 500h32l187 -455l143 372q21 55 36 71q15 18 50 18z" />
    <glyph glyph-name="afii10050" unicode="&#x490;" 
d="M95 690h346v108h30v-138h-346v-660h-30v690z" />
    <glyph glyph-name="afii10098" unicode="&#x491;" horiz-adv-x="359" 
d="M75 500h254v93h30v-123h-254v-470h-30v500z" />
    <glyph glyph-name="uni0492" unicode="&#x492;" 
d="M95 690h376v-30h-346v-288h204v-30h-204v-342h-30v342h-115v30h115v318z" />
    <glyph glyph-name="uni0493" unicode="&#x493;" horiz-adv-x="369" 
d="M85 500h284v-30h-254v-201h147v-30h-147v-239h-30v239h-106v30h106v231z" />
    <glyph glyph-name="uni0496" unicode="&#x496;" horiz-adv-x="907" 
d="M281 332l-229 -332h-37l241 349l-200 341h35l193 -328h130v328h30v-328h129l194 328h35l-201 -341l221 -319h70v-160h-30v130h-56l-229 332h-133v-332h-30v332h-133z" />
    <glyph glyph-name="uni0497" unicode="&#x497;" horiz-adv-x="679" 
d="M428 272l144 228h35l-153 -243l155 -227h60v-147h-30v117h-46l-165 242h-88v-242h-30v242h-88l-165 -242h-37l176 257l-153 243h35l144 -228h88v228h30v-228h88z" />
    <glyph glyph-name="uni0498" unicode="&#x498;" horiz-adv-x="547" 
d="M298 -5v-125h-30v124q-184 4 -228 196h31q40 -166 207 -166q89 0 139 44.5t50 117.5q0 162 -205 162h-62v30h62q183 0 183 144q0 65 -44.5 104.5t-128.5 39.5q-72 0 -126 -42q-53 -42 -63 -112h-31q11 85 75 134q65 50 145 50q95 0 149 -47t54 -127q0 -116 -114 -159
q62 -15 99 -62.5t37 -114.5q0 -74 -49 -129q-50 -56 -150 -62z" />
    <glyph glyph-name="uni0499" unicode="&#x499;" horiz-adv-x="448" 
d="M226 -5v-112h-30v111q-103 6 -154 79l25 17q48 -66 143 -66q67 0 108.5 32t41.5 86t-39.5 83t-112.5 29h-67v30h67q62 0 97.5 24.5t35.5 71.5q0 43 -35 69.5t-99 26.5q-93 0 -140 -62l-25 17q56 75 165 75q74 0 119 -35.5t45 -90.5q0 -76 -83 -109q47 -13 74.5 -46.5
t27.5 -82.5q0 -60 -43.5 -101.5t-120.5 -45.5z" />
    <glyph glyph-name="uni049A" unicode="&#x49a;" horiz-adv-x="644" 
d="M629 30v-160h-30v130h-53l-245 332h-176v-332h-30v690h30v-328h169l212 328h36l-219 -338l238 -322h68z" />
    <glyph glyph-name="uni049B" unicode="&#x49b;" horiz-adv-x="505" 
d="M233 273l171 227h38l-184 -241l177 -229h60v-147h-30v117h-45l-187 243h-128v-243h-30v500h30v-227h128z" />
    <glyph glyph-name="uni049C" unicode="&#x49c;" horiz-adv-x="598" 
d="M95 690h30v-328h89v136h30v-136h50l212 328h36l-219 -338l260 -352h-37l-245 332h-57v-133h-30v133h-89v-332h-30v690z" />
    <glyph glyph-name="uni049D" unicode="&#x49d;" horiz-adv-x="478" 
d="M105 0h-30v500h30v-227h62v117h30v-117h36l171 227h38l-184 -241l200 -259h-38l-187 243h-36v-120h-30v120h-62v-243z" />
    <glyph glyph-name="uni04A0" unicode="&#x4a0;" horiz-adv-x="666" 
d="M391 352l260 -352h-37l-245 332h-176v-332h-30v660h-163v30h193v-328h169l212 328h36z" />
    <glyph glyph-name="uni04A1" unicode="&#x4a1;" horiz-adv-x="530" 
d="M285 273l171 227h38l-184 -241l200 -259h-38l-187 243h-128v-243h-30v470h-147v30h177v-227h128z" />
    <glyph glyph-name="uni04A2" unicode="&#x4a2;" horiz-adv-x="651" 
d="M95 690h30v-316h388v316h30v-660h78v-160h-30v130h-78v344h-388v-344h-30v690z" />
    <glyph glyph-name="uni04A3" unicode="&#x4a3;" horiz-adv-x="536" 
d="M75 500h30v-231h316v231h30v-470h70v-147h-30v117h-70v239h-316v-239h-30v500z" />
    <glyph glyph-name="uni04AA" unicode="&#x4aa;" horiz-adv-x="583" 
d="M316 -5v-125h-30v124q-226 7 -226 305v92q0 305 240 305q91 0 157 -51q66 -49 81 -156h-30q-32 177 -208 177q-105 0 -157.5 -65.5t-52.5 -209.5v-92q0 -144 52.5 -209.5t157.5 -65.5q84 0 138 47t70 134h29q-14 -100 -73.5 -153t-147.5 -57z" />
    <glyph glyph-name="uni04AB" unicode="&#x4ab;" horiz-adv-x="443" 
d="M269 -6v-111h-30v112q-91 4 -140 59t-49 156v82q0 104 53.5 159t152.5 55q110 0 165 -75l-25 -17q-47 62 -140 62q-85 0 -130.5 -47t-45.5 -137v-82q0 -89 44 -137.5t132 -48.5q94 0 142 66l25 -17q-52 -75 -154 -79z" />
    <glyph glyph-name="uni04AE" unicode="&#x4ae;" horiz-adv-x="516" 
d="M243 309l-233 381h35l213 -348l213 348h35l-233 -381v-309h-30v309z" />
    <glyph glyph-name="uni04AF" unicode="&#x4af;" horiz-adv-x="457" 
d="M229 45l186 455h32l-203 -498v-192h-30v192l-204 498h32z" />
    <glyph glyph-name="uni04B0" unicode="&#x4b0;" horiz-adv-x="516" 
d="M243 309l-233 381h35l213 -348l213 348h35l-233 -381h150v-30h-150v-279h-30v279h-149v30h149z" />
    <glyph glyph-name="uni04B1" unicode="&#x4b1;" horiz-adv-x="457" 
d="M229 43l186 457h32l-203 -500h124v-30h-124v-160h-30v160h-123v30h123l-204 500h32z" />
    <glyph glyph-name="uni04B2" unicode="&#x4b2;" horiz-adv-x="581" 
d="M276 331l-206 -331h-36l224 359l-207 331h36l189 -304l189 304h36l-207 -331l205 -329h67v-160h-30v130h-54z" />
    <glyph glyph-name="uni04B3" unicode="&#x4b3;" horiz-adv-x="455" 
d="M415 -117v117h-46l-156 231l-156 -231h-37l176 257l-166 243h37l146 -217l146 217h37l-166 -243l155 -227h60v-147h-30z" />
    <glyph glyph-name="uni04B6" unicode="&#x4b6;" horiz-adv-x="586" 
d="M40 690h30v-172q0 -119 43 -163q43 -45 152 -45q123 0 183 88v292h30v-660h78v-160h-30v130h-78v350q-61 -70 -183 -70q-126 0 -176 56q-49 55 -49 182v172z" />
    <glyph glyph-name="uni04B7" unicode="&#x4b7;" horiz-adv-x="497" 
d="M60 500h30v-126q0 -78 36.5 -109.5t109.5 -31.5q107 0 146 50v217h30v-470h70v-147h-30v117h-70v244q-44 -41 -146 -41q-87 0 -131.5 40.5t-44.5 130.5v126z" />
    <glyph glyph-name="uni04B8" unicode="&#x4b8;" horiz-adv-x="573" 
d="M40 690h30v-172q0 -112 39 -159q40 -45 137 -49v141h30v-141q115 3 172 88v292h30v-690h-30v350q-60 -67 -172 -70v-128h-30v128q-114 4 -161 60q-45 57 -45 178v172z" />
    <glyph glyph-name="uni04B9" unicode="&#x4b9;" horiz-adv-x="487" 
d="M60 500h30v-126q0 -74 33.5 -106.5t99.5 -34.5v112h30v-112q93 3 129 50v217h30v-500h-30v244q-38 -36 -129 -41v-101h-30v101q-163 4 -163 171v126z" />
    <glyph glyph-name="uni04BA" unicode="&#x4ba;" horiz-adv-x="573" 
d="M533 0h-30v268q0 117 -44 163q-44 45 -151 45q-123 0 -183 -88v-388h-30v690h30v-254q61 70 183 70q125 0 175 -56t50 -182v-268z" />
    <glyph glyph-name="uni04BB" unicode="&#x4bb;" horiz-adv-x="526" 
d="M105 0h-30v690h30v-274q45 90 161 90q87 0 136 -58.5t49 -165.5v-282h-30v282q0 93 -41 143.5t-114 50.5q-158 0 -161 -185v-291z" />
    <glyph glyph-name="uni04D8" unicode="&#x4d8;" horiz-adv-x="604" 
d="M304 666q-167 0 -204 -157l-29 11q20 87 82.5 131.5t150.5 44.5q240 0 240 -305v-92q0 -305 -240 -305q-121 0 -182.5 73.5t-61.5 231.5v26h454v66q0 275 -210 275zM304 24q103 0 156 65t54 206h-424q1 -141 54.5 -206t159.5 -65z" />
    <glyph glyph-name="afii10846" unicode="&#x4d9;" horiz-adv-x="476" 
d="M50 208v50h346v32q0 89 -44 137.5t-132 48.5q-94 0 -142 -66l-25 17q55 79 167 79q98 0 152 -56.5t54 -159.5v-82q0 -104 -48.5 -159t-139.5 -55t-139.5 55t-48.5 159zM396 208v20h-316v-20q0 -90 41 -137t117 -47t117 47t41 137z" />
    <glyph glyph-name="uni04E2" unicode="&#x4e2;" horiz-adv-x="656" 
d="M95 0v690h30v-632l408 632h28v-690h-30v632l-408 -632h-28zM455 815h-289v30h289v-30z" />
    <glyph glyph-name="uni04E3" unicode="&#x4e3;" horiz-adv-x="536" 
d="M75 500h30v-447l327 447h29v-500h-30v448l-327 -448h-29v500zM373 612h-249v30h249v-30z" />
    <glyph glyph-name="uni04E8" unicode="&#x4e8;" horiz-adv-x="600" 
d="M540 391v-92q0 -151 -63 -228t-177 -77t-177 77t-63 228v92q0 151 63 228t177 77t177 -77t63 -228zM510 299v45h-420v-45q0 -140 55 -207.5t155 -67.5t155 67.5t55 207.5zM90 391v-17h420v17q0 140 -55 207.5t-155 67.5t-155 -67.5t-55 -207.5z" />
    <glyph glyph-name="uni04E9" unicode="&#x4e9;" horiz-adv-x="496" 
d="M446 292v-84q0 -104 -51 -159t-147 -55t-147 55t-51 159v84q0 104 51 159t147 55t147 -55t51 -159zM416 208v31h-336v-31q0 -184 168 -184t168 184zM80 292v-23h336v23q0 184 -168 184t-168 -184z" />
    <glyph glyph-name="uni04EE" unicode="&#x4ee;" horiz-adv-x="572" 
d="M301 152l220 538h32l-235 -574q-30 -72 -67 -97t-120 -25v30q69 0 100 18q31 20 54 72l-255 576h33zM455 815h-289v30h289v-30z" />
    <glyph glyph-name="uni04EF" unicode="&#x4ef;" horiz-adv-x="452" 
d="M74 -190v30q67 0 93 35q26 31 54 109l2 7l-213 509h33l150 -360l46 -105l167 465h31l-187 -523q-32 -94 -68 -130q-37 -37 -108 -37zM373 612h-249v30h249v-30z" />
    <glyph glyph-name="uni1E9E" unicode="&#x1e9e;" horiz-adv-x="573" 
d="M513 636l-156 -192q83 0 119.5 -30t36.5 -97v-177q0 -86 -62 -115q-51 -25 -133 -25h-25v30h40q69 0 109.5 27.5t40.5 82.5v178q0 51 -26 73.5t-98 22.5h-42v30l151 183q-76 41 -164 41q-89 0 -134 -43.5t-45 -125.5v-499h-30v499q0 94 54 146.5t155 52.5q99 0 209 -62z
" />
    <glyph glyph-name="uni2010" unicode="&#x2010;" horiz-adv-x="299" 
d="M269 274h-239v30h239v-30z" />
    <glyph glyph-name="uni2011" unicode="&#x2011;" horiz-adv-x="299" 
d="M269 274h-239v30h239v-30z" />
    <glyph glyph-name="figuredash" unicode="&#x2012;" horiz-adv-x="480" 
d="M414 333h-348v30h348v-30z" />
    <glyph glyph-name="endash" unicode="&#x2013;" horiz-adv-x="509" 
d="M439 274h-369v30h369v-30z" />
    <glyph glyph-name="emdash" unicode="&#x2014;" horiz-adv-x="729" 
d="M699 274h-669v30h669v-30z" />
    <glyph glyph-name="quoteleft" unicode="&#x2018;" horiz-adv-x="180" 
d="M110 592h-40v108l40 35v-143z" />
    <glyph glyph-name="quoteright" unicode="&#x2019;" horiz-adv-x="180" 
d="M70 690h40v-108l-40 -35v143z" />
    <glyph glyph-name="quotesinglbase" unicode="&#x201a;" horiz-adv-x="180" 
d="M70 40h40v-108l-40 -35v143z" />
    <glyph glyph-name="quotedblleft" unicode="&#x201c;" horiz-adv-x="296" 
d="M110 592h-40v108l40 35v-143zM226 592h-40v108l40 35v-143z" />
    <glyph glyph-name="quotedblright" unicode="&#x201d;" horiz-adv-x="296" 
d="M186 690h40v-108l-40 -35v143zM70 690h40v-108l-40 -35v143z" />
    <glyph glyph-name="quotedblbase" unicode="&#x201e;" horiz-adv-x="296" 
d="M70 40h40v-108l-40 -35v143zM186 40h40v-108l-40 -35v143z" />
    <glyph glyph-name="dagger" unicode="&#x2020;" horiz-adv-x="546" 
d="M40 446v30h218v214h30v-214h218v-30h-218v-636h-30v636h-218z" />
    <glyph glyph-name="daggerdbl" unicode="&#x2021;" horiz-adv-x="546" 
d="M40 446v30h218v214h30v-214h218v-30h-218v-392h218v-30h-218v-214h-30v214h-218v30h218v392h-218z" />
    <glyph glyph-name="bullet" unicode="&#x2022;" horiz-adv-x="298" 
d="M89 281q-24 25 -24 60t24 59q25 25 60 25t59 -25q25 -24 25 -59t-25 -60q-24 -24 -59 -24t-60 24z" />
    <glyph glyph-name="ellipsis" unicode="&#x2026;" horiz-adv-x="538" 
d="M70 46h46v-46h-46v46zM422 46h46v-46h-46v46zM246 46h46v-46h-46v46z" />
    <glyph glyph-name="perthousand" unicode="&#x2030;" horiz-adv-x="1059" 
d="M141 0l386 690h34l-385 -690h-35zM265 489v63q0 115 -104 115t-104 -115v-63q0 -117 104 -117t104 117zM27 489v63q0 71 35 108t99 37t99 -37t35 -108v-63q0 -72 -34.5 -109.5t-99.5 -37.5t-99.5 37.5t-34.5 109.5zM657 141v63q0 115 -104 115t-104 -115v-63
q0 -117 104 -117t104 117zM419 141v63q0 71 35 108t99 37t99 -37t35 -108v-63q0 -72 -34.5 -109.5t-99.5 -37.5t-99.5 37.5t-34.5 109.5zM977 141v63q0 115 -104 115t-104 -115v-63q0 -117 104 -117t104 117zM739 141v63q0 71 35 108t99 37t99 -37t35 -108v-63
q0 -72 -34.5 -109.5t-99.5 -37.5t-99.5 37.5t-34.5 109.5z" />
    <glyph glyph-name="guilsinglleft" unicode="&#x2039;" horiz-adv-x="322" 
d="M262 52l-232 231l232 231v-42l-190 -189l190 -189v-42z" />
    <glyph glyph-name="guilsinglright" unicode="&#x203a;" horiz-adv-x="322" 
d="M60 472v42l232 -231l-232 -231v42l190 189z" />
    <glyph glyph-name="fraction" unicode="&#x2044;" horiz-adv-x="566" 
d="M21 0l475 690h36l-474 -690h-37z" />
    <glyph glyph-name="uni2074" unicode="&#x2074;" horiz-adv-x="296" 
d="M30 478l131 212h33l-129 -215h126v66h30v-66h39v-30h-39v-71h-30v71h-161v33z" />
    <glyph glyph-name="Euro" unicode="&#x20ac;" horiz-adv-x="480" 
d="M16 255v30h70v120h-70v30h71q5 140 49 200.5t140 60.5q161 0 185 -207h-31q-11 91 -48.5 134t-105.5 43q-81 0 -118 -52q-36 -51 -41 -179h190v-30h-191v-120h191v-30h-190q4 -127 40 -179q37 -52 119 -52q64 0 103 49t48 132h30q-11 -102 -60.5 -156.5t-120.5 -54.5
q-96 0 -140 60.5t-49 200.5h-71z" />
    <glyph glyph-name="uni20B4" unicode="&#x20b4;" horiz-adv-x="480" 
d="M91 272h-80v30h458v-30h-338q-45 -39 -45 -110q0 -60 40.5 -99t111.5 -39q66 0 100 24q37 26 72 76l24 -17q-39 -59 -85.5 -86t-110.5 -27q-90 0 -136 49t-46 119q0 69 35 110zM469 394h-458v30h337q41 36 41 102q0 67 -36.5 103.5t-105.5 36.5q-102 0 -154 -100l-25 17
q62 113 178 113q86 0 129.5 -46t43.5 -124q0 -64 -31 -102h81v-30z" />
    <glyph glyph-name="uni20B8" unicode="&#x20b8;" horiz-adv-x="480" 
d="M15 580v30h450v-30h-210v-580h-30v580h-210zM15 660v30h450v-30h-450z" />
    <glyph glyph-name="uni20BD" unicode="&#x20bd;" horiz-adv-x="480" 
d="M95 153h-79v30h79v100h-79v30h79v377h121q119 0 185 -54t66 -150t-66 -149.5t-185 -53.5h-91v-100h152v-30h-152v-153h-30v153zM125 660v-347h91q109 0 165 44.5t56 128.5q0 85 -56 129.5t-165 44.5h-91z" />
    <glyph glyph-name="afii61352" unicode="&#x2116;" horiz-adv-x="952" 
d="M907 544v-66q0 -75 -36 -113.5t-104 -38.5t-104 38.5t-36 113.5v66q0 75 36 113.5t104 38.5t104 -38.5t36 -113.5zM877 478v66q0 122 -110 122t-110 -122v-66q0 -122 110 -122t110 122zM887 234h-239v30h239v-30zM513 59v631h30v-690h-28l-390 626v-626h-30v690h28z" />
    <glyph glyph-name="trademark" unicode="&#x2122;" horiz-adv-x="872" 
d="M422 690h24l181 -304l181 304h24v-417h-30v348l-160 -268h-30l-160 268v-348h-30v417zM40 660v30h317v-30h-144v-387h-30v387h-143z" />
    <glyph glyph-name="uni2190" unicode="&#x2190;" horiz-adv-x="868" 
d="M127 246l339 -338h-43l-353 353l353 353h43l-339 -338h671v-30h-671z" />
    <glyph glyph-name="uni2191" unicode="&#x2191;" horiz-adv-x="846" 
d="M423 625l353 -353v-43l-338 339v-671h-30v671l-338 -339v43z" />
    <glyph glyph-name="uni2192" unicode="&#x2192;" horiz-adv-x="868" 
d="M798 261l-353 -353h-43l339 338h-671v30h671l-339 338h43z" />
    <glyph glyph-name="uni2193" unicode="&#x2193;" horiz-adv-x="846" 
d="M423 -103l-353 353v43l338 -339v671h30v-671l338 339v-43z" />
    <glyph glyph-name="uni2196" unicode="&#x2196;" horiz-adv-x="670" 
d="M100 449v-479l-30 30v500h500l30 -30h-479l474 -474l-21 -21z" />
    <glyph glyph-name="uni2197" unicode="&#x2197;" horiz-adv-x="670" 
d="M600 500v-500l-30 -30v479l-474 -474l-21 21l474 474h-479l30 30h500z" />
    <glyph glyph-name="uni2198" unicode="&#x2198;" horiz-adv-x="670" 
d="M600 0h-500l-30 30h479l-474 474l21 21l474 -474v479l30 -30v-500z" />
    <glyph glyph-name="uni2199" unicode="&#x2199;" horiz-adv-x="670" 
d="M121 30h479l-30 -30h-500v500l30 30v-479l474 474l21 -21z" />
    <glyph glyph-name="uni21A3" unicode="&#x21a3;" horiz-adv-x="1183" 
d="M1086 264h-847l-97 -97l-21 21l91 91l-91 91l21 21l97 -97h847l-76 76l21 21l112 -112l-112 -112l-21 21zM61 391l112 -112l-112 -112l-21 21l91 91l-91 91z" />
    <glyph glyph-name="partialdiff" unicode="&#x2202;" horiz-adv-x="496" 
d="M446 472v-264q0 -104 -51 -159t-147 -55t-147 55t-51 159v84q0 104 51 159t147 55q120 0 168 -89v55q0 93 -45 143.5t-129 50.5q-81 0 -143 -53l-18 24q73 59 162 59q98 0 150.5 -58t52.5 -166zM416 208v84q0 90 -43 137t-125 47t-125 -47t-43 -137v-84q0 -90 43 -137
t125 -47t125 47t43 137z" />
    <glyph glyph-name="product" unicode="&#x220f;" horiz-adv-x="638" 
d="M95 690h448v-880h-30v850h-388v-850h-30v880z" />
    <glyph glyph-name="summation" unicode="&#x2211;" horiz-adv-x="519" 
d="M78 660l240 -392v-36l-240 -392h391v-30h-429v28l254 412l-254 412v28h429v-30h-391z" />
    <glyph glyph-name="minus" unicode="&#x2212;" horiz-adv-x="480" 
d="M424 339h-369v30h369v-30z" />
    <glyph glyph-name="uni2215" unicode="&#x2215;" horiz-adv-x="443" 
d="M413 812l-336 -928h-32l336 928h32z" />
    <glyph glyph-name="radical" unicode="&#x221a;" horiz-adv-x="613" 
d="M332 0l-213 470h-87v30h107l203 -450l168 640h199v-30h-176l-173 -660h-28z" />
    <glyph glyph-name="infinity" unicode="&#x221e;" horiz-adv-x="762" 
d="M200 198q48 0 84.5 33.5t83.5 112.5q-76 142 -168 142q-55 0 -92 -40q-38 -41 -38 -104q0 -64 37.5 -104t92.5 -40zM568 198q55 0 92.5 40t37.5 104q0 63 -38 104q-37 40 -92 40q-95 0 -168 -142q47 -79 83.5 -112.5t84.5 -33.5zM384 313q-46 -75 -87.5 -110t-95.5 -35
q-72 0 -117 50q-44 50 -44 124t44 124q45 50 117 50q52 0 100 -39.5t83 -103.5q35 64 83 103.5t100 39.5q72 0 116 -50q45 -50 45 -124t-45 -124q-44 -50 -116 -50q-54 0 -95.5 35t-87.5 110z" />
    <glyph glyph-name="integral" unicode="&#x222b;" horiz-adv-x="285" 
d="M105 -52v604q0 138 125 138h10v-30h-10q-50 0 -72.5 -25.5t-22.5 -82.5v-604q0 -138 -125 -138h-10v30h10q50 0 72.5 26t22.5 82z" />
    <glyph glyph-name="approxequal" unicode="&#x2248;" horiz-adv-x="509" 
d="M425 286l17 -25q-44 -39 -88 -39q-33 0 -102 26q-67 27 -95 27q-41 0 -91 -47l-17 25q56 52 108 52q33 0 102 -27q70 -26 95 -26q34 0 71 34zM425 445l17 -25q-44 -39 -88 -39q-33 0 -102 26q-67 27 -95 27q-42 0 -91 -47l-17 25q56 52 108 52q33 0 102 -27
q70 -26 95 -26q34 0 71 34z" />
    <glyph glyph-name="notequal" unicode="&#x2260;" horiz-adv-x="509" 
d="M268 420h-208v31h222l79 184l27 -13l-74 -171h135v-31h-148l-57 -133h205v-31h-219l-82 -192l-27 13l77 179h-138v31h151z" />
    <glyph glyph-name="lessequal" unicode="&#x2264;" horiz-adv-x="330" 
d="M290 170l-232 231l232 231v-42l-190 -189l190 -189v-42zM290 17l-232 231v41l232 -229v-43z" />
    <glyph glyph-name="greaterequal" unicode="&#x2265;" horiz-adv-x="330" 
d="M58 590v42l232 -231l-232 -231v42l190 189zM58 60l232 229v-41l-232 -231v43z" />
    <glyph glyph-name="uni231A" unicode="&#x231a;" horiz-adv-x="686" 
d="M456 -205h-261v235q-58 34 -91.5 93t-33.5 127t33.5 126.5t91.5 92.5v235h261v-234q51 -30 84 -80t40 -110h36v-60h-36q-7 -60 -40 -110t-84 -80v-235zM166 410q-66 -66 -66 -160t66 -160t160 -66t160 66t66 160t-66 160t-160 66t-160 -66zM326 -6q-52 0 -101 20v-189
h201v189q-49 -20 -100 -20zM426 674h-201v-189q47 21 101 21q51 0 100 -20v188zM498 337l-6 -19l-166 -93l-133 75l-6 20l20 5l119 -70l153 87z" />
    <glyph glyph-name="uni23F2" unicode="&#x23f2;" horiz-adv-x="1092" 
d="M209 5q-139 139 -139 337q0 197 139 336q140 140 337 140q196 0 336 -140t140 -336q0 -197 -140 -337q-139 -139 -336 -139q-198 0 -337 139zM230 657q-130 -130 -130 -315q0 -186 130 -316t316 -130q185 0 315 130q131 131 131 316q0 184 -131 315q-130 130 -315 130
q-186 0 -316 -130zM914 538l-5 -21l-363 -207l-257 147l-6 22l21 4l242 -138v-1l348 199zM131 327v30h140v-30h-140zM822 327v30h140v-30h-140zM561 -74h-30v140h30v-140zM561 617h-30v140h30v-140z" />
    <glyph glyph-name="uni2550" unicode="&#x2550;" horiz-adv-x="2158" 
d="M0 339h2158v-30h-2158v30zM0 239h2158v-30h-2158v30z" />
    <glyph glyph-name="lozenge" unicode="&#x25ca;" horiz-adv-x="593" 
d="M68 296l224 291h25l222 -291l-222 -296h-25zM501 296l-198 260l-198 -260l198 -265z" />
    <glyph glyph-name="uni261D" unicode="&#x261d;" horiz-adv-x="768" 
d="M698 219v-268h-393l-235 350q14 14 40 28q76 47 142 -28l46 -56v372q0 36 17 56.5t48 20.5q30 0 47.5 -20t17.5 -53v-207h13q66 0 66 -52h17q33 0 53 -16.5t20 -41.5h15q37 0 61.5 -23.5t24.5 -61.5zM116 291l208 -310h344v238q0 25 -15.5 40t-42.5 15h-2v-122h-30v122
q0 58 -57 58h-3v-126h-30v126q0 29 -11.5 40.5t-38.5 11.5h-10v-122h-30v344q0 31 -7.5 44.5t-27.5 13.5t-27.5 -14t-7.5 -46v-434l-107 114q-19 21 -41 26t-36 -0.5t-22 -13.5zM698 -271h-393v177h393v-177zM668 -241v117h-333v-117h333zM586 -163q20 17 39 -2t0 -38
q-11 -12 -26 -7t-19.5 19t6.5 28z" />
    <glyph glyph-name="uni261E" unicode="&#x261e;" horiz-adv-x="1105" 
d="M560 47h-268v393l350 235q14 -14 28 -41q46 -81 -28 -141l-56 -46h372q36 0 56.5 -17t20.5 -48q0 -30 -20 -47.5t-53 -17.5h-207v-13q0 -66 -52 -66v-17q0 -33 -16.5 -53t-41.5 -20v-15q0 -37 -23.5 -61.5t-61.5 -24.5zM632 629l-310 -208v-344h238q25 0 40 15.5t15 42.5
v2h-122v30h122q58 0 58 57v3h-126v30h126q29 0 40.5 11.5t11.5 38.5v10h-122v30h344q31 0 44.5 7.5t13.5 27.5t-14 27.5t-46 7.5h-434l114 107q21 19 26 41.5t-0.5 35.5t-13.5 23zM70 47v393h177v-393h-177zM100 77h117v333h-117v-333zM177 159q19 -19 0 -38t-39 -2
q-12 12 -6.5 27.5t19.5 19.5t26 -7z" />
    <glyph glyph-name="uni26F3" unicode="&#x26f3;" horiz-adv-x="694" 
d="M70 513q0 115 81 196t196 81t196 -81t81 -196q0 -86 -82 -216l-195 -307l-197 309q-80 128 -80 214zM347 431q-35 0 -59 24t-24 58t24 58t59 24q34 0 58 -24t24 -58t-24 -58t-58 -24zM99 513q0 -79 89 -218l161 -246l158 246q90 141 90 218q0 105 -73 175q-72 72 -175 72
q-105 0 -178 -72q-72 -70 -72 -175z" />
    <glyph glyph-name="uni2709" unicode="&#x2709;" horiz-adv-x="1256" 
d="M70 0v578h1116v-578h-1116zM1156 548h-1056v-50l528 -314l528 314v50zM628 149l-165 98l-363 -217h1056l-363 217zM1156 64v399l-334 -199zM100 64l335 200l-335 199v-399z" />
    <glyph glyph-name="uniF040" unicode="&#xf040;" horiz-adv-x="3054" 
d="M3054 264h-1366l-97 -97l-21 21l91 91l-91 91l21 21l97 -97h1366v-30zM1366 264h-1366v30h1366l97 97l21 -21l-91 -91l91 -91l-21 -21z" />
    <glyph glyph-name="uniF041" unicode="&#xf041;" horiz-adv-x="2855" 
d="M1445 203l-26 14l79 138l26 -15l-27 -46h1358v-30h-1375zM0 294h1372l35 61l26 -15l-79 -137l-26 14l27 47h-1355v30z" />
    <glyph glyph-name="uniF042" unicode="&#xf042;" horiz-adv-x="2825" 
d="M2825 264h-1381v30h1381v-30zM0 294h1261v-30h-1261v30z" />
    <glyph glyph-name="uniF043" unicode="&#xf043;" horiz-adv-x="768" 
d="M305 -49l-235 350l11 10q17 16 42 27t62.5 5t66.5 -42l46 -56v372q0 36 17 56.5t48 20.5q30 0 47.5 -20t17.5 -53v-207h13q66 0 66 -52h17q33 0 53 -16.5t20 -41.5h15q37 0 61.5 -23.5t24.5 -61.5v-268h-393zM668 -19v238q0 25 -15.5 40t-42.5 15h-2v-122h-30v122
q0 58 -57 58h-3v-126h-30v126q0 29 -11.5 40.5t-38.5 11.5h-10v-122h-30v344q0 31 -7.5 44.5t-27.5 13.5t-27.5 -14t-7.5 -46v-434l-107 114q-38 44 -84 21q-14 -7 -21 -14l208 -310h344zM305 -94h393v-177h-393v177zM335 -124v-117h333v117h-333zM586 -163q20 17 39 -2
t0 -38q-11 -12 -26 -7t-19.5 19t6.5 28zM626 634v-30h-158v30h158zM258 634v-30h-158v30h158zM378 730h-30v158h30v-158z" />
    <glyph glyph-name="uniF044" unicode="&#xf044;" horiz-adv-x="937" 
d="M474 -49l-317 157l3 13q4 16 11.5 30.5t25.5 31.5t45 20.5t69 -2.5l156 -40v456q0 36 17 56.5t48 20.5q30 0 47.5 -20t17.5 -53v-207h13q66 0 66 -52h17q33 0 53 -16.5t20 -41.5h15q37 0 61.5 -23.5t24.5 -61.5v-268h-393zM837 -19v238q0 25 -15.5 40t-42.5 15h-2v-122
h-30v122q0 58 -57 58h-3v-126h-30v132q-1 26 -12.5 36t-37.5 10h-10v-122h-30v344q0 31 -7.5 44.5t-27.5 13.5t-27.5 -14t-7.5 -46v-483l-196 52q-27 7 -46.5 4.5t-31 -11.5t-18 -18.5t-9.5 -17.5l-2 -7l286 -142h357zM474 -94h393v-177h-393v177zM504 -124v-117h333v117
h-333zM228 25v-30h-158v158h30v-128h128zM532 764v30h158v-158h-30v128h-128zM755 -163q20 17 39 -2t0 -38q-11 -12 -26 -7t-19.5 19t6.5 28z" />
    <glyph glyph-name="uniF045" unicode="&#xf045;" horiz-adv-x="904" 
d="M427 636h457v-30h-456v-192h13q66 0 66 -52h17q33 0 53 -16.5t20 -41.5h15q37 0 61.5 -23.5t24.5 -61.5v-268h-393l-235 350q14 14 40 28q76 47 142 -28l46 -56v372q0 36 17 56.5t48 20.5q55 0 64 -58zM116 291l208 -310h344v238q0 25 -15.5 40t-42.5 15h-2v-122h-30v128
q-3 52 -57 52h-3v-126h-30v132q-1 26 -12.5 36t-37.5 10h-10v-122h-30v344q0 31 -7.5 44.5t-27.5 13.5t-27.5 -14t-7.5 -46v-434l-107 114q-19 21 -41 26t-36 -0.5t-22 -13.5zM698 -271h-393v177h393v-177zM668 -241v117h-333v-117h333zM261 530l-21 -21l-112 112l112 112
l21 -21l-91 -91zM586 -163q20 17 39 -2t0 -38q-11 -12 -26 -7t-19.5 19t6.5 28z" />
    <glyph glyph-name="uniF046" unicode="&#xf046;" horiz-adv-x="946" 
d="M876 219v-268h-393l-235 350q14 14 40 28q76 47 142 -28l46 -56v361h-456v30h457q10 58 64 58q30 0 47.5 -20t17.5 -53v-207h13q66 0 66 -52h17q33 0 53 -16.5t20 -41.5h15q37 0 61.5 -23.5t24.5 -61.5zM294 291l208 -310h344v238q0 25 -15.5 40t-42.5 15h-2v-122h-30
v128q-3 52 -57 52h-3v-126h-30v132q-1 26 -12.5 36t-37.5 10h-10v-122h-30v344q0 31 -7.5 44.5t-27.5 13.5t-27.5 -14t-7.5 -46v-434l-107 114q-19 21 -41 26t-36 -0.5t-22 -13.5zM876 -271h-393v177h393v-177zM846 -241v117h-333v-117h333zM664 733l112 -112l-112 -112
l-21 21l91 91l-91 91zM764 -163q20 17 39 -2t0 -38q-11 -12 -26 -7t-19.5 19t6.5 28z" />
    <glyph glyph-name="uniF047" unicode="&#xf047;" horiz-adv-x="1062" 
d="M691 17l-232 -134l-197 341l186 378q3 -1 8 -2.5t18 -7.5t24.5 -13.5t24 -21t19 -29t6.5 -37.5t-9 -47l-26 -68l323 186q68 38 99 -18q15 -28 6.5 -52t-37.5 -40l-9 -5v-571h-30v553l-140 -81l6 -11q35 -57 -12 -83l9 -15q15 -31 11 -55.5t-25 -36.5l7 -13q19 -29 11 -64
t-41 -53zM462 557l-164 -335l172 -298l206 119q21 12 26.5 33t-8.5 45l-1 1l-105 -61l-15 26l105 61q50 30 22 79l-1 2l-109 -63l-15 26l109 63q24 15 28.5 31t-8.5 39l-5 8l-106 -61l-15 26l298 172q27 16 34 27.5t-1 32.5q-17 30 -70 0l-375 -217l45 150q11 41 -4 63.5
t-36 27.5zM266 -228l-196 341l153 88l197 -340zM277 -187l102 59l-167 288l-101 -58zM768 635l112 112l112 -112l-21 -21l-91 91l-91 -91zM276 -84q20 17 39 -2t0 -38q-11 -12 -26 -7t-19.5 19t6.5 28z" />
    <glyph glyph-name="uniF048" unicode="&#xf048;" horiz-adv-x="1196" 
d="M495 -52l-232 134l196 341l421 28q5 -14 4 -49q2 -38 -21 -68.5t-75 -40.5l-71 -11l282 -164v555h30v-573l10 -5q67 -39 34 -95q-15 -26 -41.5 -30.5t-53.5 11.5l-179 103l-7 -11q-31 -57 -78 -31l-8 -15q-17 -29 -43 -38t-44 4l-8 -13q-18 -32 -49 -41t-67 9zM848 416
l-372 -25l-172 -298l206 -119q21 -12 42 -6.5t35 29.5v2l-106 60l15 26l106 -60q51 -29 79 20l1 2l-109 63l15 26l109 -63q27 -14 41.5 -10t29.5 28l5 8l-106 61l15 26l298 -172q52 -29 68 2q18 29 -35 61l-375 216l152 36q28 6 43 23t17 30.5t0 26.5zM70 193l197 340
l153 -88l-196 -341zM111 204l102 -59l166 289l-101 58zM1126 -86l-112 -112l-112 112l21 21l91 -91l91 91zM172 248q12 12 27 7t19 -19t-7 -27q-7 -8 -19 -8t-20 8t-8 20t8 19z" />
    <glyph glyph-name="uniF400" unicode="&#xf400;" horiz-adv-x="0" 
d="M-243 567h-30l80 158h35z" />
    <glyph glyph-name="uniF401" unicode="&#xf401;" horiz-adv-x="0" 
d="M-294 767h-30l65 129h35z" />
    <glyph glyph-name="uniF406" unicode="&#xf406;" horiz-adv-x="484" 
d="M386 899h30q0 -68 -46.5 -105t-127.5 -37t-128 37.5t-47 104.5h30q10 -112 145 -112q134 0 144 112z" />
    <glyph glyph-name="uniF407" unicode="&#xf407;" horiz-adv-x="390" 
d="M153 -41l14 63l30 -2l-11 -40q81 -15 81 -77q0 -39 -28.5 -60.5t-78.5 -21.5q-24 0 -37 3l6 29q24 -2 31 -2q77 0 77 52q0 51 -84 56z" />
    <glyph glyph-name="uniF408" unicode="&#xf408;" horiz-adv-x="475" 
d="M72 757l149 142h32l149 -142h-44l-121 116l-121 -116h-44z" />
    <glyph glyph-name="uniF409" unicode="&#xf409;" horiz-adv-x="325" 
d="M147 -64h30v-110l-30 -26v136z" />
    <glyph glyph-name="uniF40A" unicode="&#xf40a;" horiz-adv-x="90" 
d="M40 690h30v-150l-30 -26v176z" />
    <glyph glyph-name="uniF40B" unicode="&#xf40b;" horiz-adv-x="330" 
d="M187 869v-44h-44v44h44z" />
    <glyph glyph-name="uniF40C" unicode="&#xf40c;" horiz-adv-x="420" 
d="M100 800q0 44 31 71.5t78 27.5q48 0 79 -27.5t31 -71.5t-31 -71t-79 -27q-47 0 -78 27t-31 71zM130 800q0 -32 22 -50t57 -18q36 0 58 18t22 50q0 33 -21.5 51t-58.5 18q-35 0 -57 -18t-22 -51z" />
    <glyph glyph-name="uniF40D" unicode="&#xf40d;" horiz-adv-x="472" 
d="M295 807q-26 0 -61 16q-36 17 -55 17q-38 0 -71 -33l-23 19q42 44 94 44q22 0 58 -17q35 -16 57 -16q42 0 70 33l23 -19q-38 -44 -92 -44z" />
    <glyph glyph-name="uniF40E" unicode="&#xf40e;" horiz-adv-x="383" 
d="M241 30l6 -30l-18 -8q-19 -8 -37 -17q-40 -21 -40 -52q0 -43 68 -43q20 0 34 3l6 -29q-15 -4 -39 -4q-43 0 -71 18.5t-28 53.5q0 33 25.5 55t93.5 53z" />
    <glyph glyph-name="dollar.fitted" unicode="&#xf5f5;" horiz-adv-x="568" 
d="M501 583l-25 -17q-57 92 -175 99v-306q103 -27 151 -61q61 -41 61 -136q0 -72 -55 -118.5t-157 -49.5v-110h-30v111q-146 6 -216 112l24 17q67 -94 192 -100v312q-104 26 -151 65q-50 41 -50 125q0 75 51.5 121t149.5 49v116h30v-117q133 -6 200 -112zM483 162
q0 70 -41.5 106t-140.5 60v-304q87 2 134.5 40t47.5 98zM100 526q0 -77 53 -112q40 -26 118 -47v299q-82 -2 -126.5 -37.5t-44.5 -102.5z" />
    <glyph glyph-name="Euro.fitted" unicode="&#xf5f6;" horiz-adv-x="627" 
d="M10 255v30h94v120h-94v30h95q15 261 239 261q91 0 157 -51q66 -49 81 -156h-30q-32 177 -208 177q-97 0 -149 -55t-60 -176h226v-30h-227v-120h227v-30h-226q8 -121 60.5 -176t148.5 -55q84 0 138 47t70 134h29q-15 -108 -82 -160q-66 -51 -155 -51q-224 0 -239 261h-95z
" />
    <glyph glyph-name="cent.fitted" unicode="&#xf5f7;" horiz-adv-x="443" 
d="M270 -6v-110h-30v111q-93 4 -141.5 58.5t-48.5 156.5v82q0 100 49 154t141 59v117h30v-116q97 -4 151 -75l-25 -17q-47 62 -140 62q-85 0 -130.5 -47t-45.5 -137v-82q0 -89 44 -137.5t132 -48.5q94 0 142 66l25 -17q-51 -73 -153 -79z" />
    <glyph glyph-name="sterling.fitted" unicode="&#xf5f8;" horiz-adv-x="462" 
d="M421 0h-371v30h71v336h-71v30h71v78q0 222 161 222q80 0 145 -66l-24 -20q-50 56 -121 56q-69 0 -100 -47.5t-31 -144.5v-78h156v-30h-156v-336h270v-30z" />
    <glyph glyph-name="yen.fitted" unicode="&#xf5f9;" horiz-adv-x="516" 
d="M55 170v30h188v109h-188v30h169l-214 351h35l213 -348l213 348h35l-215 -351h170v-30h-188v-109h188v-30h-188v-170h-30v170h-188z" />
    <glyph glyph-name="florin.fitted" unicode="&#xf5fa;" horiz-adv-x="326" 
d="M72 470v30h64v36q0 83 29.5 118.5t102.5 35.5h23v-30h-23q-64 0 -84 -30q-18 -28 -18 -101v-29h125v-30h-125v-506q0 -82 -30 -118t-105 -36v30q66 0 85 31q20 32 20 109v490h-64z" />
    <glyph glyph-name="uni20B4.fitted" unicode="&#xf5fb;" horiz-adv-x="508" 
d="M105 272h-80v30h458v-30h-338q-45 -39 -45 -110q0 -60 40.5 -99t111.5 -39q66 0 100 24q37 26 72 76l24 -17q-39 -59 -85.5 -86t-110.5 -27q-90 0 -136 49t-46 119q0 69 35 110zM483 394h-458v30h337q41 36 41 102q0 67 -36.5 103.5t-105.5 36.5q-102 0 -154 -100l-25 17
q62 113 178 113q86 0 129.5 -46t43.5 -124q0 -64 -31 -102h81v-30z" />
    <glyph glyph-name="uni20BD.fitted" unicode="&#xf5fc;" horiz-adv-x="480" 
d="M95 153h-79v30h79v100h-79v30h79v377h121q119 0 185 -54t66 -150t-66 -149.5t-185 -53.5h-91v-100h152v-30h-152v-153h-30v153zM125 660v-347h91q109 0 165 44.5t56 128.5q0 85 -56 129.5t-165 44.5h-91z" />
    <glyph glyph-name="uni20B8.fitted" unicode="&#xf5fd;" horiz-adv-x="516" 
d="M15 580v30h486v-30h-228v-580h-30v580h-228zM15 660v30h486v-30h-486z" />
    <glyph glyph-name="uniF639" unicode="&#xf639;" horiz-adv-x="516" 
d="M446 497v-304q0 -92 -54 -146q-53 -53 -134 -53q-80 0 -135 53q-53 55 -53 147v302q0 93 53 146q54 54 135 54t134 -54q54 -52 54 -145zM100 497v-304q0 -77 43.5 -123t114.5 -46t114.5 46t43.5 123v304q0 77 -43.5 123t-114.5 46t-114.5 -46t-43.5 -123z" />
    <glyph glyph-name="uniF63A" unicode="&#xf63a;" horiz-adv-x="497" 
d="M89 30h341v-30h-385v24l253 299q59 70 81 109q23 41 23 79q0 73 -47 114t-111 41q-68 0 -112 -41t-46 -114h-30q0 83 54 134t134 51q81 0 134 -52q54 -51 54 -137q0 -27 -10 -51q-14 -33 -24 -49q-20 -31 -35 -49q-13 -16 -18 -24l-22 -25l-20 -24z" />
    <glyph glyph-name="uniF63B" unicode="&#xf63b;" horiz-adv-x="489" 
d="M223 341h-33v30h33q176 0 176 146q0 64 -44 106q-43 43 -114 43q-68 0 -111.5 -41t-45.5 -105h-30q0 79 55 127q55 49 132 49q83 0 135 -51q53 -51 53 -128q0 -128 -119 -161q58 -16 93.5 -62.5t35.5 -109.5q0 -82 -53 -137q-53 -53 -138 -53q-91 0 -144.5 49t-58.5 132
h30q16 -151 173 -151q69 0 115 43t46 115q0 75 -48 117t-138 42z" />
    <glyph glyph-name="uniF63C" unicode="&#xf63c;" horiz-adv-x="494" 
d="M30 160l250 530h33l-247 -524h282v227h30v-227h76v-30h-76v-136h-30v136h-318v24z" />
    <glyph glyph-name="uniF63D" unicode="&#xf63d;" horiz-adv-x="480" 
d="M243 438q-90 0 -141 -107h-26v359h330v-30h-300v-267q50 75 139 75q190 0 190 -252q0 -105 -50 -163.5t-142 -58.5q-75 0 -127 49q-52 50 -56 121h30q6 -60 50 -101q44 -39 103 -39q162 0 162 192q0 222 -162 222z" />
    <glyph glyph-name="uniF63E" unicode="&#xf63e;" horiz-adv-x="478" 
d="M241 402q83 0 135 -57q52 -55 52 -145q0 -91 -53 -149q-53 -57 -136 -57t-136 57q-53 58 -53 147q3 46 15 84l9 23l12 27l10 24l143 334h34l-142 -322q46 34 110 34zM80 200q0 -80 43.5 -128t115.5 -48t115.5 48t43.5 128q0 78 -44 125t-115 47q-72 0 -115.5 -47
t-43.5 -125z" />
    <glyph glyph-name="uniF63F" unicode="&#xf63f;" horiz-adv-x="428" 
d="M65 660v-139h-30v169h368v-30l-236 -660h-33l237 660h-306z" />
    <glyph glyph-name="uniF640" unicode="&#xf640;" horiz-adv-x="477" 
d="M126 294q-46 -46 -46 -112t46 -112t112 -46t112 46q47 47 47 112t-47 112t-112 47t-112 -47zM386 518q0 62 -43 105t-105 43q-61 0 -104 -43t-43 -105t42 -105q43 -42 105 -42t105 43t43 104zM50 182q0 58 31.5 105.5t83.5 68.5q-47 21 -75.5 65t-28.5 97q0 74 52 126
t125 52q74 0 126 -52t52 -126q0 -53 -29 -97t-77 -65q52 -21 84.5 -69t32.5 -105q0 -77 -56 -133q-55 -55 -133 -55t-133 55t-55 133z" />
    <glyph glyph-name="uniF641" unicode="&#xf641;" horiz-adv-x="478" 
d="M239 288q-84 0 -137 56q-52 56 -52 146q0 93 52 149q52 57 137 57q83 0 136 -57q53 -58 53 -146q-2 -45 -15 -84q-1 -8 -14 -38q-12 -19 -16 -37l-144 -334h-34l142 322q-46 -34 -108 -34zM398 490q0 80 -43.5 128t-115.5 48t-115.5 -48t-43.5 -128q0 -78 44 -125
t115 -47q72 0 115.5 47t43.5 125z" />
    <glyph glyph-name="uniF6BA" unicode="&#xf6ba;" horiz-adv-x="299" 
d="M269 330h-239v30h239v-30z" />
    <glyph glyph-name="uniF6BB" unicode="&#xf6bb;" horiz-adv-x="509" 
d="M439 330h-369v30h369v-30z" />
    <glyph glyph-name="uniF6BC" unicode="&#xf6bc;" horiz-adv-x="729" 
d="M699 330h-669v30h669v-30z" />
    <glyph glyph-name="uniF6C3" unicode="&#xf6c3;" horiz-adv-x="263" 
d="M116 -64h30v-110l-30 -27v137z" />
    <glyph glyph-name="uniF6C9" unicode="&#xf6c9;" horiz-adv-x="366" 
d="M163 767h-30l65 129h35z" />
    <glyph glyph-name="uniF6CA" unicode="&#xf6ca;" horiz-adv-x="475" 
d="M72 899h44l121 -116l121 116h44l-149 -142h-32z" />
    <glyph glyph-name="uniF6CB" unicode="&#xf6cb;" horiz-adv-x="435" 
d="M344 869v-44h-44v44h44zM134 869v-44h-44v44h44z" />
    <glyph glyph-name="uniF6CE" unicode="&#xf6ce;" horiz-adv-x="353" 
d="M202 767l-76 129h35l65 -129h-24z" />
    <glyph glyph-name="uniF6CF" unicode="&#xf6cf;" horiz-adv-x="488" 
d="M124 767h-30l80 129h35zM309 767h-30l80 129h35z" />
    <glyph glyph-name="uniF6D0" unicode="&#xf6d0;" horiz-adv-x="455" 
d="M372 815h-289v30h289v-30z" />
    <glyph glyph-name="uniF6D1" unicode="&#xf6d1;" horiz-adv-x="474" 
d="M371 899h30q0 -142 -164 -142q-165 0 -165 142h30q0 -112 135 -112q134 0 134 112z" />
    <glyph glyph-name="uniF6D4" unicode="&#xf6d4;" horiz-adv-x="374" 
d="M283 690h30q0 -118 -126 -118t-126 118h30q0 -88 96 -88t96 88z" />
    <glyph glyph-name="uniF6DC" unicode="&#xf6dc;" horiz-adv-x="269" 
d="M144 690h30v-690h-30v649l-99 -71v36z" />
    <glyph glyph-name="uniFEFF" unicode="&#xfeff;" horiz-adv-x="0" 
 />
    <glyph glyph-name="uniF4D3" unicode="&#x1f4d3;" horiz-adv-x="772" 
d="M70 60v815q0 25 18 43t43 18h510q25 0 43 -18t18 -43v-815q0 -25 -18 -42.5t-43 -17.5h-510q-25 0 -43 17.5t-18 42.5zM386 127q17 0 29 -12t12 -29t-12 -29t-29 -12q-18 0 -30 12t-12 29t12 29t30 12zM672 172v641h-572v-641h572zM373 861q-8 8 -4.5 16.5t12 10.5
t16.5 -4t4.5 -15t-12 -12t-16.5 4zM100 875v-32h572v32q0 13 -9 22t-22 9h-509q-14 0 -23 -9t-9 -22zM672 61v81h-572v-81q0 -13 9 -22t23 -9h509q13 0 22 9t9 22z" />
    <glyph glyph-name="uniF4F1" unicode="&#x1f4f1;" horiz-adv-x="572" 
d="M70 60v715q0 25 18 43t43 18h310q25 0 43 -18t18 -43v-715q0 -25 -18 -42.5t-43 -17.5h-310q-25 0 -43 17.5t-18 42.5zM472 183v510h-372v-510h372zM239 777h94q11 0 11 -12t-11 -12h-94q-11 0 -11 13q0 11 11 11zM472 62v91h-372v-91q0 -14 9 -23t23 -9h309q13 0 22 9
t9 23zM100 775v-52h372v52q0 13 -9 22t-22 9h-309q-14 0 -23 -9t-9 -22zM286 132q17 0 29 -12t12 -29t-12 -29t-29 -12q-18 0 -30 12t-12 29t12 29t30 12z" />
    <glyph glyph-name="NULL" horiz-adv-x="0" 
 />
    <glyph glyph-name="CR" horiz-adv-x="333" 
 />
    <glyph glyph-name="e.ss01" 
d="M238 237h-158v-23q0 -90 44.5 -140t131.5 -50q94 0 142 66l25 -17q-55 -79 -167 -79q-98 0 -152 56.5t-54 159.5v82q0 104 52.5 159t148.5 55q80 0 127.5 -36.5t47.5 -98.5q0 -63 -50 -98.5t-138 -35.5zM80 292v-25h158q76 0 117 27t41 77q0 49 -39 77t-106 28
q-82 0 -126.5 -47t-44.5 -137z" />
    <glyph glyph-name="uni2196.ss02" horiz-adv-x="665" 
d="M100 449v-449h-30v500h500v-30h-449l474 -474l-21 -21z" />
    <glyph glyph-name="afii10081.ss01" horiz-adv-x="526" 
d="M105 0h-30v500h30v-84q44 90 161 90q87 0 136 -58.5t49 -165.5v-282h-30v282q0 93 -41 143.5t-114 50.5q-158 0 -161 -185v-291z" />
    <glyph glyph-name="afii10069.ss01" horiz-adv-x="496" 
d="M446 472v-264q0 -104 -51 -159t-147 -55t-147 55t-51 159v84q0 104 51 159t147 55q120 0 168 -89v55q0 93 -45 143.5t-129 50.5q-81 0 -143 -53l-18 24q73 59 162 59q98 0 150.5 -58t52.5 -166zM416 208v84q0 90 -43 137t-125 47t-125 -47t-43 -137v-84q0 -90 43 -137
t125 -47t125 47t43 137z" />
    <glyph glyph-name="uni261E.ss02" horiz-adv-x="1098" 
d="M70 51v389h164v-389h-164zM116 415h-20v-338h20v338zM188 77h20v338h-20v-338zM162 415h-20v-241h20v241zM162 112h-20v-35h20v35zM553 47h-268v393l350 235q14 -14 28 -41q46 -81 -28 -141l-56 -46h372q36 0 56.5 -17t20.5 -48q0 -30 -20 -47.5t-53 -17.5h-207v-13
q0 -66 -52 -66v-17q0 -33 -16.5 -53t-41.5 -20v-15q0 -37 -23.5 -61.5t-61.5 -24.5zM625 629l-310 -208v-344h238q25 0 40 15.5t15 42.5v2h-122v30h122q58 0 58 57v3h-126v30h126q29 0 40.5 11.5t11.5 38.5v10h-122v30h344q31 0 44.5 7.5t13.5 27.5t-14 27.5t-46 7.5h-434
l114 107q21 19 26 41.5t-0.5 35.5t-13.5 23z" />
    <glyph glyph-name="uni2191.ss02" horiz-adv-x="846" 
d="M423 625l353 -353l-21 -22l-317 318v-671h-30v671l-317 -318l-21 22z" />
    <glyph glyph-name="afii10075.ss01" horiz-adv-x="526" 
d="M421 500h30v-500h-30v84q-43 -90 -161 -90q-87 0 -136 58.5t-49 165.5v282h30v-282q0 -93 41 -143.5t114 -50.5q161 0 161 187v289zM360 690h30q0 -118 -126 -118t-126 118h30q0 -88 96 -88t96 88z" />
    <glyph glyph-name="afii10074.ss01" horiz-adv-x="526" 
d="M421 500h30v-500h-30v84q-43 -90 -161 -90q-87 0 -136 58.5t-49 165.5v282h30v-282q0 -93 41 -143.5t114 -50.5q161 0 161 187v289z" />
    <glyph glyph-name="uni2197.ss02" horiz-adv-x="665" 
d="M595 500v-500h-30v449l-474 -474l-21 21l474 474h-449v30h500z" />
    <glyph glyph-name="a.ss01" horiz-adv-x="511" 
d="M50 210v82q0 214 190 214q126 0 166 -81v75h30v-500h-30v75q-40 -81 -166 -81q-190 0 -190 216zM240 24q91 0 128.5 45.5t37.5 139.5v82q0 92 -39 138.5t-127 46.5q-160 0 -160 -184v-82q0 -186 160 -186z" />
    <glyph glyph-name="uni2190.ss02" horiz-adv-x="868" 
d="M127 246l318 -317l-22 -21l-353 353l353 353l22 -21l-318 -317h671v-30h-671z" />
    <glyph glyph-name="uni2192.ss02" horiz-adv-x="868" 
d="M798 261l-353 -353l-22 21l318 317h-671v30h671l-318 317l22 21z" />
    <glyph glyph-name="uni2198.ss02" horiz-adv-x="665" 
d="M565 51v449h30v-500h-500v30h449l-474 474l21 21z" />
    <glyph glyph-name="uni2199.ss02" horiz-adv-x="665" 
d="M70 0v500h30v-449l474 474l21 -21l-474 -474h449v-30h-500z" />
    <glyph glyph-name="eacute.ss01" 
d="M238 237h-158v-23q0 -90 44.5 -140t131.5 -50q94 0 142 66l25 -17q-55 -79 -167 -79q-98 0 -152 56.5t-54 159.5v82q0 104 52.5 159t148.5 55q80 0 127.5 -36.5t47.5 -98.5q0 -63 -50 -98.5t-138 -35.5zM80 292v-25h158q76 0 117 27t41 77q0 49 -39 77t-106 28
q-82 0 -126.5 -47t-44.5 -137zM249 567h-30l80 158h35z" />
    <glyph glyph-name="ecircumflex.ss01" 
d="M238 237h-158v-23q0 -90 44.5 -140t131.5 -50q94 0 142 66l25 -17q-55 -79 -167 -79q-98 0 -152 56.5t-54 159.5v82q0 104 52.5 159t148.5 55q80 0 127.5 -36.5t47.5 -98.5q0 -63 -50 -98.5t-138 -35.5zM80 292v-25h158q76 0 117 27t41 77q0 49 -39 77t-106 28
q-82 0 -126.5 -47t-44.5 -137zM124 558l108 142h32l108 -142h-38l-86 113l-86 -113h-38z" />
    <glyph glyph-name="edieresis.ss01" 
d="M238 237h-158v-23q0 -90 44.5 -140t131.5 -50q94 0 142 66l25 -17q-55 -79 -167 -79q-98 0 -152 56.5t-54 159.5v82q0 104 52.5 159t148.5 55q80 0 127.5 -36.5t47.5 -98.5q0 -63 -50 -98.5t-138 -35.5zM80 292v-25h158q76 0 117 27t41 77q0 49 -39 77t-106 28
q-82 0 -126.5 -47t-44.5 -137zM375 690v-44h-44v44h44zM165 690v-44h-44v44h44z" />
    <glyph glyph-name="afii10065.ss01" horiz-adv-x="511" 
d="M50 210v82q0 214 190 214q126 0 166 -81v75h30v-500h-30v75q-40 -81 -166 -81q-190 0 -190 216zM240 24q91 0 128.5 45.5t37.5 139.5v82q0 92 -39 138.5t-127 46.5q-160 0 -160 -184v-82q0 -186 160 -186z" />
    <glyph glyph-name="afii10070.ss01" 
d="M238 237h-158v-23q0 -90 44.5 -140t131.5 -50q94 0 142 66l25 -17q-55 -79 -167 -79q-98 0 -152 56.5t-54 159.5v82q0 104 52.5 159t148.5 55q80 0 127.5 -36.5t47.5 -98.5q0 -63 -50 -98.5t-138 -35.5zM80 292v-25h158q76 0 117 27t41 77q0 49 -39 77t-106 28
q-82 0 -126.5 -47t-44.5 -137z" />
    <glyph glyph-name="afii10071.ss01" 
d="M238 237h-158v-23q0 -90 44.5 -140t131.5 -50q94 0 142 66l25 -17q-55 -79 -167 -79q-98 0 -152 56.5t-54 159.5v82q0 104 52.5 159t148.5 55q80 0 127.5 -36.5t47.5 -98.5q0 -63 -50 -98.5t-138 -35.5zM80 292v-25h158q76 0 117 27t41 77q0 49 -39 77t-106 28
q-82 0 -126.5 -47t-44.5 -137zM375 690v-44h-44v44h44zM165 690v-44h-44v44h44z" />
    <glyph glyph-name="aogonek.ss01" horiz-adv-x="511" 
d="M50 210v82q0 214 190 214q126 0 166 -81v75h30v-500l-18 -8q-19 -8 -37 -17q-40 -21 -40 -52q0 -43 68 -43q21 0 34 3l6 -29q-15 -4 -39 -4q-43 0 -71 18.5t-28 53.5q0 30 21.5 51t73.5 45v57q-40 -81 -166 -81q-190 0 -190 216zM240 24q91 0 128.5 45.5t37.5 139.5v82
q0 92 -39 138.5t-127 46.5q-160 0 -160 -184v-82q0 -186 160 -186z" />
    <glyph glyph-name="abreve.ss01" horiz-adv-x="511" 
d="M50 210v82q0 214 190 214q126 0 166 -81v75h30v-500h-30v75q-40 -81 -166 -81q-190 0 -190 216zM240 24q91 0 128.5 45.5t37.5 139.5v82q0 92 -39 138.5t-127 46.5q-160 0 -160 -184v-82q0 -186 160 -186zM344 690h30q-4 -108 -126 -108t-126 108h30q4 -40 26.5 -59
t69.5 -19t69.5 19t26.5 59z" />
    <glyph glyph-name="eogonek.ss01" 
d="M238 237h-158v-23q0 -90 44.5 -140t131.5 -50q94 0 142 66l25 -17q-38 -56 -112 -73l-18 -8q-19 -8 -37 -17q-40 -21 -40 -52q0 -43 68 -43q20 0 34 3l6 -29q-15 -4 -39 -4q-43 0 -71 18.5t-28 53.5q0 41 50 73q-89 5 -137.5 61t-48.5 154v82q0 104 52.5 159t148.5 55
q80 0 127.5 -36.5t47.5 -98.5q0 -63 -50 -98.5t-138 -35.5zM80 292v-25h158q76 0 117 27t41 77q0 49 -39 77t-106 28q-82 0 -126.5 -47t-44.5 -137z" />
    <glyph glyph-name="ecaron.ss01" 
d="M238 237h-158v-23q0 -90 44.5 -140t131.5 -50q94 0 142 66l25 -17q-55 -79 -167 -79q-98 0 -152 56.5t-54 159.5v82q0 104 52.5 159t148.5 55q80 0 127.5 -36.5t47.5 -98.5q0 -63 -50 -98.5t-138 -35.5zM80 292v-25h158q76 0 117 27t41 77q0 49 -39 77t-106 28
q-82 0 -126.5 -47t-44.5 -137zM371 700l-108 -142h-32l-108 142h38l86 -113l86 113h38z" />
    <glyph glyph-name="amacron.ss01" horiz-adv-x="511" 
d="M50 210v82q0 214 190 214q126 0 166 -81v75h30v-500h-30v75q-40 -81 -166 -81q-190 0 -190 216zM240 24q91 0 128.5 45.5t37.5 139.5v82q0 92 -39 138.5t-127 46.5q-160 0 -160 -184v-82q0 -186 160 -186zM383 612h-249v30h249v-30z" />
    <glyph glyph-name="emacron.ss01" 
d="M238 237h-158v-23q0 -90 44.5 -140t131.5 -50q94 0 142 66l25 -17q-55 -79 -167 -79q-98 0 -152 56.5t-54 159.5v82q0 104 52.5 159t148.5 55q80 0 127.5 -36.5t47.5 -98.5q0 -63 -50 -98.5t-138 -35.5zM80 292v-25h158q76 0 117 27t41 77q0 49 -39 77t-106 28
q-82 0 -126.5 -47t-44.5 -137zM373 612h-249v30h249v-30z" />
    <glyph glyph-name="edotaccent.ss01" 
d="M238 237h-158v-23q0 -90 44.5 -140t131.5 -50q94 0 142 66l25 -17q-55 -79 -167 -79q-98 0 -152 56.5t-54 159.5v82q0 104 52.5 159t148.5 55q80 0 127.5 -36.5t47.5 -98.5q0 -63 -50 -98.5t-138 -35.5zM80 292v-25h158q76 0 117 27t41 77q0 49 -39 77t-106 28
q-82 0 -126.5 -47t-44.5 -137zM270 690v-44h-44v44h44z" />
    <glyph glyph-name="afii10065.var.accented.ss01" horiz-adv-x="511" 
d="M50 210v82q0 214 190 214q126 0 166 -81v75h30v-500h-30v75q-40 -81 -166 -81q-190 0 -190 216zM240 24q91 0 128.5 45.5t37.5 139.5v82q0 92 -39 138.5t-127 46.5q-160 0 -160 -184v-82q0 -186 160 -186zM269 567h-30l80 158h35z" />
    <glyph glyph-name="afii10070.var.accented.ss01" 
d="M238 237h-158v-23q0 -90 44.5 -140t131.5 -50q94 0 142 66l25 -17q-55 -79 -167 -79q-98 0 -152 56.5t-54 159.5v82q0 104 52.5 159t148.5 55q80 0 127.5 -36.5t47.5 -98.5q0 -63 -50 -98.5t-138 -35.5zM80 292v-25h158q76 0 117 27t41 77q0 49 -39 77t-106 28
q-82 0 -126.5 -47t-44.5 -137zM249 567h-30l80 158h35z" />
    <glyph glyph-name="afii10074.var.accented.ss01" horiz-adv-x="526" 
d="M421 500h30v-500h-30v84q-43 -90 -161 -90q-87 0 -136 58.5t-49 165.5v282h30v-282q0 -93 41 -143.5t114 -50.5q161 0 161 187v289zM261 567h-30l80 158h35z" />
    <glyph glyph-name="afii10071.var.accented.ss01" 
d="M238 237h-158v-23q0 -90 44.5 -140t131.5 -50q94 0 142 66l25 -17q-55 -79 -167 -79q-98 0 -152 56.5t-54 159.5v82q0 104 52.5 159t148.5 55q80 0 127.5 -36.5t47.5 -98.5q0 -63 -50 -98.5t-138 -35.5zM80 292v-25h158q76 0 117 27t41 77q0 49 -39 77t-106 28
q-82 0 -126.5 -47t-44.5 -137zM375 690v-44h-44v44h44zM165 690v-44h-44v44h44zM259 717h-30l80 158h35z" />
    <glyph glyph-name="uni04E3.ss01" horiz-adv-x="526" 
d="M421 500h30v-500h-30v84q-43 -90 -161 -90q-87 0 -136 58.5t-49 165.5v282h30v-282q0 -93 41 -143.5t114 -50.5q161 0 161 187v289zM388 612h-249v30h249v-30z" />
    <glyph glyph-name="afii10193.ss01" horiz-adv-x="526" 
d="M275 -117h-30v112q-81 5 -125.5 63t-44.5 160v282h30v-282q0 -93 41 -143.5t114 -50.5q161 0 161 187v289h30v-500h-30v84q-41 -83 -146 -89v-112z" />
    <glyph glyph-name="aacute.ss01" horiz-adv-x="511" 
d="M50 210v82q0 214 190 214q126 0 166 -81v75h30v-500h-30v75q-40 -81 -166 -81q-190 0 -190 216zM240 24q91 0 128.5 45.5t37.5 139.5v82q0 92 -39 138.5t-127 46.5q-160 0 -160 -184v-82q0 -186 160 -186zM269 567h-30l80 158h35z" />
    <glyph glyph-name="agrave.ss01" horiz-adv-x="511" 
d="M50 210v82q0 214 190 214q126 0 166 -81v75h30v-500h-30v75q-40 -81 -166 -81q-190 0 -190 216zM240 24q91 0 128.5 45.5t37.5 139.5v82q0 92 -39 138.5t-127 46.5q-160 0 -160 -184v-82q0 -186 160 -186zM170 725h35l80 -158h-30z" />
    <glyph glyph-name="afii10091.ss01" horiz-adv-x="782" 
d="M737 0h-70v84q-33 -90 -136 -90q-109 0 -146 115q-36 -115 -150 -115q-77 0 -118.5 58.5t-41.5 165.5v282h30v-282q0 -94 33.5 -144t96.5 -50q136 0 136 185v291h30v-282q0 -94 33.5 -144t96.5 -50q136 0 136 185v291h30v-470h70v-147h-30v117z" />
    <glyph glyph-name="afii10090.ss01" horiz-adv-x="772" 
d="M667 500h30v-500h-30v84q-33 -90 -136 -90q-109 0 -146 115q-36 -115 -150 -115q-77 0 -118.5 58.5t-41.5 165.5v282h30v-282q0 -94 33.5 -144t96.5 -50q136 0 136 185v291h30v-282q0 -94 33.5 -144t96.5 -50q136 0 136 185v291z" />
    <glyph glyph-name="afii10088.ss01" horiz-adv-x="536" 
d="M421 500h30v-470h70v-147h-30v117h-70v84q-43 -90 -161 -90q-87 0 -136 58.5t-49 165.5v282h30v-282q0 -93 41 -143.5t114 -50.5q161 0 161 187v289z" />
    <glyph glyph-name="uni2193.ss02" horiz-adv-x="846" 
d="M423 -103l-353 353l21 22l317 -318v671h30v-671l317 318l21 -22z" />
    <glyph glyph-name="egrave.ss01" 
d="M238 237h-158v-23q0 -90 44.5 -140t131.5 -50q94 0 142 66l25 -17q-55 -79 -167 -79q-98 0 -152 56.5t-54 159.5v82q0 104 52.5 159t148.5 55q80 0 127.5 -36.5t47.5 -98.5q0 -63 -50 -98.5t-138 -35.5zM80 292v-25h158q76 0 117 27t41 77q0 49 -39 77t-106 28
q-82 0 -126.5 -47t-44.5 -137zM160 725h35l80 -158h-30z" />
    <glyph glyph-name="aring.ss01" horiz-adv-x="511" 
d="M50 210v82q0 214 190 214q126 0 166 -81v75h30v-500h-30v75q-40 -81 -166 -81q-190 0 -190 216zM240 24q91 0 128.5 45.5t37.5 139.5v82q0 92 -39 138.5t-127 46.5q-160 0 -160 -184v-82q0 -186 160 -186zM149 646q0 46 32 78t77 32q46 0 78 -32t32 -78q0 -45 -32 -77
t-78 -32q-45 0 -77 32t-32 77zM179 646q0 -32 23.5 -55.5t55.5 -23.5q34 0 57 23.5t23 55.5q0 34 -23 57t-57 23q-32 0 -55.5 -23t-23.5 -57z" />
    <glyph glyph-name="adieresis.ss01" horiz-adv-x="511" 
d="M50 210v82q0 214 190 214q126 0 166 -81v75h30v-500h-30v75q-40 -81 -166 -81q-190 0 -190 216zM240 24q91 0 128.5 45.5t37.5 139.5v82q0 92 -39 138.5t-127 46.5q-160 0 -160 -184v-82q0 -186 160 -186zM379 690v-44h-44v44h44zM169 690v-44h-44v44h44z" />
    <glyph glyph-name="atilde.ss01" horiz-adv-x="511" 
d="M50 210v82q0 214 190 214q126 0 166 -81v75h30v-500h-30v75q-40 -81 -166 -81q-190 0 -190 216zM240 24q91 0 128.5 45.5t37.5 139.5v82q0 92 -39 138.5t-127 46.5q-160 0 -160 -184v-82q0 -186 160 -186zM315 608q-26 0 -61 16q-36 17 -55 17q-38 0 -71 -33l-23 19
q42 44 94 44q22 0 58 -17q35 -16 57 -16q42 0 70 33l23 -19q-38 -44 -92 -44z" />
    <glyph glyph-name="acircumflex.ss01" horiz-adv-x="511" 
d="M50 210v82q0 214 190 214q126 0 166 -81v75h30v-500h-30v75q-40 -81 -166 -81q-190 0 -190 216zM240 24q91 0 128.5 45.5t37.5 139.5v82q0 92 -39 138.5t-127 46.5q-160 0 -160 -184v-82q0 -186 160 -186zM124 558l108 142h32l108 -142h-38l-86 113l-86 -113h-38z" />
    <glyph glyph-name="afii10084.ss01" horiz-adv-x="792" 
d="M105 0h-30v500h30v-84q16 43 53 66.5t88 23.5q110 0 150 -117q36 117 156 117q78 0 121.5 -58.5t43.5 -165.5v-282h-30v282q0 93 -35.5 143.5t-99.5 50.5q-135 0 -141 -177v-299h-30v282q0 93 -35.5 143.5t-99.5 50.5q-138 0 -141 -185v-291z" />
    </font>
</defs>
</svg>
