<?xml version="1.0" standalone="no"?>
<!DOCTYPE svg PUBLIC "-//W3C//DTD SVG 1.1//EN" "http://www.w3.org/Graphics/SVG/1.1/DTD/svg11.dtd" >
<svg xmlns="http://www.w3.org/2000/svg" xmlns:xlink="http://www.w3.org/1999/xlink" version="1.1">
<metadata>
Created by FontForge 20190801 at Wed Oct 10 21:31:45 2012
 By Jimmy Wärting
Copyright 1990, 1991, 1992, 1994, 1997, 1998, 2000, 2002, 2004 Adobe Systems Incorporated. All rights reserved. Minion is either a registered trademark or a trademark of Adobe Systems Incorporated in the United States and/or other countries.
</metadata>
<defs>
<font id="MinionPro-It" horiz-adv-x="400" >
  <font-face 
    font-family="Minion Pro"
    font-weight="400"
    font-style="italic"
    font-stretch="normal"
    units-per-em="1000"
    panose-1="2 4 5 3 5 3 6 9 2 3"
    ascent="727"
    descent="-273"
    x-height="449"
    cap-height="649"
    bbox="-201 -360 1684 1002"
    underline-thickness="50"
    underline-position="-100"
    slope="-12"
    stemh="34"
    stemv="77"
    unicode-range="U+0020-FB06"
  />
<missing-glyph horiz-adv-x="500" 
d="M0 0v700h500v-700h-500zM250 395l170 255h-340zM280 350l170 -255v510zM80 50h340l-170 255zM50 605v-510l170 255z" />
    <glyph glyph-name="T_h" unicode="Th" horiz-adv-x="1033" 
d="M986 107l12 -23c-54 -61 -117 -96 -145 -96c-25 0 -31 28 -16 96l54 235c12 51 9 68 -8 68c-42 0 -160 -112 -209 -195c-11 -44 -30 -132 -39 -185c-23 -4 -50 -11 -71 -19l-8 8c38 170 89 408 128 610c-56 5 -108 9 -174 9h-67l-101 -485c-19 -90 -10 -96 82 -103
l-6 -27h-277l6 27c85 7 92 13 112 103l106 485h-72c-85 0 -109 -9 -128 -31c-15 -18 -31 -46 -50 -88h-30c18 58 36 123 47 178h21c10 -23 19 -25 46 -25h387c89 0 103 3 111 19l4 20c21 11 56 25 70 25c9 0 10 -8 5 -33c-32 -139 -59 -270 -91 -417h2
c71 92 147 144 188 166c27 14 48 20 64 20c28 0 51 -18 30 -110l-55 -241c-7 -29 -5 -36 2 -36c10 0 42 19 70 45z" />
    <glyph glyph-name="f_b" unicode="fb" horiz-adv-x="757" 
d="M330 433l-19 -31l-100 -9c-19 -108 -29 -172 -51 -281c-35 -174 -70 -249 -125 -307c-44 -47 -85 -62 -111 -62c-27 0 -60 19 -60 42c0 13 13 32 28 44c8 7 13 6 19 0c15 -15 41 -25 60 -25c16 0 31 8 41 20c13 15 36 56 70 256c22 132 35 217 52 314h-81l-3 11l29 28h63
c15 76 45 153 98 207c40 40 103 72 147 72c36 0 62 -11 79 -25c16 8 49 25 65 25c9 0 9 -10 4 -30c-33 -138 -60 -255 -86 -377h2c85 100 169 144 215 144c45 0 71 -43 71 -110c0 -110 -65 -236 -152 -295c-61 -41 -115 -56 -153 -56c-33 0 -65 18 -80 43
c-15 24 -18 60 -5 127c32 154 65 309 100 462c-20 32 -52 52 -85 52c-63 0 -112 -62 -143 -239h111zM619 392c-37 0 -103 -45 -180 -149c-6 -18 -12 -43 -18 -82c-18 -98 19 -125 61 -125c19 0 40 6 55 15c59 35 117 149 117 271c0 50 -14 70 -35 70z" />
    <glyph glyph-name="f_f" unicode="ff" horiz-adv-x="530" 
d="M76 433h65c12 53 34 121 88 175c43 44 114 80 179 80c49 0 83 -24 97 -42c41 39 92 66 133 66c33 0 59 -23 58 -42c0 -12 -10 -30 -25 -42c-9 -7 -19 -6 -27 1c-19 21 -41 30 -61 30c-42 0 -70 -40 -100 -226h111l-19 -30l-99 -8c-18 -97 -27 -158 -44 -244
c-35 -185 -75 -260 -141 -321c-45 -42 -106 -62 -141 -62c-38 0 -79 9 -113 42c-33 -35 -79 -67 -117 -67c-28 0 -59 16 -59 38c0 12 13 30 23 39c7 7 18 15 28 8c16 -12 40 -22 57 -22c18 0 31 7 42 22c14 17 38 61 69 239c24 146 38 232 54 328h-83l-3 11zM218 433h188
c11 63 30 121 60 164c-18 29 -57 49 -97 49c-91 0 -126 -74 -151 -213zM398 395h-188c-19 -111 -31 -186 -50 -282c-26 -135 -52 -201 -83 -251c20 -25 66 -44 102 -44c44 0 75 15 93 38c19 22 48 71 76 239c22 130 36 215 50 300z" />
    <glyph glyph-name="f_f_b" unicode="ffb" horiz-adv-x="1019" 
d="M591 433l-19 -32l-98 -8c-17 -98 -26 -158 -42 -241c-35 -192 -78 -265 -142 -323c-45 -42 -105 -61 -141 -61c-33 0 -75 9 -107 45c-37 -38 -86 -70 -123 -70c-26 0 -57 16 -57 38c1 11 11 28 22 37c7 8 18 18 29 11c16 -11 37 -22 57 -22c17 0 32 7 43 21
c14 18 37 59 66 240c25 149 38 230 54 325h-84l-3 11l29 29h65c12 52 34 121 88 176c43 45 113 79 173 79c51 0 85 -23 101 -47c45 45 104 71 149 71c31 0 61 -11 78 -25c16 8 49 25 65 25c9 0 9 -10 4 -30c-33 -138 -60 -255 -86 -377h2c86 100 168 144 213 144
s73 -43 73 -110c0 -109 -66 -237 -153 -296c-61 -41 -114 -55 -152 -55c-33 0 -65 18 -80 43c-15 24 -18 61 -5 127c32 154 66 308 100 461c-19 32 -53 54 -87 54c-62 -1 -111 -59 -141 -240h109zM882 392c-34 0 -102 -44 -180 -149c-6 -18 -12 -43 -18 -82
c-18 -98 18 -126 60 -126c18 0 39 7 54 16c59 35 119 149 119 271c0 50 -15 70 -35 70zM217 433h188c12 64 32 120 59 160c-19 32 -52 55 -100 55c-73 0 -118 -57 -147 -215zM397 393h-188c-19 -109 -28 -172 -50 -283c-27 -134 -51 -197 -82 -245c24 -27 67 -47 102 -47
c44 0 74 15 92 38c19 21 44 58 78 246c21 121 35 209 48 291z" />
    <glyph glyph-name="f_f_h" unicode="ffh" horiz-adv-x="1055" 
d="M1010 108l11 -24c-54 -60 -116 -96 -144 -96c-25 0 -31 28 -16 96l54 235c12 51 9 68 -8 68c-42 0 -159 -112 -210 -195c-10 -44 -30 -132 -39 -185c-23 -4 -49 -11 -71 -19l-7 8c43 192 87 404 131 625c-20 30 -54 52 -89 52c-65 0 -110 -63 -140 -240h110l-20 -32
l-97 -8c-18 -97 -27 -159 -44 -245c-35 -187 -79 -261 -142 -319c-44 -42 -102 -61 -140 -61c-33 0 -75 9 -108 45c-35 -38 -84 -70 -121 -70c-26 0 -58 15 -58 37c0 12 11 31 22 41c7 8 18 14 29 7c16 -10 37 -22 57 -22c17 0 31 7 43 22c13 17 36 60 66 241
c24 148 38 229 54 324h-83l-4 11l29 29h65c12 52 36 120 89 175c43 45 112 80 172 80c52 0 87 -24 103 -44c40 42 103 68 149 68c30 0 60 -11 79 -26c17 9 48 26 62 26c9 -1 9 -10 4 -29l-90 -423h2c73 95 148 148 190 169c26 14 47 20 63 20c27 0 51 -18 30 -110l-56 -240
c-6 -29 -6 -36 2 -37c10 -1 43 20 71 46zM217 433h188c12 64 32 120 61 162c-17 28 -49 53 -99 53c-78 0 -122 -60 -150 -215zM397 393h-188c-19 -110 -29 -174 -51 -283c-27 -133 -50 -197 -80 -245c22 -27 67 -48 103 -48c43 0 71 16 89 39c17 21 46 58 79 246
c21 121 35 209 48 291z" />
    <glyph glyph-name="f_f_i" unicode="ffi" horiz-adv-x="791" 
d="M743 111l13 -22c-33 -43 -114 -101 -150 -101c-16 0 -37 12 -16 104c19 75 37 154 55 236c14 59 7 66 -45 66h-124c-17 -96 -26 -157 -43 -239c-35 -189 -77 -270 -150 -332c-39 -36 -93 -56 -130 -56c-34 0 -75 11 -107 45c-31 -36 -83 -69 -123 -69
c-28 0 -60 16 -59 38c0 12 12 30 24 41c8 8 18 13 27 6c18 -13 38 -22 57 -22c18 0 32 7 43 21c14 18 37 70 65 242c25 148 38 231 54 326h-83l-3 9l28 29h65c13 55 36 119 93 177c41 44 109 78 170 78c52 0 87 -24 102 -44c42 43 95 68 150 68c78 0 102 -48 102 -68
c0 -17 -12 -34 -33 -43c-23 -9 -37 -5 -41 13c-9 35 -26 63 -63 63c-76 0 -116 -107 -139 -244h116c65 0 98 5 126 14c20 1 17 -34 7 -73c-21 -83 -40 -165 -64 -264c-9 -40 -6 -49 1 -49c11 0 49 24 75 50zM218 433h187c13 63 33 120 63 164c-19 31 -57 52 -96 52
c-78 0 -125 -60 -154 -216zM399 395h-188c-20 -110 -32 -188 -50 -284c-25 -134 -48 -197 -78 -247c19 -27 60 -46 100 -46c41 0 70 15 88 39c19 22 49 74 76 231c24 136 38 228 52 307z" />
    <glyph glyph-name="f_f_j" unicode="ffj" horiz-adv-x="764" 
d="M73 433h65c13 55 34 119 91 177c41 42 109 78 172 78c52 0 87 -24 102 -44c43 43 95 68 149 68c78 0 103 -47 103 -67c0 -19 -14 -38 -35 -46c-23 -9 -34 -3 -39 14c-10 37 -26 61 -62 61c-76 0 -117 -103 -141 -241h118c66 0 101 8 127 13c12 -8 15 -21 5 -71
c-17 -78 -39 -191 -57 -284c-25 -120 -65 -210 -119 -261c-49 -48 -89 -63 -107 -63c-19 0 -43 12 -43 31c0 15 13 34 25 44c6 6 13 9 21 4c14 -8 31 -14 48 -14c27 0 50 27 69 109c19 79 42 199 79 391c10 54 7 62 -45 62h-127c-17 -96 -27 -157 -43 -239
c-35 -196 -75 -267 -141 -327c-43 -40 -101 -61 -136 -61s-76 11 -112 46c-35 -39 -86 -70 -123 -70c-25 0 -55 13 -55 34c0 13 12 31 22 40c6 7 17 15 29 9c15 -10 36 -21 55 -21c18 0 32 9 43 23c14 17 34 55 64 240c24 147 39 230 55 327h-82l-3 9zM213 433h188
c13 61 33 120 64 164c-20 31 -58 51 -97 51c-78 0 -125 -59 -155 -215zM394 395h-188c-20 -110 -31 -187 -50 -284c-25 -134 -50 -201 -80 -247c22 -27 65 -46 103 -46c47 0 72 14 92 39c18 20 46 77 73 234c23 136 37 225 50 304z" />
    <glyph glyph-name="f_f_k" unicode="ffk" horiz-adv-x="1006" 
d="M699 236c31 37 58 63 86 91c56 58 129 122 175 122c28 0 42 -16 42 -31c0 -12 -10 -30 -20 -40c-6 -5 -12 -7 -16 -5c-9 4 -21 8 -38 8c-47 0 -101 -52 -129 -84c18 -63 58 -151 81 -195c19 -37 29 -49 39 -49c11 0 34 17 58 47l17 -21c-48 -75 -89 -91 -110 -91
s-40 12 -66 66c-24 51 -51 115 -76 186c-26 -28 -46 -50 -56 -67c-12 -54 -23 -109 -33 -166c-26 -5 -52 -11 -72 -19l-6 6c46 204 91 407 137 631c-19 27 -51 47 -88 47c-63 0 -110 -53 -142 -239h110l-20 -32l-97 -8c-17 -98 -26 -159 -42 -241
c-37 -191 -77 -264 -141 -322c-45 -42 -107 -62 -142 -62s-75 9 -109 45c-35 -38 -85 -70 -121 -70c-26 0 -57 14 -57 36c0 12 13 30 23 39c6 7 17 15 28 8c16 -10 37 -21 56 -21c17 0 32 8 44 22c13 17 36 61 65 240c25 148 38 231 54 326h-83l-3 11l28 29h65
c12 53 36 120 90 176c43 45 113 79 172 79c53 0 87 -25 102 -44c42 40 105 68 148 68c30 0 62 -11 80 -26c17 9 48 26 62 26c9 0 9 -9 5 -27c-34 -150 -67 -298 -100 -449zM218 433h187c13 64 32 121 60 163c-19 29 -50 51 -99 51c-75 0 -120 -57 -148 -214zM397 393h-187
c-19 -110 -29 -173 -50 -282c-27 -135 -50 -199 -80 -248c22 -26 66 -46 102 -46c43 0 72 17 90 40c19 21 45 57 76 238c22 127 36 212 49 298z" />
    <glyph glyph-name="f_f_l" unicode="ffl" horiz-adv-x="793" 
d="M594 433l-21 -31l-97 -9c-17 -96 -26 -155 -43 -239c-36 -193 -77 -271 -150 -332c-39 -35 -93 -55 -129 -55c-34 0 -76 10 -111 45c-32 -36 -83 -69 -123 -69c-28 0 -59 15 -59 37c0 12 12 31 24 42c9 8 18 12 28 5c17 -12 38 -22 56 -22c19 0 34 7 45 22
c14 17 36 56 67 242c24 147 37 231 53 326h-83l-3 10l28 28h65c12 54 35 120 90 176c41 43 110 79 173 79c53 0 86 -24 103 -45c41 41 110 69 156 69c28 0 61 -12 75 -24c21 11 46 24 57 24c8 0 10 -12 3 -39c-42 -189 -83 -380 -119 -569c-7 -36 -3 -44 5 -44
c10 0 50 28 75 54l15 -22c-48 -59 -120 -104 -151 -104c-19 0 -37 22 -17 119c37 174 75 356 109 521c-11 16 -37 43 -86 43c-82 0 -124 -100 -146 -238h111zM218 433h188c12 62 29 117 61 164c-17 29 -56 51 -98 51c-72 0 -121 -50 -151 -215zM399 395h-188
c-20 -110 -32 -188 -50 -285c-25 -134 -49 -200 -79 -245c21 -27 62 -47 102 -47c41 0 73 16 91 39c20 23 47 76 73 231c24 137 38 228 51 307z" />
    <glyph glyph-name="f_f_t" unicode="fft" horiz-adv-x="826" 
d="M858 433l-26 -35l-101 -5l-58 -275c-10 -46 -5 -60 6 -60c18 0 67 34 90 58l13 -23c-31 -38 -109 -106 -159 -106c-24 0 -44 30 -22 133l59 273h-186c-18 -99 -31 -175 -46 -250c-33 -180 -73 -252 -137 -312c-45 -43 -106 -63 -144 -63c-34 0 -76 10 -107 44
c-36 -37 -85 -69 -122 -69c-26 0 -57 17 -57 39c1 12 11 31 22 41c8 7 18 14 29 6c16 -11 37 -22 57 -22c18 0 32 7 44 21c13 17 36 58 66 238c24 146 37 232 53 327h-83l-4 10l29 30h66c11 52 33 117 87 172c43 45 115 83 175 83c50 0 82 -23 98 -47c41 44 97 71 143 71
c37 0 62 -25 62 -43c0 -16 -14 -35 -26 -44c-9 -6 -17 -7 -23 0c-20 22 -41 37 -72 37c-43 1 -76 -63 -103 -229h188l19 78l75 63l9 -7l-31 -134h117zM217 433h187c12 66 31 120 57 160c-19 33 -56 54 -97 54c-75 0 -122 -66 -147 -214zM396 393h-187
c-20 -112 -29 -174 -50 -283c-25 -134 -49 -198 -80 -246c19 -26 61 -47 98 -47c43 0 73 15 91 38c20 21 47 66 78 239c23 126 37 217 50 299z" />
    <glyph glyph-name="f_h" unicode="fh" horiz-adv-x="789" 
d="M745 108l13 -24c-55 -60 -117 -96 -145 -96c-25 0 -31 28 -16 96l54 233c11 51 9 70 -9 70c-42 0 -158 -111 -208 -194c-10 -44 -30 -133 -40 -186c-22 -4 -49 -11 -71 -19l-7 8c44 192 87 404 131 626c-19 30 -54 48 -89 48c-64 0 -109 -56 -141 -237h111l-20 -30
l-98 -10c-19 -111 -28 -172 -51 -283c-36 -172 -72 -248 -128 -306c-44 -47 -85 -61 -112 -61s-59 19 -59 42c0 13 13 32 27 44c8 7 13 6 20 0c15 -15 41 -27 59 -27c17 0 32 8 42 20c23 24 44 86 72 252c23 138 37 223 53 321h-82l-3 10l29 28h64c15 78 46 151 99 205
c41 43 103 74 150 74c31 0 60 -11 77 -25c16 8 48 25 62 25c10 0 10 -10 6 -29l-90 -421h2c73 94 147 145 188 167c26 14 48 20 65 20c27 0 50 -18 29 -110l-56 -241c-6 -29 -5 -36 2 -36c10 0 42 20 70 46z" />
    <glyph glyph-name="f_i" unicode="fi" horiz-adv-x="531" 
d="M480 112l15 -21c-30 -39 -111 -103 -152 -103c-18 0 -37 13 -17 98c19 78 38 160 57 243c14 58 9 66 -41 66h-131c-20 -114 -30 -178 -51 -273c-39 -179 -70 -254 -126 -313c-46 -51 -90 -66 -116 -66c-28 0 -58 18 -57 40c0 13 12 31 28 45c8 6 14 5 20 0
c14 -12 36 -22 57 -22c20 0 33 8 43 19c14 14 38 59 72 252c22 132 36 218 53 318h-79l-3 11l29 27h61c17 81 50 161 108 214c37 34 90 65 145 65c76 0 97 -45 97 -65s-14 -41 -36 -46c-22 -7 -31 -2 -34 12c-9 38 -27 60 -62 60c-72 0 -114 -92 -141 -240h112
c62 0 103 6 132 13c13 0 15 -28 4 -72c-21 -86 -41 -169 -65 -268c-8 -35 -6 -45 3 -45c10 0 50 27 75 51z" />
    <glyph glyph-name="f_j" unicode="fj" horiz-adv-x="501" 
d="M76 433h61c18 81 51 162 109 215c37 34 90 64 145 64c77 0 97 -46 97 -66s-12 -40 -34 -45c-22 -8 -34 -3 -37 11c-8 37 -27 63 -61 63c-72 0 -115 -95 -141 -242h111c62 0 102 5 131 13c14 0 14 -28 4 -79c-15 -75 -37 -183 -55 -276c-25 -120 -64 -209 -118 -260
c-49 -47 -89 -64 -107 -64c-19 0 -44 13 -44 32c0 13 13 34 25 45c7 6 14 9 22 4c14 -8 32 -15 49 -15c29 0 47 25 67 108c20 80 42 197 79 388c11 55 10 66 -40 66h-132c-21 -115 -31 -176 -52 -271c-39 -181 -70 -256 -125 -315c-47 -51 -91 -66 -117 -66
c-27 0 -57 17 -56 39c0 13 12 31 28 45c8 6 13 5 19 0c14 -12 36 -22 56 -22c19 0 33 7 43 18c14 15 38 60 71 254c23 132 38 217 55 318h-78l-3 10z" />
    <glyph glyph-name="f_k" unicode="fk" horiz-adv-x="747" 
d="M437 238c32 37 57 62 85 91c59 59 126 120 176 120c27 0 41 -16 41 -31c0 -12 -8 -29 -19 -39c-6 -6 -11 -8 -16 -6c-8 4 -21 7 -38 7c-47 0 -102 -51 -131 -83c19 -62 59 -152 83 -195c19 -38 29 -49 39 -49c11 0 33 17 58 47l17 -21c-48 -75 -89 -91 -110 -91
s-40 12 -66 66c-24 51 -53 117 -78 186c-26 -28 -45 -48 -54 -65c-12 -54 -23 -111 -33 -168c-26 -5 -52 -11 -72 -19l-6 6c46 204 91 406 138 630c-20 29 -56 49 -89 49c-63 0 -112 -61 -144 -240h110l-20 -32l-98 -10c-20 -112 -29 -172 -51 -281
c-36 -174 -72 -247 -127 -305c-44 -47 -86 -62 -112 -62c-27 0 -60 19 -60 42c0 13 12 32 27 44c8 6 13 5 20 0c16 -14 41 -25 59 -25c17 0 31 7 41 19c13 15 39 57 73 251c23 138 37 221 54 319h-83l-3 10l30 30h64c15 76 46 153 99 206c41 41 103 73 149 73
c36 0 62 -11 79 -25c16 8 47 25 62 25c10 0 10 -9 5 -28c-33 -148 -66 -296 -99 -446z" />
    <glyph glyph-name="f_l" unicode="fl" horiz-adv-x="525" 
d="M330 433l-20 -31l-99 -9c-20 -110 -29 -173 -52 -288c-33 -165 -67 -240 -124 -299c-44 -47 -88 -63 -115 -63c-26 0 -56 19 -56 42c0 14 12 32 28 43c8 6 13 5 20 0c14 -13 37 -23 57 -23c19 0 34 9 44 20c14 15 37 63 70 256c22 131 34 214 51 313h-80l-3 11l29 28h62
c13 77 41 148 97 204c43 43 108 75 158 75c33 0 61 -12 74 -25c19 11 45 25 56 25c8 0 9 -13 5 -29c-42 -193 -83 -388 -122 -583c-6 -32 -3 -39 5 -39c11 0 52 28 77 56l14 -22c-45 -62 -121 -107 -151 -107c-20 0 -36 23 -14 127c49 233 65 314 107 513
c-11 18 -41 43 -81 43c-87 0 -126 -101 -148 -238h111z" />
    <glyph glyph-name="f_t" unicode="ft" horiz-adv-x="567" 
d="M598 433l-27 -35l-100 -5l-58 -275c-11 -48 -5 -59 5 -59c17 0 65 31 89 56l14 -22c-32 -39 -108 -106 -160 -106c-23 0 -43 30 -20 133l58 273h-188c-20 -110 -29 -171 -49 -268c-37 -184 -69 -260 -124 -318c-45 -48 -89 -64 -114 -64c-28 0 -58 18 -58 40
c0 13 13 32 29 46c7 7 13 6 19 0c14 -11 38 -24 58 -24s32 8 42 19c14 15 36 63 68 254c22 133 35 216 52 315h-79l-3 11l29 29h61c16 83 45 152 95 204c40 42 94 75 142 75c38 0 63 -27 62 -45c0 -15 -14 -35 -27 -44c-8 -6 -16 -7 -22 0c-21 22 -44 37 -70 37
c-44 0 -76 -61 -104 -227h190l19 80l75 63l9 -7l-31 -136h118z" />
    <glyph glyph-name="longs_b" unicode="&#x17f;b" horiz-adv-x="713" 
d="M409 306h2c86 99 167 143 212 143s72 -43 72 -109c0 -110 -63 -238 -150 -297c-62 -41 -114 -55 -151 -55c-34 0 -67 18 -82 43c-14 24 -18 60 -4 127c27 133 61 281 99 466c-16 29 -47 49 -77 49c-55 0 -105 -55 -146 -314c-13 -81 -29 -181 -47 -273
c-30 -157 -65 -226 -120 -282c-47 -49 -89 -61 -114 -61c-29 0 -61 22 -61 44c0 13 12 31 27 43c9 8 14 7 20 1c16 -14 42 -27 62 -27c18 0 31 7 44 20c15 14 37 58 67 254c17 112 30 196 42 266c24 134 58 228 112 289c37 47 97 79 143 79c32 0 58 -12 72 -24
c22 13 48 24 59 24c9 0 11 -8 5 -29c-33 -139 -60 -255 -86 -377zM578 392c-35 0 -104 -48 -179 -149c-5 -18 -11 -42 -18 -81c-18 -97 19 -128 62 -128c19 0 37 7 52 16c59 35 117 150 117 272c0 50 -14 70 -34 70z" />
    <glyph glyph-name="longs_h" unicode="&#x17f;h" horiz-adv-x="751" 
d="M707 108l12 -24c-54 -60 -116 -96 -145 -96c-25 0 -31 28 -16 96l54 235c12 51 10 69 -8 69c-42 0 -157 -112 -206 -196c-11 -43 -30 -132 -40 -185c-23 -4 -49 -11 -71 -19l-7 8c43 189 87 396 132 627c-16 31 -49 50 -79 50c-55 0 -110 -55 -149 -314
c-12 -81 -28 -180 -47 -273c-30 -157 -64 -226 -119 -281c-47 -49 -90 -62 -115 -62c-29 0 -62 22 -61 44c0 13 11 30 26 42c9 8 15 7 21 1c15 -14 42 -26 62 -26c19 0 31 7 44 19c15 15 37 59 67 255c17 112 29 195 41 265c23 134 59 229 113 290c37 46 102 79 147 79
c34 0 58 -12 72 -24c20 13 47 24 58 24c9 0 10 -8 6 -27l-90 -422h2c72 93 145 144 186 166c26 14 47 20 63 20c27 0 51 -18 30 -110l-55 -241c-7 -29 -5 -35 2 -36c10 0 42 20 70 46z" />
    <glyph glyph-name="longs_i" unicode="&#x17f;i" horiz-adv-x="494" 
d="M358 712c75 0 95 -44 94 -65c0 -17 -11 -35 -35 -44c-22 -8 -31 -4 -35 12c-6 36 -26 58 -57 58c-51 -1 -100 -55 -139 -301c-16 -96 -32 -200 -52 -296c-31 -150 -63 -215 -119 -271c-48 -49 -90 -62 -115 -62c-29 0 -62 23 -61 44c0 14 12 30 26 42c10 8 15 7 21 2
c16 -15 42 -27 62 -27c18 0 32 7 44 20c15 15 38 60 68 248c18 113 31 196 44 267c24 137 61 236 114 297c39 45 91 76 140 76zM448 109l12 -21c-33 -41 -110 -100 -146 -100c-19 0 -34 16 -13 98l63 256c6 22 7 32 0 32c-8 0 -39 -19 -69 -43l-12 24c55 53 123 94 151 94
c22 0 23 -31 11 -79l-70 -275c-6 -25 -5 -33 2 -33c12 0 47 26 71 47z" />
    <glyph glyph-name="longs_k" unicode="&#x17f;k" horiz-adv-x="711" 
d="M400 239l2 -1c31 37 57 62 85 90c56 57 128 121 175 121c27 0 41 -16 41 -31c0 -12 -8 -29 -19 -39c-6 -6 -11 -7 -16 -6c-8 5 -20 8 -37 8c-47 0 -103 -51 -131 -82c19 -63 59 -153 82 -197c19 -37 28 -49 39 -49s32 17 57 46l17 -20c-47 -74 -88 -91 -109 -91
s-40 12 -66 66c-24 51 -51 116 -76 187c-27 -28 -46 -50 -56 -67c-12 -54 -23 -110 -33 -167c-26 -5 -51 -11 -72 -19l-6 6c46 204 91 406 138 632c-15 28 -45 47 -78 47c-59 0 -111 -57 -152 -315c-13 -81 -29 -180 -48 -276c-30 -152 -63 -220 -119 -277
c-47 -49 -90 -62 -115 -62c-29 0 -61 22 -61 44c0 13 11 30 26 42c9 8 15 7 21 1c15 -14 41 -26 61 -26c18 0 32 7 44 19c16 15 38 62 68 255c17 112 30 194 43 263c25 139 60 230 114 291c39 47 98 80 142 80c38 0 62 -12 76 -24c21 13 47 24 58 24c9 0 10 -7 6 -26
c-33 -150 -67 -297 -101 -447z" />
    <glyph glyph-name="longs_l" unicode="&#x17f;l" horiz-adv-x="492" 
d="M459 117l14 -22c-50 -62 -122 -107 -153 -107c-19 0 -36 23 -15 121c36 170 72 340 108 513c-20 35 -50 51 -77 51c-57 0 -111 -55 -149 -306c-13 -84 -30 -189 -48 -280c-31 -158 -64 -225 -119 -281c-47 -48 -90 -63 -115 -63c-29 0 -62 22 -62 44c0 13 13 30 27 42
c9 7 15 7 21 1c15 -15 41 -27 62 -27c18 0 31 8 43 20c16 15 37 59 67 251c18 116 30 198 41 259c25 145 60 239 115 301c37 45 98 78 142 78c34 0 59 -12 73 -25c21 13 48 25 59 25c9 0 10 -9 6 -27c-41 -194 -82 -388 -124 -585c-6 -30 -2 -38 4 -38c12 0 51 26 80 55z
" />
    <glyph glyph-name="longs_longs" unicode="&#x17f;&#x17f;" horiz-adv-x="482" 
d="M603 712c33 0 59 -25 58 -43c-1 -13 -12 -32 -26 -42c-8 -6 -19 -5 -26 2c-16 18 -40 31 -59 31c-41 0 -72 -47 -108 -282c-11 -72 -26 -176 -43 -260c-31 -160 -68 -233 -134 -293c-44 -40 -98 -57 -135 -57c-38 0 -74 13 -104 46c-37 -40 -85 -71 -125 -71
c-27 0 -57 17 -58 38c0 13 12 30 22 39c9 7 18 14 26 9c15 -12 38 -25 58 -25c19 0 33 9 44 19c16 16 40 63 69 250c16 111 28 191 36 235c24 145 62 244 127 309c34 34 91 71 147 71c50 0 84 -20 100 -44c39 38 86 68 131 68zM162 -183c41 0 68 13 85 35
c20 23 46 71 75 249c15 92 28 176 39 248c20 123 43 196 75 245c-21 32 -57 54 -94 54c-67 0 -124 -58 -165 -326c-13 -85 -23 -159 -41 -250c-20 -102 -43 -166 -72 -208c18 -24 59 -47 98 -47z" />
    <glyph glyph-name="longs_t" unicode="&#x17f;t" horiz-adv-x="530" 
d="M361 712c57 0 80 -36 79 -55c-1 -16 -12 -33 -33 -43c-11 -7 -19 -5 -24 6c-11 26 -35 46 -64 46c-45 -1 -93 -45 -134 -305c-14 -85 -30 -189 -50 -285c-31 -150 -63 -216 -119 -272c-47 -48 -90 -61 -114 -61c-29 0 -62 22 -62 43c0 14 11 29 26 41c9 8 15 7 21 2
c15 -15 42 -26 62 -26c19 0 30 7 43 20c15 15 38 61 68 249c18 110 28 176 41 252c27 150 65 249 119 309c37 44 92 79 141 79zM565 431l-26 -34l-100 -5l-58 -273c-11 -50 -5 -60 5 -60c17 0 65 32 89 58l14 -23c-32 -39 -108 -106 -160 -106c-23 0 -42 29 -20 132l58 272
h-75l-2 9l25 30h61l16 65l75 61l10 -6l-29 -120h117z" />
    <glyph glyph-name="longs_longs_i" unicode="&#x17f;&#x17f;i" horiz-adv-x="751" 
d="M610 712c72 0 95 -45 94 -66c1 -17 -10 -35 -34 -44c-22 -8 -31 -4 -35 12c-9 35 -28 58 -58 58c-56 -1 -98 -71 -135 -301c-12 -76 -25 -166 -42 -248c-30 -162 -71 -238 -138 -299c-44 -41 -95 -56 -131 -56c-38 0 -74 13 -104 46c-36 -40 -84 -71 -124 -71
c-26 0 -58 18 -59 40c0 12 12 30 22 39c8 7 16 13 25 8c15 -12 40 -26 60 -26c19 0 31 8 42 19c16 15 38 62 69 248c19 113 31 184 40 237c23 139 63 244 128 309c33 34 92 71 147 71c51 0 81 -22 97 -45c35 36 87 69 136 69zM161 -184c41 0 66 14 84 37c20 23 49 71 78 251
c15 89 28 173 36 228c21 133 48 208 80 261c-21 34 -53 56 -91 56c-66 0 -126 -62 -170 -342c-12 -75 -23 -139 -41 -233c-20 -103 -45 -168 -73 -210c18 -25 59 -48 97 -48zM703 110l13 -22c-33 -41 -110 -100 -145 -100c-19 0 -34 16 -14 98l64 256c5 22 5 31 -1 31
c-9 0 -39 -17 -69 -42l-12 24c55 53 123 94 150 94c23 0 24 -30 12 -77l-69 -277c-7 -25 -5 -33 1 -33c12 0 46 26 70 48z" />
    <glyph glyph-name="longs_longs_l" unicode="&#x17f;&#x17f;l" horiz-adv-x="755" 
d="M717 117l14 -22c-51 -62 -122 -107 -153 -107c-19 0 -36 23 -15 121c36 170 72 340 108 512c-18 32 -47 53 -81 52c-61 0 -111 -56 -150 -318c-13 -86 -25 -163 -41 -243c-28 -154 -66 -228 -133 -287c-44 -41 -97 -57 -133 -57c-39 0 -75 13 -106 46
c-35 -40 -84 -71 -124 -71c-28 0 -58 19 -59 40c0 13 12 31 22 40c9 7 17 14 26 8c17 -14 38 -26 60 -26c17 0 32 8 43 19c16 15 39 63 67 250c17 111 28 188 36 232c24 148 62 248 127 313c34 34 94 69 150 69c49 0 84 -22 102 -45c34 38 93 69 140 69c35 0 61 -15 74 -26
c17 13 47 26 59 26c9 0 10 -9 7 -26c-42 -195 -82 -389 -124 -586c-6 -30 -3 -39 3 -39c12 0 54 27 81 56zM346 648c-67 0 -127 -55 -171 -344c-10 -64 -22 -141 -39 -227c-22 -108 -41 -170 -70 -213c19 -25 55 -47 99 -47c38 0 66 16 83 38c20 23 47 68 73 235
c17 102 29 181 37 232c20 127 46 212 81 272c-21 32 -56 54 -93 54z" />
    <glyph glyph-name="uni021A_h" unicode="&#x21a;h" horiz-adv-x="1033" 
d="M986 107l12 -23c-54 -61 -117 -96 -145 -96c-25 0 -31 28 -16 96l54 235c12 51 9 68 -8 68c-42 0 -160 -112 -209 -195c-11 -44 -30 -132 -39 -185c-23 -4 -50 -11 -71 -19l-8 8c38 170 89 408 128 610c-56 5 -108 9 -174 9h-67l-101 -485c-19 -90 -10 -96 82 -103
l-6 -27h-277l6 27c85 7 92 13 112 103l106 485h-72c-85 0 -109 -9 -128 -31c-15 -18 -31 -46 -50 -88h-30c18 58 36 123 47 178h21c10 -23 19 -25 46 -25h387c89 0 103 3 111 19l4 20c21 11 56 25 70 25c9 0 10 -8 5 -33c-32 -139 -59 -270 -91 -417h2
c71 92 147 144 188 166c27 14 48 20 64 20c28 0 51 -18 30 -110l-55 -241c-7 -29 -5 -36 2 -36c10 0 42 19 70 45zM278 -29c32 0 58 -26 59 -65c0 -72 -68 -103 -118 -114l-8 27c39 15 67 30 67 58c0 20 -16 29 -35 35c-7 2 -12 7 -12 19c0 23 21 40 47 40z" />
    <glyph glyph-name="Tcaron_h" unicode="&#x164;h" horiz-adv-x="1033" 
d="M986 107l12 -23c-54 -61 -117 -96 -145 -96c-25 0 -31 28 -16 96l54 235c12 51 9 68 -8 68c-42 0 -160 -112 -209 -195c-11 -44 -30 -132 -39 -185c-23 -4 -50 -11 -71 -19l-8 8c38 170 89 408 128 610c-56 5 -108 9 -174 9h-67l-101 -485c-19 -90 -10 -96 82 -103
l-6 -27h-277l6 27c85 7 92 13 112 103l106 485h-72c-85 0 -109 -9 -128 -31c-15 -18 -31 -46 -50 -88h-30c18 58 36 123 47 178h21c10 -23 19 -25 46 -25h387c89 0 103 3 111 19l4 20c21 11 56 25 70 25c9 0 10 -8 5 -33c-32 -139 -59 -270 -91 -417h2
c71 92 147 144 188 166c27 14 48 20 64 20c28 0 51 -18 30 -110l-55 -241c-7 -29 -5 -36 2 -36c10 0 42 19 70 45zM550 813l13 -22c-45 -30 -91 -63 -135 -104h-25c-34 41 -69 73 -104 104l19 22c36 -16 71 -36 106 -58c43 23 84 43 126 58z" />
    <glyph glyph-name=".notdef" horiz-adv-x="500" 
d="M0 0v700h500v-700h-500zM250 395l170 255h-340zM280 350l170 -255v510zM80 50h340l-170 255zM50 605v-510l170 255z" />
    <glyph glyph-name="space" unicode=" " horiz-adv-x="229" 
 />
    <glyph glyph-name="exclam" unicode="!" horiz-adv-x="259" 
d="M223 664c36 0 51 -9 47 -29c-3 -16 -10 -38 -21 -79c-35 -121 -66 -239 -101 -360c-6 -7 -28 -7 -31 0c13 120 26 239 37 359c4 42 7 65 9 81c4 21 23 28 60 28zM99 -12c-30 0 -51 23 -51 55c0 38 26 66 61 66c30 0 52 -24 52 -57c0 -41 -30 -64 -62 -64z" />
    <glyph glyph-name="quotedbl" unicode="&#x22;" horiz-adv-x="345" 
d="M234 710l8 -7c-11 -38 -54 -155 -84 -213l-30 -13c19 104 31 183 32 211zM389 710l8 -7c-11 -37 -54 -155 -84 -213l-30 -13c18 101 31 186 32 211z" />
    <glyph glyph-name="numbersign" unicode="#" horiz-adv-x="477" 
d="M484 455l-11 -59h-92l-41 -139h83l-12 -58h-88l-52 -178h-40l51 178h-110l-52 -178h-40l52 178h-96l13 58h100l41 139h-92l13 59h97l46 157h40l-46 -157h109l47 157h40l-46 -157h86zM341 396h-110l-41 -139h110z" />
    <glyph glyph-name="dollar" unicode="$" horiz-adv-x="477" 
d="M458 453l-29 -3c-3 60 -20 120 -90 137l-44 -230l22 -14c63 -40 113 -84 113 -161c0 -111 -97 -174 -203 -179l-17 -84h-35l17 84c-79 5 -134 40 -151 60c0 17 0 69 -2 137l28 3c10 -66 41 -157 131 -167l48 253l-21 14c-62 37 -111 83 -110 152c0 105 92 164 195 165
l15 76h36l-15 -77c41 -2 85 -22 118 -38c-3 -36 -4 -74 -6 -128zM263 375l41 214c-82 -2 -117 -56 -117 -107c0 -45 26 -76 76 -107zM278 272l-44 -237c76 6 116 59 116 120c0 52 -22 81 -72 117z" />
    <glyph glyph-name="percent" unicode="%" horiz-adv-x="751" 
d="M661 631l-494 -658l-28 24l493 657zM379 498c0 -100 -70 -224 -177 -224c-77 0 -110 65 -110 136c0 100 69 225 177 225c78 0 110 -66 110 -137zM312 526c0 39 -8 79 -48 79c-74 0 -104 -151 -104 -213c0 -38 5 -89 47 -89c78 0 105 166 105 223zM708 213
c0 -100 -71 -225 -178 -225c-76 0 -110 65 -110 136c0 100 70 225 177 225c78 0 111 -65 111 -136zM640 240c0 39 -8 80 -47 80c-75 0 -105 -151 -105 -214c0 -38 5 -89 48 -89c77 0 104 166 104 223z" />
    <glyph glyph-name="ampersand" unicode="&#x26;" horiz-adv-x="762" 
d="M723 406h31c3 -18 3 -40 3 -60c0 -108 -40 -117 -55 -117c-11 0 -29 8 -48 22c-16 11 -45 34 -64 46c-20 -76 -47 -143 -95 -198c-54 -63 -125 -111 -221 -111c-114 0 -209 82 -209 226c0 69 25 140 82 199c34 35 84 68 119 68s57 -31 58 -70c0 -8 0 -12 -3 -26l2 -1
c55 52 126 127 126 209c0 15 -4 28 -6 35c-3 19 15 42 39 42c25 0 40 -23 40 -56c0 -49 -36 -118 -117 -198c-88 -87 -190 -160 -266 -205c16 -99 89 -154 175 -154c119 0 209 106 246 261c-30 19 -52 34 -80 34c-29 0 -44 -20 -44 -45c0 -22 5 -37 10 -46c4 -7 7 -11 7 -17
c-2 -12 -24 -20 -37 -20c-23 0 -41 26 -41 52c0 35 28 66 60 90c27 20 67 36 84 36c46 0 122 -56 157 -84c11 -9 21 -15 28 -15c10 0 18 25 19 103zM228 430c-39 0 -93 -67 -93 -167c0 -6 0 -11 1 -17c30 17 101 66 126 91c3 11 4 19 4 35c1 32 -13 58 -38 58z" />
    <glyph glyph-name="quoteright" unicode="&#x2019;" horiz-adv-x="214" 
d="M114 480l-10 27c48 18 86 46 88 89c2 31 -19 48 -49 56c-6 1 -12 7 -11 17c1 26 25 40 44 40c35 0 80 -34 77 -95c-2 -77 -78 -118 -139 -134z" />
    <glyph glyph-name="parenleft" unicode="(" horiz-adv-x="338" 
d="M373 711l16 -23c-146 -96 -244 -308 -244 -530c0 -103 21 -229 86 -308l-23 -19c-94 75 -132 217 -132 340c1 245 121 451 297 540z" />
    <glyph glyph-name="parenright" unicode=")" horiz-adv-x="333" 
d="M140 692l23 19c98 -75 142 -231 127 -387c-10 -209 -116 -403 -292 -493l-16 23c146 98 229 291 239 484c14 131 -14 279 -81 354z" />
    <glyph glyph-name="asterisk" unicode="*" horiz-adv-x="391" 
d="M431 511v-28l-134 -15l31 -139l-25 -9l-61 134l-126 -68l-14 24l109 84l-98 109l17 21l115 -89l66 130l25 -9l-38 -136z" />
    <glyph glyph-name="plus" unicode="+" horiz-adv-x="596" 
d="M550 230h-210v-230h-57v230h-210v49h210v208h57v-208h210v-49z" />
    <glyph glyph-name="comma" unicode="," horiz-adv-x="235" 
d="M8 -114l-11 29c47 20 85 51 86 90c1 32 -18 52 -46 61c-4 2 -8 6 -8 14c1 27 25 48 49 48c41 0 75 -47 71 -99c-4 -79 -77 -122 -141 -143z" />
    <glyph glyph-name="hyphen" unicode="-" horiz-adv-x="334" 
d="M298 253l-18 -55h-230l18 55h230z" />
    <glyph glyph-name="period" unicode="." horiz-adv-x="235" 
d="M88 -12c-29 0 -49 22 -49 52c0 36 24 62 58 62c28 0 48 -23 48 -53c0 -40 -28 -61 -57 -61z" />
    <glyph glyph-name="slash" unicode="/" horiz-adv-x="322" 
d="M357 664l-322 -709h-53l322 709h53z" />
    <glyph glyph-name="zero" unicode="0" horiz-adv-x="477" 
d="M319 635c118 0 155 -114 152 -226c-3 -160 -85 -421 -267 -421c-117 0 -157 112 -154 233c2 157 91 414 269 414zM314 602c-123 0 -179 -264 -181 -407c-2 -88 13 -174 77 -174c122 0 175 291 178 418c3 77 -10 163 -74 163z" />
    <glyph glyph-name="one" unicode="1" horiz-adv-x="477" 
d="M374 635l-100 -514c-16 -83 -11 -87 86 -95l-7 -26h-275l6 26c90 8 95 11 112 95l73 371c12 59 5 66 -54 66h-34l6 25c64 10 129 27 187 52z" />
    <glyph glyph-name="two" unicode="2" horiz-adv-x="477" 
d="M112 501l64 80c36 33 80 54 130 54c96 0 156 -60 156 -156c0 -102 -77 -172 -189 -268l-159 -139h178c56 0 73 6 113 63l24 -12c-21 -42 -38 -82 -56 -123h-370l1 21c64 54 133 113 200 177c98 95 173 179 173 266c0 59 -30 107 -106 107c-63 0 -108 -53 -138 -91z" />
    <glyph glyph-name="three" unicode="3" horiz-adv-x="477" 
d="M130 522l47 60c28 28 71 53 128 53c86 0 131 -58 131 -121c0 -42 -22 -72 -47 -92c-21 -17 -43 -32 -75 -52v-2c71 -19 117 -70 117 -143c0 -64 -37 -124 -110 -175c-60 -43 -133 -62 -177 -62c-37 0 -77 16 -96 35c-16 15 -21 28 -19 41c1 11 13 25 27 34
c7 5 13 6 20 -1c27 -28 63 -59 121 -59c80 0 146 51 146 163c0 81 -54 119 -114 119c-24 0 -48 -6 -60 -9l-6 27c116 32 191 79 191 156c0 52 -31 84 -85 84s-91 -42 -120 -77z" />
    <glyph glyph-name="four" unicode="4" horiz-adv-x="477" 
d="M461 222l-9 -43h-95l-12 -66c-13 -74 -9 -80 69 -87l-6 -26h-253l6 26c87 7 91 12 106 87l13 66h-258l6 27c115 141 249 299 373 423h43l-79 -407h96zM353 533h-2c-92 -101 -178 -205 -260 -311h197z" />
    <glyph glyph-name="five" unicode="5" horiz-adv-x="477" 
d="M470 623l-30 -72h-230l-56 -184c50 16 82 24 104 24c113 0 171 -78 171 -159c0 -76 -46 -146 -126 -195c-50 -32 -108 -49 -152 -49c-48 0 -91 21 -109 40c-12 13 -18 24 -15 37c1 12 13 27 26 35c9 5 14 5 22 -3c24 -26 65 -59 127 -59c82 0 141 55 141 163
c0 79 -40 138 -139 138c-40 0 -78 -12 -92 -17l-7 9l82 292h283z" />
    <glyph glyph-name="six" unicode="6" horiz-adv-x="477" 
d="M497 641l6 -31c-31 -5 -71 -16 -111 -33c-75 -30 -177 -92 -230 -225l1 -2l65 31c20 9 45 18 61 18c97 -1 158 -72 158 -172c0 -136 -106 -239 -222 -239c-111 0 -178 87 -178 208c0 202 136 356 323 416c47 14 87 22 127 29zM248 346c-36 0 -75 -19 -98 -34
c-9 -24 -18 -61 -18 -117c0 -90 31 -174 107 -174c73 0 123 83 123 190c0 61 -22 135 -114 135z" />
    <glyph glyph-name="seven" unicode="7" horiz-adv-x="477" 
d="M517 623l8 -12c-123 -203 -256 -409 -383 -613l-79 -10l-7 12c148 184 281 371 390 551h-210c-61 0 -73 -9 -109 -77l-27 8c18 45 31 95 43 141h374z" />
    <glyph glyph-name="eight" unicode="8" horiz-adv-x="477" 
d="M313 635c75 0 148 -51 148 -137c0 -35 -17 -72 -45 -95c-14 -11 -37 -30 -92 -66c63 -46 111 -89 111 -161c0 -102 -98 -188 -219 -188c-91 0 -175 54 -175 155c0 43 18 75 54 106c25 21 70 50 111 76c-42 33 -82 75 -82 140c-1 93 85 170 189 170zM299 602
c-61 0 -100 -51 -100 -109c0 -73 56 -107 99 -137c56 37 87 85 87 143c0 62 -35 103 -86 103zM230 21c69 0 121 51 121 131c0 67 -51 106 -118 153c-65 -39 -110 -91 -110 -162c0 -70 40 -122 107 -122z" />
    <glyph glyph-name="nine" unicode="9" horiz-adv-x="477" 
d="M307 635c122 0 171 -108 171 -207c0 -205 -140 -355 -301 -414c-51 -18 -109 -29 -131 -29l-5 29c132 24 269 118 328 275l-74 -35c-21 -10 -41 -14 -57 -14c-81 0 -148 68 -148 167c0 123 102 228 217 228zM295 602c-70 0 -121 -79 -121 -172c0 -78 38 -134 114 -134
c28 0 68 13 89 29c10 28 17 68 17 118c0 45 -7 159 -99 159z" />
    <glyph glyph-name="colon" unicode=":" horiz-adv-x="235" 
d="M133 298c-29 0 -48 23 -48 52c0 36 23 62 57 62c27 0 48 -22 48 -53c0 -38 -27 -61 -57 -61zM88 -12c-30 0 -49 22 -49 52c0 36 24 62 58 62c28 0 48 -23 48 -53c0 -40 -28 -61 -57 -61z" />
    <glyph glyph-name="semicolon" unicode=";" horiz-adv-x="235" 
d="M131 298c-29 0 -49 23 -49 52c0 36 24 62 58 62c27 0 48 -22 48 -53c0 -38 -28 -61 -57 -61zM8 -114l-12 29c51 22 86 54 86 90c0 32 -16 52 -45 61c-4 2 -8 6 -8 14c1 27 25 48 49 48c44 0 71 -49 71 -93c0 -83 -77 -128 -141 -149z" />
    <glyph glyph-name="less" unicode="&#x3c;" horiz-adv-x="597" 
d="M517 0l-452 230v47l452 230v-55l-393 -198v-2l393 -197v-55z" />
    <glyph glyph-name="equal" unicode="=" horiz-adv-x="596" 
d="M552 321h-485v50h485v-50zM552 138h-485v50h485v-50z" />
    <glyph glyph-name="greater" unicode="&#x3e;" horiz-adv-x="597" 
d="M552 230l-452 -230v55l393 197v2l-393 198v55l452 -230v-47z" />
    <glyph glyph-name="question" unicode="?" horiz-adv-x="354" 
d="M201 212l-20 -21c-37 20 -87 66 -87 115c1 53 50 93 106 128c51 30 123 72 123 117c0 31 -20 51 -56 51c-64 1 -103 -51 -115 -51c-15 0 -34 19 -34 41c0 13 9 25 28 38c30 23 69 34 92 34c71 0 132 -68 132 -146c0 -46 -20 -79 -66 -109c-96 -63 -138 -86 -138 -127
c0 -25 14 -50 35 -70zM132 -12c-31 0 -52 23 -52 55c0 38 26 66 61 66c30 0 52 -24 52 -57c0 -41 -30 -64 -61 -64z" />
    <glyph glyph-name="at" unicode="@" horiz-adv-x="738" 
d="M542 -20l10 -28c-65 -36 -130 -52 -200 -52c-157 0 -298 107 -298 299c0 239 194 379 385 379c177 0 275 -117 275 -257c0 -137 -107 -250 -243 -250c-49 0 -51 31 -41 73l12 54l-2 1c-32 -49 -124 -128 -167 -128c-24 0 -48 31 -48 84c0 58 25 137 84 192
c40 38 99 69 160 71c14 1 39 -6 52 -9c10 -2 19 -4 30 -4c-15 -59 -34 -138 -53 -233c-9 -45 -5 -60 16 -59c63 2 153 67 153 208c0 140 -104 219 -236 219c-186 0 -312 -140 -312 -331c0 -124 68 -264 267 -264c65 0 123 18 156 35zM428 380c-27 0 -49 -12 -68 -32
c-27 -31 -61 -104 -61 -174c0 -31 8 -41 20 -41c19 0 72 32 134 127c10 29 22 75 28 108c-12 7 -34 12 -53 12z" />
    <glyph glyph-name="A" unicode="A" horiz-adv-x="664" 
d="M621 27l-7 -27h-236l7 27c69 7 73 18 67 61c-7 42 -15 90 -25 148h-209c-17 -32 -48 -90 -70 -136c-29 -60 -22 -67 55 -73l-6 -27h-215l7 27c61 8 71 13 118 96l301 533l31 8l28 -177c20 -129 42 -254 64 -373c12 -71 19 -80 90 -87zM421 278l-40 259h-2
c-50 -92 -96 -174 -139 -259h181z" />
    <glyph glyph-name="B" unicode="B" horiz-adv-x="579" 
d="M131 649h234c112 0 188 -36 188 -137c0 -91 -74 -139 -163 -158v-2c78 -16 147 -63 147 -156c0 -73 -48 -130 -115 -162c-55 -26 -124 -34 -202 -34h-213l6 27c78 7 85 12 101 93l81 418c15 72 10 77 -70 85zM242 367h51c110 0 170 56 170 143c0 84 -61 108 -118 108
c-22 0 -37 -4 -46 -10s-15 -17 -20 -44zM235 334l-40 -212c-13 -74 13 -88 78 -88c97 0 168 66 168 167c0 102 -72 133 -157 133h-49z" />
    <glyph glyph-name="C" unicode="C" horiz-adv-x="635" 
d="M582 174l26 -14c-16 -39 -56 -119 -79 -151c-30 -7 -101 -24 -172 -24c-167 0 -291 101 -291 288c0 237 184 392 415 392c80 0 143 -22 171 -33c-3 -51 -4 -105 -8 -153l-30 -3c-5 119 -57 154 -156 154c-176 0 -295 -169 -295 -354c0 -143 71 -257 205 -257
c100 0 159 68 214 155z" />
    <glyph glyph-name="D" unicode="D" horiz-adv-x="708" 
d="M130 649h249c193 0 318 -80 318 -271c0 -126 -60 -237 -165 -303c-85 -55 -181 -75 -306 -75h-217l7 27c77 8 84 15 99 93l78 408c15 79 11 84 -69 95zM280 556l-81 -427c-9 -50 -7 -69 11 -79c17 -10 43 -14 73 -14c203 0 319 160 319 347c0 153 -89 233 -234 233
c-30 0 -53 -3 -66 -10c-10 -6 -16 -17 -22 -50z" />
    <glyph glyph-name="E" unicode="E" horiz-adv-x="559" 
d="M128 649h435c-3 -18 -12 -94 -19 -153l-29 -2c-1 38 -3 68 -13 88c-11 23 -24 34 -97 34h-78c-34 0 -36 -4 -44 -41l-41 -217h96c84 0 90 8 114 73h29l-38 -189h-28c2 70 1 77 -85 77h-96l-33 -175c-11 -58 -10 -84 5 -96s45 -14 101 -14c74 0 104 8 131 34
c24 23 47 60 67 96l28 -10c-11 -27 -48 -123 -62 -154h-468l6 27c81 7 89 12 105 93l79 410c16 80 11 85 -71 93z" />
    <glyph glyph-name="F" unicode="F" horiz-adv-x="527" 
d="M131 649h432c-3 -18 -11 -94 -18 -152l-29 -3c-1 33 -4 66 -11 86c-9 25 -26 36 -97 36h-82c-33 0 -36 -6 -42 -40l-44 -229h104c87 0 90 7 117 72h29l-38 -192h-28c0 73 -2 81 -88 81h-104l-35 -183c-15 -84 -8 -91 83 -98l-6 -27h-264l7 27c74 7 82 13 98 98l77 399
c16 87 13 90 -67 99z" />
    <glyph glyph-name="G" unicode="G" horiz-adv-x="681" 
d="M654 477l-29 -2c0 113 -56 155 -160 155c-185 0 -301 -166 -301 -352c0 -149 76 -258 217 -258c62 0 103 18 114 70l19 94c15 73 11 77 -88 86l6 26h244l-6 -25c-56 -9 -60 -13 -74 -87l-16 -83c-6 -31 -8 -58 -5 -79c-63 -14 -132 -37 -212 -37
c-173 0 -296 103 -296 286c0 229 174 394 422 394c82 0 146 -21 177 -32c-3 -30 -8 -87 -12 -156z" />
    <glyph glyph-name="H" unicode="H" horiz-adv-x="742" 
d="M787 649l-6 -26c-78 -8 -83 -14 -99 -96l-77 -406c-15 -80 -11 -87 70 -94l-6 -27h-254l7 27c79 7 86 14 101 94l38 202h-327l-38 -202c-15 -82 -10 -87 71 -94l-6 -27h-248l6 27c75 7 80 14 95 94l78 406c16 82 11 88 -71 96l7 26h247l-6 -26c-72 -8 -80 -15 -95 -96
l-31 -163h326l32 163c15 82 10 88 -68 96l6 26h248z" />
    <glyph glyph-name="I" unicode="I" horiz-adv-x="335" 
d="M380 649l-6 -26c-78 -8 -83 -13 -97 -86l-81 -421c-15 -77 -9 -83 73 -89l-6 -27h-256l7 27c78 6 85 13 100 89l81 421c14 73 7 78 -76 86l7 26h254z" />
    <glyph glyph-name="J" unicode="J" horiz-adv-x="321" 
d="M375 649l-7 -26c-72 -9 -77 -12 -92 -92l-75 -401c-24 -129 -64 -201 -140 -245c-31 -18 -62 -28 -78 -29l-10 29c44 13 87 43 111 108c16 43 28 96 40 157l71 381c14 81 7 83 -73 92l6 26h247z" />
    <glyph glyph-name="K" unicode="K" horiz-adv-x="653" 
d="M715 649l-7 -26c-75 -11 -92 -19 -154 -68c-59 -47 -131 -110 -219 -186c52 -86 137 -213 182 -275c38 -51 53 -60 110 -67l-8 -27h-144c-61 95 -129 195 -186 291c-21 34 -36 39 -58 29l-35 -192c-16 -89 -12 -94 67 -101l-6 -27h-245l7 27c72 7 80 12 97 101l76 398
c16 83 11 88 -67 97l7 26h242l-6 -26c-76 -9 -81 -14 -97 -97l-34 -178c25 8 51 25 75 45c50 42 130 112 202 184c29 27 27 36 -7 41l-30 5l7 26h231z" />
    <glyph glyph-name="L" unicode="L" horiz-adv-x="532" 
d="M484 167l28 -11c-12 -33 -49 -125 -64 -156h-441l6 27c77 6 84 13 99 89l82 418c15 77 10 81 -71 89l6 26h250l-6 -26c-80 -7 -84 -13 -98 -89l-79 -414c-7 -37 -5 -60 11 -72c14 -12 46 -13 90 -13c58 0 92 6 117 30c22 22 44 52 70 102z" />
    <glyph glyph-name="M" unicode="M" horiz-adv-x="876" 
d="M910 649l-7 -26c-86 -8 -89 -11 -102 -95c-21 -144 -37 -261 -54 -393c-13 -98 -6 -100 74 -108l-6 -27h-253l6 27c78 8 83 12 98 108c21 148 44 280 66 421h-3l-331 -552h-22c-32 179 -65 351 -102 542h-3l-72 -264c-28 -103 -42 -157 -47 -192c-7 -44 2 -56 76 -63
l-6 -27h-225l6 27c58 5 78 19 94 61s36 101 72 229l56 190c29 100 24 107 -71 116l7 26h167c34 -164 68 -322 109 -501l311 501h162z" />
    <glyph glyph-name="N" unicode="N" horiz-adv-x="705" 
d="M766 649l-6 -26c-60 -4 -74 -19 -87 -63c-8 -26 -21 -78 -38 -170l-76 -398h-30l-296 530h-3l-52 -266c-17 -86 -24 -135 -26 -168c-2 -46 16 -56 85 -61l-6 -27h-229l6 27c52 3 75 15 88 58c12 36 23 81 42 174l52 246c10 51 7 65 -6 87c-12 21 -29 27 -85 31l6 26h144
l295 -509h4l46 250c18 92 25 143 27 171c3 47 -13 57 -87 62l7 26h225z" />
    <glyph glyph-name="O" unicode="O" horiz-adv-x="708" 
d="M430 665c159 0 266 -119 266 -287c0 -212 -152 -393 -364 -393c-157 0 -266 115 -266 284c0 209 156 396 364 396zM422 630c-157 0 -260 -195 -260 -370c0 -134 56 -240 178 -240c167 0 261 204 261 368c0 133 -49 242 -179 242z" />
    <glyph glyph-name="P" unicode="P" horiz-adv-x="554" 
d="M132 649h228c140 0 210 -59 210 -168c0 -143 -130 -211 -238 -218c-13 -1 -27 -1 -39 -1l-67 21l-30 -158c-16 -84 -9 -90 82 -98l-6 -27h-265l6 27c77 8 85 13 102 98l80 405c16 78 11 84 -69 93zM280 563l-47 -248c14 -5 38 -13 74 -13c71 0 174 47 174 182
c0 83 -47 134 -134 134c-17 0 -32 -3 -43 -8s-18 -16 -24 -47z" />
    <glyph glyph-name="Q" unicode="Q" horiz-adv-x="709" 
d="M663 -140l-8 -21c-42 1 -94 10 -118 17c-31 8 -96 38 -214 121l-14 10c-145 10 -243 121 -243 280c0 211 155 398 364 398c159 0 266 -119 266 -287c0 -177 -110 -333 -268 -378l13 -9c73 -53 157 -100 222 -131zM302 22l69 18c8 -5 16 -11 24 -17
c128 35 206 216 206 364c0 133 -49 243 -179 243c-155 0 -260 -194 -260 -372c0 -119 48 -216 140 -236z" />
    <glyph glyph-name="R" unicode="R" horiz-adv-x="599" 
d="M585 17l-8 -25h-10c-96 5 -130 31 -166 98c-26 49 -47 97 -68 148c-16 39 -29 47 -65 47h-42l-29 -158c-17 -88 -11 -93 70 -100l-6 -27h-251l6 27c77 8 83 12 100 100l77 402c16 83 12 86 -68 94l7 26h217c54 0 107 -7 142 -31c34 -23 59 -63 59 -123
c0 -100 -75 -163 -155 -191c11 -28 37 -89 60 -134s41 -77 62 -105c24 -31 43 -40 68 -48zM232 316h47c43 0 78 6 107 25c45 31 75 84 75 146c0 87 -45 131 -118 131c-20 0 -36 -3 -45 -10c-9 -6 -14 -18 -19 -44z" />
    <glyph glyph-name="S" unicode="S" horiz-adv-x="468" 
d="M38 195l27 3c11 -76 52 -179 162 -179c71 0 120 50 120 129c0 57 -35 95 -93 141l-28 22c-46 37 -112 92 -112 175c0 104 83 179 203 179c32 0 67 -7 95 -17c19 -7 36 -13 44 -16c-4 -42 -2 -95 -3 -140l-29 -3c-8 75 -34 143 -120 143c-70 0 -112 -56 -112 -117
c0 -58 41 -94 93 -134l30 -22c69 -52 116 -104 116 -183c0 -117 -103 -191 -218 -191c-80 0 -150 37 -172 62c-1 23 -1 77 -3 148z" />
    <glyph glyph-name="T" unicode="T" horiz-adv-x="603" 
d="M636 674h21c-8 -45 -17 -121 -23 -175l-30 -3c0 38 -2 68 -12 89c-9 24 -30 31 -107 31h-60l-93 -496c-15 -81 -8 -87 82 -93l-6 -27h-272l6 27c85 6 91 13 106 93l95 496h-51c-86 0 -104 -8 -123 -30c-16 -19 -32 -50 -49 -90h-30c18 59 35 123 47 178h21
c11 -23 22 -25 49 -25h376c26 0 34 6 53 25z" />
    <glyph glyph-name="U" unicode="U" horiz-adv-x="707" 
d="M773 649l-6 -26c-66 -4 -78 -18 -88 -55c-10 -35 -22 -86 -40 -180l-15 -77c-22 -107 -52 -198 -119 -260c-49 -46 -112 -66 -170 -66c-56 0 -112 15 -154 54c-46 43 -68 118 -45 242l48 253c15 77 10 81 -69 89l6 26h248l-6 -26c-76 -8 -82 -11 -97 -90l-46 -244
c-35 -183 39 -251 138 -251c119 0 188 87 226 281l14 69c18 94 25 147 27 180c2 41 -16 50 -88 55l6 26h230z" />
    <glyph glyph-name="V" unicode="V" horiz-adv-x="675" 
d="M749 649l-7 -26c-64 -8 -74 -13 -125 -94c-43 -70 -189 -328 -304 -539h-29c-31 185 -75 429 -97 545c-16 76 -26 81 -88 88l7 26h229l-7 -26l-27 -5c-39 -6 -43 -13 -38 -49c9 -70 49 -273 81 -449h2c82 147 188 336 232 430c26 54 19 62 -24 68l-31 5l7 26h219z" />
    <glyph glyph-name="W" unicode="W" horiz-adv-x="949" 
d="M1009 649l-6 -26c-66 -10 -72 -13 -113 -93c-38 -72 -126 -261 -255 -540h-31l-81 496h-3l-239 -496h-31l-60 537c-9 85 -13 88 -81 96l6 26h226l-7 -26l-25 -4c-40 -6 -46 -11 -40 -66l43 -418h2l237 502h29l83 -503h2c62 136 148 319 186 420c20 50 14 58 -36 65l-26 4
l6 26h214z" />
    <glyph glyph-name="X" unicode="X" horiz-adv-x="642" 
d="M680 649l-6 -26c-69 -8 -79 -11 -132 -68c-30 -34 -75 -87 -162 -194l111 -246c34 -76 41 -81 118 -88l-6 -27h-252l6 27l31 4c36 5 42 13 28 48c-14 33 -37 88 -93 214c-67 -85 -121 -154 -161 -214c-20 -31 -19 -42 23 -49l24 -3l-6 -27h-227l7 27c64 6 79 13 128 65
c33 36 109 127 195 235l-96 217c-30 67 -39 71 -106 79l7 26h231l-6 -26l-26 -5c-33 -6 -38 -10 -28 -39c18 -48 46 -106 82 -184c48 58 95 118 138 179c22 31 17 39 -16 44l-29 5l6 26h217z" />
    <glyph glyph-name="Y" unicode="Y" horiz-adv-x="611" 
d="M686 649l-7 -26c-64 -7 -75 -13 -126 -76c-45 -57 -98 -131 -164 -225c-15 -20 -20 -34 -24 -57l-28 -141c-17 -85 -10 -89 79 -97l-6 -27h-267l7 27c81 6 88 11 105 97l27 135c4 21 3 35 -5 59c-24 63 -49 130 -89 234c-23 59 -29 63 -92 71l6 26h232l-7 -26l-35 -5
c-35 -5 -37 -13 -27 -42c19 -56 63 -173 91 -241c48 66 120 167 161 235c21 35 14 43 -23 48l-31 4l7 27h216z" />
    <glyph glyph-name="Z" unicode="Z" horiz-adv-x="588" 
d="M611 649l6 -13c-166 -199 -327 -395 -491 -596c40 -4 90 -6 156 -6c96 0 152 4 184 31c27 23 47 59 73 111l28 -12c-10 -33 -44 -130 -60 -164h-499l-6 15c166 199 330 397 495 601h-158c-99 0 -118 -11 -137 -36c-15 -17 -31 -44 -51 -95l-29 3c17 62 33 134 41 186h21
c12 -23 22 -25 50 -25h377z" />
    <glyph glyph-name="bracketleft" unicode="[" horiz-adv-x="338" 
d="M384 704l-7 -27c-104 -10 -107 -12 -123 -95l-119 -622c-16 -83 -12 -85 92 -95l-7 -27h-171l167 866h168z" />
    <glyph glyph-name="backslash" unicode="\" horiz-adv-x="375" 
d="M325 -45h-53l-192 709h53z" />
    <glyph glyph-name="bracketright" unicode="]" horiz-adv-x="338" 
d="M320 704l-166 -866h-169l7 27c105 10 107 12 123 95l120 622c15 83 11 85 -93 95l7 27h171z" />
    <glyph glyph-name="asciicircum" unicode="^" horiz-adv-x="552" 
d="M503 211h-59l-156 346l-156 -346h-55l192 412h42z" />
    <glyph glyph-name="underscore" unicode="_" horiz-adv-x="500" 
d="M500 -125h-500v50h500v-50z" />
    <glyph glyph-name="quoteleft" unicode="&#x2018;" horiz-adv-x="217" 
d="M254 714l11 -27c-47 -19 -86 -47 -88 -89c-2 -31 19 -49 50 -56c5 -2 11 -8 10 -18c-1 -26 -25 -39 -44 -39c-35 0 -80 34 -78 94c3 78 81 119 139 135z" />
    <glyph glyph-name="a" unicode="a" horiz-adv-x="490" 
d="M453 116l12 -24c-54 -67 -121 -104 -146 -104c-19 0 -32 15 -18 88l20 95h-2c-39 -55 -86 -103 -129 -138c-33 -27 -66 -45 -93 -45c-26 0 -58 33 -58 113c0 101 47 210 120 271c50 42 123 77 186 77c21 0 41 -3 62 -7c14 -3 27 -6 38 -6l3 -4c-16 -62 -46 -198 -69 -325
c-7 -35 -4 -43 2 -43c8 0 43 23 72 52zM149 52c39 0 152 127 186 196c11 40 26 112 33 144c-14 7 -41 14 -67 14s-54 -8 -71 -21c-68 -50 -108 -168 -108 -267c0 -45 13 -66 27 -66z" />
    <glyph glyph-name="b" unicode="b" horiz-adv-x="486" 
d="M105 654l2 24c78 9 133 34 149 34c10 0 10 -10 5 -31c-34 -137 -61 -254 -89 -382h2c86 105 171 150 217 150c44 0 71 -44 71 -110c0 -110 -66 -237 -154 -296c-60 -41 -114 -55 -151 -55c-32 0 -65 18 -80 43c-15 24 -19 60 -6 125c28 137 63 288 96 449
c9 45 6 48 -33 48zM207 34c17 0 37 6 52 15c59 35 120 151 120 273c0 51 -15 72 -34 72c-35 0 -118 -64 -182 -155c-6 -18 -12 -44 -18 -78c-18 -98 21 -127 62 -127z" />
    <glyph glyph-name="c" unicode="c" horiz-adv-x="382" 
d="M336 121l15 -22c-62 -71 -141 -111 -200 -111c-64 0 -107 51 -107 147c0 83 39 181 103 240c41 36 111 74 160 74c43 0 75 -25 76 -50c0 -15 -10 -34 -33 -46c-8 -5 -15 -3 -22 6c-21 29 -44 43 -75 43c-36 0 -64 -30 -83 -66c-25 -45 -44 -113 -44 -181
c0 -71 28 -108 71 -108c51 0 112 46 139 74z" />
    <glyph glyph-name="d" unicode="d" horiz-adv-x="508" 
d="M470 112l14 -23c-53 -63 -119 -101 -147 -101c-20 0 -34 16 -18 93l18 85l-2 -1c-45 -60 -97 -104 -132 -131c-37 -30 -69 -46 -97 -46c-33 0 -65 40 -65 120c0 94 43 201 116 264c47 41 130 77 177 77c14 0 34 -1 59 -11l33 165c9 45 6 49 -38 49h-32l3 25
c84 10 138 35 153 35c9 0 11 -8 7 -28c-47 -200 -89 -394 -124 -588c-5 -24 -3 -33 4 -33c12 0 44 22 71 49zM155 53c51 0 161 124 194 184l32 143c-15 14 -51 26 -81 26c-31 0 -52 -8 -70 -21c-67 -48 -106 -174 -106 -258c0 -51 14 -74 31 -74z" />
    <glyph glyph-name="e" unicode="e" 
d="M348 124l17 -23c-88 -94 -163 -113 -211 -113c-46 0 -110 27 -110 146c0 94 41 199 120 259c43 33 96 56 138 56c53 0 88 -37 88 -80c0 -99 -168 -153 -264 -177c-2 -12 -2 -22 -2 -32c0 -54 17 -113 78 -113c42 0 96 28 146 77zM265 408c-14 0 -30 -5 -41 -12
c-27 -15 -77 -61 -94 -173c143 38 185 84 185 130c0 35 -21 55 -50 55z" />
    <glyph glyph-name="f" unicode="f" horiz-adv-x="271" 
d="M79 433h64c15 76 39 149 84 199c46 51 103 80 143 80c35 0 61 -25 60 -43c0 -15 -14 -33 -25 -41c-8 -6 -18 -7 -25 1c-21 22 -42 35 -63 35c-37 0 -67 -46 -97 -231h113l-21 -31l-100 -10c-18 -110 -29 -171 -51 -282c-35 -172 -72 -247 -127 -304
c-44 -47 -86 -63 -113 -63c-29 0 -63 20 -62 43c0 13 12 30 27 42c8 7 13 6 19 0c16 -15 45 -25 63 -25c17 0 33 8 43 20c13 15 37 57 70 251c24 138 37 222 54 320h-83l-3 11z" />
    <glyph glyph-name="g" unicode="g" horiz-adv-x="420" 
d="M469 445l7 -19c-29 -32 -55 -44 -71 -47c-8 -2 -15 -3 -26 -3c5 -14 8 -29 8 -56c0 -71 -39 -124 -76 -153c-27 -22 -72 -47 -129 -58c-12 -10 -20 -20 -20 -32c0 -15 24 -33 72 -58c96 -51 135 -90 135 -133c0 -83 -140 -143 -236 -143c-97 0 -181 50 -179 112
c1 43 58 88 168 144c-25 16 -38 36 -37 49c0 16 14 34 61 62c-57 13 -87 54 -87 122c0 65 33 127 84 167c41 33 92 50 128 50c32 0 63 -9 85 -28c58 1 94 12 113 24zM200 149c53 0 113 61 113 168c0 57 -23 97 -67 97c-29 0 -55 -18 -73 -45c-21 -30 -38 -76 -38 -130
c0 -59 29 -90 65 -90zM173 -215c75 0 123 35 123 74c0 27 -27 52 -73 79c-33 20 -61 36 -75 43c-67 -32 -111 -72 -111 -109c0 -51 66 -87 136 -87z" />
    <glyph glyph-name="h" unicode="h" horiz-adv-x="511" 
d="M465 108l13 -24c-53 -61 -115 -96 -144 -96c-26 0 -33 28 -17 97l53 232c12 53 8 71 -8 71c-46 0 -163 -112 -212 -199c-10 -44 -28 -133 -37 -182c-23 -4 -49 -11 -71 -19l-7 8c43 193 87 395 126 600c11 52 6 55 -33 56l-29 1l3 24c79 8 133 35 147 35c9 0 10 -8 4 -35
l-90 -415h2c66 89 140 142 185 166c26 14 49 21 67 21c25 0 53 -18 28 -127l-52 -224c-6 -29 -5 -36 3 -36c10 0 41 19 69 46z" />
    <glyph glyph-name="i" unicode="i" horiz-adv-x="273" 
d="M222 641c26 0 39 -21 40 -45c0 -31 -23 -58 -53 -58c-24 0 -41 18 -42 44c0 25 20 59 55 59zM223 109l13 -21c-33 -41 -111 -100 -146 -100c-20 0 -33 16 -13 98l62 256c6 22 6 32 -1 32c-8 0 -38 -17 -68 -43l-12 23c55 54 125 95 152 95c22 0 21 -32 10 -79l-69 -276
c-6 -24 -4 -32 2 -32c12 0 47 26 70 47z" />
    <glyph glyph-name="j" unicode="j" horiz-adv-x="266" 
d="M216 648c26 0 40 -21 40 -45c0 -31 -22 -58 -52 -58c-24 0 -42 18 -43 44c0 26 20 59 55 59zM68 321l-13 23c60 63 129 105 158 105c22 0 22 -33 8 -103c-16 -85 -33 -169 -56 -280c-24 -120 -64 -209 -118 -260c-49 -48 -89 -63 -107 -63c-19 0 -43 13 -43 32
c0 15 12 34 24 44c7 6 14 9 22 4c14 -8 32 -16 49 -16c30 0 49 30 68 107c24 104 44 217 80 400c10 46 9 57 1 57c-9 0 -46 -25 -73 -50z" />
    <glyph glyph-name="k" unicode="k" horiz-adv-x="470" 
d="M437 99l17 -20c-47 -74 -89 -91 -110 -91s-41 12 -66 66c-24 51 -51 115 -76 186c-26 -27 -46 -47 -56 -64c-11 -54 -23 -112 -34 -169c-26 -5 -51 -11 -72 -19l-7 6c48 204 93 405 136 613c8 40 3 44 -36 45l-31 1l5 24c81 9 134 35 147 35c10 0 9 -9 5 -29
c-34 -149 -66 -296 -100 -445h1c31 37 57 62 86 90c56 57 129 121 175 121c27 0 42 -16 42 -31c0 -12 -10 -30 -20 -40c-6 -5 -12 -7 -16 -5c-9 4 -21 8 -38 8c-46 0 -102 -52 -130 -83c18 -63 58 -153 82 -197c18 -37 28 -48 39 -48c10 0 32 17 57 46z" />
    <glyph glyph-name="l" unicode="l" horiz-adv-x="249" 
d="M215 117l15 -22c-52 -62 -123 -107 -154 -107c-19 0 -35 23 -14 121c35 164 70 328 104 493c10 43 4 50 -42 50l-27 1l4 24c78 9 135 35 148 35c9 0 10 -9 6 -30c-41 -193 -82 -387 -124 -585c-6 -29 -2 -35 4 -35c11 0 52 26 80 55z" />
    <glyph glyph-name="m" unicode="m" horiz-adv-x="787" 
d="M735 108l13 -24c-53 -59 -116 -96 -141 -96s-33 30 -16 103l55 231c11 49 5 65 -10 65c-47 0 -169 -142 -204 -209c-12 -47 -27 -114 -39 -172c-26 -3 -52 -10 -73 -18l-6 7c25 101 51 203 72 300c14 68 13 92 -8 92c-48 0 -170 -145 -202 -209
c-13 -45 -28 -112 -41 -172c-25 -3 -50 -10 -72 -18l-7 7c30 113 58 227 83 340c8 36 6 43 -1 43c-10 0 -45 -27 -69 -49l-12 24c56 60 115 96 141 96s29 -37 8 -123l-17 -71h2c68 96 137 150 179 174c23 13 42 20 62 20c27 0 52 -25 24 -152l-9 -41h2
c68 95 140 150 183 174c25 14 42 19 61 19c20 0 53 -12 21 -145l-49 -209c-6 -25 -4 -32 2 -32c8 0 39 18 68 45z" />
    <glyph glyph-name="n" unicode="n" horiz-adv-x="532" 
d="M481 109l14 -24c-59 -64 -115 -97 -141 -97c-25 0 -34 27 -16 104c19 75 36 148 54 222c14 57 8 72 -8 72c-44 0 -160 -124 -210 -209c-12 -49 -27 -109 -39 -169c-26 -5 -53 -13 -72 -20l-6 8c27 108 57 228 81 339c8 32 5 40 -1 40c-9 0 -40 -21 -65 -45l-13 24
c54 59 113 95 141 95c23 0 27 -34 8 -111l-21 -87h2c68 93 142 151 184 176c26 15 47 22 67 22c24 0 52 -15 22 -143c-16 -68 -32 -138 -49 -208c-6 -27 -5 -36 2 -36c9 0 36 18 66 47z" />
    <glyph glyph-name="o" unicode="o" horiz-adv-x="470" 
d="M178 -12c-95 0 -132 75 -132 156c0 130 69 229 152 273c36 19 77 32 108 32c83 0 133 -57 133 -156c0 -86 -37 -184 -107 -242c-43 -36 -98 -63 -154 -63zM214 28c12 0 22 2 32 6c54 23 109 129 109 257c0 81 -35 120 -81 120c-15 0 -27 -4 -38 -9
c-39 -17 -106 -99 -106 -253c0 -74 31 -121 84 -121z" />
    <glyph glyph-name="p" unicode="p" horiz-adv-x="486" 
d="M239 514l-18 -77c28 8 66 12 93 12c103 0 144 -49 144 -138c0 -66 -28 -142 -85 -207c-50 -56 -122 -100 -186 -116c-16 0 -40 2 -59 10l-28 -141c-12 -57 -6 -66 43 -71l24 -2l-3 -26l-231 -12l4 26c63 12 74 20 88 82c37 175 75 350 112 523c-32 -10 -58 -24 -81 -36
l-7 25c27 19 63 37 96 50l11 45c19 22 50 45 73 58zM212 399l-68 -333c11 -15 38 -34 62 -34c71 0 168 135 168 263c0 89 -47 111 -105 111c-16 0 -38 -2 -57 -7z" />
    <glyph glyph-name="q" unicode="q" horiz-adv-x="484" 
d="M415 -217l-4 -25l-231 -12l5 26l16 3c47 10 58 18 71 80l64 309h-2c-31 -40 -83 -90 -128 -126c-37 -29 -75 -50 -105 -50c-34 0 -63 46 -63 112c0 107 49 207 116 267c48 42 114 69 152 76c14 4 34 6 52 6c21 0 62 -7 87 -15l16 -4c-11 -45 -30 -121 -47 -219l-65 -350
c-12 -64 -5 -69 42 -75zM306 405c-26 0 -54 -8 -74 -22c-70 -50 -110 -169 -110 -257c0 -47 13 -71 30 -71c48 0 146 102 191 172c9 34 25 106 35 163c-17 9 -42 15 -72 15z" />
    <glyph glyph-name="r" unicode="r" horiz-adv-x="366" 
d="M62 328l-13 23c51 57 113 98 140 98c25 0 26 -46 11 -116l-10 -50h3c51 98 110 166 150 166c17 0 34 -11 43 -25c7 -13 7 -29 -1 -43c-7 -12 -17 -22 -26 -29c-9 -6 -17 -6 -22 -1c-11 12 -23 17 -34 17c-12 0 -28 -10 -51 -42c-22 -32 -53 -79 -71 -124
c-16 -67 -28 -130 -40 -196c-22 -3 -49 -10 -71 -18l-8 8c26 107 54 230 73 337c6 33 6 43 -2 43c-9 0 -41 -20 -71 -48z" />
    <glyph glyph-name="s" unicode="s" horiz-adv-x="337" 
d="M113 -12c-47 0 -101 37 -101 72c-1 17 12 32 29 42c12 6 20 4 25 -3c26 -39 63 -61 96 -61c40 0 66 28 66 60c0 25 -11 47 -58 84c-45 34 -87 71 -87 122c0 30 12 62 52 97c31 27 79 48 111 48c44 0 78 -30 78 -56c0 -17 -10 -32 -25 -41c-10 -6 -16 -4 -22 4
c-20 25 -44 45 -78 45c-29 0 -54 -22 -54 -56c0 -36 29 -61 65 -89c60 -45 84 -74 84 -117c0 -76 -100 -151 -181 -151z" />
    <glyph glyph-name="t" unicode="t" horiz-adv-x="307" 
d="M338 433l-26 -34l-99 -5l-59 -276c-10 -49 -5 -60 6 -60c17 0 66 33 90 58l14 -21c-33 -40 -108 -107 -161 -107c-23 0 -43 29 -21 132l59 274h-74l-3 9l25 30h60l23 95l76 62l9 -6l-35 -151h116z" />
    <glyph glyph-name="u" unicode="u" horiz-adv-x="533" 
d="M492 114l13 -24c-48 -58 -114 -102 -145 -102c-21 0 -35 19 -15 106c8 35 12 55 19 88h-2c-49 -65 -108 -126 -161 -163c-28 -20 -57 -31 -81 -31c-27 0 -59 19 -33 127c18 77 36 154 54 230c6 25 5 34 -3 34c-7 0 -35 -20 -70 -48l-11 24c58 58 120 94 147 94
c23 0 27 -20 11 -87c-18 -79 -36 -160 -55 -240c-11 -49 -3 -66 12 -66c56 0 168 134 207 207c11 46 23 99 36 160l69 26h11c-27 -106 -53 -218 -78 -348c-6 -31 -4 -39 3 -39c9 0 45 24 72 52z" />
    <glyph glyph-name="v" unicode="v" horiz-adv-x="447" 
d="M219 87h2c41 51 155 197 155 264c0 17 -4 33 -11 44c-3 8 -3 16 0 25c7 16 24 29 43 29c24 0 42 -23 43 -57c0 -31 -16 -70 -62 -134c-58 -81 -147 -196 -207 -270h-27c-3 93 -14 250 -19 311c-5 60 -11 77 -18 77c-9 0 -27 -16 -59 -53l-16 22c36 52 87 104 119 104
c26 0 39 -38 44 -111c4 -88 10 -169 13 -251z" />
    <glyph glyph-name="w" unicode="w" horiz-adv-x="670" 
d="M457 91h2c41 56 141 194 141 258c0 21 -5 35 -10 46c-4 7 -4 17 0 25c7 16 24 29 41 29c25 0 43 -22 43 -57c0 -34 -19 -67 -41 -105c-34 -55 -155 -222 -211 -299h-28c-8 106 -18 211 -28 312h-2c-64 -107 -137 -224 -191 -312h-26c-1 97 -6 226 -10 322
c-2 48 -6 66 -16 66c-7 0 -22 -12 -59 -51l-17 20c42 56 94 104 128 104c23 0 34 -30 36 -99c2 -80 3 -170 3 -236h2c60 103 127 212 186 320h25c11 -112 20 -228 32 -343z" />
    <glyph glyph-name="x" unicode="x" horiz-adv-x="473" 
d="M86 324l-17 21c42 61 86 104 119 104c27 0 40 -37 64 -109l18 -55c83 121 126 164 170 164c26 0 42 -21 42 -43c-1 -24 -24 -44 -39 -44c-6 0 -10 3 -15 8c-6 8 -14 12 -23 12c-14 0 -34 -17 -60 -50c-21 -24 -43 -51 -65 -82l32 -100c20 -63 35 -92 51 -92s40 20 72 58
l17 -20c-46 -71 -92 -108 -127 -108c-25 0 -47 29 -66 92l-31 97c-89 -140 -135 -189 -183 -189c-25 0 -46 20 -45 48c0 24 21 47 40 47c6 0 11 -4 16 -10s13 -10 23 -10c29 0 76 58 138 151l-34 104c-14 49 -23 63 -33 63s-29 -13 -64 -57z" />
    <glyph glyph-name="y" unicode="y" horiz-adv-x="442" 
d="M239 75h2c43 66 135 202 134 275c0 20 -6 36 -11 47c-3 7 -2 17 2 25c7 15 25 27 42 27c22 0 39 -22 39 -55c1 -28 -10 -62 -35 -106c-43 -76 -128 -208 -181 -283c-59 -85 -124 -173 -180 -235l-104 -27l-8 22c107 70 186 158 235 224c-1 79 -17 235 -31 326
c-7 50 -13 62 -21 62s-33 -23 -58 -58l-17 23c32 50 82 107 118 107c28 0 43 -37 51 -117c10 -76 17 -166 23 -257z" />
    <glyph glyph-name="z" unicode="z" horiz-adv-x="418" 
d="M421 463l20 -21c-12 -16 -31 -37 -58 -67c-64 -73 -195 -205 -270 -283c20 2 46 -4 76 -16c32 -11 65 -24 90 -24c27 0 57 17 102 85l22 -18c-54 -108 -94 -139 -137 -139c-33 0 -90 27 -134 48c-32 16 -49 15 -62 6c-12 -8 -23 -21 -32 -34c-4 -6 -7 -10 -12 -9
c-17 8 -25 36 36 100c69 74 185 187 278 286c-17 -3 -39 -5 -62 -3c-26 3 -70 6 -95 6c-46 0 -70 -34 -99 -85l-25 12c14 32 25 55 41 81c24 38 48 59 73 59c28 0 58 -4 106 -12c46 -9 63 -10 81 -10c16 0 36 11 61 38z" />
    <glyph glyph-name="braceleft" unicode="{" horiz-adv-x="338" 
d="M383 710l-2 -27c-73 -9 -91 -45 -99 -91c-5 -28 -8 -66 -10 -95c-1 -28 -4 -81 -9 -109c-11 -56 -42 -102 -102 -115l-1 -4c41 -10 62 -39 62 -83c0 -45 -22 -92 -35 -141c-9 -32 -28 -86 -28 -123c0 -40 29 -58 67 -63l-6 -27c-60 0 -123 18 -123 95c0 38 17 101 32 152
c8 28 27 87 27 117c0 36 -26 57 -73 60l6 29c85 6 96 54 103 89c4 20 6 45 10 89c6 61 11 93 17 123c21 110 108 124 164 124z" />
    <glyph glyph-name="bar" unicode="|" horiz-adv-x="239" 
d="M164 -250h-63v1000h63v-1000z" />
    <glyph glyph-name="braceright" unicode="}" horiz-adv-x="338" 
d="M292 285l-6 -28c-85 -6 -95 -54 -102 -89c-4 -20 -6 -45 -10 -89c-6 -61 -11 -93 -17 -123c-20 -110 -109 -124 -166 -124l4 27c71 10 90 46 98 90c5 29 9 67 11 96c2 28 4 81 9 109c11 56 42 102 100 115l1 4c-44 11 -64 47 -60 97c2 37 22 86 34 127c9 32 24 76 26 108
c3 44 -14 71 -66 78l7 27c55 0 131 -16 122 -108c-1 -36 -16 -88 -31 -139c-10 -34 -25 -79 -26 -104c-3 -36 14 -70 72 -74z" />
    <glyph glyph-name="asciitilde" unicode="~" horiz-adv-x="563" 
d="M504 294l37 -20c-21 -71 -65 -113 -127 -113c-47 0 -88 23 -128 46c-35 21 -59 31 -90 31c-41 0 -68 -26 -90 -84l-36 25c39 96 94 109 131 109c39 0 69 -11 114 -37c41 -24 73 -40 105 -40c40 0 63 26 84 83z" />
    <glyph glyph-name="exclamdown" unicode="&#xa1;" horiz-adv-x="258" 
d="M223 393c0 -40 -28 -65 -61 -65c-30 0 -52 23 -52 56c0 40 28 64 62 64c29 0 51 -24 51 -55zM48 -229c-36 0 -51 8 -48 29c3 16 10 38 22 79c34 120 67 240 101 360c5 7 28 6 31 0c-12 -119 -25 -239 -38 -359c-4 -43 -6 -65 -9 -81c-4 -21 -22 -28 -59 -28z" />
    <glyph glyph-name="cent" unicode="&#xa2;" horiz-adv-x="477" 
d="M369 620l-16 -80c52 0 87 -17 104 -32c9 -7 13 -16 13 -26c0 -20 -22 -40 -36 -40c-6 0 -11 2 -16 9c-20 25 -43 41 -74 45l-66 -346c5 -1 9 -2 13 -2c38 0 82 13 131 54l15 -22c-53 -55 -116 -84 -170 -88l-19 -97h-35l19 98c-87 7 -160 71 -160 183
c0 137 118 243 245 262l16 82h36zM243 156l66 343c-102 -2 -155 -94 -155 -200c0 -83 42 -131 89 -143z" />
    <glyph glyph-name="sterling" unicode="&#xa3;" horiz-adv-x="477" 
d="M379 296h-164c-12 -95 -55 -149 -115 -197c32 0 66 -11 105 -30c38 -17 82 -35 118 -35c39 0 60 17 64 45c2 12 0 25 -2 33c-2 7 -1 15 6 23c13 15 27 25 39 25c14 0 20 -21 15 -46c-6 -39 -41 -83 -83 -109c-27 -17 -58 -32 -93 -32c-44 0 -91 29 -135 53
c-30 17 -47 24 -64 24c-12 0 -29 -8 -49 -42c-4 -8 -8 -12 -14 -12c-9 4 -27 18 -5 46c12 16 36 40 57 59c54 50 69 124 71 195h-88l7 36h83c1 27 3 56 6 82c11 68 41 129 105 178c35 26 81 44 110 44c46 0 80 -26 88 -42c6 -11 6 -20 0 -30c-4 -8 -13 -16 -20 -22
c-9 -5 -18 -5 -26 4c-22 21 -45 41 -83 41c-48 0 -77 -36 -86 -99c-7 -45 -8 -102 -9 -156h170z" />
    <glyph glyph-name="fraction" unicode="&#x2044;" horiz-adv-x="165" 
d="M374 629l-504 -656l-30 27l502 655z" />
    <glyph glyph-name="yen" unicode="&#xa5;" horiz-adv-x="477" 
d="M547 623l-6 -26c-50 -6 -65 -15 -103 -67c-26 -36 -72 -103 -135 -199h109l-8 -35h-117l-15 -72h120l-8 -35h-119l-15 -88c-13 -65 -6 -66 70 -74l-6 -27h-238l6 27c73 5 79 10 92 74l17 88h-114l8 35h112l14 72h-113l7 35h104c-13 61 -36 149 -54 215
c-11 39 -23 47 -72 51l6 26h202l-6 -26l-30 -4c-24 -4 -31 -10 -25 -37c12 -59 31 -136 46 -207c36 56 101 155 128 202c16 30 11 39 -19 43l-27 3l6 26h183z" />
    <glyph glyph-name="florin" unicode="&#x192;" horiz-adv-x="477" 
d="M210 370l12 53c18 75 51 131 103 174c54 45 91 55 118 55c28 0 57 -21 56 -42c0 -14 -10 -29 -21 -37c-8 -7 -16 -5 -21 0c-14 12 -37 29 -64 29c-21 0 -33 -11 -45 -27c-13 -18 -27 -52 -56 -205h121l-11 -36h-117l-41 -191c-32 -152 -83 -209 -130 -242
c-43 -32 -69 -39 -91 -39c-28 0 -54 22 -53 40c0 15 11 29 23 40c6 5 13 6 20 0c14 -13 37 -26 60 -26c19 0 34 13 45 37c11 26 25 69 44 170l39 211h-96l10 36h95z" />
    <glyph glyph-name="section" unicode="&#xa7;" horiz-adv-x="467" 
d="M423 215c0 -99 -74 -182 -128 -230c-59 -52 -111 -78 -163 -87c-21 0 -50 7 -70 23c-11 9 -17 18 -16 30c1 15 20 31 29 37c8 3 14 3 18 -2c13 -9 43 -32 83 -32c38 0 82 23 84 67c0 26 -10 56 -52 101c-28 30 -56 67 -73 87c-38 44 -62 89 -62 142c0 78 48 147 111 204
c52 49 105 79 162 89c36 0 62 -16 71 -25c10 -10 11 -17 11 -25c-1 -16 -18 -31 -26 -35c-5 -3 -12 -3 -17 1c-12 9 -35 34 -82 34c-46 0 -73 -33 -73 -63c0 -20 10 -43 31 -68c25 -27 57 -62 82 -88c48 -49 80 -100 80 -160zM182 508l-2 2c-30 -28 -52 -72 -52 -120
c0 -36 9 -75 51 -122l49 -55c37 -42 63 -81 70 -97c8 -18 14 -48 10 -75l2 -1c36 39 52 87 52 127c0 36 -6 80 -53 134c-31 34 -75 86 -94 108c-20 23 -39 52 -33 99z" />
    <glyph glyph-name="currency" unicode="&#xa4;" horiz-adv-x="477" 
d="M474 135l-42 -41l-64 75c-33 -26 -75 -38 -109 -38s-76 12 -108 38l-65 -75l-40 41l70 67c-29 34 -44 78 -44 123s15 90 44 123l-70 68l40 40l65 -75c33 26 75 38 109 38c33 0 75 -12 107 -38l65 75l42 -40l-71 -68c28 -33 44 -78 44 -123s-16 -89 -44 -123zM260 470
c-71 0 -127 -58 -127 -145s57 -145 127 -145c71 0 126 58 126 145s-55 145 -126 145z" />
    <glyph glyph-name="quotesingle" unicode="'" horiz-adv-x="192" 
d="M234 710l8 -7c-11 -38 -54 -155 -83 -213l-31 -13c19 101 31 183 32 211z" />
    <glyph glyph-name="quotedblleft" unicode="&#x201c;" horiz-adv-x="386" 
d="M254 714l11 -27c-47 -18 -85 -47 -87 -89c-2 -31 18 -49 48 -56c6 -2 12 -8 11 -18c-1 -26 -25 -39 -44 -39c-35 0 -80 34 -78 93c3 79 81 120 139 136zM424 714l10 -27c-47 -18 -86 -48 -88 -90c-2 -31 19 -49 49 -57c6 -1 12 -7 12 -17c-2 -26 -26 -40 -45 -40
c-35 0 -81 34 -78 95c3 79 81 120 140 136z" />
    <glyph glyph-name="guillemotleft" unicode="&#xab;" horiz-adv-x="446" 
d="M247 387l-108 -166l74 -167l-24 -15c-54 80 -106 150 -133 182c34 32 101 104 170 182zM410 387l-109 -166l75 -167l-24 -15c-55 80 -106 150 -134 182c34 32 101 104 171 182z" />
    <glyph glyph-name="guilsinglleft" unicode="&#x2039;" horiz-adv-x="283" 
d="M247 387l-108 -166l74 -167l-24 -15c-55 80 -107 150 -134 182c35 32 102 104 171 182z" />
    <glyph glyph-name="guilsinglright" unicode="&#x203a;" horiz-adv-x="283" 
d="M94 388l24 15c55 -80 106 -150 134 -182c-34 -32 -101 -103 -170 -182l-22 16l109 166z" />
    <glyph glyph-name="fi" unicode="&#xfb01;" horiz-adv-x="531" 
d="M480 112l15 -21c-30 -39 -111 -103 -152 -103c-18 0 -37 13 -17 98c19 78 38 160 57 243c14 58 9 66 -41 66h-131c-20 -114 -30 -178 -51 -273c-39 -179 -70 -254 -126 -313c-46 -51 -90 -66 -116 -66c-28 0 -58 18 -57 40c0 13 12 31 28 45c8 6 14 5 20 0
c14 -12 36 -22 57 -22c20 0 33 8 43 19c14 14 38 59 72 252c22 132 36 218 53 318h-79l-3 11l29 27h61c17 81 50 161 108 214c37 34 90 65 145 65c76 0 97 -45 97 -65s-14 -41 -36 -46c-22 -7 -31 -2 -34 12c-9 38 -27 60 -62 60c-72 0 -114 -92 -141 -240h112
c62 0 103 6 132 13c13 0 15 -28 4 -72c-21 -86 -41 -169 -65 -268c-8 -35 -6 -45 3 -45c10 0 50 27 75 51z" />
    <glyph glyph-name="fl" unicode="&#xfb02;" horiz-adv-x="525" 
d="M330 433l-20 -31l-99 -9c-20 -110 -29 -173 -52 -288c-33 -165 -67 -240 -124 -299c-44 -47 -88 -63 -115 -63c-26 0 -56 19 -56 42c0 14 12 32 28 43c8 6 13 5 20 0c14 -13 37 -23 57 -23c19 0 34 9 44 20c14 15 37 63 70 256c22 131 34 214 51 313h-80l-3 11l29 28h62
c13 77 41 148 97 204c43 43 108 75 158 75c33 0 61 -12 74 -25c19 11 45 25 56 25c8 0 9 -13 5 -29c-42 -193 -83 -388 -122 -583c-6 -32 -3 -39 5 -39c11 0 52 28 77 56l14 -22c-45 -62 -121 -107 -151 -107c-20 0 -36 23 -14 127c49 233 65 314 107 513
c-11 18 -41 43 -81 43c-87 0 -126 -101 -148 -238h111z" />
    <glyph glyph-name="endash" unicode="&#x2013;" horiz-adv-x="500" 
d="M464 252l-12 -52h-399l13 52h398z" />
    <glyph glyph-name="dagger" unicode="&#x2020;" horiz-adv-x="453" 
d="M188 -96h-43c9 35 16 65 25 111c23 123 30 229 21 268c31 47 46 81 55 125c-57 -2 -95 -12 -129 -33c-16 6 -36 26 -42 47c14 20 38 40 57 46c27 -20 63 -30 120 -31c10 67 10 95 -9 143c16 26 42 50 64 62c19 -12 35 -36 44 -62c-37 -49 -49 -76 -64 -143
c59 1 96 11 130 31c17 -6 35 -26 42 -46c-15 -21 -39 -41 -57 -48c-26 21 -62 32 -121 34c-7 -44 -6 -78 8 -125c-24 -39 -58 -145 -82 -268c-9 -45 -14 -76 -19 -111z" />
    <glyph glyph-name="daggerdbl" unicode="&#x2021;" horiz-adv-x="455" 
d="M464 436c-14 -21 -40 -40 -57 -47c-28 21 -62 32 -122 34c-11 -70 -12 -110 10 -139c-32 -25 -47 -65 -62 -136l-2 -5c62 0 96 11 131 32c15 -7 36 -27 43 -47c-15 -20 -40 -40 -58 -47c-28 20 -61 32 -122 34c-10 -69 -8 -98 10 -148c-17 -25 -42 -50 -64 -61
c-18 11 -35 36 -44 61c38 50 50 79 66 148c-61 -2 -97 -14 -132 -34c-16 7 -35 26 -42 47c14 20 37 40 56 47c28 -21 63 -32 123 -32c13 74 15 115 -9 141c34 29 49 69 64 139c-61 -2 -97 -13 -132 -34c-16 7 -35 27 -42 47c14 21 38 41 56 48c27 -21 63 -31 123 -33
c8 52 6 80 -13 130c16 25 42 50 65 61c18 -11 33 -36 43 -61c-37 -50 -50 -78 -62 -130c61 2 96 12 129 33c18 -7 37 -27 44 -48z" />
    <glyph glyph-name="periodcentered" unicode="&#xb7;" horiz-adv-x="235" 
d="M121 172c-30 0 -50 21 -50 52c0 37 24 64 59 64c29 0 49 -23 49 -54c0 -41 -28 -62 -58 -62z" />
    <glyph glyph-name="paragraph" unicode="&#xb6;" horiz-adv-x="488" 
d="M532 536l-35 -25l-82 -10l-92 -473c-15 -81 -43 -141 -101 -191c-34 -29 -78 -45 -92 -45c-27 0 -52 12 -62 24c-10 10 -11 21 -8 29c4 10 15 22 22 27c7 6 14 6 21 0c16 -12 40 -22 63 -22c41 0 76 21 106 172l25 131l-65 -27c-4 -2 -10 -3 -18 -3
c-68 0 -133 78 -133 176c0 151 129 250 263 250h186z" />
    <glyph glyph-name="bullet" unicode="&#x2022;" horiz-adv-x="377" 
d="M199 350c69 0 125 -59 125 -131c0 -73 -55 -131 -125 -131c-71 0 -126 58 -126 131c0 72 55 131 126 131z" />
    <glyph glyph-name="quotesinglbase" unicode="&#x201a;" horiz-adv-x="228" 
d="M9 -109l-11 27c47 19 85 46 87 90c1 31 -18 49 -48 57c-6 1 -12 8 -11 18c1 25 25 40 44 40c36 0 81 -36 79 -96c-3 -79 -80 -120 -140 -136z" />
    <glyph glyph-name="quotedblbase" unicode="&#x201e;" 
d="M9 -109l-11 27c48 19 85 46 87 90c2 31 -18 49 -48 57c-6 1 -12 8 -11 18c1 25 25 40 44 40c36 0 81 -36 79 -96c-3 -79 -81 -120 -140 -136zM181 -109l-10 27c46 19 85 46 87 90c2 31 -19 49 -48 57c-7 1 -13 8 -12 18c1 25 26 40 45 40c35 0 81 -36 78 -96
c-3 -79 -80 -120 -140 -136z" />
    <glyph glyph-name="quotedblright" unicode="&#x201d;" horiz-adv-x="384" 
d="M114 480l-10 27c48 18 86 46 88 89c2 31 -19 49 -49 57c-6 1 -12 6 -11 16c1 26 25 40 44 40c35 0 80 -34 77 -95c-2 -77 -80 -119 -139 -134zM284 480l-11 27c47 18 87 46 89 89c1 31 -19 49 -50 57c-6 1 -11 6 -11 16c1 26 25 40 44 40c35 0 81 -34 78 -94
c-3 -78 -80 -120 -139 -135z" />
    <glyph glyph-name="guillemotright" unicode="&#xbb;" horiz-adv-x="446" 
d="M95 388l24 15c55 -80 106 -150 134 -182c-35 -32 -102 -103 -171 -182l-21 16l109 166zM258 388l24 15c54 -80 106 -150 133 -182c-34 -32 -101 -103 -170 -182l-21 16l108 166z" />
    <glyph glyph-name="ellipsis" unicode="&#x2026;" horiz-adv-x="900" 
d="M117 -12c-29 0 -50 22 -50 53c0 37 25 63 60 63c28 0 49 -23 49 -54c0 -40 -29 -62 -59 -62zM418 -12c-30 0 -51 22 -51 53c0 37 25 63 60 63c28 0 50 -23 50 -54c0 -40 -29 -62 -59 -62zM715 -12c-30 0 -51 22 -51 53c0 37 25 63 60 63c28 0 50 -23 50 -54
c0 -40 -29 -62 -59 -62z" />
    <glyph glyph-name="perthousand" unicode="&#x2030;" horiz-adv-x="1044" 
d="M650 630l-495 -657l-29 26l494 655zM372 502c0 -98 -68 -219 -174 -219c-73 0 -108 62 -108 133c0 96 67 219 174 219c76 0 108 -63 108 -133zM305 526c0 40 -7 79 -46 79c-72 0 -102 -145 -102 -207c0 -39 8 -85 47 -85c74 0 101 157 101 213zM685 207
c0 -98 -69 -219 -174 -219c-74 0 -108 62 -108 133c0 96 67 219 174 219c75 0 108 -64 108 -133zM1000 207c0 -98 -68 -219 -174 -219c-73 0 -107 62 -107 133c-1 96 66 219 173 219c76 0 108 -64 108 -133zM618 230c0 41 -7 80 -46 80c-72 0 -102 -146 -102 -208
c0 -39 8 -84 46 -84c75 0 102 159 102 212zM934 230c0 41 -7 80 -46 80c-72 0 -102 -146 -102 -208c0 -39 7 -84 46 -84c75 0 102 159 102 212z" />
    <glyph glyph-name="questiondown" unicode="&#xbf;" horiz-adv-x="358" 
d="M231 449c30 0 51 -24 51 -56c0 -40 -27 -65 -60 -65c-31 0 -52 23 -52 56c0 39 28 65 61 65zM165 223l18 20c38 -21 89 -65 89 -115c0 -53 -51 -93 -107 -127c-51 -31 -122 -71 -122 -117c0 -31 23 -50 56 -50c67 0 102 50 114 50c15 0 34 -20 34 -40
c0 -15 -9 -27 -28 -40c-33 -23 -74 -33 -92 -33c-71 0 -132 68 -132 146c0 46 20 77 66 108c83 54 139 84 139 129c0 25 -15 49 -35 69z" />
    <glyph glyph-name="grave" unicode="`" 
d="M322 500l-29 -9c-30 57 -62 118 -89 164l4 9c7 3 56 14 73 12c10 -49 28 -121 41 -176z" />
    <glyph glyph-name="acute" unicode="&#xb4;" 
d="M382 661l-155 -170l-23 16c33 52 82 136 92 155c11 4 68 13 83 10z" />
    <glyph glyph-name="circumflex" unicode="&#x2c6;" 
d="M373 506l-23 -17c-28 31 -52 67 -71 96c-30 -30 -67 -65 -109 -96l-19 17c48 55 93 109 130 163h22c17 -54 41 -108 70 -163z" />
    <glyph glyph-name="tilde" unicode="&#x2dc;" 
d="M370 620l24 -12c-27 -67 -55 -85 -81 -85c-22 0 -41 11 -67 23c-15 7 -27 12 -42 12c-16 0 -32 -15 -48 -43l-22 15c24 62 56 83 80 83c17 0 29 -5 58 -18c21 -9 37 -16 53 -16s30 16 45 41z" />
    <glyph glyph-name="macron" unicode="&#xaf;" 
d="M378 598l-12 -51h-224l13 51h223z" />
    <glyph glyph-name="breve" unicode="&#x2d8;" 
d="M362 642h26c-16 -100 -75 -131 -132 -131c-58 0 -108 31 -90 131h25c2 -48 29 -74 73 -74c43 0 80 26 98 74z" />
    <glyph glyph-name="dotaccent" unicode="&#x2d9;" 
d="M277 635c27 0 41 -21 41 -44c0 -32 -22 -58 -53 -58c-23 0 -41 18 -41 44c0 25 19 58 53 58z" />
    <glyph glyph-name="dieresis" unicode="&#xa8;" 
d="M188 631c25 0 38 -20 38 -42c0 -31 -20 -55 -50 -55c-22 0 -39 16 -39 41c0 24 18 56 51 56zM364 631c25 0 38 -20 38 -42c0 -31 -20 -55 -50 -55c-22 0 -39 16 -39 41c0 24 18 56 51 56z" />
    <glyph glyph-name="ring" unicode="&#x2da;" 
d="M278 665c45 0 84 -32 82 -86c-2 -53 -49 -86 -97 -86c-50 0 -83 34 -81 80c1 57 49 92 96 92zM274 631c-25 0 -45 -23 -46 -55c-1 -29 13 -50 38 -50c26 0 47 23 48 55c1 29 -13 50 -40 50z" />
    <glyph glyph-name="cedilla" unicode="&#xb8;" 
d="M203 0l-21 -25c-14 -18 -15 -24 0 -41c22 -26 31 -44 30 -66c-3 -39 -54 -79 -121 -99l-13 27c43 19 68 38 70 60c1 15 -11 27 -18 37c-20 23 -24 35 -5 58l40 49h38z" />
    <glyph glyph-name="hungarumlaut" unicode="&#x2dd;" 
d="M254 648l-115 -158l-26 16c20 44 58 135 63 149c13 4 64 7 76 4zM387 648l-114 -158l-24 16c18 44 56 136 61 149c13 4 63 7 75 4z" />
    <glyph glyph-name="ogonek" unicode="&#x2db;" 
d="M257 -151l8 -27l-51 -28c-13 -6 -27 -9 -38 -9c-37 0 -67 23 -67 63c0 54 66 109 125 153h41c-51 -44 -98 -94 -98 -131c0 -19 13 -31 35 -31c12 0 32 4 45 10z" />
    <glyph glyph-name="caron" unicode="&#x2c7;" 
d="M377 673l22 -18c-49 -55 -93 -109 -130 -162h-22c-17 53 -41 107 -71 162l25 18c27 -32 51 -67 69 -96c31 30 66 64 107 96z" />
    <glyph glyph-name="emdash" unicode="&#x2014;" horiz-adv-x="907" 
d="M872 252l-14 -52h-805l15 52h804z" />
    <glyph glyph-name="AE" unicode="&#xc6;" horiz-adv-x="864" 
d="M850 499l-29 -2c-1 38 -4 67 -14 88c-11 23 -28 31 -102 31h-75c-33 0 -35 -2 -42 -38l-46 -243h97c85 0 93 9 117 74h29l-38 -191h-29c1 71 -2 79 -89 79h-94l-29 -157c-10 -57 -9 -80 5 -92c16 -12 46 -14 103 -14c73 0 102 6 130 33c24 22 47 58 67 95l28 -10
c-11 -26 -47 -122 -62 -152h-469l6 26c82 8 91 12 107 96l35 175h-175c-73 -107 -109 -162 -134 -207c-25 -42 -20 -52 22 -58l31 -5l-6 -27h-231l6 27c61 8 79 14 128 80c116 157 238 335 332 468c22 30 18 36 -25 41l-53 5l8 28h508c-2 -18 -10 -91 -17 -150zM308 335h155
l56 280c-8 0 -17 -4 -30 -16c-49 -70 -110 -159 -181 -264z" />
    <glyph glyph-name="ordfeminine" unicode="&#xaa;" horiz-adv-x="331" 
d="M340 355l9 -20c-35 -38 -79 -64 -97 -64c-14 0 -25 12 -17 50l12 55h-3c-23 -28 -53 -56 -80 -76c-14 -10 -44 -29 -62 -29c-15 0 -36 13 -36 67c0 63 34 130 70 162c30 26 84 52 130 52c8 0 20 -1 35 -4c9 -2 20 -3 34 -3c-15 -64 -30 -131 -39 -191
c-2 -16 -2 -28 2 -28c7 0 24 11 42 29zM233 519c-13 0 -25 -3 -34 -8c-15 -8 -30 -23 -46 -55c-14 -31 -23 -72 -23 -99c0 -19 4 -33 14 -33s34 14 58 39c18 19 32 37 46 59c11 16 22 67 25 88c-9 5 -25 9 -40 9z" />
    <glyph glyph-name="Lslash" unicode="&#x141;" horiz-adv-x="550" 
d="M503 165l29 -10c-12 -30 -49 -125 -64 -155h-443l7 27c78 6 84 10 100 91l31 165l-106 -71l10 49l106 70l39 205c15 76 7 80 -71 87l7 26h249l-6 -26c-78 -8 -82 -11 -97 -87l-30 -148l136 90l-14 -52l-131 -88l-40 -218c-7 -36 -4 -60 12 -72c15 -12 46 -14 87 -14
c70 0 95 6 120 30c24 22 43 54 69 101z" />
    <glyph glyph-name="Oslash" unicode="&#xd8;" horiz-adv-x="708" 
d="M630 693l28 -21l-51 -71c56 -50 89 -129 89 -222c0 -216 -155 -394 -368 -394c-51 0 -102 14 -142 41l-51 -69l-26 24l48 66c-56 50 -91 128 -91 221c0 210 157 397 365 397c55 0 107 -15 147 -43zM199 104l346 472c-25 36 -69 54 -121 54c-162 0 -264 -195 -264 -367
c0 -67 15 -124 39 -159zM565 545l-344 -472c30 -36 70 -53 118 -53c167 0 263 201 263 366c0 60 -10 116 -37 159z" />
    <glyph glyph-name="OE" unicode="&#x152;" horiz-adv-x="947" 
d="M857 0h-303c-30 0 -62 -3 -90 -6s-52 -5 -83 -5c-248 0 -312 166 -312 284c0 256 197 388 425 387c79 0 128 -11 183 -11h271c-2 -18 -10 -91 -17 -150l-29 -2c-1 38 -3 66 -13 87c-11 23 -28 32 -103 32h-75c-33 0 -34 -2 -41 -39l-43 -220h95c85 0 93 9 116 74h29
l-38 -189h-28c1 70 -2 78 -89 78h-92l-33 -178c-11 -59 -10 -83 5 -94c14 -12 44 -14 100 -14c74 0 104 7 132 34c24 23 48 59 68 95l27 -9c-11 -27 -48 -123 -62 -154zM497 101l87 455c8 36 0 48 -16 55c-19 8 -51 15 -91 15c-163 0 -312 -115 -312 -351
c0 -98 41 -255 228 -251c22 0 46 3 66 12c19 8 30 27 38 65z" />
    <glyph glyph-name="ordmasculine" unicode="&#xba;" horiz-adv-x="314" 
d="M236 552c56 0 94 -37 94 -101c0 -53 -22 -108 -66 -143c-31 -24 -69 -37 -95 -37c-64 0 -95 47 -95 102c-1 74 41 132 89 159c24 13 51 20 73 20zM218 524c-7 0 -15 -3 -21 -5c-24 -10 -59 -54 -59 -142c0 -46 17 -75 49 -75c7 0 14 1 20 4c26 9 61 69 60 150
c-1 43 -19 68 -49 68z" />
    <glyph glyph-name="ae" unicode="&#xe6;" horiz-adv-x="664" 
d="M613 127l16 -22c-98 -103 -175 -116 -217 -116c-43 0 -103 26 -103 141c0 9 0 14 2 23l-2 1c-32 -43 -80 -90 -119 -120c-30 -25 -72 -45 -96 -45c-22 0 -56 25 -56 110c0 101 44 212 113 271c51 46 131 79 190 79c14 0 29 -2 43 -6c15 -2 28 -2 39 -2l4 -4l-14 -58l2 -1
c44 44 111 71 153 71c54 0 86 -36 86 -79c0 -94 -151 -155 -269 -182c-1 -11 -1 -22 -1 -35c0 -50 18 -105 73 -105c45 0 99 24 156 79zM298 405c-29 0 -53 -6 -67 -15c-20 -13 -47 -38 -72 -96c-26 -57 -38 -120 -38 -174c0 -40 10 -64 26 -64c20 0 58 24 92 62
c32 35 66 79 82 113c15 40 35 130 39 160c-13 8 -36 14 -62 14zM530 406c-18 0 -38 -6 -51 -15c-27 -17 -72 -66 -89 -170c143 38 188 82 189 133c0 36 -21 52 -49 52z" />
    <glyph glyph-name="dotlessi" unicode="&#x131;" horiz-adv-x="274" 
d="M224 109l13 -21c-34 -41 -111 -100 -146 -100c-20 0 -33 16 -13 98l62 256c6 22 6 32 -1 32c-8 0 -38 -17 -68 -43l-12 23c55 54 124 95 151 95c22 0 22 -31 10 -79l-68 -276c-6 -24 -5 -32 2 -32c12 0 46 26 70 47z" />
    <glyph glyph-name="lslash" unicode="&#x142;" horiz-adv-x="277" 
d="M313 493l-9 -49l-98 -75l-55 -267c-6 -31 -3 -42 4 -42c12 0 53 30 78 56l15 -23c-48 -58 -114 -105 -151 -105c-19 0 -35 23 -17 109l44 209l-87 -68l9 50l89 68l53 247c9 43 4 49 -44 50l-29 1l6 25c77 7 134 33 149 33c9 0 10 -10 6 -29l-59 -265z" />
    <glyph glyph-name="oslash" unicode="&#xf8;" horiz-adv-x="472" 
d="M417 483l25 -19l-39 -52c25 -27 38 -70 38 -120c0 -82 -39 -181 -107 -240c-40 -35 -103 -64 -159 -64c-27 0 -50 6 -67 18l-39 -53l-23 22l37 51c-26 29 -36 74 -36 116c0 134 68 228 145 271c42 24 85 36 117 36c27 0 50 -5 70 -18zM134 93l206 282
c-12 23 -36 35 -64 35c-16 0 -29 -3 -38 -7c-37 -15 -113 -96 -114 -250c0 -21 5 -40 10 -60zM356 343l-208 -281c12 -20 33 -35 60 -35c13 0 26 3 37 8c53 20 119 124 118 256c0 22 -3 40 -7 52z" />
    <glyph glyph-name="oe" unicode="&#x153;" horiz-adv-x="688" 
d="M637 128l16 -23c-94 -104 -170 -117 -210 -117c-37 0 -86 18 -101 90h-2c-38 -52 -111 -90 -168 -90c-92 0 -126 82 -126 157c0 129 67 226 144 270c41 23 79 34 111 34c53 0 95 -31 111 -90h2c45 48 123 90 177 90c53 0 86 -35 86 -79c0 -97 -163 -156 -267 -181
c-2 -13 -2 -21 -2 -28c0 -57 15 -114 78 -114c41 0 92 24 151 81zM600 355c0 34 -20 51 -48 51c-16 0 -36 -6 -48 -14c-24 -14 -73 -60 -90 -170c141 38 185 84 186 133zM350 294c0 81 -32 117 -80 117c-15 0 -26 -4 -36 -8c-38 -15 -104 -91 -104 -248
c0 -71 24 -126 78 -126c10 0 22 2 33 8c45 20 109 123 109 257z" />
    <glyph glyph-name="germandbls" unicode="&#xdf;" horiz-adv-x="512" 
d="M82 433h58c20 96 50 162 115 218c40 34 95 61 147 61c78 0 123 -51 123 -121c0 -23 -7 -47 -15 -61c-72 -51 -119 -108 -119 -154c0 -23 11 -49 33 -84c32 -50 47 -85 47 -125c0 -94 -110 -179 -197 -179c-40 0 -85 28 -85 57c0 11 9 26 23 35c9 6 15 5 22 -1
c25 -24 56 -42 86 -42c52 0 82 42 82 85c0 30 -9 59 -32 97c-28 44 -53 83 -53 121c0 57 57 114 130 178c6 16 9 35 9 52c0 62 -33 103 -86 103c-122 1 -147 -204 -166 -326c-13 -79 -20 -128 -35 -215c-32 -180 -75 -270 -125 -323c-45 -49 -91 -66 -112 -66
c-27 0 -58 18 -58 40c0 13 12 32 27 44c9 6 14 6 21 1c14 -12 35 -22 56 -22c16 0 31 8 41 21c15 18 37 61 66 251c22 138 35 224 48 314h-76l-4 13z" />
    <glyph glyph-name="onesuperior" unicode="&#xb9;" horiz-adv-x="326" 
d="M287 418l-6 -22h-190l5 22c51 5 62 7 72 57l35 181c8 39 4 41 -28 44l-28 3l5 21c43 6 85 16 133 30l-54 -279c-9 -50 2 -52 56 -57z" />
    <glyph glyph-name="logicalnot" unicode="&#xac;" horiz-adv-x="596" 
d="M539 97h-57v222h-421v49h478v-271z" />
    <glyph glyph-name="mu" unicode="&#xb5;" horiz-adv-x="511" 
d="M466 113l14 -23c-48 -58 -114 -102 -144 -102c-21 0 -36 19 -16 106c8 34 12 53 19 85h-3c-43 -62 -89 -119 -138 -159c-27 -22 -49 -32 -70 -32c-19 0 -33 11 -41 44h-2c-11 -36 -22 -98 -19 -147c2 -51 17 -93 31 -105l1 -7c-8 -13 -30 -31 -58 -31
c-21 0 -40 23 -38 72c2 43 20 127 37 199c40 179 74 332 92 415l72 21l7 -5c-26 -107 -50 -213 -71 -307c-12 -53 0 -83 22 -83c51 0 154 136 193 208c11 46 23 99 35 161l70 26h11c-27 -106 -53 -218 -78 -349c-6 -31 -4 -39 3 -39c9 0 44 25 71 52z" />
    <glyph glyph-name="trademark" unicode="&#x2122;" horiz-adv-x="461" 
d="M250 589h-15c-4 12 -7 22 -12 26c-3 4 -12 7 -24 7h-15v-98c0 -26 2 -28 27 -30v-15h-86v15c25 2 26 4 26 30v98h-13c-13 0 -21 -4 -25 -9c-4 -2 -8 -12 -11 -24h-15c1 23 4 44 4 56h12c1 -3 3 -5 5 -5c2 -1 5 -1 8 -1h107c6 0 9 1 13 6h11c1 -12 1 -34 3 -56zM496 479
h-79v15c22 2 23 4 23 28v90h-1l-59 -131h-13l-53 124h-2l-3 -58c-2 -19 -1 -31 -1 -39c1 -9 6 -12 24 -14v-15h-70v15c14 1 19 4 21 14c3 8 5 16 7 42l3 39c2 28 0 31 -25 32v18h64l49 -102l50 102h64v-18c-21 -1 -23 -4 -23 -26l1 -69c1 -28 3 -30 23 -32v-15z" />
    <glyph glyph-name="Eth" unicode="&#xd0;" horiz-adv-x="719" 
d="M139 649h248c188 0 320 -77 320 -268c0 -126 -63 -238 -167 -306c-88 -56 -182 -75 -308 -75h-214l7 27c76 8 83 11 99 91l39 203h-109l8 37h108l33 168c16 87 9 88 -71 97zM245 321l-35 -185c-10 -58 -9 -75 12 -87c16 -9 39 -13 68 -13c228 1 321 183 321 352
c0 121 -54 228 -226 228c-34 0 -59 -3 -71 -8c-12 -6 -17 -15 -22 -39l-40 -211h155l-8 -37h-154z" />
    <glyph glyph-name="onehalf" unicode="&#xbd;" horiz-adv-x="740" 
d="M649 631l-504 -658l-27 25l503 657zM266 300l-5 -23h-192l6 23c51 5 62 7 72 56l35 181c8 40 4 41 -28 44l-28 3l5 22c42 5 85 15 133 30l-54 -280c-9 -49 2 -51 56 -56zM657 92l20 -9c-16 -31 -26 -54 -38 -83h-243l4 18c29 22 75 57 116 94c45 39 95 85 95 138
c0 35 -18 59 -60 59c-37 0 -63 -31 -85 -56l-17 17l39 49c23 25 58 40 96 40c49 0 96 -36 96 -98c0 -69 -74 -116 -128 -158l-61 -49v-2h92c35 0 47 6 74 40z" />
    <glyph glyph-name="plusminus" unicode="&#xb1;" horiz-adv-x="596" 
d="M545 311h-214v-204h-57v204h-215v49h215v191h57v-191h214v-49zM545 0h-486v50h486v-50z" />
    <glyph glyph-name="Thorn" unicode="&#xde;" horiz-adv-x="541" 
d="M268 0h-257l6 26c77 8 82 11 96 85l82 423c14 74 12 81 -66 89l6 26h237l-6 -26c-76 -8 -77 -9 -97 -122h71c122 0 196 -51 196 -155c0 -130 -120 -194 -238 -195c-14 0 -24 1 -36 5l-57 15l-12 -60c-13 -72 -7 -77 81 -85zM254 432l-42 -228c16 -6 44 -14 78 -14
c61 0 156 35 156 159c0 66 -33 120 -134 121c-20 0 -33 -3 -42 -6c-8 -3 -12 -12 -16 -32z" />
    <glyph glyph-name="onequarter" unicode="&#xbc;" horiz-adv-x="747" 
d="M662 631l-503 -658l-27 25l503 657zM273 300l-5 -23h-192l6 22c51 6 61 8 71 57l36 181c7 40 4 41 -29 44l-28 3l6 22c42 5 84 15 133 30l-54 -280c-9 -49 2 -50 56 -56zM662 133l-7 -36h-58l-5 -24c-8 -44 2 -46 47 -51l-5 -22h-176l5 22c52 5 62 7 70 50l5 25h-162
l4 24c71 78 165 176 226 237h42l-44 -225h58zM576 288h-2c-47 -51 -94 -103 -139 -155h109z" />
    <glyph glyph-name="divide" unicode="&#xf7;" horiz-adv-x="596" 
d="M310 354c-25 0 -49 22 -49 49c0 26 24 48 49 48c28 0 50 -22 50 -48c0 -27 -22 -49 -50 -49zM551 230h-485v49h485v-49zM309 154c24 0 49 -21 49 -48c0 -26 -25 -48 -49 -48c-28 0 -50 22 -50 48c0 27 22 48 50 48z" />
    <glyph glyph-name="brokenbar" unicode="&#xa6;" horiz-adv-x="239" 
d="M164 325h-63v350h63v-350zM164 -175h-63v350h63v-350z" />
    <glyph glyph-name="degree" unicode="&#xb0;" horiz-adv-x="350" 
d="M236 664c74 0 133 -49 133 -131c0 -86 -67 -143 -150 -143c-74 0 -132 49 -132 129c0 84 70 145 149 145zM234 624c-50 0 -89 -42 -89 -104c0 -51 29 -90 78 -90c56 0 90 47 90 101c0 53 -29 93 -79 93z" />
    <glyph glyph-name="thorn" unicode="&#xfe;" horiz-adv-x="494" 
d="M178 299h2c91 111 174 150 218 150c37 0 71 -38 71 -113c0 -117 -62 -233 -148 -294c-58 -41 -125 -54 -137 -54s-44 4 -66 18c-9 -46 -18 -91 -28 -142c-11 -62 -4 -72 51 -78l24 -2l-3 -25l-236 -12l3 26c62 12 72 20 87 91c51 239 101 477 149 720c12 63 5 67 -47 67
h-24l3 26c77 9 139 34 154 35c9 1 13 -7 9 -27zM352 391c-36 0 -116 -54 -183 -155c-8 -35 -17 -72 -37 -170c11 -13 42 -34 79 -34c25 0 49 7 67 20c41 27 108 139 108 266c0 52 -15 73 -34 73z" />
    <glyph glyph-name="threequarters" unicode="&#xbe;" horiz-adv-x="740" 
d="M674 631l-504 -658l-27 25l503 657zM144 545l-17 16l31 38c17 20 48 37 88 37c44 0 86 -26 86 -74c0 -37 -37 -59 -66 -73v-2c33 -8 69 -34 69 -78c0 -58 -44 -92 -83 -113c-34 -17 -70 -25 -92 -25c-34 0 -61 14 -70 24c-8 9 -11 17 -8 26c4 10 13 21 21 25
c6 4 14 3 21 -4c16 -14 41 -35 73 -35c37 0 70 29 70 77c0 47 -32 68 -68 68c-14 0 -28 -3 -37 -7l-6 24c61 13 110 42 110 81c0 27 -17 43 -47 43c-31 0 -57 -23 -75 -48zM671 133l-6 -36h-58l-5 -24c-9 -44 1 -46 46 -51l-4 -22h-176l4 22c53 5 63 7 71 50l4 25h-162l5 24
c71 78 164 176 226 237h41l-44 -225h58zM584 288c-47 -51 -94 -103 -139 -155h109z" />
    <glyph glyph-name="twosuperior" unicode="&#xb2;" horiz-adv-x="326" 
d="M309 488l21 -9c-16 -32 -27 -54 -39 -83h-242l3 18c30 22 75 57 117 93c44 40 95 88 95 139c0 35 -18 60 -60 60c-37 0 -64 -32 -85 -57l-18 17l40 49c23 25 58 39 92 39c53 0 100 -34 100 -97c0 -68 -74 -116 -128 -158l-62 -49v-2h93c35 0 47 6 73 40z" />
    <glyph glyph-name="registered" unicode="&#xae;" horiz-adv-x="313" 
d="M199 661c75 0 130 -59 130 -129c0 -68 -55 -128 -130 -128c-73 0 -128 56 -128 128c0 70 56 129 128 129zM200 638c-59 0 -101 -47 -101 -106c0 -60 44 -105 101 -105c58 0 101 45 101 105c0 59 -43 106 -101 106zM273 475l-3 -12c-23 0 -37 5 -49 21
c-8 12 -15 23 -19 30c-4 6 -7 7 -12 7h-4v-22c0 -18 2 -18 18 -20v-15h-67v15c18 2 19 2 19 20v68c0 18 -1 18 -18 19v15h68c22 0 48 -6 48 -36c0 -16 -11 -28 -27 -34c10 -18 18 -29 33 -45c5 -6 9 -9 13 -11zM186 574v-36h8c6 0 13 2 17 4c7 5 11 11 11 21
c0 19 -15 23 -24 23s-12 -2 -12 -12z" />
    <glyph glyph-name="minus" unicode="&#x2212;" horiz-adv-x="596" 
d="M553 230h-486v49h486v-49z" />
    <glyph glyph-name="eth" unicode="&#xf0;" horiz-adv-x="466" 
d="M475 654l-117 -63c57 -75 84 -164 84 -253c0 -111 -41 -223 -111 -285c-45 -39 -106 -65 -157 -65c-89 0 -125 79 -125 153c0 137 75 230 144 270c47 27 96 38 125 37c13 0 24 -3 38 -7c-2 33 -30 94 -49 122l-144 -77l-15 31l138 73c-17 24 -75 78 -129 95
c-1 8 3 20 12 27c46 -9 117 -45 164 -95l125 67zM212 28c10 0 18 2 27 6c46 17 125 123 123 299c0 31 -4 45 -18 57c-18 14 -43 19 -64 19c-19 0 -35 -5 -49 -12c-30 -15 -99 -89 -99 -240c0 -69 24 -129 80 -129z" />
    <glyph glyph-name="multiply" unicode="&#xd7;" horiz-adv-x="596" 
d="M536 47l-37 -37l-195 199l-195 -199l-35 37l193 200l-193 197l35 38l195 -198l195 200l37 -37l-195 -200z" />
    <glyph glyph-name="threesuperior" unicode="&#xb3;" horiz-adv-x="326" 
d="M133 664l-17 16l31 37c18 20 48 37 88 37c44 0 86 -25 86 -73c0 -37 -37 -59 -66 -73v-2c33 -8 69 -34 69 -78c0 -58 -45 -92 -85 -113c-34 -17 -68 -25 -90 -25c-34 0 -62 14 -71 24c-8 9 -10 18 -7 26c4 10 13 21 21 25c7 4 14 3 21 -4c16 -14 41 -33 74 -33
c36 0 69 27 69 75c0 47 -31 68 -68 68c-14 0 -28 -3 -37 -7l-5 24c60 13 110 42 109 81c0 27 -17 43 -46 43c-32 0 -57 -23 -76 -48z" />
    <glyph glyph-name="copyright" unicode="&#xa9;" horiz-adv-x="693" 
d="M371 626c173 0 301 -134 301 -304c0 -169 -128 -303 -301 -303s-301 134 -301 303c0 170 129 304 301 304zM372 592c-147 0 -255 -117 -255 -269s108 -270 255 -270c146 0 254 118 254 270s-108 269 -254 269zM501 263l23 -5c-7 -28 -17 -72 -25 -90
c-21 -7 -62 -19 -106 -19c-130 0 -190 87 -190 170c0 112 91 177 194 177c50 0 87 -10 105 -17c4 -27 6 -49 11 -91l-22 -4c-21 53 -48 83 -101 83c-72 0 -114 -59 -114 -141c0 -88 51 -147 117 -147c53 0 84 31 108 84z" />
    <glyph glyph-name="Aacute" unicode="&#xc1;" horiz-adv-x="664" 
d="M621 27l-7 -27h-236l7 27c69 7 73 18 67 61c-7 42 -15 90 -25 148h-209c-17 -32 -48 -90 -70 -136c-29 -60 -22 -67 55 -73l-6 -27h-215l7 27c61 8 71 13 118 96l301 533l31 8l28 -177c20 -129 42 -254 64 -373c12 -71 19 -80 90 -87zM421 278l-40 259h-2
c-50 -92 -96 -174 -139 -259h181zM570 755l-2 -8l-187 -63l-13 24c55 35 115 73 161 102c13 -3 38 -40 41 -55z" />
    <glyph glyph-name="Acircumflex" unicode="&#xc2;" horiz-adv-x="664" 
d="M621 27l-7 -27h-236l7 27c69 7 73 18 67 61c-7 42 -15 90 -25 148h-209c-17 -32 -48 -90 -70 -136c-29 -60 -22 -67 55 -73l-6 -27h-215l7 27c61 8 71 13 118 96l301 533l31 8l28 -177c20 -129 42 -254 64 -373c12 -71 19 -80 90 -87zM421 278l-40 259h-2
c-50 -92 -96 -174 -139 -259h181zM558 706l-18 -22c-36 15 -71 35 -107 58c-42 -23 -84 -44 -126 -58l-12 22c45 30 91 63 135 104h25c34 -41 69 -74 103 -104z" />
    <glyph glyph-name="Adieresis" unicode="&#xc4;" horiz-adv-x="664" 
d="M621 27l-7 -27h-236l7 27c69 7 73 18 67 61c-7 42 -15 90 -25 148h-209c-17 -32 -48 -90 -70 -136c-29 -60 -22 -67 55 -73l-6 -27h-215l7 27c61 8 71 13 118 96l301 533l31 8l28 -177c20 -129 42 -254 64 -373c12 -71 19 -80 90 -87zM421 278l-40 259h-2
c-50 -92 -96 -174 -139 -259h181zM339 789c25 0 39 -19 39 -42c0 -30 -21 -55 -50 -55c-23 0 -39 17 -40 41c0 25 18 56 51 56zM525 789c25 0 39 -19 39 -42c0 -30 -21 -55 -51 -55c-22 0 -39 17 -39 41c0 25 18 56 51 56z" />
    <glyph glyph-name="Agrave" unicode="&#xc0;" horiz-adv-x="664" 
d="M621 27l-7 -27h-236l7 27c69 7 73 18 67 61c-7 42 -15 90 -25 148h-209c-17 -32 -48 -90 -70 -136c-29 -60 -22 -67 55 -73l-6 -27h-215l7 27c61 8 71 13 118 96l301 533l31 8l28 -177c20 -129 42 -254 64 -373c12 -71 19 -80 90 -87zM421 278l-40 259h-2
c-50 -92 -96 -174 -139 -259h181zM472 709l-14 -25l-189 63l-2 7c4 15 30 52 42 57c56 -35 110 -69 163 -102z" />
    <glyph glyph-name="Aring" unicode="&#xc5;" horiz-adv-x="664" 
d="M621 27l-7 -27h-236l7 27c69 7 73 18 67 61c-7 42 -15 90 -25 148h-209c-17 -32 -48 -90 -70 -136c-29 -60 -22 -67 55 -73l-6 -27h-215l7 27c61 8 71 13 118 96l301 533l31 8l28 -177c20 -129 42 -254 64 -373c12 -71 19 -80 90 -87zM421 278l-40 259h-2
c-50 -92 -96 -174 -139 -259h181zM520 774c-1 -53 -48 -86 -95 -86s-81 33 -79 78c1 56 46 90 94 90c44 0 82 -31 80 -82zM475 775c1 28 -12 49 -38 49c-27 0 -45 -24 -46 -55c-1 -27 13 -47 38 -47s45 22 46 53z" />
    <glyph glyph-name="Atilde" unicode="&#xc3;" horiz-adv-x="664" 
d="M621 27l-7 -27h-236l7 27c69 7 73 18 67 61c-7 42 -15 90 -25 148h-209c-17 -32 -48 -90 -70 -136c-29 -60 -22 -67 55 -73l-6 -27h-215l7 27c61 8 71 13 118 96l301 533l31 8l28 -177c20 -129 42 -254 64 -373c12 -71 19 -80 90 -87zM421 278l-40 259h-2
c-50 -92 -96 -174 -139 -259h181zM537 792l25 -16c-23 -63 -55 -80 -81 -80c-21 0 -41 11 -68 23c-14 6 -26 12 -41 12c-18 0 -33 -16 -47 -44l-25 18c25 62 56 80 80 80c17 0 31 -5 59 -18c22 -9 36 -16 52 -16c18 0 30 14 46 41z" />
    <glyph glyph-name="Ccedilla" unicode="&#xc7;" horiz-adv-x="637" 
d="M308 -51l31 37c-156 4 -271 107 -271 284c0 228 172 394 417 394c82 0 141 -20 169 -28c-3 -54 -4 -108 -8 -157l-30 -3c-6 122 -65 154 -154 154c-180 0 -297 -169 -297 -354c0 -151 70 -256 195 -255c104 0 164 67 223 158l26 -12c-18 -48 -53 -123 -76 -157
c-26 -5 -83 -22 -159 -24l-10 -12c-15 -19 -16 -25 0 -43c23 -27 32 -46 31 -68c-2 -41 -55 -81 -125 -101l-10 25c44 20 70 39 72 61c1 18 -10 29 -19 40c-22 25 -25 37 -5 61z" />
    <glyph glyph-name="Eacute" unicode="&#xc9;" horiz-adv-x="559" 
d="M128 649h435c-3 -18 -12 -94 -19 -153l-29 -2c-1 38 -3 68 -13 88c-11 23 -24 34 -97 34h-78c-34 0 -36 -4 -44 -41l-41 -217h96c84 0 90 8 114 73h29l-38 -189h-28c2 70 1 77 -85 77h-96l-33 -175c-11 -58 -10 -84 5 -96s45 -14 101 -14c74 0 104 8 131 34
c24 23 47 60 67 96l28 -10c-11 -27 -48 -123 -62 -154h-468l6 27c81 7 89 12 105 93l79 410c16 80 11 85 -71 93zM513 755l-2 -8l-188 -63l-13 25c56 35 115 72 161 102c13 -4 38 -40 42 -56z" />
    <glyph glyph-name="Ecircumflex" unicode="&#xca;" horiz-adv-x="559" 
d="M128 649h435c-3 -18 -12 -94 -19 -153l-29 -2c-1 38 -3 68 -13 88c-11 23 -24 34 -97 34h-78c-34 0 -36 -4 -44 -41l-41 -217h96c84 0 90 8 114 73h29l-38 -189h-28c2 70 1 77 -85 77h-96l-33 -175c-11 -58 -10 -84 5 -96s45 -14 101 -14c74 0 104 8 131 34
c24 23 47 60 67 96l28 -10c-11 -27 -48 -123 -62 -154h-468l6 27c81 7 89 12 105 93l79 410c16 80 11 85 -71 93zM505 706l-19 -22c-36 15 -71 35 -106 58c-43 -23 -85 -44 -126 -58l-13 22c46 30 91 63 136 104h24c34 -41 69 -74 104 -104z" />
    <glyph glyph-name="Edieresis" unicode="&#xcb;" horiz-adv-x="559" 
d="M128 649h435c-3 -18 -12 -94 -19 -153l-29 -2c-1 38 -3 68 -13 88c-11 23 -24 34 -97 34h-78c-34 0 -36 -4 -44 -41l-41 -217h96c84 0 90 8 114 73h29l-38 -189h-28c2 70 1 77 -85 77h-96l-33 -175c-11 -58 -10 -84 5 -96s45 -14 101 -14c74 0 104 8 131 34
c24 23 47 60 67 96l28 -10c-11 -27 -48 -123 -62 -154h-468l6 27c81 7 89 12 105 93l79 410c16 80 11 85 -71 93zM292 789c26 0 39 -19 39 -42c0 -30 -21 -55 -50 -55c-22 0 -39 17 -39 41c0 25 17 56 50 56zM478 789c26 0 39 -19 39 -42c0 -30 -21 -55 -50 -55
c-23 0 -39 17 -39 41c0 25 17 56 50 56z" />
    <glyph glyph-name="Egrave" unicode="&#xc8;" horiz-adv-x="559" 
d="M128 649h435c-3 -18 -12 -94 -19 -153l-29 -2c-1 38 -3 68 -13 88c-11 23 -24 34 -97 34h-78c-34 0 -36 -4 -44 -41l-41 -217h96c84 0 90 8 114 73h29l-38 -189h-28c2 70 1 77 -85 77h-96l-33 -175c-11 -58 -10 -84 5 -96s45 -14 101 -14c74 0 104 8 131 34
c24 23 47 60 67 96l28 -10c-11 -27 -48 -123 -62 -154h-468l6 27c81 7 89 12 105 93l79 410c16 80 11 85 -71 93zM439 710l-13 -26l-189 64l-2 7c4 15 29 52 42 57c55 -35 110 -69 162 -102z" />
    <glyph glyph-name="Iacute" unicode="&#xcd;" horiz-adv-x="335" 
d="M380 649l-6 -26c-78 -8 -83 -13 -97 -86l-81 -421c-15 -77 -9 -83 73 -89l-6 -27h-256l7 27c78 6 85 13 100 89l81 421c14 73 7 78 -76 86l7 26h254zM398 755l-2 -8l-188 -63l-13 24c56 35 116 73 161 102c13 -3 39 -40 42 -55z" />
    <glyph glyph-name="Icircumflex" unicode="&#xce;" horiz-adv-x="335" 
d="M380 649l-6 -26c-78 -8 -83 -13 -97 -86l-81 -421c-15 -77 -9 -83 73 -89l-6 -27h-256l7 27c78 6 85 13 100 89l81 421c14 73 7 78 -76 86l7 26h254zM390 706l-18 -22c-36 15 -72 35 -107 58c-43 -23 -85 -44 -126 -58l-13 22c46 30 91 63 136 104h25
c33 -41 68 -74 103 -104z" />
    <glyph glyph-name="Idieresis" unicode="&#xcf;" horiz-adv-x="335" 
d="M380 649l-6 -26c-78 -8 -83 -13 -97 -86l-81 -421c-15 -77 -9 -83 73 -89l-6 -27h-256l7 27c78 6 85 13 100 89l81 421c14 73 7 78 -76 86l7 26h254zM176 789c25 0 39 -19 39 -42c0 -30 -21 -55 -51 -55c-22 0 -39 17 -39 41c0 25 18 56 51 56zM362 789
c25 0 38 -19 38 -42c0 -30 -20 -55 -50 -55c-22 0 -39 17 -39 41c0 25 18 56 51 56z" />
    <glyph glyph-name="Igrave" unicode="&#xcc;" horiz-adv-x="335" 
d="M380 649l-6 -26c-78 -8 -83 -13 -97 -86l-81 -421c-15 -77 -9 -83 73 -89l-6 -27h-256l7 27c78 6 85 13 100 89l81 421c14 73 7 78 -76 86l7 26h254zM329 709l-14 -25l-189 63l-2 7c4 15 30 52 42 57c56 -35 111 -69 163 -102z" />
    <glyph glyph-name="Ntilde" unicode="&#xd1;" horiz-adv-x="705" 
d="M766 649l-6 -26c-60 -4 -74 -19 -87 -63c-8 -26 -21 -78 -38 -170l-76 -398h-30l-296 530h-3l-52 -266c-17 -86 -24 -135 -26 -168c-2 -46 16 -56 85 -61l-6 -27h-229l6 27c52 3 75 15 88 58c12 36 23 81 42 174l52 246c10 51 7 65 -6 87c-12 21 -29 27 -85 31l6 26h144
l295 -509h4l46 250c18 92 25 143 27 171c3 47 -13 57 -87 62l7 26h225zM551 787l25 -16c-23 -63 -55 -80 -80 -80c-21 0 -42 11 -68 23c-14 6 -26 12 -41 12c-18 0 -34 -16 -48 -44l-24 18c24 62 55 80 80 80c17 0 30 -5 59 -18c21 -9 36 -16 51 -16c19 0 31 14 46 41z" />
    <glyph glyph-name="Oacute" unicode="&#xd3;" horiz-adv-x="708" 
d="M430 665c159 0 266 -119 266 -287c0 -212 -152 -393 -364 -393c-157 0 -266 115 -266 284c0 209 156 396 364 396zM422 630c-157 0 -260 -195 -260 -370c0 -134 56 -240 178 -240c167 0 261 204 261 368c0 133 -49 242 -179 242zM559 764l-3 -8l-187 -63l-13 24
c56 35 115 73 161 102c13 -3 38 -40 42 -55z" />
    <glyph glyph-name="Ocircumflex" unicode="&#xd4;" horiz-adv-x="708" 
d="M430 665c159 0 266 -119 266 -287c0 -212 -152 -393 -364 -393c-157 0 -266 115 -266 284c0 209 156 396 364 396zM422 630c-157 0 -260 -195 -260 -370c0 -134 56 -240 178 -240c167 0 261 204 261 368c0 133 -49 242 -179 242zM564 715l-18 -23c-36 16 -71 35 -107 58
c-42 -23 -84 -43 -126 -58l-13 23c46 29 92 62 136 104l25 -1c34 -40 69 -73 103 -103z" />
    <glyph glyph-name="Odieresis" unicode="&#xd6;" horiz-adv-x="708" 
d="M430 665c159 0 266 -119 266 -287c0 -212 -152 -393 -364 -393c-157 0 -266 115 -266 284c0 209 156 396 364 396zM422 630c-157 0 -260 -195 -260 -370c0 -134 56 -240 178 -240c167 0 261 204 261 368c0 133 -49 242 -179 242zM349 799c26 0 39 -20 39 -43
c0 -29 -21 -55 -50 -55c-22 0 -39 17 -39 41c0 25 18 57 50 57zM535 799c26 0 39 -20 39 -43c0 -29 -21 -55 -50 -55c-22 0 -39 17 -39 41c0 25 17 57 50 57z" />
    <glyph glyph-name="Ograve" unicode="&#xd2;" horiz-adv-x="708" 
d="M430 665c159 0 266 -119 266 -287c0 -212 -152 -393 -364 -393c-157 0 -266 115 -266 284c0 209 156 396 364 396zM422 630c-157 0 -260 -195 -260 -370c0 -134 56 -240 178 -240c167 0 261 204 261 368c0 133 -49 242 -179 242zM516 718l-14 -25l-189 63l-2 7
c4 15 30 52 42 57c56 -35 110 -69 163 -102z" />
    <glyph glyph-name="Otilde" unicode="&#xd5;" horiz-adv-x="708" 
d="M430 665c159 0 266 -119 266 -287c0 -212 -152 -393 -364 -393c-157 0 -266 115 -266 284c0 209 156 396 364 396zM422 630c-157 0 -260 -195 -260 -370c0 -134 56 -240 178 -240c167 0 261 204 261 368c0 133 -49 242 -179 242zM547 801l25 -16c-23 -63 -55 -80 -81 -80
c-21 0 -41 12 -68 23c-14 7 -26 13 -41 13c-18 0 -33 -17 -47 -44l-25 17c25 63 56 80 80 80c18 0 31 -5 60 -18c21 -9 36 -16 51 -16c18 0 30 14 46 41z" />
    <glyph glyph-name="Scaron" unicode="&#x160;" horiz-adv-x="468" 
d="M38 195l27 3c11 -76 52 -179 162 -179c71 0 120 50 120 129c0 57 -35 95 -93 141l-28 22c-46 37 -112 92 -112 175c0 104 83 179 203 179c32 0 67 -7 95 -17c19 -7 36 -13 44 -16c-4 -42 -2 -95 -3 -140l-29 -3c-8 75 -34 143 -120 143c-70 0 -112 -56 -112 -117
c0 -58 41 -94 93 -134l30 -22c69 -52 116 -104 116 -183c0 -117 -103 -191 -218 -191c-80 0 -150 37 -172 62c-1 23 -1 77 -3 148zM443 829l13 -22c-45 -30 -91 -63 -135 -104h-25c-34 41 -69 73 -104 104l19 22c36 -16 71 -36 107 -59c42 24 83 44 125 59z" />
    <glyph glyph-name="Uacute" unicode="&#xda;" horiz-adv-x="707" 
d="M773 649l-6 -26c-66 -4 -78 -18 -88 -55c-10 -35 -22 -86 -40 -180l-15 -77c-22 -107 -52 -198 -119 -260c-49 -46 -112 -66 -170 -66c-56 0 -112 15 -154 54c-46 43 -68 118 -45 242l48 253c15 77 10 81 -69 89l6 26h248l-6 -26c-76 -8 -82 -11 -97 -90l-46 -244
c-35 -183 39 -251 138 -251c119 0 188 87 226 281l14 69c18 94 25 147 27 180c2 41 -16 50 -88 55l6 26h230zM598 755l-3 -8l-187 -63l-13 24c56 35 115 73 161 102c13 -3 38 -40 42 -55z" />
    <glyph glyph-name="Ucircumflex" unicode="&#xdb;" horiz-adv-x="707" 
d="M773 649l-6 -26c-66 -4 -78 -18 -88 -55c-10 -35 -22 -86 -40 -180l-15 -77c-22 -107 -52 -198 -119 -260c-49 -46 -112 -66 -170 -66c-56 0 -112 15 -154 54c-46 43 -68 118 -45 242l48 253c15 77 10 81 -69 89l6 26h248l-6 -26c-76 -8 -82 -11 -97 -90l-46 -244
c-35 -183 39 -251 138 -251c119 0 188 87 226 281l14 69c18 94 25 147 27 180c2 41 -16 50 -88 55l6 26h230zM589 709l-18 -22c-36 15 -71 35 -107 58c-43 -23 -84 -44 -126 -58l-13 22c46 29 92 63 136 104h25c34 -41 69 -74 103 -104z" />
    <glyph glyph-name="Udieresis" unicode="&#xdc;" horiz-adv-x="707" 
d="M773 649l-6 -26c-66 -4 -78 -18 -88 -55c-10 -35 -22 -86 -40 -180l-15 -77c-22 -107 -52 -198 -119 -260c-49 -46 -112 -66 -170 -66c-56 0 -112 15 -154 54c-46 43 -68 118 -45 242l48 253c15 77 10 81 -69 89l6 26h248l-6 -26c-76 -8 -82 -11 -97 -90l-46 -244
c-35 -183 39 -251 138 -251c119 0 188 87 226 281l14 69c18 94 25 147 27 180c2 41 -16 50 -88 55l6 26h230zM370 789c26 0 39 -19 39 -42c0 -30 -21 -55 -50 -55c-22 0 -39 17 -39 41c0 25 17 56 50 56zM556 789c26 0 39 -19 39 -42c0 -30 -21 -55 -50 -55
c-22 0 -39 17 -39 41c0 25 17 56 50 56z" />
    <glyph glyph-name="Ugrave" unicode="&#xd9;" horiz-adv-x="707" 
d="M773 649l-6 -26c-66 -4 -78 -18 -88 -55c-10 -35 -22 -86 -40 -180l-15 -77c-22 -107 -52 -198 -119 -260c-49 -46 -112 -66 -170 -66c-56 0 -112 15 -154 54c-46 43 -68 118 -45 242l48 253c15 77 10 81 -69 89l6 26h248l-6 -26c-76 -8 -82 -11 -97 -90l-46 -244
c-35 -183 39 -251 138 -251c119 0 188 87 226 281l14 69c18 94 25 147 27 180c2 41 -16 50 -88 55l6 26h230zM523 709l-13 -25l-189 63l-2 7c4 15 29 52 42 57c56 -35 110 -69 162 -102z" />
    <glyph glyph-name="Yacute" unicode="&#xdd;" horiz-adv-x="611" 
d="M686 649l-7 -26c-64 -7 -75 -13 -126 -76c-45 -57 -98 -131 -164 -225c-15 -20 -20 -34 -24 -57l-28 -141c-17 -85 -10 -89 79 -97l-6 -27h-267l7 27c81 6 88 11 105 97l27 135c4 21 3 35 -5 59c-24 63 -49 130 -89 234c-23 59 -29 63 -92 71l6 26h232l-7 -26l-35 -5
c-35 -5 -37 -13 -27 -42c19 -56 63 -173 91 -241c48 66 120 167 161 235c21 35 14 43 -23 48l-31 4l7 27h216zM537 755l-2 -8l-187 -63l-13 24c55 35 115 73 161 102c13 -3 38 -40 41 -55z" />
    <glyph glyph-name="Ydieresis" unicode="&#x178;" horiz-adv-x="611" 
d="M686 649l-7 -26c-64 -7 -75 -13 -126 -76c-45 -57 -98 -131 -164 -225c-15 -20 -20 -34 -24 -57l-28 -141c-17 -85 -10 -89 79 -97l-6 -27h-267l7 27c81 6 88 11 105 97l27 135c4 21 3 35 -5 59c-24 63 -49 130 -89 234c-23 59 -29 63 -92 71l6 26h232l-7 -26l-35 -5
c-35 -5 -37 -13 -27 -42c19 -56 63 -173 91 -241c48 66 120 167 161 235c21 35 14 43 -23 48l-31 4l7 27h216zM320 790c25 0 39 -20 39 -42c0 -30 -21 -55 -50 -55c-23 0 -40 17 -40 41c0 25 18 56 51 56zM506 790c25 0 38 -20 38 -42c0 -30 -20 -55 -50 -55
c-22 0 -39 17 -39 41c0 25 18 56 51 56z" />
    <glyph glyph-name="Zcaron" unicode="&#x17d;" horiz-adv-x="588" 
d="M611 649l6 -13c-166 -199 -327 -395 -491 -596c40 -4 90 -6 156 -6c96 0 152 4 184 31c27 23 47 59 73 111l28 -12c-10 -33 -44 -130 -60 -164h-499l-6 15c166 199 330 397 495 601h-158c-99 0 -118 -11 -137 -36c-15 -17 -31 -44 -51 -95l-29 3c17 62 33 134 41 186h21
c12 -23 22 -25 50 -25h377zM510 814l14 -22c-45 -30 -92 -63 -136 -104h-25c-33 41 -68 74 -103 104l19 22c36 -16 70 -36 106 -58c43 23 84 43 125 58z" />
    <glyph glyph-name="aacute" unicode="&#xe1;" horiz-adv-x="490" 
d="M453 116l12 -24c-54 -67 -121 -104 -146 -104c-19 0 -32 15 -18 88l20 95h-2c-39 -55 -86 -103 -129 -138c-33 -27 -66 -45 -93 -45c-26 0 -58 33 -58 113c0 101 47 210 120 271c50 42 123 77 186 77c21 0 41 -3 62 -7c14 -3 27 -6 38 -6l3 -4c-16 -62 -46 -198 -69 -325
c-7 -35 -4 -43 2 -43c8 0 43 23 72 52zM149 52c39 0 152 127 186 196c11 40 26 112 33 144c-14 7 -41 14 -67 14s-54 -8 -71 -21c-68 -50 -108 -168 -108 -267c0 -45 13 -66 27 -66zM451 661l-155 -170l-23 16c33 52 82 136 92 155c11 4 68 13 83 10z" />
    <glyph glyph-name="acircumflex" unicode="&#xe2;" horiz-adv-x="490" 
d="M453 116l12 -24c-54 -67 -121 -104 -146 -104c-19 0 -32 15 -18 88l20 95h-2c-39 -55 -86 -103 -129 -138c-33 -27 -66 -45 -93 -45c-26 0 -58 33 -58 113c0 101 47 210 120 271c50 42 123 77 186 77c21 0 41 -3 62 -7c14 -3 27 -6 38 -6l3 -4c-16 -62 -46 -198 -69 -325
c-7 -35 -4 -43 2 -43c8 0 43 23 72 52zM149 52c39 0 152 127 186 196c11 40 26 112 33 144c-14 7 -41 14 -67 14s-54 -8 -71 -21c-68 -50 -108 -168 -108 -267c0 -45 13 -66 27 -66zM420 506l-23 -17c-28 31 -52 67 -71 96c-30 -30 -67 -65 -109 -96l-19 17
c48 55 93 109 130 163h22c17 -54 41 -108 70 -163z" />
    <glyph glyph-name="adieresis" unicode="&#xe4;" horiz-adv-x="490" 
d="M453 116l12 -24c-54 -67 -121 -104 -146 -104c-19 0 -32 15 -18 88l20 95h-2c-39 -55 -86 -103 -129 -138c-33 -27 -66 -45 -93 -45c-26 0 -58 33 -58 113c0 101 47 210 120 271c50 42 123 77 186 77c21 0 41 -3 62 -7c14 -3 27 -6 38 -6l3 -4c-16 -62 -46 -198 -69 -325
c-7 -35 -4 -43 2 -43c8 0 43 23 72 52zM149 52c39 0 152 127 186 196c11 40 26 112 33 144c-14 7 -41 14 -67 14s-54 -8 -71 -21c-68 -50 -108 -168 -108 -267c0 -45 13 -66 27 -66zM245 631c25 0 38 -20 38 -42c0 -31 -20 -55 -50 -55c-22 0 -39 16 -39 41
c0 24 18 56 51 56zM421 631c25 0 38 -20 38 -42c0 -31 -20 -55 -50 -55c-22 0 -39 16 -39 41c0 24 18 56 51 56z" />
    <glyph glyph-name="agrave" unicode="&#xe0;" horiz-adv-x="490" 
d="M453 116l12 -24c-54 -67 -121 -104 -146 -104c-19 0 -32 15 -18 88l20 95h-2c-39 -55 -86 -103 -129 -138c-33 -27 -66 -45 -93 -45c-26 0 -58 33 -58 113c0 101 47 210 120 271c50 42 123 77 186 77c21 0 41 -3 62 -7c14 -3 27 -6 38 -6l3 -4c-16 -62 -46 -198 -69 -325
c-7 -35 -4 -43 2 -43c8 0 43 23 72 52zM149 52c39 0 152 127 186 196c11 40 26 112 33 144c-14 7 -41 14 -67 14s-54 -8 -71 -21c-68 -50 -108 -168 -108 -267c0 -45 13 -66 27 -66zM363 500l-29 -9c-30 57 -62 118 -89 164l3 9c8 3 57 14 73 12c10 -49 29 -121 42 -176z
" />
    <glyph glyph-name="aring" unicode="&#xe5;" horiz-adv-x="490" 
d="M453 116l12 -24c-54 -67 -121 -104 -146 -104c-19 0 -32 15 -18 88l20 95h-2c-39 -55 -86 -103 -129 -138c-33 -27 -66 -45 -93 -45c-26 0 -58 33 -58 113c0 101 47 210 120 271c50 42 123 77 186 77c21 0 41 -3 62 -7c14 -3 27 -6 38 -6l3 -4c-16 -62 -46 -198 -69 -325
c-7 -35 -4 -43 2 -43c8 0 43 23 72 52zM149 52c39 0 152 127 186 196c11 40 26 112 33 144c-14 7 -41 14 -67 14s-54 -8 -71 -21c-68 -50 -108 -168 -108 -267c0 -45 13 -66 27 -66zM331 665c45 0 84 -32 82 -86c-2 -53 -49 -86 -97 -86c-50 0 -83 34 -81 80
c1 57 49 92 96 92zM327 631c-25 0 -45 -23 -46 -55c-1 -29 13 -50 38 -50c26 0 47 23 48 55c1 29 -13 50 -40 50z" />
    <glyph glyph-name="atilde" unicode="&#xe3;" horiz-adv-x="490" 
d="M453 116l12 -24c-54 -67 -121 -104 -146 -104c-19 0 -32 15 -18 88l20 95h-2c-39 -55 -86 -103 -129 -138c-33 -27 -66 -45 -93 -45c-26 0 -58 33 -58 113c0 101 47 210 120 271c50 42 123 77 186 77c21 0 41 -3 62 -7c14 -3 27 -6 38 -6l3 -4c-16 -62 -46 -198 -69 -325
c-7 -35 -4 -43 2 -43c8 0 43 23 72 52zM149 52c39 0 152 127 186 196c11 40 26 112 33 144c-14 7 -41 14 -67 14s-54 -8 -71 -21c-68 -50 -108 -168 -108 -267c0 -45 13 -66 27 -66zM428 620l24 -12c-27 -67 -55 -85 -81 -85c-22 0 -41 11 -67 23c-15 7 -27 12 -42 12
c-16 0 -32 -15 -48 -43l-22 15c24 62 56 83 80 83c17 0 29 -5 58 -18c21 -9 37 -16 52 -16c17 0 31 16 46 41z" />
    <glyph glyph-name="ccedilla" unicode="&#xe7;" horiz-adv-x="381" 
d="M336 121l14 -23c-46 -51 -100 -85 -142 -99l-20 -25c-15 -19 -13 -25 2 -43c23 -27 33 -46 32 -68c-3 -41 -55 -81 -125 -102l-11 26c45 19 71 39 73 62c1 17 -10 28 -20 39c-21 24 -24 35 -5 60l32 41v1c-76 -10 -123 46 -123 140c0 86 38 188 105 246
c43 38 112 73 166 73c42 0 74 -25 74 -49c0 -14 -10 -30 -28 -42c-12 -9 -22 -8 -30 4c-19 27 -42 39 -72 39c-31 0 -62 -19 -86 -63c-23 -42 -46 -113 -46 -184c0 -66 25 -106 71 -106c55 0 110 47 139 73z" />
    <glyph glyph-name="eacute" unicode="&#xe9;" 
d="M348 124l17 -23c-88 -94 -163 -113 -211 -113c-46 0 -110 27 -110 146c0 94 41 199 120 259c43 33 96 56 138 56c53 0 88 -37 88 -80c0 -99 -168 -153 -264 -177c-2 -12 -2 -22 -2 -32c0 -54 17 -113 78 -113c42 0 96 28 146 77zM265 408c-14 0 -30 -5 -41 -12
c-27 -15 -77 -61 -94 -173c143 38 185 84 185 130c0 35 -21 55 -50 55zM413 661l-155 -170l-23 16c33 52 82 136 92 155c11 4 68 13 83 10z" />
    <glyph glyph-name="ecircumflex" unicode="&#xea;" 
d="M348 124l17 -23c-88 -94 -163 -113 -211 -113c-46 0 -110 27 -110 146c0 94 41 199 120 259c43 33 96 56 138 56c53 0 88 -37 88 -80c0 -99 -168 -153 -264 -177c-2 -12 -2 -22 -2 -32c0 -54 17 -113 78 -113c42 0 96 28 146 77zM265 408c-14 0 -30 -5 -41 -12
c-27 -15 -77 -61 -94 -173c143 38 185 84 185 130c0 35 -21 55 -50 55zM378 506l-24 -17c-28 31 -52 67 -70 96c-31 -30 -68 -65 -109 -96l-20 17c49 55 93 109 130 163h22c17 -54 41 -108 71 -163z" />
    <glyph glyph-name="edieresis" unicode="&#xeb;" 
d="M348 124l17 -23c-88 -94 -163 -113 -211 -113c-46 0 -110 27 -110 146c0 94 41 199 120 259c43 33 96 56 138 56c53 0 88 -37 88 -80c0 -99 -168 -153 -264 -177c-2 -12 -2 -22 -2 -32c0 -54 17 -113 78 -113c42 0 96 28 146 77zM265 408c-14 0 -30 -5 -41 -12
c-27 -15 -77 -61 -94 -173c143 38 185 84 185 130c0 35 -21 55 -50 55zM200 631c25 0 38 -20 38 -42c0 -31 -20 -55 -50 -55c-22 0 -39 16 -39 41c0 24 18 56 51 56zM376 631c25 0 38 -20 38 -42c0 -31 -20 -55 -50 -55c-22 0 -39 16 -39 41c0 24 18 56 51 56z" />
    <glyph glyph-name="egrave" unicode="&#xe8;" 
d="M348 124l17 -23c-88 -94 -163 -113 -211 -113c-46 0 -110 27 -110 146c0 94 41 199 120 259c43 33 96 56 138 56c53 0 88 -37 88 -80c0 -99 -168 -153 -264 -177c-2 -12 -2 -22 -2 -32c0 -54 17 -113 78 -113c42 0 96 28 146 77zM265 408c-14 0 -30 -5 -41 -12
c-27 -15 -77 -61 -94 -173c143 38 185 84 185 130c0 35 -21 55 -50 55zM316 500l-29 -9c-31 57 -63 118 -89 164l3 9c8 3 56 14 73 12c10 -49 29 -121 42 -176z" />
    <glyph glyph-name="iacute" unicode="&#xed;" horiz-adv-x="274" 
d="M224 109l13 -21c-34 -41 -111 -100 -146 -100c-20 0 -33 16 -13 98l62 256c6 22 6 32 -1 32c-8 0 -38 -17 -68 -43l-12 23c55 54 124 95 151 95c22 0 22 -31 10 -79l-68 -276c-6 -24 -5 -32 2 -32c12 0 46 26 70 47zM335 661l-155 -170l-23 16c33 52 82 136 92 155
c11 4 68 13 83 10z" />
    <glyph glyph-name="icircumflex" unicode="&#xee;" horiz-adv-x="274" 
d="M224 109l13 -21c-34 -41 -111 -100 -146 -100c-20 0 -33 16 -13 98l62 256c6 22 6 32 -1 32c-8 0 -38 -17 -68 -43l-12 23c55 54 124 95 151 95c22 0 22 -31 10 -79l-68 -276c-6 -24 -5 -32 2 -32c12 0 46 26 70 47zM300 506l-23 -17c-28 31 -52 67 -71 96
c-31 -30 -68 -65 -109 -96l-20 17c49 55 93 109 130 163h23c17 -54 41 -108 70 -163z" />
    <glyph glyph-name="idieresis" unicode="&#xef;" horiz-adv-x="274" 
d="M224 109l13 -21c-34 -41 -111 -100 -146 -100c-20 0 -33 16 -13 98l62 256c6 22 6 32 -1 32c-8 0 -38 -17 -68 -43l-12 23c55 54 124 95 151 95c22 0 22 -31 10 -79l-68 -276c-6 -24 -5 -32 2 -32c12 0 46 26 70 47zM128 631c25 0 38 -20 38 -42c0 -31 -20 -55 -50 -55
c-22 0 -39 16 -39 41c0 24 18 56 51 56zM304 631c25 0 38 -20 38 -42c0 -31 -20 -55 -50 -55c-22 0 -39 16 -39 41c0 24 18 56 51 56z" />
    <glyph glyph-name="igrave" unicode="&#xec;" horiz-adv-x="274" 
d="M224 109l13 -21c-34 -41 -111 -100 -146 -100c-20 0 -33 16 -13 98l62 256c6 22 6 32 -1 32c-8 0 -38 -17 -68 -43l-12 23c55 54 124 95 151 95c22 0 22 -31 10 -79l-68 -276c-6 -24 -5 -32 2 -32c12 0 46 26 70 47zM228 500l-28 -9c-31 57 -63 118 -89 164l3 9
c8 3 56 14 73 12c10 -49 29 -121 41 -176z" />
    <glyph glyph-name="ntilde" unicode="&#xf1;" horiz-adv-x="532" 
d="M481 109l14 -24c-59 -64 -115 -97 -141 -97c-25 0 -34 27 -16 104c19 75 36 148 54 222c14 57 8 72 -8 72c-44 0 -160 -124 -210 -209c-12 -49 -27 -109 -39 -169c-26 -5 -53 -13 -72 -20l-6 8c27 108 57 228 81 339c8 32 5 40 -1 40c-9 0 -40 -21 -65 -45l-13 24
c54 59 113 95 141 95c23 0 27 -34 8 -111l-21 -87h2c68 93 142 151 184 176c26 15 47 22 67 22c24 0 52 -15 22 -143c-16 -68 -32 -138 -49 -208c-6 -27 -5 -36 2 -36c9 0 36 18 66 47zM439 620l24 -12c-27 -67 -55 -85 -81 -85c-22 0 -41 11 -67 23c-15 7 -27 12 -42 12
c-16 0 -32 -15 -48 -43l-22 15c24 62 56 83 80 83c17 0 29 -5 58 -18c21 -9 37 -16 53 -16s30 16 45 41z" />
    <glyph glyph-name="oacute" unicode="&#xf3;" horiz-adv-x="470" 
d="M178 -12c-95 0 -132 75 -132 156c0 130 69 229 152 273c36 19 77 32 108 32c83 0 133 -57 133 -156c0 -86 -37 -184 -107 -242c-43 -36 -98 -63 -154 -63zM214 28c12 0 22 2 32 6c54 23 109 129 109 257c0 81 -35 120 -81 120c-15 0 -27 -4 -38 -9
c-39 -17 -106 -99 -106 -253c0 -74 31 -121 84 -121zM423 661l-155 -170l-23 16c33 52 82 136 92 155c11 4 68 13 83 10z" />
    <glyph glyph-name="ocircumflex" unicode="&#xf4;" horiz-adv-x="470" 
d="M178 -12c-95 0 -132 75 -132 156c0 130 69 229 152 273c36 19 77 32 108 32c83 0 133 -57 133 -156c0 -86 -37 -184 -107 -242c-43 -36 -98 -63 -154 -63zM214 28c12 0 22 2 32 6c54 23 109 129 109 257c0 81 -35 120 -81 120c-15 0 -27 -4 -38 -9
c-39 -17 -106 -99 -106 -253c0 -74 31 -121 84 -121zM406 506l-23 -17c-28 31 -52 67 -71 96c-31 -30 -68 -65 -109 -96l-20 17c49 55 93 109 130 163h23c17 -54 41 -108 70 -163z" />
    <glyph glyph-name="odieresis" unicode="&#xf6;" horiz-adv-x="470" 
d="M178 -12c-95 0 -132 75 -132 156c0 130 69 229 152 273c36 19 77 32 108 32c83 0 133 -57 133 -156c0 -86 -37 -184 -107 -242c-43 -36 -98 -63 -154 -63zM214 28c12 0 22 2 32 6c54 23 109 129 109 257c0 81 -35 120 -81 120c-15 0 -27 -4 -38 -9
c-39 -17 -106 -99 -106 -253c0 -74 31 -121 84 -121zM228 631c25 0 38 -20 38 -42c0 -31 -20 -55 -50 -55c-22 0 -39 16 -39 41c0 24 18 56 51 56zM404 631c25 0 38 -20 38 -42c0 -31 -20 -55 -50 -55c-22 0 -39 16 -39 41c0 24 18 56 51 56z" />
    <glyph glyph-name="ograve" unicode="&#xf2;" horiz-adv-x="470" 
d="M178 -12c-95 0 -132 75 -132 156c0 130 69 229 152 273c36 19 77 32 108 32c83 0 133 -57 133 -156c0 -86 -37 -184 -107 -242c-43 -36 -98 -63 -154 -63zM214 28c12 0 22 2 32 6c54 23 109 129 109 257c0 81 -35 120 -81 120c-15 0 -27 -4 -38 -9
c-39 -17 -106 -99 -106 -253c0 -74 31 -121 84 -121zM336 500l-28 -9c-31 57 -63 118 -90 164l4 9c8 3 56 14 73 12c10 -49 29 -121 41 -176z" />
    <glyph glyph-name="otilde" unicode="&#xf5;" horiz-adv-x="470" 
d="M178 -12c-95 0 -132 75 -132 156c0 130 69 229 152 273c36 19 77 32 108 32c83 0 133 -57 133 -156c0 -86 -37 -184 -107 -242c-43 -36 -98 -63 -154 -63zM214 28c12 0 22 2 32 6c54 23 109 129 109 257c0 81 -35 120 -81 120c-15 0 -27 -4 -38 -9
c-39 -17 -106 -99 -106 -253c0 -74 31 -121 84 -121zM412 620l24 -12c-27 -67 -55 -85 -81 -85c-22 0 -41 11 -67 23c-15 7 -27 12 -42 12c-16 0 -32 -15 -48 -43l-22 15c24 62 56 83 80 83c17 0 29 -5 58 -18c21 -9 37 -16 53 -16s30 16 45 41z" />
    <glyph glyph-name="scaron" unicode="&#x161;" horiz-adv-x="337" 
d="M113 -12c-47 0 -101 37 -101 72c-1 17 12 32 29 42c12 6 20 4 25 -3c26 -39 63 -61 96 -61c40 0 66 28 66 60c0 25 -11 47 -58 84c-45 34 -87 71 -87 122c0 30 12 62 52 97c31 27 79 48 111 48c44 0 78 -30 78 -56c0 -17 -10 -32 -25 -41c-10 -6 -16 -4 -22 4
c-20 25 -44 45 -78 45c-29 0 -54 -22 -54 -56c0 -36 29 -61 65 -89c60 -45 84 -74 84 -117c0 -76 -100 -151 -181 -151zM348 673l22 -18c-49 -55 -93 -109 -130 -162h-22c-17 53 -41 107 -71 162l25 18c27 -32 51 -67 69 -96c31 30 66 64 107 96z" />
    <glyph glyph-name="uacute" unicode="&#xfa;" horiz-adv-x="533" 
d="M492 114l13 -24c-48 -58 -114 -102 -145 -102c-21 0 -35 19 -15 106c8 35 12 55 19 88h-2c-49 -65 -108 -126 -161 -163c-28 -20 -57 -31 -81 -31c-27 0 -59 19 -33 127c18 77 36 154 54 230c6 25 5 34 -3 34c-7 0 -35 -20 -70 -48l-11 24c58 58 120 94 147 94
c23 0 27 -20 11 -87c-18 -79 -36 -160 -55 -240c-11 -49 -3 -66 12 -66c56 0 168 134 207 207c11 46 23 99 36 160l69 26h11c-27 -106 -53 -218 -78 -348c-6 -31 -4 -39 3 -39c9 0 45 24 72 52zM466 661l-155 -170l-23 16c33 52 82 136 92 155c11 4 68 13 83 10z" />
    <glyph glyph-name="ucircumflex" unicode="&#xfb;" horiz-adv-x="533" 
d="M492 114l13 -24c-48 -58 -114 -102 -145 -102c-21 0 -35 19 -15 106c8 35 12 55 19 88h-2c-49 -65 -108 -126 -161 -163c-28 -20 -57 -31 -81 -31c-27 0 -59 19 -33 127c18 77 36 154 54 230c6 25 5 34 -3 34c-7 0 -35 -20 -70 -48l-11 24c58 58 120 94 147 94
c23 0 27 -20 11 -87c-18 -79 -36 -160 -55 -240c-11 -49 -3 -66 12 -66c56 0 168 134 207 207c11 46 23 99 36 160l69 26h11c-27 -106 -53 -218 -78 -348c-6 -31 -4 -39 3 -39c9 0 45 24 72 52zM436 506l-23 -17c-28 31 -52 67 -71 96c-30 -30 -67 -65 -109 -96l-19 17
c48 55 93 109 130 163h22c17 -54 41 -108 70 -163z" />
    <glyph glyph-name="udieresis" unicode="&#xfc;" horiz-adv-x="533" 
d="M492 114l13 -24c-48 -58 -114 -102 -145 -102c-21 0 -35 19 -15 106c8 35 12 55 19 88h-2c-49 -65 -108 -126 -161 -163c-28 -20 -57 -31 -81 -31c-27 0 -59 19 -33 127c18 77 36 154 54 230c6 25 5 34 -3 34c-7 0 -35 -20 -70 -48l-11 24c58 58 120 94 147 94
c23 0 27 -20 11 -87c-18 -79 -36 -160 -55 -240c-11 -49 -3 -66 12 -66c56 0 168 134 207 207c11 46 23 99 36 160l69 26h11c-27 -106 -53 -218 -78 -348c-6 -31 -4 -39 3 -39c9 0 45 24 72 52zM260 631c25 0 38 -20 38 -42c0 -31 -20 -55 -50 -55c-22 0 -39 16 -39 41
c0 24 18 56 51 56zM436 631c25 0 38 -20 38 -42c0 -31 -20 -55 -50 -55c-22 0 -39 16 -39 41c0 24 18 56 51 56z" />
    <glyph glyph-name="ugrave" unicode="&#xf9;" horiz-adv-x="533" 
d="M492 114l13 -24c-48 -58 -114 -102 -145 -102c-21 0 -35 19 -15 106c8 35 12 55 19 88h-2c-49 -65 -108 -126 -161 -163c-28 -20 -57 -31 -81 -31c-27 0 -59 19 -33 127c18 77 36 154 54 230c6 25 5 34 -3 34c-7 0 -35 -20 -70 -48l-11 24c58 58 120 94 147 94
c23 0 27 -20 11 -87c-18 -79 -36 -160 -55 -240c-11 -49 -3 -66 12 -66c56 0 168 134 207 207c11 46 23 99 36 160l69 26h11c-27 -106 -53 -218 -78 -348c-6 -31 -4 -39 3 -39c9 0 45 24 72 52zM362 500l-29 -9c-30 57 -62 118 -89 164l3 9c8 3 57 14 73 12
c10 -49 29 -121 42 -176z" />
    <glyph glyph-name="yacute" unicode="&#xfd;" horiz-adv-x="442" 
d="M239 75h2c43 66 135 202 134 275c0 20 -6 36 -11 47c-3 7 -2 17 2 25c7 15 25 27 42 27c22 0 39 -22 39 -55c1 -28 -10 -62 -35 -106c-43 -76 -128 -208 -181 -283c-59 -85 -124 -173 -180 -235l-104 -27l-8 22c107 70 186 158 235 224c-1 79 -17 235 -31 326
c-7 50 -13 62 -21 62s-33 -23 -58 -58l-17 23c32 50 82 107 118 107c28 0 43 -37 51 -117c10 -76 17 -166 23 -257zM432 661l-155 -170l-23 16c33 52 82 136 92 155c11 4 68 13 83 10z" />
    <glyph glyph-name="ydieresis" unicode="&#xff;" horiz-adv-x="442" 
d="M239 75h2c43 66 135 202 134 275c0 20 -6 36 -11 47c-3 7 -2 17 2 25c7 15 25 27 42 27c22 0 39 -22 39 -55c1 -28 -10 -62 -35 -106c-43 -76 -128 -208 -181 -283c-59 -85 -124 -173 -180 -235l-104 -27l-8 22c107 70 186 158 235 224c-1 79 -17 235 -31 326
c-7 50 -13 62 -21 62s-33 -23 -58 -58l-17 23c32 50 82 107 118 107c28 0 43 -37 51 -117c10 -76 17 -166 23 -257zM217 631c26 0 39 -20 39 -42c0 -31 -21 -55 -50 -55c-22 0 -39 16 -39 41c0 24 17 56 50 56zM393 631c26 0 39 -20 39 -42c0 -31 -21 -55 -50 -55
c-22 0 -39 16 -39 41c0 24 17 56 50 56z" />
    <glyph glyph-name="zcaron" unicode="&#x17e;" horiz-adv-x="418" 
d="M421 463l20 -21c-12 -16 -31 -37 -58 -67c-64 -73 -195 -205 -270 -283c20 2 46 -4 76 -16c32 -11 65 -24 90 -24c27 0 57 17 102 85l22 -18c-54 -108 -94 -139 -137 -139c-33 0 -90 27 -134 48c-32 16 -49 15 -62 6c-12 -8 -23 -21 -32 -34c-4 -6 -7 -10 -12 -9
c-17 8 -25 36 36 100c69 74 185 187 278 286c-17 -3 -39 -5 -62 -3c-26 3 -70 6 -95 6c-46 0 -70 -34 -99 -85l-25 12c14 32 25 55 41 81c24 38 48 59 73 59c28 0 58 -4 106 -12c46 -9 63 -10 81 -10c16 0 36 11 61 38zM384 673l22 -18c-49 -55 -93 -109 -130 -162h-22
c-17 53 -41 107 -71 162l25 18c27 -32 51 -67 69 -96c31 30 66 64 107 96z" />
    <glyph glyph-name="twodotenleader" unicode="&#x2025;" horiz-adv-x="500" 
d="M90 -12c-30 0 -50 22 -50 53c0 37 24 63 59 63c29 0 49 -23 49 -54c0 -40 -28 -62 -58 -62zM339 -12c-30 0 -50 22 -50 53c0 37 24 63 59 63c29 0 49 -23 49 -54c0 -40 -28 -62 -58 -62z" />
    <glyph glyph-name="onedotenleader" unicode="&#x2024;" horiz-adv-x="500" 
d="M215 -12c-30 0 -50 22 -50 53c0 37 24 63 59 63c29 0 49 -23 49 -54c0 -40 -28 -62 -58 -62z" />
    <glyph glyph-name="colonmonetary" unicode="&#x20a1;" horiz-adv-x="477" 
d="M479 688l-26 -72c28 -6 41 -12 53 -16c-4 -50 -7 -83 -14 -124l-26 -1c0 48 -9 84 -27 99l-189 -539c4 -1 6 -1 9 -1c53 1 93 38 147 116l22 -14c-17 -40 -40 -87 -61 -113c-21 -8 -60 -22 -115 -22h-14l-25 -67h-30l24 70c-17 3 -28 8 -42 15l-31 -85h-30l35 99
c-51 34 -86 105 -85 199c2 213 142 369 292 388l24 68h31l-23 -65c16 1 30 0 46 -2l24 67h31zM220 39l192 547c-12 3 -22 6 -33 6c-5 0 -8 0 -12 -1l-187 -530c12 -12 21 -18 40 -22zM159 87l175 499c-68 -16 -198 -139 -197 -383c0 -52 9 -84 22 -116z" />
    <glyph glyph-name="figuredash" unicode="&#x2012;" horiz-adv-x="477" 
d="M434 345l-11 -56h-341l12 56h340z" />
    <glyph glyph-name="oneeighth" unicode="&#x215b;" horiz-adv-x="740" 
d="M646 631l-504 -658l-26 25l503 657zM266 300l-5 -23h-191l6 23c50 5 61 7 70 56l36 181c8 40 4 41 -28 44l-28 3l5 22c42 5 85 15 133 30l-53 -280c-10 -49 1 -51 55 -56zM531 -7c-53 0 -114 30 -114 92c0 25 12 46 38 65c11 9 35 22 54 32c-25 16 -49 39 -49 74
c1 59 62 101 124 101c48 0 99 -28 99 -84c0 -20 -10 -40 -26 -52c-9 -8 -24 -18 -45 -31c30 -20 60 -45 60 -89c0 -67 -71 -108 -141 -108zM573 330c-34 0 -56 -25 -56 -54c0 -40 47 -60 72 -74c23 16 39 40 39 68c0 36 -22 60 -55 60zM539 20c35 0 69 24 69 65
c0 42 -38 61 -77 83c-37 -20 -58 -51 -58 -80c0 -42 34 -68 66 -68z" />
    <glyph glyph-name="threeeighths" unicode="&#x215c;" horiz-adv-x="740" 
d="M646 631l-504 -658l-26 25l503 657zM135 545l-18 16l31 38c18 19 48 37 88 37c44 0 87 -26 87 -74c0 -37 -37 -59 -67 -73v-2c34 -8 70 -34 70 -78c0 -58 -44 -91 -84 -112c-34 -17 -69 -26 -92 -26c-34 0 -63 14 -72 24c-8 8 -9 16 -5 26c3 10 13 20 20 25
c7 4 14 3 22 -4c16 -14 41 -33 73 -33c36 0 70 27 70 75c0 47 -32 68 -68 68c-15 0 -29 -3 -38 -7l-5 24c60 13 110 42 110 81c0 27 -18 43 -47 43c-31 0 -57 -23 -75 -48zM527 -7c-54 0 -115 30 -115 92c0 25 13 46 39 65c11 9 35 22 54 32c-25 16 -49 39 -49 74
c0 59 62 101 123 101c48 0 100 -28 100 -84c0 -20 -10 -40 -26 -52c-10 -8 -24 -18 -45 -31c30 -20 60 -45 60 -89c0 -67 -72 -108 -141 -108zM569 330c-34 0 -56 -25 -56 -54c0 -40 46 -60 71 -74c24 16 39 40 39 68c1 36 -21 60 -54 60zM535 21c35 0 69 23 69 64
c0 42 -39 61 -77 83c-38 -20 -58 -50 -58 -80c0 -42 34 -67 66 -67z" />
    <glyph glyph-name="fiveeighths" unicode="&#x215d;" horiz-adv-x="740" 
d="M649 631l-504 -658l-27 25l503 657zM347 629l-21 -51h-146l-28 -86c24 8 50 14 68 14c53 0 104 -30 105 -94c0 -50 -32 -83 -77 -111c-39 -22 -76 -30 -101 -30c-30 0 -59 12 -68 22c-8 7 -12 16 -8 27c3 10 12 19 18 23c8 5 15 5 21 0c20 -18 45 -34 79 -34
c32 0 72 26 71 83c0 51 -35 73 -79 73c-28 0 -53 -6 -72 -12l52 176h186zM529 -7c-54 0 -114 30 -114 92c0 25 12 46 37 65c12 9 36 22 55 32c-25 16 -49 39 -49 74c0 59 62 101 123 101c48 0 100 -28 100 -84c0 -20 -11 -40 -26 -52c-10 -8 -24 -18 -45 -31
c30 -20 60 -45 60 -89c0 -67 -72 -108 -141 -108zM571 330c-34 0 -56 -25 -56 -54c0 -40 46 -60 71 -74c24 16 40 40 40 68c0 36 -22 60 -55 60zM537 21c35 0 69 23 69 64c0 42 -39 61 -77 83c-37 -20 -58 -50 -58 -80c0 -42 34 -67 66 -67z" />
    <glyph glyph-name="seveneighths" unicode="&#x215e;" horiz-adv-x="740" 
d="M624 631l-503 -658l-27 25l503 657zM156 539l-24 2c13 37 20 64 29 88h234l6 -7c-72 -113 -148 -227 -220 -346l-57 -5l-4 9c80 99 152 198 219 299h-128c-27 0 -33 -4 -43 -20zM521 -7c-54 0 -114 30 -114 92c0 25 12 46 38 65c11 9 35 22 54 32c-25 16 -49 39 -49 74
c1 59 62 101 124 101c48 0 99 -28 99 -84c0 -20 -10 -40 -26 -52c-9 -8 -24 -18 -45 -31c30 -20 60 -45 60 -89c0 -67 -72 -108 -141 -108zM563 330c-34 0 -56 -25 -56 -54c0 -40 46 -60 72 -74c23 16 39 40 39 68c0 36 -22 60 -55 60zM529 21c35 0 69 23 69 64
c0 42 -39 61 -77 83c-37 -20 -58 -50 -58 -80c0 -42 34 -67 66 -67z" />
    <glyph glyph-name="onethird" unicode="&#x2153;" horiz-adv-x="740" 
d="M653 631l-503 -658l-27 25l502 657zM270 300l-6 -23h-191l6 23c51 5 62 7 71 56l35 181c8 40 5 41 -27 44l-29 3l6 22c42 5 84 15 133 30l-54 -280c-9 -49 2 -51 56 -56zM484 267l-18 16l31 38c18 20 48 37 88 37c44 0 87 -26 87 -74c0 -37 -37 -59 -67 -73v-2
c33 -8 69 -34 69 -78c0 -58 -43 -92 -82 -112c-34 -18 -70 -26 -93 -26c-34 0 -62 14 -71 24c-8 8 -10 17 -6 26c3 10 13 21 20 25s14 3 21 -4c17 -14 42 -34 75 -34c36 0 68 28 68 76c0 47 -31 68 -67 68c-15 0 -29 -3 -38 -7l-5 24c60 13 110 42 110 82
c0 27 -18 42 -47 42c-32 0 -57 -23 -75 -48z" />
    <glyph glyph-name="twothirds" unicode="&#x2154;" horiz-adv-x="740" 
d="M674 631l-503 -658l-27 25l503 657zM318 369l21 -9c-16 -31 -27 -54 -40 -83h-241l3 18c30 22 75 57 117 94c44 39 94 88 94 138c0 35 -17 60 -59 60c-38 0 -65 -31 -86 -57l-17 17l39 49c23 25 59 40 96 40c49 0 97 -35 97 -97c0 -69 -75 -117 -128 -159l-62 -49v-2h92
c35 0 48 6 74 40zM493 267l-17 16l31 38c18 19 48 37 88 37c44 0 86 -26 86 -74c0 -37 -38 -59 -67 -74v-1c33 -8 70 -34 70 -78c0 -58 -44 -92 -83 -113c-34 -17 -70 -25 -92 -25c-34 0 -62 14 -71 24c-8 8 -10 17 -7 26c4 10 13 21 21 25c7 4 14 3 21 -4
c16 -14 42 -34 74 -34c36 0 69 28 69 76c0 47 -31 68 -68 68c-14 0 -28 -3 -37 -7l-5 24c60 13 110 42 109 82c0 27 -17 42 -46 42c-32 0 -57 -23 -76 -48z" />
    <glyph glyph-name="Aringacute" unicode="&#x1fa;" horiz-adv-x="664" 
d="M621 27l-7 -27h-236l7 27c69 7 73 18 67 61c-7 42 -15 90 -25 148h-209c-17 -32 -48 -90 -70 -136c-29 -60 -22 -67 55 -73l-6 -27h-215l7 27c61 8 71 13 118 96l301 533l31 8l28 -177c20 -129 42 -254 64 -373c12 -71 19 -80 90 -87zM421 278l-40 259h-2
c-50 -92 -96 -174 -139 -259h181zM521 769c-2 -53 -48 -86 -96 -86c-47 0 -80 33 -79 78c2 56 47 90 95 90c44 0 81 -31 80 -82zM475 770c1 28 -12 49 -38 49s-45 -24 -45 -55c-1 -28 12 -47 37 -47s46 22 46 53zM589 946l-2 -7l-187 -64l-13 25c55 35 115 73 161 102
c13 -4 38 -40 41 -56z" />
    <glyph glyph-name="R_p" unicode="&#xf6dd;" horiz-adv-x="874" 
d="M670 493l-17 -75c24 8 46 12 71 12c90 0 128 -49 127 -131c-1 -58 -28 -136 -81 -200c-44 -53 -105 -95 -163 -111c-13 0 -26 2 -42 9l-22 -122c-9 -46 -8 -58 22 -62l40 -5l-2 -25l-213 -12l3 26c56 11 64 20 73 68l27 127h-13c-78 2 -109 35 -132 89
c-24 56 -42 115 -57 160c-10 28 -21 32 -46 32h-34l-29 -147c-17 -88 -11 -92 58 -100l-6 -26h-224l6 26c67 8 74 12 92 100l73 370c19 91 10 94 -56 102l5 26h193c46 0 92 -7 124 -29s55 -62 54 -123c-2 -95 -75 -151 -147 -178c10 -28 30 -88 48 -133
c19 -47 34 -81 49 -102c14 -23 26 -31 46 -40l72 343c-25 -6 -49 -16 -71 -26l-5 25c30 17 58 29 85 38l9 41c21 22 51 44 73 56zM217 304h32c35 0 64 4 97 26c46 31 71 77 72 138c1 82 -36 124 -104 124c-18 0 -23 -1 -31 -6c-9 -3 -12 -9 -15 -28zM645 380l-66 -320
c9 -15 24 -27 47 -27c61 0 141 119 143 247c1 88 -35 107 -80 107c-18 0 -30 -2 -44 -7z" />
    <glyph glyph-name="K.alt" unicode="&#xe070;" horiz-adv-x="653" 
d="M716 649l-7 -26c-76 -10 -94 -18 -155 -67c-49 -38 -134 -114 -214 -186c50 -87 142 -225 190 -291c52 -73 78 -107 89 -121l-14 -13c-40 4 -99 28 -150 96c-44 57 -107 153 -162 245c-23 38 -33 40 -62 26l-34 -186c-16 -86 -11 -92 67 -99l-5 -27h-247l8 27
c72 7 79 12 96 99l77 401c16 83 11 87 -67 96l6 26h243l-6 -26c-76 -9 -80 -12 -96 -96l-36 -186c25 9 50 26 76 48c49 42 130 117 203 189c26 27 27 35 -8 40l-33 5l7 26h234z" />
    <glyph glyph-name="R.alt" unicode="&#xe0a7;" horiz-adv-x="601" 
d="M580 -42l-15 -13c-43 5 -101 38 -144 116c-40 71 -70 130 -92 174c-19 39 -31 45 -66 45h-37l-28 -153c-16 -87 -11 -92 70 -100l-6 -27h-252l7 27c77 8 82 12 99 100l78 402c16 82 11 87 -68 94l6 26h218c54 0 106 -7 141 -31c35 -23 60 -63 60 -124
c0 -101 -76 -163 -161 -192c27 -58 84 -166 123 -234c28 -46 50 -84 67 -110zM233 314h47c43 0 77 6 106 25c47 32 76 85 76 147c0 88 -48 132 -119 132c-19 0 -35 -4 -45 -11c-8 -5 -13 -16 -18 -42z" />
    <glyph glyph-name="Dcroat" unicode="&#x110;" horiz-adv-x="719" 
d="M139 649h248c188 0 320 -77 320 -268c0 -126 -63 -238 -167 -306c-88 -56 -182 -75 -308 -75h-214l7 27c76 8 83 11 99 91l39 203h-109l8 37h108l33 168c16 87 9 88 -71 97zM245 321l-35 -185c-10 -58 -9 -75 12 -87c16 -9 39 -13 68 -13c228 1 321 183 321 352
c0 121 -54 228 -226 228c-34 0 -59 -3 -71 -8c-12 -6 -17 -15 -22 -39l-40 -211h155l-8 -37h-154z" />
    <glyph glyph-name="Eng" unicode="&#x14a;" horiz-adv-x="705" 
d="M766 649l-6 -26c-55 -3 -75 -14 -86 -60c-7 -26 -22 -81 -39 -173l-61 -320c-18 -95 -35 -168 -68 -219c-31 -48 -67 -67 -101 -67c-23 0 -42 13 -42 31c0 20 20 48 32 48c13 0 18 -11 40 -11c31 0 65 44 86 155l-288 515h-2l-52 -264c-17 -87 -23 -139 -26 -171
c-3 -46 16 -56 85 -61l-6 -26h-230l7 26c51 4 75 15 88 59c11 35 22 81 41 173l52 247c10 51 7 65 -6 87c-11 19 -31 28 -85 31l6 26h145l295 -509h2l47 250c17 93 24 147 26 175c4 46 -19 54 -87 58l7 26h226z" />
    <glyph glyph-name="Hbar" unicode="&#x126;" horiz-adv-x="743" 
d="M776 509l-9 -37h-94l-69 -353c-15 -79 -10 -85 71 -92l-6 -27h-254l7 27c78 7 85 13 100 92l39 201h-327l-38 -201c-15 -79 -9 -86 71 -92l-6 -27h-248l6 27c74 7 79 13 94 92l69 353h-98l10 37h95l6 28c14 72 9 78 -74 86l7 26h247l-6 -26c-73 -8 -80 -14 -94 -86
l-5 -28h327l5 28c14 73 8 78 -69 86l6 26h248l-6 -26c-77 -8 -82 -14 -96 -86l-5 -28h96zM590 472h-327l-21 -110h327z" />
    <glyph glyph-name="Tbar" unicode="&#x166;" horiz-adv-x="599" 
d="M636 674h20c-8 -45 -17 -121 -23 -175l-31 -3c0 38 -3 69 -13 91c-10 25 -35 29 -108 29h-57l-50 -266h145l-9 -38h-143l-36 -193c-16 -82 -7 -86 83 -92l-7 -27h-271l6 27c84 6 90 11 106 92l37 193h-134l10 38h131l50 266h-43c-84 0 -111 -7 -129 -29
c-16 -19 -33 -49 -50 -91h-31c18 58 36 123 48 178h19c11 -23 22 -25 49 -25h378c26 0 34 6 53 25z" />
    <glyph glyph-name="uni021C" unicode="&#x21c;" horiz-adv-x="495" 
d="M151 271l-10 29c132 43 239 109 239 222c0 70 -44 107 -101 107c-69 0 -112 -50 -154 -143l-28 10c19 53 30 94 41 132c61 14 102 36 172 36c98 0 162 -52 162 -129c0 -79 -66 -133 -151 -183v-2c90 -20 145 -80 145 -161c0 -169 -206 -285 -421 -312l-57 46l9 21
c30 -8 67 -14 99 -14c134 0 275 90 275 235c0 87 -61 130 -119 130c-29 0 -59 -8 -101 -24z" />
    <glyph glyph-name="a.end" unicode="&#xe0fe;" horiz-adv-x="645" 
d="M441 436l3 -4c-16 -62 -53 -230 -77 -372c-1 -6 0 -11 9 -12c25 -3 64 -5 97 -5c82 0 92 33 92 64c0 8 -1 17 -3 24c-1 5 1 10 6 16c11 13 29 25 40 25c9 0 16 -14 16 -36c0 -27 -20 -63 -48 -90c-43 -40 -79 -50 -145 -50c-38 0 -67 1 -91 2c-23 2 -39 3 -49 2
c-6 -1 -8 1 -6 9l32 155h-2c-36 -48 -85 -95 -127 -130c-34 -28 -65 -46 -92 -46s-59 34 -59 115c0 99 48 208 121 268c50 43 122 78 184 78c21 0 41 -3 62 -7c14 -3 27 -6 37 -6zM298 406c-26 0 -53 -8 -70 -21c-68 -50 -108 -166 -108 -265c0 -45 12 -65 26 -65
c40 0 150 119 182 181c14 46 30 124 36 156c-14 7 -41 14 -66 14z" />
    <glyph glyph-name="e.end" unicode="&#xe109;" horiz-adv-x="578" 
d="M346 124l17 -23c-87 -94 -160 -113 -209 -113c-47 0 -112 27 -112 149c1 94 44 196 120 256c45 35 95 56 134 56c52 0 81 -38 81 -79c0 -47 -34 -85 -86 -106c86 -1 106 -2 146 -2c93 0 119 29 119 63c0 21 -8 39 -12 48c3 9 32 36 45 36s26 -21 26 -48
c0 -19 -9 -47 -32 -75c-32 -39 -89 -71 -168 -71c-60 0 -127 4 -192 4c-55 0 -83 -2 -96 -5c-3 -16 -4 -39 -4 -53c0 -56 17 -112 76 -112c45 0 98 28 147 75zM264 409c-70 0 -123 -106 -133 -165c97 13 173 42 174 111c0 35 -20 54 -41 54z" />
    <glyph glyph-name="k.alt" unicode="&#xe11f;" horiz-adv-x="444" 
d="M156 233h2c34 38 59 64 87 93c57 59 129 123 175 123c27 0 41 -16 41 -31c0 -13 -10 -30 -20 -40c-6 -6 -12 -8 -15 -7c-10 6 -23 10 -40 10c-44 0 -98 -53 -133 -90c27 -67 67 -146 99 -214c31 -64 57 -115 62 -125l-9 -6c-25 5 -44 12 -61 22c-22 14 -39 36 -54 66
c-32 60 -63 127 -95 198c-22 -25 -44 -48 -51 -60c-13 -60 -25 -117 -33 -165c-25 -5 -51 -11 -72 -19l-6 6c45 201 90 399 134 609c9 44 4 48 -38 49l-28 1l5 24c81 9 135 35 147 35c10 0 9 -9 5 -29c-36 -153 -67 -296 -102 -450z" />
    <glyph glyph-name="m.end" unicode="&#xe12b;" horiz-adv-x="923" 
d="M445 255h2c75 102 147 153 186 175c27 14 46 19 62 19c21 0 49 -15 24 -119l-65 -268c-2 -8 -1 -13 9 -14c20 -3 59 -5 95 -5c81 0 91 27 91 62c0 8 -2 18 -3 25c-1 5 1 10 6 16c12 14 31 26 42 26c9 0 16 -14 16 -35c0 -27 -18 -63 -48 -91c-43 -41 -79 -50 -140 -50
c-45 0 -75 0 -100 2c-21 2 -36 3 -46 2c-6 -1 -8 1 -7 9l76 317c10 43 7 60 -6 60c-54 0 -183 -156 -208 -208c-13 -47 -27 -113 -39 -172c-27 -3 -53 -10 -74 -18l-6 7c25 102 49 202 72 303c14 59 14 88 -4 88c-52 0 -179 -151 -206 -207c-13 -44 -27 -112 -40 -173
c-25 -3 -51 -10 -73 -18l-7 7c30 113 57 225 83 341c8 34 6 41 -1 41c-10 0 -43 -25 -67 -48l-14 24c56 60 117 96 143 96s28 -37 9 -114l-20 -80h2c73 101 143 151 184 174c23 13 44 20 60 20c25 0 53 -23 26 -138z" />
    <glyph glyph-name="n.end" unicode="&#xe12c;" horiz-adv-x="677" 
d="M185 248h2c77 106 153 158 188 179c28 16 52 22 69 22c22 0 48 -15 24 -119c-21 -88 -43 -178 -65 -268c-2 -9 0 -13 9 -15c20 -2 59 -5 95 -5c81 0 92 28 92 63c0 9 -2 18 -3 25c-1 5 1 11 7 17c11 13 29 25 40 25c8 0 16 -14 16 -35c0 -27 -20 -64 -49 -91
c-42 -41 -78 -50 -139 -50c-45 0 -75 0 -100 3c-20 1 -36 2 -46 1c-7 -1 -8 1 -7 9c26 106 51 212 76 316c12 47 8 61 -8 61c-43 0 -169 -130 -212 -209c-13 -48 -28 -109 -40 -169c-25 -5 -52 -13 -71 -20l-7 8c27 108 56 230 81 339c7 33 4 41 -2 41c-9 0 -40 -20 -64 -45
l-14 23c54 58 114 95 140 95s27 -39 10 -112z" />
    <glyph glyph-name="r.end" unicode="&#xe154;" horiz-adv-x="453" 
d="M523 453l19 -18c-17 -36 -56 -90 -105 -88c-22 0 -40 11 -60 22c-22 13 -33 16 -46 16c-17 0 -46 -20 -78 -66c-32 -44 -54 -80 -78 -134c-13 -52 -24 -112 -35 -179c-24 -3 -51 -10 -72 -18l-7 8c25 107 50 217 69 328c7 38 6 51 -3 51c-10 0 -39 -19 -66 -45l-13 23
c53 57 109 96 137 96c22 0 28 -31 11 -119l-11 -56h3c76 125 131 176 171 176c26 0 41 -12 72 -31c37 -22 56 -14 92 34z" />
    <glyph glyph-name="longs" unicode="&#x17f;" horiz-adv-x="228" 
d="M346 712c34 0 59 -25 58 -43c0 -16 -14 -34 -27 -43c-8 -6 -16 -7 -22 0c-20 21 -42 33 -62 33c-37 0 -68 -44 -101 -248c-16 -98 -36 -229 -57 -330c-33 -153 -65 -221 -121 -277c-47 -49 -89 -61 -114 -61c-29 0 -62 22 -61 43c0 14 12 30 27 42c9 8 14 7 21 1
c15 -14 40 -25 61 -25c18 0 31 7 42 19c14 14 39 61 70 250c18 113 30 192 44 273c26 148 60 228 108 287c37 46 92 79 134 79z" />
    <glyph glyph-name="dcroat" unicode="&#x111;" horiz-adv-x="509" 
d="M570 570l-9 -36h-74c-34 -148 -63 -292 -90 -439c-5 -23 -3 -33 4 -33c12 0 45 23 72 50l13 -22c-53 -63 -118 -102 -146 -102c-21 0 -35 16 -21 87l19 92h-2c-42 -58 -91 -102 -130 -133c-38 -29 -73 -46 -101 -46c-34 0 -66 40 -66 120c0 94 43 201 117 264
c47 41 132 77 180 77c14 0 34 -1 59 -11l21 96h-132l9 36h129l7 35c8 41 3 47 -41 48h-29l2 24c84 10 138 35 152 35c10 0 12 -8 7 -28c-8 -39 -17 -77 -25 -114h75zM303 406c-32 0 -57 -9 -74 -21c-69 -48 -106 -176 -106 -258c0 -52 14 -74 30 -74c56 0 167 128 200 189
l30 138c-15 14 -49 26 -80 26z" />
    <glyph glyph-name="eng" unicode="&#x14b;" horiz-adv-x="516" 
d="M71 332l-15 22c49 53 111 95 142 95c23 0 26 -35 8 -111l-22 -96h2c75 102 150 158 195 186c24 14 47 21 64 21c22 0 41 -15 21 -106c-16 -80 -33 -162 -50 -242c-28 -129 -60 -188 -114 -237c-49 -45 -91 -61 -112 -61c-19 0 -40 11 -40 30c0 14 12 36 24 47
c7 5 14 8 22 4c13 -9 30 -15 47 -15c34 0 60 37 79 130l71 333c8 40 5 53 -7 53c-41 0 -166 -133 -215 -217c-11 -41 -25 -100 -37 -160c-26 -5 -53 -13 -72 -20l-7 8c28 108 56 229 81 339c7 32 5 41 -1 41c-9 0 -38 -19 -64 -44z" />
    <glyph glyph-name="hbar" unicode="&#x127;" horiz-adv-x="511" 
d="M461 107l13 -23c-52 -59 -114 -96 -145 -96c-24 0 -31 28 -15 97c17 77 36 155 53 232c12 52 10 70 -7 70c-42 0 -161 -118 -211 -203c-11 -40 -28 -123 -38 -177c-23 -4 -49 -11 -71 -19l-7 8c40 177 81 367 116 532h-81l12 35h77c20 91 18 97 -2 98l-28 4l5 24
c57 9 105 24 117 24c10 0 10 -12 5 -32c-11 -49 -18 -83 -26 -118h149l-12 -35h-146c-19 -88 -38 -177 -58 -271h2c73 96 150 149 191 171c27 15 46 21 63 21c25 0 50 -19 29 -110c-18 -80 -37 -159 -55 -238c-7 -32 -6 -40 1 -40c10 0 42 20 69 46z" />
    <glyph glyph-name="kgreenlandic" unicode="&#x138;" horiz-adv-x="502" 
d="M464 99l17 -20c-48 -75 -88 -91 -111 -91s-43 20 -66 63c-29 47 -53 97 -84 163c-19 -19 -41 -41 -54 -58c-13 -49 -23 -88 -35 -148c-25 -5 -52 -13 -71 -20l-7 8c27 108 56 229 81 339c7 33 5 41 -1 41c-9 0 -40 -20 -64 -45l-15 23c53 58 115 95 142 95
c24 0 26 -34 9 -108l-29 -126l2 -1c34 38 76 80 109 113c55 57 126 122 168 122c30 0 44 -16 44 -32c0 -12 -10 -30 -20 -40c-6 -5 -12 -7 -17 -6c-8 5 -22 9 -39 9c-42 0 -105 -65 -150 -112c28 -61 68 -135 95 -178c18 -30 27 -37 38 -37c12 0 33 17 58 46z" />
    <glyph glyph-name="napostrophe" unicode="&#x149;" horiz-adv-x="533" 
d="M80 502l-9 27c42 17 80 38 82 77c2 29 -19 43 -50 52c-5 1 -12 6 -11 15c2 25 25 38 44 38c37 0 80 -30 78 -88c-3 -70 -77 -107 -134 -121zM477 108l15 -24c-57 -63 -115 -96 -141 -96c-23 0 -33 27 -16 100c20 80 39 159 57 238c11 46 8 60 -6 60
c-43 0 -165 -130 -214 -217c-11 -40 -26 -101 -38 -161c-25 -5 -52 -13 -71 -20l-7 8c28 108 57 228 82 339c7 32 4 40 -2 40c-9 0 -39 -21 -64 -45l-13 24c54 59 113 95 140 95c22 0 27 -34 9 -111l-21 -91h2c70 99 144 153 188 180c25 15 47 22 66 22c22 0 46 -15 22 -117
c-18 -78 -36 -157 -55 -235c-6 -26 -4 -34 3 -34c9 0 37 17 64 45z" />
    <glyph glyph-name="tbar" unicode="&#x167;" horiz-adv-x="309" 
d="M343 433l-26 -34l-100 -5l-29 -134h98l-13 -36h-93l-22 -106c-11 -49 -5 -60 6 -60c17 0 64 33 88 59l15 -23c-33 -39 -108 -106 -160 -106c-23 0 -43 29 -21 132l22 104h-72l13 36h67l28 134h-74l-3 9l25 30h62l23 95l76 62l10 -6l-37 -151h117z" />
    <glyph glyph-name="uni021D" unicode="&#x21d;" horiz-adv-x="364" 
d="M66 107l-6 26c114 50 186 103 186 182c0 46 -33 75 -72 75c-41 0 -74 -21 -120 -60l-14 22c55 56 113 97 175 97c67 0 111 -48 111 -106c0 -61 -49 -112 -116 -157v-2c67 -13 112 -61 112 -128c0 -144 -174 -268 -340 -294l-43 36l7 19c18 -3 37 -5 57 -5
c124 0 234 93 234 212c0 68 -43 105 -87 105c-21 0 -47 -7 -84 -22z" />
    <glyph glyph-name="IJ" unicode="&#x132;" horiz-adv-x="654" 
d="M380 649l-6 -26c-78 -8 -83 -13 -97 -86l-81 -421c-15 -77 -9 -83 73 -89l-6 -27h-256l7 27c78 6 85 13 100 89l81 421c14 73 7 78 -76 86l7 26h254zM710 649l-6 -26c-73 -9 -78 -12 -92 -92l-75 -401c-24 -129 -64 -201 -141 -245c-30 -18 -62 -28 -78 -29l-9 29
c44 13 86 43 110 108c17 43 28 96 40 157l71 381c15 81 7 83 -72 92l6 26h246z" />
    <glyph glyph-name="c_h" unicode="&#xe0ff;" horiz-adv-x="839" 
d="M796 108l13 -24c-55 -61 -117 -96 -146 -96c-25 0 -31 28 -16 96l54 235c12 51 9 68 -7 68c-43 0 -161 -113 -211 -197c-10 -44 -29 -130 -39 -183c-23 -4 -49 -11 -71 -19l-7 8c43 189 87 394 127 600c10 52 5 55 -37 56l-26 1l3 24c79 8 133 35 146 35c9 0 10 -8 4 -35
l-88 -414h2c70 91 144 143 187 166c24 13 48 20 66 20c27 0 50 -18 28 -113l-54 -238c-7 -29 -5 -35 2 -36c10 0 42 19 70 46zM332 122l14 -23c-62 -71 -143 -111 -200 -111c-64 0 -105 51 -105 144c0 82 38 184 104 244c42 36 112 73 161 73c43 0 75 -25 76 -50
c0 -15 -10 -34 -32 -46c-8 -5 -16 -3 -22 6c-21 29 -45 42 -76 42c-37 0 -67 -31 -87 -67c-23 -45 -41 -112 -41 -179c0 -70 27 -106 71 -106c52 0 109 45 137 73z" />
    <glyph glyph-name="c_k" unicode="&#xe100;" horiz-adv-x="796" 
d="M764 100l17 -21c-47 -74 -88 -91 -110 -91c-21 0 -40 12 -65 66c-25 51 -51 113 -77 184c-27 -28 -46 -48 -55 -65c-12 -54 -23 -109 -33 -166c-26 -5 -52 -11 -74 -19l-6 6c48 204 92 405 135 612c9 41 3 45 -36 46l-31 1l5 25c82 8 135 34 148 34c10 0 9 -9 5 -29
c-34 -149 -67 -296 -100 -444l1 -1c32 37 56 62 85 90c56 57 129 121 175 121c28 0 42 -16 42 -31c0 -12 -9 -30 -20 -40c-6 -5 -11 -7 -16 -5c-8 4 -21 8 -38 8c-46 0 -102 -52 -131 -84c20 -61 60 -151 83 -195c19 -37 28 -49 39 -49s32 18 57 47zM333 122l15 -23
c-63 -71 -143 -111 -200 -111c-64 0 -106 51 -106 144c0 82 38 184 105 244c41 36 112 73 161 73c43 0 75 -25 75 -50c1 -15 -10 -34 -32 -46c-8 -5 -16 -3 -22 6c-21 29 -44 41 -75 41c-38 0 -67 -27 -86 -64c-23 -45 -43 -114 -43 -181c0 -70 26 -106 70 -106
c52 0 110 45 138 73z" />
    <glyph glyph-name="c_t" unicode="&#xe101;" horiz-adv-x="664" 
d="M699 433l-26 -35l-100 -4l-60 -275c-11 -49 -5 -60 5 -60c18 0 65 32 89 57l15 -22c-33 -39 -109 -106 -161 -106c-23 0 -43 30 -21 132l61 274h-70l-3 9l26 30h56c10 42 38 128 54 151c-12 0 -54 1 -95 1c-95 0 -134 -36 -134 -100c0 -20 6 -36 12 -47
c4 -7 12 -17 12 -27c-1 -14 -9 -31 -28 -42c-6 -4 -14 0 -18 5c-11 13 -28 26 -55 26c-29 0 -61 -20 -84 -60c-29 -47 -49 -118 -49 -184c0 -63 20 -106 71 -106s107 41 138 69l15 -22c-64 -71 -137 -109 -200 -109c-68 0 -107 59 -107 141c0 88 39 188 119 253
c33 27 78 55 123 66c-1 8 -3 16 -3 27c-1 80 99 153 214 153c68 0 118 -2 144 -1v-8c-18 -24 -34 -84 -57 -186h117z" />
    <glyph glyph-name="ij" unicode="&#x133;" horiz-adv-x="533" 
d="M222 641c26 0 39 -21 40 -45c0 -31 -23 -58 -53 -58c-24 0 -41 18 -42 44c0 25 20 59 55 59zM223 109l13 -21c-33 -41 -111 -100 -146 -100c-20 0 -33 16 -13 98l62 256c6 22 6 32 -1 32c-8 0 -38 -17 -68 -43l-12 23c55 54 125 95 152 95c22 0 21 -32 10 -79l-69 -276
c-6 -24 -4 -32 2 -32c12 0 47 26 70 47zM479 648c26 0 40 -21 40 -45c1 -31 -22 -58 -52 -58c-24 0 -42 18 -43 44c0 26 20 59 55 59zM331 321l-13 23c61 63 130 105 158 105c22 0 22 -33 8 -103c-16 -85 -33 -169 -56 -280c-24 -120 -64 -209 -118 -260
c-49 -48 -88 -63 -106 -63c-19 0 -44 13 -44 32c0 15 12 34 24 44c7 6 14 9 22 4c14 -8 32 -16 50 -16c29 0 49 30 67 107c24 104 45 217 81 400c9 46 9 57 1 57c-9 0 -46 -25 -74 -50z" />
    <glyph glyph-name="s_p" unicode="&#xe155;" horiz-adv-x="790" 
d="M476 -216l-4 -25l-231 -12l5 25c62 12 73 20 87 83c40 176 75 348 114 526c-31 -9 -54 -22 -80 -36l-8 25c30 19 63 37 95 48l37 163c-18 0 -46 4 -82 4c-46 0 -110 -11 -110 -97c-1 -29 9 -50 15 -63c-1 -17 -10 -33 -23 -42c-10 -8 -20 -8 -27 -1c-9 11 -25 20 -43 20
c-26 0 -58 -23 -59 -63c0 -38 23 -60 59 -95c48 -47 58 -72 58 -110c0 -75 -96 -146 -171 -146c-58 0 -97 41 -97 75c-1 19 14 38 31 46c10 4 15 -1 20 -11c19 -37 55 -61 93 -61c30 0 61 21 61 57c0 25 -10 49 -53 91c-36 35 -64 71 -64 113c0 32 14 67 52 98
c15 14 44 37 97 52c-2 10 -3 16 -3 28c0 69 87 152 193 152c28 0 45 -2 63 -4l8 29l67 36l7 -6c-16 -75 -38 -169 -54 -245c29 7 65 11 90 11c105 0 146 -51 146 -140c0 -65 -29 -140 -87 -205c-49 -56 -120 -100 -184 -116c-16 0 -39 2 -59 10l-27 -138
c-11 -60 -6 -69 43 -74zM574 407c-20 0 -40 -3 -53 -7l-69 -335c11 -15 37 -32 61 -32c71 0 169 133 169 261c0 90 -49 113 -108 113z" />
    <glyph glyph-name="s_t" unicode="&#xfb06;" horiz-adv-x="613" 
d="M648 433l-27 -35l-100 -4l-60 -275c-11 -50 -5 -61 5 -61c18 0 66 33 90 58l14 -22c-33 -39 -109 -106 -161 -106c-23 0 -43 30 -20 132l60 274h-74l-3 9l26 30h60c10 43 39 128 54 151c-16 0 -53 1 -84 1c-98 0 -137 -32 -137 -102c0 -22 10 -43 15 -59
c0 -16 -8 -32 -21 -42c-11 -8 -21 -8 -27 -1c-10 11 -27 21 -44 21c-28 0 -59 -23 -60 -63c-1 -36 22 -58 58 -93c50 -48 60 -72 60 -111c0 -77 -96 -147 -172 -147c-59 0 -97 39 -97 73c0 20 15 38 33 46c10 4 15 0 20 -11c18 -38 54 -58 91 -58c33 0 62 22 62 56
c0 26 -10 50 -54 92c-36 34 -64 70 -64 112c0 32 14 66 51 97c17 14 46 38 98 53c-1 9 -2 19 -2 28c-1 75 96 151 217 151c54 0 107 -2 132 -1v-8c-17 -26 -34 -81 -56 -185h117z" />
    <glyph glyph-name="zero.slash" unicode="&#xf638;" horiz-adv-x="477" 
d="M134 122l246 425c-11 33 -30 56 -67 56c-124 0 -182 -258 -184 -408c-1 -25 1 -53 5 -73zM390 502l-246 -425c12 -35 31 -57 65 -57c123 0 181 279 184 411c0 27 -1 53 -3 71zM319 635c118 0 155 -114 152 -226c-2 -159 -85 -421 -267 -421c-117 0 -156 112 -154 233
c2 157 91 414 269 414z" />
    <glyph glyph-name="Euro" unicode="&#x20ac;" horiz-adv-x="477" 
d="M48 392h52c52 155 160 243 290 243c50 0 78 -10 111 -23c-4 -47 -8 -91 -12 -129l-28 -2c-3 73 -17 121 -81 121c-77 0 -152 -79 -191 -210h217l-9 -34h-218c-6 -21 -11 -52 -12 -72h212l-11 -35h-203c-8 -115 16 -228 105 -229c55 0 93 39 142 106l22 -14
c-14 -29 -45 -89 -63 -109c-27 -9 -61 -17 -108 -17c-134 0 -192 110 -187 263h-64l10 35h56c2 21 7 52 13 72h-53z" />
    <glyph glyph-name="franc" unicode="&#x20a3;" horiz-adv-x="477" 
d="M115 623h386c-6 -33 -14 -96 -18 -141l-28 -3c-2 38 -4 62 -13 81c-11 23 -27 30 -89 30h-55c-27 0 -31 -5 -36 -32l-41 -214c81 0 141 3 204 9l-10 -54c-63 6 -122 7 -202 8l-21 -116h151l-7 -35h-151l-8 -37c-15 -80 -8 -87 81 -93l-5 -26h-253l5 26c72 6 80 12 95 93
l7 37h-83l7 35h83l60 310c15 80 10 90 -65 96z" />
    <glyph glyph-name="lira" unicode="&#x20a4;" horiz-adv-x="477" 
d="M378 243h-161c-18 -55 -55 -102 -109 -145c27 1 67 -9 104 -27c36 -18 81 -38 119 -38c36 0 64 17 64 49c0 9 -3 21 -5 30c-2 7 1 15 7 22c12 15 27 25 39 25c11 0 18 -18 18 -35c0 -49 -41 -93 -84 -119c-30 -19 -65 -32 -99 -32c-42 0 -82 28 -127 54
c-29 17 -46 25 -62 25c-17 0 -35 -11 -55 -45c-4 -9 -10 -12 -16 -12c-9 4 -26 19 -3 47c12 16 36 39 59 59c41 37 59 90 67 142h-92l7 34h90c2 22 2 43 5 67h-83l7 34h79c8 92 41 160 114 214c35 27 75 43 109 43c46 0 75 -25 82 -41c6 -10 7 -21 0 -32
c-5 -8 -12 -14 -20 -20s-18 -6 -25 3c-18 22 -45 41 -80 41c-49 0 -75 -30 -87 -95c-6 -35 -7 -76 -8 -113h173l-8 -34h-166c-1 -23 -2 -46 -6 -67h161z" />
    <glyph glyph-name="peseta" unicode="&#x20a7;" horiz-adv-x="477" 
d="M516 457l-7 -34h-47c-18 -112 -105 -166 -192 -176c-14 -2 -26 -2 -38 0l-55 19l-29 -148c-16 -81 -6 -86 78 -92l-5 -26h-254l6 26c74 6 82 13 98 93l60 304h-68l8 34h67l9 47c15 85 8 88 -68 94l6 25h195c152 0 184 -91 186 -166h50zM213 457h172
c2 91 -49 136 -108 136c-14 0 -21 -2 -28 -6c-9 -4 -14 -14 -19 -39zM382 423h-176l-23 -125c15 -6 32 -12 57 -12c53 0 126 32 142 137z" />
    <glyph glyph-name="peseta.alt" unicode="&#xe153;" horiz-adv-x="818" 
d="M538 85l9 -15c2 5 7 8 11 11c10 5 14 3 19 -2c20 -33 53 -50 80 -50c30 0 52 18 52 44c0 20 -12 36 -51 63c-36 23 -69 50 -69 89c0 26 9 53 44 83c25 20 60 35 89 35c30 0 68 -21 68 -48c0 -12 -9 -27 -20 -35c-8 -3 -14 -4 -18 3c-15 22 -38 39 -64 39
c-27 0 -44 -16 -44 -42s23 -44 57 -68c48 -31 66 -54 66 -89c0 -59 -80 -115 -147 -115c-45 0 -84 31 -85 56c0 3 0 6 1 9c-30 -29 -86 -65 -128 -65c-22 0 -39 22 -21 102l54 235c-38 -19 -83 -31 -125 -33c-12 -1 -28 -1 -40 3l-57 17l-36 -190c-16 -83 -7 -89 75 -97
l-6 -25h-246l7 25c68 8 75 14 92 97l75 379c16 82 8 89 -65 97l6 25h215c143 0 209 -55 209 -149c0 -31 -9 -59 -24 -81l-15 -65h90l-20 -31l-77 -4l-44 -202c-9 -39 -5 -47 4 -47c16 0 57 21 79 41zM262 534l-37 -192c14 -5 37 -11 67 -11c79 0 172 34 172 142
c0 68 -40 119 -141 119c-13 0 -26 -3 -38 -6c-12 -4 -17 -19 -23 -52z" />
    <glyph glyph-name="aringacute" unicode="&#x1fb;" horiz-adv-x="490" 
d="M453 116l12 -24c-54 -67 -121 -104 -146 -104c-19 0 -32 15 -18 88l20 95h-2c-39 -55 -86 -103 -129 -138c-33 -27 -66 -45 -93 -45c-26 0 -58 33 -58 113c0 101 47 210 120 271c50 42 123 77 186 77c21 0 41 -3 62 -7c14 -3 27 -6 38 -6l3 -4c-16 -62 -46 -198 -69 -325
c-7 -35 -4 -43 2 -43c8 0 43 23 72 52zM149 52c39 0 152 127 186 196c11 40 26 112 33 144c-14 7 -41 14 -67 14s-54 -8 -71 -21c-68 -50 -108 -168 -108 -267c0 -45 13 -66 27 -66zM344 665c45 0 84 -32 82 -86c-1 -53 -49 -86 -97 -86c-50 0 -83 34 -81 80
c1 57 49 92 96 92zM341 631c-26 0 -46 -23 -47 -55c-1 -29 13 -50 38 -50c26 0 47 23 48 55c1 29 -13 50 -39 50zM495 857l-155 -170l-23 15c33 52 83 137 93 156c11 4 67 12 83 10z" />
    <glyph glyph-name="estimated" unicode="&#x212e;" horiz-adv-x="774" 
d="M773 302h-583c-3 0 -6 -1 -6 -4v-176c0 -8 4 -15 9 -20c56 -59 134 -96 221 -96c93 0 175 42 232 107h52c-65 -76 -169 -126 -285 -126c-199 0 -361 145 -361 324c0 180 162 325 361 325s360 -145 360 -325v-9zM641 325v178c0 9 -3 16 -9 22c-56 56 -133 92 -218 92
c-86 0 -164 -37 -220 -95c-6 -6 -10 -14 -10 -22v-175c0 -2 3 -5 6 -5h447c3 0 4 3 4 5z" />
    <glyph glyph-name="a.sc" unicode="&#xf761;" horiz-adv-x="553" 
d="M500 27l-6 -27h-200l6 27l21 3c25 4 33 12 25 53l-13 69h-162c-11 -19 -26 -47 -41 -78c-14 -29 -6 -40 18 -43l27 -5l-7 -26h-178l6 27c53 6 65 14 104 80l217 362l31 6l77 -380c11 -54 20 -62 75 -68zM327 191l-32 178h-2l-101 -178h135z" />
    <glyph glyph-name="b.sc" unicode="&#xf762;" horiz-adv-x="497" 
d="M93 463h200c55 0 91 -7 117 -24c25 -17 39 -42 39 -75c0 -71 -67 -102 -115 -111v-2c60 -11 107 -47 107 -111c0 -55 -37 -92 -85 -114c-46 -20 -102 -26 -155 -26h-192l5 27c62 6 67 11 78 69l53 270c12 62 6 65 -58 70zM200 264h39c72 0 127 28 126 93
c0 52 -34 75 -88 75c-40 0 -45 -4 -52 -40zM195 234l-26 -140c-10 -54 13 -63 54 -63c69 0 130 38 130 112c0 64 -40 91 -118 91h-40z" />
    <glyph glyph-name="c.sc" unicode="&#xf763;" horiz-adv-x="520" 
d="M453 142l25 -13c-16 -42 -42 -98 -58 -122c-24 -7 -90 -19 -140 -19c-161 0 -230 107 -230 213c0 171 145 274 311 274c65 0 113 -16 138 -24c-2 -40 -5 -77 -8 -128l-27 -5c-6 100 -57 125 -121 125c-119 0 -202 -102 -202 -242c0 -94 47 -181 142 -181
c69 0 122 43 170 122z" />
    <glyph glyph-name="d.sc" unicode="&#xf764;" horiz-adv-x="573" 
d="M96 463h182c82 0 151 -16 194 -49c44 -34 69 -85 69 -149c0 -93 -44 -167 -118 -212c-63 -38 -141 -53 -229 -53h-187l6 27c61 6 67 9 79 69l53 269c12 65 6 66 -56 71zM226 386l-53 -278c-11 -58 5 -75 58 -75c126 0 219 85 219 235c0 106 -57 163 -162 163
c-23 0 -40 -5 -46 -9c-6 -5 -12 -16 -16 -36z" />
    <glyph glyph-name="e.sc" unicode="&#xf765;" horiz-adv-x="476" 
d="M94 463h357c-3 -20 -8 -72 -14 -120l-28 -2c-2 30 -7 52 -14 67c-8 15 -24 22 -80 22h-52c-26 0 -28 -2 -33 -26l-28 -146h74c62 0 66 6 86 56h27l-29 -152h-26c0 54 -4 60 -63 60h-76l-22 -122c-7 -36 -5 -53 7 -59c12 -7 31 -9 76 -9c51 0 79 7 99 25
c18 17 33 39 51 73l27 -9c-12 -30 -40 -102 -50 -121h-380l6 27c68 6 72 9 85 74l51 262c12 64 6 67 -57 73z" />
    <glyph glyph-name="f.sc" unicode="&#xf766;" horiz-adv-x="452" 
d="M96 463h352c-2 -20 -9 -72 -14 -121l-27 -2c-3 26 -6 47 -12 63c-8 19 -21 27 -75 27h-58c-26 0 -27 -1 -32 -26l-30 -155h81c64 0 69 5 88 56h27l-30 -153h-26c1 55 -4 60 -65 60h-82l-23 -118c-11 -57 -4 -61 65 -67l-5 -27h-222l6 27c61 6 68 9 79 67l53 274
c11 58 7 62 -56 67z" />
    <glyph glyph-name="g.sc" unicode="&#xf767;" horiz-adv-x="550" 
d="M531 221l-5 -26c-47 -8 -49 -10 -60 -64l-10 -50c-5 -26 -7 -49 -5 -65c-52 -12 -118 -28 -168 -28c-153 0 -233 96 -233 211c0 174 144 276 311 276c66 0 123 -15 147 -22c-2 -26 -6 -68 -10 -130l-28 -2c-5 82 -35 122 -119 122c-108 0 -210 -80 -210 -244
c0 -80 43 -180 153 -180c32 0 73 9 82 54l12 58c10 53 4 56 -76 64l6 26h213z" />
    <glyph glyph-name="h.sc" unicode="&#xf768;" horiz-adv-x="608" 
d="M615 463l-4 -27c-63 -6 -67 -9 -79 -71l-51 -269c-12 -61 -7 -64 58 -69l-6 -27h-215l6 27c60 4 66 8 78 70l25 128h-232l-23 -128c-12 -62 -7 -65 54 -70l-6 -27h-213l6 27c62 5 69 10 80 69l52 269c11 61 8 65 -61 71l5 27h216l-6 -27c-59 -6 -64 -8 -76 -71l-20 -100
h231l20 100c12 61 7 66 -59 71l6 27h214z" />
    <glyph glyph-name="i.sc" unicode="&#xf769;" horiz-adv-x="299" 
d="M310 463l-6 -27c-64 -6 -69 -10 -80 -66l-53 -275c-11 -59 -5 -62 60 -68l-6 -27h-219l5 27c63 6 71 10 82 68l53 275c11 56 4 61 -61 66l5 27h220z" />
    <glyph glyph-name="j.sc" unicode="&#xf76a;" horiz-adv-x="297" 
d="M315 463l-5 -27c-64 -6 -69 -8 -81 -74l-50 -273c-17 -91 -44 -147 -98 -181c-29 -20 -66 -31 -92 -31l-4 30c48 7 78 40 94 97c13 48 21 86 30 133l42 226c12 63 7 68 -64 73l5 27h223z" />
    <glyph glyph-name="k.sc" unicode="&#xf76b;" horiz-adv-x="541" 
d="M562 463l-6 -27c-50 -5 -73 -11 -115 -43c-31 -23 -92 -76 -155 -130c45 -74 96 -149 126 -186c30 -38 47 -47 85 -50l-5 -27h-126c-22 32 -94 145 -130 202c-15 24 -29 23 -43 20l-23 -122c-13 -63 -7 -68 57 -73l-5 -27h-211l5 27c59 6 65 9 78 73l50 262
c13 64 8 69 -55 74l6 27h207l-5 -27c-62 -6 -65 -11 -77 -74l-22 -115c17 3 33 11 52 26c53 40 115 99 144 129c20 20 17 29 -12 32l-17 2l5 27h192z" />
    <glyph glyph-name="l.sc" unicode="&#xf76c;" horiz-adv-x="453" 
d="M396 133l25 -9c-10 -25 -40 -104 -50 -124h-368l6 27c67 5 72 8 84 74l52 264c12 63 6 66 -58 71l6 27h217l-6 -27c-65 -6 -70 -9 -82 -71l-51 -268c-6 -32 -5 -51 9 -57c13 -7 34 -8 69 -8c46 0 72 7 92 25c15 14 35 41 55 76z" />
    <glyph glyph-name="m.sc" unicode="&#xf76d;" horiz-adv-x="699" 
d="M696 463l-6 -27c-71 -7 -74 -10 -82 -70l-34 -271c-7 -58 -2 -62 66 -68l-5 -27h-223l5 27c63 6 72 11 80 68l44 292h-4l-231 -379h-20l-82 368h-2l-50 -180c-16 -59 -24 -96 -28 -121c-5 -34 3 -42 65 -48l-7 -27h-190l6 27c50 4 64 13 77 47c11 28 22 61 42 131l42 142
c23 77 17 81 -57 89l8 27h142l86 -332l210 332h148z" />
    <glyph glyph-name="n.sc" unicode="&#xf76e;" horiz-adv-x="572" 
d="M600 463l-5 -27c-45 -4 -65 -13 -74 -44c-8 -26 -15 -57 -27 -118l-53 -280h-29l-232 367h-2l-34 -173c-11 -60 -16 -90 -17 -114c-2 -31 13 -42 71 -47l-5 -27h-193l6 27c42 3 62 13 72 46c7 23 16 54 28 115l32 155c16 80 6 87 -68 93l6 27h127l224 -342h2l28 153
c11 59 14 92 16 117c3 32 -15 41 -70 45l5 27h192z" />
    <glyph glyph-name="o.sc" unicode="&#xf76f;" horiz-adv-x="569" 
d="M316 475c144 0 219 -106 219 -212c0 -183 -144 -275 -267 -275c-153 0 -218 110 -218 212c0 176 146 275 266 275zM318 442c-84 0 -178 -97 -178 -256c0 -87 46 -165 130 -165c87 0 175 93 175 254c0 81 -35 167 -127 167z" />
    <glyph glyph-name="p.sc" unicode="&#xf770;" horiz-adv-x="480" 
d="M95 463h189c59 0 103 -11 132 -34c28 -21 45 -54 45 -96c0 -98 -85 -150 -184 -155c-9 0 -21 0 -31 2l-57 16l-18 -97c-11 -64 -7 -66 66 -72l-5 -27h-223l5 27c61 6 67 8 79 72l52 264c13 66 5 68 -55 73zM226 392l-31 -165c13 -4 35 -12 61 -12c50 0 118 28 118 121
c0 63 -33 97 -95 97c-40 0 -47 -7 -53 -41z" />
    <glyph glyph-name="q.sc" unicode="&#xf771;" horiz-adv-x="568" 
d="M514 -105l-8 -21c-41 -2 -84 8 -104 14c-31 11 -87 44 -161 103c-135 13 -190 116 -190 210c0 172 141 274 265 274c145 0 218 -108 218 -215c0 -145 -96 -233 -187 -260c31 -23 62 -46 92 -65c30 -18 57 -32 75 -40zM317 443c-82 0 -177 -96 -177 -256
c0 -75 36 -148 104 -165l50 20c8 -6 15 -12 22 -18c53 19 128 103 128 251c0 74 -31 168 -127 168z" />
    <glyph glyph-name="r.sc" unicode="&#xf772;" horiz-adv-x="516" 
d="M469 15l-5 -21h-17c-79 0 -108 25 -131 69c-16 29 -36 74 -50 106c-11 23 -21 30 -50 30h-27l-20 -105c-10 -55 -4 -62 59 -67l-5 -27h-216l5 27c63 5 70 11 80 66l53 274c11 59 6 63 -57 69l6 27h190c47 0 90 -8 118 -25c30 -19 47 -49 47 -89c0 -81 -68 -114 -120 -132
c9 -23 31 -69 46 -97c21 -35 32 -54 45 -70c11 -13 28 -27 49 -35zM194 230h39c26 0 48 2 73 13c31 17 57 49 57 98c0 63 -34 92 -87 91c-34 0 -44 -6 -50 -38z" />
    <glyph glyph-name="s.sc" unicode="&#xf773;" horiz-adv-x="405" 
d="M35 152l27 5c9 -61 48 -138 125 -138c42 0 89 23 89 86c0 52 -41 76 -85 102c-48 29 -102 64 -102 129c0 76 58 139 168 139c51 0 98 -20 112 -27c-2 -30 -3 -67 -5 -114l-27 -3c-8 70 -35 113 -95 113c-44 0 -82 -31 -82 -78c0 -48 47 -73 90 -98
c53 -30 104 -67 104 -135c0 -97 -94 -145 -179 -145c-71 0 -124 32 -138 45c-1 21 -2 73 -2 119z" />
    <glyph glyph-name="t.sc" unicode="&#xf774;" horiz-adv-x="506" 
d="M336 0h-232l5 27c71 6 78 12 89 72l63 331h-36c-62 0 -75 -8 -88 -23c-14 -14 -25 -36 -42 -75h-28c15 55 30 112 38 149h17c8 -16 16 -18 38 -18h298c19 0 26 4 40 18h17c-4 -29 -14 -101 -19 -147l-28 -2c0 39 -3 62 -12 76c-10 16 -21 22 -71 22h-46l-63 -331
c-11 -60 -6 -66 66 -72z" />
    <glyph glyph-name="u.sc" unicode="&#xf775;" horiz-adv-x="565" 
d="M599 463l-6 -27c-49 -4 -64 -12 -74 -46c-8 -25 -15 -58 -28 -123l-14 -64c-12 -59 -34 -126 -84 -168c-37 -32 -84 -47 -132 -47c-46 0 -90 10 -121 37c-36 30 -58 83 -38 180l32 161c12 61 6 64 -60 70l6 27h216l-6 -27c-60 -6 -66 -9 -78 -70l-31 -155
c-24 -120 16 -177 102 -177c90 0 135 73 159 186l10 48c11 56 17 96 18 122c2 34 -14 42 -70 46l6 27h193z" />
    <glyph glyph-name="v.sc" unicode="&#xf776;" horiz-adv-x="563" 
d="M589 463l-7 -27c-51 -6 -61 -10 -104 -76c-39 -59 -138 -222 -221 -368h-30c-27 129 -63 298 -84 388c-10 45 -22 50 -69 56l5 27h201l-6 -27l-27 -4c-28 -4 -33 -9 -27 -39c9 -49 37 -172 63 -293c53 91 137 236 160 283c18 36 13 44 -19 49l-22 4l6 27h181z" />
    <glyph glyph-name="w.sc" unicode="&#xf777;" horiz-adv-x="762" 
d="M779 463l-5 -27c-53 -6 -60 -11 -88 -62c-36 -65 -97 -191 -190 -382h-27l-67 330h-2l-180 -330h-26l-47 376c-8 61 -14 63 -65 68l6 27h192l-6 -28l-26 -3c-26 -4 -31 -8 -27 -49l30 -270h2l177 339h23l66 -339h2c45 90 103 217 124 269c17 42 11 48 -21 51l-25 3l6 27
h174z" />
    <glyph glyph-name="x.sc" unicode="&#xf778;" horiz-adv-x="539" 
d="M542 463l-7 -27c-49 -7 -66 -13 -97 -43c-42 -42 -82 -86 -127 -137c31 -61 61 -117 90 -172c23 -43 35 -51 92 -57l-6 -27h-218l5 27l32 5c24 3 26 13 15 36l-64 129s-1 1 -2 0c-43 -50 -77 -92 -100 -124c-16 -24 -17 -38 4 -42l31 -5l-6 -26h-187l6 27
c53 6 69 15 106 54c42 44 83 92 131 149c-27 55 -54 106 -82 159c-18 35 -32 43 -77 47l5 27h193l-4 -28l-25 -3c-20 -4 -22 -12 -13 -31l57 -114l2 -1c34 38 61 69 96 115c15 20 13 27 -11 31l-25 4l7 27h179z" />
    <glyph glyph-name="y.sc" unicode="&#xf779;" horiz-adv-x="510" 
d="M536 463l-6 -27c-49 -6 -64 -13 -95 -50c-31 -36 -72 -88 -119 -153c-13 -18 -19 -30 -21 -45l-18 -91c-10 -57 -5 -65 66 -70l-6 -27h-230l6 27c70 6 74 12 86 70l17 84c3 18 1 29 -7 49c-15 40 -33 86 -64 159c-16 37 -23 42 -71 47l7 27h191l-6 -27l-28 -4
c-20 -3 -23 -10 -16 -27c15 -40 43 -117 62 -162c44 57 87 119 110 154c16 26 11 31 -12 35l-27 4l6 27h175z" />
    <glyph glyph-name="z.sc" unicode="&#xf77a;" horiz-adv-x="494" 
d="M483 450l-357 -414c32 -2 61 -4 110 -4c71 0 109 6 135 28c18 15 38 44 56 79l27 -8c-11 -34 -35 -107 -47 -131h-397l-4 12l363 418h-101c-72 0 -93 -8 -108 -24c-13 -13 -28 -34 -42 -75l-28 1c16 61 26 110 33 149h18c9 -16 17 -18 39 -18h299z" />
    <glyph glyph-name="dcroat.sc" unicode="&#xf676;" horiz-adv-x="592" 
d="M113 463h188c82 0 147 -16 191 -49c43 -34 68 -84 68 -149c0 -93 -46 -165 -120 -211c-63 -39 -141 -54 -229 -54h-187l5 26c64 6 70 12 84 79l23 118h-79l11 36h75l19 100c13 66 6 71 -55 77zM213 223l-21 -115c-10 -53 -2 -76 57 -76c127 0 220 89 220 237
c0 101 -50 162 -162 162c-22 0 -41 -5 -46 -8c-6 -4 -11 -14 -15 -32l-25 -132h123l-10 -36h-121z" />
    <glyph glyph-name="hbar.sc" unicode="&#xf681;" horiz-adv-x="608" 
d="M615 463l-4 -27c-63 -5 -67 -9 -77 -62l-3 -12h73l-8 -33h-71l-45 -235c-11 -57 -6 -62 59 -67l-6 -27h-215l6 27c60 4 66 8 77 67l25 125h-231l-24 -125c-11 -57 -6 -62 55 -67l-6 -27h-213l6 27c61 5 68 9 79 67l46 235h-75l9 33h72c0 4 2 8 2 11c11 55 6 57 -62 63
l6 27h215l-6 -27c-58 -6 -63 -7 -75 -61c0 -5 -1 -9 -2 -13h232c0 4 2 8 2 11c10 54 5 58 -61 63l7 27h213zM447 329h-231l-14 -72h231z" />
    <glyph glyph-name="dotlessi.sc" unicode="&#xe108;" horiz-adv-x="299" 
d="M310 463l-6 -27c-64 -6 -69 -10 -80 -66l-53 -275c-11 -59 -5 -62 60 -68l-6 -27h-219l5 27c63 6 71 10 82 68l53 275c11 56 4 61 -61 66l5 27h220z" />
    <glyph glyph-name="oslash.sc" unicode="&#xf7f8;" horiz-adv-x="566" 
d="M501 501l23 -22l-54 -63c42 -41 63 -97 63 -153c0 -183 -140 -275 -268 -275c-51 0 -93 13 -126 34l-56 -67l-22 24l53 63c-44 41 -63 102 -63 157c0 169 135 276 264 276c52 0 97 -15 130 -39zM158 96l251 298c-18 29 -43 49 -94 49c-82 0 -177 -99 -177 -257
c0 -32 8 -64 20 -90zM427 364l-251 -297c17 -27 48 -47 90 -47c83 0 180 87 180 255c0 30 -7 61 -19 89z" />
    <glyph glyph-name="tbar.sc" unicode="&#xf69c;" horiz-adv-x="506" 
d="M498 481h17c-4 -29 -14 -99 -18 -145l-28 -2c1 39 -4 60 -13 74c-9 17 -21 22 -71 22h-46l-34 -178h104l-9 -36h-102l-22 -119c-11 -59 -5 -64 66 -71l-6 -26h-232l5 26c71 7 77 11 88 71l23 119h-93l9 36h91l35 178h-35c-61 0 -77 -8 -91 -23c-13 -14 -24 -34 -41 -73
h-27c15 55 29 110 37 147h17c8 -16 16 -18 38 -18h299c19 0 25 4 39 18z" />
    <glyph glyph-name="eng.sc" unicode="&#xf67b;" horiz-adv-x="568" 
d="M596 463l-5 -27c-45 -4 -65 -13 -74 -44c-7 -26 -15 -57 -26 -118l-37 -196c-18 -92 -33 -162 -63 -210c-29 -46 -65 -64 -98 -64c-24 0 -42 13 -42 32s19 46 31 46c11 0 18 -11 40 -11c30 0 58 36 79 137l-222 351h-1l-33 -171c-12 -59 -16 -90 -17 -114
c-2 -31 13 -42 71 -47l-5 -27h-194l5 27c44 3 64 13 74 46c7 23 16 54 28 115l30 154c16 80 6 89 -68 94l6 27h127l221 -340h2l28 151c11 61 14 92 16 117c3 33 -16 41 -71 45l5 27h193z" />
    <glyph glyph-name="eth.sc" unicode="&#xf7f0;" horiz-adv-x="592" 
d="M113 463h188c82 0 147 -16 191 -49c43 -34 68 -84 68 -149c0 -93 -46 -165 -120 -211c-63 -39 -141 -54 -229 -54h-187l5 26c64 6 70 12 84 79l23 118h-79l11 36h75l19 100c13 66 6 71 -55 77zM213 223l-21 -115c-10 -53 -2 -76 57 -76c127 0 220 89 220 237
c0 101 -50 162 -162 162c-22 0 -41 -5 -46 -8c-6 -4 -11 -14 -15 -32l-25 -132h123l-10 -36h-121z" />
    <glyph glyph-name="thorn.sc" unicode="&#xf7fe;" horiz-adv-x="477" 
d="M227 0h-217l5 27c61 7 67 11 79 74l51 261c12 65 8 68 -55 74l6 27h207l-7 -27c-58 -6 -64 -9 -76 -70h66c99 0 158 -38 158 -118c0 -90 -90 -137 -175 -141c-12 -1 -25 0 -35 2l-59 16l-5 -29c-11 -58 -4 -62 63 -69zM208 302l-28 -147c15 -6 41 -11 65 -11
c47 0 110 20 110 107c0 55 -29 85 -94 85c-43 0 -48 -7 -53 -34z" />
    <glyph glyph-name="uni021D.sc" unicode="&#xe309;" horiz-adv-x="421" 
d="M110 164l-6 27c116 41 181 95 181 168c0 51 -31 83 -74 83c-49 0 -85 -33 -121 -109l-26 8c15 44 23 74 31 105c54 11 83 29 142 29c77 0 130 -42 130 -104c0 -55 -43 -95 -107 -134v-2c63 -18 106 -65 106 -129c0 -122 -150 -225 -345 -250l-45 36l7 17
c17 -4 43 -7 72 -7c124 0 222 75 222 185c0 63 -43 97 -86 97c-19 0 -40 -5 -81 -20z" />
    <glyph glyph-name="germandbls.sc" unicode="&#xe11e;" horiz-adv-x="810" 
d="M35 152l27 5c9 -61 48 -138 125 -138c42 0 89 23 89 86c0 52 -41 76 -85 102c-48 29 -102 64 -102 129c0 76 58 139 168 139c51 0 98 -20 112 -27c-2 -30 -3 -67 -5 -114l-27 -3c-8 70 -35 113 -95 113c-44 0 -82 -31 -82 -78c0 -48 47 -73 90 -98
c53 -30 104 -67 104 -135c0 -97 -94 -145 -179 -145c-71 0 -124 32 -138 45c-1 21 -2 73 -2 119zM440 152l27 5c9 -61 48 -138 125 -138c42 0 89 23 89 86c0 52 -41 76 -85 102c-48 29 -101 64 -101 129c0 76 57 139 167 139c51 0 98 -20 112 -27c-2 -30 -3 -67 -5 -114
l-27 -3c-8 70 -35 113 -95 113c-44 0 -81 -31 -81 -78c0 -48 46 -73 89 -98c53 -30 104 -67 104 -135c0 -97 -93 -145 -179 -145c-71 0 -124 32 -138 45c-1 21 -2 73 -2 119z" />
    <glyph glyph-name="ae.sc" unicode="&#xf7e6;" horiz-adv-x="714" 
d="M676 343l-28 -2c-2 30 -6 51 -14 66c-7 15 -26 23 -82 23h-50c-26 0 -28 -2 -33 -26l-32 -167h74c64 0 67 6 88 56h26l-28 -149h-26c-1 52 -3 57 -65 57h-77l-18 -98c-7 -39 -5 -57 7 -63c11 -6 31 -8 76 -8c51 0 77 5 98 24c17 17 33 39 52 72l26 -8
c-11 -30 -39 -101 -49 -120h-376l5 26c68 7 73 9 86 80l18 96h-135c-28 -38 -58 -84 -88 -131c-16 -27 -12 -36 18 -41l27 -4l-5 -26h-188l5 26c44 5 60 12 91 50c32 39 78 100 139 186l99 137c19 25 14 30 -7 32l-54 6l6 26h428c-3 -20 -9 -72 -14 -120zM243 237h118
l38 192c-8 0 -17 -4 -31 -15c-45 -63 -91 -126 -125 -177z" />
    <glyph glyph-name="oe.sc" unicode="&#xf6fa;" horiz-adv-x="750" 
d="M657 0h-248c-32 0 -57 -1 -78 -3c-22 -2 -39 -3 -53 -3c-164 0 -227 103 -227 205c0 182 153 270 309 270c43 0 82 -6 125 -6h240c-3 -20 -9 -72 -14 -120l-27 -2c-2 27 -5 50 -12 66c-7 15 -19 23 -71 23h-64c-26 0 -28 -2 -32 -26l-29 -146h73c64 0 68 6 88 55h26
l-28 -151h-26c0 55 -4 60 -67 60h-72l-23 -123c-7 -36 -6 -53 7 -60c11 -6 32 -8 76 -8c51 0 78 5 98 24c18 16 34 40 53 72l26 -9c-12 -30 -40 -99 -50 -118zM368 103l54 276c5 26 3 37 -2 41c-12 10 -35 17 -73 17c-117 0 -205 -91 -205 -241c0 -78 37 -169 142 -170
c23 0 40 3 57 12c13 7 21 29 27 65z" />
    <glyph glyph-name="i.dot" horiz-adv-x="273" 
d="M222 641c26 0 39 -21 40 -45c0 -31 -23 -58 -53 -58c-24 0 -41 18 -42 44c0 25 20 59 55 59zM223 109l13 -21c-33 -41 -111 -100 -146 -100c-20 0 -33 16 -13 98l62 256c6 22 6 32 -1 32c-8 0 -38 -17 -68 -43l-12 23c55 54 125 95 152 95c22 0 21 -32 10 -79l-69 -276
c-6 -24 -4 -32 2 -32c12 0 47 26 70 47z" />
    <glyph glyph-name="uni25B6" unicode="&#x25b6;" horiz-adv-x="606" 
d="M75 24l1 466h1l486 -230v-2l-486 -235z" />
    <glyph glyph-name="ij.sc" unicode="&#xf684;" horiz-adv-x="597" 
d="M310 463l-6 -27c-64 -6 -69 -10 -80 -66l-53 -275c-11 -59 -5 -62 60 -68l-6 -27h-219l5 27c63 6 71 10 82 68l53 275c11 56 4 61 -61 66l5 27h220zM614 463l-5 -27c-64 -6 -69 -8 -81 -74l-50 -273c-17 -91 -44 -147 -98 -181c-29 -20 -66 -31 -92 -31l-5 30
c49 7 79 40 95 97c13 48 21 86 30 133l42 226c12 63 7 68 -64 73l4 27h224z" />
    <glyph glyph-name="ampersand.sc" unicode="&#xf726;" horiz-adv-x="712" 
d="M668 378h31c3 -18 4 -39 4 -60c0 -90 -32 -108 -51 -108c-9 0 -28 8 -46 21c-14 11 -41 28 -59 43c-21 -73 -42 -129 -83 -179c-49 -61 -117 -107 -209 -107c-115 0 -202 82 -202 212c0 57 18 121 71 176c37 38 88 65 122 65c36 0 57 -32 56 -60c0 -8 0 -16 -1 -25l1 -1
c27 23 53 52 70 84c16 30 25 65 26 95c0 16 -1 26 -1 32c-2 19 15 33 33 33c19 0 37 -16 37 -51c0 -59 -42 -122 -114 -190c-70 -67 -153 -125 -222 -167c21 -91 86 -135 165 -135c116 0 185 105 221 237c-30 20 -54 33 -80 33s-35 -17 -36 -40c0 -19 8 -34 14 -43
c2 -3 3 -8 3 -13c0 -11 -20 -21 -32 -21c-22 0 -40 21 -40 50c0 32 25 62 55 84c26 19 66 34 79 34c42 0 114 -53 147 -77c13 -10 21 -14 26 -14c9 0 15 24 15 92zM204 394c-34 0 -80 -62 -80 -142c0 -8 0 -15 1 -26c30 17 85 53 110 76c4 10 7 22 7 42c-1 25 -17 50 -38 50
z" />
    <glyph glyph-name="exclam.sc" unicode="&#xf721;" horiz-adv-x="239" 
d="M132 168h-30l12 266c1 40 14 59 65 59c53 0 58 -20 44 -60zM93 -12c-28 0 -48 21 -48 50c0 34 24 59 56 59c27 0 46 -22 46 -51c0 -37 -26 -58 -54 -58z" />
    <glyph glyph-name="exclamdown.sc" unicode="&#xf7a1;" horiz-adv-x="239" 
d="M171 493c28 0 48 -21 48 -49c0 -35 -24 -60 -56 -60c-27 0 -46 22 -46 51c0 37 27 58 54 58zM87 -12c-55 0 -59 20 -45 60l91 267h29l-12 -267c-1 -41 -13 -60 -63 -60z" />
    <glyph glyph-name="question.sc" unicode="&#xf73f;" horiz-adv-x="324" 
d="M176 160l-20 -15c-26 13 -69 46 -69 90c0 42 47 71 89 92c40 20 94 46 94 82c0 24 -16 33 -38 33c-48 0 -82 -49 -100 -50c-18 0 -36 23 -36 40c0 15 9 25 25 35c27 19 64 26 81 26c57 0 115 -52 115 -118c0 -41 -20 -66 -69 -92c-34 -18 -92 -41 -92 -73
c0 -21 11 -38 20 -50zM129 -12c-28 0 -48 21 -48 50c0 34 23 59 56 59c27 0 46 -22 46 -52c0 -36 -27 -57 -54 -57z" />
    <glyph glyph-name="questiondown.sc" unicode="&#xf7bf;" horiz-adv-x="324" 
d="M220 493c28 0 47 -21 47 -50c0 -34 -23 -59 -55 -59c-27 0 -47 22 -47 51c0 37 27 58 55 58zM170 322l21 15c25 -14 69 -47 69 -92c1 -43 -47 -70 -89 -91c-40 -20 -94 -44 -94 -81c0 -23 16 -32 38 -32c48 0 82 49 100 49s36 -23 36 -41c0 -15 -9 -24 -24 -35
c-28 -19 -64 -26 -82 -26c-57 0 -115 52 -115 118c0 41 19 66 69 92c34 19 92 41 92 74c0 20 -11 37 -21 50z" />
    <glyph glyph-name="A.swash" unicode="&#xe001;" horiz-adv-x="787" 
d="M620 618h-61c-113 -1 -197 -25 -243 -65c-45 -39 -66 -91 -67 -143c0 -14 1 -29 1 -39c0 -7 -7 -12 -17 -3c-29 20 -40 58 -40 89c1 113 127 195 329 195c28 0 50 0 82 -1s59 -2 77 -2c24 7 57 20 86 28l7 -2c-22 -56 -53 -209 -90 -404c-15 -79 -25 -136 -31 -178
s-1 -48 34 -52l50 -6l-9 -27c-73 -6 -152 -16 -205 -26l4 28c18 6 28 19 34 45c9 38 27 128 45 209c-39 -8 -97 -9 -173 -9c-45 -88 -88 -156 -132 -206c-85 -97 -158 -124 -214 -125c-31 -1 -53 9 -67 24c-20 19 -29 74 -28 95l8 5c27 -31 59 -49 111 -49
c130 0 214 133 311 331c47 98 94 187 125 228c26 36 56 51 73 60zM689 615h-5c-87 -28 -156 -164 -227 -312h155l22 96c16 71 40 180 55 216z" />
    <glyph glyph-name="B.swash" unicode="&#xe017;" horiz-adv-x="772" 
d="M324 147l111 483c-197 -12 -284 -111 -284 -252c0 -24 2 -46 4 -61c1 -8 -2 -13 -11 -11c-24 7 -66 43 -67 102c0 49 21 104 76 154c62 56 177 103 338 103c96 0 156 -13 195 -38c40 -25 61 -62 61 -107c0 -82 -56 -131 -158 -156v-3c94 -20 142 -79 142 -157
c0 -75 -44 -129 -105 -161c-58 -31 -130 -43 -207 -43h-212l6 27c79 9 87 14 111 120zM511 630l-57 -261c114 6 204 37 205 141c0 76 -50 116 -148 120zM448 341l-52 -238c-13 -59 12 -69 57 -69c123 0 184 76 185 173c0 104 -70 136 -190 134z" />
    <glyph glyph-name="C.swash" unicode="&#xe019;" horiz-adv-x="531" 
d="M487 97l15 -25c-67 -78 -156 -122 -245 -122c-128 0 -200 104 -200 245c0 148 61 295 185 392c74 59 147 78 206 78c65 0 119 -34 119 -88c0 -26 -14 -59 -27 -76h-22c-2 79 -47 119 -111 119c-167 0 -262 -215 -262 -398c0 -148 69 -210 153 -210c70 0 136 36 189 85z
" />
    <glyph glyph-name="D.swash" unicode="&#xe025;" horiz-adv-x="896" 
d="M337 142l113 485c-197 -10 -301 -117 -301 -262c0 -19 1 -38 4 -54c1 -8 -2 -14 -11 -12c-28 8 -65 45 -65 100c0 54 22 108 82 159c66 58 184 107 368 107c116 0 213 -27 274 -79c56 -49 82 -124 82 -203c0 -134 -64 -243 -168 -311c-81 -54 -185 -72 -289 -72h-206
l8 27c79 6 85 11 109 115zM526 629l-111 -515c-10 -45 -8 -62 11 -69c17 -6 33 -8 57 -8c190 0 307 158 307 345c0 163 -91 243 -264 247z" />
    <glyph glyph-name="E.swash" unicode="&#xe02b;" horiz-adv-x="493" 
d="M464 124l18 -23c-83 -90 -176 -116 -248 -116c-111 0 -189 74 -189 178c0 94 71 158 178 199c-44 22 -64 64 -64 111c0 99 106 192 231 192c62 0 112 -31 112 -76c0 -26 -17 -59 -27 -72h-21c0 66 -38 107 -107 107c-76 0 -112 -63 -112 -127c0 -61 41 -104 121 -104
c21 0 36 2 54 3l3 -12l-43 -44c-22 2 -40 3 -54 3c-115 0 -183 -62 -182 -154c0 -88 60 -141 148 -141c65 0 130 31 182 76z" />
    <glyph glyph-name="F.swash" unicode="&#xe045;" horiz-adv-x="716" 
d="M765 702l24 -8c-12 -42 -24 -66 -35 -78c-11 -10 -25 -13 -42 -13c-20 0 -50 2 -94 5c-39 3 -75 4 -107 6l-55 -267h26c107 0 182 7 217 10l4 -12l-53 -46c-49 0 -135 8 -186 8h-17l-36 -186c-16 -81 -7 -87 89 -94l-8 -27h-275l9 27c77 7 84 12 102 94l107 497
c-145 11 -286 -29 -287 -205c0 -15 0 -29 2 -43c2 -9 -4 -14 -14 -8c-29 17 -51 51 -51 95c0 43 18 87 64 125c44 41 123 74 274 74c50 0 93 -1 150 -2c55 -2 89 -2 120 -2c34 0 50 11 72 50z" />
    <glyph glyph-name="G.swash" unicode="&#xe047;" horiz-adv-x="638" 
d="M630 330l-36 -37c-11 -37 -25 -94 -36 -144c-38 -164 -88 -273 -169 -351c-45 -44 -90 -70 -119 -70c-33 0 -64 39 -67 78c-1 11 8 11 13 11c16 -7 53 -16 86 -16c34 0 71 16 99 69c29 51 49 128 63 190l-2 1c-56 -43 -129 -76 -200 -76c-116 0 -192 92 -192 234
c0 126 52 240 129 319c79 81 177 127 278 127c82 0 143 -39 143 -90c0 -23 -16 -55 -30 -78h-22c-4 82 -52 122 -134 122c-177 -1 -274 -197 -274 -368c0 -148 69 -209 148 -209c68 0 118 28 163 64c13 54 29 144 36 179l-173 5l-1 10l42 28l251 12z" />
    <glyph glyph-name="H.swash" unicode="&#xe051;" horiz-adv-x="840" 
d="M423 356h239c35 171 76 255 130 318c46 55 79 72 100 72c14 0 28 -12 28 -27c0 -10 -6 -30 -19 -46c-7 -8 -14 -10 -22 -6c-12 6 -21 10 -30 10c-10 0 -21 -7 -32 -26c-42 -80 -76 -270 -95 -375c-15 -78 -24 -140 -31 -186c-5 -35 1 -42 38 -46l46 -5l-9 -26
c-75 -7 -155 -22 -203 -31l6 28c21 11 27 20 33 50c11 48 35 175 54 263c-41 -11 -100 -15 -244 -15c-48 -204 -114 -294 -198 -354c-52 -38 -91 -48 -122 -48c-28 0 -45 15 -55 29c-11 16 -21 49 -21 67l12 9c28 -25 77 -39 110 -39c39 0 69 16 93 45c43 53 73 156 105 313
c31 148 56 254 71 281c-144 -3 -251 -75 -252 -227c0 -21 2 -39 4 -52c1 -9 -3 -13 -12 -11c-25 7 -63 40 -63 97c1 58 33 116 91 158c54 40 141 70 245 72c16 10 41 24 68 32l6 -4c-12 -28 -51 -222 -71 -320z" />
    <glyph glyph-name="I.swash" unicode="&#xe057;" horiz-adv-x="483" 
d="M499 654l-6 -24c-41 -8 -45 -9 -52 -44l-96 -464c-17 -80 -10 -87 73 -95l-7 -27h-260l7 27c80 8 87 14 105 96l109 498c-132 -3 -220 -81 -220 -206c0 -12 2 -26 3 -37c1 -8 -2 -11 -11 -9c-25 8 -57 42 -57 85c0 45 19 92 72 134c55 45 142 70 264 70c29 0 56 -2 76 -4
z" />
    <glyph glyph-name="J.swash" unicode="&#xe06d;" horiz-adv-x="469" 
d="M494 655l-6 -24c-38 -7 -42 -10 -49 -47l-91 -447c-34 -166 -100 -242 -176 -289c-48 -31 -87 -41 -122 -41c-38 0 -59 19 -71 42c-12 25 -16 52 -17 67c1 9 8 12 14 7c30 -31 81 -59 129 -59c32 0 57 11 74 30c31 31 61 109 94 273l93 453c-129 -2 -207 -87 -206 -210
c0 -13 1 -28 2 -40c1 -7 -2 -10 -11 -7c-27 7 -59 42 -59 86c0 46 21 93 70 133c59 49 142 76 263 76c28 0 52 -1 69 -3z" />
    <glyph glyph-name="K.swash" unicode="&#xe072;" horiz-adv-x="880" 
d="M549 652l-6 -25c-40 -6 -46 -14 -53 -43l-57 -256l3 1c16 11 36 27 64 54c41 39 102 111 189 203c69 72 100 79 127 79c26 0 45 -21 45 -41c0 -23 -17 -46 -35 -52c-12 -4 -21 -2 -27 7c-7 10 -14 13 -25 13c-27 0 -78 -51 -119 -93c-43 -43 -76 -80 -108 -114
c37 -86 79 -165 113 -222c48 -77 97 -133 155 -135c12 -1 24 1 33 2l-1 -25c-29 -13 -62 -20 -95 -20c-84 0 -131 79 -179 167c-23 41 -45 87 -77 154c-7 16 -13 19 -23 14c-9 -5 -29 -19 -49 -37l-32 -153c-20 -91 -11 -94 71 -103l-6 -27h-257l6 27c79 8 86 13 106 104
l112 488c-130 -1 -271 -63 -271 -221c0 -13 1 -30 3 -47c1 -9 -2 -13 -10 -11c-28 7 -61 42 -61 91c0 48 27 100 86 146c61 48 175 79 302 77c28 0 55 -1 76 -2z" />
    <glyph glyph-name="L.swash" unicode="&#xe076;" horiz-adv-x="737" 
d="M688 175l25 -11c-22 -60 -42 -101 -71 -138c-26 -34 -53 -46 -95 -46c-54 0 -123 7 -211 15c-86 8 -153 12 -178 12l-1 8c10 11 41 25 76 36c10 1 19 1 26 1c40 61 76 186 111 342l51 227c-137 -1 -273 -67 -273 -226c0 -19 2 -38 4 -54c1 -8 -2 -12 -11 -10
c-29 8 -62 44 -62 94s27 107 89 154c61 45 158 79 299 79c34 0 64 -1 88 -3l-6 -26c-40 -6 -44 -10 -48 -25l-51 -227c-32 -140 -73 -256 -137 -324l-1 -3c57 -3 147 -8 212 -8c76 0 114 43 164 133z" />
    <glyph glyph-name="M.swash" unicode="&#xe081;" horiz-adv-x="1017" 
d="M961 38l-11 -27c-91 -9 -152 -18 -212 -29l4 28c23 11 31 21 38 47c9 34 16 70 30 137c22 98 54 244 84 363h-2c-121 -158 -259 -397 -350 -563l-25 -5c-13 149 -31 368 -50 564l-2 1c-88 -357 -143 -463 -196 -533c-60 -78 -132 -109 -186 -109c-30 0 -49 7 -64 20
c-16 15 -30 61 -31 88c3 3 6 6 10 7c21 -19 57 -37 95 -37c57 0 117 29 182 140c56 94 117 272 171 485c-139 0 -281 -69 -283 -236c0 -20 2 -37 4 -51c1 -7 -3 -12 -11 -10c-26 8 -62 46 -62 101c1 51 23 100 80 147c55 46 154 83 285 87c19 9 41 23 56 31l8 -1
c11 -108 48 -382 64 -518l2 1c117 196 284 445 387 530c49 41 80 55 102 55c24 0 40 -37 39 -60c0 -7 0 -9 -12 -9c-95 10 -116 0 -135 -79c-16 -69 -41 -195 -69 -346c-12 -62 -21 -113 -27 -157c-6 -43 -3 -52 42 -57z" />
    <glyph glyph-name="N.swash" unicode="&#xe083;" horiz-adv-x="870" 
d="M954 657l-6 -26c-75 -13 -87 -28 -102 -75c-10 -31 -23 -80 -41 -172l-80 -397l-27 -3c-62 162 -163 377 -253 504h-2c-44 -272 -102 -392 -161 -459c-48 -55 -105 -80 -152 -80c-27 0 -45 9 -57 21c-17 17 -29 52 -32 76c3 2 6 6 9 7c15 -11 48 -27 89 -27
c43 0 106 25 161 123c57 101 99 273 112 373c-40 56 -93 96 -156 96c-73 0 -119 -49 -118 -170c0 -20 1 -35 3 -49c1 -8 -5 -11 -14 -8c-26 7 -53 44 -52 80c-1 30 11 72 50 112c53 56 115 82 182 82c113 0 197 -103 276 -246c62 -111 97 -186 134 -276h2l45 242
c16 88 23 135 26 170c5 49 -10 59 -92 64l7 26z" />
    <glyph glyph-name="O.swash" unicode="&#xe08d;" horiz-adv-x="639" 
d="M414 665c125 0 216 -108 215 -267c-1 -235 -153 -413 -336 -413c-134 0 -226 105 -226 270c0 219 159 410 347 410zM403 631c-138 0 -242 -203 -242 -384c0 -133 49 -228 144 -228c130 0 231 203 231 395c0 137 -45 217 -133 217z" />
    <glyph glyph-name="P.swash" unicode="&#xe0a4;" horiz-adv-x="754" 
d="M342 132l112 498c-192 -6 -302 -97 -302 -257c0 -21 2 -42 3 -55c1 -9 -3 -13 -13 -10c-28 7 -64 45 -64 97c0 41 11 86 58 136c71 76 200 124 356 124c192 0 278 -68 278 -188c0 -133 -127 -202 -242 -208l-6 27c76 13 160 60 160 180c0 87 -46 139 -151 150l-106 -495
c-19 -89 -11 -95 77 -105l-7 -26h-264l6 26c78 10 85 16 105 106z" />
    <glyph glyph-name="Q.swash" unicode="&#xe0a6;" horiz-adv-x="627" 
d="M806 -128l14 -23c-50 -62 -127 -106 -188 -106c-53 0 -99 17 -144 40c-43 22 -98 56 -172 105c-66 43 -110 66 -134 73c-15 -4 -51 -14 -113 -20l-9 10c10 17 38 46 77 67c21 -1 48 -7 73 -15c148 43 316 208 316 423c0 132 -48 205 -139 205c-149 0 -227 -181 -227 -293
c-1 -109 48 -182 112 -182c4 0 9 0 14 1l1 -25c-14 -8 -36 -15 -62 -15c-68 0 -156 70 -156 210c1 159 133 338 330 338c155 0 222 -126 222 -253c0 -141 -84 -252 -179 -322c-83 -60 -136 -85 -182 -104v-2c59 -22 128 -59 202 -103c73 -42 143 -68 199 -68
c50 0 102 22 145 59z" />
    <glyph glyph-name="R.swash" unicode="&#xe0a9;" horiz-adv-x="838" 
d="M817 28l-4 -27c-19 -10 -47 -16 -77 -16c-68 0 -109 55 -144 126c-28 55 -56 118 -72 155c-11 24 -25 32 -90 27l-36 -164c-20 -89 -12 -94 73 -102l-5 -27h-262l6 27c76 8 86 13 106 102l115 500c-212 -14 -275 -133 -276 -241c0 -16 2 -38 6 -58c2 -9 -2 -15 -11 -12
c-33 9 -66 44 -66 98c0 51 26 106 85 152c64 53 179 97 316 97c94 0 160 -16 197 -42c41 -29 60 -70 60 -121c0 -116 -103 -161 -155 -182c33 -81 57 -126 84 -178c41 -72 82 -120 150 -114zM504 627l-68 -305c140 5 213 62 213 168c0 98 -63 133 -145 137z" />
    <glyph glyph-name="S.swash" unicode="&#xe0b2;" horiz-adv-x="522" 
d="M500 514h-23c2 60 -31 106 -103 106c-73 0 -114 -58 -114 -120c0 -49 29 -89 107 -151c90 -71 110 -120 110 -169c0 -65 -36 -125 -100 -171c-48 -35 -106 -59 -173 -59c-115 0 -183 75 -183 159c0 44 23 82 44 100c9 6 17 3 16 -5c-2 -13 -3 -28 -3 -43
c0 -82 68 -155 175 -155c69 0 150 35 150 132c0 56 -42 103 -105 154c-74 61 -105 109 -105 170c0 52 24 108 83 153c47 36 98 50 138 50c68 0 112 -36 112 -81c0 -20 -14 -53 -26 -70z" />
    <glyph glyph-name="T.swash" unicode="&#xe0ba;" horiz-adv-x="674" 
d="M733 705l27 -7c-6 -25 -19 -61 -30 -74c-14 -17 -34 -22 -66 -22c-37 0 -73 3 -150 5l-93 -468c-20 -98 -16 -103 81 -112l-6 -27h-282l6 27c89 9 96 13 117 113l100 471c-31 3 -58 3 -92 3c-147 0 -203 -70 -200 -199c0 -21 1 -39 4 -53c0 -8 -1 -13 -8 -13
c-17 0 -60 31 -61 94c0 69 52 123 98 157c51 36 117 58 219 58c58 0 104 -3 158 -4c53 -2 87 -5 109 -5c31 0 48 9 69 56z" />
    <glyph glyph-name="U.swash" unicode="&#xe0c9;" horiz-adv-x="880" 
d="M891 664l7 -21c-36 -16 -50 -41 -66 -110c-31 -132 -60 -273 -88 -423c-9 -54 -4 -57 79 -61l-4 -26c-68 -8 -111 -19 -175 -38l-6 9l49 214l-3 2c-147 -187 -252 -225 -333 -225s-106 71 -78 182c44 182 83 306 111 409c11 39 1 47 -27 47c-125 0 -217 -97 -217 -235
c0 -19 1 -34 2 -46c1 -8 -2 -12 -11 -10c-23 6 -56 37 -56 94c0 46 19 95 66 140c55 54 150 99 274 99c64 0 72 -27 52 -91c-31 -103 -65 -223 -105 -387c-20 -83 -13 -137 45 -137c103 0 219 126 274 218c16 25 26 44 33 79l63 287c34 8 72 19 114 30z" />
    <glyph glyph-name="V.swash" unicode="&#xe0df;" horiz-adv-x="813" 
d="M451 -15h-23c-15 225 -30 541 -39 630c-135 -9 -239 -81 -239 -220c0 -21 1 -37 3 -53c2 -9 0 -14 -10 -13c-26 5 -63 44 -63 92c0 41 14 82 50 120c45 49 135 99 263 111c23 10 46 20 68 28h10c5 -183 20 -381 30 -568c57 66 148 193 199 277c51 82 74 146 74 191
c0 18 -2 35 -7 49c-2 7 -5 12 -1 21c8 22 31 47 47 47c21 0 38 -26 38 -69c-1 -87 -55 -173 -99 -238c-55 -81 -149 -209 -301 -405z" />
    <glyph glyph-name="W.swash" unicode="&#xe0e1;" horiz-adv-x="1083" 
d="M758 622h26c10 -114 30 -361 40 -502c50 68 93 134 139 213c64 109 95 186 95 247c0 18 -2 35 -7 49c-3 7 -5 12 -2 21c8 22 32 47 48 47c20 0 38 -27 37 -69c0 -86 -44 -161 -107 -263c-59 -96 -125 -198 -251 -381h-25c-5 123 -18 300 -33 483h-2
c-73 -129 -160 -276 -291 -483h-24c2 160 1 585 0 630c-160 -14 -251 -96 -251 -229c0 -20 2 -37 4 -51c2 -9 -1 -15 -12 -12c-24 6 -61 41 -61 92c0 41 12 85 53 128c43 46 134 95 274 110c23 8 46 17 68 25l9 -2c-1 -114 -5 -339 -5 -538h3c166 277 261 459 275 485z" />
    <glyph glyph-name="X.swash" unicode="&#xe0eb;" horiz-adv-x="680" 
d="M127 501l-17 22c71 94 143 142 181 142c47 0 69 -86 99 -199c4 -18 7 -28 10 -45c31 45 63 90 96 135c65 85 110 109 145 109c28 0 48 -20 47 -45c0 -19 -15 -39 -33 -48c-11 -4 -17 -1 -22 9c-6 11 -18 16 -29 16c-11 -1 -26 -7 -51 -33c-41 -40 -97 -118 -142 -186
c14 -57 35 -140 55 -214c28 -99 42 -111 55 -111c21 0 79 40 118 82l16 -22c-81 -106 -147 -128 -177 -128c-45 0 -67 71 -95 179c-12 48 -20 83 -32 126c-57 -92 -121 -186 -168 -239c-53 -57 -95 -70 -129 -70s-58 27 -58 55s17 48 32 58c9 5 15 2 17 -6
c9 -21 22 -34 43 -34c40 0 100 48 199 198c19 30 38 59 53 84c-7 36 -19 87 -38 154c-25 93 -39 108 -53 108c-16 0 -59 -28 -122 -97z" />
    <glyph glyph-name="Y.swash" unicode="&#xe0ed;" horiz-adv-x="660" 
d="M401 380h5c62 138 127 210 172 246c34 29 61 39 89 39c27 0 47 -21 47 -44s-17 -44 -38 -52c-12 -4 -17 0 -22 10c-7 12 -16 18 -32 17c-69 -1 -168 -176 -191 -243c-8 -23 -19 -54 -26 -91l-25 -135c-17 -87 -11 -91 82 -100l-6 -27h-279l5 27c93 8 100 13 117 100
l27 143c9 50 14 81 11 134c-5 131 -44 201 -116 202c-42 1 -85 -19 -127 -52l-13 23c64 57 131 88 182 88c132 0 146 -154 138 -285z" />
    <glyph glyph-name="Z.swash" unicode="&#xe0f7;" horiz-adv-x="602" 
d="M115 462l-24 14c40 82 102 188 152 188c42 0 98 -7 199 -23c47 -8 71 -10 89 -10c26 0 52 25 78 56c6 7 8 10 12 9c4 -9 20 -25 -10 -62c-128 -158 -350 -391 -481 -528v-2c28 3 68 -5 118 -22c78 -26 133 -45 171 -45c43 0 101 62 148 134l25 -15
c-82 -162 -139 -198 -178 -198c-49 0 -104 24 -213 68c-47 20 -66 28 -86 28c-32 0 -56 -29 -72 -58c-4 -8 -9 -10 -14 -10c-7 0 -14 10 -14 24c1 27 33 67 63 98c205 216 323 342 442 476c-25 -7 -50 -7 -94 -4c-59 5 -115 14 -159 14c-48 0 -87 -35 -152 -132z" />
    <glyph glyph-name="Dcroat.swash" unicode="&#xe029;" horiz-adv-x="896" 
d="M387 357l63 271c-199 -11 -302 -117 -302 -263c0 -19 1 -38 4 -54c1 -8 -1 -14 -10 -12c-28 8 -65 45 -65 99s21 108 81 159c67 59 188 108 370 108c116 0 214 -29 273 -80c56 -49 82 -123 82 -202c0 -133 -64 -242 -168 -311c-81 -54 -185 -72 -289 -72h-206l7 27
c80 6 87 11 110 115l41 177h-109l11 38h107zM460 319l-45 -207c-10 -44 -8 -63 11 -69c16 -4 33 -7 57 -7c187 0 307 153 308 346c0 165 -95 242 -265 247l-58 -272h157l-9 -38h-156z" />
    <glyph glyph-name="Hbar.swash" unicode="&#xe053;" horiz-adv-x="840" 
d="M448 475h245c29 100 61 155 99 199c45 54 80 72 101 72c14 0 28 -12 28 -27c0 -10 -6 -30 -19 -45c-7 -9 -14 -10 -22 -7c-12 7 -22 10 -31 10c-10 0 -21 -7 -31 -26c-22 -39 -40 -102 -56 -176h88l-13 -37h-83c-14 -62 -25 -120 -32 -162c-15 -78 -25 -142 -32 -189
c-4 -30 2 -39 40 -43l46 -5l-10 -26c-75 -7 -154 -22 -202 -31l5 28c21 11 27 22 34 52c10 49 33 172 46 227c-37 -11 -95 -15 -246 -15c-42 -172 -104 -259 -188 -320c-52 -38 -92 -48 -123 -48c-28 0 -45 15 -55 29c-11 16 -21 49 -21 67l12 9c28 -25 78 -39 110 -39
c40 0 69 16 93 45c43 52 72 155 105 312c9 43 17 82 24 109h-87l13 37h83c17 79 28 120 38 137c-153 -4 -251 -81 -252 -230c0 -22 2 -37 4 -50c1 -9 -3 -13 -12 -11c-25 7 -63 40 -63 98c1 63 42 121 91 157c54 40 141 70 245 72c16 10 41 24 68 32l6 -4
c-8 -18 -27 -103 -46 -201zM683 438h-242c-9 -42 -17 -82 -24 -117h238c9 46 18 84 28 117z" />
    <glyph glyph-name="Oslash.swash" unicode="&#xe09e;" horiz-adv-x="642" 
d="M595 693l27 -21l-55 -76c41 -47 66 -117 65 -200c-1 -232 -152 -411 -339 -411c-52 0 -98 17 -134 47l-56 -78l-26 24l56 78c-42 47 -66 117 -66 202c0 217 158 407 345 407c49 0 92 -14 130 -45zM181 120l326 452c-24 39 -58 58 -105 58c-139 0 -244 -200 -244 -380
c0 -48 7 -94 23 -130zM523 535l-326 -451c21 -39 58 -65 107 -65c134 0 239 200 239 391c0 49 -6 92 -20 125z" />
    <glyph glyph-name="Tbar.swash" unicode="&#xe0c2;" horiz-adv-x="674" 
d="M733 705l27 -6c-6 -26 -19 -62 -30 -76c-14 -16 -34 -21 -66 -21c-37 0 -73 3 -150 5l-51 -257h112l-12 -37h-108l-34 -174c-20 -100 -13 -103 81 -112l-6 -27h-282l6 27c90 9 96 12 117 113l37 173h-103l12 37h99l55 261c-31 3 -59 3 -93 3c-147 0 -201 -73 -199 -198
c0 -22 1 -40 4 -54c0 -8 -1 -13 -8 -13c-18 0 -60 31 -61 95c0 68 50 122 97 156c50 35 118 58 220 58c58 0 105 -2 158 -4s88 -5 109 -5c32 0 48 9 69 56z" />
    <glyph glyph-name="Eng.swash" unicode="&#xe03d;" horiz-adv-x="870" 
d="M954 657l-7 -26c-74 -14 -86 -28 -101 -76c-10 -31 -23 -79 -41 -171l-63 -314c-19 -95 -35 -168 -68 -219c-30 -48 -68 -67 -101 -67c-24 0 -43 14 -43 32c0 20 20 46 32 46s22 -8 38 -8c33 0 68 45 89 151c-54 146 -152 354 -242 481h-2c-44 -272 -104 -391 -163 -458
c-48 -55 -105 -79 -152 -79c-26 0 -45 9 -57 21c-17 17 -29 52 -32 75c3 4 6 7 9 8c15 -10 48 -27 89 -27c43 0 106 25 161 122c57 101 101 273 114 373c-41 56 -93 97 -156 97c-73 0 -122 -49 -121 -171c0 -19 1 -34 3 -48c1 -8 -3 -11 -13 -8c-26 7 -53 44 -52 80
c-1 30 11 72 50 112c53 56 115 82 182 82c113 0 197 -103 276 -246c62 -111 96 -186 133 -276h2l46 241c17 92 22 136 25 171c5 49 -10 59 -92 63l8 27z" />
    <glyph glyph-name="Eth.swash" unicode="&#xe041;" horiz-adv-x="896" 
d="M387 357l63 271c-199 -11 -302 -117 -302 -263c0 -19 1 -38 4 -54c1 -8 -1 -14 -10 -12c-28 8 -65 45 -65 99s21 108 81 159c67 59 188 108 370 108c116 0 214 -29 273 -80c56 -49 82 -123 82 -202c0 -133 -64 -242 -168 -311c-81 -54 -185 -72 -289 -72h-206l7 27
c80 6 87 11 110 115l41 177h-109l11 38h107zM460 319l-45 -207c-10 -44 -8 -63 11 -69c16 -4 33 -7 57 -7c187 0 307 153 308 346c0 165 -95 242 -265 247l-58 -272h157l-9 -38h-156z" />
    <glyph glyph-name="uni25B7" unicode="&#x25b7;" horiz-adv-x="606" 
d="M130 405l1 -296l311 151zM75 25l1 466h1l486 -230v-2l-486 -235z" />
    <glyph glyph-name="T_h.swash" unicode="&#xe0c0;" horiz-adv-x="1097" 
d="M1049 108l12 -24c-54 -60 -116 -96 -144 -96c-26 0 -32 28 -16 96l53 235c12 51 9 69 -8 69c-42 0 -152 -110 -202 -193c-11 -43 -31 -135 -40 -188c-21 -4 -52 -11 -72 -17l-6 7c42 193 90 408 130 617c-27 -7 -54 -10 -79 -10c-48 0 -87 3 -161 7l-99 -467
c-23 -106 -14 -109 80 -117l-6 -27h-282l6 27c90 8 96 11 120 117l105 473c-34 2 -72 5 -114 4c-123 1 -182 -64 -180 -172c1 -39 9 -74 16 -91c4 -9 4 -15 -6 -15c-19 0 -76 30 -75 107c0 72 53 126 97 157c49 35 126 58 219 58c55 0 108 -3 159 -6s94 -7 163 -7
c57 0 90 26 106 56h27c-34 -144 -64 -288 -97 -444h2c72 92 142 144 182 165c23 13 48 20 64 20c28 0 51 -18 30 -110l-56 -240c-6 -29 -4 -36 2 -37c10 0 40 19 70 46z" />
    <glyph glyph-name="zero.oldstyle" unicode="&#xf730;" horiz-adv-x="484" 
d="M205 -12c-125 0 -169 124 -145 241c24 111 113 224 232 224c124 0 172 -110 146 -244c-21 -106 -109 -221 -233 -221zM211 22c78 0 126 114 141 194c15 77 16 204 -66 204c-79 0 -126 -118 -141 -196c-15 -75 -17 -202 66 -202z" />
    <glyph glyph-name="one.oldstyle" unicode="&#xf731;" horiz-adv-x="337" 
d="M283 26l-6 -26h-261l5 26l52 7c33 5 41 11 51 61l45 237c9 46 4 52 -30 54l-58 4l4 23c69 11 127 24 184 41l-69 -359c-9 -50 -5 -57 28 -61z" />
    <glyph glyph-name="two.oldstyle" unicode="&#xf732;" horiz-adv-x="429" 
d="M392 115l-41 -115h-348l4 23c116 76 285 177 285 285c0 51 -29 82 -80 82c-55 0 -99 -55 -123 -82l-21 22l60 73c39 35 77 50 122 50c66 0 127 -43 127 -127c0 -52 -28 -92 -74 -131c-40 -35 -93 -74 -171 -128v-2h147c47 0 59 11 75 37l11 19z" />
    <glyph glyph-name="three.oldstyle" unicode="&#xf733;" horiz-adv-x="397" 
d="M62 347l49 61c29 28 67 45 109 45c64 0 115 -40 115 -111c0 -68 -54 -98 -108 -133v-2c58 -14 105 -59 105 -131c0 -92 -68 -155 -141 -197c-56 -31 -106 -42 -134 -42c-40 0 -70 17 -84 33c-10 12 -11 24 -5 36c5 11 14 21 23 28c9 6 17 5 24 -2c19 -18 53 -42 99 -42
c82 0 133 71 133 155c0 77 -43 108 -101 108c-18 0 -39 -3 -56 -10l-7 28c72 26 175 64 175 153c0 48 -32 73 -71 73c-47 0 -84 -42 -105 -70z" />
    <glyph glyph-name="four.oldstyle" unicode="&#xf734;" horiz-adv-x="478" 
d="M437 93l-18 -51h-84l-39 -200h-76l39 200h-255l7 35c117 128 243 259 365 376h37l-69 -360h93zM324 356h-2c-85 -85 -161 -170 -246 -263h192z" />
    <glyph glyph-name="five.oldstyle" unicode="&#xf735;" horiz-adv-x="390" 
d="M368 453l-28 -74l-188 -18l-38 -112c97 -17 208 -56 209 -179c0 -83 -56 -151 -136 -193c-54 -30 -95 -40 -126 -40c-35 0 -67 18 -81 33c-12 12 -14 24 -9 36c4 10 14 21 24 28c7 5 14 5 23 -3c20 -18 50 -41 97 -41c71 0 128 60 128 145c-1 110 -99 135 -186 146
l75 249z" />
    <glyph glyph-name="six.oldstyle" unicode="&#xf736;" horiz-adv-x="483" 
d="M498 606l4 -30c-135 -28 -268 -120 -324 -235h2c58 27 94 41 113 41c84 0 143 -65 143 -164c0 -132 -106 -230 -217 -230c-100 0 -163 75 -163 192c0 109 56 227 161 308c82 64 186 104 281 118zM245 329c-23 0 -49 -8 -79 -24c-13 -29 -25 -79 -25 -136
c0 -65 24 -146 98 -146c75 0 114 88 114 168c0 81 -31 138 -108 138z" />
    <glyph glyph-name="seven.oldstyle" unicode="&#xf737;" horiz-adv-x="424" 
d="M451 441l7 -12c-55 -84 -216 -320 -397 -579l-78 -14l-7 15c154 176 273 330 400 518h-308l14 72h369z" />
    <glyph glyph-name="eight.oldstyle" unicode="&#xf738;" horiz-adv-x="464" 
d="M303 606c71 0 135 -44 135 -130c0 -34 -20 -68 -46 -90c-16 -13 -37 -29 -81 -60c59 -42 101 -81 101 -156c0 -96 -99 -182 -215 -182c-84 0 -157 53 -157 142c0 42 17 73 54 107c22 19 64 47 103 73c-39 31 -77 69 -77 133c0 91 83 163 183 163zM282 574
c-45 0 -90 -37 -90 -104c0 -65 52 -100 93 -127c48 34 81 79 81 132c0 62 -38 99 -84 99zM220 22c61 0 112 49 112 122c1 69 -47 106 -110 147c-62 -39 -104 -94 -104 -154c0 -70 44 -115 102 -115z" />
    <glyph glyph-name="nine.oldstyle" unicode="&#xf739;" horiz-adv-x="471" 
d="M271 453c102 0 159 -82 159 -195c0 -180 -127 -326 -304 -391c-38 -14 -102 -30 -128 -31l-5 28c92 22 245 90 320 242l-1 2c-60 -28 -91 -37 -112 -37c-73 0 -140 61 -140 159c0 114 95 223 211 223zM257 420c-73 0 -113 -93 -113 -168c0 -79 38 -130 107 -130
c27 0 55 11 74 24c12 29 21 78 21 124c0 72 -22 150 -89 150z" />
    <glyph glyph-name="dollar.oldstyle" unicode="&#xf724;" horiz-adv-x="455" 
d="M400 319l-27 -6c-7 51 -24 100 -86 111l-31 -161l18 -8c66 -28 115 -60 115 -126c0 -97 -96 -137 -185 -140l-14 -73h-33l14 74c-63 3 -114 31 -130 41c-2 17 -6 64 -4 120l27 4c10 -60 42 -122 113 -134l34 176l-16 8c-57 25 -105 55 -105 116c0 92 84 134 171 135
l13 63h32l-12 -64c22 -1 49 -8 69 -15c16 -6 26 -10 36 -13c0 -28 3 -68 1 -108zM226 273l29 152c-47 0 -96 -26 -96 -75c0 -39 26 -59 67 -77zM241 187l-32 -167c44 0 105 23 105 79c0 41 -19 63 -73 88z" />
    <glyph glyph-name="cent.oldstyle" unicode="&#xf7a2;" horiz-adv-x="462" 
d="M342 508l-14 -72c40 -1 73 -9 94 -24c7 -7 11 -14 11 -24c0 -19 -20 -39 -36 -40c-5 1 -10 3 -15 9c-21 24 -38 39 -61 42l-62 -320c39 -1 80 12 128 50l14 -22c-47 -51 -102 -77 -150 -81l-17 -88h-34l17 88c-86 8 -155 68 -155 168c0 141 119 224 232 239l15 75h33z
M227 84l61 317c-103 -8 -144 -103 -144 -185c0 -72 34 -117 83 -132z" />
    <glyph glyph-name="Euro.oldstyle" unicode="&#xe043;" horiz-adv-x="539" 
d="M66 338h52c42 127 149 203 280 203c59 0 103 -14 126 -24c-2 -41 -5 -87 -7 -117l-26 -2c-7 77 -34 110 -103 110c-86 0 -153 -70 -184 -170h232l-11 -35h-228c-5 -19 -8 -42 -9 -62h220l-10 -35h-211c2 -107 43 -183 129 -183c66 0 103 45 145 103l23 -12
c-11 -27 -41 -85 -60 -108c-26 -7 -67 -18 -115 -18c-130 0 -204 88 -210 218h-64l8 35h57c1 21 4 45 9 62h-51z" />
    <glyph glyph-name="florin.oldstyle" unicode="&#xe119;" horiz-adv-x="432" 
d="M178 305l9 38c18 73 48 123 96 165c49 42 84 49 107 49c24 0 53 -15 52 -36c0 -24 -27 -47 -39 -46c-16 8 -41 32 -63 32c-12 0 -22 -7 -31 -22c-13 -20 -27 -71 -46 -180h107l-11 -35h-104l-26 -130c-25 -119 -64 -197 -134 -248c-38 -28 -63 -35 -85 -35
c-26 0 -53 21 -53 38c1 16 28 47 39 47c9 0 36 -32 62 -32c15 0 26 10 33 21c17 24 33 91 49 177l31 162h-81l11 35h77z" />
    <glyph glyph-name="sterling.oldstyle" unicode="&#xe157;" horiz-adv-x="484" 
d="M63 283h69c8 92 33 166 111 219c33 24 72 40 103 40c45 0 73 -24 82 -40c5 -10 3 -22 -1 -30c-5 -7 -13 -15 -23 -21c-8 -6 -17 -6 -24 1c-21 25 -47 40 -81 40c-46 0 -67 -38 -73 -85c-4 -33 -6 -80 -8 -124h149l-8 -36h-144c-13 -70 -45 -117 -107 -160
c32 3 67 -4 111 -24c31 -15 68 -31 102 -31c32 0 51 19 52 41c1 11 0 23 -2 31c-2 5 0 12 5 18c11 15 27 26 38 26s18 -15 18 -33c0 -38 -37 -82 -79 -110c-26 -17 -55 -30 -90 -30c-36 0 -79 23 -118 45c-26 15 -46 22 -66 22c-14 0 -28 -11 -42 -36c-5 -9 -12 -12 -18 -12
c-11 1 -23 18 -4 42c10 14 32 36 50 52c47 43 59 98 65 159h-75z" />
    <glyph glyph-name="yen.oldstyle" unicode="&#xe17d;" horiz-adv-x="482" 
d="M515 533l-5 -27c-45 -6 -59 -11 -91 -53c-25 -32 -60 -84 -120 -168h104l-8 -34h-111l-12 -65h113l-8 -34h-112l-11 -62c-10 -51 -6 -59 67 -63l-5 -27h-228l6 27c67 4 72 9 83 63l13 62h-108l8 34h107l12 65h-108l8 34h98c-12 47 -31 102 -53 167c-15 46 -28 49 -71 54
l6 27h191l-5 -28l-26 -4c-25 -4 -28 -7 -23 -27c10 -39 34 -118 48 -171c31 44 86 127 107 162c14 23 14 32 -9 36l-31 4l6 28h168z" />
    <glyph glyph-name="colonmonetary.oldstyle" unicode="&#xe105;" horiz-adv-x="525" 
d="M509 598l-24 -64c26 -6 48 -12 62 -15c-3 -44 -6 -81 -12 -122l-26 -2c0 51 -13 82 -37 99l-178 -472h9c68 1 116 41 166 117l24 -14c-14 -31 -44 -88 -63 -112c-24 -7 -79 -23 -137 -23c-4 0 -9 0 -13 1l-22 -60h-32l23 62c-20 2 -36 6 -52 12l-28 -74h-33l33 86
c-67 35 -102 108 -102 195c0 179 136 307 301 326l23 60h32l-22 -59c8 2 15 2 22 2c11 -1 22 -2 33 -2l22 59h31zM262 25l182 478c-14 4 -27 6 -40 6c-5 0 -11 0 -14 -1l-177 -463c13 -9 28 -16 49 -20zM187 67l169 438c-118 -21 -200 -158 -200 -306c0 -54 9 -101 31 -132z
" />
    <glyph glyph-name="franc.oldstyle" unicode="&#xe11b;" horiz-adv-x="474" 
d="M122 529h363c-5 -28 -12 -83 -16 -128l-27 -2c-2 35 -6 57 -15 72c-10 17 -26 24 -86 24h-49c-24 0 -28 -3 -32 -25l-33 -171c74 0 139 2 195 8l-10 -52c-54 5 -120 6 -192 7l-18 -94h150l-7 -34h-150l-6 -30c-14 -68 -6 -73 70 -78l-5 -26h-231l5 26c65 5 71 11 86 78
l6 30h-82l6 34h82l50 255c12 66 7 75 -59 80z" />
    <glyph glyph-name="lira.oldstyle" unicode="&#xe121;" horiz-adv-x="481" 
d="M352 195h-150c-15 -36 -47 -76 -89 -107c37 4 69 -2 112 -23c36 -18 69 -33 99 -33c31 0 47 20 48 44c1 9 1 19 -1 26c-2 5 1 12 5 18c13 16 29 26 40 26c12 0 17 -15 17 -30c-2 -40 -36 -86 -80 -113c-29 -18 -61 -29 -90 -29c-34 0 -74 24 -114 48
c-27 14 -43 23 -60 23c-16 0 -30 -13 -46 -40c-5 -8 -11 -11 -17 -11c-10 1 -24 18 -4 45c11 15 29 33 46 50c32 31 47 72 54 107h-82l9 34h78c2 14 5 35 5 56h-78l9 34h72c6 77 39 136 103 182c34 25 76 40 107 40c39 0 72 -20 80 -36c6 -12 3 -24 -1 -32
c-5 -7 -12 -15 -21 -22c-9 -6 -18 -5 -26 2c-20 22 -45 41 -77 41c-53 0 -72 -49 -78 -91c-4 -30 -5 -68 -4 -84h159l-9 -34h-152c0 -26 -3 -44 -5 -56h150z" />
    <glyph glyph-name="numbersign.oldstyle" unicode="&#xe12e;" horiz-adv-x="481" 
d="M467 366l-14 -59h-93l-40 -135h87l-14 -60h-91l-52 -173h-38l51 173h-108l-52 -173h-39l53 173h-98l15 60h102l39 135h-95l14 59h100l46 153h38l-46 -153h107l46 153h39l-45 -153h88zM322 307h-108l-39 -135h107z" />
    <glyph glyph-name="percent.oldstyle" unicode="&#xf642;" horiz-adv-x="702" 
d="M589 531l-420 -556l-27 26l421 554zM348 416c0 -81 -61 -185 -160 -185c-73 0 -105 55 -105 121c0 82 60 187 161 187c74 0 104 -56 104 -123zM280 444c0 35 -7 68 -40 68c-63 0 -89 -127 -89 -180c0 -33 7 -74 40 -74c65 0 89 135 89 186zM648 173
c0 -84 -61 -185 -160 -185c-73 0 -105 55 -105 121c0 81 61 187 161 187c74 0 104 -55 104 -123zM581 201c0 34 -7 68 -41 68c-62 0 -89 -126 -89 -181c0 -33 7 -73 41 -73c66 0 89 137 89 186z" />
    <glyph glyph-name="perthousand.oldstyle" unicode="&#xf628;" horiz-adv-x="990" 
d="M589 531l-420 -556l-27 26l420 554zM348 416c0 -81 -61 -185 -160 -185c-73 0 -105 55 -105 121c0 82 61 187 161 187c74 0 104 -56 104 -123zM280 444c0 36 -7 68 -40 68c-63 0 -89 -127 -89 -180c0 -33 6 -74 40 -74c64 0 89 136 89 186zM648 173
c0 -84 -61 -185 -160 -185c-73 0 -105 55 -105 121c0 81 61 187 161 187c74 0 104 -55 104 -123zM941 173c0 -84 -61 -185 -160 -185c-72 0 -104 55 -104 121c-1 81 60 187 160 187c75 0 104 -55 104 -123zM581 201c0 35 -8 68 -41 68c-62 0 -89 -126 -89 -181
c0 -33 6 -73 40 -73c66 0 90 137 90 186zM874 201c0 35 -7 68 -41 68c-62 0 -89 -126 -89 -181c0 -33 7 -73 41 -73c66 0 89 137 89 186z" />
    <glyph glyph-name="estimated.oldstyle" unicode="&#xe10b;" horiz-adv-x="703" 
d="M669 257h-496c-2 0 -4 -1 -4 -3v-150c0 -6 3 -13 7 -17c47 -50 114 -81 188 -81c79 0 149 35 197 91h44c-55 -65 -143 -108 -242 -108c-169 0 -306 123 -306 276c0 152 137 275 306 275s306 -123 306 -275v-8zM557 277v150c0 8 -3 14 -8 19c-47 47 -113 78 -185 78
c-73 0 -140 -32 -187 -81c-5 -5 -8 -11 -8 -19v-147c0 -2 2 -4 4 -4h381c2 0 3 2 3 4z" />
    <glyph glyph-name="zero.fitted" unicode="&#xf639;" horiz-adv-x="489" 
d="M325 635c119 0 155 -114 153 -226c-3 -160 -86 -421 -268 -421c-117 0 -156 112 -154 233c2 157 91 414 269 414zM320 602c-123 0 -178 -264 -180 -407c-2 -88 12 -174 77 -174c121 0 174 291 177 418c3 77 -9 163 -74 163z" />
    <glyph glyph-name="one.fitted" unicode="&#xf6dc;" horiz-adv-x="336" 
d="M303 635l-98 -507c-17 -88 -9 -93 80 -102l-6 -26h-268l6 26c87 9 93 14 110 102l71 362c12 60 7 65 -47 67l-40 1l5 25c65 9 129 26 187 52z" />
    <glyph glyph-name="two.fitted" unicode="&#xf63a;" horiz-adv-x="467" 
d="M110 501l64 80c36 33 80 54 130 54c96 0 156 -60 156 -156c0 -102 -77 -172 -189 -268l-159 -139h178c56 0 73 6 113 63l24 -12c-21 -42 -38 -82 -56 -123h-370l1 21c64 54 133 113 200 177c98 95 173 179 173 266c0 59 -30 107 -106 107c-63 0 -108 -53 -138 -91z" />
    <glyph glyph-name="three.fitted" unicode="&#xf63b;" horiz-adv-x="462" 
d="M117 522l48 60c28 28 71 53 128 53c86 0 131 -58 131 -121c0 -42 -22 -72 -47 -92c-21 -17 -43 -32 -75 -52l-1 -2c71 -19 118 -70 117 -143c0 -64 -36 -124 -109 -175c-60 -43 -133 -62 -177 -62c-37 0 -77 16 -96 35c-16 15 -22 28 -19 41c1 11 12 25 26 34
c8 5 13 6 21 -1c27 -28 63 -59 121 -59c79 0 145 51 146 163c0 81 -55 119 -115 119c-24 0 -47 -6 -60 -9l-5 27c115 32 190 79 190 156c0 52 -31 84 -84 84c-54 0 -92 -42 -120 -77z" />
    <glyph glyph-name="four.fitted" unicode="&#xf63c;" horiz-adv-x="487" 
d="M463 222l-8 -43h-96l-11 -66c-14 -74 -9 -80 69 -87l-6 -26h-254l6 26c88 7 92 12 107 87l13 66h-259l7 27c114 141 249 299 372 423h44l-79 -407h95zM356 533h-2c-93 -101 -179 -205 -260 -311h197z" />
    <glyph glyph-name="five.fitted" unicode="&#xf63d;" horiz-adv-x="460" 
d="M459 623l-29 -72h-231l-55 -184c50 16 82 24 103 24c114 0 172 -78 172 -159c0 -76 -46 -146 -126 -195c-50 -32 -109 -49 -153 -49c-47 0 -91 21 -108 40c-13 13 -18 24 -16 37c2 12 14 27 27 35c8 5 14 5 21 -3c24 -26 66 -59 128 -59c81 0 141 55 141 163
c0 79 -40 138 -140 138c-39 0 -78 -12 -91 -17l-7 9l82 292h282z" />
    <glyph glyph-name="six.fitted" unicode="&#xf63e;" horiz-adv-x="489" 
d="M502 641l6 -31c-31 -5 -70 -16 -111 -33c-74 -30 -176 -92 -230 -225l2 -2l64 31c20 9 45 18 62 18c97 -1 157 -72 157 -172c0 -136 -106 -239 -222 -239c-110 0 -178 87 -178 208c0 202 137 356 324 416c46 14 87 22 126 29zM253 346c-36 0 -75 -19 -97 -34
c-9 -24 -18 -61 -18 -117c0 -90 31 -174 106 -174c74 0 124 83 124 190c0 61 -23 135 -115 135z" />
    <glyph glyph-name="seven.fitted" unicode="&#xf63f;" horiz-adv-x="465" 
d="M510 623l8 -12c-124 -203 -257 -409 -383 -613l-79 -10l-7 12c148 184 281 371 390 551h-210c-62 0 -73 -9 -109 -77l-27 8c18 45 31 95 43 141h374z" />
    <glyph glyph-name="eight.fitted" unicode="&#xf640;" horiz-adv-x="477" 
d="M309 635c75 0 148 -51 148 -137c0 -35 -17 -72 -45 -95c-14 -11 -37 -30 -92 -66c63 -46 111 -89 111 -161c0 -102 -98 -188 -219 -188c-92 0 -176 54 -176 155c0 43 18 75 55 106c25 21 70 50 110 76c-41 33 -82 75 -82 140c0 93 86 170 190 170zM295 602
c-61 0 -101 -51 -101 -109c0 -73 57 -107 99 -137c57 37 88 85 88 143c0 62 -35 103 -86 103zM226 21c69 0 121 51 121 131c0 67 -51 106 -118 153c-65 -39 -110 -91 -110 -162c0 -70 40 -122 107 -122z" />
    <glyph glyph-name="nine.fitted" unicode="&#xf641;" horiz-adv-x="482" 
d="M307 635c122 0 171 -108 171 -207c0 -205 -140 -355 -301 -414c-51 -18 -109 -29 -131 -29l-5 29c132 24 269 118 327 275l-73 -35c-21 -10 -41 -14 -57 -14c-81 0 -149 68 -149 167c0 123 103 228 218 228zM295 602c-70 0 -121 -79 -121 -172c0 -78 38 -134 114 -134
c28 0 68 13 89 29c10 28 17 68 17 118c0 45 -7 159 -99 159z" />
    <glyph glyph-name="zero.slashfitted" unicode="&#xe307;" horiz-adv-x="489" 
d="M140 122l246 425c-11 33 -30 56 -67 56c-123 0 -182 -258 -184 -408c0 -25 1 -53 5 -73zM397 502l-247 -425c13 -35 31 -57 66 -57c122 0 180 279 183 411c0 27 -1 53 -2 71zM325 635c119 0 155 -114 153 -226c-3 -159 -86 -421 -268 -421c-117 0 -156 112 -154 233
c2 157 91 414 269 414z" />
    <glyph glyph-name="dollar.fitted" unicode="&#xe107;" horiz-adv-x="477" 
d="M458 453l-29 -3c-3 60 -20 120 -90 136l-44 -229l22 -14c63 -40 113 -84 113 -161c0 -111 -97 -174 -203 -179l-17 -84h-35l17 84c-79 5 -134 40 -151 60c0 17 0 69 -2 137l28 3c10 -66 42 -155 132 -165l47 251l-21 14c-62 37 -111 83 -110 152c0 105 92 164 195 165
l15 76h36l-15 -77c41 -2 85 -22 118 -38c-3 -36 -4 -74 -6 -128zM263 375l41 213c-82 -1 -117 -55 -117 -106c0 -45 26 -76 76 -107zM278 272l-44 -235c77 6 116 57 116 118c0 52 -22 81 -72 117z" />
    <glyph glyph-name="cent.fitted" unicode="&#xe103;" horiz-adv-x="477" 
d="M369 620l-16 -80c52 0 87 -17 104 -32c9 -7 13 -16 13 -26c0 -20 -22 -40 -36 -40c-6 0 -11 2 -16 9c-20 25 -43 41 -74 45l-66 -346c5 0 9 -1 13 -1c38 0 82 12 131 53l15 -22c-53 -56 -116 -84 -170 -88l-19 -97h-35l19 98c-87 7 -160 71 -160 183
c0 137 118 244 245 262l16 82h36zM243 156l66 343c-102 -3 -155 -94 -155 -200c0 -83 42 -131 89 -143z" />
    <glyph glyph-name="Euro.fitted" unicode="&#xe042;" horiz-adv-x="578" 
d="M51 392h55c49 158 180 242 324 242c66 0 116 -16 143 -27c-2 -49 -6 -97 -10 -132l-28 -3c-5 94 -43 130 -119 130c-97 0 -184 -73 -221 -210h282l-10 -35h-282c-5 -18 -9 -50 -10 -71h277l-11 -34h-267c-3 -129 48 -228 150 -228c79 0 125 49 173 118l23 -14
c-14 -29 -44 -92 -66 -119c-28 -9 -83 -21 -137 -21c-138 0 -231 103 -232 264h-68l10 34h58c1 19 6 54 11 71h-55z" />
    <glyph glyph-name="florin.fitted" unicode="&#xe118;" horiz-adv-x="477" 
d="M206 370l11 53c17 75 48 131 99 174c53 45 90 55 117 55c28 0 57 -21 57 -42c0 -14 -10 -29 -21 -37c-8 -7 -15 -5 -21 0c-14 12 -37 29 -65 29c-20 0 -32 -11 -43 -27c-13 -18 -26 -52 -52 -205h121l-10 -36h-118l-36 -191c-29 -152 -78 -209 -125 -243
c-43 -32 -68 -38 -90 -38c-28 0 -54 22 -54 40c0 15 11 29 23 40c6 5 12 6 19 0c15 -13 38 -27 61 -27c19 0 34 14 44 37c10 27 23 71 39 172l36 210h-97l10 36h95z" />
    <glyph glyph-name="sterling.fitted" unicode="&#xe156;" horiz-adv-x="485" 
d="M383 296h-166c-13 -95 -55 -149 -115 -197c32 1 67 -11 107 -30c36 -17 81 -34 119 -34c39 0 59 16 63 44c2 12 0 25 -2 33c-2 7 0 15 6 23c14 15 28 25 39 25c14 0 21 -21 16 -46c-7 -39 -41 -84 -82 -110c-28 -17 -62 -31 -96 -31c-44 0 -91 29 -135 53
c-30 17 -48 24 -65 24c-12 0 -29 -8 -49 -42c-4 -8 -9 -12 -14 -12c-10 4 -27 18 -5 46c11 16 36 40 57 59c53 50 68 124 71 195h-89l8 36h82c1 27 3 56 7 82c10 68 41 129 105 178c35 26 80 44 109 44c46 0 83 -26 92 -42c5 -11 6 -20 0 -30c-5 -8 -14 -16 -21 -22
c-8 -5 -18 -5 -26 4c-21 21 -46 40 -84 40c-49 0 -78 -33 -88 -99c-7 -44 -7 -101 -8 -155h171z" />
    <glyph glyph-name="yen.fitted" unicode="&#xe17c;" horiz-adv-x="477" 
d="M547 623l-6 -26c-50 -6 -65 -15 -103 -67c-26 -36 -72 -103 -135 -199h109l-8 -35h-117l-15 -72h120l-8 -35h-119l-15 -88c-13 -65 -6 -66 70 -74l-6 -27h-238l6 27c73 5 79 10 92 74l17 88h-114l8 35h112l14 72h-113l7 35h104c-13 61 -36 149 -54 215
c-11 39 -23 47 -72 51l6 26h202l-6 -26l-30 -4c-24 -4 -31 -10 -25 -37c12 -59 31 -136 46 -207c36 56 101 155 128 202c16 30 11 39 -19 43l-27 3l6 26h183z" />
    <glyph glyph-name="colonmonetary.fitted" unicode="&#xe104;" horiz-adv-x="576" 
d="M551 689l-26 -73c35 -6 58 -13 72 -16c-3 -50 -7 -92 -12 -136l-28 -3c-2 59 -16 96 -48 113l-201 -540c5 -1 8 -1 12 -1c82 1 135 48 193 128l24 -13c-18 -36 -47 -92 -69 -122c-25 -7 -88 -26 -156 -26c-5 0 -12 0 -17 1l-26 -68h-32l27 71c-23 2 -41 7 -60 15l-33 -86
h-31l37 98c-73 38 -117 116 -117 219c0 208 152 350 339 371l26 68h30l-24 -66c10 1 18 1 26 1c13 0 25 -1 38 -3l25 68h31zM278 37l204 548c-16 4 -31 5 -47 5c-6 0 -12 0 -16 -1l-199 -527c16 -12 34 -21 58 -25zM197 83l189 502c-144 -24 -236 -171 -236 -338
c0 -69 15 -124 47 -164z" />
    <glyph glyph-name="franc.fitted" unicode="&#xe11a;" horiz-adv-x="482" 
d="M118 623h397c-6 -33 -13 -96 -18 -141l-28 -3c-2 38 -4 61 -13 81c-11 23 -26 29 -89 29h-65c-27 0 -31 -4 -36 -31l-42 -213c82 0 152 2 215 8l-10 -54c-63 6 -133 7 -212 8l-22 -116h161l-7 -35h-161l-7 -37c-16 -80 -8 -87 80 -93l-5 -26h-252l5 26c71 6 79 12 95 93
l7 37h-83l7 35h83l60 310c15 80 9 90 -65 96z" />
    <glyph glyph-name="lira.fitted" unicode="&#xe120;" horiz-adv-x="486" 
d="M383 243h-164c-17 -55 -52 -102 -106 -145c27 1 67 -9 103 -27c37 -18 82 -38 120 -38c35 0 62 19 61 52c0 8 -1 18 -3 27c-2 7 0 15 7 22c12 15 28 25 39 25c12 0 18 -18 18 -35c1 -49 -40 -92 -84 -119c-29 -19 -64 -32 -98 -32c-42 0 -82 28 -127 54
c-30 17 -48 25 -64 25c-17 0 -35 -10 -55 -45c-4 -9 -10 -13 -16 -12c-9 4 -27 19 -3 47c12 16 36 39 59 59c41 37 59 90 67 142h-93l8 34h90c2 22 2 43 5 67h-83l7 34h79c8 92 41 160 114 214c35 27 74 43 108 43c46 0 77 -26 85 -41c6 -10 7 -21 0 -32
c-5 -8 -13 -14 -21 -20c-7 -6 -17 -5 -24 3c-22 23 -47 39 -82 39c-48 0 -75 -32 -87 -97c-6 -35 -7 -72 -8 -109h174l-7 -34h-168c-1 -23 -2 -46 -6 -67h162z" />
    <glyph glyph-name="numbersign.fitted" unicode="&#xe12d;" horiz-adv-x="475" 
d="M491 455l-12 -59h-97l-41 -139h89l-12 -58h-94l-52 -178h-39l50 178h-110l-51 -178h-41l52 178h-102l13 58h106l41 139h-99l13 59h103l46 157h40l-46 -157h110l46 157h40l-46 -157h93zM341 396h-110l-40 -139h110z" />
    <glyph glyph-name="zero.taboldstyle" unicode="&#xf643;" horiz-adv-x="467" 
d="M198 -12c-123 0 -169 121 -144 241c24 111 111 224 228 224c122 0 170 -110 145 -244c-21 -106 -108 -221 -229 -221zM204 22c76 0 121 114 137 194c16 82 15 203 -64 203c-76 0 -122 -113 -139 -195c-15 -78 -14 -202 66 -202z" />
    <glyph glyph-name="one.taboldstyle" unicode="&#xf644;" horiz-adv-x="467" 
d="M365 27l-7 -27h-299l5 27l63 6c41 4 48 10 58 61l47 236c9 46 4 52 -31 54l-71 4l4 24c83 11 140 24 197 41l-69 -359c-9 -51 2 -57 36 -60z" />
    <glyph glyph-name="two.taboldstyle" unicode="&#xf645;" horiz-adv-x="467" 
d="M406 116l-42 -116h-350l4 21c119 78 291 178 291 287c0 52 -26 84 -81 84c-56 0 -101 -55 -125 -82l-20 19l61 74c40 36 79 50 122 50c68 0 129 -43 129 -126c0 -51 -27 -90 -73 -129c-37 -32 -98 -78 -176 -131l-1 -2h150c47 0 58 12 74 37l11 17z" />
    <glyph glyph-name="three.taboldstyle" unicode="&#xf646;" horiz-adv-x="467" 
d="M95 348l50 61c29 27 67 44 109 44c64 0 116 -39 116 -111c0 -69 -60 -99 -111 -130l1 -2c61 -16 107 -64 107 -133c0 -91 -60 -152 -140 -197c-56 -32 -109 -44 -137 -44c-40 0 -71 18 -85 33c-10 12 -11 25 -5 36c5 11 13 20 22 26c9 7 16 5 24 -1
c19 -19 54 -42 100 -42c84 0 135 69 135 154c0 78 -43 115 -101 115c-17 0 -39 -4 -56 -10l-7 24c73 27 175 69 175 154c0 48 -32 73 -71 73c-47 0 -85 -42 -106 -70z" />
    <glyph glyph-name="four.taboldstyle" unicode="&#xf647;" horiz-adv-x="467" 
d="M425 93l-18 -50h-82l-39 -201h-77l40 201h-248l7 34c119 133 232 257 357 376h37l-68 -360h91zM314 356h-2c-84 -82 -155 -170 -239 -263h185z" />
    <glyph glyph-name="five.taboldstyle" unicode="&#xf648;" horiz-adv-x="467" 
d="M404 453l-29 -74l-192 -18l-37 -113c99 -16 213 -54 213 -179c0 -83 -55 -150 -135 -193c-56 -31 -102 -40 -133 -40c-35 0 -68 18 -82 34c-12 12 -14 24 -9 35c4 10 13 20 23 26c7 5 14 5 23 -2c20 -19 52 -43 99 -43c76 0 134 63 134 149c0 109 -99 135 -188 146
l75 249z" />
    <glyph glyph-name="six.taboldstyle" unicode="&#xf649;" horiz-adv-x="467" 
d="M488 606l2 -29c-127 -27 -262 -120 -320 -236h3c57 28 90 41 109 41c81 0 144 -63 144 -163c0 -134 -105 -231 -215 -231c-97 0 -162 75 -162 192c0 109 54 226 157 307c85 67 191 105 282 119zM233 331c-22 0 -45 -7 -74 -22c-15 -34 -25 -83 -25 -140
c0 -69 27 -147 98 -147c74 0 110 90 110 169c0 81 -30 140 -109 140z" />
    <glyph glyph-name="seven.taboldstyle" unicode="&#xf64a;" horiz-adv-x="467" 
d="M468 441l7 -12c-55 -83 -217 -319 -397 -579l-79 -14l-8 12c154 176 272 329 402 521h-310l14 72h371z" />
    <glyph glyph-name="eight.taboldstyle" unicode="&#xf64b;" horiz-adv-x="467" 
d="M304 606c68 0 136 -41 136 -127c0 -30 -15 -65 -42 -89c-14 -10 -36 -29 -87 -61c60 -43 104 -84 104 -158c0 -97 -100 -183 -216 -183c-84 0 -159 52 -159 141c0 42 17 74 54 107c22 20 65 48 104 73c-38 30 -78 69 -78 134c0 90 83 163 184 163zM287 575
c-55 0 -94 -44 -94 -105c0 -65 54 -100 94 -125c48 33 80 81 80 133c0 61 -32 97 -80 97zM220 21c66 0 114 53 114 124c0 70 -48 107 -110 148c-63 -40 -107 -98 -107 -158c0 -68 41 -114 103 -114z" />
    <glyph glyph-name="nine.taboldstyle" unicode="&#xf64c;" horiz-adv-x="467" 
d="M425 258c0 -182 -127 -327 -298 -391c-38 -14 -103 -30 -128 -31l-4 28c90 21 240 91 315 243l-2 1c-61 -28 -87 -37 -108 -37c-71 0 -140 57 -140 156c0 114 93 226 207 226c100 0 158 -81 158 -195zM341 270c0 72 -23 151 -89 151c-68 0 -109 -94 -109 -168
c0 -81 41 -132 106 -132c27 0 52 11 70 23c13 30 22 80 22 126z" />
    <glyph glyph-name="dollar.taboldstyle" unicode="&#xf653;" horiz-adv-x="467" 
d="M406 319l-27 -6c-7 51 -24 100 -86 111l-31 -161l18 -8c66 -28 115 -60 115 -126c0 -97 -96 -137 -185 -140l-14 -73h-33l14 74c-63 3 -113 31 -130 41c-2 17 -6 64 -4 120l27 4c10 -60 42 -121 113 -134l34 176l-16 8c-57 25 -105 55 -105 116c0 92 84 134 171 135
l13 63h32l-12 -64c22 -1 48 -8 69 -15c16 -6 26 -10 36 -13c0 -28 3 -68 1 -108zM232 273l29 152c-47 0 -96 -26 -96 -75c0 -39 26 -59 67 -77zM247 187l-32 -167c44 1 105 23 105 79c0 41 -19 63 -73 88z" />
    <glyph glyph-name="cent.taboldstyle" unicode="&#xf654;" horiz-adv-x="467" 
d="M345 508l-15 -72c40 -1 73 -9 94 -24c8 -7 11 -14 11 -24c0 -19 -19 -39 -35 -40c-6 1 -11 3 -16 9c-20 24 -38 39 -60 42l-63 -320c39 -1 81 12 128 51l14 -23c-47 -51 -102 -77 -150 -81l-17 -88h-34l17 88c-86 8 -154 68 -154 167c0 142 119 225 232 240l14 75h34z
M230 84l60 317c-103 -7 -144 -103 -144 -185c0 -72 34 -117 84 -132z" />
    <glyph glyph-name="Euro.taboldstyle" unicode="&#xf64e;" horiz-adv-x="467" 
d="M21 338h51c41 122 138 203 269 203c57 0 94 -13 117 -22c-2 -42 -6 -89 -7 -118l-26 -3c-7 76 -29 110 -93 110c-86 0 -145 -73 -173 -170h210l-11 -35h-207c-4 -18 -7 -42 -8 -62h199l-11 -35h-190c-1 -104 31 -184 111 -184c60 0 94 39 140 104l22 -12
c-11 -28 -39 -85 -57 -109c-27 -6 -64 -17 -112 -17c-125 0 -188 93 -191 218h-65l9 35h56c1 21 5 45 10 62h-52z" />
    <glyph glyph-name="florin.taboldstyle" unicode="&#xf64f;" horiz-adv-x="467" 
d="M196 305l9 37c18 72 48 124 96 165c47 41 81 50 106 50s54 -15 53 -36c0 -24 -27 -47 -39 -46c-16 8 -41 33 -63 33c-13 0 -22 -7 -31 -22c-13 -20 -27 -72 -46 -181h107l-12 -35h-103l-27 -130c-24 -119 -63 -196 -133 -247c-38 -28 -63 -36 -85 -36
c-26 0 -54 21 -53 38c1 16 27 47 39 47c9 0 37 -33 62 -33c15 0 26 10 34 21c16 25 32 92 48 178l31 162h-81l11 35h77z" />
    <glyph glyph-name="sterling.taboldstyle" unicode="&#xf651;" horiz-adv-x="467" 
d="M56 283h69c7 92 33 165 110 219c33 23 70 40 101 40c45 0 71 -24 80 -40c5 -10 3 -22 -1 -30c-5 -7 -13 -15 -23 -21c-8 -6 -17 -5 -24 3c-22 25 -46 39 -79 39c-45 0 -64 -42 -70 -89c-5 -33 -7 -77 -8 -121h141l-7 -36h-137c-14 -70 -46 -117 -108 -160
c33 3 64 -4 108 -24c32 -15 67 -31 101 -31c33 0 51 18 52 40c1 11 0 24 -2 32c-2 5 0 12 5 18c11 15 27 26 38 26s18 -15 18 -33c0 -38 -37 -84 -79 -112c-27 -18 -56 -28 -90 -28c-36 0 -78 23 -117 45c-26 15 -43 22 -63 22c-13 0 -27 -11 -42 -36c-5 -9 -12 -12 -18 -12
c-10 1 -23 18 -4 42c10 14 32 36 50 52c48 43 60 98 65 159h-74z" />
    <glyph glyph-name="yen.taboldstyle" unicode="&#xf652;" horiz-adv-x="467" 
d="M504 533l-6 -27c-45 -6 -58 -11 -90 -53c-25 -32 -61 -84 -120 -168h103l-8 -34h-111l-12 -65h113l-8 -34h-112l-11 -62c-9 -51 -6 -59 68 -63l-6 -27h-228l6 27c67 4 72 9 83 63l13 62h-108l8 34h107l12 65h-108l8 34h99c-12 47 -32 102 -53 167c-16 46 -29 49 -71 54
l5 27h192l-6 -28l-26 -4c-24 -4 -27 -7 -23 -27c10 -39 34 -118 48 -171c32 44 87 127 107 162c14 23 14 32 -9 36l-30 4l5 28h169z" />
    </font>
</defs>
</svg>
