<?xml version="1.0" standalone="no"?>
<!DOCTYPE svg PUBLIC "-//W3C//DTD SVG 1.1//EN" "http://www.w3.org/Graphics/SVG/1.1/DTD/svg11.dtd" >
<svg xmlns="http://www.w3.org/2000/svg" xmlns:xlink="http://www.w3.org/1999/xlink" version="1.1">
<metadata>
Created by FontForge 20170731 at Fri May  7 19:24:33 2021
 By Aleksey,,,
(c) 1989, 1994, 2001 Adobe Systems Incorporated. All rights reserved.
</metadata>
<defs>
<font id="FranklinGothicStd-Roman" horiz-adv-x="1593" >
  <font-face 
    font-family="Franklin Gothic Std No.2"
    font-weight="600"
    font-stretch="normal"
    units-per-em="2048"
    panose-1="2 11 7 4 4 7 2 2 2 4"
    ascent="1548"
    descent="-500"
    x-height="1090"
    cap-height="1548"
    bbox="-336 -512 2353 2081"
    underline-thickness="102"
    underline-position="-307"
    unicode-range="U+0020-FB02"
  />
<missing-glyph horiz-adv-x="1024" 
d="M0 0v1434h1024v-1434h-1024zM512 809l348 522h-696zM573 717l349 -522v1044zM164 102h696l-348 523zM102 1239v-1044l349 522z" />
    <glyph glyph-name="f_i" unicode="fi" horiz-adv-x="1366" 
d="M195 0v840h-160v250h160v124q0 56 6 102t16.5 81t28.5 62.5t36.5 46t45.5 32t51.5 21t59 12t63.5 5.5t69 1q31 0 191 -16v-254q-66 8 -76 8q-44 0 -75 -24.5t-31 -86.5v-114h182v-250h-182v-840h-385zM889 0v1090h385v-1090h-385zM889 1241v307h385v-307h-385z" />
    <glyph glyph-name="f_l" unicode="fl" horiz-adv-x="1366" 
d="M195 0v840h-160v250h160v124q0 56 6 102t16.5 81t28.5 62.5t36.5 46t45.5 32t51.5 21t59 12t63.5 5.5t69 1q31 0 191 -16v-254q-66 8 -76 8q-44 0 -75 -24.5t-31 -86.5v-114h182v-250h-182v-840h-385zM889 0v1548h385v-1548h-385z" />
    <glyph glyph-name=".notdef" horiz-adv-x="1024" 
d="M0 0v1434h1024v-1434h-1024zM512 809l348 522h-696zM573 717l349 -522v1044zM164 102h696l-348 523zM102 1239v-1044l349 522z" />
    <glyph glyph-name=".null" horiz-adv-x="0" 
 />
    <glyph glyph-name="nonmarkingreturn" horiz-adv-x="682" 
 />
    <glyph glyph-name="space" unicode=" " horiz-adv-x="739" 
 />
    <glyph glyph-name="exclam" unicode="!" horiz-adv-x="684" 
d="M227 561l-106 987h442l-108 -987h-228zM141 0v401h402v-401h-402z" />
    <glyph glyph-name="quotedbl" unicode="&#x22;" horiz-adv-x="1024" 
d="M70 782v766h336v-766h-336zM618 782v766h336v-766h-336z" />
    <glyph glyph-name="numbersign" unicode="#" horiz-adv-x="1478" 
d="M203 432v209h215l35 254h-185v209h213l60 432h219l-60 -432h201l57 432h222l-60 -432h185v-209h-213l-35 -254h184v-209h-215l-59 -432h-219l57 432h-199l-59 -432h-219l59 432h-184zM872 895h-200l-35 -254h199z" />
    <glyph glyph-name="dollar" unicode="$" horiz-adv-x="1478" 
d="M860 535v-230q54 17 81.5 49t27.5 70q0 76 -109 111zM664 1032v213q-47 -11 -75 -38t-28 -66q0 -43 25.5 -68t77.5 -41zM664 -225v196q-381 9 -596 297l268 209q63 -80 147.5 -128t180.5 -58v289q-89 16 -162 39t-144 62t-119.5 89.5t-78 124.5t-29.5 166
q0 209 146 345.5t387 158.5v202h196v-202q140 -13 262.5 -71.5t206.5 -164.5l-258 -217q-87 105 -211 133v-258q551 -79 551 -502q0 -91 -34 -175.5t-99.5 -155.5t-173 -120t-244.5 -63v-196h-196z" />
    <glyph glyph-name="percent" unicode="%" horiz-adv-x="2048" 
d="M1389 391q0 -57 40 -97t97 -40t97 40t40 97t-40 97t-97 40t-97 -40t-40 -97zM483 -29l901 1594h193l-903 -1594h-191zM385 1145q0 -57 40 -97t97 -40t97 40t40 97t-40 97t-97 40t-97 -40t-40 -97zM1106 391q0 173 123.5 296.5t296.5 123.5t296.5 -123.5t123.5 -296.5
t-123.5 -296.5t-296.5 -123.5t-296.5 123.5t-123.5 296.5zM102 1145q0 173 123.5 296.5t296.5 123.5t296.5 -123.5t123.5 -296.5t-123.5 -296.5t-296.5 -123.5t-296.5 123.5t-123.5 296.5z" />
    <glyph glyph-name="ampersand" unicode="&#x26;" horiz-adv-x="1820" 
d="M1733 328v-338q-53 -6 -131 -6q-98 0 -222.5 39t-216.5 114q-118 -77 -277.5 -121.5t-297.5 -44.5q-99 0 -186.5 27t-155.5 77.5t-108 130.5t-40 179q0 73 27.5 137.5t83 122t121 105t159.5 102.5q-69 83 -103 165.5t-34 184.5q0 48 13 95.5t48 99t88 90.5t142.5 64.5
t202.5 25.5q74 0 142.5 -10t136.5 -35.5t117.5 -64t80.5 -100.5t31 -140q0 -70 -24.5 -129.5t-72 -109t-98.5 -87t-123 -78.5l185 -209q117 112 172 271l288 -105q-30 -97 -85.5 -184t-141.5 -195q33 -34 116 -53.5t163 -19.5zM930 348l-258 285q-144 -85 -144 -199
q0 -72 59 -120t136 -48q115 0 207 82zM737 1233q0 -51 31 -102t100 -123q81 72 111.5 110.5t30.5 85.5q0 67 -45 101t-109 34q-46 0 -82.5 -28t-36.5 -78z" />
    <glyph glyph-name="quotesingle" unicode="'" horiz-adv-x="569" 
d="M117 782v766h336v-766h-336z" />
    <glyph glyph-name="parenleft" unicode="(" horiz-adv-x="681" 
d="M651 -106h-225q-295 412 -295 827q0 103 25 214t61 200t82.5 175.5t83.5 141.5t70 96h225q-97 -123 -180.5 -366.5t-83.5 -460.5q0 -219 55 -417.5t182 -409.5z" />
    <glyph glyph-name="parenright" unicode=")" horiz-adv-x="681" 
d="M31 1548h225q295 -412 295 -827q0 -103 -25 -214t-61 -200t-82.5 -175.5t-83.5 -141.5t-70 -96h-225q97 123 180.5 366.5t83.5 460.5q0 219 -55 417.5t-182 409.5z" />
    <glyph glyph-name="asterisk" unicode="*" horiz-adv-x="1024" 
d="M508 1092l-127 -250l-170 116l207 199l-2 10l-277 37l68 199l246 -127q1 1 2 3t2 3l-49 266h213l-52 -266l6 -6l246 127l64 -209l-279 -33l-2 -10l195 -193l-162 -118l-121 252h-8z" />
    <glyph glyph-name="plus" unicode="+" horiz-adv-x="1228" 
d="M489 0v393h-393v250h393v393h250v-393h394v-250h-394v-393h-250z" />
    <glyph glyph-name="comma" unicode="," horiz-adv-x="739" 
d="M170 0v401h401v-368l-264 -398h-137l141 365h-141z" />
    <glyph glyph-name="hyphen" unicode="-" horiz-adv-x="681" 
d="M59 381v315h547v-315h-547z" />
    <glyph glyph-name="period" unicode="." horiz-adv-x="739" 
d="M170 0v401h401v-401h-401z" />
    <glyph glyph-name="slash" unicode="/" horiz-adv-x="569" 
d="M-37 -29l428 1606h215l-428 -1606h-215z" />
    <glyph glyph-name="zero" unicode="0" horiz-adv-x="1478" 
d="M63 768q0 103 20.5 207t71 212t125.5 190.5t193.5 135t265.5 52.5t265.5 -52.5t193.5 -135t125.5 -190.5t71 -212t20.5 -207q0 -186 -51 -337.5t-141.5 -251.5t-214.5 -154t-269 -54t-269 54t-214.5 154t-141.5 251.5t-51 337.5zM961 768q0 152 -15.5 253.5t-46.5 154.5
t-68.5 73.5t-91.5 20.5t-91.5 -20.5t-68.5 -73.5t-46 -154.5t-15 -253.5t15 -253.5t46 -154.5t68.5 -73.5t91.5 -20.5t91.5 20.5t68.5 73.5t46.5 154.5t15.5 253.5z" />
    <glyph glyph-name="one" unicode="1" horiz-adv-x="1478" 
d="M285 0v319h260v756q-95 -26 -258 -45v266q143 21 251 78t212 174h237v-1229h250v-319h-952z" />
    <glyph glyph-name="two" unicode="2" horiz-adv-x="1478" 
d="M96 0v283l621 503q70 56 133 138.5t63 152.5q0 89 -54 141t-142 52q-108 0 -188 -77t-117 -189l-320 163q31 79 87 148.5t136 126.5t192 90t241 33q137 0 246 -30.5t176 -78.5t111.5 -111t61.5 -123t17 -120q0 -254 -281 -440l-422 -289v-4h701v-369h-1262z" />
    <glyph glyph-name="three" unicode="3" horiz-adv-x="1478" 
d="M31 279l288 200q64 -102 161 -163.5t210 -61.5q108 0 174 49.5t66 138.5q0 71 -53 121q-25 25 -63.5 40.5t-96.5 22t-103.5 8t-124.5 1.5h-12v295h29q76 0 119 2t103 17t91 44q51 49 51 119q0 79 -56 118.5t-142 39.5q-170 0 -346 -168l-230 227q130 124 280 180t335 56
q79 0 157 -11.5t160 -40t144 -72.5t101.5 -114.5t39.5 -159.5q0 -239 -295 -348v-4q77 -19 139.5 -50.5t111.5 -78t76 -112.5t27 -146q0 -103 -42 -184.5t-108.5 -131.5t-157.5 -83t-181.5 -45.5t-188.5 -12.5q-199 0 -376 78.5t-287 229.5z" />
    <glyph glyph-name="four" unicode="4" horiz-adv-x="1478" 
d="M725 0v332h-690v295l727 921h393v-921h256v-295h-256v-332h-430zM721 1130l-367 -503h371v503h-4z" />
    <glyph glyph-name="five" unicode="5" horiz-adv-x="1478" 
d="M137 776l78 760h1053l-33 -369h-727l-27 -245q61 27 140.5 44t144.5 17q136 0 245 -32t175 -82.5t110 -117.5t61 -130.5t17 -128.5q0 -38 -6.5 -78.5t-26.5 -93t-51.5 -99.5t-85.5 -93.5t-124 -80.5t-172.5 -55t-225.5 -21q-188 0 -358.5 77.5t-280.5 221.5l276 219
q69 -106 154 -164.5t201 -58.5q102 0 180 56t78 153q0 51 -19.5 91t-47 62t-63 36.5t-62 19t-48.5 4.5q-122 0 -256 -78z" />
    <glyph glyph-name="six" unicode="6" horiz-adv-x="1478" 
d="M1352 1184l-355 -113q-32 101 -83 156t-144 55q-59 0 -104.5 -29.5t-72.5 -74t-44.5 -104.5t-24.5 -111.5t-8 -104.5q155 82 377 82q233 0 372.5 -125t139.5 -305q0 -130 -50 -234t-135.5 -169.5t-197 -100.5t-238.5 -35q-337 0 -523.5 204t-186.5 566q0 155 40 290.5
t108.5 231.5t157.5 165.5t188 103t200 33.5q222 0 364.5 -91t219.5 -290zM518 588l10 -86q31 -260 224 -260q95 0 153 65.5t58 159.5q0 87 -52 138.5t-141 51.5q-97 0 -184 -41z" />
    <glyph glyph-name="seven" unicode="7" horiz-adv-x="1478" 
d="M160 1167l24 369h1180v-225q-97 -140 -177.5 -286t-151.5 -313.5t-113.5 -351t-47.5 -360.5h-514q55 257 191 538t364 629h-755z" />
    <glyph glyph-name="eight" unicode="8" horiz-adv-x="1478" 
d="M1104 856v-2q135 -48 223 -156t88 -245q0 -106 -46 -191t-118.5 -138.5t-169 -89t-191 -49.5t-190.5 -14q-87 0 -171 12.5t-170 43.5t-150.5 78t-105 122.5t-40.5 169.5q0 114 79.5 197.5t197.5 128.5q-111 60 -173.5 155t-62.5 216q0 102 37.5 183.5t99.5 134.5
t147.5 88t176 50t189.5 15q77 0 156.5 -14.5t157.5 -47.5t138 -80.5t97.5 -119.5t37.5 -158q0 -107 -65 -180t-172 -109zM961 395q0 36 -18.5 66t-46 49t-66.5 35.5t-73.5 26.5t-73.5 21.5t-60 20.5q-31 -21 -43.5 -30t-36.5 -30t-34 -37t-19 -41.5t-9 -53.5
q0 -49 42.5 -89.5t96.5 -59.5t101 -19q37 0 75.5 7t77 22t63 44t24.5 68zM956 1118q0 80 -67 122t-156 42q-44 0 -90.5 -13t-83.5 -44.5t-37 -75.5q0 -35 22 -63.5t62.5 -48.5t75 -33t83.5 -27t64 -19q32 21 46.5 32t37.5 32.5t33 44.5t10 51z" />
    <glyph glyph-name="nine" unicode="9" horiz-adv-x="1478" 
d="M127 352l354 113q32 -101 83.5 -156t144.5 -55q59 0 104.5 29.5t72.5 74t44.5 104.5t24.5 111.5t8 104.5q-155 -82 -377 -82q-233 0 -372.5 125t-139.5 305q0 130 49.5 234t135.5 169.5t197 100.5t238 35q337 0 524 -204t187 -566q0 -155 -40 -290.5t-108.5 -231.5
t-157.5 -165.5t-188 -103t-200 -33.5q-222 0 -364.5 91t-219.5 290zM961 948l-11 86q-5 40 -22 84t-44 84t-68.5 66t-88.5 26q-95 0 -153 -65.5t-58 -159.5q0 -87 52 -138.5t141 -51.5q97 0 184 41z" />
    <glyph glyph-name="colon" unicode=":" horiz-adv-x="739" 
d="M170 688v402h401v-402h-401zM170 0v401h401v-401h-401z" />
    <glyph glyph-name="semicolon" unicode=";" horiz-adv-x="739" 
d="M170 0v401h401v-368l-264 -398h-137l141 365h-141zM170 688v402h401v-402h-401z" />
    <glyph glyph-name="less" unicode="&#x3c;" horiz-adv-x="1228" 
d="M96 422v192l1037 439v-236l-719 -299l719 -299v-235z" />
    <glyph glyph-name="equal" unicode="=" horiz-adv-x="1228" 
d="M96 623v249h1037v-249h-1037zM96 164v250h1037v-250h-1037z" />
    <glyph glyph-name="greater" unicode="&#x3e;" horiz-adv-x="1228" 
d="M1133 614v-192l-1037 -438v235l719 299l-719 299v236z" />
    <glyph glyph-name="question" unicode="?" horiz-adv-x="1140" 
d="M348 1126l-317 64q56 202 206.5 294.5t366.5 92.5q106 0 193.5 -22t144.5 -57.5t96 -82t55.5 -93.5t16.5 -95q0 -60 -23 -112t-59.5 -91t-80.5 -77t-86.5 -77t-76.5 -82t-52.5 -101t-12.5 -126h-311q-2 91 14 170.5t42.5 135t58.5 102t65 80.5t60 61.5t44 53.5t17 50
q0 55 -40.5 84t-97.5 29q-88 0 -146 -59t-77 -142zM365 0v401h401v-401h-401z" />
    <glyph glyph-name="at" unicode="@" horiz-adv-x="1638" 
d="M1016 774q0 76 -49 123t-129 47q-88 0 -149.5 -65.5t-61.5 -153.5q0 -80 42 -131t119 -51q98 0 163 67t65 164zM1075 1051l21 110h207l-95 -514q0 -2 -3.5 -17.5t-6 -31.5t-2.5 -29q0 -43 27 -43q77 0 139.5 87.5t62.5 242.5q0 167 -73.5 286.5t-201.5 178.5t-300 59
q-272 0 -434 -169t-162 -439q0 -280 174.5 -442t460.5 -162q247 0 414 131h215q-117 -160 -283 -244t-365 -84q-173 0 -329.5 60t-272 164.5t-184 255t-68.5 321.5q0 225 114 410.5t306.5 290t419.5 104.5q113 0 223.5 -28t208 -84t172.5 -133t118.5 -182t43.5 -224
q0 -128 -41.5 -236t-104.5 -177t-141 -118t-148 -69.5t-128 -20.5q-53 0 -84.5 29t-32.5 78h-4q-95 -107 -211 -107q-95 0 -179 55t-133.5 144t-49.5 186q0 127 53 238t156 182.5t233 71.5q172 0 268 -131z" />
    <glyph glyph-name="A" unicode="A" 
d="M750 1120l-170 -506h329l-155 506h-4zM31 0l524 1548h477l531 -1548h-461l-92 295h-529l-100 -295h-350z" />
    <glyph glyph-name="B" unicode="B" 
d="M135 0v1548h756q266 0 422.5 -107t156.5 -298q0 -129 -87.5 -216t-221.5 -126v-4q155 -32 251.5 -130.5t96.5 -250.5q0 -64 -15 -120t-54 -112t-100.5 -95.5t-162.5 -64t-231 -24.5h-811zM578 627v-344h249q90 0 152.5 43t62.5 129q0 97 -55.5 134.5t-159.5 37.5h-249z
M578 1266v-332h225q98 0 161.5 38t63.5 128q0 60 -35.5 99t-83.5 53t-106 14h-225z" />
    <glyph glyph-name="C" unicode="C" horiz-adv-x="1478" 
d="M1432 1032l-414 -31q-7 73 -34 132t-79.5 98t-122.5 39q-131 0 -194.5 -115.5t-63.5 -363.5q0 -266 68.5 -389t230.5 -123q113 0 189 84.5t102 203.5l332 -71q-77 -273 -250 -399t-459 -126q-93 0 -186 28t-182.5 90.5t-158.5 152.5t-111 224.5t-42 295.5q0 166 41.5 303
t112 230.5t166.5 158t202.5 94t221.5 29.5q140 0 256.5 -45t193.5 -122t123 -173.5t58 -204.5z" />
    <glyph glyph-name="D" unicode="D" 
d="M565 1253v-958h117q82 0 149.5 26.5t122 82.5t85 153.5t30.5 228.5q0 74 -11.5 140t-38.5 127t-68 104.5t-104 69.5t-142 26h-140zM123 0v1548h625q189 0 340 -58t248 -161t148.5 -241.5t51.5 -303.5q0 -79 -10 -153t-36 -153.5t-67 -147.5t-106 -130t-149 -105.5
t-201.5 -69t-257.5 -25.5h-586z" />
    <glyph glyph-name="E" unicode="E" horiz-adv-x="1368" 
d="M123 0v1548h1165v-319h-723v-281h463v-319h-463v-297h746v-332h-1188z" />
    <glyph glyph-name="F" unicode="F" horiz-adv-x="1368" 
d="M123 0v1548h1188v-319h-746v-295h492v-320h-492v-614h-442z" />
    <glyph glyph-name="G" unicode="G" 
d="M805 504v270h674v-772h-127l-131 162q-65 -98 -192 -145.5t-261 -47.5q-325 0 -518 217t-193 586q0 372 197.5 587.5t542.5 215.5q264 0 446.5 -140t243.5 -395l-424 -57q-15 123 -83 204t-183 81q-45 0 -81.5 -11t-73.5 -44t-62 -86.5t-40.5 -143.5t-15.5 -211
t15.5 -211t40.5 -143.5t62 -86t73.5 -43.5t81.5 -11q108 0 186 62.5t82 162.5h-260z" />
    <glyph glyph-name="H" unicode="H" 
d="M135 0v1548h443v-587h438v587h442v-1548h-442v616h-438v-616h-443z" />
    <glyph glyph-name="I" unicode="I" horiz-adv-x="794" 
d="M176 0v1548h442v-1548h-442z" />
    <glyph glyph-name="J" unicode="J" horiz-adv-x="909" 
d="M774 1548v-1091q0 -60 -5 -109.5t-19.5 -101t-37.5 -91t-60.5 -75t-87 -59t-119.5 -37t-156 -13.5q-83 0 -264 33l28 346q88 -10 107 -10q34 0 60.5 6.5t44.5 17t30.5 30t19.5 38.5t11 49t5 55t1 64v948h442z" />
    <glyph glyph-name="K" unicode="K" 
d="M135 0v1548h443v-620h4l452 620h422l-381 -512l481 -1036h-473l-305 662l-200 -269v-393h-443z" />
    <glyph glyph-name="L" unicode="L" horiz-adv-x="1253" 
d="M123 0v1548h442v-1216h647v-332h-1089z" />
    <glyph glyph-name="M" unicode="M" horiz-adv-x="2048" 
d="M143 0v1548h643l246 -741h4l238 741h631v-1548h-443v1094h-4l-346 -1094h-264l-361 1094h-4v-1094h-340z" />
    <glyph glyph-name="N" unicode="N" 
d="M143 0v1548h412l551 -821h4v821h340v-1548h-332l-631 877h-4v-877h-340z" />
    <glyph glyph-name="O" unicode="O" 
d="M797 1270q-92 0 -150.5 -45t-90.5 -156t-32 -295q0 -121 14 -210.5t37.5 -143.5t60 -86t74.5 -43.5t87 -11.5t86.5 11t73.5 43.5t59.5 86t38 143.5t14.5 211q0 116 -12 202t-34 142t-56.5 90t-75 48t-94.5 14zM1536 774q0 -372 -197 -587.5t-542 -215.5t-542.5 215.5
t-197.5 587.5t197.5 587.5t542.5 215.5t542 -215.5t197 -587.5z" />
    <glyph glyph-name="P" unicode="P" horiz-adv-x="1478" 
d="M565 1253v-360h191q106 -3 166.5 42.5t60.5 133.5q0 184 -215 184h-203zM123 0v1548h772q102 0 186.5 -19t141 -49t99 -73t66.5 -85t38.5 -91t19 -86t4.5 -74q0 -75 -17.5 -140t-62.5 -128t-115.5 -107t-183 -71t-258.5 -27h-248v-598h-442z" />
    <glyph glyph-name="Q" unicode="Q" 
d="M797 1270q-92 0 -150.5 -45t-90.5 -156t-32 -295q0 -121 14 -210.5t37.5 -143.5t60 -86t74.5 -43.5t87 -11.5t86.5 11t73.5 43.5t59.5 86t38 143.5t14.5 211q0 116 -12 202t-34 142t-56.5 90t-75 48t-94.5 14zM1518 35v-307q-100 1 -172 12.5t-137.5 40.5t-117 81
t-96.5 132q-65 -14 -94 -17q-49 -6 -104 -6q-345 0 -542.5 215.5t-197.5 587.5t197.5 587.5t542.5 215.5t542 -215.5t197 -587.5q0 -201 -60 -359.5t-173 -260.5q53 -59 104 -87.5t111 -31.5z" />
    <glyph glyph-name="R" unicode="R" 
d="M135 0v1548h742q125 0 224.5 -18.5t165 -52.5t111.5 -76t70.5 -94.5t34.5 -101t10 -103.5q0 -139 -78.5 -237t-214.5 -152l289 -713h-492l-219 635h-200v-635h-443zM578 1253v-323h229q98 0 158.5 41t60.5 114q0 77 -51 122.5t-150 45.5h-247z" />
    <glyph glyph-name="S" unicode="S" horiz-adv-x="1478" 
d="M1315 1333l-258 -213q-120 137 -324 137q-85 0 -135.5 -28.5t-50.5 -81.5q0 -40 29 -67.5t78.5 -44t113 -30t134 -29t141 -36.5t134 -57.5t113 -86.5t78.5 -129t29 -180q0 -78 -24.5 -152t-77 -140.5t-128.5 -116t-186 -78.5t-242 -29q-227 0 -397.5 67.5t-286.5 233.5
l267 207q152 -188 389 -188q122 0 182.5 39t60.5 96q0 37 -28.5 64.5t-77 44.5t-111.5 31.5t-132 31.5t-138.5 38t-132.5 57t-111.5 83.5t-77 122t-28.5 168.5q0 227 172 368.5t450 141.5q176 0 327.5 -59t248.5 -185z" />
    <glyph glyph-name="T" unicode="T" horiz-adv-x="1363" 
d="M461 0v1241h-426v307h1294v-307h-426v-1241h-442z" />
    <glyph glyph-name="U" unicode="U" 
d="M1444 1548v-993q0 -89 -18 -168.5t-65 -157t-119.5 -133.5t-190 -90.5t-267.5 -34.5q-124 0 -224.5 24t-168 67t-116 96.5t-75 119.5t-38.5 128t-12 129v1013h442v-975q0 -76 23 -131.5t61 -84t78 -41.5t84 -13q134 0 200 72.5t66 245.5v927h340z" />
    <glyph glyph-name="V" unicode="V" 
d="M580 0l-547 1548h456l349 -1011h4l346 1011h373l-553 -1548h-428z" />
    <glyph glyph-name="W" unicode="W" horiz-adv-x="2048" 
d="M424 0l-412 1548h439l213 -827h4l219 827h368l211 -827h4l218 827h348l-412 -1548h-379l-219 825h-4l-219 -825h-379z" />
    <glyph glyph-name="X" unicode="X" 
d="M25 0l520 768l-520 780h505l263 -413l270 413h399l-475 -700l582 -848h-512l-322 479l-303 -479h-407z" />
    <glyph glyph-name="Y" unicode="Y" 
d="M590 0v657l-561 891h501l324 -526l309 526h402l-533 -854v-694h-442z" />
    <glyph glyph-name="Z" unicode="Z" horiz-adv-x="1368" 
d="M41 0v193l688 1036h-631v319h1229v-180l-674 -1036h666v-332h-1278z" />
    <glyph glyph-name="bracketleft" unicode="[" horiz-adv-x="681" 
d="M139 -45v1593h514v-98h-243v-1397h239v-98h-510z" />
    <glyph glyph-name="backslash" unicode="\" horiz-adv-x="569" 
d="M391 -29l-428 1606h215l428 -1606h-215z" />
    <glyph glyph-name="bracketright" unicode="]" horiz-adv-x="681" 
d="M543 1548v-1593h-510v98h239v1397h-243v98h514z" />
    <glyph glyph-name="asciicircum" unicode="^" horiz-adv-x="1228" 
d="M614 1290l-221 -502h-256l357 748h241l357 -748h-256z" />
    <glyph glyph-name="underscore" unicode="_" horiz-adv-x="1024" 
d="M1024 -256h-1024v102h1024v-102z" />
    <glyph glyph-name="grave" unicode="`" horiz-adv-x="569" 
d="M250 1217l-303 299h317l191 -299h-205z" />
    <glyph glyph-name="a" unicode="a" horiz-adv-x="1138" 
d="M408 748l-320 67q18 84 65.5 145t116 94.5t143 48.5t160.5 15q116 0 203.5 -17t140.5 -45.5t85.5 -70.5t44.5 -86.5t12 -99.5v-584q0 -154 43 -215h-395q-14 48 -17 98q-66 -60 -153.5 -93.5t-178.5 -33.5q-35 0 -73.5 7.5t-84 29.5t-80.5 56t-59 93.5t-24 135.5
q0 87 38 155t100 111t148.5 71t175.5 39.5t189 12.5v90q0 109 -129 109q-66 0 -99 -33t-52 -100zM686 270v228q-34 -4 -59.5 -8.5t-60.5 -13t-60 -21.5t-48.5 -30t-35.5 -42.5t-12 -56.5q0 -54 40 -85.5t78 -31.5q72 0 158 61z" />
    <glyph glyph-name="b" unicode="b" horiz-adv-x="1251" 
d="M98 0v1548h385v-594h4q98 152 304 152q88 0 159.5 -32.5t118.5 -86t79 -126t46 -149.5t14 -159q0 -268 -129.5 -425t-322.5 -157q-113 0 -205.5 49t-149.5 144l-69 -164h-234zM483 786v-403q0 -88 39.5 -137t106.5 -49q93 0 135.5 79.5t42.5 251.5q0 177 -38.5 258.5
t-127.5 81.5q-79 0 -158 -82z" />
    <glyph glyph-name="c" unicode="c" horiz-adv-x="1138" 
d="M1096 729l-348 -22q-5 74 -37 117.5t-107 43.5q-71 0 -115.5 -73.5t-44.5 -249.5q0 -177 47 -250.5t152 -73.5q85 0 130 48.5t75 136.5l276 -50q-73 -188 -200.5 -286.5t-323.5 -98.5q-163 0 -288 67t-197 198.5t-72 308.5q0 252 154 412.5t399 160.5q198 0 324 -98.5
t176 -290.5z" />
    <glyph glyph-name="d" unicode="d" horiz-adv-x="1251" 
d="M1153 1548v-1548h-373v111q-178 -140 -327 -140q-82 0 -151 33t-116 87.5t-80 126.5t-48 149.5t-15 156.5q0 88 15 169.5t48.5 157.5t83 132t124 89.5t165.5 33.5q81 0 157 -38t132 -101v581h385zM768 291v497q-29 32 -46 47.5t-48 30.5t-66 15q-164 0 -164 -353
q0 -37 1.5 -65.5t6.5 -69.5t16.5 -70t29.5 -57t48.5 -42.5t69.5 -14.5q43 0 84.5 24.5t67.5 57.5z" />
    <glyph glyph-name="e" unicode="e" horiz-adv-x="1249" 
d="M1200 473h-756q0 -115 71.5 -183.5t182.5 -68.5q74 0 143.5 44t104.5 116l254 -115q-101 -148 -241.5 -221.5t-333.5 -73.5q-261 0 -421.5 153.5t-160.5 420.5q0 253 159 413t423 160q124 0 227 -36.5t181.5 -110t122.5 -192.5t44 -275v-31zM459 682h340q3 91 -38.5 151
t-121.5 60q-176 0 -180 -211z" />
    <glyph glyph-name="f" unicode="f" horiz-adv-x="796" 
d="M195 0v840h-160v250h160v124q0 56 6 102t16.5 81t28.5 62.5t36.5 46t45.5 32t51.5 21t59 12t63.5 5.5t69 1q31 0 191 -16v-254q-66 8 -76 8q-44 0 -75 -24.5t-31 -86.5v-114h182v-250h-182v-840h-385z" />
    <glyph glyph-name="g" unicode="g" horiz-adv-x="1251" 
d="M1239 1118v-233q-27 16 -59.5 27.5t-70 8.5t-54.5 -30q30 -40 30 -98q0 -165 -124.5 -259t-352.5 -94h-92q-63 0 -81.5 -12.5t-18.5 -36.5q0 -29 18 -37.5t78 -13.5l207 -14q56 -4 101.5 -9.5t99.5 -16.5t96 -26t83 -39.5t68 -55.5t43.5 -74.5t16.5 -96.5
q0 -50 -21 -97.5t-71 -94.5t-123.5 -82t-187.5 -56.5t-255 -21.5q-123 0 -221 11.5t-175 35.5t-119 65.5t-42 98.5q0 128 197 188v4q-66 21 -110 66t-44 111q0 46 23.5 87t63 70.5t79 49.5t82.5 34v4q-99 34 -163 113.5t-64 183.5q0 46 17.5 93t56 91.5t93 79t135 55.5
t175.5 21q274 0 414 -110q93 110 272 110zM895 -63q0 29 -32 48.5t-92.5 28.5t-120 12t-142.5 3q-76 0 -118 -5t-69.5 -24t-27.5 -55q0 -30 19.5 -48t87 -31t188.5 -13q307 0 307 84zM588 934q-66 0 -117 -46t-51 -112q0 -70 47.5 -117t114.5 -47q66 0 112.5 48t46.5 118
q0 65 -44.5 110.5t-108.5 45.5z" />
    <glyph glyph-name="h" unicode="h" horiz-adv-x="1249" 
d="M98 0v1548h385v-614q184 184 355 184q35 0 73 -8t82 -31t78 -58t57 -95.5t23 -137.5v-788h-385v690q0 158 -117 158q-38 0 -76 -25t-90 -73v-750h-385z" />
    <glyph glyph-name="i" unicode="i" horiz-adv-x="569" 
d="M92 0v1090h385v-1090h-385zM92 1241v307h385v-307h-385z" />
    <glyph glyph-name="j" unicode="j" horiz-adv-x="681" 
d="M565 1092v-1004q0 -72 -14.5 -132.5t-38.5 -102.5t-58.5 -74.5t-71.5 -52.5t-81 -32.5t-83 -17t-81 -4.5q-34 0 -117 9v286h15q72 0 108.5 23.5t36.5 93.5v1008h385zM180 1241v307h385v-307h-385z" />
    <glyph glyph-name="k" unicode="k" horiz-adv-x="1249" 
d="M98 0v1548h385v-864l383 434h367l-352 -387l352 -731h-428l-195 446h-4l-123 -127v-319h-385z" />
    <glyph glyph-name="l" unicode="l" horiz-adv-x="569" 
d="M92 0v1548h385v-1548h-385z" />
    <glyph glyph-name="m" unicode="m" horiz-adv-x="1933" 
d="M106 0v1090h386v-154q49 43 78.5 66.5t78.5 55t99 46t104 14.5q221 0 293 -196q98 102 180 149t199 47q77 0 137.5 -26.5t95.5 -71t52.5 -98t17.5 -111.5v-811h-385v692q0 156 -117 156q-49 0 -96.5 -29t-69.5 -61v-758h-385v692q0 156 -117 156q-49 0 -96 -28.5
t-69 -61.5v-758h-386z" />
    <glyph glyph-name="n" unicode="n" horiz-adv-x="1249" 
d="M98 0v1090h385v-156q184 184 355 184q35 0 73 -8t82 -31t78 -58t57 -95.5t23 -137.5v-788h-385v690q0 158 -117 158q-38 0 -76 -25t-90 -73v-750h-385z" />
    <glyph glyph-name="o" unicode="o" horiz-adv-x="1249" 
d="M625 221q91 0 135.5 71.5t44.5 252.5t-44.5 252t-135.5 71t-136 -71t-45 -252t45 -252.5t136 -71.5zM1206 545q0 -259 -160 -416.5t-421 -157.5t-421.5 153.5t-160.5 420.5q0 253 159 413t423 160q166 0 297.5 -69.5t207.5 -201t76 -302.5z" />
    <glyph glyph-name="p" unicode="p" horiz-adv-x="1251" 
d="M98 -328v1418h373v-111q177 139 328 139q102 0 182.5 -49.5t128.5 -131t73 -177t25 -195.5q0 -88 -15 -169.5t-48.5 -157t-83 -131.5t-124 -89.5t-165.5 -33.5q-81 0 -157 38t-132 101v-451h-385zM483 799v-498q29 -31 46.5 -47t48 -30.5t65.5 -14.5q164 0 164 352
q0 31 -1 55.5t-4.5 59.5t-10.5 61.5t-19.5 55t-30.5 46.5t-45 30t-61 12q-43 0 -84.5 -24.5t-67.5 -57.5z" />
    <glyph glyph-name="q" unicode="q" horiz-adv-x="1251" 
d="M1153 1090v-1418h-385v463h-4q-98 -151 -303 -151q-88 0 -159.5 32.5t-119 86t-79.5 126t-46 149.5t-14 159q0 135 36 246t97.5 183.5t144 112t175.5 39.5q113 0 205 -48.5t149 -143.5l70 164h233zM768 303v404q0 88 -39 137t-106 49q-93 0 -136 -80t-43 -252
q0 -177 38.5 -258.5t127.5 -81.5q79 0 158 82z" />
    <glyph glyph-name="r" unicode="r" horiz-adv-x="909" 
d="M92 0v1090h385v-170h4q56 88 162 140t223 58v-403q-116 55 -209 55q-51 0 -92.5 -18t-87.5 -56v-696h-385z" />
    <glyph glyph-name="s" unicode="s" horiz-adv-x="1138" 
d="M31 201l227 145q58 -82 131 -115.5t180 -33.5q76 0 123 25t47 61q0 17 -5.5 27.5t-26 23.5t-67 25t-122.5 24q-156 24 -237.5 53t-130.5 82q-87 94 -87 217q0 162 127 272.5t340 110.5q364 0 482 -215l-228 -133q-20 49 -92.5 80t-140.5 31q-148 0 -148 -84
q0 -33 35.5 -48.5t136.5 -27.5q264 -34 390.5 -122t126.5 -245q0 -88 -31 -156.5t-96 -120t-174.5 -79t-258.5 -27.5q-164 0 -289.5 53t-211.5 177z" />
    <glyph glyph-name="t" unicode="t" horiz-adv-x="796" 
d="M35 840v250h180l27 383h338v-383h182v-250h-182v-514q0 -47 28.5 -70t77.5 -23q18 0 86 15v-256q-126 -21 -203 -21q-109 0 -182 18t-115 56.5t-59.5 91.5t-17.5 129v574h-160z" />
    <glyph glyph-name="u" unicode="u" horiz-adv-x="1249" 
d="M1151 1090v-1090h-385v156q-185 -185 -354 -185q-35 0 -73 8t-82.5 31t-78.5 58t-57 95.5t-23 137.5v789h385v-691q0 -157 117 -157q38 0 76 25t90 73v750h385z" />
    <glyph glyph-name="v" unicode="v" horiz-adv-x="1138" 
d="M426 0l-416 1090h406l209 -588h4l213 588h286l-421 -1090h-281z" />
    <glyph glyph-name="w" unicode="w" horiz-adv-x="1705" 
d="M389 0l-369 1090h400l176 -545h4l176 545h277l168 -545h4l176 545h285l-377 -1090h-277l-182 532h-4l-172 -532h-285z" />
    <glyph glyph-name="x" unicode="x" horiz-adv-x="1249" 
d="M14 0l398 545l-392 545h449l174 -271l178 271h330l-348 -476l432 -614h-453l-211 332l-229 -332h-328z" />
    <glyph glyph-name="y" unicode="y" horiz-adv-x="1138" 
d="M369 125l-365 965h410l209 -613h4l217 613h293l-414 -1018q-22 -55 -38 -90t-42.5 -82t-53 -76t-67.5 -61t-88 -49.5t-112 -29.5t-142 -12q-55 0 -114 6v273q80 -17 139 -17q25 0 51.5 3.5t59.5 12.5t54 30t21 51q0 33 -22 94z" />
    <glyph glyph-name="z" unicode="z" horiz-adv-x="1138" 
d="M45 0v172l510 680h-453v238h949v-172l-506 -680h510v-238h-1010z" />
    <glyph glyph-name="braceleft" unicode="{" horiz-adv-x="681" 
d="M43 639v225q33 -1 63 4t59.5 16.5t47.5 36t18 58.5v283q0 109 86 197.5t197 88.5h205v-184h-113q-63 0 -83.5 -32t-20.5 -105v-275q0 -90 -70 -141.5t-166 -56.5v-4q95 -5 165.5 -57t70.5 -142v-275q0 -71 22 -104t82 -33h113v-184h-205q-112 0 -197.5 89t-85.5 198v282
q0 34 -18 58.5t-47.5 36t-59.5 16.5t-63 4z" />
    <glyph glyph-name="bar" unicode="|" horiz-adv-x="454" 
d="M102 1536h250v-2048h-250v2048z" />
    <glyph glyph-name="braceright" unicode="}" horiz-adv-x="681" 
d="M639 864v-225q-33 1 -63 -4t-59.5 -16.5t-47.5 -36t-18 -58.5v-282q0 -109 -85.5 -198t-197.5 -89h-205v184h113q60 0 82 33t22 104v275q0 90 70.5 142t165.5 57v4q-96 5 -166 56.5t-70 141.5v275q0 73 -20.5 105t-83.5 32h-113v184h205q111 0 197 -88.5t86 -197.5v-283
q0 -34 18 -58.5t47.5 -36t59.5 -16.5t63 -4z" />
    <glyph glyph-name="asciitilde" unicode="~" horiz-adv-x="1228" 
d="M221 315l-84 222q90 176 254 176q80 0 236 -70q8 -4 33 -15t34 -14.5t29.5 -12t31 -12l25.5 -8.5t26 -6.5t21 -1.5q28 0 55 13t51 38t40 46t35 51l84 -221q-58 -85 -114.5 -130.5t-139.5 -45.5q-35 0 -76 12t-61 21.5t-72 35.5q-42 22 -72 34.5t-75 24t-89 11.5
q-106 0 -172 -148z" />
    <glyph glyph-name="uni00A0" unicode="&#xa0;" horiz-adv-x="739" 
 />
    <glyph glyph-name="exclamdown" unicode="&#xa1;" horiz-adv-x="684" 
d="M121 -328l108 987h228l106 -987h-442zM141 819v402h402v-402h-402z" />
    <glyph glyph-name="cent" unicode="&#xa2;" horiz-adv-x="1478" 
d="M643 305l203 539q-34 24 -86 24q-71 0 -115.5 -73.5t-44.5 -249.5q0 -167 43 -240zM420 -297l112 307q-155 57 -244 195.5t-89 339.5q0 252 154 412.5t399 160.5q107 0 186 -26l86 231h150l-111 -295q134 -96 188 -293l-305 -20l-182 -490q10 -4 35 -4q85 0 130 48.5
t75 136.5l276 -50q-73 -188 -200.5 -286.5t-323.5 -98.5q-40 0 -84 6l-103 -274h-149z" />
    <glyph glyph-name="sterling" unicode="&#xa3;" horiz-adv-x="1478" 
d="M63 676v196h197q-35 130 -35 232q0 81 34 160t101 147.5t182 111t261 42.5q115 0 215 -31.5t176 -90.5t120 -151.5t44 -206.5v-32h-371v37q0 94 -36.5 143t-127.5 49q-72 0 -113.5 -47t-41.5 -121q0 -45 20 -133t23 -109h325v-196h-309q0 -153 -49 -262
q69 -31 153.5 -58.5t124.5 -27.5q36 0 61 12t37.5 26.5t19 41t7 42t0.5 42.5v8v28h336v-18q0 -276 -98 -407.5t-322 -131.5q-221 0 -458 181q-93 -98 -206 -139.5t-270 -41.5v355q58 3 102 16t82 40t58.5 75.5t20.5 117.5q0 50 -21 101h-242z" />
    <glyph glyph-name="currency" unicode="&#xa4;" horiz-adv-x="1478" 
d="M205 369l119 118q-45 51 -70 126t-25 159q0 88 24.5 166.5t70.5 122.5l-119 119l129 129l117 -117q46 40 126 65t166 25q81 0 157 -24.5t116 -61.5l119 119l139 -139l-115 -115q39 -42 62.5 -120.5t23.5 -164.5q0 -85 -23.5 -163t-66.5 -130l115 -114l-123 -123l-119 119
q-45 -45 -123.5 -72t-163.5 -27q-89 0 -167.5 25t-127.5 69l-116 -116zM455 774q0 -117 82.5 -199.5t199.5 -82.5t200 82.5t83 199.5t-83 200t-200 83t-199.5 -83t-82.5 -200z" />
    <glyph glyph-name="yen" unicode="&#xa5;" horiz-adv-x="1478" 
d="M532 0v238h-376v225h376v170h-376v225h256l-400 678h502l283 -520l268 520h401l-393 -678h287v-225h-385v-170h385v-225h-385v-238h-443z" />
    <glyph glyph-name="brokenbar" unicode="&#xa6;" horiz-adv-x="454" 
d="M102 1382h250v-716h-250v716zM102 358h250v-716h-250v716z" />
    <glyph glyph-name="section" unicode="&#xa7;" horiz-adv-x="1478" 
d="M1184 1348l-244 -160q-25 59 -67 105t-95 46q-39 0 -68.5 -24t-29.5 -62q0 -31 31.5 -68.5t82 -75.5t111.5 -81.5t121.5 -93.5t111 -103.5t82 -120t31.5 -135.5q0 -100 -65.5 -173t-165.5 -85l-2 -14q96 -96 96 -215q0 -57 -18 -111.5t-58.5 -106.5t-118.5 -84t-184 -32
q-151 0 -256.5 57.5t-185.5 176.5l242 176q15 -63 60 -111.5t105 -48.5q45 0 76 22t31 72q0 34 -32 71.5t-83 73.5t-113 76t-124 87.5t-113 99.5t-83 120t-32 142q0 107 64 178.5t170 83.5l6 12q-94 88 -94 230q0 92 55 162.5t142 106.5t188 36q143 0 243 -54.5t183 -174.5z
M956 559q0 38 -74 113t-163.5 134.5t-130.5 59.5q-66 0 -66 -67q0 -47 74 -123.5t160.5 -133.5t124.5 -57q33 0 54 20.5t21 53.5z" />
    <glyph glyph-name="dieresis" unicode="&#xa8;" horiz-adv-x="569" 
d="M-57 1223v262h282v-262h-282zM340 1223v262h283v-262h-283z" />
    <glyph glyph-name="copyright" unicode="&#xa9;" horiz-adv-x="1638" 
d="M1022 651h203q-15 -106 -71.5 -183.5t-136.5 -115t-175 -37.5q-198 0 -321.5 131t-123.5 328q0 203 120 332t321 129q149 0 251 -85.5t128 -244.5h-195q-13 69 -63 101t-121 32q-97 0 -150 -68.5t-53 -191.5q0 -116 57 -191t150 -75q76 0 125 35t55 104zM16 774
q0 217 108 402t293 293t402 108t402 -108t293 -293t108 -402t-108 -402t-293 -293t-402 -108t-402 108t-293 293t-108 402zM819 180q247 0 400 161t153 433t-153 433t-400 161t-400 -161t-153 -433t153 -433t400 -161z" />
    <glyph glyph-name="ordfeminine" unicode="&#xaa;" horiz-adv-x="739" 
d="M264 1341l-207 41q22 96 110 139.5t206 43.5q96 0 160 -16t97 -48t45.5 -69t12.5 -89v-321q0 -94 29 -129h-258q-7 29 -10 61q-89 -77 -218 -77q-100 0 -154 53t-54 139q0 78 60.5 135.5t127.5 73.5q93 20 227 27v51q-5 61 -80 61q-40 0 -61.5 -19t-32.5 -57zM438 1032
v162q-172 -23 -172 -113q0 -37 21 -56t55 -19q38 0 96 26z" />
    <glyph glyph-name="guillemotleft" unicode="&#xab;" horiz-adv-x="1024" 
d="M295 182l-244 330v4l240 326h250l-246 -330l252 -330h-252zM721 182l-244 330v4l240 326h250l-246 -330l252 -330h-252z" />
    <glyph glyph-name="logicalnot" unicode="&#xac;" horiz-adv-x="1228" 
d="M96 623v249h1037v-649h-250v400h-787z" />
    <glyph glyph-name="uni00AD" unicode="&#xad;" horiz-adv-x="681" 
d="M59 381v315h547v-315h-547z" />
    <glyph glyph-name="registered" unicode="&#xae;" horiz-adv-x="1638" 
d="M819 180q247 0 400 161t153 433t-153 433t-400 161t-400 -161t-153 -433t153 -433t400 -161zM16 774q0 217 108 402t293 293t402 108t402 -108t293 -293t108 -402t-108 -402t-293 -293t-402 -108t-402 108t-293 293t-108 402zM494 336v864h323q183 0 275 -58t92 -204
q0 -217 -234 -227l221 -375h-210l-197 364h-74v-364h-196zM690 1053v-205h168q62 0 89.5 24.5t27.5 85.5q0 59 -28 77t-89 18h-168z" />
    <glyph glyph-name="macron" unicode="&#xaf;" horiz-adv-x="569" 
d="M-31 1260v172h631v-172h-631z" />
    <glyph glyph-name="degree" unicode="&#xb0;" horiz-adv-x="819" 
d="M252 1260q0 -66 46 -112t112 -46t111.5 46t45.5 112t-45.5 111.5t-111.5 45.5t-112 -45.5t-46 -111.5zM104 1260q0 126 90 215.5t216 89.5t215.5 -89.5t89.5 -215.5t-89.5 -216t-215.5 -90t-216 90t-90 216z" />
    <glyph glyph-name="plusminus" unicode="&#xb1;" horiz-adv-x="1228" 
d="M489 307v240h-393v250h393v239h250v-239h394v-250h-394v-240h-250zM96 0v250h1037v-250h-1037z" />
    <glyph glyph-name="twosuperior" unicode="&#xb2;" horiz-adv-x="960" 
d="M72 639v178l403 301q117 99 117 156q0 94 -117 94q-69 0 -122.5 -37.5t-76.5 -101.5l-208 98q44 100 154 169t272 69q89 0 160.5 -18.5t115 -47t72.5 -66.5t40 -73.5t11 -71.5q0 -152 -182 -264l-265 -156v-4h445v-225h-819z" />
    <glyph glyph-name="threesuperior" unicode="&#xb3;" horiz-adv-x="960" 
d="M20 805l187 117q42 -54 107.5 -84.5t134.5 -30.5q60 0 104.5 21t44.5 73q0 115 -240 115h-45v172h47q89 0 144 27t55 83q0 70 -123 70q-114 0 -225 -76l-148 133q158 140 400 140q65 0 128.5 -11.5t125 -37t99.5 -74t38 -113.5q0 -140 -192 -205v-4q105 -24 168 -80
t63 -149q0 -75 -40 -130t-107.5 -83.5t-140.5 -41.5t-154 -13q-129 0 -244.5 46t-186.5 136z" />
    <glyph glyph-name="acute" unicode="&#xb4;" horiz-adv-x="569" 
d="M115 1217l190 299h318l-304 -299h-204z" />
    <glyph glyph-name="mu" unicode="&#xb5;" horiz-adv-x="1249" 
d="M98 -328v1418h385v-691q0 -157 117 -157q50 0 108 40.5t58 63.5v744h385v-1090h-385v115q-102 -87 -201 -90q-39 0 -82 16v-369h-385z" />
    <glyph glyph-name="paragraph" unicode="&#xb6;" horiz-adv-x="1269" 
d="M889 -217v1581h-193v-1581h-233v1051q-94 0 -173 19t-144.5 59t-102.5 111.5t-37 168.5q0 82 25 144t68.5 102t108.5 65t138 35t164 10h612v-1765h-233z" />
    <glyph glyph-name="periodcentered" unicode="&#xb7;" horiz-adv-x="739" 
d="M186 604q0 76 54 130t131 54t130.5 -54t53.5 -130t-53.5 -130t-130.5 -54t-131 54t-54 130z" />
    <glyph glyph-name="cedilla" unicode="&#xb8;" horiz-adv-x="569" 
d="M33 -416l39 86q101 -32 174 -32q34 0 63 22.5t29 54.5q0 34 -23.5 55t-58.5 21q-51 0 -92 -16l-43 41l121 184h108l-88 -125l4 -4q42 15 80 12q170 -12 170 -157q0 -66 -41 -111t-99 -63.5t-126 -18.5q-39 0 -74 7.5t-85.5 24.5t-57.5 19z" />
    <glyph glyph-name="onesuperior" unicode="&#xb9;" horiz-adv-x="960" 
d="M170 639v209h166v432q-103 -28 -164 -35v187q97 13 165.5 41.5t135.5 91.5h158v-717h160v-209h-621z" />
    <glyph glyph-name="ordmasculine" unicode="&#xba;" horiz-adv-x="813" 
d="M514 1210v62q0 133 -108 133q-107 0 -107 -133v-62q0 -29 1 -46.5t6.5 -45t16 -43t32 -27.5t51.5 -12q36 0 59.5 16t33 45.5t12.5 54t3 58.5zM784 1219q0 -155 -103 -248.5t-271 -93.5q-172 0 -276.5 90.5t-104.5 249.5q0 154 101 251t267 97q171 0 279 -94.5t108 -251.5
z" />
    <glyph glyph-name="guillemotright" unicode="&#xbb;" horiz-adv-x="1024" 
d="M57 182l246 330l-252 330h252l244 -330v-4l-240 -326h-250zM483 182l246 330l-252 330h252l244 -330v-4l-240 -326h-250z" />
    <glyph glyph-name="onequarter" unicode="&#xbc;" horiz-adv-x="2217" 
d="M1622 0v180h-448v197l473 553h256v-553h165v-197h-165v-180h-281zM1618 635l-223 -258h225v258h-2zM600 -29l850 1594h164l-848 -1594h-166zM150 639v209h165v432q-104 -29 -163 -35v187q97 13 165.5 41.5t135.5 91.5h157v-717h160v-209h-620z" />
    <glyph glyph-name="onehalf" unicode="&#xbd;" horiz-adv-x="2217" 
d="M541 -29l850 1594h163l-847 -1594h-166zM150 639v209h165v432q-104 -29 -163 -35v187q97 13 165.5 41.5t135.5 91.5h157v-717h160v-209h-620zM1247 0v178l404 301q116 98 116 156q0 94 -116 94q-69 0 -122.5 -37.5t-76.5 -101.5l-209 98q44 100 154 169t272 69
q89 0 160.5 -18.5t115 -47t72.5 -66.5t40 -73.5t11 -71.5q0 -152 -182 -264l-264 -156v-4h444v-225h-819z" />
    <glyph glyph-name="threequarters" unicode="&#xbe;" horiz-adv-x="2217" 
d="M686 -29l850 1594h164l-848 -1594h-166zM150 805l186 117q42 -54 107.5 -84.5t134.5 -30.5q60 0 104.5 21t44.5 73q0 115 -240 115h-45v172h47q89 0 144 27t55 83q0 70 -123 70q-114 0 -225 -76l-147 133q158 140 399 140q65 0 128.5 -11.5t125 -37t99.5 -74t38 -113.5
q0 -140 -192 -205v-4q105 -24 168 -80t63 -149q0 -75 -40 -130t-107.5 -83.5t-140.5 -41.5t-154 -13q-129 0 -244 46t-186 136zM1622 0v180h-448v197l473 553h256v-553h165v-197h-165v-180h-281zM1618 635l-223 -258h225v258h-2z" />
    <glyph glyph-name="questiondown" unicode="&#xbf;" horiz-adv-x="1140" 
d="M793 94l317 -63q-56 -202 -206.5 -294.5t-366.5 -92.5q-106 0 -193.5 22t-144.5 57.5t-96 82t-55.5 93.5t-16.5 95q0 60 23 112t59.5 91t80.5 77t86.5 76.5t76.5 81.5t52.5 101t12.5 126h311q2 -91 -14 -170.5t-42.5 -135t-58.5 -102t-65 -80.5t-60 -61.5t-44 -53.5
t-17 -50q0 -55 40 -83.5t97 -28.5q89 0 147 59t77 141zM776 1221v-402h-401v402h401z" />
    <glyph glyph-name="Agrave" unicode="&#xc0;" 
d="M750 1120l-170 -506h329l-155 506h-4zM31 0l524 1548h477l531 -1548h-461l-92 295h-529l-100 -295h-350zM762 1651l-303 299h317l191 -299h-205z" />
    <glyph glyph-name="Aacute" unicode="&#xc1;" 
d="M750 1120l-170 -506h329l-155 506h-4zM31 0l524 1548h477l531 -1548h-461l-92 295h-529l-100 -295h-350zM627 1651l190 299h318l-304 -299h-204z" />
    <glyph glyph-name="Acircumflex" unicode="&#xc2;" 
d="M750 1120l-170 -506h329l-155 506h-4zM31 0l524 1548h477l531 -1548h-461l-92 295h-529l-100 -295h-350zM434 1651l232 299h256l237 -299h-233l-131 168l-131 -168h-230z" />
    <glyph glyph-name="Atilde" unicode="&#xc3;" 
d="M750 1120l-170 -506h329l-155 506h-4zM31 0l524 1548h477l531 -1548h-461l-92 295h-529l-100 -295h-350zM1038 1925h133q-28 -117 -80 -181.5t-149 -64.5q-12 0 -23.5 1t-24.5 4t-21.5 4.5t-24 7t-21.5 7.5t-24.5 9t-22.5 8q-85 29 -137 29q-34 0 -60 -24t-30 -60h-131
q20 115 78.5 182.5t156.5 67.5q51 0 140 -29q13 -5 34 -13.5t33 -13.5t27 -10t26 -7.5t19 -2.5q36 0 67.5 26.5t34.5 59.5z" />
    <glyph glyph-name="Adieresis" unicode="&#xc4;" 
d="M750 1120l-170 -506h329l-155 506h-4zM31 0l524 1548h477l531 -1548h-461l-92 295h-529l-100 -295h-350zM455 1657v262h282v-262h-282zM852 1657v262h283v-262h-283z" />
    <glyph glyph-name="Aring" unicode="&#xc5;" 
d="M750 1120l-170 -506h329l-155 506h-4zM31 0l524 1548h477l531 -1548h-461l-92 295h-529l-100 -295h-350zM676 1862q0 -51 35 -86t86 -35t86 35t35 86t-35 85.5t-86 34.5t-86 -34.5t-35 -85.5zM578 1862q0 91 64 155t155 64t155 -64t64 -155t-64 -155.5t-155 -64.5
t-155 64.5t-64 155.5z" />
    <glyph glyph-name="AE" unicode="&#xc6;" horiz-adv-x="2048" 
d="M-41 0l686 1548h1329v-319h-598v-281h348v-319h-344v-297h611v-332h-1043v342h-434l-149 -342h-406zM946 711v518h-53l-227 -518h280z" />
    <glyph glyph-name="Ccedilla" unicode="&#xc7;" horiz-adv-x="1478" 
d="M1432 1032l-414 -31q-7 73 -34 132t-79.5 98t-122.5 39q-131 0 -194.5 -115.5t-63.5 -363.5q0 -266 68.5 -389t230.5 -123q113 0 189 84.5t102 203.5l332 -71q-71 -252 -223.5 -378t-399.5 -143l-71 -100l4 -4q42 15 80 12q170 -12 170 -157q0 -66 -41.5 -111
t-99.5 -63.5t-126 -18.5q-39 0 -74 7.5t-85.5 24.5t-57.5 19l39 86q101 -32 174 -32q34 0 63 22.5t29 54.5q0 34 -23.5 55t-58.5 21q-51 0 -92 -16l-43 41l105 157q-76 3 -152 25t-150.5 63t-138 107t-112.5 150t-77 198t-28 246q0 166 41.5 303t112 230.5t166.5 158
t202.5 94t221.5 29.5q140 0 256.5 -45t193.5 -122t123 -173.5t58 -204.5z" />
    <glyph glyph-name="Egrave" unicode="&#xc8;" horiz-adv-x="1368" 
d="M123 0v1548h1165v-319h-723v-281h463v-319h-463v-297h746v-332h-1188zM649 1651l-303 299h318l190 -299h-205z" />
    <glyph glyph-name="Eacute" unicode="&#xc9;" horiz-adv-x="1368" 
d="M123 0v1548h1165v-319h-723v-281h463v-319h-463v-297h746v-332h-1188zM514 1651l191 299h317l-303 -299h-205z" />
    <glyph glyph-name="Ecircumflex" unicode="&#xca;" horiz-adv-x="1368" 
d="M123 0v1548h1165v-319h-723v-281h463v-319h-463v-297h746v-332h-1188zM322 1651l231 299h256l238 -299h-234l-131 168l-131 -168h-229z" />
    <glyph glyph-name="Edieresis" unicode="&#xcb;" horiz-adv-x="1368" 
d="M123 0v1548h1165v-319h-723v-281h463v-319h-463v-297h746v-332h-1188zM342 1657v262h283v-262h-283zM739 1657v262h283v-262h-283z" />
    <glyph glyph-name="Igrave" unicode="&#xcc;" horiz-adv-x="794" 
d="M176 0v1548h442v-1548h-442zM362 1651l-303 299h318l190 -299h-205z" />
    <glyph glyph-name="Iacute" unicode="&#xcd;" horiz-adv-x="794" 
d="M176 0v1548h442v-1548h-442zM227 1651l191 299h317l-303 -299h-205z" />
    <glyph glyph-name="Icircumflex" unicode="&#xce;" horiz-adv-x="794" 
d="M176 0v1548h442v-1548h-442zM35 1651l231 299h256l238 -299h-234l-131 168l-131 -168h-229z" />
    <glyph glyph-name="Idieresis" unicode="&#xcf;" horiz-adv-x="794" 
d="M176 0v1548h442v-1548h-442zM55 1657v262h283v-262h-283zM453 1657v262h282v-262h-282z" />
    <glyph glyph-name="Eth" unicode="&#xd0;" 
d="M565 745v-450h117q82 0 149.5 26.5t122 82.5t85 153.5t30.5 228.5q0 74 -11.5 140t-38.5 127t-68 104.5t-104 69.5t-142 26h-140v-258h326v-250h-326zM123 995v553h625q189 0 340 -58t248 -161t148.5 -241.5t51.5 -303.5q0 -79 -10 -153t-36 -153.5t-67 -147.5t-106 -130
t-149 -105.5t-201.5 -69t-257.5 -25.5h-586v745h-111v250h111z" />
    <glyph glyph-name="Ntilde" unicode="&#xd1;" 
d="M143 0v1548h412l551 -821h4v821h340v-1548h-332l-631 877h-4v-877h-340zM1038 1925h133q-28 -117 -80 -181.5t-149 -64.5q-12 0 -23.5 1t-24.5 4t-21.5 4.5t-24 7t-21.5 7.5t-24.5 9t-22.5 8q-85 29 -137 29q-34 0 -60 -24t-30 -60h-131q20 115 78.5 182.5t156.5 67.5
q51 0 140 -29q13 -5 34 -13.5t33 -13.5t27 -10t26 -7.5t19 -2.5q36 0 67.5 26.5t34.5 59.5z" />
    <glyph glyph-name="Ograve" unicode="&#xd2;" 
d="M797 1270q-92 0 -150.5 -45t-90.5 -156t-32 -295q0 -121 14 -210.5t37.5 -143.5t60 -86t74.5 -43.5t87 -11.5t86.5 11t73.5 43.5t59.5 86t38 143.5t14.5 211q0 116 -12 202t-34 142t-56.5 90t-75 48t-94.5 14zM1536 774q0 -372 -197 -587.5t-542 -215.5t-542.5 215.5
t-197.5 587.5t197.5 587.5t542.5 215.5t542 -215.5t197 -587.5zM762 1651l-303 299h317l191 -299h-205z" />
    <glyph glyph-name="Oacute" unicode="&#xd3;" 
d="M797 1270q-92 0 -150.5 -45t-90.5 -156t-32 -295q0 -121 14 -210.5t37.5 -143.5t60 -86t74.5 -43.5t87 -11.5t86.5 11t73.5 43.5t59.5 86t38 143.5t14.5 211q0 116 -12 202t-34 142t-56.5 90t-75 48t-94.5 14zM1536 774q0 -372 -197 -587.5t-542 -215.5t-542.5 215.5
t-197.5 587.5t197.5 587.5t542.5 215.5t542 -215.5t197 -587.5zM627 1651l190 299h318l-304 -299h-204z" />
    <glyph glyph-name="Ocircumflex" unicode="&#xd4;" 
d="M797 1270q-92 0 -150.5 -45t-90.5 -156t-32 -295q0 -121 14 -210.5t37.5 -143.5t60 -86t74.5 -43.5t87 -11.5t86.5 11t73.5 43.5t59.5 86t38 143.5t14.5 211q0 116 -12 202t-34 142t-56.5 90t-75 48t-94.5 14zM1536 774q0 -372 -197 -587.5t-542 -215.5t-542.5 215.5
t-197.5 587.5t197.5 587.5t542.5 215.5t542 -215.5t197 -587.5zM434 1651l232 299h256l237 -299h-233l-131 168l-131 -168h-230z" />
    <glyph glyph-name="Otilde" unicode="&#xd5;" 
d="M797 1270q-92 0 -150.5 -45t-90.5 -156t-32 -295q0 -121 14 -210.5t37.5 -143.5t60 -86t74.5 -43.5t87 -11.5t86.5 11t73.5 43.5t59.5 86t38 143.5t14.5 211q0 116 -12 202t-34 142t-56.5 90t-75 48t-94.5 14zM1536 774q0 -372 -197 -587.5t-542 -215.5t-542.5 215.5
t-197.5 587.5t197.5 587.5t542.5 215.5t542 -215.5t197 -587.5zM1038 1925h133q-28 -117 -80 -181.5t-149 -64.5q-12 0 -23.5 1t-24.5 4t-21.5 4.5t-24 7t-21.5 7.5t-24.5 9t-22.5 8q-85 29 -137 29q-34 0 -60 -24t-30 -60h-131q20 115 78.5 182.5t156.5 67.5q51 0 140 -29
q13 -5 34 -13.5t33 -13.5t27 -10t26 -7.5t19 -2.5q36 0 67.5 26.5t34.5 59.5z" />
    <glyph glyph-name="Odieresis" unicode="&#xd6;" 
d="M797 1270q-92 0 -150.5 -45t-90.5 -156t-32 -295q0 -121 14 -210.5t37.5 -143.5t60 -86t74.5 -43.5t87 -11.5t86.5 11t73.5 43.5t59.5 86t38 143.5t14.5 211q0 116 -12 202t-34 142t-56.5 90t-75 48t-94.5 14zM1536 774q0 -372 -197 -587.5t-542 -215.5t-542.5 215.5
t-197.5 587.5t197.5 587.5t542.5 215.5t542 -215.5t197 -587.5zM455 1657v262h282v-262h-282zM852 1657v262h283v-262h-283z" />
    <glyph glyph-name="multiply" unicode="&#xd7;" horiz-adv-x="1228" 
d="M446 518l-315 316l168 167l315 -315l316 315l168 -167l-318 -316l318 -315l-168 -168l-316 317l-315 -317l-168 168z" />
    <glyph glyph-name="Oslash" unicode="&#xd8;" 
d="M528 676l476 477q-60 117 -207 117q-92 0 -150.5 -45t-90.5 -156t-32 -295q0 -71 4 -98zM-8 139l174 174q-109 192 -109 461q0 372 197.5 587.5t542.5 215.5q287 0 475 -156l155 156l175 -174l-172 -170q106 -189 106 -459q0 -372 -197 -587.5t-542 -215.5
q-286 0 -475 156l-160 -158zM1065 868l-475 -473q62 -116 207 -116q49 0 86.5 11t73.5 43.5t59.5 86t38 143.5t14.5 211q0 65 -4 94z" />
    <glyph glyph-name="Ugrave" unicode="&#xd9;" 
d="M1444 1548v-993q0 -89 -18 -168.5t-65 -157t-119.5 -133.5t-190 -90.5t-267.5 -34.5q-124 0 -224.5 24t-168 67t-116 96.5t-75 119.5t-38.5 128t-12 129v1013h442v-975q0 -76 23 -131.5t61 -84t78 -41.5t84 -13q134 0 200 72.5t66 245.5v927h340zM762 1651l-303 299h317
l191 -299h-205z" />
    <glyph glyph-name="Uacute" unicode="&#xda;" 
d="M1444 1548v-993q0 -89 -18 -168.5t-65 -157t-119.5 -133.5t-190 -90.5t-267.5 -34.5q-124 0 -224.5 24t-168 67t-116 96.5t-75 119.5t-38.5 128t-12 129v1013h442v-975q0 -76 23 -131.5t61 -84t78 -41.5t84 -13q134 0 200 72.5t66 245.5v927h340zM627 1651l190 299h318
l-304 -299h-204z" />
    <glyph glyph-name="Ucircumflex" unicode="&#xdb;" 
d="M1444 1548v-993q0 -89 -18 -168.5t-65 -157t-119.5 -133.5t-190 -90.5t-267.5 -34.5q-124 0 -224.5 24t-168 67t-116 96.5t-75 119.5t-38.5 128t-12 129v1013h442v-975q0 -76 23 -131.5t61 -84t78 -41.5t84 -13q134 0 200 72.5t66 245.5v927h340zM434 1651l232 299h256
l237 -299h-233l-131 168l-131 -168h-230z" />
    <glyph glyph-name="Udieresis" unicode="&#xdc;" 
d="M1444 1548v-993q0 -89 -18 -168.5t-65 -157t-119.5 -133.5t-190 -90.5t-267.5 -34.5q-124 0 -224.5 24t-168 67t-116 96.5t-75 119.5t-38.5 128t-12 129v1013h442v-975q0 -76 23 -131.5t61 -84t78 -41.5t84 -13q134 0 200 72.5t66 245.5v927h340zM455 1657v262h282v-262
h-282zM852 1657v262h283v-262h-283z" />
    <glyph glyph-name="Yacute" unicode="&#xdd;" 
d="M590 0v657l-561 891h501l324 -526l309 526h402l-533 -854v-694h-442zM668 1651l190 299h318l-304 -299h-204z" />
    <glyph glyph-name="Thorn" unicode="&#xde;" horiz-adv-x="1515" 
d="M123 0v1548h442v-205h357q270 0 417.5 -128.5t147.5 -342.5q0 -124 -46.5 -219t-129 -152.5t-189 -86.5t-233.5 -29h-324v-385h-442zM565 1049v-357h248q34 0 67.5 9t66 27.5t53 54t20.5 81.5q0 50 -19 87t-43.5 55t-60 28.5t-56.5 12.5t-44 2h-232z" />
    <glyph glyph-name="germandbls" unicode="&#xdf;" horiz-adv-x="1251" 
d="M467 0h-385v1151q0 191 139 308.5t365 117.5q135 0 243 -46.5t171 -136t63 -206.5q0 -78 -16.5 -137t-48.5 -98t-69 -63.5t-87 -41.5v-4q327 -60 327 -445q0 -180 -110.5 -295.5t-272.5 -115.5q-144 0 -223 37v254q60 -21 80 -21q45 0 74.5 17.5t43.5 53t18.5 74
t4.5 95.5q0 31 -5 63.5t-18 70.5t-41.5 63t-68.5 28t-80 0v238q119 0 119 178q0 45 -4 75t-16.5 58t-37.5 41.5t-63 13.5q-33 0 -55 -17.5t-31.5 -50t-12.5 -61.5t-3 -68v-1130z" />
    <glyph glyph-name="agrave" unicode="&#xe0;" horiz-adv-x="1138" 
d="M408 748l-320 67q18 84 65.5 145t116 94.5t143 48.5t160.5 15q116 0 203.5 -17t140.5 -45.5t85.5 -70.5t44.5 -86.5t12 -99.5v-584q0 -154 43 -215h-395q-14 48 -17 98q-66 -60 -153.5 -93.5t-178.5 -33.5q-35 0 -73.5 7.5t-84 29.5t-80.5 56t-59 93.5t-24 135.5
q0 87 38 155t100 111t148.5 71t175.5 39.5t189 12.5v90q0 109 -129 109q-66 0 -99 -33t-52 -100zM686 270v228q-34 -4 -59.5 -8.5t-60.5 -13t-60 -21.5t-48.5 -30t-35.5 -42.5t-12 -56.5q0 -54 40 -85.5t78 -31.5q72 0 158 61zM535 1217l-304 299h318l190 -299h-204z" />
    <glyph glyph-name="aacute" unicode="&#xe1;" horiz-adv-x="1138" 
d="M408 748l-320 67q18 84 65.5 145t116 94.5t143 48.5t160.5 15q116 0 203.5 -17t140.5 -45.5t85.5 -70.5t44.5 -86.5t12 -99.5v-584q0 -154 43 -215h-395q-14 48 -17 98q-66 -60 -153.5 -93.5t-178.5 -33.5q-35 0 -73.5 7.5t-84 29.5t-80.5 56t-59 93.5t-24 135.5
q0 87 38 155t100 111t148.5 71t175.5 39.5t189 12.5v90q0 109 -129 109q-66 0 -99 -33t-52 -100zM686 270v228q-34 -4 -59.5 -8.5t-60.5 -13t-60 -21.5t-48.5 -30t-35.5 -42.5t-12 -56.5q0 -54 40 -85.5t78 -31.5q72 0 158 61zM399 1217l191 299h317l-303 -299h-205z" />
    <glyph glyph-name="acircumflex" unicode="&#xe2;" horiz-adv-x="1138" 
d="M408 748l-320 67q18 84 65.5 145t116 94.5t143 48.5t160.5 15q116 0 203.5 -17t140.5 -45.5t85.5 -70.5t44.5 -86.5t12 -99.5v-584q0 -154 43 -215h-395q-14 48 -17 98q-66 -60 -153.5 -93.5t-178.5 -33.5q-35 0 -73.5 7.5t-84 29.5t-80.5 56t-59 93.5t-24 135.5
q0 87 38 155t100 111t148.5 71t175.5 39.5t189 12.5v90q0 109 -129 109q-66 0 -99 -33t-52 -100zM686 270v228q-34 -4 -59.5 -8.5t-60.5 -13t-60 -21.5t-48.5 -30t-35.5 -42.5t-12 -56.5q0 -54 40 -85.5t78 -31.5q72 0 158 61zM207 1217l231 299h256l238 -299h-234l-131 167
l-131 -167h-229z" />
    <glyph glyph-name="atilde" unicode="&#xe3;" horiz-adv-x="1138" 
d="M408 748l-320 67q18 84 65.5 145t116 94.5t143 48.5t160.5 15q116 0 203.5 -17t140.5 -45.5t85.5 -70.5t44.5 -86.5t12 -99.5v-584q0 -154 43 -215h-395q-14 48 -17 98q-66 -60 -153.5 -93.5t-178.5 -33.5q-35 0 -73.5 7.5t-84 29.5t-80.5 56t-59 93.5t-24 135.5
q0 87 38 155t100 111t148.5 71t175.5 39.5t189 12.5v90q0 109 -129 109q-66 0 -99 -33t-52 -100zM686 270v228q-34 -4 -59.5 -8.5t-60.5 -13t-60 -21.5t-48.5 -30t-35.5 -42.5t-12 -56.5q0 -54 40 -85.5t78 -31.5q72 0 158 61zM811 1491h133q-28 -117 -80 -181.5t-149 -64.5
q-12 0 -23.5 1t-24.5 4t-21.5 4.5t-24 7t-21.5 7.5t-24.5 9t-22.5 8q-85 29 -137 29q-34 0 -60 -24t-30 -60h-131q20 115 78.5 182.5t156.5 67.5q50 0 139 -29q12 -5 33.5 -13.5t33.5 -13t27.5 -10t26.5 -8t19 -2.5q36 0 67.5 26.5t34.5 59.5z" />
    <glyph glyph-name="adieresis" unicode="&#xe4;" horiz-adv-x="1138" 
d="M408 748l-320 67q18 84 65.5 145t116 94.5t143 48.5t160.5 15q116 0 203.5 -17t140.5 -45.5t85.5 -70.5t44.5 -86.5t12 -99.5v-584q0 -154 43 -215h-395q-14 48 -17 98q-66 -60 -153.5 -93.5t-178.5 -33.5q-35 0 -73.5 7.5t-84 29.5t-80.5 56t-59 93.5t-24 135.5
q0 87 38 155t100 111t148.5 71t175.5 39.5t189 12.5v90q0 109 -129 109q-66 0 -99 -33t-52 -100zM686 270v228q-34 -4 -59.5 -8.5t-60.5 -13t-60 -21.5t-48.5 -30t-35.5 -42.5t-12 -56.5q0 -54 40 -85.5t78 -31.5q72 0 158 61zM227 1223v262h283v-262h-283zM625 1223v262
h282v-262h-282z" />
    <glyph glyph-name="aring" unicode="&#xe5;" horiz-adv-x="1138" 
d="M408 748l-320 67q18 84 65.5 145t116 94.5t143 48.5t160.5 15q116 0 203.5 -17t140.5 -45.5t85.5 -70.5t44.5 -86.5t12 -99.5v-584q0 -154 43 -215h-395q-14 48 -17 98q-66 -60 -153.5 -93.5t-178.5 -33.5q-35 0 -73.5 7.5t-84 29.5t-80.5 56t-59 93.5t-24 135.5
q0 87 38 155t100 111t148.5 71t175.5 39.5t189 12.5v90q0 109 -129 109q-66 0 -99 -33t-52 -100zM686 270v228q-34 -4 -59.5 -8.5t-60.5 -13t-60 -21.5t-48.5 -30t-35.5 -42.5t-12 -56.5q0 -54 40 -85.5t78 -31.5q72 0 158 61zM473 1403q0 -51 35 -86t86 -35t86 35t35 86
t-35 86t-86 35t-86 -35t-35 -86zM375 1403q0 91 64 155t155 64t155 -64t64 -155t-64 -155t-155 -64t-155 64t-64 155z" />
    <glyph glyph-name="ae" unicode="&#xe6;" horiz-adv-x="1820" 
d="M414 756l-322 69q80 293 473 293q219 0 373 -102q141 102 299 102q268 0 410.5 -154t142.5 -436v-55h-733q3 -121 60 -186.5t169 -65.5q74 0 143.5 44t104.5 116l248 -119q-75 -139 -224.5 -215t-345.5 -76q-125 0 -225 42t-188 145q-81 -84 -196.5 -135.5t-231.5 -51.5
q-146 0 -240 87t-94 233q0 100 49 176t138.5 122t207 69t262.5 24v57q0 154 -133 154q-58 0 -98.5 -39t-48.5 -98zM541 197q74 0 178 84q-29 122 -31 202q-50 0 -93 -8t-84 -26.5t-65 -55t-24 -88.5q0 -45 37 -76.5t82 -31.5zM1067 682h338q-3 39 -13 74t-27.5 67t-49 51
t-72.5 19q-176 0 -176 -211z" />
    <glyph glyph-name="ccedilla" unicode="&#xe7;" horiz-adv-x="1138" 
d="M1096 729l-348 -22q-5 74 -37 117.5t-107 43.5q-71 0 -115.5 -73.5t-44.5 -249.5q0 -177 47 -250.5t152 -73.5q85 0 130 48.5t75 136.5l276 -50q-145 -369 -491 -383l-70 -98l4 -4q42 15 80 12q170 -12 170 -157q0 -66 -41 -111t-99 -63.5t-126 -18.5q-39 0 -74 7.5
t-85.5 24.5t-57.5 19l39 86q101 -32 174 -32q34 0 63 22.5t29 54.5q0 34 -23.5 55t-58.5 21q-51 0 -92 -16l-43 41l106 161q-218 19 -351.5 170t-133.5 398q0 252 154 412.5t399 160.5q198 0 324 -98.5t176 -290.5z" />
    <glyph glyph-name="egrave" unicode="&#xe8;" horiz-adv-x="1249" 
d="M1200 473h-756q0 -115 71.5 -183.5t182.5 -68.5q74 0 143.5 44t104.5 116l254 -115q-101 -148 -241.5 -221.5t-333.5 -73.5q-261 0 -421.5 153.5t-160.5 420.5q0 253 159 413t423 160q124 0 227 -36.5t181.5 -110t122.5 -192.5t44 -275v-31zM459 682h340q3 91 -38.5 151
t-121.5 60q-176 0 -180 -211zM590 1217l-303 299h317l191 -299h-205z" />
    <glyph glyph-name="eacute" unicode="&#xe9;" horiz-adv-x="1249" 
d="M1200 473h-756q0 -115 71.5 -183.5t182.5 -68.5q74 0 143.5 44t104.5 116l254 -115q-101 -148 -241.5 -221.5t-333.5 -73.5q-261 0 -421.5 153.5t-160.5 420.5q0 253 159 413t423 160q124 0 227 -36.5t181.5 -110t122.5 -192.5t44 -275v-31zM459 682h340q3 91 -38.5 151
t-121.5 60q-176 0 -180 -211zM455 1217l190 299h318l-304 -299h-204z" />
    <glyph glyph-name="ecircumflex" unicode="&#xea;" horiz-adv-x="1249" 
d="M1200 473h-756q0 -115 71.5 -183.5t182.5 -68.5q74 0 143.5 44t104.5 116l254 -115q-101 -148 -241.5 -221.5t-333.5 -73.5q-261 0 -421.5 153.5t-160.5 420.5q0 253 159 413t423 160q124 0 227 -36.5t181.5 -110t122.5 -192.5t44 -275v-31zM459 682h340q3 91 -38.5 151
t-121.5 60q-176 0 -180 -211zM262 1217l232 299h256l237 -299h-233l-131 167l-131 -167h-230z" />
    <glyph glyph-name="edieresis" unicode="&#xeb;" horiz-adv-x="1249" 
d="M1200 473h-756q0 -115 71.5 -183.5t182.5 -68.5q74 0 143.5 44t104.5 116l254 -115q-101 -148 -241.5 -221.5t-333.5 -73.5q-261 0 -421.5 153.5t-160.5 420.5q0 253 159 413t423 160q124 0 227 -36.5t181.5 -110t122.5 -192.5t44 -275v-31zM459 682h340q3 91 -38.5 151
t-121.5 60q-176 0 -180 -211zM283 1223v262h282v-262h-282zM680 1223v262h283v-262h-283z" />
    <glyph glyph-name="igrave" unicode="&#xec;" horiz-adv-x="569" 
d="M92 0v1090h385v-1090h-385zM250 1217l-303 299h317l191 -299h-205z" />
    <glyph glyph-name="iacute" unicode="&#xed;" horiz-adv-x="569" 
d="M92 0v1090h385v-1090h-385zM115 1217l190 299h318l-304 -299h-204z" />
    <glyph glyph-name="icircumflex" unicode="&#xee;" horiz-adv-x="569" 
d="M92 0v1090h385v-1090h-385zM-78 1217l232 299h256l237 -299h-233l-131 167l-131 -167h-230z" />
    <glyph glyph-name="idieresis" unicode="&#xef;" horiz-adv-x="569" 
d="M92 0v1090h385v-1090h-385zM-57 1223v262h282v-262h-282zM340 1223v262h283v-262h-283z" />
    <glyph glyph-name="eth" unicode="&#xf0;" horiz-adv-x="1249" 
d="M545 1307l-193 -129l-157 118l165 109q-52 36 -182 72l184 241q189 -44 314 -112l209 133l143 -121l-199 -129q129 -93 216 -238t124 -300t37 -322q0 -316 -150.5 -487t-430.5 -171q-261 0 -421.5 153.5t-160.5 420.5q-1 89 18.5 168t59.5 146t98 115.5t139.5 75.5
t178.5 27q88 0 162.5 -35t115.5 -106l4 4q-23 202 -274 367zM625 221q91 0 135.5 71.5t44.5 252.5t-44.5 252t-135.5 71t-136 -71t-45 -252t45 -252.5t136 -71.5z" />
    <glyph glyph-name="ntilde" unicode="&#xf1;" horiz-adv-x="1249" 
d="M98 0v1090h385v-156q184 184 355 184q35 0 73 -8t82 -31t78 -58t57 -95.5t23 -137.5v-788h-385v690q0 158 -117 158q-38 0 -76 -25t-90 -73v-750h-385zM866 1491h133q-28 -117 -80 -181.5t-149 -64.5q-12 0 -23.5 1t-24.5 4t-21.5 4.5t-24 7t-21.5 7.5t-24.5 9t-22.5 8
q-85 29 -137 29q-34 0 -60 -24t-30 -60h-131q20 115 78.5 182.5t156.5 67.5q51 0 140 -29q13 -5 34 -13.5t33 -13.5t27 -10t26 -7.5t19 -2.5q36 0 67.5 26.5t34.5 59.5z" />
    <glyph glyph-name="ograve" unicode="&#xf2;" horiz-adv-x="1249" 
d="M625 221q91 0 135.5 71.5t44.5 252.5t-44.5 252t-135.5 71t-136 -71t-45 -252t45 -252.5t136 -71.5zM1206 545q0 -259 -160 -416.5t-421 -157.5t-421.5 153.5t-160.5 420.5q0 253 159 413t423 160q166 0 297.5 -69.5t207.5 -201t76 -302.5zM590 1217l-303 299h317
l191 -299h-205z" />
    <glyph glyph-name="oacute" unicode="&#xf3;" horiz-adv-x="1249" 
d="M625 221q91 0 135.5 71.5t44.5 252.5t-44.5 252t-135.5 71t-136 -71t-45 -252t45 -252.5t136 -71.5zM1206 545q0 -259 -160 -416.5t-421 -157.5t-421.5 153.5t-160.5 420.5q0 253 159 413t423 160q166 0 297.5 -69.5t207.5 -201t76 -302.5zM455 1217l190 299h318
l-304 -299h-204z" />
    <glyph glyph-name="ocircumflex" unicode="&#xf4;" horiz-adv-x="1249" 
d="M625 221q91 0 135.5 71.5t44.5 252.5t-44.5 252t-135.5 71t-136 -71t-45 -252t45 -252.5t136 -71.5zM1206 545q0 -259 -160 -416.5t-421 -157.5t-421.5 153.5t-160.5 420.5q0 253 159 413t423 160q166 0 297.5 -69.5t207.5 -201t76 -302.5zM262 1217l232 299h256
l237 -299h-233l-131 167l-131 -167h-230z" />
    <glyph glyph-name="otilde" unicode="&#xf5;" horiz-adv-x="1249" 
d="M625 221q91 0 135.5 71.5t44.5 252.5t-44.5 252t-135.5 71t-136 -71t-45 -252t45 -252.5t136 -71.5zM1206 545q0 -259 -160 -416.5t-421 -157.5t-421.5 153.5t-160.5 420.5q0 253 159 413t423 160q166 0 297.5 -69.5t207.5 -201t76 -302.5zM866 1491h133
q-28 -117 -80 -181.5t-149 -64.5q-12 0 -23.5 1t-24.5 4t-21.5 4.5t-24 7t-21.5 7.5t-24.5 9t-22.5 8q-85 29 -137 29q-34 0 -60 -24t-30 -60h-131q20 115 78.5 182.5t156.5 67.5q51 0 140 -29q13 -5 34 -13.5t33 -13.5t27 -10t26 -7.5t19 -2.5q36 0 67.5 26.5t34.5 59.5z
" />
    <glyph glyph-name="odieresis" unicode="&#xf6;" horiz-adv-x="1249" 
d="M625 221q91 0 135.5 71.5t44.5 252.5t-44.5 252t-135.5 71t-136 -71t-45 -252t45 -252.5t136 -71.5zM1206 545q0 -259 -160 -416.5t-421 -157.5t-421.5 153.5t-160.5 420.5q0 253 159 413t423 160q166 0 297.5 -69.5t207.5 -201t76 -302.5zM283 1223v262h282v-262h-282z
M680 1223v262h283v-262h-283z" />
    <glyph glyph-name="divide" unicode="&#xf7;" horiz-adv-x="1228" 
d="M96 393v250h1037v-250h-1037zM426 96q0 80 56.5 136.5t135.5 56.5q80 0 136.5 -56.5t56.5 -136.5q0 -79 -56.5 -135.5t-136.5 -56.5t-136 56t-56 136zM426 940q0 80 56.5 136.5t135.5 56.5q80 0 136.5 -56.5t56.5 -136.5q0 -79 -56.5 -135.5t-136.5 -56.5t-136 56
t-56 136z" />
    <glyph glyph-name="oslash" unicode="&#xf8;" horiz-adv-x="1249" 
d="M805 571l-307 -290q40 -60 127 -60q91 0 135.5 71.5t44.5 252.5v26zM444 528l301 289q-43 51 -120 51q-91 0 -136 -71t-45 -252v-17zM143 -55l-145 151l129 125q-84 136 -84 324q0 253 159 413t423 160q194 0 336 -94l143 139l147 -166l-135 -129q90 -142 90 -323
q0 -259 -160 -416.5t-421 -157.5q-206 0 -351 97z" />
    <glyph glyph-name="ugrave" unicode="&#xf9;" horiz-adv-x="1249" 
d="M1151 1090v-1090h-385v156q-185 -185 -354 -185q-35 0 -73 8t-82.5 31t-78.5 58t-57 95.5t-23 137.5v789h385v-691q0 -157 117 -157q38 0 76 25t90 73v750h385zM590 1217l-303 299h317l191 -299h-205z" />
    <glyph glyph-name="uacute" unicode="&#xfa;" horiz-adv-x="1249" 
d="M1151 1090v-1090h-385v156q-185 -185 -354 -185q-35 0 -73 8t-82.5 31t-78.5 58t-57 95.5t-23 137.5v789h385v-691q0 -157 117 -157q38 0 76 25t90 73v750h385zM455 1217l190 299h318l-304 -299h-204z" />
    <glyph glyph-name="ucircumflex" unicode="&#xfb;" horiz-adv-x="1249" 
d="M1151 1090v-1090h-385v156q-185 -185 -354 -185q-35 0 -73 8t-82.5 31t-78.5 58t-57 95.5t-23 137.5v789h385v-691q0 -157 117 -157q38 0 76 25t90 73v750h385zM262 1217l232 299h256l237 -299h-233l-131 167l-131 -167h-230z" />
    <glyph glyph-name="udieresis" unicode="&#xfc;" horiz-adv-x="1249" 
d="M1151 1090v-1090h-385v156q-185 -185 -354 -185q-35 0 -73 8t-82.5 31t-78.5 58t-57 95.5t-23 137.5v789h385v-691q0 -157 117 -157q38 0 76 25t90 73v750h385zM283 1223v262h282v-262h-282zM680 1223v262h283v-262h-283z" />
    <glyph glyph-name="yacute" unicode="&#xfd;" horiz-adv-x="1138" 
d="M369 125l-365 965h410l209 -613h4l217 613h293l-414 -1018q-22 -55 -38 -90t-42.5 -82t-53 -76t-67.5 -61t-88 -49.5t-112 -29.5t-142 -12q-55 0 -114 6v273q80 -17 139 -17q25 0 51.5 3.5t59.5 12.5t54 30t21 51q0 33 -22 94zM399 1217l191 299h317l-303 -299h-205z" />
    <glyph glyph-name="thorn" unicode="&#xfe;" horiz-adv-x="1251" 
d="M98 -328v1876h385v-561q163 131 316 131q102 0 182.5 -49.5t128.5 -131t73 -177t25 -195.5q0 -88 -15 -169.5t-48.5 -157t-83 -131.5t-124 -89.5t-165.5 -33.5q-81 0 -157 38t-132 101v-451h-385zM483 799v-498q29 -31 46.5 -47t48 -30.5t65.5 -14.5q164 0 164 352
q0 31 -1 55.5t-4.5 59.5t-10.5 61.5t-19.5 55t-30.5 46.5t-45 30t-61 12q-43 0 -84.5 -24.5t-67.5 -57.5z" />
    <glyph glyph-name="ydieresis" unicode="&#xff;" horiz-adv-x="1138" 
d="M369 125l-365 965h410l209 -613h4l217 613h293l-414 -1018q-22 -55 -38 -90t-42.5 -82t-53 -76t-67.5 -61t-88 -49.5t-112 -29.5t-142 -12q-55 0 -114 6v273q80 -17 139 -17q25 0 51.5 3.5t59.5 12.5t54 30t21 51q0 33 -22 94zM227 1223v262h283v-262h-283zM625 1223v262
h282v-262h-282z" />
    <glyph glyph-name="dotlessi" unicode="&#x131;" horiz-adv-x="569" 
d="M92 0v1090h385v-1090h-385z" />
    <glyph glyph-name="Lslash" unicode="&#x141;" horiz-adv-x="1253" 
d="M123 0v539l-143 -70v221l143 70v788h442v-577l459 219v-221l-459 -219v-418h647v-332h-1089z" />
    <glyph glyph-name="lslash" unicode="&#x142;" horiz-adv-x="569" 
d="M92 0v612l-168 -104v190l168 105v745h385v-504l168 105v-191l-168 -104v-854h-385z" />
    <glyph glyph-name="OE" unicode="&#x152;" horiz-adv-x="2048" 
d="M942 602v338q0 43 -1 68t-5 61.5t-11.5 57.5t-22.5 45.5t-36.5 37.5t-54 22t-74.5 9q-66 0 -113.5 -23.5t-84 -80t-54.5 -156.5t-18 -246q0 -100 14.5 -173.5t38 -117.5t59.5 -71t73 -36t85 -9q66 0 108.5 20t62.5 60.5t27 84.5t7 109zM2013 1548v-319h-653v-281h416
v-319h-416v-297h663v-332h-1237q-150 0 -275 39t-214 108.5t-151 165.5t-91.5 210.5t-29.5 242.5q0 124 26.5 238t82.5 213.5t135.5 173t192.5 115.5t247 42h1304z" />
    <glyph glyph-name="oe" unicode="&#x153;" horiz-adv-x="1935" 
d="M1886 473h-733q3 -117 65.5 -184.5t163.5 -67.5q74 0 143.5 44t104.5 116l256 -115q-103 -148 -244 -221.5t-333 -73.5q-74 0 -164.5 24t-163.5 81q-65 -52 -161 -78.5t-195 -26.5q-261 0 -421.5 153.5t-160.5 420.5q0 253 159 413t423 160q88 0 187.5 -26t164.5 -80
q153 106 332 106q124 0 227 -36.5t182.5 -110t123.5 -192.5t44 -275v-31zM625 221q91 0 135.5 71.5t44.5 252.5t-44.5 252t-135.5 71t-136 -71t-45 -252t45 -252.5t136 -71.5zM1163 682h338q-3 39 -13 74t-27.5 67t-49 51t-72.5 19q-176 0 -176 -211z" />
    <glyph glyph-name="Scaron" unicode="&#x160;" horiz-adv-x="1478" 
d="M1315 1333l-258 -213q-120 137 -324 137q-85 0 -135.5 -28.5t-50.5 -81.5q0 -40 29 -67.5t78.5 -44t113 -30t134 -29t141 -36.5t134 -57.5t113 -86.5t78.5 -129t29 -180q0 -78 -24.5 -152t-77 -140.5t-128.5 -116t-186 -78.5t-242 -29q-227 0 -397.5 67.5t-286.5 233.5
l267 207q152 -188 389 -188q122 0 182.5 39t60.5 96q0 37 -28.5 64.5t-77 44.5t-111.5 31.5t-132 31.5t-138.5 38t-132.5 57t-111.5 83.5t-77 122t-28.5 168.5q0 227 172 368.5t450 141.5q176 0 327.5 -59t248.5 -185zM608 1651l-231 299h229l131 -168l131 168h234
l-238 -299h-256z" />
    <glyph glyph-name="scaron" unicode="&#x161;" horiz-adv-x="1138" 
d="M31 201l227 145q58 -82 131 -115.5t180 -33.5q76 0 123 25t47 61q0 17 -5.5 27.5t-26 23.5t-67 25t-122.5 24q-156 24 -237.5 53t-130.5 82q-87 94 -87 217q0 162 127 272.5t340 110.5q364 0 482 -215l-228 -133q-20 49 -92.5 80t-140.5 31q-148 0 -148 -84
q0 -33 35.5 -48.5t136.5 -27.5q264 -34 390.5 -122t126.5 -245q0 -88 -31 -156.5t-96 -120t-174.5 -79t-258.5 -27.5q-164 0 -289.5 53t-211.5 177zM438 1217l-231 299h229l131 -168l131 168h234l-238 -299h-256z" />
    <glyph glyph-name="Ydieresis" unicode="&#x178;" 
d="M590 0v657l-561 891h501l324 -526l309 526h402l-533 -854v-694h-442zM485 1657v262h283v-262h-283zM883 1657v262h282v-262h-282z" />
    <glyph glyph-name="Zcaron" unicode="&#x17d;" horiz-adv-x="1368" 
d="M41 0v193l688 1036h-631v319h1229v-180l-674 -1036h666v-332h-1278zM553 1651l-231 299h229l131 -168l131 168h234l-238 -299h-256z" />
    <glyph glyph-name="zcaron" unicode="&#x17e;" horiz-adv-x="1138" 
d="M45 0v172l510 680h-453v238h949v-172l-506 -680h510v-238h-1010zM438 1217l-231 299h229l131 -168l131 168h234l-238 -299h-256z" />
    <glyph glyph-name="florin" unicode="&#x192;" horiz-adv-x="1478" 
d="M133 -328l49 240q72 -35 129 -35q49 0 79 31t42 102l135 766h-196v238h241l37 186q38 190 134 277.5t288 87.5q93 0 275 -33l-60 -246q-79 17 -115 17q-102 0 -122 -107l-37 -182h225v-238h-262l-113 -659q-22 -125 -62 -217.5t-85 -143t-102 -81t-103.5 -39.5t-99.5 -9
q-58 0 -137.5 11.5t-139.5 33.5z" />
    <glyph glyph-name="circumflex" unicode="&#x2c6;" horiz-adv-x="569" 
d="M-78 1217l232 299h256l237 -299h-233l-131 167l-131 -167h-230z" />
    <glyph glyph-name="caron" unicode="&#x2c7;" horiz-adv-x="569" 
d="M154 1217l-232 299h230l131 -168l131 168h233l-237 -299h-256z" />
    <glyph glyph-name="uni02C9" unicode="&#x2c9;" horiz-adv-x="569" 
d="M-31 1260v172h631v-172h-631z" />
    <glyph glyph-name="breve" unicode="&#x2d8;" horiz-adv-x="569" 
d="M496 1516h133q-50 -297 -344 -297q-156 0 -245.5 72.5t-98.5 224.5h133q6 -41 25.5 -70.5t50.5 -45.5t64 -23t75 -9q87 3 140.5 36t66.5 112z" />
    <glyph glyph-name="dotaccent" unicode="&#x2d9;" horiz-adv-x="569" 
d="M143 1223v262h283v-262h-283z" />
    <glyph glyph-name="ring" unicode="&#x2da;" horiz-adv-x="569" 
d="M164 1403q0 -51 35 -86t86 -35t86 35t35 86t-35 86t-86 35t-86 -35t-35 -86zM66 1403q0 91 64 155t155 64t155 -64t64 -155t-64 -155t-155 -64t-155 64t-64 155z" />
    <glyph glyph-name="ogonek" unicode="&#x2db;" horiz-adv-x="569" 
d="M604 -332v-108q-52 -19 -104 -19q-90 0 -152.5 57.5t-62.5 157.5q0 115 204 260h140l-26 -28q-26 -27 -34.5 -37t-32.5 -37t-34.5 -44t-25.5 -40.5t-21 -43.5t-6 -38q0 -45 20 -70.5t53 -25.5q43 0 82 16z" />
    <glyph glyph-name="tilde" unicode="&#x2dc;" horiz-adv-x="569" 
d="M526 1491h133q-28 -117 -80 -181.5t-149 -64.5q-12 0 -23.5 1t-24.5 4t-21.5 4.5t-24 7t-21.5 7.5t-24.5 9t-22.5 8q-85 29 -137 29q-34 0 -60 -24t-30 -60h-131q20 115 78.5 182.5t156.5 67.5q51 0 140 -29q13 -5 34 -13.5t33 -13.5t27 -10t26 -7.5t19 -2.5
q36 0 67.5 26.5t34.5 59.5z" />
    <glyph glyph-name="hungarumlaut" unicode="&#x2dd;" horiz-adv-x="569" 
d="M-115 1217l191 299h317l-303 -299h-205zM342 1217l190 299h318l-303 -299h-205z" />
    <glyph glyph-name="uni03A9" unicode="&#x3a9;" horiz-adv-x="1890" 
d="M446 279v6q-61 41 -114.5 95t-101 125.5t-75.5 164.5t-28 194q0 141 59 267.5t164 221.5t260.5 150.5t337.5 55.5q150 0 281.5 -38t227.5 -104t165.5 -153.5t104 -188.5t34.5 -207q0 -358 -325 -583v-6h356v-279h-741v213q73 43 129 93.5t103 120t72 164t25 208.5
q0 131 -50.5 240t-150 176t-229.5 67q-191 0 -315.5 -137.5t-124.5 -356.5q0 -203 92 -353.5t240 -221.5v-213h-748v279h352z" />
    <glyph glyph-name="uni03BC" unicode="&#x3bc;" horiz-adv-x="1249" 
d="M98 -328v1418h385v-691q0 -157 117 -157q50 0 108 40.5t58 63.5v744h385v-1090h-385v115q-102 -87 -201 -90q-39 0 -82 16v-369h-385z" />
    <glyph glyph-name="pi" unicode="&#x3c0;" horiz-adv-x="1583" 
d="M1522 868h-170v-499q0 -230 30 -369h-368q-43 56 -43 342v526h-312q-5 -207 -46.5 -473t-98.5 -395h-371q58 175 101 434t43 434q-167 0 -246 -20l-39 225q95 82 442 82h1108z" />
    <glyph glyph-name="uni2010" unicode="&#x2010;" horiz-adv-x="681" 
d="M59 381v315h547v-315h-547z" />
    <glyph glyph-name="endash" unicode="&#x2013;" horiz-adv-x="1024" 
d="M0 387v250h1024v-250h-1024z" />
    <glyph glyph-name="emdash" unicode="&#x2014;" horiz-adv-x="2048" 
d="M0 387v250h2048v-250h-2048z" />
    <glyph glyph-name="quoteleft" unicode="&#x2018;" horiz-adv-x="569" 
d="M84 782v371l264 395h137l-141 -364h141v-402h-401z" />
    <glyph glyph-name="quoteright" unicode="&#x2019;" horiz-adv-x="569" 
d="M84 1147v401h401v-370l-264 -396h-137l141 365h-141z" />
    <glyph glyph-name="quotesinglbase" unicode="&#x201a;" horiz-adv-x="569" 
d="M84 0v401h401v-370l-264 -396h-137l141 365h-141z" />
    <glyph glyph-name="quotedblleft" unicode="&#x201c;" horiz-adv-x="1024" 
d="M37 782v371l264 395h137l-141 -364h141v-402h-401zM586 782v371l264 395h137l-141 -364h141v-402h-401z" />
    <glyph glyph-name="quotedblright" unicode="&#x201d;" horiz-adv-x="1024" 
d="M37 1147v401h401v-370l-264 -396h-137l141 365h-141zM586 1147v401h401v-370l-264 -396h-137l141 365h-141z" />
    <glyph glyph-name="quotedblbase" unicode="&#x201e;" horiz-adv-x="1024" 
d="M37 0v401h401v-370l-264 -396h-137l141 365h-141zM586 0v401h401v-370l-264 -396h-137l141 365h-141z" />
    <glyph glyph-name="dagger" unicode="&#x2020;" horiz-adv-x="1138" 
d="M125 905v328l352 -74l12 17l-77 372h315l-78 -372l13 -17l352 74v-328l-352 74l-13 -16l84 -336q-53 -287 -84 -844h-160q-11 188 -18 292t-24 263t-41 289l83 336l-12 16z" />
    <glyph glyph-name="daggerdbl" unicode="&#x2021;" horiz-adv-x="1138" 
d="M1024 907l-352 76l-13 -18q0 -62 22 -149t52 -150q-30 -63 -52 -150t-22 -149l13 -19l352 76v-326l-352 76l-13 -18l78 -373h-336l78 373l-12 18l-352 -76v326l352 -76l12 19q0 62 -21.5 149t-51.5 150q30 63 51.5 150t21.5 149l-12 18l-352 -76v326l352 -76l12 19
l-78 372h336l-78 -372l13 -19l352 76v-326z" />
    <glyph glyph-name="bullet" unicode="&#x2022;" horiz-adv-x="1024" 
d="M125 774q0 160 113.5 273.5t273.5 113.5t273.5 -113.5t113.5 -273.5t-113.5 -273.5t-273.5 -113.5t-273.5 113.5t-113.5 273.5z" />
    <glyph glyph-name="ellipsis" unicode="&#x2026;" horiz-adv-x="2048" 
d="M141 0v401h402v-401h-402zM823 0v401h402v-401h-402zM1505 0v401h402v-401h-402z" />
    <glyph glyph-name="perthousand" unicode="&#x2030;" horiz-adv-x="2392" 
d="M1057 330q0 -51 35 -86t86 -35t85.5 35t34.5 86t-34.5 86t-85.5 35t-86 -35t-35 -86zM819 330q0 149 105 253.5t254 104.5t253.5 -104.5t104.5 -253.5t-104.5 -254t-253.5 -105t-254 105t-105 254zM1874 330q0 -51 35 -86t86 -35t86 35t35 86t-35 86t-86 35t-86 -35
t-35 -86zM1636 330q0 149 105 253.5t254 104.5t253.5 -104.5t104.5 -253.5t-104.5 -254t-253.5 -105t-254 105t-105 254zM39 1206q0 149 104.5 254t253.5 105t254 -105t105 -254t-105 -253.5t-254 -104.5t-253.5 104.5t-104.5 253.5zM276 1206q0 -51 35 -86t86 -35t86 35
t35 86t-35 86t-86 35t-86 -35t-35 -86zM250 -31l897 1608h182l-903 -1608h-176z" />
    <glyph glyph-name="guilsinglleft" unicode="&#x2039;" horiz-adv-x="569" 
d="M281 182l-244 330v4l239 326h250l-245 -330l251 -330h-251z" />
    <glyph glyph-name="guilsinglright" unicode="&#x203a;" horiz-adv-x="569" 
d="M43 182l246 330l-252 330h252l243 -330v-4l-239 -326h-250z" />
    <glyph glyph-name="fraction" unicode="&#x2044;" horiz-adv-x="342" 
d="M-336 -29l850 1594h164l-848 -1594h-166z" />
    <glyph glyph-name="Euro" unicode="&#x20ac;" horiz-adv-x="1478" 
d="M1350 1470v-321q-46 46 -135 76t-214 30q-308 0 -366 -245h625l-82 -197h-570q0 -5 -1 -24t-1 -29q0 -34 4 -66h518l-79 -196h-406q59 -222 361 -222q110 0 203 30t143 73v-322q-49 -33 -152.5 -58.5t-247.5 -25.5q-310 0 -484.5 131t-227.5 394h-201l80 196h100
q-2 18 -2 64q0 39 2 55h-180l80 197h119q22 98 57 178t93 151.5t135 119.5t186 76t243 28q136 0 243 -29t157 -64z" />
    <glyph glyph-name="afii61289" unicode="&#x2113;" horiz-adv-x="1390" 
d="M1178 471l157 -156q-72 -121 -171.5 -199t-199.5 -108.5t-212 -30.5q-381 0 -467 334q-1 3 -2 9.5t-2 9.5q-15 -10 -55 -37.5t-64 -42.5l-99 184q34 24 105.5 72.5t105.5 73.5v485q0 313 128.5 465.5t353.5 152.5q99 0 177 -33t125.5 -90t72 -129t24.5 -155
q0 -133 -64.5 -263t-174 -246t-283.5 -255l4 -55q6 -86 63 -137.5t144 -51.5q94 0 182 58.5t152 144.5zM633 1141v-322q121 118 191.5 238.5t70.5 220.5q0 79 -30 123.5t-91 44.5q-59 0 -100 -72t-41 -233z" />
    <glyph glyph-name="trademark" unicode="&#x2122;" horiz-adv-x="2048" 
d="M254 705v659h-227v184h704v-184h-227v-659h-250zM924 705v843h319l182 -489l183 489h319v-843h-225v548h-4l-182 -548h-181l-182 548h-4v-548h-225z" />
    <glyph glyph-name="Omega" unicode="&#x2126;" horiz-adv-x="1890" 
d="M446 279v6q-61 41 -114.5 95t-101 125.5t-75.5 164.5t-28 194q0 141 59 267.5t164 221.5t260.5 150.5t337.5 55.5q150 0 281.5 -38t227.5 -104t165.5 -153.5t104 -188.5t34.5 -207q0 -358 -325 -583v-6h356v-279h-741v213q73 43 129 93.5t103 120t72 164t25 208.5
q0 131 -50.5 240t-150 176t-229.5 67q-191 0 -315.5 -137.5t-124.5 -356.5q0 -203 92 -353.5t240 -221.5v-213h-748v279h352z" />
    <glyph glyph-name="estimated" unicode="&#x212e;" horiz-adv-x="1921" 
d="M1845 745h-1433q-13 0 -13 -8v-434q0 -22 19 -49q107 -111 247 -173.5t296 -62.5q168 0 316 70t255 193h127q-121 -142 -306 -225t-395 -83q-179 0 -343 63t-282.5 169t-188.5 253.5t-70 309.5t70 309.5t188.5 254.5t282.5 170t343 63q180 0 344.5 -63t283 -170
t189 -254.5t70.5 -309.5v-23zM1520 803v436q0 28 -23 51q-106 106 -244.5 166t-291.5 60t-293.5 -62t-245.5 -170q-23 -23 -23 -55v-426q0 -5 3.5 -10t9.5 -5h1097q11 0 11 15z" />
    <glyph glyph-name="partialdiff" unicode="&#x2202;" horiz-adv-x="1497" 
d="M250 1348l-109 243q214 140 504 140q158 0 295 -60t238 -168.5t159 -270t58 -355.5q0 -265 -95 -469.5t-267.5 -316t-395.5 -111.5q-111 0 -206 34.5t-159 90t-109.5 126t-66 142t-20.5 139.5q0 164 70 295t198 205.5t291 74.5q76 0 145 -21t117 -54t78.5 -62.5
t48.5 -56.5h2q2 12 2 55q0 99 -29.5 189t-83 159.5t-136 110.5t-181.5 41q-189 0 -348 -100zM676 258h2q62 0 117.5 33.5t94 87.5t64 117.5t35.5 128.5q-17 65 -90 128.5t-176 63.5q-120 0 -197 -89.5t-77 -219.5q0 -106 64.5 -178t162.5 -72z" />
    <glyph glyph-name="uni2206" unicode="&#x2206;" horiz-adv-x="1712" 
d="M55 0v186l578 1383h454l566 -1381v-188h-1598zM459 281h768l-258 628q-112 308 -125 351h-10q-11 -39 -55 -162.5t-56 -159.5z" />
    <glyph glyph-name="product" unicode="&#x220f;" horiz-adv-x="1847" 
d="M1800 1227h-264v-1438h-362v1438h-500v-1438h-365v1438h-262v305h1753v-305z" />
    <glyph glyph-name="summation" unicode="&#x2211;" horiz-adv-x="1452" 
d="M1413 -211h-1364v205l592 659l-561 645v234h1282v-299h-772v-8l473 -529l-522 -590v-10h872v-307z" />
    <glyph glyph-name="minus" unicode="&#x2212;" horiz-adv-x="1228" 
d="M96 393v250h1037v-250h-1037z" />
    <glyph glyph-name="uni2215" unicode="&#x2215;" horiz-adv-x="342" 
d="M-336 -29l850 1594h164l-848 -1594h-166z" />
    <glyph glyph-name="uni2219" unicode="&#x2219;" horiz-adv-x="739" 
d="M186 604q0 76 54 130t131 54t130.5 -54t53.5 -130t-53.5 -130t-130.5 -54t-131 54t-54 130z" />
    <glyph glyph-name="radical" unicode="&#x221a;" horiz-adv-x="1529" 
d="M1581 1833l-592 -2155h-289l-391 949l-182 -74l-61 178l458 189l264 -705q9 -29 29 -92.5t29 -93.5l4 -2q6 30 21.5 101t21.5 99l428 1606h260z" />
    <glyph glyph-name="infinity" unicode="&#x221e;" horiz-adv-x="1841" 
d="M1731 637v-2q0 -96 -33 -176.5t-88 -132.5t-124.5 -80.5t-144.5 -28.5q-107 0 -210 57t-211 203q-49 -61 -93 -104.5t-97 -81t-113 -56t-128 -18.5q-75 0 -144.5 29t-122.5 81t-84.5 128.5t-31.5 165.5q0 182 115.5 297.5t288.5 115.5q127 0 227 -63.5t197 -188.5
q4 5 30 34.5t35.5 38.5t35.5 36t41.5 38.5t43.5 32.5t51.5 30.5t53.5 21.5t62 16t67 4q161 -2 269 -111.5t108 -285.5zM510 401h4q44 0 86.5 17.5t84 54t67 64t65.5 75.5q-83 116 -122 155q-86 85 -191 85q-90 0 -148 -63.5t-59 -167.5q0 -90 61.5 -155t151.5 -65zM1335 852
h-4q-28 0 -54.5 -7t-52.5 -23t-45 -29.5t-44.5 -40.5t-38 -40t-38.5 -44.5t-32 -38.5q102 -131 171 -179.5t149 -48.5q87 0 139.5 69t52.5 151q0 101 -56 166t-147 65z" />
    <glyph glyph-name="integral" unicode="&#x222b;" horiz-adv-x="958" 
d="M934 1878l-35 -225q-45 18 -92 18q-87 0 -129 -61q-34 -44 -47 -129.5t-13 -227.5q0 -175 19.5 -498.5t19.5 -529.5q0 -286 -86 -434q-52 -93 -142.5 -137.5t-195.5 -44.5q-56 0 -114.5 11t-91.5 26l41 235q54 -24 110 -24q74 0 115 47q35 43 51 116t16 207
q0 209 -20.5 542.5t-20.5 520.5q0 192 37 311t119 199q53 53 134 80t169 27q86 0 156 -29z" />
    <glyph glyph-name="approxequal" unicode="&#x2248;" horiz-adv-x="1376" 
d="M1161 1040l127 -127q-73 -115 -164 -176t-186 -61q-75 0 -134.5 21t-146.5 71q-50 28 -68.5 38t-60 23t-79.5 13t-72 -12.5t-66 -39.5t-53.5 -49.5t-54.5 -62.5l-125 127q60 101 164 169t217 68q77 0 134 -21t122 -60q8 -5 27 -15.5t25.5 -14.5t22 -12.5t21.5 -11t19 -9
t19.5 -8t18 -5.5t20.5 -5t20 -2t22 -1q64 0 118.5 40.5t112.5 122.5zM1161 588l127 -127q-73 -114 -164 -176t-190 -62q-72 0 -132 21.5t-145 70.5q-48 27 -70.5 39t-60.5 23.5t-75 11.5q-40 0 -74.5 -12t-66.5 -39t-53 -50t-54 -63l-125 129q60 100 165 168t216 68
q53 0 104.5 -13.5t77.5 -26t74 -38.5q12 -7 49.5 -29.5t54 -31t48 -18t61.5 -9.5q66 0 117.5 39t115.5 125z" />
    <glyph glyph-name="notequal" unicode="&#x2260;" horiz-adv-x="1376" 
d="M1022 1163l-88 -192h326v-199h-410l-135 -297h545v-199h-629l-123 -272l-162 74l92 198h-321v199h405l135 297h-540v199h624l119 264z" />
    <glyph glyph-name="lessequal" unicode="&#x2264;" horiz-adv-x="1376" 
d="M1255 256l-1132 506v215l1132 506v-223l-921 -388v-4l921 -391v-221zM1262 -29h-1145v203h1145v-203z" />
    <glyph glyph-name="greaterequal" unicode="&#x2265;" horiz-adv-x="1376" 
d="M125 1483l1132 -508v-213l-1130 -506v221l920 389v6l-922 388v223zM1251 -29h-1132v203h1132v-203z" />
    <glyph glyph-name="lozenge" unicode="&#x25ca;" horiz-adv-x="1529" 
d="M1415 764l-514 -875h-283l-505 875l512 876h282zM1096 756l-287 518q-38 78 -45 104h-6q-11 -33 -45 -104l-283 -504l291 -520q5 -12 20.5 -49.5t20.5 -50.5h8q19 58 41 98z" />
    <glyph glyph-name="fi" unicode="&#xfb01;" horiz-adv-x="1366" 
d="M195 0v840h-160v250h160v124q0 56 6 102t16.5 81t28.5 62.5t36.5 46t45.5 32t51.5 21t59 12t63.5 5.5t69 1q31 0 191 -16v-254q-66 8 -76 8q-44 0 -75 -24.5t-31 -86.5v-114h182v-250h-182v-840h-385zM889 0v1090h385v-1090h-385zM889 1241v307h385v-307h-385z" />
    <glyph glyph-name="fl" unicode="&#xfb02;" horiz-adv-x="1366" 
d="M195 0v840h-160v250h160v124q0 56 6 102t16.5 81t28.5 62.5t36.5 46t45.5 32t51.5 21t59 12t63.5 5.5t69 1q31 0 191 -16v-254q-66 8 -76 8q-44 0 -75 -24.5t-31 -86.5v-114h182v-250h-182v-840h-385zM889 0v1548h385v-1548h-385z" />
    <glyph glyph-name="a.superior" horiz-adv-x="739" 
d="M264 1341l-207 41q22 96 110 139.5t206 43.5q96 0 160 -16t97 -48t45.5 -69t12.5 -89v-321q0 -94 29 -129h-258q-7 29 -10 61q-89 -77 -218 -77q-100 0 -154 53t-54 139q0 78 60.5 135.5t127.5 73.5q93 20 227 27v51q-5 61 -80 61q-40 0 -61.5 -19t-32.5 -57zM438 1032
v162q-172 -23 -172 -113q0 -37 21 -56t55 -19q38 0 96 26z" />
    <glyph glyph-name="o.superior" horiz-adv-x="813" 
d="M514 1210v62q0 133 -108 133q-107 0 -107 -133v-62q0 -29 1 -46.5t6.5 -45t16 -43t32 -27.5t51.5 -12q36 0 59.5 16t33 45.5t12.5 54t3 58.5zM784 1219q0 -155 -103 -248.5t-271 -93.5q-172 0 -276.5 90.5t-104.5 249.5q0 154 101 251t267 97q171 0 279 -94.5t108 -251.5
z" />
    <glyph glyph-name="one.superior" horiz-adv-x="960" 
d="M170 639v209h166v432q-103 -28 -164 -35v187q97 13 165.5 41.5t135.5 91.5h158v-717h160v-209h-621z" />
    <glyph glyph-name="two.superior" horiz-adv-x="960" 
d="M72 639v178l403 301q117 99 117 156q0 94 -117 94q-69 0 -122.5 -37.5t-76.5 -101.5l-208 98q44 100 154 169t272 69q89 0 160.5 -18.5t115 -47t72.5 -66.5t40 -73.5t11 -71.5q0 -152 -182 -264l-265 -156v-4h445v-225h-819z" />
    <glyph glyph-name="three.superior" horiz-adv-x="960" 
d="M20 805l187 117q42 -54 107.5 -84.5t134.5 -30.5q60 0 104.5 21t44.5 73q0 115 -240 115h-45v172h47q89 0 144 27t55 83q0 70 -123 70q-114 0 -225 -76l-148 133q158 140 400 140q65 0 128.5 -11.5t125 -37t99.5 -74t38 -113.5q0 -140 -192 -205v-4q105 -24 168 -80
t63 -149q0 -75 -40 -130t-107.5 -83.5t-140.5 -41.5t-154 -13q-129 0 -244.5 46t-186.5 136z" />
    </font>
</defs>
</svg>
